{
  "asset": {
    "version": "2.0",
    "generator": "Airside Batch C procedural kit"
  },
  "buffers": [
    {
      "uri": "mdl_eucalyptus_kit_v02.bin",
      "byteLength": 284544
    }
  ],
  "bufferViews": [
    {
      "buffer": 0,
      "byteOffset": 0,
      "byteLength": 5040,
      "target": 34962
    },
    {
      "buffer": 0,
      "byteOffset": 5040,
      "byteLength": 1008,
      "target": 34963
    },
    {
      "buffer": 0,
      "byteOffset": 6048,
      "byteLength": 3744,
      "target": 34962
    },
    {
      "buffer": 0,
      "byteOffset": 9792,
      "byteLength": 792,
      "target": 34963
    },
    {
      "buffer": 0,
      "byteOffset": 10584,
      "byteLength": 864,
      "target": 34962
    },
    {
      "buffer": 0,
      "byteOffset": 11448,
      "byteLength": 216,
      "target": 34963
    },
    {
      "buffer": 0,
      "byteOffset": 11664,
      "byteLength": 864,
      "target": 34962
    },
    {
      "buffer": 0,
      "byteOffset": 12528,
      "byteLength": 216,
      "target": 34963
    },
    {
      "buffer": 0,
      "byteOffset": 12744,
      "byteLength": 3120,
      "target": 34962
    },
    {
      "buffer": 0,
      "byteOffset": 15864,
      "byteLength": 624,
      "target": 34963
    },
    {
      "buffer": 0,
      "byteOffset": 16488,
      "byteLength": 15648,
      "target": 34962
    },
    {
      "buffer": 0,
      "byteOffset": 32136,
      "byteLength": 3912,
      "target": 34963
    },
    {
      "buffer": 0,
      "byteOffset": 36048,
      "byteLength": 13296,
      "target": 34962
    },
    {
      "buffer": 0,
      "byteOffset": 49344,
      "byteLength": 3324,
      "target": 34963
    },
    {
      "buffer": 0,
      "byteOffset": 52668,
      "byteLength": 13296,
      "target": 34962
    },
    {
      "buffer": 0,
      "byteOffset": 65964,
      "byteLength": 3324,
      "target": 34963
    },
    {
      "buffer": 0,
      "byteOffset": 69288,
      "byteLength": 10944,
      "target": 34962
    },
    {
      "buffer": 0,
      "byteOffset": 80232,
      "byteLength": 2736,
      "target": 34963
    },
    {
      "buffer": 0,
      "byteOffset": 82968,
      "byteLength": 9504,
      "target": 34962
    },
    {
      "buffer": 0,
      "byteOffset": 92472,
      "byteLength": 2376,
      "target": 34963
    },
    {
      "buffer": 0,
      "byteOffset": 94848,
      "byteLength": 5040,
      "target": 34962
    },
    {
      "buffer": 0,
      "byteOffset": 99888,
      "byteLength": 1008,
      "target": 34963
    },
    {
      "buffer": 0,
      "byteOffset": 100896,
      "byteLength": 3744,
      "target": 34962
    },
    {
      "buffer": 0,
      "byteOffset": 104640,
      "byteLength": 792,
      "target": 34963
    },
    {
      "buffer": 0,
      "byteOffset": 105432,
      "byteLength": 864,
      "target": 34962
    },
    {
      "buffer": 0,
      "byteOffset": 106296,
      "byteLength": 216,
      "target": 34963
    },
    {
      "buffer": 0,
      "byteOffset": 106512,
      "byteLength": 864,
      "target": 34962
    },
    {
      "buffer": 0,
      "byteOffset": 107376,
      "byteLength": 216,
      "target": 34963
    },
    {
      "buffer": 0,
      "byteOffset": 107592,
      "byteLength": 3120,
      "target": 34962
    },
    {
      "buffer": 0,
      "byteOffset": 110712,
      "byteLength": 624,
      "target": 34963
    },
    {
      "buffer": 0,
      "byteOffset": 111336,
      "byteLength": 15648,
      "target": 34962
    },
    {
      "buffer": 0,
      "byteOffset": 126984,
      "byteLength": 3912,
      "target": 34963
    },
    {
      "buffer": 0,
      "byteOffset": 130896,
      "byteLength": 13296,
      "target": 34962
    },
    {
      "buffer": 0,
      "byteOffset": 144192,
      "byteLength": 3324,
      "target": 34963
    },
    {
      "buffer": 0,
      "byteOffset": 147516,
      "byteLength": 13296,
      "target": 34962
    },
    {
      "buffer": 0,
      "byteOffset": 160812,
      "byteLength": 3324,
      "target": 34963
    },
    {
      "buffer": 0,
      "byteOffset": 164136,
      "byteLength": 10944,
      "target": 34962
    },
    {
      "buffer": 0,
      "byteOffset": 175080,
      "byteLength": 2736,
      "target": 34963
    },
    {
      "buffer": 0,
      "byteOffset": 177816,
      "byteLength": 9504,
      "target": 34962
    },
    {
      "buffer": 0,
      "byteOffset": 187320,
      "byteLength": 2376,
      "target": 34963
    },
    {
      "buffer": 0,
      "byteOffset": 189696,
      "byteLength": 5040,
      "target": 34962
    },
    {
      "buffer": 0,
      "byteOffset": 194736,
      "byteLength": 1008,
      "target": 34963
    },
    {
      "buffer": 0,
      "byteOffset": 195744,
      "byteLength": 3744,
      "target": 34962
    },
    {
      "buffer": 0,
      "byteOffset": 199488,
      "byteLength": 792,
      "target": 34963
    },
    {
      "buffer": 0,
      "byteOffset": 200280,
      "byteLength": 864,
      "target": 34962
    },
    {
      "buffer": 0,
      "byteOffset": 201144,
      "byteLength": 216,
      "target": 34963
    },
    {
      "buffer": 0,
      "byteOffset": 201360,
      "byteLength": 864,
      "target": 34962
    },
    {
      "buffer": 0,
      "byteOffset": 202224,
      "byteLength": 216,
      "target": 34963
    },
    {
      "buffer": 0,
      "byteOffset": 202440,
      "byteLength": 3120,
      "target": 34962
    },
    {
      "buffer": 0,
      "byteOffset": 205560,
      "byteLength": 624,
      "target": 34963
    },
    {
      "buffer": 0,
      "byteOffset": 206184,
      "byteLength": 15648,
      "target": 34962
    },
    {
      "buffer": 0,
      "byteOffset": 221832,
      "byteLength": 3912,
      "target": 34963
    },
    {
      "buffer": 0,
      "byteOffset": 225744,
      "byteLength": 13296,
      "target": 34962
    },
    {
      "buffer": 0,
      "byteOffset": 239040,
      "byteLength": 3324,
      "target": 34963
    },
    {
      "buffer": 0,
      "byteOffset": 242364,
      "byteLength": 13296,
      "target": 34962
    },
    {
      "buffer": 0,
      "byteOffset": 255660,
      "byteLength": 3324,
      "target": 34963
    },
    {
      "buffer": 0,
      "byteOffset": 258984,
      "byteLength": 10944,
      "target": 34962
    },
    {
      "buffer": 0,
      "byteOffset": 269928,
      "byteLength": 2736,
      "target": 34963
    },
    {
      "buffer": 0,
      "byteOffset": 272664,
      "byteLength": 9504,
      "target": 34962
    },
    {
      "buffer": 0,
      "byteOffset": 282168,
      "byteLength": 2376,
      "target": 34963
    }
  ],
  "accessors": [
    {
      "bufferView": 0,
      "componentType": 5126,
      "count": 420,
      "type": "VEC3",
      "max": [
        0.14000000059604645,
        3.1000001430511475,
        0.13314791023731232
      ],
      "min": [
        -0.14000000059604645,
        0.0,
        -0.13314791023731232
      ]
    },
    {
      "bufferView": 1,
      "componentType": 5123,
      "count": 504,
      "type": "SCALAR"
    },
    {
      "bufferView": 2,
      "componentType": 5126,
      "count": 312,
      "type": "VEC3",
      "max": [
        0.3199999928474426,
        0.20000003278255463,
        0.3199999928474426
      ],
      "min": [
        -0.3199999928474426,
        0.0,
        -0.3199999928474426
      ]
    },
    {
      "bufferView": 3,
      "componentType": 5123,
      "count": 396,
      "type": "SCALAR"
    },
    {
      "bufferView": 4,
      "componentType": 5126,
      "count": 72,
      "type": "VEC3",
      "max": [
        0.15700000524520874,
        0.9472000002861023,
        0.07400000095367432
      ],
      "min": [
        -0.16300000250339508,
        0.807200014591217,
        -0.09399999678134918
      ]
    },
    {
      "bufferView": 5,
      "componentType": 5123,
      "count": 108,
      "type": "SCALAR"
    },
    {
      "bufferView": 6,
      "componentType": 5126,
      "count": 72,
      "type": "VEC3",
      "max": [
        0.1459999978542328,
        1.7785999774932861,
        0.07199999690055847
      ],
      "min": [
        -0.15399999916553497,
        1.6485999822616577,
        -0.09200000017881393
      ]
    },
    {
      "bufferView": 7,
      "componentType": 5123,
      "count": 108,
      "type": "SCALAR"
    },
    {
      "bufferView": 8,
      "componentType": 5126,
      "count": 260,
      "type": "VEC3",
      "max": [
        0.47999998927116394,
        3.193000316619873,
        0.13500000536441803
      ],
      "min": [
        0.14499999582767487,
        1.9220000505447388,
        -0.25999999046325684
      ]
    },
    {
      "bufferView": 9,
      "componentType": 5123,
      "count": 312,
      "type": "SCALAR"
    },
    {
      "bufferView": 10,
      "componentType": 5126,
      "count": 1304,
      "type": "VEC3",
      "max": [
        0.9355673789978027,
        3.9700000286102295,
        0.8728616833686829
      ],
      "min": [
        -0.8791457414627075,
        2.5299999713897705,
        -0.8728616833686829
      ]
    },
    {
      "bufferView": 11,
      "componentType": 5123,
      "count": 1956,
      "type": "SCALAR"
    },
    {
      "bufferView": 12,
      "componentType": 5126,
      "count": 1108,
      "type": "VEC3",
      "max": [
        1.1901249885559082,
        3.2699999809265137,
        0.23190778493881226
      ],
      "min": [
        -0.05152077600359917,
        2.2300000190734863,
        -0.9319077730178833
      ]
    },
    {
      "bufferView": 13,
      "componentType": 5123,
      "count": 1662,
      "type": "SCALAR"
    },
    {
      "bufferView": 14,
      "componentType": 5126,
      "count": 1108,
      "type": "VEC3",
      "max": [
        0.09164426475763321,
        3.3299999237060547,
        0.9043200612068176
      ],
      "min": [
        -0.9589791297912598,
        2.369999885559082,
        -0.10432007908821106
      ]
    },
    {
      "bufferView": 15,
      "componentType": 5123,
      "count": 1662,
      "type": "SCALAR"
    },
    {
      "bufferView": 16,
      "componentType": 5126,
      "count": 912,
      "type": "VEC3",
      "max": [
        0.7227077484130859,
        3.8499999046325684,
        0.686430811882019
      ],
      "min": [
        -0.19419996440410614,
        3.049999952316284,
        -0.18643084168434143
      ]
    },
    {
      "bufferView": 17,
      "componentType": 5123,
      "count": 1368,
      "type": "SCALAR"
    },
    {
      "bufferView": 18,
      "componentType": 5126,
      "count": 792,
      "type": "VEC3",
      "max": [
        1.149999976158142,
        4.239999771118164,
        1.0499999523162842
      ],
      "min": [
        -1.149999976158142,
        1.340000033378601,
        -1.0499999523162842
      ]
    },
    {
      "bufferView": 19,
      "componentType": 5123,
      "count": 1188,
      "type": "SCALAR"
    },
    {
      "bufferView": 20,
      "componentType": 5126,
      "count": 420,
      "type": "VEC3",
      "max": [
        0.14000000059604645,
        2.6000001430511475,
        0.13314791023731232
      ],
      "min": [
        -0.14000000059604645,
        0.0,
        -0.13314791023731232
      ]
    },
    {
      "bufferView": 21,
      "componentType": 5123,
      "count": 504,
      "type": "SCALAR"
    },
    {
      "bufferView": 22,
      "componentType": 5126,
      "count": 312,
      "type": "VEC3",
      "max": [
        0.3199999928474426,
        0.20000003278255463,
        0.3199999928474426
      ],
      "min": [
        -0.3199999928474426,
        0.0,
        -0.3199999928474426
      ]
    },
    {
      "bufferView": 23,
      "componentType": 5123,
      "count": 396,
      "type": "SCALAR"
    },
    {
      "bufferView": 24,
      "componentType": 5126,
      "count": 72,
      "type": "VEC3",
      "max": [
        0.15700000524520874,
        0.807200014591217,
        0.07400000095367432
      ],
      "min": [
        -0.16300000250339508,
        0.6672000288963318,
        -0.09399999678134918
      ]
    },
    {
      "bufferView": 25,
      "componentType": 5123,
      "count": 108,
      "type": "SCALAR"
    },
    {
      "bufferView": 26,
      "componentType": 5126,
      "count": 72,
      "type": "VEC3",
      "max": [
        0.1459999978542328,
        1.503600001335144,
        0.07199999690055847
      ],
      "min": [
        -0.15399999916553497,
        1.3736000061035156,
        -0.09200000017881393
      ]
    },
    {
      "bufferView": 27,
      "componentType": 5123,
      "count": 108,
      "type": "SCALAR"
    },
    {
      "bufferView": 28,
      "componentType": 5126,
      "count": 260,
      "type": "VEC3",
      "max": [
        0.3799999952316284,
        2.677999973297119,
        0.13500000536441803
      ],
      "min": [
        0.04500000178813934,
        1.611999750137329,
        -0.25999999046325684
      ]
    },
    {
      "bufferView": 29,
      "componentType": 5123,
      "count": 312,
      "type": "SCALAR"
    },
    {
      "bufferView": 30,
      "componentType": 5126,
      "count": 1304,
      "type": "VEC3",
      "max": [
        0.8420106172561646,
        3.3980000019073486,
        0.7855755090713501
      ],
      "min": [
        -0.7912311553955078,
        2.1019999980926514,
        -0.7855755090713501
      ]
    },
    {
      "bufferView": 31,
      "componentType": 5123,
      "count": 1956,
      "type": "SCALAR"
    },
    {
      "bufferView": 32,
      "componentType": 5126,
      "count": 1108,
      "type": "VEC3",
      "max": [
        1.0711125135421753,
        2.7179999351501465,
        0.2087170034646988
      ],
      "min": [
        -0.04636869952082634,
        1.781999945640564,
        -0.838716983795166
      ]
    },
    {
      "bufferView": 33,
      "componentType": 5123,
      "count": 1662,
      "type": "SCALAR"
    },
    {
      "bufferView": 34,
      "componentType": 5126,
      "count": 1108,
      "type": "VEC3",
      "max": [
        0.08247983455657959,
        2.7820000648498535,
        0.8138880729675293
      ],
      "min": [
        -0.8630812168121338,
        1.9179999828338623,
        -0.09388807415962219
      ]
    },
    {
      "bufferView": 35,
      "componentType": 5123,
      "count": 1662,
      "type": "SCALAR"
    },
    {
      "bufferView": 36,
      "componentType": 5126,
      "count": 912,
      "type": "VEC3",
      "max": [
        0.6504369378089905,
        3.309999942779541,
        0.617787778377533
      ],
      "min": [
        -0.1747799664735794,
        2.5899999141693115,
        -0.16778776049613953
      ]
    },
    {
      "bufferView": 37,
      "componentType": 5123,
      "count": 1368,
      "type": "SCALAR"
    },
    {
      "bufferView": 38,
      "componentType": 5126,
      "count": 792,
      "type": "VEC3",
      "max": [
        1.034999966621399,
        3.6449999809265137,
        0.9449999928474426
      ],
      "min": [
        -1.034999966621399,
        1.034999966621399,
        -0.9449999928474426
      ]
    },
    {
      "bufferView": 39,
      "componentType": 5123,
      "count": 1188,
      "type": "SCALAR"
    },
    {
      "bufferView": 40,
      "componentType": 5126,
      "count": 420,
      "type": "VEC3",
      "max": [
        0.14000000059604645,
        3.5,
        0.13314791023731232
      ],
      "min": [
        -0.14000000059604645,
        0.0,
        -0.13314791023731232
      ]
    },
    {
      "bufferView": 41,
      "componentType": 5123,
      "count": 504,
      "type": "SCALAR"
    },
    {
      "bufferView": 42,
      "componentType": 5126,
      "count": 312,
      "type": "VEC3",
      "max": [
        0.3199999928474426,
        0.20000003278255463,
        0.3199999928474426
      ],
      "min": [
        -0.3199999928474426,
        0.0,
        -0.3199999928474426
      ]
    },
    {
      "bufferView": 43,
      "componentType": 5123,
      "count": 396,
      "type": "SCALAR"
    },
    {
      "bufferView": 44,
      "componentType": 5126,
      "count": 72,
      "type": "VEC3",
      "max": [
        0.15700000524520874,
        1.0592000484466553,
        0.07400000095367432
      ],
      "min": [
        -0.16300000250339508,
        0.9192000031471252,
        -0.09399999678134918
      ]
    },
    {
      "bufferView": 45,
      "componentType": 5123,
      "count": 108,
      "type": "SCALAR"
    },
    {
      "bufferView": 46,
      "componentType": 5126,
      "count": 72,
      "type": "VEC3",
      "max": [
        0.1459999978542328,
        1.9986000061035156,
        0.07199999690055847
      ],
      "min": [
        -0.15399999916553497,
        1.8686000108718872,
        -0.09200000017881393
      ]
    },
    {
      "bufferView": 47,
      "componentType": 5123,
      "count": 108,
      "type": "SCALAR"
    },
    {
      "bufferView": 48,
      "componentType": 5126,
      "count": 260,
      "type": "VEC3",
      "max": [
        0.46000000834465027,
        3.6050000190734863,
        0.13500000536441803
      ],
      "min": [
        0.125,
        2.1700000762939453,
        -0.25999999046325684
      ]
    },
    {
      "bufferView": 49,
      "componentType": 5123,
      "count": 312,
      "type": "SCALAR"
    },
    {
      "bufferView": 50,
      "componentType": 5126,
      "count": 1304,
      "type": "VEC3",
      "max": [
        1.0759024620056152,
        4.478000164031982,
        1.0037909746170044
      ],
      "min": [
        -1.0110175609588623,
        2.822000026702881,
        -1.0037909746170044
      ]
    },
    {
      "bufferView": 51,
      "componentType": 5123,
      "count": 1956,
      "type": "SCALAR"
    },
    {
      "bufferView": 52,
      "componentType": 5126,
      "count": 1108,
      "type": "VEC3",
      "max": [
        1.3686437606811523,
        3.747999906539917,
        0.26669394969940186
      ],
      "min": [
        -0.05924889072775841,
        2.552000045776367,
        -1.0716938972473145
      ]
    },
    {
      "bufferView": 53,
      "componentType": 5123,
      "count": 1662,
      "type": "SCALAR"
    },
    {
      "bufferView": 54,
      "componentType": 5126,
      "count": 1108,
      "type": "VEC3",
      "max": [
        0.10539090633392334,
        3.802000045776367,
        1.0399681329727173
      ],
      "min": [
        -1.1028259992599487,
        2.697999954223633,
        -0.11996809393167496
      ]
    },
    {
      "bufferView": 55,
      "componentType": 5123,
      "count": 1662,
      "type": "SCALAR"
    },
    {
      "bufferView": 56,
      "componentType": 5126,
      "count": 912,
      "type": "VEC3",
      "max": [
        0.831113874912262,
        4.309999942779541,
        0.7893954515457153
      ],
      "min": [
        -0.22332994639873505,
        3.390000104904175,
        -0.2143954634666443
      ]
    },
    {
      "bufferView": 57,
      "componentType": 5123,
      "count": 1368,
      "type": "SCALAR"
    },
    {
      "bufferView": 58,
      "componentType": 5126,
      "count": 792,
      "type": "VEC3",
      "max": [
        1.3224999904632568,
        4.817500114440918,
        1.2074999809265137
      ],
      "min": [
        -1.3224999904632568,
        1.4824999570846558,
        -1.2074999809265137
      ]
    },
    {
      "bufferView": 59,
      "componentType": 5123,
      "count": 1188,
      "type": "SCALAR"
    }
  ],
  "meshes": [
    {
      "name": "tree_a_trunk",
      "primitives": [
        {
          "attributes": {
            "POSITION": 0
          },
          "indices": 1,
          "mode": 4
        }
      ]
    },
    {
      "name": "tree_a_flare",
      "primitives": [
        {
          "attributes": {
            "POSITION": 2
          },
          "indices": 3,
          "mode": 4
        }
      ]
    },
    {
      "name": "tree_a_bark_low",
      "primitives": [
        {
          "attributes": {
            "POSITION": 4
          },
          "indices": 5,
          "mode": 4
        }
      ]
    },
    {
      "name": "tree_a_bark_mid",
      "primitives": [
        {
          "attributes": {
            "POSITION": 6
          },
          "indices": 7,
          "mode": 4
        }
      ]
    },
    {
      "name": "tree_a_fork",
      "primitives": [
        {
          "attributes": {
            "POSITION": 8
          },
          "indices": 9,
          "mode": 4
        }
      ]
    },
    {
      "name": "tree_a_canopy",
      "primitives": [
        {
          "attributes": {
            "POSITION": 10
          },
          "indices": 11,
          "mode": 4
        }
      ]
    },
    {
      "name": "tree_a_canopy_b",
      "primitives": [
        {
          "attributes": {
            "POSITION": 12
          },
          "indices": 13,
          "mode": 4
        }
      ]
    },
    {
      "name": "tree_a_canopy_c",
      "primitives": [
        {
          "attributes": {
            "POSITION": 14
          },
          "indices": 15,
          "mode": 4
        }
      ]
    },
    {
      "name": "tree_a_canopy_d",
      "primitives": [
        {
          "attributes": {
            "POSITION": 16
          },
          "indices": 17,
          "mode": 4
        }
      ]
    },
    {
      "name": "tree_a_lod1",
      "primitives": [
        {
          "attributes": {
            "POSITION": 18
          },
          "indices": 19,
          "mode": 4
        }
      ]
    },
    {
      "name": "tree_b_trunk",
      "primitives": [
        {
          "attributes": {
            "POSITION": 20
          },
          "indices": 21,
          "mode": 4
        }
      ]
    },
    {
      "name": "tree_b_flare",
      "primitives": [
        {
          "attributes": {
            "POSITION": 22
          },
          "indices": 23,
          "mode": 4
        }
      ]
    },
    {
      "name": "tree_b_bark_low",
      "primitives": [
        {
          "attributes": {
            "POSITION": 24
          },
          "indices": 25,
          "mode": 4
        }
      ]
    },
    {
      "name": "tree_b_bark_mid",
      "primitives": [
        {
          "attributes": {
            "POSITION": 26
          },
          "indices": 27,
          "mode": 4
        }
      ]
    },
    {
      "name": "tree_b_fork",
      "primitives": [
        {
          "attributes": {
            "POSITION": 28
          },
          "indices": 29,
          "mode": 4
        }
      ]
    },
    {
      "name": "tree_b_canopy",
      "primitives": [
        {
          "attributes": {
            "POSITION": 30
          },
          "indices": 31,
          "mode": 4
        }
      ]
    },
    {
      "name": "tree_b_canopy_b",
      "primitives": [
        {
          "attributes": {
            "POSITION": 32
          },
          "indices": 33,
          "mode": 4
        }
      ]
    },
    {
      "name": "tree_b_canopy_c",
      "primitives": [
        {
          "attributes": {
            "POSITION": 34
          },
          "indices": 35,
          "mode": 4
        }
      ]
    },
    {
      "name": "tree_b_canopy_d",
      "primitives": [
        {
          "attributes": {
            "POSITION": 36
          },
          "indices": 37,
          "mode": 4
        }
      ]
    },
    {
      "name": "tree_b_lod1",
      "primitives": [
        {
          "attributes": {
            "POSITION": 38
          },
          "indices": 39,
          "mode": 4
        }
      ]
    },
    {
      "name": "tree_c_trunk",
      "primitives": [
        {
          "attributes": {
            "POSITION": 40
          },
          "indices": 41,
          "mode": 4
        }
      ]
    },
    {
      "name": "tree_c_flare",
      "primitives": [
        {
          "attributes": {
            "POSITION": 42
          },
          "indices": 43,
          "mode": 4
        }
      ]
    },
    {
      "name": "tree_c_bark_low",
      "primitives": [
        {
          "attributes": {
            "POSITION": 44
          },
          "indices": 45,
          "mode": 4
        }
      ]
    },
    {
      "name": "tree_c_bark_mid",
      "primitives": [
        {
          "attributes": {
            "POSITION": 46
          },
          "indices": 47,
          "mode": 4
        }
      ]
    },
    {
      "name": "tree_c_fork",
      "primitives": [
        {
          "attributes": {
            "POSITION": 48
          },
          "indices": 49,
          "mode": 4
        }
      ]
    },
    {
      "name": "tree_c_canopy",
      "primitives": [
        {
          "attributes": {
            "POSITION": 50
          },
          "indices": 51,
          "mode": 4
        }
      ]
    },
    {
      "name": "tree_c_canopy_b",
      "primitives": [
        {
          "attributes": {
            "POSITION": 52
          },
          "indices": 53,
          "mode": 4
        }
      ]
    },
    {
      "name": "tree_c_canopy_c",
      "primitives": [
        {
          "attributes": {
            "POSITION": 54
          },
          "indices": 55,
          "mode": 4
        }
      ]
    },
    {
      "name": "tree_c_canopy_d",
      "primitives": [
        {
          "attributes": {
            "POSITION": 56
          },
          "indices": 57,
          "mode": 4
        }
      ]
    },
    {
      "name": "tree_c_lod1",
      "primitives": [
        {
          "attributes": {
            "POSITION": 58
          },
          "indices": 59,
          "mode": 4
        }
      ]
    }
  ],
  "nodes": [
    {
      "name": "tree_a_trunk",
      "mesh": 0
    },
    {
      "name": "tree_a_flare",
      "mesh": 1
    },
    {
      "name": "tree_a_bark_low",
      "mesh": 2
    },
    {
      "name": "tree_a_bark_mid",
      "mesh": 3
    },
    {
      "name": "tree_a_fork",
      "mesh": 4
    },
    {
      "name": "tree_a_canopy",
      "mesh": 5
    },
    {
      "name": "tree_a_canopy_b",
      "mesh": 6
    },
    {
      "name": "tree_a_canopy_c",
      "mesh": 7
    },
    {
      "name": "tree_a_canopy_d",
      "mesh": 8
    },
    {
      "name": "tree_a_lod1",
      "mesh": 9
    },
    {
      "name": "tree_b_trunk",
      "mesh": 10
    },
    {
      "name": "tree_b_flare",
      "mesh": 11
    },
    {
      "name": "tree_b_bark_low",
      "mesh": 12
    },
    {
      "name": "tree_b_bark_mid",
      "mesh": 13
    },
    {
      "name": "tree_b_fork",
      "mesh": 14
    },
    {
      "name": "tree_b_canopy",
      "mesh": 15
    },
    {
      "name": "tree_b_canopy_b",
      "mesh": 16
    },
    {
      "name": "tree_b_canopy_c",
      "mesh": 17
    },
    {
      "name": "tree_b_canopy_d",
      "mesh": 18
    },
    {
      "name": "tree_b_lod1",
      "mesh": 19
    },
    {
      "name": "tree_c_trunk",
      "mesh": 20
    },
    {
      "name": "tree_c_flare",
      "mesh": 21
    },
    {
      "name": "tree_c_bark_low",
      "mesh": 22
    },
    {
      "name": "tree_c_bark_mid",
      "mesh": 23
    },
    {
      "name": "tree_c_fork",
      "mesh": 24
    },
    {
      "name": "tree_c_canopy",
      "mesh": 25
    },
    {
      "name": "tree_c_canopy_b",
      "mesh": 26
    },
    {
      "name": "tree_c_canopy_c",
      "mesh": 27
    },
    {
      "name": "tree_c_canopy_d",
      "mesh": 28
    },
    {
      "name": "tree_c_lod1",
      "mesh": 29
    }
  ],
  "scenes": [
    {
      "name": "mdl_eucalyptus_kit_v02",
      "nodes": [
        0,
        1,
        2,
        3,
        4,
        5,
        6,
        7,
        8,
        9,
        10,
        11,
        12,
        13,
        14,
        15,
        16,
        17,
        18,
        19,
        20,
        21,
        22,
        23,
        24,
        25,
        26,
        27,
        28,
        29
      ]
    }
  ],
  "scene": 0
}