{
  "asset": {
    "version": "2.0",
    "generator": "Airside Batch C procedural kit"
  },
  "buffers": [
    {
      "uri": "mdl_kingscote_context_terrain_v02.bin",
      "byteLength": 163440
    }
  ],
  "bufferViews": [
    {
      "buffer": 0,
      "byteOffset": 0,
      "byteLength": 5712,
      "target": 34962
    },
    {
      "buffer": 0,
      "byteOffset": 5712,
      "byteLength": 1428,
      "target": 34963
    },
    {
      "buffer": 0,
      "byteOffset": 7140,
      "byteLength": 5712,
      "target": 34962
    },
    {
      "buffer": 0,
      "byteOffset": 12852,
      "byteLength": 1428,
      "target": 34963
    },
    {
      "buffer": 0,
      "byteOffset": 14280,
      "byteLength": 3360,
      "target": 34962
    },
    {
      "buffer": 0,
      "byteOffset": 17640,
      "byteLength": 840,
      "target": 34963
    },
    {
      "buffer": 0,
      "byteOffset": 18480,
      "byteLength": 3360,
      "target": 34962
    },
    {
      "buffer": 0,
      "byteOffset": 21840,
      "byteLength": 840,
      "target": 34963
    },
    {
      "buffer": 0,
      "byteOffset": 22680,
      "byteLength": 8064,
      "target": 34962
    },
    {
      "buffer": 0,
      "byteOffset": 30744,
      "byteLength": 2016,
      "target": 34963
    },
    {
      "buffer": 0,
      "byteOffset": 32760,
      "byteLength": 2640,
      "target": 34962
    },
    {
      "buffer": 0,
      "byteOffset": 35400,
      "byteLength": 660,
      "target": 34963
    },
    {
      "buffer": 0,
      "byteOffset": 36060,
      "byteLength": 2640,
      "target": 34962
    },
    {
      "buffer": 0,
      "byteOffset": 38700,
      "byteLength": 660,
      "target": 34963
    },
    {
      "buffer": 0,
      "byteOffset": 39360,
      "byteLength": 25248,
      "target": 34962
    },
    {
      "buffer": 0,
      "byteOffset": 64608,
      "byteLength": 6312,
      "target": 34963
    },
    {
      "buffer": 0,
      "byteOffset": 70920,
      "byteLength": 17088,
      "target": 34962
    },
    {
      "buffer": 0,
      "byteOffset": 88008,
      "byteLength": 4272,
      "target": 34963
    },
    {
      "buffer": 0,
      "byteOffset": 92280,
      "byteLength": 25248,
      "target": 34962
    },
    {
      "buffer": 0,
      "byteOffset": 117528,
      "byteLength": 6312,
      "target": 34963
    },
    {
      "buffer": 0,
      "byteOffset": 123840,
      "byteLength": 13296,
      "target": 34962
    },
    {
      "buffer": 0,
      "byteOffset": 137136,
      "byteLength": 3324,
      "target": 34963
    },
    {
      "buffer": 0,
      "byteOffset": 140460,
      "byteLength": 13296,
      "target": 34962
    },
    {
      "buffer": 0,
      "byteOffset": 153756,
      "byteLength": 3324,
      "target": 34963
    },
    {
      "buffer": 0,
      "byteOffset": 157080,
      "byteLength": 5088,
      "target": 34962
    },
    {
      "buffer": 0,
      "byteOffset": 162168,
      "byteLength": 1272,
      "target": 34963
    }
  ],
  "accessors": [
    {
      "bufferView": 0,
      "componentType": 5126,
      "count": 476,
      "type": "VEC3",
      "max": [
        20.0,
        0.10000000149011612,
        8.0
      ],
      "min": [
        -20.0,
        -0.699999988079071,
        -8.0
      ]
    },
    {
      "bufferView": 1,
      "componentType": 5123,
      "count": 714,
      "type": "SCALAR"
    },
    {
      "bufferView": 2,
      "componentType": 5126,
      "count": 476,
      "type": "VEC3",
      "max": [
        20.0,
        0.07999999821186066,
        7.0
      ],
      "min": [
        -20.0,
        -0.699999988079071,
        -7.0
      ]
    },
    {
      "bufferView": 3,
      "componentType": 5123,
      "count": 714,
      "type": "SCALAR"
    },
    {
      "bufferView": 4,
      "componentType": 5126,
      "count": 280,
      "type": "VEC3",
      "max": [
        7.0,
        0.05999999865889549,
        15.0
      ],
      "min": [
        -7.0,
        -0.699999988079071,
        -15.0
      ]
    },
    {
      "bufferView": 5,
      "componentType": 5123,
      "count": 420,
      "type": "SCALAR"
    },
    {
      "bufferView": 6,
      "componentType": 5126,
      "count": 280,
      "type": "VEC3",
      "max": [
        7.0,
        0.05999999865889549,
        15.0
      ],
      "min": [
        -7.0,
        -0.699999988079071,
        -15.0
      ]
    },
    {
      "bufferView": 7,
      "componentType": 5123,
      "count": 420,
      "type": "SCALAR"
    },
    {
      "bufferView": 8,
      "componentType": 5126,
      "count": 672,
      "type": "VEC3",
      "max": [
        25.0,
        0.12999999523162842,
        4.0
      ],
      "min": [
        -25.0,
        -0.32499998807907104,
        -4.5
      ]
    },
    {
      "bufferView": 9,
      "componentType": 5123,
      "count": 1008,
      "type": "SCALAR"
    },
    {
      "bufferView": 10,
      "componentType": 5126,
      "count": 220,
      "type": "VEC3",
      "max": [
        26.0,
        -0.2800000011920929,
        4.0
      ],
      "min": [
        -26.0,
        -0.5249999761581421,
        -4.0
      ]
    },
    {
      "bufferView": 11,
      "componentType": 5123,
      "count": 330,
      "type": "SCALAR"
    },
    {
      "bufferView": 12,
      "componentType": 5126,
      "count": 220,
      "type": "VEC3",
      "max": [
        27.5,
        -0.41999998688697815,
        6.0
      ],
      "min": [
        -27.5,
        -0.6100000143051147,
        -6.0
      ]
    },
    {
      "bufferView": 13,
      "componentType": 5123,
      "count": 330,
      "type": "SCALAR"
    },
    {
      "bufferView": 14,
      "componentType": 5126,
      "count": 2104,
      "type": "VEC3",
      "max": [
        7.918571472167969,
        3.4000000953674316,
        4.898732662200928
      ],
      "min": [
        -7.597813606262207,
        -1.0,
        -4.898732662200928
      ]
    },
    {
      "bufferView": 15,
      "componentType": 5123,
      "count": 3156,
      "type": "SCALAR"
    },
    {
      "bufferView": 16,
      "componentType": 5126,
      "count": 1424,
      "type": "VEC3",
      "max": [
        6.0,
        2.5,
        3.8042261600494385
      ],
      "min": [
        -6.0,
        -0.699999988079071,
        -3.8042261600494385
      ]
    },
    {
      "bufferView": 17,
      "componentType": 5123,
      "count": 2136,
      "type": "SCALAR"
    },
    {
      "bufferView": 18,
      "componentType": 5126,
      "count": 2104,
      "type": "VEC3",
      "max": [
        9.898214340209961,
        4.300000190734863,
        5.87847900390625
      ],
      "min": [
        -9.49726676940918,
        -1.2999999523162842,
        -5.87847900390625
      ]
    },
    {
      "bufferView": 19,
      "componentType": 5123,
      "count": 3156,
      "type": "SCALAR"
    },
    {
      "bufferView": 20,
      "componentType": 5126,
      "count": 1108,
      "type": "VEC3",
      "max": [
        4.924038887023926,
        1.149999976158142,
        2.4246158599853516
      ],
      "min": [
        -4.627082824707031,
        -0.25,
        -2.4246158599853516
      ]
    },
    {
      "bufferView": 21,
      "componentType": 5123,
      "count": 1662,
      "type": "SCALAR"
    },
    {
      "bufferView": 22,
      "componentType": 5126,
      "count": 1108,
      "type": "VEC3",
      "max": [
        3.9392309188842773,
        0.8999999761581421,
        1.9396926164627075
      ],
      "min": [
        -3.7016663551330566,
        -0.20000000298023224,
        -1.9396926164627075
      ]
    },
    {
      "bufferView": 23,
      "componentType": 5123,
      "count": 1662,
      "type": "SCALAR"
    },
    {
      "bufferView": 24,
      "componentType": 5126,
      "count": 424,
      "type": "VEC3",
      "max": [
        6.099999904632568,
        0.7300000190734863,
        1.25
      ],
      "min": [
        -6.099999904632568,
        0.0,
        -1.25
      ]
    },
    {
      "bufferView": 25,
      "componentType": 5123,
      "count": 636,
      "type": "SCALAR"
    }
  ],
  "meshes": [
    {
      "name": "paddock_n",
      "primitives": [
        {
          "attributes": {
            "POSITION": 0
          },
          "indices": 1,
          "mode": 4
        }
      ]
    },
    {
      "name": "paddock_s",
      "primitives": [
        {
          "attributes": {
            "POSITION": 2
          },
          "indices": 3,
          "mode": 4
        }
      ]
    },
    {
      "name": "paddock_e",
      "primitives": [
        {
          "attributes": {
            "POSITION": 4
          },
          "indices": 5,
          "mode": 4
        }
      ]
    },
    {
      "name": "paddock_w",
      "primitives": [
        {
          "attributes": {
            "POSITION": 6
          },
          "indices": 7,
          "mode": 4
        }
      ]
    },
    {
      "name": "coast_sand",
      "primitives": [
        {
          "attributes": {
            "POSITION": 8
          },
          "indices": 9,
          "mode": 4
        }
      ]
    },
    {
      "name": "coast_shallows",
      "primitives": [
        {
          "attributes": {
            "POSITION": 10
          },
          "indices": 11,
          "mode": 4
        }
      ]
    },
    {
      "name": "coast_water",
      "primitives": [
        {
          "attributes": {
            "POSITION": 12
          },
          "indices": 13,
          "mode": 4
        }
      ]
    },
    {
      "name": "hill_a",
      "primitives": [
        {
          "attributes": {
            "POSITION": 14
          },
          "indices": 15,
          "mode": 4
        }
      ]
    },
    {
      "name": "hill_b",
      "primitives": [
        {
          "attributes": {
            "POSITION": 16
          },
          "indices": 17,
          "mode": 4
        }
      ]
    },
    {
      "name": "hill_c",
      "primitives": [
        {
          "attributes": {
            "POSITION": 18
          },
          "indices": 19,
          "mode": 4
        }
      ]
    },
    {
      "name": "dune_a",
      "primitives": [
        {
          "attributes": {
            "POSITION": 20
          },
          "indices": 21,
          "mode": 4
        }
      ]
    },
    {
      "name": "dune_b",
      "primitives": [
        {
          "attributes": {
            "POSITION": 22
          },
          "indices": 23,
          "mode": 4
        }
      ]
    },
    {
      "name": "berm",
      "primitives": [
        {
          "attributes": {
            "POSITION": 24
          },
          "indices": 25,
          "mode": 4
        }
      ]
    }
  ],
  "nodes": [
    {
      "name": "paddock_n",
      "mesh": 0
    },
    {
      "name": "paddock_s",
      "mesh": 1
    },
    {
      "name": "paddock_e",
      "mesh": 2
    },
    {
      "name": "paddock_w",
      "mesh": 3
    },
    {
      "name": "coast_sand",
      "mesh": 4
    },
    {
      "name": "coast_shallows",
      "mesh": 5
    },
    {
      "name": "coast_water",
      "mesh": 6
    },
    {
      "name": "hill_a",
      "mesh": 7
    },
    {
      "name": "hill_b",
      "mesh": 8
    },
    {
      "name": "hill_c",
      "mesh": 9
    },
    {
      "name": "dune_a",
      "mesh": 10
    },
    {
      "name": "dune_b",
      "mesh": 11
    },
    {
      "name": "berm",
      "mesh": 12
    }
  ],
  "scenes": [
    {
      "name": "mdl_kingscote_context_terrain_v02",
      "nodes": [
        0,
        1,
        2,
        3,
        4,
        5,
        6,
        7,
        8,
        9,
        10,
        11,
        12
      ]
    }
  ],
  "scene": 0
}