{
  "asset": {
    "version": "2.0",
    "generator": "Airside Batch B procedural kit"
  },
  "buffers": [
    {
      "uri": "mdl_airfield_lighting_kit_v01.bin",
      "byteLength": 1440
    }
  ],
  "bufferViews": [
    {
      "buffer": 0,
      "byteOffset": 0,
      "byteLength": 288,
      "target": 34962
    },
    {
      "buffer": 0,
      "byteOffset": 288,
      "byteLength": 72,
      "target": 34963
    },
    {
      "buffer": 0,
      "byteOffset": 360,
      "byteLength": 288,
      "target": 34962
    },
    {
      "buffer": 0,
      "byteOffset": 648,
      "byteLength": 72,
      "target": 34963
    },
    {
      "buffer": 0,
      "byteOffset": 720,
      "byteLength": 288,
      "target": 34962
    },
    {
      "buffer": 0,
      "byteOffset": 1008,
      "byteLength": 72,
      "target": 34963
    },
    {
      "buffer": 0,
      "byteOffset": 1080,
      "byteLength": 288,
      "target": 34962
    },
    {
      "buffer": 0,
      "byteOffset": 1368,
      "byteLength": 72,
      "target": 34963
    }
  ],
  "accessors": [
    {
      "bufferView": 0,
      "componentType": 5126,
      "count": 24,
      "type": "VEC3",
      "max": [
        0.05999999865889549,
        0.30000001192092896,
        0.05999999865889549
      ],
      "min": [
        -0.05999999865889549,
        0.0,
        -0.05999999865889549
      ]
    },
    {
      "bufferView": 1,
      "componentType": 5123,
      "count": 36,
      "type": "SCALAR"
    },
    {
      "bufferView": 2,
      "componentType": 5126,
      "count": 24,
      "type": "VEC3",
      "max": [
        0.05000000074505806,
        0.23999999463558197,
        0.05000000074505806
      ],
      "min": [
        -0.05000000074505806,
        0.0,
        -0.05000000074505806
      ]
    },
    {
      "bufferView": 3,
      "componentType": 5123,
      "count": 36,
      "type": "SCALAR"
    },
    {
      "bufferView": 4,
      "componentType": 5126,
      "count": 24,
      "type": "VEC3",
      "max": [
        0.125,
        4.0,
        0.125
      ],
      "min": [
        -0.125,
        0.0,
        -0.125
      ]
    },
    {
      "bufferView": 5,
      "componentType": 5123,
      "count": 36,
      "type": "SCALAR"
    },
    {
      "bufferView": 6,
      "componentType": 5126,
      "count": 24,
      "type": "VEC3",
      "max": [
        0.07500000298023224,
        0.800000011920929,
        0.07500000298023224
      ],
      "min": [
        -0.07500000298023224,
        0.0,
        -0.07500000298023224
      ]
    },
    {
      "bufferView": 7,
      "componentType": 5123,
      "count": 36,
      "type": "SCALAR"
    }
  ],
  "meshes": [
    {
      "name": "runway_edge_light",
      "primitives": [
        {
          "attributes": {
            "POSITION": 0
          },
          "indices": 1,
          "mode": 4
        }
      ]
    },
    {
      "name": "taxiway_light",
      "primitives": [
        {
          "attributes": {
            "POSITION": 2
          },
          "indices": 3,
          "mode": 4
        }
      ]
    },
    {
      "name": "apron_floodlight",
      "primitives": [
        {
          "attributes": {
            "POSITION": 4
          },
          "indices": 5,
          "mode": 4
        }
      ]
    },
    {
      "name": "obstruction_light",
      "primitives": [
        {
          "attributes": {
            "POSITION": 6
          },
          "indices": 7,
          "mode": 4
        }
      ]
    }
  ],
  "nodes": [
    {
      "name": "runway_edge_light",
      "mesh": 0
    },
    {
      "name": "taxiway_light",
      "mesh": 1
    },
    {
      "name": "apron_floodlight",
      "mesh": 2
    },
    {
      "name": "obstruction_light",
      "mesh": 3
    }
  ],
  "scenes": [
    {
      "name": "mdl_airfield_lighting_kit_v01",
      "nodes": [
        0,
        1,
        2,
        3
      ]
    }
  ],
  "scene": 0
}