{
  "asset": {
    "version": "2.0",
    "generator": "Airside Batch C procedural kit"
  },
  "buffers": [
    {
      "uri": "mdl_service_equipment_kit_v03.bin",
      "byteLength": 108432
    }
  ],
  "bufferViews": [
    {
      "buffer": 0,
      "byteOffset": 0,
      "byteLength": 1440,
      "target": 34962
    },
    {
      "buffer": 0,
      "byteOffset": 1440,
      "byteLength": 360,
      "target": 34963
    },
    {
      "buffer": 0,
      "byteOffset": 1800,
      "byteLength": 576,
      "target": 34962
    },
    {
      "buffer": 0,
      "byteOffset": 2376,
      "byteLength": 144,
      "target": 34963
    },
    {
      "buffer": 0,
      "byteOffset": 2520,
      "byteLength": 2640,
      "target": 34962
    },
    {
      "buffer": 0,
      "byteOffset": 5160,
      "byteLength": 528,
      "target": 34963
    },
    {
      "buffer": 0,
      "byteOffset": 5688,
      "byteLength": 2640,
      "target": 34962
    },
    {
      "buffer": 0,
      "byteOffset": 8328,
      "byteLength": 528,
      "target": 34963
    },
    {
      "buffer": 0,
      "byteOffset": 8856,
      "byteLength": 1200,
      "target": 34962
    },
    {
      "buffer": 0,
      "byteOffset": 10056,
      "byteLength": 240,
      "target": 34963
    },
    {
      "buffer": 0,
      "byteOffset": 10296,
      "byteLength": 1200,
      "target": 34962
    },
    {
      "buffer": 0,
      "byteOffset": 11496,
      "byteLength": 240,
      "target": 34963
    },
    {
      "buffer": 0,
      "byteOffset": 11736,
      "byteLength": 288,
      "target": 34962
    },
    {
      "buffer": 0,
      "byteOffset": 12024,
      "byteLength": 72,
      "target": 34963
    },
    {
      "buffer": 0,
      "byteOffset": 12096,
      "byteLength": 288,
      "target": 34962
    },
    {
      "buffer": 0,
      "byteOffset": 12384,
      "byteLength": 72,
      "target": 34963
    },
    {
      "buffer": 0,
      "byteOffset": 12456,
      "byteLength": 288,
      "target": 34962
    },
    {
      "buffer": 0,
      "byteOffset": 12744,
      "byteLength": 72,
      "target": 34963
    },
    {
      "buffer": 0,
      "byteOffset": 12816,
      "byteLength": 288,
      "target": 34962
    },
    {
      "buffer": 0,
      "byteOffset": 13104,
      "byteLength": 72,
      "target": 34963
    },
    {
      "buffer": 0,
      "byteOffset": 13176,
      "byteLength": 288,
      "target": 34962
    },
    {
      "buffer": 0,
      "byteOffset": 13464,
      "byteLength": 72,
      "target": 34963
    },
    {
      "buffer": 0,
      "byteOffset": 13536,
      "byteLength": 288,
      "target": 34962
    },
    {
      "buffer": 0,
      "byteOffset": 13824,
      "byteLength": 72,
      "target": 34963
    },
    {
      "buffer": 0,
      "byteOffset": 13896,
      "byteLength": 288,
      "target": 34962
    },
    {
      "buffer": 0,
      "byteOffset": 14184,
      "byteLength": 72,
      "target": 34963
    },
    {
      "buffer": 0,
      "byteOffset": 14256,
      "byteLength": 288,
      "target": 34962
    },
    {
      "buffer": 0,
      "byteOffset": 14544,
      "byteLength": 72,
      "target": 34963
    },
    {
      "buffer": 0,
      "byteOffset": 14616,
      "byteLength": 288,
      "target": 34962
    },
    {
      "buffer": 0,
      "byteOffset": 14904,
      "byteLength": 72,
      "target": 34963
    },
    {
      "buffer": 0,
      "byteOffset": 14976,
      "byteLength": 288,
      "target": 34962
    },
    {
      "buffer": 0,
      "byteOffset": 15264,
      "byteLength": 72,
      "target": 34963
    },
    {
      "buffer": 0,
      "byteOffset": 15336,
      "byteLength": 288,
      "target": 34962
    },
    {
      "buffer": 0,
      "byteOffset": 15624,
      "byteLength": 72,
      "target": 34963
    },
    {
      "buffer": 0,
      "byteOffset": 15696,
      "byteLength": 576,
      "target": 34962
    },
    {
      "buffer": 0,
      "byteOffset": 16272,
      "byteLength": 144,
      "target": 34963
    },
    {
      "buffer": 0,
      "byteOffset": 16416,
      "byteLength": 288,
      "target": 34962
    },
    {
      "buffer": 0,
      "byteOffset": 16704,
      "byteLength": 72,
      "target": 34963
    },
    {
      "buffer": 0,
      "byteOffset": 16776,
      "byteLength": 288,
      "target": 34962
    },
    {
      "buffer": 0,
      "byteOffset": 17064,
      "byteLength": 72,
      "target": 34963
    },
    {
      "buffer": 0,
      "byteOffset": 17136,
      "byteLength": 1200,
      "target": 34962
    },
    {
      "buffer": 0,
      "byteOffset": 18336,
      "byteLength": 240,
      "target": 34963
    },
    {
      "buffer": 0,
      "byteOffset": 18576,
      "byteLength": 1200,
      "target": 34962
    },
    {
      "buffer": 0,
      "byteOffset": 19776,
      "byteLength": 240,
      "target": 34963
    },
    {
      "buffer": 0,
      "byteOffset": 20016,
      "byteLength": 1200,
      "target": 34962
    },
    {
      "buffer": 0,
      "byteOffset": 21216,
      "byteLength": 240,
      "target": 34963
    },
    {
      "buffer": 0,
      "byteOffset": 21456,
      "byteLength": 1200,
      "target": 34962
    },
    {
      "buffer": 0,
      "byteOffset": 22656,
      "byteLength": 240,
      "target": 34963
    },
    {
      "buffer": 0,
      "byteOffset": 22896,
      "byteLength": 1200,
      "target": 34962
    },
    {
      "buffer": 0,
      "byteOffset": 24096,
      "byteLength": 240,
      "target": 34963
    },
    {
      "buffer": 0,
      "byteOffset": 24336,
      "byteLength": 1200,
      "target": 34962
    },
    {
      "buffer": 0,
      "byteOffset": 25536,
      "byteLength": 240,
      "target": 34963
    },
    {
      "buffer": 0,
      "byteOffset": 25776,
      "byteLength": 864,
      "target": 34962
    },
    {
      "buffer": 0,
      "byteOffset": 26640,
      "byteLength": 216,
      "target": 34963
    },
    {
      "buffer": 0,
      "byteOffset": 26856,
      "byteLength": 288,
      "target": 34962
    },
    {
      "buffer": 0,
      "byteOffset": 27144,
      "byteLength": 72,
      "target": 34963
    },
    {
      "buffer": 0,
      "byteOffset": 27216,
      "byteLength": 1680,
      "target": 34962
    },
    {
      "buffer": 0,
      "byteOffset": 28896,
      "byteLength": 336,
      "target": 34963
    },
    {
      "buffer": 0,
      "byteOffset": 29232,
      "byteLength": 1680,
      "target": 34962
    },
    {
      "buffer": 0,
      "byteOffset": 30912,
      "byteLength": 336,
      "target": 34963
    },
    {
      "buffer": 0,
      "byteOffset": 31248,
      "byteLength": 1680,
      "target": 34962
    },
    {
      "buffer": 0,
      "byteOffset": 32928,
      "byteLength": 336,
      "target": 34963
    },
    {
      "buffer": 0,
      "byteOffset": 33264,
      "byteLength": 1680,
      "target": 34962
    },
    {
      "buffer": 0,
      "byteOffset": 34944,
      "byteLength": 336,
      "target": 34963
    },
    {
      "buffer": 0,
      "byteOffset": 35280,
      "byteLength": 1200,
      "target": 34962
    },
    {
      "buffer": 0,
      "byteOffset": 36480,
      "byteLength": 240,
      "target": 34963
    },
    {
      "buffer": 0,
      "byteOffset": 36720,
      "byteLength": 1200,
      "target": 34962
    },
    {
      "buffer": 0,
      "byteOffset": 37920,
      "byteLength": 240,
      "target": 34963
    },
    {
      "buffer": 0,
      "byteOffset": 38160,
      "byteLength": 1200,
      "target": 34962
    },
    {
      "buffer": 0,
      "byteOffset": 39360,
      "byteLength": 240,
      "target": 34963
    },
    {
      "buffer": 0,
      "byteOffset": 39600,
      "byteLength": 1200,
      "target": 34962
    },
    {
      "buffer": 0,
      "byteOffset": 40800,
      "byteLength": 240,
      "target": 34963
    },
    {
      "buffer": 0,
      "byteOffset": 41040,
      "byteLength": 1536,
      "target": 34962
    },
    {
      "buffer": 0,
      "byteOffset": 42576,
      "byteLength": 336,
      "target": 34963
    },
    {
      "buffer": 0,
      "byteOffset": 42912,
      "byteLength": 576,
      "target": 34962
    },
    {
      "buffer": 0,
      "byteOffset": 43488,
      "byteLength": 144,
      "target": 34963
    },
    {
      "buffer": 0,
      "byteOffset": 43632,
      "byteLength": 576,
      "target": 34962
    },
    {
      "buffer": 0,
      "byteOffset": 44208,
      "byteLength": 144,
      "target": 34963
    },
    {
      "buffer": 0,
      "byteOffset": 44352,
      "byteLength": 960,
      "target": 34962
    },
    {
      "buffer": 0,
      "byteOffset": 45312,
      "byteLength": 192,
      "target": 34963
    },
    {
      "buffer": 0,
      "byteOffset": 45504,
      "byteLength": 288,
      "target": 34962
    },
    {
      "buffer": 0,
      "byteOffset": 45792,
      "byteLength": 72,
      "target": 34963
    },
    {
      "buffer": 0,
      "byteOffset": 45864,
      "byteLength": 2016,
      "target": 34962
    },
    {
      "buffer": 0,
      "byteOffset": 47880,
      "byteLength": 432,
      "target": 34963
    },
    {
      "buffer": 0,
      "byteOffset": 48312,
      "byteLength": 576,
      "target": 34962
    },
    {
      "buffer": 0,
      "byteOffset": 48888,
      "byteLength": 144,
      "target": 34963
    },
    {
      "buffer": 0,
      "byteOffset": 49032,
      "byteLength": 288,
      "target": 34962
    },
    {
      "buffer": 0,
      "byteOffset": 49320,
      "byteLength": 72,
      "target": 34963
    },
    {
      "buffer": 0,
      "byteOffset": 49392,
      "byteLength": 576,
      "target": 34962
    },
    {
      "buffer": 0,
      "byteOffset": 49968,
      "byteLength": 144,
      "target": 34963
    },
    {
      "buffer": 0,
      "byteOffset": 50112,
      "byteLength": 288,
      "target": 34962
    },
    {
      "buffer": 0,
      "byteOffset": 50400,
      "byteLength": 72,
      "target": 34963
    },
    {
      "buffer": 0,
      "byteOffset": 50472,
      "byteLength": 288,
      "target": 34962
    },
    {
      "buffer": 0,
      "byteOffset": 50760,
      "byteLength": 72,
      "target": 34963
    },
    {
      "buffer": 0,
      "byteOffset": 50832,
      "byteLength": 288,
      "target": 34962
    },
    {
      "buffer": 0,
      "byteOffset": 51120,
      "byteLength": 72,
      "target": 34963
    },
    {
      "buffer": 0,
      "byteOffset": 51192,
      "byteLength": 288,
      "target": 34962
    },
    {
      "buffer": 0,
      "byteOffset": 51480,
      "byteLength": 72,
      "target": 34963
    },
    {
      "buffer": 0,
      "byteOffset": 51552,
      "byteLength": 288,
      "target": 34962
    },
    {
      "buffer": 0,
      "byteOffset": 51840,
      "byteLength": 72,
      "target": 34963
    },
    {
      "buffer": 0,
      "byteOffset": 51912,
      "byteLength": 288,
      "target": 34962
    },
    {
      "buffer": 0,
      "byteOffset": 52200,
      "byteLength": 72,
      "target": 34963
    },
    {
      "buffer": 0,
      "byteOffset": 52272,
      "byteLength": 1200,
      "target": 34962
    },
    {
      "buffer": 0,
      "byteOffset": 53472,
      "byteLength": 240,
      "target": 34963
    },
    {
      "buffer": 0,
      "byteOffset": 53712,
      "byteLength": 1680,
      "target": 34962
    },
    {
      "buffer": 0,
      "byteOffset": 55392,
      "byteLength": 336,
      "target": 34963
    },
    {
      "buffer": 0,
      "byteOffset": 55728,
      "byteLength": 288,
      "target": 34962
    },
    {
      "buffer": 0,
      "byteOffset": 56016,
      "byteLength": 72,
      "target": 34963
    },
    {
      "buffer": 0,
      "byteOffset": 56088,
      "byteLength": 1200,
      "target": 34962
    },
    {
      "buffer": 0,
      "byteOffset": 57288,
      "byteLength": 240,
      "target": 34963
    },
    {
      "buffer": 0,
      "byteOffset": 57528,
      "byteLength": 1440,
      "target": 34962
    },
    {
      "buffer": 0,
      "byteOffset": 58968,
      "byteLength": 288,
      "target": 34963
    },
    {
      "buffer": 0,
      "byteOffset": 59256,
      "byteLength": 288,
      "target": 34962
    },
    {
      "buffer": 0,
      "byteOffset": 59544,
      "byteLength": 72,
      "target": 34963
    },
    {
      "buffer": 0,
      "byteOffset": 59616,
      "byteLength": 288,
      "target": 34962
    },
    {
      "buffer": 0,
      "byteOffset": 59904,
      "byteLength": 72,
      "target": 34963
    },
    {
      "buffer": 0,
      "byteOffset": 59976,
      "byteLength": 288,
      "target": 34962
    },
    {
      "buffer": 0,
      "byteOffset": 60264,
      "byteLength": 72,
      "target": 34963
    },
    {
      "buffer": 0,
      "byteOffset": 60336,
      "byteLength": 1680,
      "target": 34962
    },
    {
      "buffer": 0,
      "byteOffset": 62016,
      "byteLength": 336,
      "target": 34963
    },
    {
      "buffer": 0,
      "byteOffset": 62352,
      "byteLength": 1680,
      "target": 34962
    },
    {
      "buffer": 0,
      "byteOffset": 64032,
      "byteLength": 336,
      "target": 34963
    },
    {
      "buffer": 0,
      "byteOffset": 64368,
      "byteLength": 1680,
      "target": 34962
    },
    {
      "buffer": 0,
      "byteOffset": 66048,
      "byteLength": 336,
      "target": 34963
    },
    {
      "buffer": 0,
      "byteOffset": 66384,
      "byteLength": 1680,
      "target": 34962
    },
    {
      "buffer": 0,
      "byteOffset": 68064,
      "byteLength": 336,
      "target": 34963
    },
    {
      "buffer": 0,
      "byteOffset": 68400,
      "byteLength": 1200,
      "target": 34962
    },
    {
      "buffer": 0,
      "byteOffset": 69600,
      "byteLength": 240,
      "target": 34963
    },
    {
      "buffer": 0,
      "byteOffset": 69840,
      "byteLength": 1200,
      "target": 34962
    },
    {
      "buffer": 0,
      "byteOffset": 71040,
      "byteLength": 240,
      "target": 34963
    },
    {
      "buffer": 0,
      "byteOffset": 71280,
      "byteLength": 1200,
      "target": 34962
    },
    {
      "buffer": 0,
      "byteOffset": 72480,
      "byteLength": 240,
      "target": 34963
    },
    {
      "buffer": 0,
      "byteOffset": 72720,
      "byteLength": 1200,
      "target": 34962
    },
    {
      "buffer": 0,
      "byteOffset": 73920,
      "byteLength": 240,
      "target": 34963
    },
    {
      "buffer": 0,
      "byteOffset": 74160,
      "byteLength": 1440,
      "target": 34962
    },
    {
      "buffer": 0,
      "byteOffset": 75600,
      "byteLength": 288,
      "target": 34963
    },
    {
      "buffer": 0,
      "byteOffset": 75888,
      "byteLength": 1440,
      "target": 34962
    },
    {
      "buffer": 0,
      "byteOffset": 77328,
      "byteLength": 288,
      "target": 34963
    },
    {
      "buffer": 0,
      "byteOffset": 77616,
      "byteLength": 288,
      "target": 34962
    },
    {
      "buffer": 0,
      "byteOffset": 77904,
      "byteLength": 72,
      "target": 34963
    },
    {
      "buffer": 0,
      "byteOffset": 77976,
      "byteLength": 1200,
      "target": 34962
    },
    {
      "buffer": 0,
      "byteOffset": 79176,
      "byteLength": 240,
      "target": 34963
    },
    {
      "buffer": 0,
      "byteOffset": 79416,
      "byteLength": 288,
      "target": 34962
    },
    {
      "buffer": 0,
      "byteOffset": 79704,
      "byteLength": 72,
      "target": 34963
    },
    {
      "buffer": 0,
      "byteOffset": 79776,
      "byteLength": 288,
      "target": 34962
    },
    {
      "buffer": 0,
      "byteOffset": 80064,
      "byteLength": 72,
      "target": 34963
    },
    {
      "buffer": 0,
      "byteOffset": 80136,
      "byteLength": 1200,
      "target": 34962
    },
    {
      "buffer": 0,
      "byteOffset": 81336,
      "byteLength": 240,
      "target": 34963
    },
    {
      "buffer": 0,
      "byteOffset": 81576,
      "byteLength": 288,
      "target": 34962
    },
    {
      "buffer": 0,
      "byteOffset": 81864,
      "byteLength": 72,
      "target": 34963
    },
    {
      "buffer": 0,
      "byteOffset": 81936,
      "byteLength": 1200,
      "target": 34962
    },
    {
      "buffer": 0,
      "byteOffset": 83136,
      "byteLength": 240,
      "target": 34963
    },
    {
      "buffer": 0,
      "byteOffset": 83376,
      "byteLength": 288,
      "target": 34962
    },
    {
      "buffer": 0,
      "byteOffset": 83664,
      "byteLength": 72,
      "target": 34963
    },
    {
      "buffer": 0,
      "byteOffset": 83736,
      "byteLength": 288,
      "target": 34962
    },
    {
      "buffer": 0,
      "byteOffset": 84024,
      "byteLength": 72,
      "target": 34963
    },
    {
      "buffer": 0,
      "byteOffset": 84096,
      "byteLength": 288,
      "target": 34962
    },
    {
      "buffer": 0,
      "byteOffset": 84384,
      "byteLength": 72,
      "target": 34963
    },
    {
      "buffer": 0,
      "byteOffset": 84456,
      "byteLength": 288,
      "target": 34962
    },
    {
      "buffer": 0,
      "byteOffset": 84744,
      "byteLength": 72,
      "target": 34963
    },
    {
      "buffer": 0,
      "byteOffset": 84816,
      "byteLength": 576,
      "target": 34962
    },
    {
      "buffer": 0,
      "byteOffset": 85392,
      "byteLength": 144,
      "target": 34963
    },
    {
      "buffer": 0,
      "byteOffset": 85536,
      "byteLength": 288,
      "target": 34962
    },
    {
      "buffer": 0,
      "byteOffset": 85824,
      "byteLength": 72,
      "target": 34963
    },
    {
      "buffer": 0,
      "byteOffset": 85896,
      "byteLength": 288,
      "target": 34962
    },
    {
      "buffer": 0,
      "byteOffset": 86184,
      "byteLength": 72,
      "target": 34963
    },
    {
      "buffer": 0,
      "byteOffset": 86256,
      "byteLength": 288,
      "target": 34962
    },
    {
      "buffer": 0,
      "byteOffset": 86544,
      "byteLength": 72,
      "target": 34963
    },
    {
      "buffer": 0,
      "byteOffset": 86616,
      "byteLength": 288,
      "target": 34962
    },
    {
      "buffer": 0,
      "byteOffset": 86904,
      "byteLength": 72,
      "target": 34963
    },
    {
      "buffer": 0,
      "byteOffset": 86976,
      "byteLength": 288,
      "target": 34962
    },
    {
      "buffer": 0,
      "byteOffset": 87264,
      "byteLength": 72,
      "target": 34963
    },
    {
      "buffer": 0,
      "byteOffset": 87336,
      "byteLength": 288,
      "target": 34962
    },
    {
      "buffer": 0,
      "byteOffset": 87624,
      "byteLength": 72,
      "target": 34963
    },
    {
      "buffer": 0,
      "byteOffset": 87696,
      "byteLength": 1680,
      "target": 34962
    },
    {
      "buffer": 0,
      "byteOffset": 89376,
      "byteLength": 336,
      "target": 34963
    },
    {
      "buffer": 0,
      "byteOffset": 89712,
      "byteLength": 1680,
      "target": 34962
    },
    {
      "buffer": 0,
      "byteOffset": 91392,
      "byteLength": 336,
      "target": 34963
    },
    {
      "buffer": 0,
      "byteOffset": 91728,
      "byteLength": 1680,
      "target": 34962
    },
    {
      "buffer": 0,
      "byteOffset": 93408,
      "byteLength": 336,
      "target": 34963
    },
    {
      "buffer": 0,
      "byteOffset": 93744,
      "byteLength": 1680,
      "target": 34962
    },
    {
      "buffer": 0,
      "byteOffset": 95424,
      "byteLength": 336,
      "target": 34963
    },
    {
      "buffer": 0,
      "byteOffset": 95760,
      "byteLength": 1200,
      "target": 34962
    },
    {
      "buffer": 0,
      "byteOffset": 96960,
      "byteLength": 240,
      "target": 34963
    },
    {
      "buffer": 0,
      "byteOffset": 97200,
      "byteLength": 1200,
      "target": 34962
    },
    {
      "buffer": 0,
      "byteOffset": 98400,
      "byteLength": 240,
      "target": 34963
    },
    {
      "buffer": 0,
      "byteOffset": 98640,
      "byteLength": 288,
      "target": 34962
    },
    {
      "buffer": 0,
      "byteOffset": 98928,
      "byteLength": 72,
      "target": 34963
    },
    {
      "buffer": 0,
      "byteOffset": 99000,
      "byteLength": 288,
      "target": 34962
    },
    {
      "buffer": 0,
      "byteOffset": 99288,
      "byteLength": 72,
      "target": 34963
    },
    {
      "buffer": 0,
      "byteOffset": 99360,
      "byteLength": 288,
      "target": 34962
    },
    {
      "buffer": 0,
      "byteOffset": 99648,
      "byteLength": 72,
      "target": 34963
    },
    {
      "buffer": 0,
      "byteOffset": 99720,
      "byteLength": 288,
      "target": 34962
    },
    {
      "buffer": 0,
      "byteOffset": 100008,
      "byteLength": 72,
      "target": 34963
    },
    {
      "buffer": 0,
      "byteOffset": 100080,
      "byteLength": 1200,
      "target": 34962
    },
    {
      "buffer": 0,
      "byteOffset": 101280,
      "byteLength": 240,
      "target": 34963
    },
    {
      "buffer": 0,
      "byteOffset": 101520,
      "byteLength": 1200,
      "target": 34962
    },
    {
      "buffer": 0,
      "byteOffset": 102720,
      "byteLength": 240,
      "target": 34963
    },
    {
      "buffer": 0,
      "byteOffset": 102960,
      "byteLength": 1200,
      "target": 34962
    },
    {
      "buffer": 0,
      "byteOffset": 104160,
      "byteLength": 240,
      "target": 34963
    },
    {
      "buffer": 0,
      "byteOffset": 104400,
      "byteLength": 1200,
      "target": 34962
    },
    {
      "buffer": 0,
      "byteOffset": 105600,
      "byteLength": 240,
      "target": 34963
    },
    {
      "buffer": 0,
      "byteOffset": 105840,
      "byteLength": 288,
      "target": 34962
    },
    {
      "buffer": 0,
      "byteOffset": 106128,
      "byteLength": 72,
      "target": 34963
    },
    {
      "buffer": 0,
      "byteOffset": 106200,
      "byteLength": 288,
      "target": 34962
    },
    {
      "buffer": 0,
      "byteOffset": 106488,
      "byteLength": 72,
      "target": 34963
    },
    {
      "buffer": 0,
      "byteOffset": 106560,
      "byteLength": 288,
      "target": 34962
    },
    {
      "buffer": 0,
      "byteOffset": 106848,
      "byteLength": 72,
      "target": 34963
    },
    {
      "buffer": 0,
      "byteOffset": 106920,
      "byteLength": 288,
      "target": 34962
    },
    {
      "buffer": 0,
      "byteOffset": 107208,
      "byteLength": 72,
      "target": 34963
    },
    {
      "buffer": 0,
      "byteOffset": 107280,
      "byteLength": 960,
      "target": 34962
    },
    {
      "buffer": 0,
      "byteOffset": 108240,
      "byteLength": 192,
      "target": 34963
    }
  ],
  "accessors": [
    {
      "bufferView": 0,
      "componentType": 5126,
      "count": 120,
      "type": "VEC3",
      "max": [
        0.7400000095367432,
        2.9000000953674316,
        2.0999999046325684
      ],
      "min": [
        -0.7400000095367432,
        0.009999999776482582,
        -2.049999952316284
      ]
    },
    {
      "bufferView": 1,
      "componentType": 5123,
      "count": 180,
      "type": "SCALAR"
    },
    {
      "bufferView": 2,
      "componentType": 5126,
      "count": 48,
      "type": "VEC3",
      "max": [
        0.75,
        0.3400000035762787,
        2.049999952316284
      ],
      "min": [
        -0.75,
        0.019999999552965164,
        -2.0250000953674316
      ]
    },
    {
      "bufferView": 3,
      "componentType": 5123,
      "count": 72,
      "type": "SCALAR"
    },
    {
      "bufferView": 4,
      "componentType": 5126,
      "count": 220,
      "type": "VEC3",
      "max": [
        -0.6819999814033508,
        1.5880000591278076,
        1.899999976158142
      ],
      "min": [
        -0.7580000162124634,
        1.1233704090118408,
        -1.7999999523162842
      ]
    },
    {
      "bufferView": 5,
      "componentType": 5123,
      "count": 264,
      "type": "SCALAR"
    },
    {
      "bufferView": 6,
      "componentType": 5126,
      "count": 220,
      "type": "VEC3",
      "max": [
        0.7580000162124634,
        1.5880000591278076,
        1.899999976158142
      ],
      "min": [
        0.6819999814033508,
        1.1233704090118408,
        -1.7999999523162842
      ]
    },
    {
      "bufferView": 7,
      "componentType": 5123,
      "count": 264,
      "type": "SCALAR"
    },
    {
      "bufferView": 8,
      "componentType": 5126,
      "count": 100,
      "type": "VEC3",
      "max": [
        0.6750000715255737,
        1.8785316944122314,
        1.5800000429153442
      ],
      "min": [
        -0.6750000715255737,
        1.8214683532714844,
        1.5199999809265137
      ]
    },
    {
      "bufferView": 9,
      "componentType": 5123,
      "count": 120,
      "type": "SCALAR"
    },
    {
      "bufferView": 10,
      "componentType": 5126,
      "count": 100,
      "type": "VEC3",
      "max": [
        0.6750000715255737,
        1.3737764358520508,
        0.574999988079071
      ],
      "min": [
        -0.6750000715255737,
        1.326223611831665,
        0.5249999761581421
      ]
    },
    {
      "bufferView": 11,
      "componentType": 5123,
      "count": 120,
      "type": "SCALAR"
    },
    {
      "bufferView": 12,
      "componentType": 5126,
      "count": 24,
      "type": "VEC3",
      "max": [
        0.6399999856948853,
        0.45500001311302185,
        -1.2899999618530273
      ],
      "min": [
        -0.6399999856948853,
        0.38499999046325684,
        -1.6100000143051147
      ]
    },
    {
      "bufferView": 13,
      "componentType": 5123,
      "count": 36,
      "type": "SCALAR"
    },
    {
      "bufferView": 14,
      "componentType": 5126,
      "count": 24,
      "type": "VEC3",
      "max": [
        0.6399999856948853,
        0.8149999976158142,
        -0.6899999976158142
      ],
      "min": [
        -0.6399999856948853,
        0.7450000047683716,
        -1.0099999904632568
      ]
    },
    {
      "bufferView": 15,
      "componentType": 5123,
      "count": 36,
      "type": "SCALAR"
    },
    {
      "bufferView": 16,
      "componentType": 5126,
      "count": 24,
      "type": "VEC3",
      "max": [
        0.6399999856948853,
        1.1749999523162842,
        -0.09000000357627869
      ],
      "min": [
        -0.6399999856948853,
        1.1050000190734863,
        -0.4099999964237213
      ]
    },
    {
      "bufferView": 17,
      "componentType": 5123,
      "count": 36,
      "type": "SCALAR"
    },
    {
      "bufferView": 18,
      "componentType": 5126,
      "count": 24,
      "type": "VEC3",
      "max": [
        0.6399999856948853,
        1.534999966621399,
        0.5099999904632568
      ],
      "min": [
        -0.6399999856948853,
        1.465000033378601,
        0.1899999976158142
      ]
    },
    {
      "bufferView": 19,
      "componentType": 5123,
      "count": 36,
      "type": "SCALAR"
    },
    {
      "bufferView": 20,
      "componentType": 5126,
      "count": 24,
      "type": "VEC3",
      "max": [
        0.6399999856948853,
        1.8949999809265137,
        1.1100000143051147
      ],
      "min": [
        -0.6399999856948853,
        1.8250000476837158,
        0.7900000214576721
      ]
    },
    {
      "bufferView": 21,
      "componentType": 5123,
      "count": 36,
      "type": "SCALAR"
    },
    {
      "bufferView": 22,
      "componentType": 5126,
      "count": 24,
      "type": "VEC3",
      "max": [
        0.6399999856948853,
        2.255000114440918,
        1.600000023841858
      ],
      "min": [
        -0.6399999856948853,
        2.184999942779541,
        1.2999999523162842
      ]
    },
    {
      "bufferView": 23,
      "componentType": 5123,
      "count": 36,
      "type": "SCALAR"
    },
    {
      "bufferView": 24,
      "componentType": 5126,
      "count": 24,
      "type": "VEC3",
      "max": [
        0.6499999761581421,
        0.48750001192092896,
        -1.2649999856948853
      ],
      "min": [
        -0.6499999761581421,
        0.45249998569488525,
        -1.3350000381469727
      ]
    },
    {
      "bufferView": 25,
      "componentType": 5123,
      "count": 36,
      "type": "SCALAR"
    },
    {
      "bufferView": 26,
      "componentType": 5126,
      "count": 24,
      "type": "VEC3",
      "max": [
        0.6499999761581421,
        0.8475000262260437,
        -0.6650000214576721
      ],
      "min": [
        -0.6499999761581421,
        0.8125,
        -0.7350000143051147
      ]
    },
    {
      "bufferView": 27,
      "componentType": 5123,
      "count": 36,
      "type": "SCALAR"
    },
    {
      "bufferView": 28,
      "componentType": 5126,
      "count": 24,
      "type": "VEC3",
      "max": [
        0.6499999761581421,
        1.2074999809265137,
        -0.06499999761581421
      ],
      "min": [
        -0.6499999761581421,
        1.1725000143051147,
        -0.13500000536441803
      ]
    },
    {
      "bufferView": 29,
      "componentType": 5123,
      "count": 36,
      "type": "SCALAR"
    },
    {
      "bufferView": 30,
      "componentType": 5126,
      "count": 24,
      "type": "VEC3",
      "max": [
        0.6499999761581421,
        1.5674999952316284,
        0.5350000262260437
      ],
      "min": [
        -0.6499999761581421,
        1.5325000286102295,
        0.4650000035762787
      ]
    },
    {
      "bufferView": 31,
      "componentType": 5123,
      "count": 36,
      "type": "SCALAR"
    },
    {
      "bufferView": 32,
      "componentType": 5126,
      "count": 24,
      "type": "VEC3",
      "max": [
        0.6499999761581421,
        1.9275000095367432,
        1.1349999904632568
      ],
      "min": [
        -0.6499999761581421,
        1.8925000429153442,
        1.065000057220459
      ]
    },
    {
      "bufferView": 33,
      "componentType": 5123,
      "count": 36,
      "type": "SCALAR"
    },
    {
      "bufferView": 34,
      "componentType": 5126,
      "count": 48,
      "type": "VEC3",
      "max": [
        0.699999988079071,
        2.640000104904175,
        2.3499999046325684
      ],
      "min": [
        -0.699999988079071,
        2.5,
        1.350000023841858
      ]
    },
    {
      "bufferView": 35,
      "componentType": 5123,
      "count": 72,
      "type": "SCALAR"
    },
    {
      "bufferView": 36,
      "componentType": 5126,
      "count": 24,
      "type": "VEC3",
      "max": [
        -0.75,
        2.5999999046325684,
        1.899999976158142
      ],
      "min": [
        -0.8100000023841858,
        0.20000000298023224,
        -1.7000000476837158
      ]
    },
    {
      "bufferView": 37,
      "componentType": 5123,
      "count": 36,
      "type": "SCALAR"
    },
    {
      "bufferView": 38,
      "componentType": 5126,
      "count": 24,
      "type": "VEC3",
      "max": [
        0.8100000023841858,
        2.5999999046325684,
        1.899999976158142
      ],
      "min": [
        0.75,
        0.20000000298023224,
        -1.7000000476837158
      ]
    },
    {
      "bufferView": 39,
      "componentType": 5123,
      "count": 36,
      "type": "SCALAR"
    },
    {
      "bufferView": 40,
      "componentType": 5126,
      "count": 100,
      "type": "VEC3",
      "max": [
        -0.6899999976158142,
        1.2250001430511475,
        -1.1714682579040527
      ],
      "min": [
        -0.75,
        0.2750000059604645,
        -1.2285317182540894
      ]
    },
    {
      "bufferView": 41,
      "componentType": 5123,
      "count": 120,
      "type": "SCALAR"
    },
    {
      "bufferView": 42,
      "componentType": 5126,
      "count": 100,
      "type": "VEC3",
      "max": [
        0.75,
        1.2250001430511475,
        -1.1714682579040527
      ],
      "min": [
        0.6899999976158142,
        0.2750000059604645,
        -1.2285317182540894
      ]
    },
    {
      "bufferView": 43,
      "componentType": 5123,
      "count": 120,
      "type": "SCALAR"
    },
    {
      "bufferView": 44,
      "componentType": 5126,
      "count": 100,
      "type": "VEC3",
      "max": [
        -0.6899999976158142,
        1.8250000476837158,
        0.12853169441223145
      ],
      "min": [
        -0.75,
        0.875,
        0.0714683011174202
      ]
    },
    {
      "bufferView": 45,
      "componentType": 5123,
      "count": 120,
      "type": "SCALAR"
    },
    {
      "bufferView": 46,
      "componentType": 5126,
      "count": 100,
      "type": "VEC3",
      "max": [
        0.75,
        1.8250000476837158,
        0.12853169441223145
      ],
      "min": [
        0.6899999976158142,
        0.875,
        0.0714683011174202
      ]
    },
    {
      "bufferView": 47,
      "componentType": 5123,
      "count": 120,
      "type": "SCALAR"
    },
    {
      "bufferView": 48,
      "componentType": 5126,
      "count": 100,
      "type": "VEC3",
      "max": [
        -0.6899999976158142,
        2.424999952316284,
        1.3285317420959473
      ],
      "min": [
        -0.75,
        1.475000023841858,
        1.2714682817459106
      ]
    },
    {
      "bufferView": 49,
      "componentType": 5123,
      "count": 120,
      "type": "SCALAR"
    },
    {
      "bufferView": 50,
      "componentType": 5126,
      "count": 100,
      "type": "VEC3",
      "max": [
        0.75,
        2.424999952316284,
        1.3285317420959473
      ],
      "min": [
        0.6899999976158142,
        1.475000023841858,
        1.2714682817459106
      ]
    },
    {
      "bufferView": 51,
      "componentType": 5123,
      "count": 120,
      "type": "SCALAR"
    },
    {
      "bufferView": 52,
      "componentType": 5126,
      "count": 72,
      "type": "VEC3",
      "max": [
        0.7250000238418579,
        3.0799999237060547,
        2.2750000953674316
      ],
      "min": [
        -0.7250000238418579,
        2.575000047683716,
        0.824999988079071
      ]
    },
    {
      "bufferView": 53,
      "componentType": 5123,
      "count": 108,
      "type": "SCALAR"
    },
    {
      "bufferView": 54,
      "componentType": 5126,
      "count": 24,
      "type": "VEC3",
      "max": [
        0.675000011920929,
        0.5899999737739563,
        0.23999999463558197
      ],
      "min": [
        -0.675000011920929,
        0.5099999904632568,
        0.1599999964237213
      ]
    },
    {
      "bufferView": 55,
      "componentType": 5123,
      "count": 36,
      "type": "SCALAR"
    },
    {
      "bufferView": 56,
      "componentType": 5126,
      "count": 140,
      "type": "VEC3",
      "max": [
        -0.5600000023841858,
        0.33598846197128296,
        -1.3899999856948853
      ],
      "min": [
        -0.6800000071525574,
        0.024011533707380295,
        -1.7100000381469727
      ]
    },
    {
      "bufferView": 57,
      "componentType": 5123,
      "count": 168,
      "type": "SCALAR"
    },
    {
      "bufferView": 58,
      "componentType": 5126,
      "count": 140,
      "type": "VEC3",
      "max": [
        0.6800000071525574,
        0.33598846197128296,
        -1.3899999856948853
      ],
      "min": [
        0.5600000023841858,
        0.024011533707380295,
        -1.7100000381469727
      ]
    },
    {
      "bufferView": 59,
      "componentType": 5123,
      "count": 168,
      "type": "SCALAR"
    },
    {
      "bufferView": 60,
      "componentType": 5126,
      "count": 140,
      "type": "VEC3",
      "max": [
        -0.5600000023841858,
        0.33598846197128296,
        1.7100000381469727
      ],
      "min": [
        -0.6800000071525574,
        0.024011533707380295,
        1.3899999856948853
      ]
    },
    {
      "bufferView": 61,
      "componentType": 5123,
      "count": 168,
      "type": "SCALAR"
    },
    {
      "bufferView": 62,
      "componentType": 5126,
      "count": 140,
      "type": "VEC3",
      "max": [
        0.6800000071525574,
        0.33598846197128296,
        1.7100000381469727
      ],
      "min": [
        0.5600000023841858,
        0.024011533707380295,
        1.3899999856948853
      ]
    },
    {
      "bufferView": 63,
      "componentType": 5123,
      "count": 168,
      "type": "SCALAR"
    },
    {
      "bufferView": 64,
      "componentType": 5126,
      "count": 100,
      "type": "VEC3",
      "max": [
        -0.550000011920929,
        0.23706339299678802,
        -1.4900000095367432
      ],
      "min": [
        -0.6899999976158142,
        0.12293660640716553,
        -1.6100000143051147
      ]
    },
    {
      "bufferView": 65,
      "componentType": 5123,
      "count": 120,
      "type": "SCALAR"
    },
    {
      "bufferView": 66,
      "componentType": 5126,
      "count": 100,
      "type": "VEC3",
      "max": [
        0.6899999976158142,
        0.23706339299678802,
        -1.4900000095367432
      ],
      "min": [
        0.550000011920929,
        0.12293660640716553,
        -1.6100000143051147
      ]
    },
    {
      "bufferView": 67,
      "componentType": 5123,
      "count": 120,
      "type": "SCALAR"
    },
    {
      "bufferView": 68,
      "componentType": 5126,
      "count": 100,
      "type": "VEC3",
      "max": [
        -0.550000011920929,
        0.23706339299678802,
        1.6100000143051147
      ],
      "min": [
        -0.6899999976158142,
        0.12293660640716553,
        1.4900000095367432
      ]
    },
    {
      "bufferView": 69,
      "componentType": 5123,
      "count": 120,
      "type": "SCALAR"
    },
    {
      "bufferView": 70,
      "componentType": 5126,
      "count": 100,
      "type": "VEC3",
      "max": [
        0.6899999976158142,
        0.23706339299678802,
        1.6100000143051147
      ],
      "min": [
        0.550000011920929,
        0.12293660640716553,
        1.4900000095367432
      ]
    },
    {
      "bufferView": 71,
      "componentType": 5123,
      "count": 120,
      "type": "SCALAR"
    },
    {
      "bufferView": 72,
      "componentType": 5126,
      "count": 128,
      "type": "VEC3",
      "max": [
        0.5400000214576721,
        0.23999999463558197,
        0.23999999463558197
      ],
      "min": [
        -0.5400000214576721,
        0.0,
        -0.23999999463558197
      ]
    },
    {
      "bufferView": 73,
      "componentType": 5123,
      "count": 168,
      "type": "SCALAR"
    },
    {
      "bufferView": 74,
      "componentType": 5126,
      "count": 48,
      "type": "VEC3",
      "max": [
        -0.2199999988079071,
        0.23999999463558197,
        0.25
      ],
      "min": [
        -0.5400000214576721,
        0.0,
        -0.23999999463558197
      ]
    },
    {
      "bufferView": 75,
      "componentType": 5123,
      "count": 72,
      "type": "SCALAR"
    },
    {
      "bufferView": 76,
      "componentType": 5126,
      "count": 48,
      "type": "VEC3",
      "max": [
        0.5400000214576721,
        0.23999999463558197,
        0.25
      ],
      "min": [
        0.2199999988079071,
        0.0,
        -0.23999999463558197
      ]
    },
    {
      "bufferView": 77,
      "componentType": 5123,
      "count": 72,
      "type": "SCALAR"
    },
    {
      "bufferView": 78,
      "componentType": 5126,
      "count": 80,
      "type": "VEC3",
      "max": [
        0.375,
        0.10999999940395355,
        0.029999999329447746
      ],
      "min": [
        -0.375,
        0.05000000074505806,
        -0.029999999329447746
      ]
    },
    {
      "bufferView": 79,
      "componentType": 5123,
      "count": 96,
      "type": "SCALAR"
    },
    {
      "bufferView": 80,
      "componentType": 5126,
      "count": 24,
      "type": "VEC3",
      "max": [
        0.03999999910593033,
        0.3199999928474426,
        0.03999999910593033
      ],
      "min": [
        -0.03999999910593033,
        0.11999999731779099,
        -0.03999999910593033
      ]
    },
    {
      "bufferView": 81,
      "componentType": 5123,
      "count": 36,
      "type": "SCALAR"
    },
    {
      "bufferView": 82,
      "componentType": 5126,
      "count": 168,
      "type": "VEC3",
      "max": [
        0.8500000238418579,
        1.475000262260437,
        1.125
      ],
      "min": [
        -0.8500000238418579,
        0.05000000074505806,
        -1.125
      ]
    },
    {
      "bufferView": 83,
      "componentType": 5123,
      "count": 216,
      "type": "SCALAR"
    },
    {
      "bufferView": 84,
      "componentType": 5126,
      "count": 48,
      "type": "VEC3",
      "max": [
        0.8500000238418579,
        1.024999976158142,
        1.100000023841858
      ],
      "min": [
        -0.8500000238418579,
        0.029999999329447746,
        -1.100000023841858
      ]
    },
    {
      "bufferView": 85,
      "componentType": 5123,
      "count": 72,
      "type": "SCALAR"
    },
    {
      "bufferView": 86,
      "componentType": 5126,
      "count": 24,
      "type": "VEC3",
      "max": [
        0.824999988079071,
        1.274999976158142,
        1.0750000476837158
      ],
      "min": [
        0.2750000059604645,
        0.625,
        0.42500001192092896
      ]
    },
    {
      "bufferView": 87,
      "componentType": 5123,
      "count": 36,
      "type": "SCALAR"
    },
    {
      "bufferView": 88,
      "componentType": 5126,
      "count": 48,
      "type": "VEC3",
      "max": [
        -0.2750000059604645,
        1.0750000476837158,
        -0.574999988079071
      ],
      "min": [
        -0.824999988079071,
        0.625,
        -1.125
      ]
    },
    {
      "bufferView": 89,
      "componentType": 5123,
      "count": 72,
      "type": "SCALAR"
    },
    {
      "bufferView": 90,
      "componentType": 5126,
      "count": 24,
      "type": "VEC3",
      "max": [
        -0.32499998807907104,
        1.0499999523162842,
        0.9900000095367432
      ],
      "min": [
        -0.7749999761581421,
        0.6499999761581421,
        0.9100000262260437
      ]
    },
    {
      "bufferView": 91,
      "componentType": 5123,
      "count": 36,
      "type": "SCALAR"
    },
    {
      "bufferView": 92,
      "componentType": 5126,
      "count": 24,
      "type": "VEC3",
      "max": [
        -0.32499998807907104,
        1.0499999523162842,
        -0.9100000262260437
      ],
      "min": [
        -0.7749999761581421,
        0.6499999761581421,
        -0.9900000095367432
      ]
    },
    {
      "bufferView": 93,
      "componentType": 5123,
      "count": 36,
      "type": "SCALAR"
    },
    {
      "bufferView": 94,
      "componentType": 5126,
      "count": 24,
      "type": "VEC3",
      "max": [
        0.574999988079071,
        0.949999988079071,
        -1.0199999809265137
      ],
      "min": [
        -0.574999988079071,
        0.44999998807907104,
        -1.0800000429153442
      ]
    },
    {
      "bufferView": 95,
      "componentType": 5123,
      "count": 36,
      "type": "SCALAR"
    },
    {
      "bufferView": 96,
      "componentType": 5126,
      "count": 24,
      "type": "VEC3",
      "max": [
        0.574999988079071,
        0.949999988079071,
        1.0800000429153442
      ],
      "min": [
        -0.574999988079071,
        0.44999998807907104,
        1.0199999809265137
      ]
    },
    {
      "bufferView": 97,
      "componentType": 5123,
      "count": 36,
      "type": "SCALAR"
    },
    {
      "bufferView": 98,
      "componentType": 5126,
      "count": 24,
      "type": "VEC3",
      "max": [
        -0.5899999737739563,
        0.9399999976158142,
        1.0399999618530273
      ],
      "min": [
        -0.8100000023841858,
        0.8600000143051147,
        1.0
      ]
    },
    {
      "bufferView": 99,
      "componentType": 5123,
      "count": 36,
      "type": "SCALAR"
    },
    {
      "bufferView": 100,
      "componentType": 5126,
      "count": 24,
      "type": "VEC3",
      "max": [
        -0.5899999737739563,
        0.7599999904632568,
        1.0399999618530273
      ],
      "min": [
        -0.8100000023841858,
        0.6800000071525574,
        1.0
      ]
    },
    {
      "bufferView": 101,
      "componentType": 5123,
      "count": 36,
      "type": "SCALAR"
    },
    {
      "bufferView": 102,
      "componentType": 5126,
      "count": 100,
      "type": "VEC3",
      "max": [
        0.75,
        0.4975528120994568,
        1.4250000715255737
      ],
      "min": [
        0.6499999761581421,
        0.4024471640586853,
        0.875
      ]
    },
    {
      "bufferView": 103,
      "componentType": 5123,
      "count": 120,
      "type": "SCALAR"
    },
    {
      "bufferView": 104,
      "componentType": 5126,
      "count": 140,
      "type": "VEC3",
      "max": [
        0.7900000214576721,
        0.894985556602478,
        1.149999976158142
      ],
      "min": [
        0.6100000143051147,
        0.5050144195556641,
        0.75
      ]
    },
    {
      "bufferView": 105,
      "componentType": 5123,
      "count": 168,
      "type": "SCALAR"
    },
    {
      "bufferView": 106,
      "componentType": 5126,
      "count": 24,
      "type": "VEC3",
      "max": [
        0.14000000059604645,
        0.41999998688697815,
        -1.0750000476837158
      ],
      "min": [
        -0.14000000059604645,
        0.2800000011920929,
        -1.4249999523162842
      ]
    },
    {
      "bufferView": 107,
      "componentType": 5123,
      "count": 36,
      "type": "SCALAR"
    },
    {
      "bufferView": 108,
      "componentType": 5126,
      "count": 100,
      "type": "VEC3",
      "max": [
        0.07999999821186066,
        1.2700001001358032,
        -0.12391547858715057
      ],
      "min": [
        -0.07999999821186066,
        1.1299999952316284,
        -0.2760845124721527
      ]
    },
    {
      "bufferView": 109,
      "componentType": 5123,
      "count": 120,
      "type": "SCALAR"
    },
    {
      "bufferView": 110,
      "componentType": 5126,
      "count": 120,
      "type": "VEC3",
      "max": [
        0.5899999737739563,
        1.5,
        0.4399999976158142
      ],
      "min": [
        0.4099999964237213,
        1.0,
        0.25999999046325684
      ]
    },
    {
      "bufferView": 111,
      "componentType": 5123,
      "count": 144,
      "type": "SCALAR"
    },
    {
      "bufferView": 112,
      "componentType": 5126,
      "count": 24,
      "type": "VEC3",
      "max": [
        0.6100000143051147,
        1.2999999523162842,
        0.8100000023841858
      ],
      "min": [
        0.49000000953674316,
        1.2000000476837158,
        0.6899999976158142
      ]
    },
    {
      "bufferView": 113,
      "componentType": 5123,
      "count": 36,
      "type": "SCALAR"
    },
    {
      "bufferView": 114,
      "componentType": 5126,
      "count": 24,
      "type": "VEC3",
      "max": [
        0.699999988079071,
        0.5,
        1.1050000190734863
      ],
      "min": [
        -0.699999988079071,
        0.4000000059604645,
        1.0549999475479126
      ]
    },
    {
      "bufferView": 115,
      "componentType": 5123,
      "count": 36,
      "type": "SCALAR"
    },
    {
      "bufferView": 116,
      "componentType": 5126,
      "count": 24,
      "type": "VEC3",
      "max": [
        0.8899999856948853,
        1.0,
        0.574999988079071
      ],
      "min": [
        0.8100000023841858,
        0.699999988079071,
        0.22499999403953552
      ]
    },
    {
      "bufferView": 117,
      "componentType": 5123,
      "count": 36,
      "type": "SCALAR"
    },
    {
      "bufferView": 118,
      "componentType": 5126,
      "count": 140,
      "type": "VEC3",
      "max": [
        0.720000147819519,
        0.3754870295524597,
        0.9300000071525574
      ],
      "min": [
        0.5799999833106995,
        0.02451297640800476,
        0.5699999928474426
      ]
    },
    {
      "bufferView": 119,
      "componentType": 5123,
      "count": 168,
      "type": "SCALAR"
    },
    {
      "bufferView": 120,
      "componentType": 5126,
      "count": 140,
      "type": "VEC3",
      "max": [
        0.720000147819519,
        0.3754870295524597,
        -0.5699999928474426
      ],
      "min": [
        0.5799999833106995,
        0.02451297640800476,
        -0.9300000071525574
      ]
    },
    {
      "bufferView": 121,
      "componentType": 5123,
      "count": 168,
      "type": "SCALAR"
    },
    {
      "bufferView": 122,
      "componentType": 5126,
      "count": 140,
      "type": "VEC3",
      "max": [
        -0.5799999833106995,
        0.3754870295524597,
        0.9300000071525574
      ],
      "min": [
        -0.720000147819519,
        0.02451297640800476,
        0.5699999928474426
      ]
    },
    {
      "bufferView": 123,
      "componentType": 5123,
      "count": 168,
      "type": "SCALAR"
    },
    {
      "bufferView": 124,
      "componentType": 5126,
      "count": 140,
      "type": "VEC3",
      "max": [
        -0.5799999833106995,
        0.3754870295524597,
        -0.5699999928474426
      ],
      "min": [
        -0.720000147819519,
        0.02451297640800476,
        -0.9300000071525574
      ]
    },
    {
      "bufferView": 125,
      "componentType": 5123,
      "count": 168,
      "type": "SCALAR"
    },
    {
      "bufferView": 126,
      "componentType": 5126,
      "count": 100,
      "type": "VEC3",
      "max": [
        0.7300000190734863,
        0.266573965549469,
        0.8199999928474426
      ],
      "min": [
        0.5699999928474426,
        0.13342604041099548,
        0.6800000071525574
      ]
    },
    {
      "bufferView": 127,
      "componentType": 5123,
      "count": 120,
      "type": "SCALAR"
    },
    {
      "bufferView": 128,
      "componentType": 5126,
      "count": 100,
      "type": "VEC3",
      "max": [
        0.7300000190734863,
        0.266573965549469,
        -0.6800000071525574
      ],
      "min": [
        0.5699999928474426,
        0.13342604041099548,
        -0.8199999928474426
      ]
    },
    {
      "bufferView": 129,
      "componentType": 5123,
      "count": 120,
      "type": "SCALAR"
    },
    {
      "bufferView": 130,
      "componentType": 5126,
      "count": 100,
      "type": "VEC3",
      "max": [
        -0.5699999928474426,
        0.266573965549469,
        0.8199999928474426
      ],
      "min": [
        -0.7300000190734863,
        0.13342604041099548,
        0.6800000071525574
      ]
    },
    {
      "bufferView": 131,
      "componentType": 5123,
      "count": 120,
      "type": "SCALAR"
    },
    {
      "bufferView": 132,
      "componentType": 5126,
      "count": 100,
      "type": "VEC3",
      "max": [
        -0.5699999928474426,
        0.266573965549469,
        -0.6800000071525574
      ],
      "min": [
        -0.7300000190734863,
        0.13342604041099548,
        -0.8199999928474426
      ]
    },
    {
      "bufferView": 133,
      "componentType": 5123,
      "count": 120,
      "type": "SCALAR"
    },
    {
      "bufferView": 134,
      "componentType": 5126,
      "count": 120,
      "type": "VEC3",
      "max": [
        1.3600000143051147,
        0.699999988079071,
        0.1599999964237213
      ],
      "min": [
        1.0399999618530273,
        0.0,
        -0.1599999964237213
      ]
    },
    {
      "bufferView": 135,
      "componentType": 5123,
      "count": 144,
      "type": "SCALAR"
    },
    {
      "bufferView": 136,
      "componentType": 5126,
      "count": 120,
      "type": "VEC3",
      "max": [
        1.3700000047683716,
        0.46000000834465027,
        0.17000000178813934
      ],
      "min": [
        1.0299999713897705,
        0.3399999439716339,
        -0.17000000178813934
      ]
    },
    {
      "bufferView": 137,
      "componentType": 5123,
      "count": 144,
      "type": "SCALAR"
    },
    {
      "bufferView": 138,
      "componentType": 5126,
      "count": 24,
      "type": "VEC3",
      "max": [
        1.409999966621399,
        0.07999999821186066,
        0.20999999344348907
      ],
      "min": [
        0.9900000095367432,
        0.0,
        -0.20999999344348907
      ]
    },
    {
      "bufferView": 139,
      "componentType": 5123,
      "count": 36,
      "type": "SCALAR"
    },
    {
      "bufferView": 140,
      "componentType": 5126,
      "count": 100,
      "type": "VEC3",
      "max": [
        1.2699999809265137,
        0.7600000500679016,
        0.06657395511865616
      ],
      "min": [
        1.1299999952316284,
        0.5999999642372131,
        -0.06657395511865616
      ]
    },
    {
      "bufferView": 141,
      "componentType": 5123,
      "count": 120,
      "type": "SCALAR"
    },
    {
      "bufferView": 142,
      "componentType": 5126,
      "count": 24,
      "type": "VEC3",
      "max": [
        1.2999999523162842,
        0.25,
        -1.4500000476837158
      ],
      "min": [
        -1.2999999523162842,
        0.15000000596046448,
        -1.5499999523162842
      ]
    },
    {
      "bufferView": 143,
      "componentType": 5123,
      "count": 36,
      "type": "SCALAR"
    },
    {
      "bufferView": 144,
      "componentType": 5126,
      "count": 24,
      "type": "VEC3",
      "max": [
        1.3899999856948853,
        0.36000001430511475,
        -1.3899999856948853
      ],
      "min": [
        1.1100000143051147,
        0.14000000059604645,
        -1.6100000143051147
      ]
    },
    {
      "bufferView": 145,
      "componentType": 5123,
      "count": 36,
      "type": "SCALAR"
    },
    {
      "bufferView": 146,
      "componentType": 5126,
      "count": 100,
      "type": "VEC3",
      "max": [
        -0.9599999785423279,
        0.20559509098529816,
        -1.4499999284744263
      ],
      "min": [
        -1.1399999856948853,
        0.03440491482615471,
        -1.5500000715255737
      ]
    },
    {
      "bufferView": 147,
      "componentType": 5123,
      "count": 120,
      "type": "SCALAR"
    },
    {
      "bufferView": 148,
      "componentType": 5126,
      "count": 24,
      "type": "VEC3",
      "max": [
        -1.0750000476837158,
        0.38999998569488525,
        -1.4600000381469727
      ],
      "min": [
        -1.4249999523162842,
        0.3100000023841858,
        -1.5399999618530273
      ]
    },
    {
      "bufferView": 149,
      "componentType": 5123,
      "count": 36,
      "type": "SCALAR"
    },
    {
      "bufferView": 150,
      "componentType": 5126,
      "count": 100,
      "type": "VEC3",
      "max": [
        1.4300000667572021,
        0.32608452439308167,
        -1.4199999570846558
      ],
      "min": [
        1.3700000047683716,
        0.17391547560691833,
        -1.5800000429153442
      ]
    },
    {
      "bufferView": 151,
      "componentType": 5123,
      "count": 120,
      "type": "SCALAR"
    },
    {
      "bufferView": 152,
      "componentType": 5126,
      "count": 24,
      "type": "VEC3",
      "max": [
        -0.824999988079071,
        0.925000011920929,
        1.149999976158142
      ],
      "min": [
        -1.5750000476837158,
        -0.02500000037252903,
        0.44999998807907104
      ]
    },
    {
      "bufferView": 153,
      "componentType": 5123,
      "count": 36,
      "type": "SCALAR"
    },
    {
      "bufferView": 154,
      "componentType": 5126,
      "count": 24,
      "type": "VEC3",
      "max": [
        -0.8100000023841858,
        1.0199999809265137,
        1.1699999570846558
      ],
      "min": [
        -1.590000033378601,
        0.9399999976158142,
        0.4300000071525574
      ]
    },
    {
      "bufferView": 155,
      "componentType": 5123,
      "count": 36,
      "type": "SCALAR"
    },
    {
      "bufferView": 156,
      "componentType": 5126,
      "count": 24,
      "type": "VEC3",
      "max": [
        -1.024999976158142,
        1.0800000429153442,
        0.8299999833106995
      ],
      "min": [
        -1.375,
        1.0199999809265137,
        0.7699999809265137
      ]
    },
    {
      "bufferView": 157,
      "componentType": 5123,
      "count": 36,
      "type": "SCALAR"
    },
    {
      "bufferView": 158,
      "componentType": 5126,
      "count": 24,
      "type": "VEC3",
      "max": [
        -0.925000011920929,
        0.6100000143051147,
        1.1399999856948853
      ],
      "min": [
        -1.475000023841858,
        0.49000000953674316,
        1.100000023841858
      ]
    },
    {
      "bufferView": 159,
      "componentType": 5123,
      "count": 36,
      "type": "SCALAR"
    },
    {
      "bufferView": 160,
      "componentType": 5126,
      "count": 48,
      "type": "VEC3",
      "max": [
        3.700000047683716,
        0.6299999952316284,
        0.5
      ],
      "min": [
        1.899999976158142,
        0.05000000074505806,
        -0.5
      ]
    },
    {
      "bufferView": 161,
      "componentType": 5123,
      "count": 72,
      "type": "SCALAR"
    },
    {
      "bufferView": 162,
      "componentType": 5126,
      "count": 24,
      "type": "VEC3",
      "max": [
        3.75,
        1.2000000476837158,
        0.375
      ],
      "min": [
        3.1500000953674316,
        0.5,
        -0.375
      ]
    },
    {
      "bufferView": 163,
      "componentType": 5123,
      "count": 36,
      "type": "SCALAR"
    },
    {
      "bufferView": 164,
      "componentType": 5126,
      "count": 24,
      "type": "VEC3",
      "max": [
        3.740000009536743,
        1.125,
        0.2750000059604645
      ],
      "min": [
        3.700000047683716,
        0.7749999761581421,
        -0.2750000059604645
      ]
    },
    {
      "bufferView": 165,
      "componentType": 5123,
      "count": 36,
      "type": "SCALAR"
    },
    {
      "bufferView": 166,
      "componentType": 5126,
      "count": 24,
      "type": "VEC3",
      "max": [
        3.4000000953674316,
        1.1299999952316284,
        0.20999999344348907
      ],
      "min": [
        0.699999988079071,
        0.9700000286102295,
        -0.20999999344348907
      ]
    },
    {
      "bufferView": 167,
      "componentType": 5123,
      "count": 36,
      "type": "SCALAR"
    },
    {
      "bufferView": 168,
      "componentType": 5126,
      "count": 24,
      "type": "VEC3",
      "max": [
        3.299999952316284,
        1.190000057220459,
        0.1599999964237213
      ],
      "min": [
        0.800000011920929,
        1.1299999952316284,
        -0.1599999964237213
      ]
    },
    {
      "bufferView": 169,
      "componentType": 5123,
      "count": 36,
      "type": "SCALAR"
    },
    {
      "bufferView": 170,
      "componentType": 5126,
      "count": 24,
      "type": "VEC3",
      "max": [
        3.299999952316284,
        1.3300000429153442,
        0.22499999403953552
      ],
      "min": [
        0.800000011920929,
        1.2300000190734863,
        0.17499999701976776
      ]
    },
    {
      "bufferView": 171,
      "componentType": 5123,
      "count": 36,
      "type": "SCALAR"
    },
    {
      "bufferView": 172,
      "componentType": 5126,
      "count": 24,
      "type": "VEC3",
      "max": [
        3.299999952316284,
        1.3300000429153442,
        -0.17499999701976776
      ],
      "min": [
        0.800000011920929,
        1.2300000190734863,
        -0.22499999403953552
      ]
    },
    {
      "bufferView": 173,
      "componentType": 5123,
      "count": 36,
      "type": "SCALAR"
    },
    {
      "bufferView": 174,
      "componentType": 5126,
      "count": 140,
      "type": "VEC3",
      "max": [
        3.5399999618530273,
        0.31648990511894226,
        0.4699999988079071
      ],
      "min": [
        3.259999990463257,
        0.04351009055972099,
        0.32999998331069946
      ]
    },
    {
      "bufferView": 175,
      "componentType": 5123,
      "count": 168,
      "type": "SCALAR"
    },
    {
      "bufferView": 176,
      "componentType": 5126,
      "count": 140,
      "type": "VEC3",
      "max": [
        3.5399999618530273,
        0.31648990511894226,
        -0.32999998331069946
      ],
      "min": [
        3.259999990463257,
        0.04351009055972099,
        -0.4699999988079071
      ]
    },
    {
      "bufferView": 177,
      "componentType": 5123,
      "count": 168,
      "type": "SCALAR"
    },
    {
      "bufferView": 178,
      "componentType": 5126,
      "count": 140,
      "type": "VEC3",
      "max": [
        2.390000104904175,
        0.31648990511894226,
        0.4699999988079071
      ],
      "min": [
        2.109999895095825,
        0.04351009055972099,
        0.32999998331069946
      ]
    },
    {
      "bufferView": 179,
      "componentType": 5123,
      "count": 168,
      "type": "SCALAR"
    },
    {
      "bufferView": 180,
      "componentType": 5126,
      "count": 140,
      "type": "VEC3",
      "max": [
        2.390000104904175,
        0.31648990511894226,
        -0.32999998331069946
      ],
      "min": [
        2.109999895095825,
        0.04351009055972099,
        -0.4699999988079071
      ]
    },
    {
      "bufferView": 181,
      "componentType": 5123,
      "count": 168,
      "type": "SCALAR"
    },
    {
      "bufferView": 182,
      "componentType": 5126,
      "count": 100,
      "type": "VEC3",
      "max": [
        3.4600000381469727,
        0.23706339299678802,
        0.4399999976158142
      ],
      "min": [
        3.3399999141693115,
        0.12293660640716553,
        0.36000001430511475
      ]
    },
    {
      "bufferView": 183,
      "componentType": 5123,
      "count": 120,
      "type": "SCALAR"
    },
    {
      "bufferView": 184,
      "componentType": 5126,
      "count": 100,
      "type": "VEC3",
      "max": [
        3.4600000381469727,
        0.23706339299678802,
        -0.36000001430511475
      ],
      "min": [
        3.3399999141693115,
        0.12293660640716553,
        -0.4399999976158142
      ]
    },
    {
      "bufferView": 185,
      "componentType": 5123,
      "count": 120,
      "type": "SCALAR"
    },
    {
      "bufferView": 186,
      "componentType": 5126,
      "count": 24,
      "type": "VEC3",
      "max": [
        3.990000009536743,
        0.42500001192092896,
        0.10999999940395355
      ],
      "min": [
        3.7100000381469727,
        0.2750000059604645,
        -0.10999999940395355
      ]
    },
    {
      "bufferView": 187,
      "componentType": 5123,
      "count": 36,
      "type": "SCALAR"
    },
    {
      "bufferView": 188,
      "componentType": 5126,
      "count": 24,
      "type": "VEC3",
      "max": [
        3.559999942779541,
        1.25,
        0.05999999865889549
      ],
      "min": [
        3.440000057220459,
        1.149999976158142,
        -0.05999999865889549
      ]
    },
    {
      "bufferView": 189,
      "componentType": 5123,
      "count": 36,
      "type": "SCALAR"
    },
    {
      "bufferView": 190,
      "componentType": 5126,
      "count": 24,
      "type": "VEC3",
      "max": [
        3.2899999618530273,
        1.0399999618530273,
        0.20999999344348907
      ],
      "min": [
        3.009999990463257,
        0.7599999904632568,
        -0.20999999344348907
      ]
    },
    {
      "bufferView": 191,
      "componentType": 5123,
      "count": 36,
      "type": "SCALAR"
    },
    {
      "bufferView": 192,
      "componentType": 5126,
      "count": 24,
      "type": "VEC3",
      "max": [
        2.4600000381469727,
        0.949999988079071,
        0.05999999865889549
      ],
      "min": [
        2.3399999141693115,
        0.44999998807907104,
        -0.05999999865889549
      ]
    },
    {
      "bufferView": 193,
      "componentType": 5123,
      "count": 36,
      "type": "SCALAR"
    },
    {
      "bufferView": 194,
      "componentType": 5126,
      "count": 100,
      "type": "VEC3",
      "max": [
        1.159999966621399,
        1.2170634269714355,
        0.1599999964237213
      ],
      "min": [
        1.0399999618530273,
        1.1029366254806519,
        -0.1599999964237213
      ]
    },
    {
      "bufferView": 195,
      "componentType": 5123,
      "count": 120,
      "type": "SCALAR"
    },
    {
      "bufferView": 196,
      "componentType": 5126,
      "count": 100,
      "type": "VEC3",
      "max": [
        1.7599999904632568,
        1.2170634269714355,
        0.1599999964237213
      ],
      "min": [
        1.6399999856948853,
        1.1029366254806519,
        -0.1599999964237213
      ]
    },
    {
      "bufferView": 197,
      "componentType": 5123,
      "count": 120,
      "type": "SCALAR"
    },
    {
      "bufferView": 198,
      "componentType": 5126,
      "count": 100,
      "type": "VEC3",
      "max": [
        2.359999895095825,
        1.2170634269714355,
        0.1599999964237213
      ],
      "min": [
        2.240000009536743,
        1.1029366254806519,
        -0.1599999964237213
      ]
    },
    {
      "bufferView": 199,
      "componentType": 5123,
      "count": 120,
      "type": "SCALAR"
    },
    {
      "bufferView": 200,
      "componentType": 5126,
      "count": 100,
      "type": "VEC3",
      "max": [
        2.9600000381469727,
        1.2170634269714355,
        0.1599999964237213
      ],
      "min": [
        2.8399999141693115,
        1.1029366254806519,
        -0.1599999964237213
      ]
    },
    {
      "bufferView": 201,
      "componentType": 5123,
      "count": 120,
      "type": "SCALAR"
    },
    {
      "bufferView": 202,
      "componentType": 5126,
      "count": 24,
      "type": "VEC3",
      "max": [
        3.759999990463257,
        0.49000000953674316,
        0.42500001192092896
      ],
      "min": [
        3.640000104904175,
        0.20999999344348907,
        -0.42500001192092896
      ]
    },
    {
      "bufferView": 203,
      "componentType": 5123,
      "count": 36,
      "type": "SCALAR"
    },
    {
      "bufferView": 204,
      "componentType": 5126,
      "count": 24,
      "type": "VEC3",
      "max": [
        3.549999952316284,
        0.5400000214576721,
        0.5
      ],
      "min": [
        2.049999952316284,
        0.46000000834465027,
        0.46000000834465027
      ]
    },
    {
      "bufferView": 205,
      "componentType": 5123,
      "count": 36,
      "type": "SCALAR"
    },
    {
      "bufferView": 206,
      "componentType": 5126,
      "count": 24,
      "type": "VEC3",
      "max": [
        0.8500000238418579,
        1.3250000476837158,
        1.149999976158142
      ],
      "min": [
        -0.8500000238418579,
        0.07500000298023224,
        -1.149999976158142
      ]
    },
    {
      "bufferView": 207,
      "componentType": 5123,
      "count": 36,
      "type": "SCALAR"
    },
    {
      "bufferView": 208,
      "componentType": 5126,
      "count": 24,
      "type": "VEC3",
      "max": [
        0.800000011920929,
        1.100000023841858,
        0.05000000074505806
      ],
      "min": [
        -0.800000011920929,
        0.0,
        -0.05000000074505806
      ]
    },
    {
      "bufferView": 209,
      "componentType": 5123,
      "count": 36,
      "type": "SCALAR"
    },
    {
      "bufferView": 210,
      "componentType": 5126,
      "count": 80,
      "type": "VEC3",
      "max": [
        0.05000000074505806,
        3.0,
        0.05000000074505806
      ],
      "min": [
        -0.05000000074505806,
        0.0,
        -0.05000000074505806
      ]
    },
    {
      "bufferView": 211,
      "componentType": 5123,
      "count": 96,
      "type": "SCALAR"
    }
  ],
  "meshes": [
    {
      "name": "stairs",
      "primitives": [
        {
          "attributes": {
            "POSITION": 0
          },
          "indices": 1,
          "mode": 4
        }
      ]
    },
    {
      "name": "stairs_base",
      "primitives": [
        {
          "attributes": {
            "POSITION": 2
          },
          "indices": 3,
          "mode": 4
        }
      ]
    },
    {
      "name": "stairs_rail_l",
      "primitives": [
        {
          "attributes": {
            "POSITION": 4
          },
          "indices": 5,
          "mode": 4
        }
      ]
    },
    {
      "name": "stairs_rail_r",
      "primitives": [
        {
          "attributes": {
            "POSITION": 6
          },
          "indices": 7,
          "mode": 4
        }
      ]
    },
    {
      "name": "stairs_rail_mid",
      "primitives": [
        {
          "attributes": {
            "POSITION": 8
          },
          "indices": 9,
          "mode": 4
        }
      ]
    },
    {
      "name": "stairs_rail_cross",
      "primitives": [
        {
          "attributes": {
            "POSITION": 10
          },
          "indices": 11,
          "mode": 4
        }
      ]
    },
    {
      "name": "stairs_tread_1",
      "primitives": [
        {
          "attributes": {
            "POSITION": 12
          },
          "indices": 13,
          "mode": 4
        }
      ]
    },
    {
      "name": "stairs_tread_2",
      "primitives": [
        {
          "attributes": {
            "POSITION": 14
          },
          "indices": 15,
          "mode": 4
        }
      ]
    },
    {
      "name": "stairs_tread_3",
      "primitives": [
        {
          "attributes": {
            "POSITION": 16
          },
          "indices": 17,
          "mode": 4
        }
      ]
    },
    {
      "name": "stairs_tread_4",
      "primitives": [
        {
          "attributes": {
            "POSITION": 18
          },
          "indices": 19,
          "mode": 4
        }
      ]
    },
    {
      "name": "stairs_tread_5",
      "primitives": [
        {
          "attributes": {
            "POSITION": 20
          },
          "indices": 21,
          "mode": 4
        }
      ]
    },
    {
      "name": "stairs_tread_6",
      "primitives": [
        {
          "attributes": {
            "POSITION": 22
          },
          "indices": 23,
          "mode": 4
        }
      ]
    },
    {
      "name": "stairs_nosing_1",
      "primitives": [
        {
          "attributes": {
            "POSITION": 24
          },
          "indices": 25,
          "mode": 4
        }
      ]
    },
    {
      "name": "stairs_nosing_2",
      "primitives": [
        {
          "attributes": {
            "POSITION": 26
          },
          "indices": 27,
          "mode": 4
        }
      ]
    },
    {
      "name": "stairs_nosing_3",
      "primitives": [
        {
          "attributes": {
            "POSITION": 28
          },
          "indices": 29,
          "mode": 4
        }
      ]
    },
    {
      "name": "stairs_nosing_4",
      "primitives": [
        {
          "attributes": {
            "POSITION": 30
          },
          "indices": 31,
          "mode": 4
        }
      ]
    },
    {
      "name": "stairs_nosing_5",
      "primitives": [
        {
          "attributes": {
            "POSITION": 32
          },
          "indices": 33,
          "mode": 4
        }
      ]
    },
    {
      "name": "stairs_platform",
      "primitives": [
        {
          "attributes": {
            "POSITION": 34
          },
          "indices": 35,
          "mode": 4
        }
      ]
    },
    {
      "name": "stairs_side_panel_l",
      "primitives": [
        {
          "attributes": {
            "POSITION": 36
          },
          "indices": 37,
          "mode": 4
        }
      ]
    },
    {
      "name": "stairs_side_panel_r",
      "primitives": [
        {
          "attributes": {
            "POSITION": 38
          },
          "indices": 39,
          "mode": 4
        }
      ]
    },
    {
      "name": "stairs_post_1l",
      "primitives": [
        {
          "attributes": {
            "POSITION": 40
          },
          "indices": 41,
          "mode": 4
        }
      ]
    },
    {
      "name": "stairs_post_1r",
      "primitives": [
        {
          "attributes": {
            "POSITION": 42
          },
          "indices": 43,
          "mode": 4
        }
      ]
    },
    {
      "name": "stairs_post_2l",
      "primitives": [
        {
          "attributes": {
            "POSITION": 44
          },
          "indices": 45,
          "mode": 4
        }
      ]
    },
    {
      "name": "stairs_post_2r",
      "primitives": [
        {
          "attributes": {
            "POSITION": 46
          },
          "indices": 47,
          "mode": 4
        }
      ]
    },
    {
      "name": "stairs_post_3l",
      "primitives": [
        {
          "attributes": {
            "POSITION": 48
          },
          "indices": 49,
          "mode": 4
        }
      ]
    },
    {
      "name": "stairs_post_3r",
      "primitives": [
        {
          "attributes": {
            "POSITION": 50
          },
          "indices": 51,
          "mode": 4
        }
      ]
    },
    {
      "name": "stairs_handle",
      "primitives": [
        {
          "attributes": {
            "POSITION": 52
          },
          "indices": 53,
          "mode": 4
        }
      ]
    },
    {
      "name": "stairs_brace",
      "primitives": [
        {
          "attributes": {
            "POSITION": 54
          },
          "indices": 55,
          "mode": 4
        }
      ]
    },
    {
      "name": "stairs_wheel_l",
      "primitives": [
        {
          "attributes": {
            "POSITION": 56
          },
          "indices": 57,
          "mode": 4
        }
      ]
    },
    {
      "name": "stairs_wheel_r",
      "primitives": [
        {
          "attributes": {
            "POSITION": 58
          },
          "indices": 59,
          "mode": 4
        }
      ]
    },
    {
      "name": "stairs_wheel_rl",
      "primitives": [
        {
          "attributes": {
            "POSITION": 60
          },
          "indices": 61,
          "mode": 4
        }
      ]
    },
    {
      "name": "stairs_wheel_rr",
      "primitives": [
        {
          "attributes": {
            "POSITION": 62
          },
          "indices": 63,
          "mode": 4
        }
      ]
    },
    {
      "name": "stairs_hub_fl",
      "primitives": [
        {
          "attributes": {
            "POSITION": 64
          },
          "indices": 65,
          "mode": 4
        }
      ]
    },
    {
      "name": "stairs_hub_fr",
      "primitives": [
        {
          "attributes": {
            "POSITION": 66
          },
          "indices": 67,
          "mode": 4
        }
      ]
    },
    {
      "name": "stairs_hub_rl",
      "primitives": [
        {
          "attributes": {
            "POSITION": 68
          },
          "indices": 69,
          "mode": 4
        }
      ]
    },
    {
      "name": "stairs_hub_rr",
      "primitives": [
        {
          "attributes": {
            "POSITION": 70
          },
          "indices": 71,
          "mode": 4
        }
      ]
    },
    {
      "name": "chocks",
      "primitives": [
        {
          "attributes": {
            "POSITION": 72
          },
          "indices": 73,
          "mode": 4
        }
      ]
    },
    {
      "name": "chock_a",
      "primitives": [
        {
          "attributes": {
            "POSITION": 74
          },
          "indices": 75,
          "mode": 4
        }
      ]
    },
    {
      "name": "chock_b",
      "primitives": [
        {
          "attributes": {
            "POSITION": 76
          },
          "indices": 77,
          "mode": 4
        }
      ]
    },
    {
      "name": "chock_rope",
      "primitives": [
        {
          "attributes": {
            "POSITION": 78
          },
          "indices": 79,
          "mode": 4
        }
      ]
    },
    {
      "name": "chock_handle",
      "primitives": [
        {
          "attributes": {
            "POSITION": 80
          },
          "indices": 81,
          "mode": 4
        }
      ]
    },
    {
      "name": "gpu",
      "primitives": [
        {
          "attributes": {
            "POSITION": 82
          },
          "indices": 83,
          "mode": 4
        }
      ]
    },
    {
      "name": "gpu_body",
      "primitives": [
        {
          "attributes": {
            "POSITION": 84
          },
          "indices": 85,
          "mode": 4
        }
      ]
    },
    {
      "name": "gpu_cab",
      "primitives": [
        {
          "attributes": {
            "POSITION": 86
          },
          "indices": 87,
          "mode": 4
        }
      ]
    },
    {
      "name": "gpu_vent",
      "primitives": [
        {
          "attributes": {
            "POSITION": 88
          },
          "indices": 89,
          "mode": 4
        }
      ]
    },
    {
      "name": "gpu_panel",
      "primitives": [
        {
          "attributes": {
            "POSITION": 90
          },
          "indices": 91,
          "mode": 4
        }
      ]
    },
    {
      "name": "gpu_panel_b",
      "primitives": [
        {
          "attributes": {
            "POSITION": 92
          },
          "indices": 93,
          "mode": 4
        }
      ]
    },
    {
      "name": "gpu_grille",
      "primitives": [
        {
          "attributes": {
            "POSITION": 94
          },
          "indices": 95,
          "mode": 4
        }
      ]
    },
    {
      "name": "gpu_grille_2",
      "primitives": [
        {
          "attributes": {
            "POSITION": 96
          },
          "indices": 97,
          "mode": 4
        }
      ]
    },
    {
      "name": "gpu_slot_1",
      "primitives": [
        {
          "attributes": {
            "POSITION": 98
          },
          "indices": 99,
          "mode": 4
        }
      ]
    },
    {
      "name": "gpu_slot_2",
      "primitives": [
        {
          "attributes": {
            "POSITION": 100
          },
          "indices": 101,
          "mode": 4
        }
      ]
    },
    {
      "name": "gpu_cable",
      "primitives": [
        {
          "attributes": {
            "POSITION": 102
          },
          "indices": 103,
          "mode": 4
        }
      ]
    },
    {
      "name": "gpu_cable_reel",
      "primitives": [
        {
          "attributes": {
            "POSITION": 104
          },
          "indices": 105,
          "mode": 4
        }
      ]
    },
    {
      "name": "gpu_hitch",
      "primitives": [
        {
          "attributes": {
            "POSITION": 106
          },
          "indices": 107,
          "mode": 4
        }
      ]
    },
    {
      "name": "gpu_beacon",
      "primitives": [
        {
          "attributes": {
            "POSITION": 108
          },
          "indices": 109,
          "mode": 4
        }
      ]
    },
    {
      "name": "gpu_exhaust",
      "primitives": [
        {
          "attributes": {
            "POSITION": 110
          },
          "indices": 111,
          "mode": 4
        }
      ]
    },
    {
      "name": "gpu_light",
      "primitives": [
        {
          "attributes": {
            "POSITION": 112
          },
          "indices": 113,
          "mode": 4
        }
      ]
    },
    {
      "name": "gpu_stripe",
      "primitives": [
        {
          "attributes": {
            "POSITION": 114
          },
          "indices": 115,
          "mode": 4
        }
      ]
    },
    {
      "name": "gpu_handle",
      "primitives": [
        {
          "attributes": {
            "POSITION": 116
          },
          "indices": 117,
          "mode": 4
        }
      ]
    },
    {
      "name": "gpu_wheel_fl",
      "primitives": [
        {
          "attributes": {
            "POSITION": 118
          },
          "indices": 119,
          "mode": 4
        }
      ]
    },
    {
      "name": "gpu_wheel_fr",
      "primitives": [
        {
          "attributes": {
            "POSITION": 120
          },
          "indices": 121,
          "mode": 4
        }
      ]
    },
    {
      "name": "gpu_wheel_rl",
      "primitives": [
        {
          "attributes": {
            "POSITION": 122
          },
          "indices": 123,
          "mode": 4
        }
      ]
    },
    {
      "name": "gpu_wheel_rr",
      "primitives": [
        {
          "attributes": {
            "POSITION": 124
          },
          "indices": 125,
          "mode": 4
        }
      ]
    },
    {
      "name": "gpu_hub_fl",
      "primitives": [
        {
          "attributes": {
            "POSITION": 126
          },
          "indices": 127,
          "mode": 4
        }
      ]
    },
    {
      "name": "gpu_hub_fr",
      "primitives": [
        {
          "attributes": {
            "POSITION": 128
          },
          "indices": 129,
          "mode": 4
        }
      ]
    },
    {
      "name": "gpu_hub_rl",
      "primitives": [
        {
          "attributes": {
            "POSITION": 130
          },
          "indices": 131,
          "mode": 4
        }
      ]
    },
    {
      "name": "gpu_hub_rr",
      "primitives": [
        {
          "attributes": {
            "POSITION": 132
          },
          "indices": 133,
          "mode": 4
        }
      ]
    },
    {
      "name": "cone",
      "primitives": [
        {
          "attributes": {
            "POSITION": 134
          },
          "indices": 135,
          "mode": 4
        }
      ]
    },
    {
      "name": "cone_stripe",
      "primitives": [
        {
          "attributes": {
            "POSITION": 136
          },
          "indices": 137,
          "mode": 4
        }
      ]
    },
    {
      "name": "cone_base",
      "primitives": [
        {
          "attributes": {
            "POSITION": 138
          },
          "indices": 139,
          "mode": 4
        }
      ]
    },
    {
      "name": "cone_tip",
      "primitives": [
        {
          "attributes": {
            "POSITION": 140
          },
          "indices": 141,
          "mode": 4
        }
      ]
    },
    {
      "name": "towbar",
      "primitives": [
        {
          "attributes": {
            "POSITION": 142
          },
          "indices": 143,
          "mode": 4
        }
      ]
    },
    {
      "name": "towbar_head",
      "primitives": [
        {
          "attributes": {
            "POSITION": 144
          },
          "indices": 145,
          "mode": 4
        }
      ]
    },
    {
      "name": "towbar_wheel",
      "primitives": [
        {
          "attributes": {
            "POSITION": 146
          },
          "indices": 147,
          "mode": 4
        }
      ]
    },
    {
      "name": "towbar_handle",
      "primitives": [
        {
          "attributes": {
            "POSITION": 148
          },
          "indices": 149,
          "mode": 4
        }
      ]
    },
    {
      "name": "towbar_eye",
      "primitives": [
        {
          "attributes": {
            "POSITION": 150
          },
          "indices": 151,
          "mode": 4
        }
      ]
    },
    {
      "name": "bin",
      "primitives": [
        {
          "attributes": {
            "POSITION": 152
          },
          "indices": 153,
          "mode": 4
        }
      ]
    },
    {
      "name": "bin_lid",
      "primitives": [
        {
          "attributes": {
            "POSITION": 154
          },
          "indices": 155,
          "mode": 4
        }
      ]
    },
    {
      "name": "bin_handle",
      "primitives": [
        {
          "attributes": {
            "POSITION": 156
          },
          "indices": 157,
          "mode": 4
        }
      ]
    },
    {
      "name": "bin_stripe",
      "primitives": [
        {
          "attributes": {
            "POSITION": 158
          },
          "indices": 159,
          "mode": 4
        }
      ]
    },
    {
      "name": "belt_loader_chassis",
      "primitives": [
        {
          "attributes": {
            "POSITION": 160
          },
          "indices": 161,
          "mode": 4
        }
      ]
    },
    {
      "name": "belt_loader_cab",
      "primitives": [
        {
          "attributes": {
            "POSITION": 162
          },
          "indices": 163,
          "mode": 4
        }
      ]
    },
    {
      "name": "belt_loader_cab_glass",
      "primitives": [
        {
          "attributes": {
            "POSITION": 164
          },
          "indices": 165,
          "mode": 4
        }
      ]
    },
    {
      "name": "belt_loader_boom",
      "primitives": [
        {
          "attributes": {
            "POSITION": 166
          },
          "indices": 167,
          "mode": 4
        }
      ]
    },
    {
      "name": "belt_loader_belt",
      "primitives": [
        {
          "attributes": {
            "POSITION": 168
          },
          "indices": 169,
          "mode": 4
        }
      ]
    },
    {
      "name": "belt_loader_rail_l",
      "primitives": [
        {
          "attributes": {
            "POSITION": 170
          },
          "indices": 171,
          "mode": 4
        }
      ]
    },
    {
      "name": "belt_loader_rail_r",
      "primitives": [
        {
          "attributes": {
            "POSITION": 172
          },
          "indices": 173,
          "mode": 4
        }
      ]
    },
    {
      "name": "belt_loader_wheel_fl",
      "primitives": [
        {
          "attributes": {
            "POSITION": 174
          },
          "indices": 175,
          "mode": 4
        }
      ]
    },
    {
      "name": "belt_loader_wheel_fr",
      "primitives": [
        {
          "attributes": {
            "POSITION": 176
          },
          "indices": 177,
          "mode": 4
        }
      ]
    },
    {
      "name": "belt_loader_wheel_rl",
      "primitives": [
        {
          "attributes": {
            "POSITION": 178
          },
          "indices": 179,
          "mode": 4
        }
      ]
    },
    {
      "name": "belt_loader_wheel_rr",
      "primitives": [
        {
          "attributes": {
            "POSITION": 180
          },
          "indices": 181,
          "mode": 4
        }
      ]
    },
    {
      "name": "belt_loader_hub_fl",
      "primitives": [
        {
          "attributes": {
            "POSITION": 182
          },
          "indices": 183,
          "mode": 4
        }
      ]
    },
    {
      "name": "belt_loader_hub_fr",
      "primitives": [
        {
          "attributes": {
            "POSITION": 184
          },
          "indices": 185,
          "mode": 4
        }
      ]
    },
    {
      "name": "belt_loader_hitch",
      "primitives": [
        {
          "attributes": {
            "POSITION": 186
          },
          "indices": 187,
          "mode": 4
        }
      ]
    },
    {
      "name": "belt_loader_light",
      "primitives": [
        {
          "attributes": {
            "POSITION": 188
          },
          "indices": 189,
          "mode": 4
        }
      ]
    },
    {
      "name": "belt_loader_hinge",
      "primitives": [
        {
          "attributes": {
            "POSITION": 190
          },
          "indices": 191,
          "mode": 4
        }
      ]
    },
    {
      "name": "belt_loader_support",
      "primitives": [
        {
          "attributes": {
            "POSITION": 192
          },
          "indices": 193,
          "mode": 4
        }
      ]
    },
    {
      "name": "belt_loader_roller_1",
      "primitives": [
        {
          "attributes": {
            "POSITION": 194
          },
          "indices": 195,
          "mode": 4
        }
      ]
    },
    {
      "name": "belt_loader_roller_2",
      "primitives": [
        {
          "attributes": {
            "POSITION": 196
          },
          "indices": 197,
          "mode": 4
        }
      ]
    },
    {
      "name": "belt_loader_roller_3",
      "primitives": [
        {
          "attributes": {
            "POSITION": 198
          },
          "indices": 199,
          "mode": 4
        }
      ]
    },
    {
      "name": "belt_loader_roller_4",
      "primitives": [
        {
          "attributes": {
            "POSITION": 200
          },
          "indices": 201,
          "mode": 4
        }
      ]
    },
    {
      "name": "belt_loader_bumper",
      "primitives": [
        {
          "attributes": {
            "POSITION": 202
          },
          "indices": 203,
          "mode": 4
        }
      ]
    },
    {
      "name": "belt_loader_stripe",
      "primitives": [
        {
          "attributes": {
            "POSITION": 204
          },
          "indices": 205,
          "mode": 4
        }
      ]
    },
    {
      "name": "pushback_tug",
      "primitives": [
        {
          "attributes": {
            "POSITION": 206
          },
          "indices": 207,
          "mode": 4
        }
      ]
    },
    {
      "name": "barrier",
      "primitives": [
        {
          "attributes": {
            "POSITION": 208
          },
          "indices": 209,
          "mode": 4
        }
      ]
    },
    {
      "name": "windsock",
      "primitives": [
        {
          "attributes": {
            "POSITION": 210
          },
          "indices": 211,
          "mode": 4
        }
      ]
    }
  ],
  "nodes": [
    {
      "name": "stairs",
      "mesh": 0
    },
    {
      "name": "stairs_base",
      "mesh": 1
    },
    {
      "name": "stairs_rail_l",
      "mesh": 2
    },
    {
      "name": "stairs_rail_r",
      "mesh": 3
    },
    {
      "name": "stairs_rail_mid",
      "mesh": 4
    },
    {
      "name": "stairs_rail_cross",
      "mesh": 5
    },
    {
      "name": "stairs_tread_1",
      "mesh": 6
    },
    {
      "name": "stairs_tread_2",
      "mesh": 7
    },
    {
      "name": "stairs_tread_3",
      "mesh": 8
    },
    {
      "name": "stairs_tread_4",
      "mesh": 9
    },
    {
      "name": "stairs_tread_5",
      "mesh": 10
    },
    {
      "name": "stairs_tread_6",
      "mesh": 11
    },
    {
      "name": "stairs_nosing_1",
      "mesh": 12
    },
    {
      "name": "stairs_nosing_2",
      "mesh": 13
    },
    {
      "name": "stairs_nosing_3",
      "mesh": 14
    },
    {
      "name": "stairs_nosing_4",
      "mesh": 15
    },
    {
      "name": "stairs_nosing_5",
      "mesh": 16
    },
    {
      "name": "stairs_platform",
      "mesh": 17
    },
    {
      "name": "stairs_side_panel_l",
      "mesh": 18
    },
    {
      "name": "stairs_side_panel_r",
      "mesh": 19
    },
    {
      "name": "stairs_post_1l",
      "mesh": 20
    },
    {
      "name": "stairs_post_1r",
      "mesh": 21
    },
    {
      "name": "stairs_post_2l",
      "mesh": 22
    },
    {
      "name": "stairs_post_2r",
      "mesh": 23
    },
    {
      "name": "stairs_post_3l",
      "mesh": 24
    },
    {
      "name": "stairs_post_3r",
      "mesh": 25
    },
    {
      "name": "stairs_handle",
      "mesh": 26
    },
    {
      "name": "stairs_brace",
      "mesh": 27
    },
    {
      "name": "stairs_wheel_l",
      "mesh": 28
    },
    {
      "name": "stairs_wheel_r",
      "mesh": 29
    },
    {
      "name": "stairs_wheel_rl",
      "mesh": 30
    },
    {
      "name": "stairs_wheel_rr",
      "mesh": 31
    },
    {
      "name": "stairs_hub_fl",
      "mesh": 32
    },
    {
      "name": "stairs_hub_fr",
      "mesh": 33
    },
    {
      "name": "stairs_hub_rl",
      "mesh": 34
    },
    {
      "name": "stairs_hub_rr",
      "mesh": 35
    },
    {
      "name": "chocks",
      "mesh": 36
    },
    {
      "name": "chock_a",
      "mesh": 37
    },
    {
      "name": "chock_b",
      "mesh": 38
    },
    {
      "name": "chock_rope",
      "mesh": 39
    },
    {
      "name": "chock_handle",
      "mesh": 40
    },
    {
      "name": "gpu",
      "mesh": 41
    },
    {
      "name": "gpu_body",
      "mesh": 42
    },
    {
      "name": "gpu_cab",
      "mesh": 43
    },
    {
      "name": "gpu_vent",
      "mesh": 44
    },
    {
      "name": "gpu_panel",
      "mesh": 45
    },
    {
      "name": "gpu_panel_b",
      "mesh": 46
    },
    {
      "name": "gpu_grille",
      "mesh": 47
    },
    {
      "name": "gpu_grille_2",
      "mesh": 48
    },
    {
      "name": "gpu_slot_1",
      "mesh": 49
    },
    {
      "name": "gpu_slot_2",
      "mesh": 50
    },
    {
      "name": "gpu_cable",
      "mesh": 51
    },
    {
      "name": "gpu_cable_reel",
      "mesh": 52
    },
    {
      "name": "gpu_hitch",
      "mesh": 53
    },
    {
      "name": "gpu_beacon",
      "mesh": 54
    },
    {
      "name": "gpu_exhaust",
      "mesh": 55
    },
    {
      "name": "gpu_light",
      "mesh": 56
    },
    {
      "name": "gpu_stripe",
      "mesh": 57
    },
    {
      "name": "gpu_handle",
      "mesh": 58
    },
    {
      "name": "gpu_wheel_fl",
      "mesh": 59
    },
    {
      "name": "gpu_wheel_fr",
      "mesh": 60
    },
    {
      "name": "gpu_wheel_rl",
      "mesh": 61
    },
    {
      "name": "gpu_wheel_rr",
      "mesh": 62
    },
    {
      "name": "gpu_hub_fl",
      "mesh": 63
    },
    {
      "name": "gpu_hub_fr",
      "mesh": 64
    },
    {
      "name": "gpu_hub_rl",
      "mesh": 65
    },
    {
      "name": "gpu_hub_rr",
      "mesh": 66
    },
    {
      "name": "cone",
      "mesh": 67
    },
    {
      "name": "cone_stripe",
      "mesh": 68
    },
    {
      "name": "cone_base",
      "mesh": 69
    },
    {
      "name": "cone_tip",
      "mesh": 70
    },
    {
      "name": "towbar",
      "mesh": 71
    },
    {
      "name": "towbar_head",
      "mesh": 72
    },
    {
      "name": "towbar_wheel",
      "mesh": 73
    },
    {
      "name": "towbar_handle",
      "mesh": 74
    },
    {
      "name": "towbar_eye",
      "mesh": 75
    },
    {
      "name": "bin",
      "mesh": 76
    },
    {
      "name": "bin_lid",
      "mesh": 77
    },
    {
      "name": "bin_handle",
      "mesh": 78
    },
    {
      "name": "bin_stripe",
      "mesh": 79
    },
    {
      "name": "belt_loader_chassis",
      "mesh": 80
    },
    {
      "name": "belt_loader_cab",
      "mesh": 81
    },
    {
      "name": "belt_loader_cab_glass",
      "mesh": 82
    },
    {
      "name": "belt_loader_boom",
      "mesh": 83
    },
    {
      "name": "belt_loader_belt",
      "mesh": 84
    },
    {
      "name": "belt_loader_rail_l",
      "mesh": 85
    },
    {
      "name": "belt_loader_rail_r",
      "mesh": 86
    },
    {
      "name": "belt_loader_wheel_fl",
      "mesh": 87
    },
    {
      "name": "belt_loader_wheel_fr",
      "mesh": 88
    },
    {
      "name": "belt_loader_wheel_rl",
      "mesh": 89
    },
    {
      "name": "belt_loader_wheel_rr",
      "mesh": 90
    },
    {
      "name": "belt_loader_hub_fl",
      "mesh": 91
    },
    {
      "name": "belt_loader_hub_fr",
      "mesh": 92
    },
    {
      "name": "belt_loader_hitch",
      "mesh": 93
    },
    {
      "name": "belt_loader_light",
      "mesh": 94
    },
    {
      "name": "belt_loader_hinge",
      "mesh": 95
    },
    {
      "name": "belt_loader_support",
      "mesh": 96
    },
    {
      "name": "belt_loader_roller_1",
      "mesh": 97
    },
    {
      "name": "belt_loader_roller_2",
      "mesh": 98
    },
    {
      "name": "belt_loader_roller_3",
      "mesh": 99
    },
    {
      "name": "belt_loader_roller_4",
      "mesh": 100
    },
    {
      "name": "belt_loader_bumper",
      "mesh": 101
    },
    {
      "name": "belt_loader_stripe",
      "mesh": 102
    },
    {
      "name": "pushback_tug",
      "mesh": 103
    },
    {
      "name": "barrier",
      "mesh": 104
    },
    {
      "name": "windsock",
      "mesh": 105
    }
  ],
  "scenes": [
    {
      "name": "mdl_service_equipment_kit_v03",
      "nodes": [
        0,
        1,
        2,
        3,
        4,
        5,
        6,
        7,
        8,
        9,
        10,
        11,
        12,
        13,
        14,
        15,
        16,
        17,
        18,
        19,
        20,
        21,
        22,
        23,
        24,
        25,
        26,
        27,
        28,
        29,
        30,
        31,
        32,
        33,
        34,
        35,
        36,
        37,
        38,
        39,
        40,
        41,
        42,
        43,
        44,
        45,
        46,
        47,
        48,
        49,
        50,
        51,
        52,
        53,
        54,
        55,
        56,
        57,
        58,
        59,
        60,
        61,
        62,
        63,
        64,
        65,
        66,
        67,
        68,
        69,
        70,
        71,
        72,
        73,
        74,
        75,
        76,
        77,
        78,
        79,
        80,
        81,
        82,
        83,
        84,
        85,
        86,
        87,
        88,
        89,
        90,
        91,
        92,
        93,
        94,
        95,
        96,
        97,
        98,
        99,
        100,
        101,
        102,
        103,
        104,
        105
      ]
    }
  ],
  "scene": 0
}