{
  "asset": {
    "version": "2.0",
    "generator": "Airside Batch C procedural kit"
  },
  "buffers": [
    {
      "uri": "mdl_passenger_stairs_v02.bin",
      "byteLength": 41040
    }
  ],
  "bufferViews": [
    {
      "buffer": 0,
      "byteOffset": 0,
      "byteLength": 1440,
      "target": 34962
    },
    {
      "buffer": 0,
      "byteOffset": 1440,
      "byteLength": 360,
      "target": 34963
    },
    {
      "buffer": 0,
      "byteOffset": 1800,
      "byteLength": 576,
      "target": 34962
    },
    {
      "buffer": 0,
      "byteOffset": 2376,
      "byteLength": 144,
      "target": 34963
    },
    {
      "buffer": 0,
      "byteOffset": 2520,
      "byteLength": 2640,
      "target": 34962
    },
    {
      "buffer": 0,
      "byteOffset": 5160,
      "byteLength": 528,
      "target": 34963
    },
    {
      "buffer": 0,
      "byteOffset": 5688,
      "byteLength": 2640,
      "target": 34962
    },
    {
      "buffer": 0,
      "byteOffset": 8328,
      "byteLength": 528,
      "target": 34963
    },
    {
      "buffer": 0,
      "byteOffset": 8856,
      "byteLength": 1200,
      "target": 34962
    },
    {
      "buffer": 0,
      "byteOffset": 10056,
      "byteLength": 240,
      "target": 34963
    },
    {
      "buffer": 0,
      "byteOffset": 10296,
      "byteLength": 1200,
      "target": 34962
    },
    {
      "buffer": 0,
      "byteOffset": 11496,
      "byteLength": 240,
      "target": 34963
    },
    {
      "buffer": 0,
      "byteOffset": 11736,
      "byteLength": 288,
      "target": 34962
    },
    {
      "buffer": 0,
      "byteOffset": 12024,
      "byteLength": 72,
      "target": 34963
    },
    {
      "buffer": 0,
      "byteOffset": 12096,
      "byteLength": 288,
      "target": 34962
    },
    {
      "buffer": 0,
      "byteOffset": 12384,
      "byteLength": 72,
      "target": 34963
    },
    {
      "buffer": 0,
      "byteOffset": 12456,
      "byteLength": 288,
      "target": 34962
    },
    {
      "buffer": 0,
      "byteOffset": 12744,
      "byteLength": 72,
      "target": 34963
    },
    {
      "buffer": 0,
      "byteOffset": 12816,
      "byteLength": 288,
      "target": 34962
    },
    {
      "buffer": 0,
      "byteOffset": 13104,
      "byteLength": 72,
      "target": 34963
    },
    {
      "buffer": 0,
      "byteOffset": 13176,
      "byteLength": 288,
      "target": 34962
    },
    {
      "buffer": 0,
      "byteOffset": 13464,
      "byteLength": 72,
      "target": 34963
    },
    {
      "buffer": 0,
      "byteOffset": 13536,
      "byteLength": 288,
      "target": 34962
    },
    {
      "buffer": 0,
      "byteOffset": 13824,
      "byteLength": 72,
      "target": 34963
    },
    {
      "buffer": 0,
      "byteOffset": 13896,
      "byteLength": 288,
      "target": 34962
    },
    {
      "buffer": 0,
      "byteOffset": 14184,
      "byteLength": 72,
      "target": 34963
    },
    {
      "buffer": 0,
      "byteOffset": 14256,
      "byteLength": 288,
      "target": 34962
    },
    {
      "buffer": 0,
      "byteOffset": 14544,
      "byteLength": 72,
      "target": 34963
    },
    {
      "buffer": 0,
      "byteOffset": 14616,
      "byteLength": 288,
      "target": 34962
    },
    {
      "buffer": 0,
      "byteOffset": 14904,
      "byteLength": 72,
      "target": 34963
    },
    {
      "buffer": 0,
      "byteOffset": 14976,
      "byteLength": 288,
      "target": 34962
    },
    {
      "buffer": 0,
      "byteOffset": 15264,
      "byteLength": 72,
      "target": 34963
    },
    {
      "buffer": 0,
      "byteOffset": 15336,
      "byteLength": 288,
      "target": 34962
    },
    {
      "buffer": 0,
      "byteOffset": 15624,
      "byteLength": 72,
      "target": 34963
    },
    {
      "buffer": 0,
      "byteOffset": 15696,
      "byteLength": 576,
      "target": 34962
    },
    {
      "buffer": 0,
      "byteOffset": 16272,
      "byteLength": 144,
      "target": 34963
    },
    {
      "buffer": 0,
      "byteOffset": 16416,
      "byteLength": 288,
      "target": 34962
    },
    {
      "buffer": 0,
      "byteOffset": 16704,
      "byteLength": 72,
      "target": 34963
    },
    {
      "buffer": 0,
      "byteOffset": 16776,
      "byteLength": 288,
      "target": 34962
    },
    {
      "buffer": 0,
      "byteOffset": 17064,
      "byteLength": 72,
      "target": 34963
    },
    {
      "buffer": 0,
      "byteOffset": 17136,
      "byteLength": 1200,
      "target": 34962
    },
    {
      "buffer": 0,
      "byteOffset": 18336,
      "byteLength": 240,
      "target": 34963
    },
    {
      "buffer": 0,
      "byteOffset": 18576,
      "byteLength": 1200,
      "target": 34962
    },
    {
      "buffer": 0,
      "byteOffset": 19776,
      "byteLength": 240,
      "target": 34963
    },
    {
      "buffer": 0,
      "byteOffset": 20016,
      "byteLength": 1200,
      "target": 34962
    },
    {
      "buffer": 0,
      "byteOffset": 21216,
      "byteLength": 240,
      "target": 34963
    },
    {
      "buffer": 0,
      "byteOffset": 21456,
      "byteLength": 1200,
      "target": 34962
    },
    {
      "buffer": 0,
      "byteOffset": 22656,
      "byteLength": 240,
      "target": 34963
    },
    {
      "buffer": 0,
      "byteOffset": 22896,
      "byteLength": 1200,
      "target": 34962
    },
    {
      "buffer": 0,
      "byteOffset": 24096,
      "byteLength": 240,
      "target": 34963
    },
    {
      "buffer": 0,
      "byteOffset": 24336,
      "byteLength": 1200,
      "target": 34962
    },
    {
      "buffer": 0,
      "byteOffset": 25536,
      "byteLength": 240,
      "target": 34963
    },
    {
      "buffer": 0,
      "byteOffset": 25776,
      "byteLength": 864,
      "target": 34962
    },
    {
      "buffer": 0,
      "byteOffset": 26640,
      "byteLength": 216,
      "target": 34963
    },
    {
      "buffer": 0,
      "byteOffset": 26856,
      "byteLength": 288,
      "target": 34962
    },
    {
      "buffer": 0,
      "byteOffset": 27144,
      "byteLength": 72,
      "target": 34963
    },
    {
      "buffer": 0,
      "byteOffset": 27216,
      "byteLength": 1680,
      "target": 34962
    },
    {
      "buffer": 0,
      "byteOffset": 28896,
      "byteLength": 336,
      "target": 34963
    },
    {
      "buffer": 0,
      "byteOffset": 29232,
      "byteLength": 1680,
      "target": 34962
    },
    {
      "buffer": 0,
      "byteOffset": 30912,
      "byteLength": 336,
      "target": 34963
    },
    {
      "buffer": 0,
      "byteOffset": 31248,
      "byteLength": 1680,
      "target": 34962
    },
    {
      "buffer": 0,
      "byteOffset": 32928,
      "byteLength": 336,
      "target": 34963
    },
    {
      "buffer": 0,
      "byteOffset": 33264,
      "byteLength": 1680,
      "target": 34962
    },
    {
      "buffer": 0,
      "byteOffset": 34944,
      "byteLength": 336,
      "target": 34963
    },
    {
      "buffer": 0,
      "byteOffset": 35280,
      "byteLength": 1200,
      "target": 34962
    },
    {
      "buffer": 0,
      "byteOffset": 36480,
      "byteLength": 240,
      "target": 34963
    },
    {
      "buffer": 0,
      "byteOffset": 36720,
      "byteLength": 1200,
      "target": 34962
    },
    {
      "buffer": 0,
      "byteOffset": 37920,
      "byteLength": 240,
      "target": 34963
    },
    {
      "buffer": 0,
      "byteOffset": 38160,
      "byteLength": 1200,
      "target": 34962
    },
    {
      "buffer": 0,
      "byteOffset": 39360,
      "byteLength": 240,
      "target": 34963
    },
    {
      "buffer": 0,
      "byteOffset": 39600,
      "byteLength": 1200,
      "target": 34962
    },
    {
      "buffer": 0,
      "byteOffset": 40800,
      "byteLength": 240,
      "target": 34963
    }
  ],
  "accessors": [
    {
      "bufferView": 0,
      "componentType": 5126,
      "count": 120,
      "type": "VEC3",
      "max": [
        0.7400000095367432,
        2.9000000953674316,
        2.0999999046325684
      ],
      "min": [
        -0.7400000095367432,
        0.009999999776482582,
        -2.049999952316284
      ]
    },
    {
      "bufferView": 1,
      "componentType": 5123,
      "count": 180,
      "type": "SCALAR"
    },
    {
      "bufferView": 2,
      "componentType": 5126,
      "count": 48,
      "type": "VEC3",
      "max": [
        0.75,
        0.3400000035762787,
        2.049999952316284
      ],
      "min": [
        -0.75,
        0.019999999552965164,
        -2.0250000953674316
      ]
    },
    {
      "bufferView": 3,
      "componentType": 5123,
      "count": 72,
      "type": "SCALAR"
    },
    {
      "bufferView": 4,
      "componentType": 5126,
      "count": 220,
      "type": "VEC3",
      "max": [
        -0.6819999814033508,
        1.5880000591278076,
        1.899999976158142
      ],
      "min": [
        -0.7580000162124634,
        1.1233704090118408,
        -1.7999999523162842
      ]
    },
    {
      "bufferView": 5,
      "componentType": 5123,
      "count": 264,
      "type": "SCALAR"
    },
    {
      "bufferView": 6,
      "componentType": 5126,
      "count": 220,
      "type": "VEC3",
      "max": [
        0.7580000162124634,
        1.5880000591278076,
        1.899999976158142
      ],
      "min": [
        0.6819999814033508,
        1.1233704090118408,
        -1.7999999523162842
      ]
    },
    {
      "bufferView": 7,
      "componentType": 5123,
      "count": 264,
      "type": "SCALAR"
    },
    {
      "bufferView": 8,
      "componentType": 5126,
      "count": 100,
      "type": "VEC3",
      "max": [
        0.6750000715255737,
        1.8785316944122314,
        1.5800000429153442
      ],
      "min": [
        -0.6750000715255737,
        1.8214683532714844,
        1.5199999809265137
      ]
    },
    {
      "bufferView": 9,
      "componentType": 5123,
      "count": 120,
      "type": "SCALAR"
    },
    {
      "bufferView": 10,
      "componentType": 5126,
      "count": 100,
      "type": "VEC3",
      "max": [
        0.6750000715255737,
        1.3737764358520508,
        0.574999988079071
      ],
      "min": [
        -0.6750000715255737,
        1.326223611831665,
        0.5249999761581421
      ]
    },
    {
      "bufferView": 11,
      "componentType": 5123,
      "count": 120,
      "type": "SCALAR"
    },
    {
      "bufferView": 12,
      "componentType": 5126,
      "count": 24,
      "type": "VEC3",
      "max": [
        0.6399999856948853,
        0.45500001311302185,
        -1.2899999618530273
      ],
      "min": [
        -0.6399999856948853,
        0.38499999046325684,
        -1.6100000143051147
      ]
    },
    {
      "bufferView": 13,
      "componentType": 5123,
      "count": 36,
      "type": "SCALAR"
    },
    {
      "bufferView": 14,
      "componentType": 5126,
      "count": 24,
      "type": "VEC3",
      "max": [
        0.6399999856948853,
        0.8149999976158142,
        -0.6899999976158142
      ],
      "min": [
        -0.6399999856948853,
        0.7450000047683716,
        -1.0099999904632568
      ]
    },
    {
      "bufferView": 15,
      "componentType": 5123,
      "count": 36,
      "type": "SCALAR"
    },
    {
      "bufferView": 16,
      "componentType": 5126,
      "count": 24,
      "type": "VEC3",
      "max": [
        0.6399999856948853,
        1.1749999523162842,
        -0.09000000357627869
      ],
      "min": [
        -0.6399999856948853,
        1.1050000190734863,
        -0.4099999964237213
      ]
    },
    {
      "bufferView": 17,
      "componentType": 5123,
      "count": 36,
      "type": "SCALAR"
    },
    {
      "bufferView": 18,
      "componentType": 5126,
      "count": 24,
      "type": "VEC3",
      "max": [
        0.6399999856948853,
        1.534999966621399,
        0.5099999904632568
      ],
      "min": [
        -0.6399999856948853,
        1.465000033378601,
        0.1899999976158142
      ]
    },
    {
      "bufferView": 19,
      "componentType": 5123,
      "count": 36,
      "type": "SCALAR"
    },
    {
      "bufferView": 20,
      "componentType": 5126,
      "count": 24,
      "type": "VEC3",
      "max": [
        0.6399999856948853,
        1.8949999809265137,
        1.1100000143051147
      ],
      "min": [
        -0.6399999856948853,
        1.8250000476837158,
        0.7900000214576721
      ]
    },
    {
      "bufferView": 21,
      "componentType": 5123,
      "count": 36,
      "type": "SCALAR"
    },
    {
      "bufferView": 22,
      "componentType": 5126,
      "count": 24,
      "type": "VEC3",
      "max": [
        0.6399999856948853,
        2.255000114440918,
        1.600000023841858
      ],
      "min": [
        -0.6399999856948853,
        2.184999942779541,
        1.2999999523162842
      ]
    },
    {
      "bufferView": 23,
      "componentType": 5123,
      "count": 36,
      "type": "SCALAR"
    },
    {
      "bufferView": 24,
      "componentType": 5126,
      "count": 24,
      "type": "VEC3",
      "max": [
        0.6499999761581421,
        0.48750001192092896,
        -1.2649999856948853
      ],
      "min": [
        -0.6499999761581421,
        0.45249998569488525,
        -1.3350000381469727
      ]
    },
    {
      "bufferView": 25,
      "componentType": 5123,
      "count": 36,
      "type": "SCALAR"
    },
    {
      "bufferView": 26,
      "componentType": 5126,
      "count": 24,
      "type": "VEC3",
      "max": [
        0.6499999761581421,
        0.8475000262260437,
        -0.6650000214576721
      ],
      "min": [
        -0.6499999761581421,
        0.8125,
        -0.7350000143051147
      ]
    },
    {
      "bufferView": 27,
      "componentType": 5123,
      "count": 36,
      "type": "SCALAR"
    },
    {
      "bufferView": 28,
      "componentType": 5126,
      "count": 24,
      "type": "VEC3",
      "max": [
        0.6499999761581421,
        1.2074999809265137,
        -0.06499999761581421
      ],
      "min": [
        -0.6499999761581421,
        1.1725000143051147,
        -0.13500000536441803
      ]
    },
    {
      "bufferView": 29,
      "componentType": 5123,
      "count": 36,
      "type": "SCALAR"
    },
    {
      "bufferView": 30,
      "componentType": 5126,
      "count": 24,
      "type": "VEC3",
      "max": [
        0.6499999761581421,
        1.5674999952316284,
        0.5350000262260437
      ],
      "min": [
        -0.6499999761581421,
        1.5325000286102295,
        0.4650000035762787
      ]
    },
    {
      "bufferView": 31,
      "componentType": 5123,
      "count": 36,
      "type": "SCALAR"
    },
    {
      "bufferView": 32,
      "componentType": 5126,
      "count": 24,
      "type": "VEC3",
      "max": [
        0.6499999761581421,
        1.9275000095367432,
        1.1349999904632568
      ],
      "min": [
        -0.6499999761581421,
        1.8925000429153442,
        1.065000057220459
      ]
    },
    {
      "bufferView": 33,
      "componentType": 5123,
      "count": 36,
      "type": "SCALAR"
    },
    {
      "bufferView": 34,
      "componentType": 5126,
      "count": 48,
      "type": "VEC3",
      "max": [
        0.699999988079071,
        2.640000104904175,
        2.3499999046325684
      ],
      "min": [
        -0.699999988079071,
        2.5,
        1.350000023841858
      ]
    },
    {
      "bufferView": 35,
      "componentType": 5123,
      "count": 72,
      "type": "SCALAR"
    },
    {
      "bufferView": 36,
      "componentType": 5126,
      "count": 24,
      "type": "VEC3",
      "max": [
        -0.75,
        2.5999999046325684,
        1.899999976158142
      ],
      "min": [
        -0.8100000023841858,
        0.20000000298023224,
        -1.7000000476837158
      ]
    },
    {
      "bufferView": 37,
      "componentType": 5123,
      "count": 36,
      "type": "SCALAR"
    },
    {
      "bufferView": 38,
      "componentType": 5126,
      "count": 24,
      "type": "VEC3",
      "max": [
        0.8100000023841858,
        2.5999999046325684,
        1.899999976158142
      ],
      "min": [
        0.75,
        0.20000000298023224,
        -1.7000000476837158
      ]
    },
    {
      "bufferView": 39,
      "componentType": 5123,
      "count": 36,
      "type": "SCALAR"
    },
    {
      "bufferView": 40,
      "componentType": 5126,
      "count": 100,
      "type": "VEC3",
      "max": [
        -0.6899999976158142,
        1.2250001430511475,
        -1.1714682579040527
      ],
      "min": [
        -0.75,
        0.2750000059604645,
        -1.2285317182540894
      ]
    },
    {
      "bufferView": 41,
      "componentType": 5123,
      "count": 120,
      "type": "SCALAR"
    },
    {
      "bufferView": 42,
      "componentType": 5126,
      "count": 100,
      "type": "VEC3",
      "max": [
        0.75,
        1.2250001430511475,
        -1.1714682579040527
      ],
      "min": [
        0.6899999976158142,
        0.2750000059604645,
        -1.2285317182540894
      ]
    },
    {
      "bufferView": 43,
      "componentType": 5123,
      "count": 120,
      "type": "SCALAR"
    },
    {
      "bufferView": 44,
      "componentType": 5126,
      "count": 100,
      "type": "VEC3",
      "max": [
        -0.6899999976158142,
        1.8250000476837158,
        0.12853169441223145
      ],
      "min": [
        -0.75,
        0.875,
        0.0714683011174202
      ]
    },
    {
      "bufferView": 45,
      "componentType": 5123,
      "count": 120,
      "type": "SCALAR"
    },
    {
      "bufferView": 46,
      "componentType": 5126,
      "count": 100,
      "type": "VEC3",
      "max": [
        0.75,
        1.8250000476837158,
        0.12853169441223145
      ],
      "min": [
        0.6899999976158142,
        0.875,
        0.0714683011174202
      ]
    },
    {
      "bufferView": 47,
      "componentType": 5123,
      "count": 120,
      "type": "SCALAR"
    },
    {
      "bufferView": 48,
      "componentType": 5126,
      "count": 100,
      "type": "VEC3",
      "max": [
        -0.6899999976158142,
        2.424999952316284,
        1.3285317420959473
      ],
      "min": [
        -0.75,
        1.475000023841858,
        1.2714682817459106
      ]
    },
    {
      "bufferView": 49,
      "componentType": 5123,
      "count": 120,
      "type": "SCALAR"
    },
    {
      "bufferView": 50,
      "componentType": 5126,
      "count": 100,
      "type": "VEC3",
      "max": [
        0.75,
        2.424999952316284,
        1.3285317420959473
      ],
      "min": [
        0.6899999976158142,
        1.475000023841858,
        1.2714682817459106
      ]
    },
    {
      "bufferView": 51,
      "componentType": 5123,
      "count": 120,
      "type": "SCALAR"
    },
    {
      "bufferView": 52,
      "componentType": 5126,
      "count": 72,
      "type": "VEC3",
      "max": [
        0.7250000238418579,
        3.0799999237060547,
        2.2750000953674316
      ],
      "min": [
        -0.7250000238418579,
        2.575000047683716,
        0.824999988079071
      ]
    },
    {
      "bufferView": 53,
      "componentType": 5123,
      "count": 108,
      "type": "SCALAR"
    },
    {
      "bufferView": 54,
      "componentType": 5126,
      "count": 24,
      "type": "VEC3",
      "max": [
        0.675000011920929,
        0.5899999737739563,
        0.23999999463558197
      ],
      "min": [
        -0.675000011920929,
        0.5099999904632568,
        0.1599999964237213
      ]
    },
    {
      "bufferView": 55,
      "componentType": 5123,
      "count": 36,
      "type": "SCALAR"
    },
    {
      "bufferView": 56,
      "componentType": 5126,
      "count": 140,
      "type": "VEC3",
      "max": [
        -0.5600000023841858,
        0.33598846197128296,
        -1.3899999856948853
      ],
      "min": [
        -0.6800000071525574,
        0.024011533707380295,
        -1.7100000381469727
      ]
    },
    {
      "bufferView": 57,
      "componentType": 5123,
      "count": 168,
      "type": "SCALAR"
    },
    {
      "bufferView": 58,
      "componentType": 5126,
      "count": 140,
      "type": "VEC3",
      "max": [
        0.6800000071525574,
        0.33598846197128296,
        -1.3899999856948853
      ],
      "min": [
        0.5600000023841858,
        0.024011533707380295,
        -1.7100000381469727
      ]
    },
    {
      "bufferView": 59,
      "componentType": 5123,
      "count": 168,
      "type": "SCALAR"
    },
    {
      "bufferView": 60,
      "componentType": 5126,
      "count": 140,
      "type": "VEC3",
      "max": [
        -0.5600000023841858,
        0.33598846197128296,
        1.7100000381469727
      ],
      "min": [
        -0.6800000071525574,
        0.024011533707380295,
        1.3899999856948853
      ]
    },
    {
      "bufferView": 61,
      "componentType": 5123,
      "count": 168,
      "type": "SCALAR"
    },
    {
      "bufferView": 62,
      "componentType": 5126,
      "count": 140,
      "type": "VEC3",
      "max": [
        0.6800000071525574,
        0.33598846197128296,
        1.7100000381469727
      ],
      "min": [
        0.5600000023841858,
        0.024011533707380295,
        1.3899999856948853
      ]
    },
    {
      "bufferView": 63,
      "componentType": 5123,
      "count": 168,
      "type": "SCALAR"
    },
    {
      "bufferView": 64,
      "componentType": 5126,
      "count": 100,
      "type": "VEC3",
      "max": [
        -0.550000011920929,
        0.23706339299678802,
        -1.4900000095367432
      ],
      "min": [
        -0.6899999976158142,
        0.12293660640716553,
        -1.6100000143051147
      ]
    },
    {
      "bufferView": 65,
      "componentType": 5123,
      "count": 120,
      "type": "SCALAR"
    },
    {
      "bufferView": 66,
      "componentType": 5126,
      "count": 100,
      "type": "VEC3",
      "max": [
        0.6899999976158142,
        0.23706339299678802,
        -1.4900000095367432
      ],
      "min": [
        0.550000011920929,
        0.12293660640716553,
        -1.6100000143051147
      ]
    },
    {
      "bufferView": 67,
      "componentType": 5123,
      "count": 120,
      "type": "SCALAR"
    },
    {
      "bufferView": 68,
      "componentType": 5126,
      "count": 100,
      "type": "VEC3",
      "max": [
        -0.550000011920929,
        0.23706339299678802,
        1.6100000143051147
      ],
      "min": [
        -0.6899999976158142,
        0.12293660640716553,
        1.4900000095367432
      ]
    },
    {
      "bufferView": 69,
      "componentType": 5123,
      "count": 120,
      "type": "SCALAR"
    },
    {
      "bufferView": 70,
      "componentType": 5126,
      "count": 100,
      "type": "VEC3",
      "max": [
        0.6899999976158142,
        0.23706339299678802,
        1.6100000143051147
      ],
      "min": [
        0.550000011920929,
        0.12293660640716553,
        1.4900000095367432
      ]
    },
    {
      "bufferView": 71,
      "componentType": 5123,
      "count": 120,
      "type": "SCALAR"
    }
  ],
  "meshes": [
    {
      "name": "stairs",
      "primitives": [
        {
          "attributes": {
            "POSITION": 0
          },
          "indices": 1,
          "mode": 4
        }
      ]
    },
    {
      "name": "stairs_base",
      "primitives": [
        {
          "attributes": {
            "POSITION": 2
          },
          "indices": 3,
          "mode": 4
        }
      ]
    },
    {
      "name": "stairs_rail_l",
      "primitives": [
        {
          "attributes": {
            "POSITION": 4
          },
          "indices": 5,
          "mode": 4
        }
      ]
    },
    {
      "name": "stairs_rail_r",
      "primitives": [
        {
          "attributes": {
            "POSITION": 6
          },
          "indices": 7,
          "mode": 4
        }
      ]
    },
    {
      "name": "stairs_rail_mid",
      "primitives": [
        {
          "attributes": {
            "POSITION": 8
          },
          "indices": 9,
          "mode": 4
        }
      ]
    },
    {
      "name": "stairs_rail_cross",
      "primitives": [
        {
          "attributes": {
            "POSITION": 10
          },
          "indices": 11,
          "mode": 4
        }
      ]
    },
    {
      "name": "stairs_tread_1",
      "primitives": [
        {
          "attributes": {
            "POSITION": 12
          },
          "indices": 13,
          "mode": 4
        }
      ]
    },
    {
      "name": "stairs_tread_2",
      "primitives": [
        {
          "attributes": {
            "POSITION": 14
          },
          "indices": 15,
          "mode": 4
        }
      ]
    },
    {
      "name": "stairs_tread_3",
      "primitives": [
        {
          "attributes": {
            "POSITION": 16
          },
          "indices": 17,
          "mode": 4
        }
      ]
    },
    {
      "name": "stairs_tread_4",
      "primitives": [
        {
          "attributes": {
            "POSITION": 18
          },
          "indices": 19,
          "mode": 4
        }
      ]
    },
    {
      "name": "stairs_tread_5",
      "primitives": [
        {
          "attributes": {
            "POSITION": 20
          },
          "indices": 21,
          "mode": 4
        }
      ]
    },
    {
      "name": "stairs_tread_6",
      "primitives": [
        {
          "attributes": {
            "POSITION": 22
          },
          "indices": 23,
          "mode": 4
        }
      ]
    },
    {
      "name": "stairs_nosing_1",
      "primitives": [
        {
          "attributes": {
            "POSITION": 24
          },
          "indices": 25,
          "mode": 4
        }
      ]
    },
    {
      "name": "stairs_nosing_2",
      "primitives": [
        {
          "attributes": {
            "POSITION": 26
          },
          "indices": 27,
          "mode": 4
        }
      ]
    },
    {
      "name": "stairs_nosing_3",
      "primitives": [
        {
          "attributes": {
            "POSITION": 28
          },
          "indices": 29,
          "mode": 4
        }
      ]
    },
    {
      "name": "stairs_nosing_4",
      "primitives": [
        {
          "attributes": {
            "POSITION": 30
          },
          "indices": 31,
          "mode": 4
        }
      ]
    },
    {
      "name": "stairs_nosing_5",
      "primitives": [
        {
          "attributes": {
            "POSITION": 32
          },
          "indices": 33,
          "mode": 4
        }
      ]
    },
    {
      "name": "stairs_platform",
      "primitives": [
        {
          "attributes": {
            "POSITION": 34
          },
          "indices": 35,
          "mode": 4
        }
      ]
    },
    {
      "name": "stairs_side_panel_l",
      "primitives": [
        {
          "attributes": {
            "POSITION": 36
          },
          "indices": 37,
          "mode": 4
        }
      ]
    },
    {
      "name": "stairs_side_panel_r",
      "primitives": [
        {
          "attributes": {
            "POSITION": 38
          },
          "indices": 39,
          "mode": 4
        }
      ]
    },
    {
      "name": "stairs_post_1l",
      "primitives": [
        {
          "attributes": {
            "POSITION": 40
          },
          "indices": 41,
          "mode": 4
        }
      ]
    },
    {
      "name": "stairs_post_1r",
      "primitives": [
        {
          "attributes": {
            "POSITION": 42
          },
          "indices": 43,
          "mode": 4
        }
      ]
    },
    {
      "name": "stairs_post_2l",
      "primitives": [
        {
          "attributes": {
            "POSITION": 44
          },
          "indices": 45,
          "mode": 4
        }
      ]
    },
    {
      "name": "stairs_post_2r",
      "primitives": [
        {
          "attributes": {
            "POSITION": 46
          },
          "indices": 47,
          "mode": 4
        }
      ]
    },
    {
      "name": "stairs_post_3l",
      "primitives": [
        {
          "attributes": {
            "POSITION": 48
          },
          "indices": 49,
          "mode": 4
        }
      ]
    },
    {
      "name": "stairs_post_3r",
      "primitives": [
        {
          "attributes": {
            "POSITION": 50
          },
          "indices": 51,
          "mode": 4
        }
      ]
    },
    {
      "name": "stairs_handle",
      "primitives": [
        {
          "attributes": {
            "POSITION": 52
          },
          "indices": 53,
          "mode": 4
        }
      ]
    },
    {
      "name": "stairs_brace",
      "primitives": [
        {
          "attributes": {
            "POSITION": 54
          },
          "indices": 55,
          "mode": 4
        }
      ]
    },
    {
      "name": "stairs_wheel_l",
      "primitives": [
        {
          "attributes": {
            "POSITION": 56
          },
          "indices": 57,
          "mode": 4
        }
      ]
    },
    {
      "name": "stairs_wheel_r",
      "primitives": [
        {
          "attributes": {
            "POSITION": 58
          },
          "indices": 59,
          "mode": 4
        }
      ]
    },
    {
      "name": "stairs_wheel_rl",
      "primitives": [
        {
          "attributes": {
            "POSITION": 60
          },
          "indices": 61,
          "mode": 4
        }
      ]
    },
    {
      "name": "stairs_wheel_rr",
      "primitives": [
        {
          "attributes": {
            "POSITION": 62
          },
          "indices": 63,
          "mode": 4
        }
      ]
    },
    {
      "name": "stairs_hub_fl",
      "primitives": [
        {
          "attributes": {
            "POSITION": 64
          },
          "indices": 65,
          "mode": 4
        }
      ]
    },
    {
      "name": "stairs_hub_fr",
      "primitives": [
        {
          "attributes": {
            "POSITION": 66
          },
          "indices": 67,
          "mode": 4
        }
      ]
    },
    {
      "name": "stairs_hub_rl",
      "primitives": [
        {
          "attributes": {
            "POSITION": 68
          },
          "indices": 69,
          "mode": 4
        }
      ]
    },
    {
      "name": "stairs_hub_rr",
      "primitives": [
        {
          "attributes": {
            "POSITION": 70
          },
          "indices": 71,
          "mode": 4
        }
      ]
    }
  ],
  "nodes": [
    {
      "name": "stairs",
      "mesh": 0
    },
    {
      "name": "stairs_base",
      "mesh": 1
    },
    {
      "name": "stairs_rail_l",
      "mesh": 2
    },
    {
      "name": "stairs_rail_r",
      "mesh": 3
    },
    {
      "name": "stairs_rail_mid",
      "mesh": 4
    },
    {
      "name": "stairs_rail_cross",
      "mesh": 5
    },
    {
      "name": "stairs_tread_1",
      "mesh": 6
    },
    {
      "name": "stairs_tread_2",
      "mesh": 7
    },
    {
      "name": "stairs_tread_3",
      "mesh": 8
    },
    {
      "name": "stairs_tread_4",
      "mesh": 9
    },
    {
      "name": "stairs_tread_5",
      "mesh": 10
    },
    {
      "name": "stairs_tread_6",
      "mesh": 11
    },
    {
      "name": "stairs_nosing_1",
      "mesh": 12
    },
    {
      "name": "stairs_nosing_2",
      "mesh": 13
    },
    {
      "name": "stairs_nosing_3",
      "mesh": 14
    },
    {
      "name": "stairs_nosing_4",
      "mesh": 15
    },
    {
      "name": "stairs_nosing_5",
      "mesh": 16
    },
    {
      "name": "stairs_platform",
      "mesh": 17
    },
    {
      "name": "stairs_side_panel_l",
      "mesh": 18
    },
    {
      "name": "stairs_side_panel_r",
      "mesh": 19
    },
    {
      "name": "stairs_post_1l",
      "mesh": 20
    },
    {
      "name": "stairs_post_1r",
      "mesh": 21
    },
    {
      "name": "stairs_post_2l",
      "mesh": 22
    },
    {
      "name": "stairs_post_2r",
      "mesh": 23
    },
    {
      "name": "stairs_post_3l",
      "mesh": 24
    },
    {
      "name": "stairs_post_3r",
      "mesh": 25
    },
    {
      "name": "stairs_handle",
      "mesh": 26
    },
    {
      "name": "stairs_brace",
      "mesh": 27
    },
    {
      "name": "stairs_wheel_l",
      "mesh": 28
    },
    {
      "name": "stairs_wheel_r",
      "mesh": 29
    },
    {
      "name": "stairs_wheel_rl",
      "mesh": 30
    },
    {
      "name": "stairs_wheel_rr",
      "mesh": 31
    },
    {
      "name": "stairs_hub_fl",
      "mesh": 32
    },
    {
      "name": "stairs_hub_fr",
      "mesh": 33
    },
    {
      "name": "stairs_hub_rl",
      "mesh": 34
    },
    {
      "name": "stairs_hub_rr",
      "mesh": 35
    }
  ],
  "scenes": [
    {
      "name": "mdl_passenger_stairs_v02",
      "nodes": [
        0,
        1,
        2,
        3,
        4,
        5,
        6,
        7,
        8,
        9,
        10,
        11,
        12,
        13,
        14,
        15,
        16,
        17,
        18,
        19,
        20,
        21,
        22,
        23,
        24,
        25,
        26,
        27,
        28,
        29,
        30,
        31,
        32,
        33,
        34,
        35
      ]
    }
  ],
  "scene": 0
}