{
  "asset": {
    "version": "2.0",
    "generator": "Airside Batch C procedural kit"
  },
  "buffers": [
    {
      "uri": "mdl_airfield_fence_gate_kit_v02.bin",
      "byteLength": 61632
    }
  ],
  "bufferViews": [
    {
      "buffer": 0,
      "byteOffset": 0,
      "byteLength": 6912,
      "target": 34962
    },
    {
      "buffer": 0,
      "byteOffset": 6912,
      "byteLength": 1728,
      "target": 34963
    },
    {
      "buffer": 0,
      "byteOffset": 8640,
      "byteLength": 1728,
      "target": 34962
    },
    {
      "buffer": 0,
      "byteOffset": 10368,
      "byteLength": 360,
      "target": 34963
    },
    {
      "buffer": 0,
      "byteOffset": 10728,
      "byteLength": 1440,
      "target": 34962
    },
    {
      "buffer": 0,
      "byteOffset": 12168,
      "byteLength": 288,
      "target": 34963
    },
    {
      "buffer": 0,
      "byteOffset": 12456,
      "byteLength": 1440,
      "target": 34962
    },
    {
      "buffer": 0,
      "byteOffset": 13896,
      "byteLength": 288,
      "target": 34963
    },
    {
      "buffer": 0,
      "byteOffset": 14184,
      "byteLength": 1728,
      "target": 34962
    },
    {
      "buffer": 0,
      "byteOffset": 15912,
      "byteLength": 360,
      "target": 34963
    },
    {
      "buffer": 0,
      "byteOffset": 16272,
      "byteLength": 1728,
      "target": 34962
    },
    {
      "buffer": 0,
      "byteOffset": 18000,
      "byteLength": 360,
      "target": 34963
    },
    {
      "buffer": 0,
      "byteOffset": 18360,
      "byteLength": 1728,
      "target": 34962
    },
    {
      "buffer": 0,
      "byteOffset": 20088,
      "byteLength": 360,
      "target": 34963
    },
    {
      "buffer": 0,
      "byteOffset": 20448,
      "byteLength": 1728,
      "target": 34962
    },
    {
      "buffer": 0,
      "byteOffset": 22176,
      "byteLength": 360,
      "target": 34963
    },
    {
      "buffer": 0,
      "byteOffset": 22536,
      "byteLength": 1728,
      "target": 34962
    },
    {
      "buffer": 0,
      "byteOffset": 24264,
      "byteLength": 360,
      "target": 34963
    },
    {
      "buffer": 0,
      "byteOffset": 24624,
      "byteLength": 576,
      "target": 34962
    },
    {
      "buffer": 0,
      "byteOffset": 25200,
      "byteLength": 144,
      "target": 34963
    },
    {
      "buffer": 0,
      "byteOffset": 25344,
      "byteLength": 1728,
      "target": 34962
    },
    {
      "buffer": 0,
      "byteOffset": 27072,
      "byteLength": 360,
      "target": 34963
    },
    {
      "buffer": 0,
      "byteOffset": 27432,
      "byteLength": 288,
      "target": 34962
    },
    {
      "buffer": 0,
      "byteOffset": 27720,
      "byteLength": 72,
      "target": 34963
    },
    {
      "buffer": 0,
      "byteOffset": 27792,
      "byteLength": 6624,
      "target": 34962
    },
    {
      "buffer": 0,
      "byteOffset": 34416,
      "byteLength": 1656,
      "target": 34963
    },
    {
      "buffer": 0,
      "byteOffset": 36072,
      "byteLength": 6624,
      "target": 34962
    },
    {
      "buffer": 0,
      "byteOffset": 42696,
      "byteLength": 1656,
      "target": 34963
    },
    {
      "buffer": 0,
      "byteOffset": 44352,
      "byteLength": 1200,
      "target": 34962
    },
    {
      "buffer": 0,
      "byteOffset": 45552,
      "byteLength": 240,
      "target": 34963
    },
    {
      "buffer": 0,
      "byteOffset": 45792,
      "byteLength": 864,
      "target": 34962
    },
    {
      "buffer": 0,
      "byteOffset": 46656,
      "byteLength": 216,
      "target": 34963
    },
    {
      "buffer": 0,
      "byteOffset": 46872,
      "byteLength": 2016,
      "target": 34962
    },
    {
      "buffer": 0,
      "byteOffset": 48888,
      "byteLength": 432,
      "target": 34963
    },
    {
      "buffer": 0,
      "byteOffset": 49320,
      "byteLength": 1488,
      "target": 34962
    },
    {
      "buffer": 0,
      "byteOffset": 50808,
      "byteLength": 312,
      "target": 34963
    },
    {
      "buffer": 0,
      "byteOffset": 51120,
      "byteLength": 4896,
      "target": 34962
    },
    {
      "buffer": 0,
      "byteOffset": 56016,
      "byteLength": 1224,
      "target": 34963
    },
    {
      "buffer": 0,
      "byteOffset": 57240,
      "byteLength": 288,
      "target": 34962
    },
    {
      "buffer": 0,
      "byteOffset": 57528,
      "byteLength": 72,
      "target": 34963
    },
    {
      "buffer": 0,
      "byteOffset": 57600,
      "byteLength": 288,
      "target": 34962
    },
    {
      "buffer": 0,
      "byteOffset": 57888,
      "byteLength": 72,
      "target": 34963
    },
    {
      "buffer": 0,
      "byteOffset": 57960,
      "byteLength": 288,
      "target": 34962
    },
    {
      "buffer": 0,
      "byteOffset": 58248,
      "byteLength": 72,
      "target": 34963
    },
    {
      "buffer": 0,
      "byteOffset": 58320,
      "byteLength": 1248,
      "target": 34962
    },
    {
      "buffer": 0,
      "byteOffset": 59568,
      "byteLength": 264,
      "target": 34963
    },
    {
      "buffer": 0,
      "byteOffset": 59832,
      "byteLength": 1488,
      "target": 34962
    },
    {
      "buffer": 0,
      "byteOffset": 61320,
      "byteLength": 312,
      "target": 34963
    }
  ],
  "accessors": [
    {
      "bufferView": 0,
      "componentType": 5126,
      "count": 576,
      "type": "VEC3",
      "max": [
        1.9249999523162842,
        1.375,
        0.019999999552965164
      ],
      "min": [
        -1.9249999523162842,
        0.125,
        -0.019999999552965164
      ]
    },
    {
      "bufferView": 1,
      "componentType": 5123,
      "count": 864,
      "type": "SCALAR"
    },
    {
      "bufferView": 2,
      "componentType": 5126,
      "count": 144,
      "type": "VEC3",
      "max": [
        1.975000262260437,
        1.4149999618530273,
        0.03500000014901161
      ],
      "min": [
        -1.975000262260437,
        1.3450000286102295,
        -0.03500000014901161
      ]
    },
    {
      "bufferView": 3,
      "componentType": 5123,
      "count": 180,
      "type": "SCALAR"
    },
    {
      "bufferView": 4,
      "componentType": 5126,
      "count": 120,
      "type": "VEC3",
      "max": [
        1.9500001668930054,
        0.7799999713897705,
        0.029999999329447746
      ],
      "min": [
        -1.9500001668930054,
        0.7200000286102295,
        -0.029999999329447746
      ]
    },
    {
      "bufferView": 5,
      "componentType": 5123,
      "count": 144,
      "type": "SCALAR"
    },
    {
      "bufferView": 6,
      "componentType": 5126,
      "count": 120,
      "type": "VEC3",
      "max": [
        1.9500001668930054,
        0.25,
        0.029999999329447746
      ],
      "min": [
        -1.9500001668930054,
        0.1899999976158142,
        -0.029999999329447746
      ]
    },
    {
      "bufferView": 7,
      "componentType": 5123,
      "count": 144,
      "type": "SCALAR"
    },
    {
      "bufferView": 8,
      "componentType": 5126,
      "count": 144,
      "type": "VEC3",
      "max": [
        -1.8899999856948853,
        1.5,
        0.09000000357627869
      ],
      "min": [
        -2.069999933242798,
        0.0,
        -0.09000000357627869
      ]
    },
    {
      "bufferView": 9,
      "componentType": 5123,
      "count": 180,
      "type": "SCALAR"
    },
    {
      "bufferView": 10,
      "componentType": 5126,
      "count": 144,
      "type": "VEC3",
      "max": [
        2.069999933242798,
        1.5,
        0.09000000357627869
      ],
      "min": [
        1.8899999856948853,
        0.0,
        -0.09000000357627869
      ]
    },
    {
      "bufferView": 11,
      "componentType": 5123,
      "count": 180,
      "type": "SCALAR"
    },
    {
      "bufferView": 12,
      "componentType": 5126,
      "count": 144,
      "type": "VEC3",
      "max": [
        -1.8899999856948853,
        1.559999942779541,
        0.09000000357627869
      ],
      "min": [
        -2.069999933242798,
        1.4600000381469727,
        -0.09000000357627869
      ]
    },
    {
      "bufferView": 13,
      "componentType": 5123,
      "count": 180,
      "type": "SCALAR"
    },
    {
      "bufferView": 14,
      "componentType": 5126,
      "count": 144,
      "type": "VEC3",
      "max": [
        2.069999933242798,
        1.559999942779541,
        0.09000000357627869
      ],
      "min": [
        1.8899999856948853,
        1.4600000381469727,
        -0.09000000357627869
      ]
    },
    {
      "bufferView": 15,
      "componentType": 5123,
      "count": 180,
      "type": "SCALAR"
    },
    {
      "bufferView": 16,
      "componentType": 5126,
      "count": 144,
      "type": "VEC3",
      "max": [
        0.10999999940395355,
        1.5550001859664917,
        0.10999999940395355
      ],
      "min": [
        -0.10999999940395355,
        0.004999999422580004,
        -0.10999999940395355
      ]
    },
    {
      "bufferView": 17,
      "componentType": 5123,
      "count": 180,
      "type": "SCALAR"
    },
    {
      "bufferView": 18,
      "componentType": 5126,
      "count": 48,
      "type": "VEC3",
      "max": [
        1.0,
        0.9300000071525574,
        0.47999998927116394
      ],
      "min": [
        -0.10000000149011612,
        0.4699999988079071,
        0.41999998688697815
      ]
    },
    {
      "bufferView": 19,
      "componentType": 5123,
      "count": 72,
      "type": "SCALAR"
    },
    {
      "bufferView": 20,
      "componentType": 5126,
      "count": 144,
      "type": "VEC3",
      "max": [
        0.09000000357627869,
        1.5,
        0.09000000357627869
      ],
      "min": [
        -0.09000000357627869,
        0.0,
        -0.09000000357627869
      ]
    },
    {
      "bufferView": 21,
      "componentType": 5123,
      "count": 180,
      "type": "SCALAR"
    },
    {
      "bufferView": 22,
      "componentType": 5126,
      "count": 24,
      "type": "VEC3",
      "max": [
        0.875,
        0.7850000262260437,
        0.03500000014901161
      ],
      "min": [
        -0.07500000298023224,
        0.7149999737739563,
        -0.03500000014901161
      ]
    },
    {
      "bufferView": 23,
      "componentType": 5123,
      "count": 36,
      "type": "SCALAR"
    },
    {
      "bufferView": 24,
      "componentType": 5126,
      "count": 552,
      "type": "VEC3",
      "max": [
        1.0750000476837158,
        1.590000033378601,
        0.029999999329447746
      ],
      "min": [
        -1.0750000476837158,
        0.125,
        -0.029999999329447746
      ]
    },
    {
      "bufferView": 25,
      "componentType": 5123,
      "count": 828,
      "type": "SCALAR"
    },
    {
      "bufferView": 26,
      "componentType": 5126,
      "count": 552,
      "type": "VEC3",
      "max": [
        1.0750000476837158,
        1.590000033378601,
        0.029999999329447746
      ],
      "min": [
        -1.0750000476837158,
        0.125,
        -0.029999999329447746
      ]
    },
    {
      "bufferView": 27,
      "componentType": 5123,
      "count": 828,
      "type": "SCALAR"
    },
    {
      "bufferView": 28,
      "componentType": 5126,
      "count": 100,
      "type": "VEC3",
      "max": [
        1.0,
        1.4785317182540894,
        0.029999999329447746
      ],
      "min": [
        -1.0,
        1.4214682579040527,
        -0.029999999329447746
      ]
    },
    {
      "bufferView": 29,
      "componentType": 5123,
      "count": 120,
      "type": "SCALAR"
    },
    {
      "bufferView": 30,
      "componentType": 5126,
      "count": 72,
      "type": "VEC3",
      "max": [
        0.8500000238418579,
        1.090000033378601,
        0.08500000089406967
      ],
      "min": [
        -0.8500000238418579,
        0.8100000023841858,
        0.03999999910593033
      ]
    },
    {
      "bufferView": 31,
      "componentType": 5123,
      "count": 108,
      "type": "SCALAR"
    },
    {
      "bufferView": 32,
      "componentType": 5126,
      "count": 168,
      "type": "VEC3",
      "max": [
        0.14000000059604645,
        1.9500000476837158,
        0.14000000059604645
      ],
      "min": [
        -0.14000000059604645,
        0.0,
        -0.14000000059604645
      ]
    },
    {
      "bufferView": 33,
      "componentType": 5123,
      "count": 216,
      "type": "SCALAR"
    },
    {
      "bufferView": 34,
      "componentType": 5126,
      "count": 124,
      "type": "VEC3",
      "max": [
        0.10000000149011612,
        2.130000352859497,
        0.10000000149011612
      ],
      "min": [
        -0.10000000149011612,
        1.8700000047683716,
        -0.10000000149011612
      ]
    },
    {
      "bufferView": 35,
      "componentType": 5123,
      "count": 156,
      "type": "SCALAR"
    },
    {
      "bufferView": 36,
      "componentType": 5126,
      "count": 408,
      "type": "VEC3",
      "max": [
        0.6000000238418579,
        1.4800000190734863,
        0.02500000037252903
      ],
      "min": [
        -0.6000000238418579,
        0.15000000596046448,
        -0.02500000037252903
      ]
    },
    {
      "bufferView": 37,
      "componentType": 5123,
      "count": 612,
      "type": "SCALAR"
    },
    {
      "bufferView": 38,
      "componentType": 5126,
      "count": 24,
      "type": "VEC3",
      "max": [
        0.675000011920929,
        1.5750000476837158,
        0.02500000037252903
      ],
      "min": [
        -0.675000011920929,
        0.02500000037252903,
        -0.02500000037252903
      ]
    },
    {
      "bufferView": 39,
      "componentType": 5123,
      "count": 36,
      "type": "SCALAR"
    },
    {
      "bufferView": 40,
      "componentType": 5126,
      "count": 24,
      "type": "VEC3",
      "max": [
        0.8500000238418579,
        2.325000047683716,
        0.029999999329447746
      ],
      "min": [
        -0.8500000238418579,
        1.774999976158142,
        -0.029999999329447746
      ]
    },
    {
      "bufferView": 41,
      "componentType": 5123,
      "count": 36,
      "type": "SCALAR"
    },
    {
      "bufferView": 42,
      "componentType": 5126,
      "count": 24,
      "type": "VEC3",
      "max": [
        0.925000011920929,
        2.4000000953674316,
        -0.014999999664723873
      ],
      "min": [
        -0.925000011920929,
        1.7000000476837158,
        -0.06499999761581421
      ]
    },
    {
      "bufferView": 43,
      "componentType": 5123,
      "count": 36,
      "type": "SCALAR"
    },
    {
      "bufferView": 44,
      "componentType": 5126,
      "count": 104,
      "type": "VEC3",
      "max": [
        0.2199999988079071,
        1.0499999523162842,
        0.14000000059604645
      ],
      "min": [
        -0.20000000298023224,
        0.8500000238418579,
        -0.07000000029802322
      ]
    },
    {
      "bufferView": 45,
      "componentType": 5123,
      "count": 132,
      "type": "SCALAR"
    },
    {
      "bufferView": 46,
      "componentType": 5126,
      "count": 124,
      "type": "VEC3",
      "max": [
        0.20000000298023224,
        0.20000001788139343,
        0.20000000298023224
      ],
      "min": [
        -0.20000000298023224,
        0.019999999552965164,
        -0.20000000298023224
      ]
    },
    {
      "bufferView": 47,
      "componentType": 5123,
      "count": 156,
      "type": "SCALAR"
    }
  ],
  "meshes": [
    {
      "name": "fence_bay",
      "primitives": [
        {
          "attributes": {
            "POSITION": 0
          },
          "indices": 1,
          "mode": 4
        }
      ]
    },
    {
      "name": "fence_bay_rail_top",
      "primitives": [
        {
          "attributes": {
            "POSITION": 2
          },
          "indices": 3,
          "mode": 4
        }
      ]
    },
    {
      "name": "fence_bay_rail_mid",
      "primitives": [
        {
          "attributes": {
            "POSITION": 4
          },
          "indices": 5,
          "mode": 4
        }
      ]
    },
    {
      "name": "fence_bay_rail_bot",
      "primitives": [
        {
          "attributes": {
            "POSITION": 6
          },
          "indices": 7,
          "mode": 4
        }
      ]
    },
    {
      "name": "fence_bay_post_l",
      "primitives": [
        {
          "attributes": {
            "POSITION": 8
          },
          "indices": 9,
          "mode": 4
        }
      ]
    },
    {
      "name": "fence_bay_post_r",
      "primitives": [
        {
          "attributes": {
            "POSITION": 10
          },
          "indices": 11,
          "mode": 4
        }
      ]
    },
    {
      "name": "fence_bay_cap_l",
      "primitives": [
        {
          "attributes": {
            "POSITION": 12
          },
          "indices": 13,
          "mode": 4
        }
      ]
    },
    {
      "name": "fence_bay_cap_r",
      "primitives": [
        {
          "attributes": {
            "POSITION": 14
          },
          "indices": 15,
          "mode": 4
        }
      ]
    },
    {
      "name": "fence_corner",
      "primitives": [
        {
          "attributes": {
            "POSITION": 16
          },
          "indices": 17,
          "mode": 4
        }
      ]
    },
    {
      "name": "fence_corner_brace",
      "primitives": [
        {
          "attributes": {
            "POSITION": 18
          },
          "indices": 19,
          "mode": 4
        }
      ]
    },
    {
      "name": "fence_end",
      "primitives": [
        {
          "attributes": {
            "POSITION": 20
          },
          "indices": 21,
          "mode": 4
        }
      ]
    },
    {
      "name": "fence_end_brace",
      "primitives": [
        {
          "attributes": {
            "POSITION": 22
          },
          "indices": 23,
          "mode": 4
        }
      ]
    },
    {
      "name": "gate_vehicle_leaf_l",
      "primitives": [
        {
          "attributes": {
            "POSITION": 24
          },
          "indices": 25,
          "mode": 4
        }
      ]
    },
    {
      "name": "gate_vehicle_leaf_r",
      "primitives": [
        {
          "attributes": {
            "POSITION": 26
          },
          "indices": 27,
          "mode": 4
        }
      ]
    },
    {
      "name": "gate_vehicle_rail",
      "primitives": [
        {
          "attributes": {
            "POSITION": 28
          },
          "indices": 29,
          "mode": 4
        }
      ]
    },
    {
      "name": "gate_vehicle_chevron",
      "primitives": [
        {
          "attributes": {
            "POSITION": 30
          },
          "indices": 31,
          "mode": 4
        }
      ]
    },
    {
      "name": "gate_post",
      "primitives": [
        {
          "attributes": {
            "POSITION": 32
          },
          "indices": 33,
          "mode": 4
        }
      ]
    },
    {
      "name": "gate_post_light",
      "primitives": [
        {
          "attributes": {
            "POSITION": 34
          },
          "indices": 35,
          "mode": 4
        }
      ]
    },
    {
      "name": "gate_pedestrian",
      "primitives": [
        {
          "attributes": {
            "POSITION": 36
          },
          "indices": 37,
          "mode": 4
        }
      ]
    },
    {
      "name": "gate_pedestrian_frame",
      "primitives": [
        {
          "attributes": {
            "POSITION": 38
          },
          "indices": 39,
          "mode": 4
        }
      ]
    },
    {
      "name": "gate_sign",
      "primitives": [
        {
          "attributes": {
            "POSITION": 40
          },
          "indices": 41,
          "mode": 4
        }
      ]
    },
    {
      "name": "gate_sign_frame",
      "primitives": [
        {
          "attributes": {
            "POSITION": 42
          },
          "indices": 43,
          "mode": 4
        }
      ]
    },
    {
      "name": "gate_latch",
      "primitives": [
        {
          "attributes": {
            "POSITION": 44
          },
          "indices": 45,
          "mode": 4
        }
      ]
    },
    {
      "name": "gate_stop",
      "primitives": [
        {
          "attributes": {
            "POSITION": 46
          },
          "indices": 47,
          "mode": 4
        }
      ]
    }
  ],
  "nodes": [
    {
      "name": "fence_bay",
      "mesh": 0
    },
    {
      "name": "fence_bay_rail_top",
      "mesh": 1
    },
    {
      "name": "fence_bay_rail_mid",
      "mesh": 2
    },
    {
      "name": "fence_bay_rail_bot",
      "mesh": 3
    },
    {
      "name": "fence_bay_post_l",
      "mesh": 4
    },
    {
      "name": "fence_bay_post_r",
      "mesh": 5
    },
    {
      "name": "fence_bay_cap_l",
      "mesh": 6
    },
    {
      "name": "fence_bay_cap_r",
      "mesh": 7
    },
    {
      "name": "fence_corner",
      "mesh": 8
    },
    {
      "name": "fence_corner_brace",
      "mesh": 9
    },
    {
      "name": "fence_end",
      "mesh": 10
    },
    {
      "name": "fence_end_brace",
      "mesh": 11
    },
    {
      "name": "gate_vehicle_leaf_l",
      "mesh": 12
    },
    {
      "name": "gate_vehicle_leaf_r",
      "mesh": 13
    },
    {
      "name": "gate_vehicle_rail",
      "mesh": 14
    },
    {
      "name": "gate_vehicle_chevron",
      "mesh": 15
    },
    {
      "name": "gate_post",
      "mesh": 16
    },
    {
      "name": "gate_post_light",
      "mesh": 17
    },
    {
      "name": "gate_pedestrian",
      "mesh": 18
    },
    {
      "name": "gate_pedestrian_frame",
      "mesh": 19
    },
    {
      "name": "gate_sign",
      "mesh": 20
    },
    {
      "name": "gate_sign_frame",
      "mesh": 21
    },
    {
      "name": "gate_latch",
      "mesh": 22
    },
    {
      "name": "gate_stop",
      "mesh": 23
    }
  ],
  "scenes": [
    {
      "name": "mdl_airfield_fence_gate_kit_v02",
      "nodes": [
        0,
        1,
        2,
        3,
        4,
        5,
        6,
        7,
        8,
        9,
        10,
        11,
        12,
        13,
        14,
        15,
        16,
        17,
        18,
        19,
        20,
        21,
        22,
        23
      ]
    }
  ],
  "scene": 0
}