{
  "asset": {
    "version": "2.0",
    "generator": "Airside Batch B procedural kit"
  },
  "buffers": [
    {
      "uri": "mdl_airfield_markings_kit_v01.bin",
      "byteLength": 420
    }
  ],
  "bufferViews": [
    {
      "buffer": 0,
      "byteOffset": 0,
      "byteLength": 48,
      "target": 34962
    },
    {
      "buffer": 0,
      "byteOffset": 48,
      "byteLength": 12,
      "target": 34963
    },
    {
      "buffer": 0,
      "byteOffset": 60,
      "byteLength": 48,
      "target": 34962
    },
    {
      "buffer": 0,
      "byteOffset": 108,
      "byteLength": 12,
      "target": 34963
    },
    {
      "buffer": 0,
      "byteOffset": 120,
      "byteLength": 48,
      "target": 34962
    },
    {
      "buffer": 0,
      "byteOffset": 168,
      "byteLength": 12,
      "target": 34963
    },
    {
      "buffer": 0,
      "byteOffset": 180,
      "byteLength": 48,
      "target": 34962
    },
    {
      "buffer": 0,
      "byteOffset": 228,
      "byteLength": 12,
      "target": 34963
    },
    {
      "buffer": 0,
      "byteOffset": 240,
      "byteLength": 48,
      "target": 34962
    },
    {
      "buffer": 0,
      "byteOffset": 288,
      "byteLength": 12,
      "target": 34963
    },
    {
      "buffer": 0,
      "byteOffset": 300,
      "byteLength": 48,
      "target": 34962
    },
    {
      "buffer": 0,
      "byteOffset": 348,
      "byteLength": 12,
      "target": 34963
    },
    {
      "buffer": 0,
      "byteOffset": 360,
      "byteLength": 48,
      "target": 34962
    },
    {
      "buffer": 0,
      "byteOffset": 408,
      "byteLength": 12,
      "target": 34963
    }
  ],
  "accessors": [
    {
      "bufferView": 0,
      "componentType": 5126,
      "count": 4,
      "type": "VEC3",
      "max": [
        0.15000000596046448,
        0.019999999552965164,
        30.0
      ],
      "min": [
        -0.15000000596046448,
        0.019999999552965164,
        -30.0
      ]
    },
    {
      "bufferView": 1,
      "componentType": 5123,
      "count": 6,
      "type": "SCALAR"
    },
    {
      "bufferView": 2,
      "componentType": 5126,
      "count": 4,
      "type": "VEC3",
      "max": [
        -14.699999809265137,
        0.019999999552965164,
        30.0
      ],
      "min": [
        -15.0,
        0.019999999552965164,
        -30.0
      ]
    },
    {
      "bufferView": 3,
      "componentType": 5123,
      "count": 6,
      "type": "SCALAR"
    },
    {
      "bufferView": 4,
      "componentType": 5126,
      "count": 4,
      "type": "VEC3",
      "max": [
        15.0,
        0.019999999552965164,
        30.0
      ],
      "min": [
        14.699999809265137,
        0.019999999552965164,
        -30.0
      ]
    },
    {
      "bufferView": 5,
      "componentType": 5123,
      "count": 6,
      "type": "SCALAR"
    },
    {
      "bufferView": 6,
      "componentType": 5126,
      "count": 4,
      "type": "VEC3",
      "max": [
        15.0,
        0.02500000037252903,
        -28.5
      ],
      "min": [
        -15.0,
        0.02500000037252903,
        -30.0
      ]
    },
    {
      "bufferView": 7,
      "componentType": 5123,
      "count": 6,
      "type": "SCALAR"
    },
    {
      "bufferView": 8,
      "componentType": 5126,
      "count": 4,
      "type": "VEC3",
      "max": [
        0.0,
        0.019999999552965164,
        0.10000000149011612
      ],
      "min": [
        -20.0,
        0.019999999552965164,
        -0.10000000149011612
      ]
    },
    {
      "bufferView": 9,
      "componentType": 5123,
      "count": 6,
      "type": "SCALAR"
    },
    {
      "bufferView": 10,
      "componentType": 5126,
      "count": 4,
      "type": "VEC3",
      "max": [
        -4.0,
        0.029999999329447746,
        8.300000190734863
      ],
      "min": [
        -8.0,
        0.029999999329447746,
        8.0
      ]
    },
    {
      "bufferView": 11,
      "componentType": 5123,
      "count": 6,
      "type": "SCALAR"
    },
    {
      "bufferView": 12,
      "componentType": 5126,
      "count": 4,
      "type": "VEC3",
      "max": [
        8.0,
        0.029999999329447746,
        8.300000190734863
      ],
      "min": [
        4.0,
        0.029999999329447746,
        8.0
      ]
    },
    {
      "bufferView": 13,
      "componentType": 5123,
      "count": 6,
      "type": "SCALAR"
    }
  ],
  "meshes": [
    {
      "name": "runway_centreline",
      "primitives": [
        {
          "attributes": {
            "POSITION": 0
          },
          "indices": 1,
          "mode": 4
        }
      ]
    },
    {
      "name": "runway_edge_left",
      "primitives": [
        {
          "attributes": {
            "POSITION": 2
          },
          "indices": 3,
          "mode": 4
        }
      ]
    },
    {
      "name": "runway_edge_right",
      "primitives": [
        {
          "attributes": {
            "POSITION": 4
          },
          "indices": 5,
          "mode": 4
        }
      ]
    },
    {
      "name": "runway_threshold",
      "primitives": [
        {
          "attributes": {
            "POSITION": 6
          },
          "indices": 7,
          "mode": 4
        }
      ]
    },
    {
      "name": "taxi_centreline",
      "primitives": [
        {
          "attributes": {
            "POSITION": 8
          },
          "indices": 9,
          "mode": 4
        }
      ]
    },
    {
      "name": "stand_stop_a",
      "primitives": [
        {
          "attributes": {
            "POSITION": 10
          },
          "indices": 11,
          "mode": 4
        }
      ]
    },
    {
      "name": "stand_stop_b",
      "primitives": [
        {
          "attributes": {
            "POSITION": 12
          },
          "indices": 13,
          "mode": 4
        }
      ]
    }
  ],
  "nodes": [
    {
      "name": "runway_centreline",
      "mesh": 0
    },
    {
      "name": "runway_edge_left",
      "mesh": 1
    },
    {
      "name": "runway_edge_right",
      "mesh": 2
    },
    {
      "name": "runway_threshold",
      "mesh": 3
    },
    {
      "name": "taxi_centreline",
      "mesh": 4
    },
    {
      "name": "stand_stop_a",
      "mesh": 5
    },
    {
      "name": "stand_stop_b",
      "mesh": 6
    }
  ],
  "scenes": [
    {
      "name": "mdl_airfield_markings_kit_v01",
      "nodes": [
        0,
        1,
        2,
        3,
        4,
        5,
        6
      ]
    }
  ],
  "scene": 0
}