{
  "asset": {
    "version": "2.0",
    "generator": "Airside Batch C procedural kit"
  },
  "buffers": [
    {
      "uri": "mdl_airfield_props_kit_authored_v01.bin",
      "byteLength": 22104
    }
  ],
  "bufferViews": [
    {
      "buffer": 0,
      "byteOffset": 0,
      "byteLength": 960,
      "target": 34962
    },
    {
      "buffer": 0,
      "byteOffset": 960,
      "byteLength": 192,
      "target": 34963
    },
    {
      "buffer": 0,
      "byteOffset": 1152,
      "byteLength": 960,
      "target": 34962
    },
    {
      "buffer": 0,
      "byteOffset": 2112,
      "byteLength": 192,
      "target": 34963
    },
    {
      "buffer": 0,
      "byteOffset": 2304,
      "byteLength": 288,
      "target": 34962
    },
    {
      "buffer": 0,
      "byteOffset": 2592,
      "byteLength": 72,
      "target": 34963
    },
    {
      "buffer": 0,
      "byteOffset": 2664,
      "byteLength": 288,
      "target": 34962
    },
    {
      "buffer": 0,
      "byteOffset": 2952,
      "byteLength": 72,
      "target": 34963
    },
    {
      "buffer": 0,
      "byteOffset": 3024,
      "byteLength": 288,
      "target": 34962
    },
    {
      "buffer": 0,
      "byteOffset": 3312,
      "byteLength": 72,
      "target": 34963
    },
    {
      "buffer": 0,
      "byteOffset": 3384,
      "byteLength": 960,
      "target": 34962
    },
    {
      "buffer": 0,
      "byteOffset": 4344,
      "byteLength": 192,
      "target": 34963
    },
    {
      "buffer": 0,
      "byteOffset": 4536,
      "byteLength": 288,
      "target": 34962
    },
    {
      "buffer": 0,
      "byteOffset": 4824,
      "byteLength": 72,
      "target": 34963
    },
    {
      "buffer": 0,
      "byteOffset": 4896,
      "byteLength": 288,
      "target": 34962
    },
    {
      "buffer": 0,
      "byteOffset": 5184,
      "byteLength": 72,
      "target": 34963
    },
    {
      "buffer": 0,
      "byteOffset": 5256,
      "byteLength": 288,
      "target": 34962
    },
    {
      "buffer": 0,
      "byteOffset": 5544,
      "byteLength": 72,
      "target": 34963
    },
    {
      "buffer": 0,
      "byteOffset": 5616,
      "byteLength": 288,
      "target": 34962
    },
    {
      "buffer": 0,
      "byteOffset": 5904,
      "byteLength": 72,
      "target": 34963
    },
    {
      "buffer": 0,
      "byteOffset": 5976,
      "byteLength": 960,
      "target": 34962
    },
    {
      "buffer": 0,
      "byteOffset": 6936,
      "byteLength": 192,
      "target": 34963
    },
    {
      "buffer": 0,
      "byteOffset": 7128,
      "byteLength": 960,
      "target": 34962
    },
    {
      "buffer": 0,
      "byteOffset": 8088,
      "byteLength": 192,
      "target": 34963
    },
    {
      "buffer": 0,
      "byteOffset": 8280,
      "byteLength": 960,
      "target": 34962
    },
    {
      "buffer": 0,
      "byteOffset": 9240,
      "byteLength": 192,
      "target": 34963
    },
    {
      "buffer": 0,
      "byteOffset": 9432,
      "byteLength": 288,
      "target": 34962
    },
    {
      "buffer": 0,
      "byteOffset": 9720,
      "byteLength": 72,
      "target": 34963
    },
    {
      "buffer": 0,
      "byteOffset": 9792,
      "byteLength": 288,
      "target": 34962
    },
    {
      "buffer": 0,
      "byteOffset": 10080,
      "byteLength": 72,
      "target": 34963
    },
    {
      "buffer": 0,
      "byteOffset": 10152,
      "byteLength": 288,
      "target": 34962
    },
    {
      "buffer": 0,
      "byteOffset": 10440,
      "byteLength": 72,
      "target": 34963
    },
    {
      "buffer": 0,
      "byteOffset": 10512,
      "byteLength": 288,
      "target": 34962
    },
    {
      "buffer": 0,
      "byteOffset": 10800,
      "byteLength": 72,
      "target": 34963
    },
    {
      "buffer": 0,
      "byteOffset": 10872,
      "byteLength": 288,
      "target": 34962
    },
    {
      "buffer": 0,
      "byteOffset": 11160,
      "byteLength": 72,
      "target": 34963
    },
    {
      "buffer": 0,
      "byteOffset": 11232,
      "byteLength": 288,
      "target": 34962
    },
    {
      "buffer": 0,
      "byteOffset": 11520,
      "byteLength": 72,
      "target": 34963
    },
    {
      "buffer": 0,
      "byteOffset": 11592,
      "byteLength": 288,
      "target": 34962
    },
    {
      "buffer": 0,
      "byteOffset": 11880,
      "byteLength": 72,
      "target": 34963
    },
    {
      "buffer": 0,
      "byteOffset": 11952,
      "byteLength": 960,
      "target": 34962
    },
    {
      "buffer": 0,
      "byteOffset": 12912,
      "byteLength": 192,
      "target": 34963
    },
    {
      "buffer": 0,
      "byteOffset": 13104,
      "byteLength": 288,
      "target": 34962
    },
    {
      "buffer": 0,
      "byteOffset": 13392,
      "byteLength": 72,
      "target": 34963
    },
    {
      "buffer": 0,
      "byteOffset": 13464,
      "byteLength": 288,
      "target": 34962
    },
    {
      "buffer": 0,
      "byteOffset": 13752,
      "byteLength": 72,
      "target": 34963
    },
    {
      "buffer": 0,
      "byteOffset": 13824,
      "byteLength": 288,
      "target": 34962
    },
    {
      "buffer": 0,
      "byteOffset": 14112,
      "byteLength": 72,
      "target": 34963
    },
    {
      "buffer": 0,
      "byteOffset": 14184,
      "byteLength": 288,
      "target": 34962
    },
    {
      "buffer": 0,
      "byteOffset": 14472,
      "byteLength": 72,
      "target": 34963
    },
    {
      "buffer": 0,
      "byteOffset": 14544,
      "byteLength": 288,
      "target": 34962
    },
    {
      "buffer": 0,
      "byteOffset": 14832,
      "byteLength": 72,
      "target": 34963
    },
    {
      "buffer": 0,
      "byteOffset": 14904,
      "byteLength": 288,
      "target": 34962
    },
    {
      "buffer": 0,
      "byteOffset": 15192,
      "byteLength": 72,
      "target": 34963
    },
    {
      "buffer": 0,
      "byteOffset": 15264,
      "byteLength": 288,
      "target": 34962
    },
    {
      "buffer": 0,
      "byteOffset": 15552,
      "byteLength": 72,
      "target": 34963
    },
    {
      "buffer": 0,
      "byteOffset": 15624,
      "byteLength": 288,
      "target": 34962
    },
    {
      "buffer": 0,
      "byteOffset": 15912,
      "byteLength": 72,
      "target": 34963
    },
    {
      "buffer": 0,
      "byteOffset": 15984,
      "byteLength": 288,
      "target": 34962
    },
    {
      "buffer": 0,
      "byteOffset": 16272,
      "byteLength": 72,
      "target": 34963
    },
    {
      "buffer": 0,
      "byteOffset": 16344,
      "byteLength": 1200,
      "target": 34962
    },
    {
      "buffer": 0,
      "byteOffset": 17544,
      "byteLength": 240,
      "target": 34963
    },
    {
      "buffer": 0,
      "byteOffset": 17784,
      "byteLength": 1200,
      "target": 34962
    },
    {
      "buffer": 0,
      "byteOffset": 18984,
      "byteLength": 240,
      "target": 34963
    },
    {
      "buffer": 0,
      "byteOffset": 19224,
      "byteLength": 1200,
      "target": 34962
    },
    {
      "buffer": 0,
      "byteOffset": 20424,
      "byteLength": 240,
      "target": 34963
    },
    {
      "buffer": 0,
      "byteOffset": 20664,
      "byteLength": 1200,
      "target": 34962
    },
    {
      "buffer": 0,
      "byteOffset": 21864,
      "byteLength": 240,
      "target": 34963
    }
  ],
  "accessors": [
    {
      "bufferView": 0,
      "componentType": 5126,
      "count": 80,
      "type": "VEC3",
      "max": [
        0.05000000074505806,
        3.0,
        0.05000000074505806
      ],
      "min": [
        -0.05000000074505806,
        0.0,
        -0.05000000074505806
      ]
    },
    {
      "bufferView": 1,
      "componentType": 5123,
      "count": 96,
      "type": "SCALAR"
    },
    {
      "bufferView": 2,
      "componentType": 5126,
      "count": 80,
      "type": "VEC3",
      "max": [
        0.1599999964237213,
        0.5550000071525574,
        0.1599999964237213
      ],
      "min": [
        -0.1599999964237213,
        0.004999999422580004,
        -0.1599999964237213
      ]
    },
    {
      "bufferView": 3,
      "componentType": 5123,
      "count": 96,
      "type": "SCALAR"
    },
    {
      "bufferView": 4,
      "componentType": 5126,
      "count": 24,
      "type": "VEC3",
      "max": [
        0.800000011920929,
        1.100000023841858,
        0.05000000074505806
      ],
      "min": [
        -0.800000011920929,
        0.0,
        -0.05000000074505806
      ]
    },
    {
      "bufferView": 5,
      "componentType": 5123,
      "count": 36,
      "type": "SCALAR"
    },
    {
      "bufferView": 6,
      "componentType": 5126,
      "count": 24,
      "type": "VEC3",
      "max": [
        0.6499999761581421,
        1.5499999523162842,
        0.03999999910593033
      ],
      "min": [
        -0.6499999761581421,
        0.6499999761581421,
        -0.03999999910593033
      ]
    },
    {
      "bufferView": 7,
      "componentType": 5123,
      "count": 36,
      "type": "SCALAR"
    },
    {
      "bufferView": 8,
      "componentType": 5126,
      "count": 24,
      "type": "VEC3",
      "max": [
        0.75,
        0.675000011920929,
        0.42500001192092896
      ],
      "min": [
        -0.75,
        0.125,
        -0.42500001192092896
      ]
    },
    {
      "bufferView": 9,
      "componentType": 5123,
      "count": 36,
      "type": "SCALAR"
    },
    {
      "bufferView": 10,
      "componentType": 5126,
      "count": 80,
      "type": "VEC3",
      "max": [
        0.05000000074505806,
        3.200000286102295,
        0.05000000074505806
      ],
      "min": [
        -0.05000000074505806,
        0.0,
        -0.05000000074505806
      ]
    },
    {
      "bufferView": 11,
      "componentType": 5123,
      "count": 96,
      "type": "SCALAR"
    },
    {
      "bufferView": 12,
      "componentType": 5126,
      "count": 24,
      "type": "VEC3",
      "max": [
        0.22499999403953552,
        0.1599999964237213,
        0.22499999403953552
      ],
      "min": [
        -0.22499999403953552,
        0.0,
        -0.22499999403953552
      ]
    },
    {
      "bufferView": 13,
      "componentType": 5123,
      "count": 36,
      "type": "SCALAR"
    },
    {
      "bufferView": 14,
      "componentType": 5126,
      "count": 24,
      "type": "VEC3",
      "max": [
        0.03999999910593033,
        3.140000104904175,
        0.699999988079071
      ],
      "min": [
        -0.03999999910593033,
        3.059999942779541,
        0.0
      ]
    },
    {
      "bufferView": 15,
      "componentType": 5123,
      "count": 36,
      "type": "SCALAR"
    },
    {
      "bufferView": 16,
      "componentType": 5126,
      "count": 24,
      "type": "VEC3",
      "max": [
        0.17499999701976776,
        3.2249999046325684,
        1.399999976158142
      ],
      "min": [
        -0.17499999701976776,
        2.875,
        0.30000001192092896
      ]
    },
    {
      "bufferView": 17,
      "componentType": 5123,
      "count": 36,
      "type": "SCALAR"
    },
    {
      "bufferView": 18,
      "componentType": 5126,
      "count": 24,
      "type": "VEC3",
      "max": [
        0.20000000298023224,
        0.09000000357627869,
        0.20000000298023224
      ],
      "min": [
        -0.20000000298023224,
        0.009999999776482582,
        -0.20000000298023224
      ]
    },
    {
      "bufferView": 19,
      "componentType": 5123,
      "count": 36,
      "type": "SCALAR"
    },
    {
      "bufferView": 20,
      "componentType": 5126,
      "count": 80,
      "type": "VEC3",
      "max": [
        0.14000000059604645,
        0.625,
        0.14000000059604645
      ],
      "min": [
        -0.14000000059604645,
        0.07499999552965164,
        -0.14000000059604645
      ]
    },
    {
      "bufferView": 21,
      "componentType": 5123,
      "count": 96,
      "type": "SCALAR"
    },
    {
      "bufferView": 22,
      "componentType": 5126,
      "count": 80,
      "type": "VEC3",
      "max": [
        0.15000000596046448,
        0.4100000262260437,
        0.15000000596046448
      ],
      "min": [
        -0.15000000596046448,
        0.28999999165534973,
        -0.15000000596046448
      ]
    },
    {
      "bufferView": 23,
      "componentType": 5123,
      "count": 96,
      "type": "SCALAR"
    },
    {
      "bufferView": 24,
      "componentType": 5126,
      "count": 80,
      "type": "VEC3",
      "max": [
        0.05999999865889549,
        0.7900000214576721,
        0.05999999865889549
      ],
      "min": [
        -0.05999999865889549,
        0.6100000143051147,
        -0.05999999865889549
      ]
    },
    {
      "bufferView": 25,
      "componentType": 5123,
      "count": 96,
      "type": "SCALAR"
    },
    {
      "bufferView": 26,
      "componentType": 5126,
      "count": 24,
      "type": "VEC3",
      "max": [
        0.8500000238418579,
        0.9100000262260437,
        0.05000000074505806
      ],
      "min": [
        -0.8500000238418579,
        0.7900000214576721,
        -0.05000000074505806
      ]
    },
    {
      "bufferView": 27,
      "componentType": 5123,
      "count": 36,
      "type": "SCALAR"
    },
    {
      "bufferView": 28,
      "componentType": 5126,
      "count": 24,
      "type": "VEC3",
      "max": [
        0.8500000238418579,
        0.4099999964237213,
        0.05000000074505806
      ],
      "min": [
        -0.8500000238418579,
        0.28999999165534973,
        -0.05000000074505806
      ]
    },
    {
      "bufferView": 29,
      "componentType": 5123,
      "count": 36,
      "type": "SCALAR"
    },
    {
      "bufferView": 30,
      "componentType": 5126,
      "count": 24,
      "type": "VEC3",
      "max": [
        0.75,
        0.8899999856948853,
        0.07999999821186066
      ],
      "min": [
        -0.75,
        0.8100000023841858,
        0.03999999910593033
      ]
    },
    {
      "bufferView": 31,
      "componentType": 5123,
      "count": 36,
      "type": "SCALAR"
    },
    {
      "bufferView": 32,
      "componentType": 5126,
      "count": 24,
      "type": "VEC3",
      "max": [
        -0.6399999856948853,
        0.8999999761581421,
        0.05999999865889549
      ],
      "min": [
        -0.7599999904632568,
        0.0,
        -0.05999999865889549
      ]
    },
    {
      "bufferView": 33,
      "componentType": 5123,
      "count": 36,
      "type": "SCALAR"
    },
    {
      "bufferView": 34,
      "componentType": 5126,
      "count": 24,
      "type": "VEC3",
      "max": [
        0.7599999904632568,
        0.8999999761581421,
        0.05999999865889549
      ],
      "min": [
        0.6399999856948853,
        0.0,
        -0.05999999865889549
      ]
    },
    {
      "bufferView": 35,
      "componentType": 5123,
      "count": 36,
      "type": "SCALAR"
    },
    {
      "bufferView": 36,
      "componentType": 5126,
      "count": 24,
      "type": "VEC3",
      "max": [
        -0.5600000023841858,
        0.10000000149011612,
        0.14000000059604645
      ],
      "min": [
        -0.8399999737739563,
        0.019999999552965164,
        -0.14000000059604645
      ]
    },
    {
      "bufferView": 37,
      "componentType": 5123,
      "count": 36,
      "type": "SCALAR"
    },
    {
      "bufferView": 38,
      "componentType": 5126,
      "count": 24,
      "type": "VEC3",
      "max": [
        0.8399999737739563,
        0.10000000149011612,
        0.14000000059604645
      ],
      "min": [
        0.5600000023841858,
        0.019999999552965164,
        -0.14000000059604645
      ]
    },
    {
      "bufferView": 39,
      "componentType": 5123,
      "count": 36,
      "type": "SCALAR"
    },
    {
      "bufferView": 40,
      "componentType": 5126,
      "count": 80,
      "type": "VEC3",
      "max": [
        0.05999999865889549,
        2.299999952316284,
        0.05999999865889549
      ],
      "min": [
        -0.05999999865889549,
        0.0,
        -0.05999999865889549
      ]
    },
    {
      "bufferView": 41,
      "componentType": 5123,
      "count": 96,
      "type": "SCALAR"
    },
    {
      "bufferView": 42,
      "componentType": 5126,
      "count": 24,
      "type": "VEC3",
      "max": [
        0.10999999940395355,
        1.9249999523162842,
        0.6000000238418579
      ],
      "min": [
        0.05000000074505806,
        0.9750000238418579,
        -0.6000000238418579
      ]
    },
    {
      "bufferView": 43,
      "componentType": 5123,
      "count": 36,
      "type": "SCALAR"
    },
    {
      "bufferView": 44,
      "componentType": 5126,
      "count": 24,
      "type": "VEC3",
      "max": [
        0.11999999731779099,
        1.9900000095367432,
        0.625
      ],
      "min": [
        0.03999999910593033,
        1.909999966621399,
        -0.625
      ]
    },
    {
      "bufferView": 45,
      "componentType": 5123,
      "count": 36,
      "type": "SCALAR"
    },
    {
      "bufferView": 46,
      "componentType": 5126,
      "count": 24,
      "type": "VEC3",
      "max": [
        0.07999999821186066,
        0.9399999976158142,
        0.22499999403953552
      ],
      "min": [
        0.0,
        0.8600000143051147,
        -0.22499999403953552
      ]
    },
    {
      "bufferView": 47,
      "componentType": 5123,
      "count": 36,
      "type": "SCALAR"
    },
    {
      "bufferView": 48,
      "componentType": 5126,
      "count": 24,
      "type": "VEC3",
      "max": [
        0.75,
        0.5400000214576721,
        0.42500001192092896
      ],
      "min": [
        -0.75,
        0.36000001430511475,
        -0.42500001192092896
      ]
    },
    {
      "bufferView": 49,
      "componentType": 5123,
      "count": 36,
      "type": "SCALAR"
    },
    {
      "bufferView": 50,
      "componentType": 5126,
      "count": 24,
      "type": "VEC3",
      "max": [
        -0.6700000166893005,
        0.8999999761581421,
        0.4000000059604645
      ],
      "min": [
        -0.7300000190734863,
        0.5,
        -0.4000000059604645
      ]
    },
    {
      "bufferView": 51,
      "componentType": 5123,
      "count": 36,
      "type": "SCALAR"
    },
    {
      "bufferView": 52,
      "componentType": 5126,
      "count": 24,
      "type": "VEC3",
      "max": [
        0.7300000190734863,
        0.8999999761581421,
        0.4000000059604645
      ],
      "min": [
        0.6700000166893005,
        0.5,
        -0.4000000059604645
      ]
    },
    {
      "bufferView": 53,
      "componentType": 5123,
      "count": 36,
      "type": "SCALAR"
    },
    {
      "bufferView": 54,
      "componentType": 5126,
      "count": 24,
      "type": "VEC3",
      "max": [
        0.675000011920929,
        0.7250000238418579,
        0.375
      ],
      "min": [
        -0.675000011920929,
        0.675000011920929,
        0.32499998807907104
      ]
    },
    {
      "bufferView": 55,
      "componentType": 5123,
      "count": 36,
      "type": "SCALAR"
    },
    {
      "bufferView": 56,
      "componentType": 5126,
      "count": 24,
      "type": "VEC3",
      "max": [
        0.44999998807907104,
        0.8899999856948853,
        -0.5099999904632568
      ],
      "min": [
        -0.44999998807907104,
        0.8100000023841858,
        -0.5899999737739563
      ]
    },
    {
      "bufferView": 57,
      "componentType": 5123,
      "count": 36,
      "type": "SCALAR"
    },
    {
      "bufferView": 58,
      "componentType": 5126,
      "count": 24,
      "type": "VEC3",
      "max": [
        0.550000011920929,
        0.875,
        0.32499998807907104
      ],
      "min": [
        -0.550000011920929,
        0.5249999761581421,
        -0.32499998807907104
      ]
    },
    {
      "bufferView": 59,
      "componentType": 5123,
      "count": 36,
      "type": "SCALAR"
    },
    {
      "bufferView": 60,
      "componentType": 5126,
      "count": 100,
      "type": "VEC3",
      "max": [
        -0.44999998807907104,
        0.24510565400123596,
        0.36000004410743713
      ],
      "min": [
        -0.6499999761581421,
        0.0548943467438221,
        0.23999997973442078
      ]
    },
    {
      "bufferView": 61,
      "componentType": 5123,
      "count": 120,
      "type": "SCALAR"
    },
    {
      "bufferView": 62,
      "componentType": 5126,
      "count": 100,
      "type": "VEC3",
      "max": [
        0.6499999761581421,
        0.24510565400123596,
        0.36000004410743713
      ],
      "min": [
        0.44999998807907104,
        0.0548943467438221,
        0.23999997973442078
      ]
    },
    {
      "bufferView": 63,
      "componentType": 5123,
      "count": 120,
      "type": "SCALAR"
    },
    {
      "bufferView": 64,
      "componentType": 5126,
      "count": 100,
      "type": "VEC3",
      "max": [
        -0.44999998807907104,
        0.24510565400123596,
        -0.23999997973442078
      ],
      "min": [
        -0.6499999761581421,
        0.0548943467438221,
        -0.36000004410743713
      ]
    },
    {
      "bufferView": 65,
      "componentType": 5123,
      "count": 120,
      "type": "SCALAR"
    },
    {
      "bufferView": 66,
      "componentType": 5126,
      "count": 100,
      "type": "VEC3",
      "max": [
        0.6499999761581421,
        0.24510565400123596,
        -0.23999997973442078
      ],
      "min": [
        0.44999998807907104,
        0.0548943467438221,
        -0.36000004410743713
      ]
    },
    {
      "bufferView": 67,
      "componentType": 5123,
      "count": 120,
      "type": "SCALAR"
    }
  ],
  "meshes": [
    {
      "name": "windsock_pole",
      "primitives": [
        {
          "attributes": {
            "POSITION": 0
          },
          "indices": 1,
          "mode": 4
        }
      ]
    },
    {
      "name": "cone",
      "primitives": [
        {
          "attributes": {
            "POSITION": 2
          },
          "indices": 3,
          "mode": 4
        }
      ]
    },
    {
      "name": "barrier",
      "primitives": [
        {
          "attributes": {
            "POSITION": 4
          },
          "indices": 5,
          "mode": 4
        }
      ]
    },
    {
      "name": "sign_board",
      "primitives": [
        {
          "attributes": {
            "POSITION": 6
          },
          "indices": 7,
          "mode": 4
        }
      ]
    },
    {
      "name": "baggage_dolly",
      "primitives": [
        {
          "attributes": {
            "POSITION": 8
          },
          "indices": 9,
          "mode": 4
        }
      ]
    },
    {
      "name": "sock_pole",
      "primitives": [
        {
          "attributes": {
            "POSITION": 10
          },
          "indices": 11,
          "mode": 4
        }
      ]
    },
    {
      "name": "sock_base",
      "primitives": [
        {
          "attributes": {
            "POSITION": 12
          },
          "indices": 13,
          "mode": 4
        }
      ]
    },
    {
      "name": "sock_frame",
      "primitives": [
        {
          "attributes": {
            "POSITION": 14
          },
          "indices": 15,
          "mode": 4
        }
      ]
    },
    {
      "name": "sock_fabric",
      "primitives": [
        {
          "attributes": {
            "POSITION": 16
          },
          "indices": 17,
          "mode": 4
        }
      ]
    },
    {
      "name": "cone_base",
      "primitives": [
        {
          "attributes": {
            "POSITION": 18
          },
          "indices": 19,
          "mode": 4
        }
      ]
    },
    {
      "name": "cone_body",
      "primitives": [
        {
          "attributes": {
            "POSITION": 20
          },
          "indices": 21,
          "mode": 4
        }
      ]
    },
    {
      "name": "cone_stripe",
      "primitives": [
        {
          "attributes": {
            "POSITION": 22
          },
          "indices": 23,
          "mode": 4
        }
      ]
    },
    {
      "name": "cone_tip",
      "primitives": [
        {
          "attributes": {
            "POSITION": 24
          },
          "indices": 25,
          "mode": 4
        }
      ]
    },
    {
      "name": "barrier_rail",
      "primitives": [
        {
          "attributes": {
            "POSITION": 26
          },
          "indices": 27,
          "mode": 4
        }
      ]
    },
    {
      "name": "barrier_rail_low",
      "primitives": [
        {
          "attributes": {
            "POSITION": 28
          },
          "indices": 29,
          "mode": 4
        }
      ]
    },
    {
      "name": "barrier_stripe",
      "primitives": [
        {
          "attributes": {
            "POSITION": 30
          },
          "indices": 31,
          "mode": 4
        }
      ]
    },
    {
      "name": "barrier_leg_l",
      "primitives": [
        {
          "attributes": {
            "POSITION": 32
          },
          "indices": 33,
          "mode": 4
        }
      ]
    },
    {
      "name": "barrier_leg_r",
      "primitives": [
        {
          "attributes": {
            "POSITION": 34
          },
          "indices": 35,
          "mode": 4
        }
      ]
    },
    {
      "name": "barrier_foot_l",
      "primitives": [
        {
          "attributes": {
            "POSITION": 36
          },
          "indices": 37,
          "mode": 4
        }
      ]
    },
    {
      "name": "barrier_foot_r",
      "primitives": [
        {
          "attributes": {
            "POSITION": 38
          },
          "indices": 39,
          "mode": 4
        }
      ]
    },
    {
      "name": "sign_post",
      "primitives": [
        {
          "attributes": {
            "POSITION": 40
          },
          "indices": 41,
          "mode": 4
        }
      ]
    },
    {
      "name": "sign_face",
      "primitives": [
        {
          "attributes": {
            "POSITION": 42
          },
          "indices": 43,
          "mode": 4
        }
      ]
    },
    {
      "name": "sign_cap",
      "primitives": [
        {
          "attributes": {
            "POSITION": 44
          },
          "indices": 45,
          "mode": 4
        }
      ]
    },
    {
      "name": "sign_brace",
      "primitives": [
        {
          "attributes": {
            "POSITION": 46
          },
          "indices": 47,
          "mode": 4
        }
      ]
    },
    {
      "name": "dolly_bed",
      "primitives": [
        {
          "attributes": {
            "POSITION": 48
          },
          "indices": 49,
          "mode": 4
        }
      ]
    },
    {
      "name": "dolly_rail_l",
      "primitives": [
        {
          "attributes": {
            "POSITION": 50
          },
          "indices": 51,
          "mode": 4
        }
      ]
    },
    {
      "name": "dolly_rail_r",
      "primitives": [
        {
          "attributes": {
            "POSITION": 52
          },
          "indices": 53,
          "mode": 4
        }
      ]
    },
    {
      "name": "dolly_rail_mid",
      "primitives": [
        {
          "attributes": {
            "POSITION": 54
          },
          "indices": 55,
          "mode": 4
        }
      ]
    },
    {
      "name": "dolly_handle",
      "primitives": [
        {
          "attributes": {
            "POSITION": 56
          },
          "indices": 57,
          "mode": 4
        }
      ]
    },
    {
      "name": "dolly_cargo",
      "primitives": [
        {
          "attributes": {
            "POSITION": 58
          },
          "indices": 59,
          "mode": 4
        }
      ]
    },
    {
      "name": "dolly_wheel_fl",
      "primitives": [
        {
          "attributes": {
            "POSITION": 60
          },
          "indices": 61,
          "mode": 4
        }
      ]
    },
    {
      "name": "dolly_wheel_fr",
      "primitives": [
        {
          "attributes": {
            "POSITION": 62
          },
          "indices": 63,
          "mode": 4
        }
      ]
    },
    {
      "name": "dolly_wheel_rl",
      "primitives": [
        {
          "attributes": {
            "POSITION": 64
          },
          "indices": 65,
          "mode": 4
        }
      ]
    },
    {
      "name": "dolly_wheel_rr",
      "primitives": [
        {
          "attributes": {
            "POSITION": 66
          },
          "indices": 67,
          "mode": 4
        }
      ]
    }
  ],
  "nodes": [
    {
      "name": "windsock_pole",
      "mesh": 0
    },
    {
      "name": "cone",
      "mesh": 1
    },
    {
      "name": "barrier",
      "mesh": 2
    },
    {
      "name": "sign_board",
      "mesh": 3
    },
    {
      "name": "baggage_dolly",
      "mesh": 4
    },
    {
      "name": "sock_pole",
      "mesh": 5
    },
    {
      "name": "sock_base",
      "mesh": 6
    },
    {
      "name": "sock_frame",
      "mesh": 7
    },
    {
      "name": "sock_fabric",
      "mesh": 8
    },
    {
      "name": "cone_base",
      "mesh": 9
    },
    {
      "name": "cone_body",
      "mesh": 10
    },
    {
      "name": "cone_stripe",
      "mesh": 11
    },
    {
      "name": "cone_tip",
      "mesh": 12
    },
    {
      "name": "barrier_rail",
      "mesh": 13
    },
    {
      "name": "barrier_rail_low",
      "mesh": 14
    },
    {
      "name": "barrier_stripe",
      "mesh": 15
    },
    {
      "name": "barrier_leg_l",
      "mesh": 16
    },
    {
      "name": "barrier_leg_r",
      "mesh": 17
    },
    {
      "name": "barrier_foot_l",
      "mesh": 18
    },
    {
      "name": "barrier_foot_r",
      "mesh": 19
    },
    {
      "name": "sign_post",
      "mesh": 20
    },
    {
      "name": "sign_face",
      "mesh": 21
    },
    {
      "name": "sign_cap",
      "mesh": 22
    },
    {
      "name": "sign_brace",
      "mesh": 23
    },
    {
      "name": "dolly_bed",
      "mesh": 24
    },
    {
      "name": "dolly_rail_l",
      "mesh": 25
    },
    {
      "name": "dolly_rail_r",
      "mesh": 26
    },
    {
      "name": "dolly_rail_mid",
      "mesh": 27
    },
    {
      "name": "dolly_handle",
      "mesh": 28
    },
    {
      "name": "dolly_cargo",
      "mesh": 29
    },
    {
      "name": "dolly_wheel_fl",
      "mesh": 30
    },
    {
      "name": "dolly_wheel_fr",
      "mesh": 31
    },
    {
      "name": "dolly_wheel_rl",
      "mesh": 32
    },
    {
      "name": "dolly_wheel_rr",
      "mesh": 33
    }
  ],
  "scenes": [
    {
      "name": "mdl_airfield_props_kit_authored_v01",
      "nodes": [
        0,
        1,
        2,
        3,
        4,
        5,
        6,
        7,
        8,
        9,
        10,
        11,
        12,
        13,
        14,
        15,
        16,
        17,
        18,
        19,
        20,
        21,
        22,
        23,
        24,
        25,
        26,
        27,
        28,
        29,
        30,
        31,
        32,
        33
      ]
    }
  ],
  "scene": 0
}