{
  "asset": {
    "version": "2.0",
    "generator": "Airside Batch B procedural kit"
  },
  "buffers": [
    {
      "uri": "mdl_airfield_markings_kit_v01.bin",
      "byteLength": 1680
    }
  ],
  "bufferViews": [
    {
      "buffer": 0,
      "byteOffset": 0,
      "byteLength": 48,
      "target": 34962
    },
    {
      "buffer": 0,
      "byteOffset": 48,
      "byteLength": 12,
      "target": 34963
    },
    {
      "buffer": 0,
      "byteOffset": 60,
      "byteLength": 48,
      "target": 34962
    },
    {
      "buffer": 0,
      "byteOffset": 108,
      "byteLength": 12,
      "target": 34963
    },
    {
      "buffer": 0,
      "byteOffset": 120,
      "byteLength": 48,
      "target": 34962
    },
    {
      "buffer": 0,
      "byteOffset": 168,
      "byteLength": 12,
      "target": 34963
    },
    {
      "buffer": 0,
      "byteOffset": 180,
      "byteLength": 48,
      "target": 34962
    },
    {
      "buffer": 0,
      "byteOffset": 228,
      "byteLength": 12,
      "target": 34963
    },
    {
      "buffer": 0,
      "byteOffset": 240,
      "byteLength": 48,
      "target": 34962
    },
    {
      "buffer": 0,
      "byteOffset": 288,
      "byteLength": 12,
      "target": 34963
    },
    {
      "buffer": 0,
      "byteOffset": 300,
      "byteLength": 48,
      "target": 34962
    },
    {
      "buffer": 0,
      "byteOffset": 348,
      "byteLength": 12,
      "target": 34963
    },
    {
      "buffer": 0,
      "byteOffset": 360,
      "byteLength": 48,
      "target": 34962
    },
    {
      "buffer": 0,
      "byteOffset": 408,
      "byteLength": 12,
      "target": 34963
    },
    {
      "buffer": 0,
      "byteOffset": 420,
      "byteLength": 48,
      "target": 34962
    },
    {
      "buffer": 0,
      "byteOffset": 468,
      "byteLength": 12,
      "target": 34963
    },
    {
      "buffer": 0,
      "byteOffset": 480,
      "byteLength": 48,
      "target": 34962
    },
    {
      "buffer": 0,
      "byteOffset": 528,
      "byteLength": 12,
      "target": 34963
    },
    {
      "buffer": 0,
      "byteOffset": 540,
      "byteLength": 48,
      "target": 34962
    },
    {
      "buffer": 0,
      "byteOffset": 588,
      "byteLength": 12,
      "target": 34963
    },
    {
      "buffer": 0,
      "byteOffset": 600,
      "byteLength": 48,
      "target": 34962
    },
    {
      "buffer": 0,
      "byteOffset": 648,
      "byteLength": 12,
      "target": 34963
    },
    {
      "buffer": 0,
      "byteOffset": 660,
      "byteLength": 48,
      "target": 34962
    },
    {
      "buffer": 0,
      "byteOffset": 708,
      "byteLength": 12,
      "target": 34963
    },
    {
      "buffer": 0,
      "byteOffset": 720,
      "byteLength": 48,
      "target": 34962
    },
    {
      "buffer": 0,
      "byteOffset": 768,
      "byteLength": 12,
      "target": 34963
    },
    {
      "buffer": 0,
      "byteOffset": 780,
      "byteLength": 48,
      "target": 34962
    },
    {
      "buffer": 0,
      "byteOffset": 828,
      "byteLength": 12,
      "target": 34963
    },
    {
      "buffer": 0,
      "byteOffset": 840,
      "byteLength": 48,
      "target": 34962
    },
    {
      "buffer": 0,
      "byteOffset": 888,
      "byteLength": 12,
      "target": 34963
    },
    {
      "buffer": 0,
      "byteOffset": 900,
      "byteLength": 48,
      "target": 34962
    },
    {
      "buffer": 0,
      "byteOffset": 948,
      "byteLength": 12,
      "target": 34963
    },
    {
      "buffer": 0,
      "byteOffset": 960,
      "byteLength": 48,
      "target": 34962
    },
    {
      "buffer": 0,
      "byteOffset": 1008,
      "byteLength": 12,
      "target": 34963
    },
    {
      "buffer": 0,
      "byteOffset": 1020,
      "byteLength": 48,
      "target": 34962
    },
    {
      "buffer": 0,
      "byteOffset": 1068,
      "byteLength": 12,
      "target": 34963
    },
    {
      "buffer": 0,
      "byteOffset": 1080,
      "byteLength": 48,
      "target": 34962
    },
    {
      "buffer": 0,
      "byteOffset": 1128,
      "byteLength": 12,
      "target": 34963
    },
    {
      "buffer": 0,
      "byteOffset": 1140,
      "byteLength": 48,
      "target": 34962
    },
    {
      "buffer": 0,
      "byteOffset": 1188,
      "byteLength": 12,
      "target": 34963
    },
    {
      "buffer": 0,
      "byteOffset": 1200,
      "byteLength": 48,
      "target": 34962
    },
    {
      "buffer": 0,
      "byteOffset": 1248,
      "byteLength": 12,
      "target": 34963
    },
    {
      "buffer": 0,
      "byteOffset": 1260,
      "byteLength": 48,
      "target": 34962
    },
    {
      "buffer": 0,
      "byteOffset": 1308,
      "byteLength": 12,
      "target": 34963
    },
    {
      "buffer": 0,
      "byteOffset": 1320,
      "byteLength": 48,
      "target": 34962
    },
    {
      "buffer": 0,
      "byteOffset": 1368,
      "byteLength": 12,
      "target": 34963
    },
    {
      "buffer": 0,
      "byteOffset": 1380,
      "byteLength": 48,
      "target": 34962
    },
    {
      "buffer": 0,
      "byteOffset": 1428,
      "byteLength": 12,
      "target": 34963
    },
    {
      "buffer": 0,
      "byteOffset": 1440,
      "byteLength": 48,
      "target": 34962
    },
    {
      "buffer": 0,
      "byteOffset": 1488,
      "byteLength": 12,
      "target": 34963
    },
    {
      "buffer": 0,
      "byteOffset": 1500,
      "byteLength": 48,
      "target": 34962
    },
    {
      "buffer": 0,
      "byteOffset": 1548,
      "byteLength": 12,
      "target": 34963
    },
    {
      "buffer": 0,
      "byteOffset": 1560,
      "byteLength": 48,
      "target": 34962
    },
    {
      "buffer": 0,
      "byteOffset": 1608,
      "byteLength": 12,
      "target": 34963
    },
    {
      "buffer": 0,
      "byteOffset": 1620,
      "byteLength": 48,
      "target": 34962
    },
    {
      "buffer": 0,
      "byteOffset": 1668,
      "byteLength": 12,
      "target": 34963
    }
  ],
  "accessors": [
    {
      "bufferView": 0,
      "componentType": 5126,
      "count": 4,
      "type": "VEC3",
      "max": [
        0.15000000596046448,
        0.019999999552965164,
        30.0
      ],
      "min": [
        -0.15000000596046448,
        0.019999999552965164,
        -30.0
      ]
    },
    {
      "bufferView": 1,
      "componentType": 5123,
      "count": 6,
      "type": "SCALAR"
    },
    {
      "bufferView": 2,
      "componentType": 5126,
      "count": 4,
      "type": "VEC3",
      "max": [
        0.11999999731779099,
        0.02199999988079071,
        -18.0
      ],
      "min": [
        -0.11999999731779099,
        0.02199999988079071,
        -22.0
      ]
    },
    {
      "bufferView": 3,
      "componentType": 5123,
      "count": 6,
      "type": "SCALAR"
    },
    {
      "bufferView": 4,
      "componentType": 5126,
      "count": 4,
      "type": "VEC3",
      "max": [
        0.11999999731779099,
        0.02199999988079071,
        -6.0
      ],
      "min": [
        -0.11999999731779099,
        0.02199999988079071,
        -10.0
      ]
    },
    {
      "bufferView": 5,
      "componentType": 5123,
      "count": 6,
      "type": "SCALAR"
    },
    {
      "bufferView": 6,
      "componentType": 5126,
      "count": 4,
      "type": "VEC3",
      "max": [
        0.11999999731779099,
        0.02199999988079071,
        10.0
      ],
      "min": [
        -0.11999999731779099,
        0.02199999988079071,
        6.0
      ]
    },
    {
      "bufferView": 7,
      "componentType": 5123,
      "count": 6,
      "type": "SCALAR"
    },
    {
      "bufferView": 8,
      "componentType": 5126,
      "count": 4,
      "type": "VEC3",
      "max": [
        0.11999999731779099,
        0.02199999988079071,
        22.0
      ],
      "min": [
        -0.11999999731779099,
        0.02199999988079071,
        18.0
      ]
    },
    {
      "bufferView": 9,
      "componentType": 5123,
      "count": 6,
      "type": "SCALAR"
    },
    {
      "bufferView": 10,
      "componentType": 5126,
      "count": 4,
      "type": "VEC3",
      "max": [
        -14.699999809265137,
        0.019999999552965164,
        30.0
      ],
      "min": [
        -15.0,
        0.019999999552965164,
        -30.0
      ]
    },
    {
      "bufferView": 11,
      "componentType": 5123,
      "count": 6,
      "type": "SCALAR"
    },
    {
      "bufferView": 12,
      "componentType": 5126,
      "count": 4,
      "type": "VEC3",
      "max": [
        15.0,
        0.019999999552965164,
        30.0
      ],
      "min": [
        14.699999809265137,
        0.019999999552965164,
        -30.0
      ]
    },
    {
      "bufferView": 13,
      "componentType": 5123,
      "count": 6,
      "type": "SCALAR"
    },
    {
      "bufferView": 14,
      "componentType": 5126,
      "count": 4,
      "type": "VEC3",
      "max": [
        15.0,
        0.02500000037252903,
        -28.5
      ],
      "min": [
        -15.0,
        0.02500000037252903,
        -30.0
      ]
    },
    {
      "bufferView": 15,
      "componentType": 5123,
      "count": 6,
      "type": "SCALAR"
    },
    {
      "bufferView": 16,
      "componentType": 5126,
      "count": 4,
      "type": "VEC3",
      "max": [
        -9.0,
        0.02800000086426735,
        -28.799999237060547
      ],
      "min": [
        -12.0,
        0.02800000086426735,
        -29.600000381469727
      ]
    },
    {
      "bufferView": 17,
      "componentType": 5123,
      "count": 6,
      "type": "SCALAR"
    },
    {
      "bufferView": 18,
      "componentType": 5126,
      "count": 4,
      "type": "VEC3",
      "max": [
        -3.0,
        0.02800000086426735,
        -28.799999237060547
      ],
      "min": [
        -6.0,
        0.02800000086426735,
        -29.600000381469727
      ]
    },
    {
      "bufferView": 19,
      "componentType": 5123,
      "count": 6,
      "type": "SCALAR"
    },
    {
      "bufferView": 20,
      "componentType": 5126,
      "count": 4,
      "type": "VEC3",
      "max": [
        6.0,
        0.02800000086426735,
        -28.799999237060547
      ],
      "min": [
        3.0,
        0.02800000086426735,
        -29.600000381469727
      ]
    },
    {
      "bufferView": 21,
      "componentType": 5123,
      "count": 6,
      "type": "SCALAR"
    },
    {
      "bufferView": 22,
      "componentType": 5126,
      "count": 4,
      "type": "VEC3",
      "max": [
        12.0,
        0.02800000086426735,
        -28.799999237060547
      ],
      "min": [
        9.0,
        0.02800000086426735,
        -29.600000381469727
      ]
    },
    {
      "bufferView": 23,
      "componentType": 5123,
      "count": 6,
      "type": "SCALAR"
    },
    {
      "bufferView": 24,
      "componentType": 5126,
      "count": 4,
      "type": "VEC3",
      "max": [
        0.0,
        0.019999999552965164,
        0.10000000149011612
      ],
      "min": [
        -20.0,
        0.019999999552965164,
        -0.10000000149011612
      ]
    },
    {
      "bufferView": 25,
      "componentType": 5123,
      "count": 6,
      "type": "SCALAR"
    },
    {
      "bufferView": 26,
      "componentType": 5126,
      "count": 4,
      "type": "VEC3",
      "max": [
        20.0,
        0.019999999552965164,
        1.899999976158142
      ],
      "min": [
        -20.0,
        0.019999999552965164,
        1.75
      ]
    },
    {
      "bufferView": 27,
      "componentType": 5123,
      "count": 6,
      "type": "SCALAR"
    },
    {
      "bufferView": 28,
      "componentType": 5126,
      "count": 4,
      "type": "VEC3",
      "max": [
        20.0,
        0.019999999552965164,
        -1.75
      ],
      "min": [
        -20.0,
        0.019999999552965164,
        -1.899999976158142
      ]
    },
    {
      "bufferView": 29,
      "componentType": 5123,
      "count": 6,
      "type": "SCALAR"
    },
    {
      "bufferView": 30,
      "componentType": 5126,
      "count": 4,
      "type": "VEC3",
      "max": [
        -4.0,
        0.029999999329447746,
        8.300000190734863
      ],
      "min": [
        -8.0,
        0.029999999329447746,
        8.0
      ]
    },
    {
      "bufferView": 31,
      "componentType": 5123,
      "count": 6,
      "type": "SCALAR"
    },
    {
      "bufferView": 32,
      "componentType": 5126,
      "count": 4,
      "type": "VEC3",
      "max": [
        8.0,
        0.029999999329447746,
        8.300000190734863
      ],
      "min": [
        4.0,
        0.029999999329447746,
        8.0
      ]
    },
    {
      "bufferView": 33,
      "componentType": 5123,
      "count": 6,
      "type": "SCALAR"
    },
    {
      "bufferView": 34,
      "componentType": 5126,
      "count": 4,
      "type": "VEC3",
      "max": [
        16.0,
        0.029999999329447746,
        8.300000190734863
      ],
      "min": [
        12.0,
        0.029999999329447746,
        8.0
      ]
    },
    {
      "bufferView": 35,
      "componentType": 5123,
      "count": 6,
      "type": "SCALAR"
    },
    {
      "bufferView": 36,
      "componentType": 5126,
      "count": 4,
      "type": "VEC3",
      "max": [
        -2.0,
        0.029999999329447746,
        4.25
      ],
      "min": [
        -6.0,
        0.029999999329447746,
        4.0
      ]
    },
    {
      "bufferView": 37,
      "componentType": 5123,
      "count": 6,
      "type": "SCALAR"
    },
    {
      "bufferView": 38,
      "componentType": 5126,
      "count": 4,
      "type": "VEC3",
      "max": [
        -2.0,
        0.029999999329447746,
        4.800000190734863
      ],
      "min": [
        -6.0,
        0.029999999329447746,
        4.550000190734863
      ]
    },
    {
      "bufferView": 39,
      "componentType": 5123,
      "count": 6,
      "type": "SCALAR"
    },
    {
      "bufferView": 40,
      "componentType": 5126,
      "count": 4,
      "type": "VEC3",
      "max": [
        5.5,
        0.029999999329447746,
        4.25
      ],
      "min": [
        2.0,
        0.029999999329447746,
        4.0
      ]
    },
    {
      "bufferView": 41,
      "componentType": 5123,
      "count": 6,
      "type": "SCALAR"
    },
    {
      "bufferView": 42,
      "componentType": 5126,
      "count": 4,
      "type": "VEC3",
      "max": [
        5.5,
        0.029999999329447746,
        4.800000190734863
      ],
      "min": [
        2.0,
        0.029999999329447746,
        4.550000190734863
      ]
    },
    {
      "bufferView": 43,
      "componentType": 5123,
      "count": 6,
      "type": "SCALAR"
    },
    {
      "bufferView": 44,
      "componentType": 5126,
      "count": 4,
      "type": "VEC3",
      "max": [
        0.800000011920929,
        0.029999999329447746,
        -6.0
      ],
      "min": [
        -2.0,
        0.029999999329447746,
        -8.0
      ]
    },
    {
      "bufferView": 45,
      "componentType": 5123,
      "count": 6,
      "type": "SCALAR"
    },
    {
      "bufferView": 46,
      "componentType": 5126,
      "count": 4,
      "type": "VEC3",
      "max": [
        0.800000011920929,
        0.029999999329447746,
        8.0
      ],
      "min": [
        -2.0,
        0.029999999329447746,
        6.0
      ]
    },
    {
      "bufferView": 47,
      "componentType": 5123,
      "count": 6,
      "type": "SCALAR"
    },
    {
      "bufferView": 48,
      "componentType": 5126,
      "count": 4,
      "type": "VEC3",
      "max": [
        0.699999988079071,
        0.02500000037252903,
        -5.5
      ],
      "min": [
        -0.699999988079071,
        0.02500000037252903,
        -6.5
      ]
    },
    {
      "bufferView": 49,
      "componentType": 5123,
      "count": 6,
      "type": "SCALAR"
    },
    {
      "bufferView": 50,
      "componentType": 5126,
      "count": 4,
      "type": "VEC3",
      "max": [
        0.699999988079071,
        0.02500000037252903,
        6.5
      ],
      "min": [
        -0.699999988079071,
        0.02500000037252903,
        5.5
      ]
    },
    {
      "bufferView": 51,
      "componentType": 5123,
      "count": 6,
      "type": "SCALAR"
    },
    {
      "bufferView": 52,
      "componentType": 5126,
      "count": 4,
      "type": "VEC3",
      "max": [
        10.0,
        0.02500000037252903,
        3.200000047683716
      ],
      "min": [
        8.0,
        0.02500000037252903,
        2.0
      ]
    },
    {
      "bufferView": 53,
      "componentType": 5123,
      "count": 6,
      "type": "SCALAR"
    },
    {
      "bufferView": 54,
      "componentType": 5126,
      "count": 4,
      "type": "VEC3",
      "max": [
        13.0,
        0.02500000037252903,
        3.200000047683716
      ],
      "min": [
        11.0,
        0.02500000037252903,
        2.0
      ]
    },
    {
      "bufferView": 55,
      "componentType": 5123,
      "count": 6,
      "type": "SCALAR"
    }
  ],
  "meshes": [
    {
      "name": "runway_centreline",
      "primitives": [
        {
          "attributes": {
            "POSITION": 0
          },
          "indices": 1,
          "mode": 4
        }
      ]
    },
    {
      "name": "runway_centre_dash_a",
      "primitives": [
        {
          "attributes": {
            "POSITION": 2
          },
          "indices": 3,
          "mode": 4
        }
      ]
    },
    {
      "name": "runway_centre_dash_b",
      "primitives": [
        {
          "attributes": {
            "POSITION": 4
          },
          "indices": 5,
          "mode": 4
        }
      ]
    },
    {
      "name": "runway_centre_dash_c",
      "primitives": [
        {
          "attributes": {
            "POSITION": 6
          },
          "indices": 7,
          "mode": 4
        }
      ]
    },
    {
      "name": "runway_centre_dash_d",
      "primitives": [
        {
          "attributes": {
            "POSITION": 8
          },
          "indices": 9,
          "mode": 4
        }
      ]
    },
    {
      "name": "runway_edge_left",
      "primitives": [
        {
          "attributes": {
            "POSITION": 10
          },
          "indices": 11,
          "mode": 4
        }
      ]
    },
    {
      "name": "runway_edge_right",
      "primitives": [
        {
          "attributes": {
            "POSITION": 12
          },
          "indices": 13,
          "mode": 4
        }
      ]
    },
    {
      "name": "runway_threshold",
      "primitives": [
        {
          "attributes": {
            "POSITION": 14
          },
          "indices": 15,
          "mode": 4
        }
      ]
    },
    {
      "name": "threshold_bar_a",
      "primitives": [
        {
          "attributes": {
            "POSITION": 16
          },
          "indices": 17,
          "mode": 4
        }
      ]
    },
    {
      "name": "threshold_bar_b",
      "primitives": [
        {
          "attributes": {
            "POSITION": 18
          },
          "indices": 19,
          "mode": 4
        }
      ]
    },
    {
      "name": "threshold_bar_c",
      "primitives": [
        {
          "attributes": {
            "POSITION": 20
          },
          "indices": 21,
          "mode": 4
        }
      ]
    },
    {
      "name": "threshold_bar_d",
      "primitives": [
        {
          "attributes": {
            "POSITION": 22
          },
          "indices": 23,
          "mode": 4
        }
      ]
    },
    {
      "name": "taxi_centreline",
      "primitives": [
        {
          "attributes": {
            "POSITION": 24
          },
          "indices": 25,
          "mode": 4
        }
      ]
    },
    {
      "name": "taxi_edge_n",
      "primitives": [
        {
          "attributes": {
            "POSITION": 26
          },
          "indices": 27,
          "mode": 4
        }
      ]
    },
    {
      "name": "taxi_edge_s",
      "primitives": [
        {
          "attributes": {
            "POSITION": 28
          },
          "indices": 29,
          "mode": 4
        }
      ]
    },
    {
      "name": "stand_stop_a",
      "primitives": [
        {
          "attributes": {
            "POSITION": 30
          },
          "indices": 31,
          "mode": 4
        }
      ]
    },
    {
      "name": "stand_stop_b",
      "primitives": [
        {
          "attributes": {
            "POSITION": 32
          },
          "indices": 33,
          "mode": 4
        }
      ]
    },
    {
      "name": "stand_stop_c",
      "primitives": [
        {
          "attributes": {
            "POSITION": 34
          },
          "indices": 35,
          "mode": 4
        }
      ]
    },
    {
      "name": "hold_short_a",
      "primitives": [
        {
          "attributes": {
            "POSITION": 36
          },
          "indices": 37,
          "mode": 4
        }
      ]
    },
    {
      "name": "hold_short_b",
      "primitives": [
        {
          "attributes": {
            "POSITION": 38
          },
          "indices": 39,
          "mode": 4
        }
      ]
    },
    {
      "name": "hold_short_c",
      "primitives": [
        {
          "attributes": {
            "POSITION": 40
          },
          "indices": 41,
          "mode": 4
        }
      ]
    },
    {
      "name": "hold_short_d",
      "primitives": [
        {
          "attributes": {
            "POSITION": 42
          },
          "indices": 43,
          "mode": 4
        }
      ]
    },
    {
      "name": "aiming_point_l",
      "primitives": [
        {
          "attributes": {
            "POSITION": 44
          },
          "indices": 45,
          "mode": 4
        }
      ]
    },
    {
      "name": "aiming_point_r",
      "primitives": [
        {
          "attributes": {
            "POSITION": 46
          },
          "indices": 47,
          "mode": 4
        }
      ]
    },
    {
      "name": "tdz_mark_l",
      "primitives": [
        {
          "attributes": {
            "POSITION": 48
          },
          "indices": 49,
          "mode": 4
        }
      ]
    },
    {
      "name": "tdz_mark_r",
      "primitives": [
        {
          "attributes": {
            "POSITION": 50
          },
          "indices": 51,
          "mode": 4
        }
      ]
    },
    {
      "name": "chevron_lead_a",
      "primitives": [
        {
          "attributes": {
            "POSITION": 52
          },
          "indices": 53,
          "mode": 4
        }
      ]
    },
    {
      "name": "chevron_lead_b",
      "primitives": [
        {
          "attributes": {
            "POSITION": 54
          },
          "indices": 55,
          "mode": 4
        }
      ]
    }
  ],
  "nodes": [
    {
      "name": "runway_centreline",
      "mesh": 0
    },
    {
      "name": "runway_centre_dash_a",
      "mesh": 1
    },
    {
      "name": "runway_centre_dash_b",
      "mesh": 2
    },
    {
      "name": "runway_centre_dash_c",
      "mesh": 3
    },
    {
      "name": "runway_centre_dash_d",
      "mesh": 4
    },
    {
      "name": "runway_edge_left",
      "mesh": 5
    },
    {
      "name": "runway_edge_right",
      "mesh": 6
    },
    {
      "name": "runway_threshold",
      "mesh": 7
    },
    {
      "name": "threshold_bar_a",
      "mesh": 8
    },
    {
      "name": "threshold_bar_b",
      "mesh": 9
    },
    {
      "name": "threshold_bar_c",
      "mesh": 10
    },
    {
      "name": "threshold_bar_d",
      "mesh": 11
    },
    {
      "name": "taxi_centreline",
      "mesh": 12
    },
    {
      "name": "taxi_edge_n",
      "mesh": 13
    },
    {
      "name": "taxi_edge_s",
      "mesh": 14
    },
    {
      "name": "stand_stop_a",
      "mesh": 15
    },
    {
      "name": "stand_stop_b",
      "mesh": 16
    },
    {
      "name": "stand_stop_c",
      "mesh": 17
    },
    {
      "name": "hold_short_a",
      "mesh": 18
    },
    {
      "name": "hold_short_b",
      "mesh": 19
    },
    {
      "name": "hold_short_c",
      "mesh": 20
    },
    {
      "name": "hold_short_d",
      "mesh": 21
    },
    {
      "name": "aiming_point_l",
      "mesh": 22
    },
    {
      "name": "aiming_point_r",
      "mesh": 23
    },
    {
      "name": "tdz_mark_l",
      "mesh": 24
    },
    {
      "name": "tdz_mark_r",
      "mesh": 25
    },
    {
      "name": "chevron_lead_a",
      "mesh": 26
    },
    {
      "name": "chevron_lead_b",
      "mesh": 27
    }
  ],
  "scenes": [
    {
      "name": "mdl_airfield_markings_kit_v01",
      "nodes": [
        0,
        1,
        2,
        3,
        4,
        5,
        6,
        7,
        8,
        9,
        10,
        11,
        12,
        13,
        14,
        15,
        16,
        17,
        18,
        19,
        20,
        21,
        22,
        23,
        24,
        25,
        26,
        27
      ]
    }
  ],
  "scene": 0
}