{
  "asset": {
    "version": "2.0",
    "generator": "Airside Batch C procedural kit"
  },
  "buffers": [
    {
      "uri": "mdl_operations_shed_v04.bin",
      "byteLength": 5400
    }
  ],
  "bufferViews": [
    {
      "buffer": 0,
      "byteOffset": 0,
      "byteLength": 288,
      "target": 34962
    },
    {
      "buffer": 0,
      "byteOffset": 288,
      "byteLength": 72,
      "target": 34963
    },
    {
      "buffer": 0,
      "byteOffset": 360,
      "byteLength": 288,
      "target": 34962
    },
    {
      "buffer": 0,
      "byteOffset": 648,
      "byteLength": 72,
      "target": 34963
    },
    {
      "buffer": 0,
      "byteOffset": 720,
      "byteLength": 288,
      "target": 34962
    },
    {
      "buffer": 0,
      "byteOffset": 1008,
      "byteLength": 72,
      "target": 34963
    },
    {
      "buffer": 0,
      "byteOffset": 1080,
      "byteLength": 288,
      "target": 34962
    },
    {
      "buffer": 0,
      "byteOffset": 1368,
      "byteLength": 72,
      "target": 34963
    },
    {
      "buffer": 0,
      "byteOffset": 1440,
      "byteLength": 288,
      "target": 34962
    },
    {
      "buffer": 0,
      "byteOffset": 1728,
      "byteLength": 72,
      "target": 34963
    },
    {
      "buffer": 0,
      "byteOffset": 1800,
      "byteLength": 288,
      "target": 34962
    },
    {
      "buffer": 0,
      "byteOffset": 2088,
      "byteLength": 72,
      "target": 34963
    },
    {
      "buffer": 0,
      "byteOffset": 2160,
      "byteLength": 288,
      "target": 34962
    },
    {
      "buffer": 0,
      "byteOffset": 2448,
      "byteLength": 72,
      "target": 34963
    },
    {
      "buffer": 0,
      "byteOffset": 2520,
      "byteLength": 288,
      "target": 34962
    },
    {
      "buffer": 0,
      "byteOffset": 2808,
      "byteLength": 72,
      "target": 34963
    },
    {
      "buffer": 0,
      "byteOffset": 2880,
      "byteLength": 288,
      "target": 34962
    },
    {
      "buffer": 0,
      "byteOffset": 3168,
      "byteLength": 72,
      "target": 34963
    },
    {
      "buffer": 0,
      "byteOffset": 3240,
      "byteLength": 288,
      "target": 34962
    },
    {
      "buffer": 0,
      "byteOffset": 3528,
      "byteLength": 72,
      "target": 34963
    },
    {
      "buffer": 0,
      "byteOffset": 3600,
      "byteLength": 288,
      "target": 34962
    },
    {
      "buffer": 0,
      "byteOffset": 3888,
      "byteLength": 72,
      "target": 34963
    },
    {
      "buffer": 0,
      "byteOffset": 3960,
      "byteLength": 288,
      "target": 34962
    },
    {
      "buffer": 0,
      "byteOffset": 4248,
      "byteLength": 72,
      "target": 34963
    },
    {
      "buffer": 0,
      "byteOffset": 4320,
      "byteLength": 288,
      "target": 34962
    },
    {
      "buffer": 0,
      "byteOffset": 4608,
      "byteLength": 72,
      "target": 34963
    },
    {
      "buffer": 0,
      "byteOffset": 4680,
      "byteLength": 288,
      "target": 34962
    },
    {
      "buffer": 0,
      "byteOffset": 4968,
      "byteLength": 72,
      "target": 34963
    },
    {
      "buffer": 0,
      "byteOffset": 5040,
      "byteLength": 288,
      "target": 34962
    },
    {
      "buffer": 0,
      "byteOffset": 5328,
      "byteLength": 72,
      "target": 34963
    }
  ],
  "accessors": [
    {
      "bufferView": 0,
      "componentType": 5126,
      "count": 24,
      "type": "VEC3",
      "max": [
        3.0,
        2.799999952316284,
        2.0
      ],
      "min": [
        -3.0,
        0.0,
        -2.0
      ]
    },
    {
      "bufferView": 1,
      "componentType": 5123,
      "count": 36,
      "type": "SCALAR"
    },
    {
      "bufferView": 2,
      "componentType": 5126,
      "count": 24,
      "type": "VEC3",
      "max": [
        1.5,
        2.0,
        2.9000000953674316
      ],
      "min": [
        -1.5,
        0.0,
        1.7000000476837158
      ]
    },
    {
      "bufferView": 3,
      "componentType": 5123,
      "count": 36,
      "type": "SCALAR"
    },
    {
      "bufferView": 4,
      "componentType": 5126,
      "count": 24,
      "type": "VEC3",
      "max": [
        1.7000000476837158,
        2.240000009536743,
        3.1500000953674316
      ],
      "min": [
        -1.7000000476837158,
        2.059999942779541,
        1.649999976158142
      ]
    },
    {
      "bufferView": 5,
      "componentType": 5123,
      "count": 36,
      "type": "SCALAR"
    },
    {
      "bufferView": 6,
      "componentType": 5126,
      "count": 24,
      "type": "VEC3",
      "max": [
        0.550000011920929,
        1.9500000476837158,
        2.9000000953674316
      ],
      "min": [
        -0.550000011920929,
        0.05000000074505806,
        2.799999952316284
      ]
    },
    {
      "bufferView": 7,
      "componentType": 5123,
      "count": 36,
      "type": "SCALAR"
    },
    {
      "bufferView": 8,
      "componentType": 5126,
      "count": 24,
      "type": "VEC3",
      "max": [
        -1.2999999523162842,
        2.049999952316284,
        2.0899999141693115
      ],
      "min": [
        -2.299999952316284,
        1.149999976158142,
        2.009999990463257
      ]
    },
    {
      "bufferView": 9,
      "componentType": 5123,
      "count": 36,
      "type": "SCALAR"
    },
    {
      "bufferView": 10,
      "componentType": 5126,
      "count": 24,
      "type": "VEC3",
      "max": [
        2.299999952316284,
        2.049999952316284,
        2.0899999141693115
      ],
      "min": [
        1.2999999523162842,
        1.149999976158142,
        2.009999990463257
      ]
    },
    {
      "bufferView": 11,
      "componentType": 5123,
      "count": 36,
      "type": "SCALAR"
    },
    {
      "bufferView": 12,
      "componentType": 5126,
      "count": 24,
      "type": "VEC3",
      "max": [
        -3.009999990463257,
        2.049999952316284,
        0.699999988079071
      ],
      "min": [
        -3.0899999141693115,
        1.149999976158142,
        -0.699999988079071
      ]
    },
    {
      "bufferView": 13,
      "componentType": 5123,
      "count": 36,
      "type": "SCALAR"
    },
    {
      "bufferView": 14,
      "componentType": 5126,
      "count": 24,
      "type": "VEC3",
      "max": [
        3.0899999141693115,
        2.049999952316284,
        0.699999988079071
      ],
      "min": [
        3.009999990463257,
        1.149999976158142,
        -0.699999988079071
      ]
    },
    {
      "bufferView": 15,
      "componentType": 5123,
      "count": 36,
      "type": "SCALAR"
    },
    {
      "bufferView": 16,
      "componentType": 5126,
      "count": 24,
      "type": "VEC3",
      "max": [
        3.0999999046325684,
        3.075000047683716,
        0.5
      ],
      "min": [
        -3.0999999046325684,
        2.825000047683716,
        -0.5
      ]
    },
    {
      "bufferView": 17,
      "componentType": 5123,
      "count": 36,
      "type": "SCALAR"
    },
    {
      "bufferView": 18,
      "componentType": 5126,
      "count": 24,
      "type": "VEC3",
      "max": [
        3.0,
        2.9100000858306885,
        1.899999976158142
      ],
      "min": [
        -3.0,
        2.7899999618530273,
        -1.899999976158142
      ]
    },
    {
      "bufferView": 19,
      "componentType": 5123,
      "count": 36,
      "type": "SCALAR"
    },
    {
      "bufferView": 20,
      "componentType": 5126,
      "count": 24,
      "type": "VEC3",
      "max": [
        1.840000033378601,
        4.199999809265137,
        -0.46000000834465027
      ],
      "min": [
        1.7599999904632568,
        3.0,
        -0.5400000214576721
      ]
    },
    {
      "bufferView": 21,
      "componentType": 5123,
      "count": 36,
      "type": "SCALAR"
    },
    {
      "bufferView": 22,
      "componentType": 5126,
      "count": 24,
      "type": "VEC3",
      "max": [
        2.0250000953674316,
        4.210000038146973,
        -0.2750000059604645
      ],
      "min": [
        1.5750000476837158,
        4.090000152587891,
        -0.7250000238418579
      ]
    },
    {
      "bufferView": 23,
      "componentType": 5123,
      "count": 36,
      "type": "SCALAR"
    },
    {
      "bufferView": 24,
      "componentType": 5126,
      "count": 24,
      "type": "VEC3",
      "max": [
        -0.8999999761581421,
        3.375,
        -0.3499999940395355
      ],
      "min": [
        -2.0999999046325684,
        2.924999952316284,
        -1.25
      ]
    },
    {
      "bufferView": 25,
      "componentType": 5123,
      "count": 36,
      "type": "SCALAR"
    },
    {
      "bufferView": 26,
      "componentType": 5126,
      "count": 24,
      "type": "VEC3",
      "max": [
        0.949999988079071,
        3.2750000953674316,
        -0.6499999761581421
      ],
      "min": [
        0.05000000074505806,
        2.924999952316284,
        -1.350000023841858
      ]
    },
    {
      "bufferView": 27,
      "componentType": 5123,
      "count": 36,
      "type": "SCALAR"
    },
    {
      "bufferView": 28,
      "componentType": 5126,
      "count": 24,
      "type": "VEC3",
      "max": [
        -1.7999999523162842,
        2.200000047683716,
        -1.350000023841858
      ],
      "min": [
        -2.5999999046325684,
        0.6000000238418579,
        -1.850000023841858
      ]
    },
    {
      "bufferView": 29,
      "componentType": 5123,
      "count": 36,
      "type": "SCALAR"
    }
  ],
  "meshes": [
    {
      "name": "shed_body",
      "primitives": [
        {
          "attributes": {
            "POSITION": 0
          },
          "indices": 1,
          "mode": 4
        }
      ]
    },
    {
      "name": "porch",
      "primitives": [
        {
          "attributes": {
            "POSITION": 2
          },
          "indices": 3,
          "mode": 4
        }
      ]
    },
    {
      "name": "porch_roof",
      "primitives": [
        {
          "attributes": {
            "POSITION": 4
          },
          "indices": 5,
          "mode": 4
        }
      ]
    },
    {
      "name": "door",
      "primitives": [
        {
          "attributes": {
            "POSITION": 6
          },
          "indices": 7,
          "mode": 4
        }
      ]
    },
    {
      "name": "window_l",
      "primitives": [
        {
          "attributes": {
            "POSITION": 8
          },
          "indices": 9,
          "mode": 4
        }
      ]
    },
    {
      "name": "window_r",
      "primitives": [
        {
          "attributes": {
            "POSITION": 10
          },
          "indices": 11,
          "mode": 4
        }
      ]
    },
    {
      "name": "window_side",
      "primitives": [
        {
          "attributes": {
            "POSITION": 12
          },
          "indices": 13,
          "mode": 4
        }
      ]
    },
    {
      "name": "window_side_b",
      "primitives": [
        {
          "attributes": {
            "POSITION": 14
          },
          "indices": 15,
          "mode": 4
        }
      ]
    },
    {
      "name": "roof_ridge",
      "primitives": [
        {
          "attributes": {
            "POSITION": 16
          },
          "indices": 17,
          "mode": 4
        }
      ]
    },
    {
      "name": "roof_panel",
      "primitives": [
        {
          "attributes": {
            "POSITION": 18
          },
          "indices": 19,
          "mode": 4
        }
      ]
    },
    {
      "name": "antenna_mast",
      "primitives": [
        {
          "attributes": {
            "POSITION": 20
          },
          "indices": 21,
          "mode": 4
        }
      ]
    },
    {
      "name": "antenna_dish",
      "primitives": [
        {
          "attributes": {
            "POSITION": 22
          },
          "indices": 23,
          "mode": 4
        }
      ]
    },
    {
      "name": "ac_unit",
      "primitives": [
        {
          "attributes": {
            "POSITION": 24
          },
          "indices": 25,
          "mode": 4
        }
      ]
    },
    {
      "name": "ac_unit_b",
      "primitives": [
        {
          "attributes": {
            "POSITION": 26
          },
          "indices": 27,
          "mode": 4
        }
      ]
    },
    {
      "name": "radio_rack",
      "primitives": [
        {
          "attributes": {
            "POSITION": 28
          },
          "indices": 29,
          "mode": 4
        }
      ]
    }
  ],
  "nodes": [
    {
      "name": "shed_body",
      "mesh": 0
    },
    {
      "name": "porch",
      "mesh": 1
    },
    {
      "name": "porch_roof",
      "mesh": 2
    },
    {
      "name": "door",
      "mesh": 3
    },
    {
      "name": "window_l",
      "mesh": 4
    },
    {
      "name": "window_r",
      "mesh": 5
    },
    {
      "name": "window_side",
      "mesh": 6
    },
    {
      "name": "window_side_b",
      "mesh": 7
    },
    {
      "name": "roof_ridge",
      "mesh": 8
    },
    {
      "name": "roof_panel",
      "mesh": 9
    },
    {
      "name": "antenna_mast",
      "mesh": 10
    },
    {
      "name": "antenna_dish",
      "mesh": 11
    },
    {
      "name": "ac_unit",
      "mesh": 12
    },
    {
      "name": "ac_unit_b",
      "mesh": 13
    },
    {
      "name": "radio_rack",
      "mesh": 14
    }
  ],
  "scenes": [
    {
      "name": "mdl_operations_shed_v04",
      "nodes": [
        0,
        1,
        2,
        3,
        4,
        5,
        6,
        7,
        8,
        9,
        10,
        11,
        12,
        13,
        14
      ]
    }
  ],
  "scene": 0
}