{
  "asset": {
    "version": "2.0",
    "generator": "Airside Batch C procedural kit"
  },
  "buffers": [
    {
      "uri": "mdl_terminal_regional_small_v01.bin",
      "byteLength": 1800
    }
  ],
  "bufferViews": [
    {
      "buffer": 0,
      "byteOffset": 0,
      "byteLength": 288,
      "target": 34962
    },
    {
      "buffer": 0,
      "byteOffset": 288,
      "byteLength": 72,
      "target": 34963
    },
    {
      "buffer": 0,
      "byteOffset": 360,
      "byteLength": 288,
      "target": 34962
    },
    {
      "buffer": 0,
      "byteOffset": 648,
      "byteLength": 72,
      "target": 34963
    },
    {
      "buffer": 0,
      "byteOffset": 720,
      "byteLength": 288,
      "target": 34962
    },
    {
      "buffer": 0,
      "byteOffset": 1008,
      "byteLength": 72,
      "target": 34963
    },
    {
      "buffer": 0,
      "byteOffset": 1080,
      "byteLength": 288,
      "target": 34962
    },
    {
      "buffer": 0,
      "byteOffset": 1368,
      "byteLength": 72,
      "target": 34963
    },
    {
      "buffer": 0,
      "byteOffset": 1440,
      "byteLength": 288,
      "target": 34962
    },
    {
      "buffer": 0,
      "byteOffset": 1728,
      "byteLength": 72,
      "target": 34963
    }
  ],
  "accessors": [
    {
      "bufferView": 0,
      "componentType": 5126,
      "count": 24,
      "type": "VEC3",
      "max": [
        11.0,
        4.400000095367432,
        2.5
      ],
      "min": [
        -11.0,
        0.0,
        -2.5
      ]
    },
    {
      "bufferView": 1,
      "componentType": 5123,
      "count": 36,
      "type": "SCALAR"
    },
    {
      "bufferView": 2,
      "componentType": 5126,
      "count": 24,
      "type": "VEC3",
      "max": [
        8.5,
        3.5,
        2.509999990463257
      ],
      "min": [
        -8.5,
        1.2999999523162842,
        2.390000104904175
      ]
    },
    {
      "bufferView": 3,
      "componentType": 5123,
      "count": 36,
      "type": "SCALAR"
    },
    {
      "bufferView": 4,
      "componentType": 5126,
      "count": 24,
      "type": "VEC3",
      "max": [
        -10.899999618530273,
        4.0,
        2.5999999046325684
      ],
      "min": [
        -12.100000381469727,
        0.0,
        -2.5999999046325684
      ]
    },
    {
      "bufferView": 5,
      "componentType": 5123,
      "count": 36,
      "type": "SCALAR"
    },
    {
      "bufferView": 6,
      "componentType": 5126,
      "count": 24,
      "type": "VEC3",
      "max": [
        12.100000381469727,
        4.0,
        2.5999999046325684
      ],
      "min": [
        10.899999618530273,
        0.0,
        -2.5999999046325684
      ]
    },
    {
      "bufferView": 7,
      "componentType": 5123,
      "count": 36,
      "type": "SCALAR"
    },
    {
      "bufferView": 8,
      "componentType": 5126,
      "count": 24,
      "type": "VEC3",
      "max": [
        10.0,
        2.799999952316284,
        -1.7000000476837158
      ],
      "min": [
        2.0,
        0.0,
        -4.699999809265137
      ]
    },
    {
      "bufferView": 9,
      "componentType": 5123,
      "count": 36,
      "type": "SCALAR"
    }
  ],
  "meshes": [
    {
      "name": "terminal_body",
      "primitives": [
        {
          "attributes": {
            "POSITION": 0
          },
          "indices": 1,
          "mode": 4
        }
      ]
    },
    {
      "name": "glass_front",
      "primitives": [
        {
          "attributes": {
            "POSITION": 2
          },
          "indices": 3,
          "mode": 4
        }
      ]
    },
    {
      "name": "end_cap_left",
      "primitives": [
        {
          "attributes": {
            "POSITION": 4
          },
          "indices": 5,
          "mode": 4
        }
      ]
    },
    {
      "name": "end_cap_right",
      "primitives": [
        {
          "attributes": {
            "POSITION": 6
          },
          "indices": 7,
          "mode": 4
        }
      ]
    },
    {
      "name": "service_wing",
      "primitives": [
        {
          "attributes": {
            "POSITION": 8
          },
          "indices": 9,
          "mode": 4
        }
      ]
    }
  ],
  "nodes": [
    {
      "name": "terminal_body",
      "mesh": 0
    },
    {
      "name": "glass_front",
      "mesh": 1
    },
    {
      "name": "end_cap_left",
      "mesh": 2
    },
    {
      "name": "end_cap_right",
      "mesh": 3
    },
    {
      "name": "service_wing",
      "mesh": 4
    }
  ],
  "scenes": [
    {
      "name": "mdl_terminal_regional_small_v01",
      "nodes": [
        0,
        1,
        2,
        3,
        4
      ]
    }
  ],
  "scene": 0
}