{
 "asset": {
  "version": "2.0",
  "generator": "Airside Batch C v03 lofted kit"
 },
 "buffers": [
  {
   "uri": "mdl_regional_turboprop_01_v04.bin",
   "byteLength": 81816
  }
 ],
 "bufferViews": [
  {
   "buffer": 0,
   "byteOffset": 0,
   "byteLength": 2928,
   "target": 34962
  },
  {
   "buffer": 0,
   "byteOffset": 2928,
   "byteLength": 3180,
   "target": 34963
  },
  {
   "buffer": 0,
   "byteOffset": 6108,
   "byteLength": 744,
   "target": 34962
  },
  {
   "buffer": 0,
   "byteOffset": 6852,
   "byteLength": 972,
   "target": 34963
  },
  {
   "buffer": 0,
   "byteOffset": 7824,
   "byteLength": 480,
   "target": 34962
  },
  {
   "buffer": 0,
   "byteOffset": 8304,
   "byteLength": 120,
   "target": 34963
  },
  {
   "buffer": 0,
   "byteOffset": 8424,
   "byteLength": 576,
   "target": 34962
  },
  {
   "buffer": 0,
   "byteOffset": 9000,
   "byteLength": 144,
   "target": 34963
  },
  {
   "buffer": 0,
   "byteOffset": 9144,
   "byteLength": 4800,
   "target": 34962
  },
  {
   "buffer": 0,
   "byteOffset": 13944,
   "byteLength": 1320,
   "target": 34963
  },
  {
   "buffer": 0,
   "byteOffset": 15264,
   "byteLength": 4800,
   "target": 34962
  },
  {
   "buffer": 0,
   "byteOffset": 20064,
   "byteLength": 1320,
   "target": 34963
  },
  {
   "buffer": 0,
   "byteOffset": 21384,
   "byteLength": 792,
   "target": 34962
  },
  {
   "buffer": 0,
   "byteOffset": 22176,
   "byteLength": 972,
   "target": 34963
  },
  {
   "buffer": 0,
   "byteOffset": 23148,
   "byteLength": 792,
   "target": 34962
  },
  {
   "buffer": 0,
   "byteOffset": 23940,
   "byteLength": 972,
   "target": 34963
  },
  {
   "buffer": 0,
   "byteOffset": 24912,
   "byteLength": 792,
   "target": 34962
  },
  {
   "buffer": 0,
   "byteOffset": 25704,
   "byteLength": 972,
   "target": 34963
  },
  {
   "buffer": 0,
   "byteOffset": 26676,
   "byteLength": 792,
   "target": 34962
  },
  {
   "buffer": 0,
   "byteOffset": 27468,
   "byteLength": 972,
   "target": 34963
  },
  {
   "buffer": 0,
   "byteOffset": 28440,
   "byteLength": 792,
   "target": 34962
  },
  {
   "buffer": 0,
   "byteOffset": 29232,
   "byteLength": 972,
   "target": 34963
  },
  {
   "buffer": 0,
   "byteOffset": 30204,
   "byteLength": 792,
   "target": 34962
  },
  {
   "buffer": 0,
   "byteOffset": 30996,
   "byteLength": 972,
   "target": 34963
  },
  {
   "buffer": 0,
   "byteOffset": 31968,
   "byteLength": 2448,
   "target": 34962
  },
  {
   "buffer": 0,
   "byteOffset": 34416,
   "byteLength": 612,
   "target": 34963
  },
  {
   "buffer": 0,
   "byteOffset": 35028,
   "byteLength": 2448,
   "target": 34962
  },
  {
   "buffer": 0,
   "byteOffset": 37476,
   "byteLength": 612,
   "target": 34963
  },
  {
   "buffer": 0,
   "byteOffset": 38088,
   "byteLength": 2448,
   "target": 34962
  },
  {
   "buffer": 0,
   "byteOffset": 40536,
   "byteLength": 612,
   "target": 34963
  },
  {
   "buffer": 0,
   "byteOffset": 41148,
   "byteLength": 2448,
   "target": 34962
  },
  {
   "buffer": 0,
   "byteOffset": 43596,
   "byteLength": 612,
   "target": 34963
  },
  {
   "buffer": 0,
   "byteOffset": 44208,
   "byteLength": 4800,
   "target": 34962
  },
  {
   "buffer": 0,
   "byteOffset": 49008,
   "byteLength": 1320,
   "target": 34963
  },
  {
   "buffer": 0,
   "byteOffset": 50328,
   "byteLength": 4800,
   "target": 34962
  },
  {
   "buffer": 0,
   "byteOffset": 55128,
   "byteLength": 1320,
   "target": 34963
  },
  {
   "buffer": 0,
   "byteOffset": 56448,
   "byteLength": 4800,
   "target": 34962
  },
  {
   "buffer": 0,
   "byteOffset": 61248,
   "byteLength": 1320,
   "target": 34963
  },
  {
   "buffer": 0,
   "byteOffset": 62568,
   "byteLength": 4800,
   "target": 34962
  },
  {
   "buffer": 0,
   "byteOffset": 67368,
   "byteLength": 1320,
   "target": 34963
  },
  {
   "buffer": 0,
   "byteOffset": 68688,
   "byteLength": 192,
   "target": 34962
  },
  {
   "buffer": 0,
   "byteOffset": 68880,
   "byteLength": 48,
   "target": 34963
  },
  {
   "buffer": 0,
   "byteOffset": 68928,
   "byteLength": 4800,
   "target": 34962
  },
  {
   "buffer": 0,
   "byteOffset": 73728,
   "byteLength": 1320,
   "target": 34963
  },
  {
   "buffer": 0,
   "byteOffset": 75048,
   "byteLength": 456,
   "target": 34962
  },
  {
   "buffer": 0,
   "byteOffset": 75504,
   "byteLength": 588,
   "target": 34963
  },
  {
   "buffer": 0,
   "byteOffset": 76092,
   "byteLength": 456,
   "target": 34962
  },
  {
   "buffer": 0,
   "byteOffset": 76548,
   "byteLength": 588,
   "target": 34963
  },
  {
   "buffer": 0,
   "byteOffset": 77136,
   "byteLength": 456,
   "target": 34962
  },
  {
   "buffer": 0,
   "byteOffset": 77592,
   "byteLength": 588,
   "target": 34963
  },
  {
   "buffer": 0,
   "byteOffset": 78180,
   "byteLength": 528,
   "target": 34962
  },
  {
   "buffer": 0,
   "byteOffset": 78708,
   "byteLength": 684,
   "target": 34963
  },
  {
   "buffer": 0,
   "byteOffset": 79392,
   "byteLength": 528,
   "target": 34962
  },
  {
   "buffer": 0,
   "byteOffset": 79920,
   "byteLength": 684,
   "target": 34963
  },
  {
   "buffer": 0,
   "byteOffset": 80604,
   "byteLength": 528,
   "target": 34962
  },
  {
   "buffer": 0,
   "byteOffset": 81132,
   "byteLength": 684,
   "target": 34963
  }
 ],
 "accessors": [
  {
   "bufferView": 0,
   "componentType": 5126,
   "count": 244,
   "type": "VEC3",
   "max": [
    0.7943623065948486,
    2.759490966796875,
    7.483271598815918
   ],
   "min": [
    -0.7943623065948486,
    0.7637231945991516,
    -7.533271789550781
   ]
  },
  {
   "bufferView": 1,
   "componentType": 5123,
   "count": 1590,
   "type": "SCALAR"
  },
  {
   "bufferView": 2,
   "componentType": 5126,
   "count": 62,
   "type": "VEC3",
   "max": [
    0.5799999833106995,
    2.069999933242798,
    7.513271808624268
   ],
   "min": [
    -0.5799999833106995,
    0.949999988079071,
    6.333271503448486
   ]
  },
  {
   "bufferView": 3,
   "componentType": 5123,
   "count": 486,
   "type": "SCALAR"
  },
  {
   "bufferView": 4,
   "componentType": 5126,
   "count": 40,
   "type": "VEC3",
   "max": [
    0.6259233951568604,
    2.365000009536743,
    6.38327169418335
   ],
   "min": [
    -0.6259233951568604,
    2.0321905612945557,
    5.183271884918213
   ]
  },
  {
   "bufferView": 5,
   "componentType": 5123,
   "count": 60,
   "type": "SCALAR"
  },
  {
   "bufferView": 6,
   "componentType": 5126,
   "count": 48,
   "type": "VEC3",
   "max": [
    0.7985148429870605,
    1.9531811475753784,
    3.0999999046325684
   ],
   "min": [
    -0.7985148429870605,
    1.6622239351272583,
    -4.199999809265137
   ]
  },
  {
   "bufferView": 7,
   "componentType": 5123,
   "count": 72,
   "type": "SCALAR"
  },
  {
   "bufferView": 8,
   "componentType": 5126,
   "count": 400,
   "type": "VEC3",
   "max": [
    -0.44999998807907104,
    2.6594855785369873,
    1.100000023841858
   ],
   "min": [
    -7.5,
    2.112544298171997,
    -0.3499999940395355
   ]
  },
  {
   "bufferView": 9,
   "componentType": 5123,
   "count": 660,
   "type": "SCALAR"
  },
  {
   "bufferView": 10,
   "componentType": 5126,
   "count": 400,
   "type": "VEC3",
   "max": [
    7.5,
    2.6594855785369873,
    1.100000023841858
   ],
   "min": [
    0.44999998807907104,
    2.112544298171997,
    -0.3499999940395355
   ]
  },
  {
   "bufferView": 11,
   "componentType": 5123,
   "count": 660,
   "type": "SCALAR"
  },
  {
   "bufferView": 12,
   "componentType": 5126,
   "count": 66,
   "type": "VEC3",
   "max": [
    -2.1700000762939453,
    2.3031516075134277,
    2.700000047683716
   ],
   "min": [
    -2.929999828338623,
    1.5631515979766846,
    1.0499999523162842
   ]
  },
  {
   "bufferView": 13,
   "componentType": 5123,
   "count": 486,
   "type": "SCALAR"
  },
  {
   "bufferView": 14,
   "componentType": 5126,
   "count": 66,
   "type": "VEC3",
   "max": [
    2.929999828338623,
    2.3031516075134277,
    2.700000047683716
   ],
   "min": [
    2.1700000762939453,
    1.5631515979766846,
    1.0499999523162842
   ]
  },
  {
   "bufferView": 15,
   "componentType": 5123,
   "count": 486,
   "type": "SCALAR"
  },
  {
   "bufferView": 16,
   "componentType": 5126,
   "count": 66,
   "type": "VEC3",
   "max": [
    -2.1499998569488525,
    2.3131515979766846,
    1.0499999523162842
   ],
   "min": [
    -2.950000047683716,
    1.4331516027450562,
    -1.0
   ]
  },
  {
   "bufferView": 17,
   "componentType": 5123,
   "count": 486,
   "type": "SCALAR"
  },
  {
   "bufferView": 18,
   "componentType": 5126,
   "count": 66,
   "type": "VEC3",
   "max": [
    2.950000047683716,
    2.3131515979766846,
    1.0499999523162842
   ],
   "min": [
    2.1499998569488525,
    1.4331516027450562,
    -1.0
   ]
  },
  {
   "bufferView": 19,
   "componentType": 5123,
   "count": 486,
   "type": "SCALAR"
  },
  {
   "bufferView": 20,
   "componentType": 5126,
   "count": 66,
   "type": "VEC3",
   "max": [
    -2.319999933242798,
    2.163151502609253,
    3.450000047683716
   ],
   "min": [
    -2.7799999713897705,
    1.7031515836715698,
    2.690000057220459
   ]
  },
  {
   "bufferView": 21,
   "componentType": 5123,
   "count": 486,
   "type": "SCALAR"
  },
  {
   "bufferView": 22,
   "componentType": 5126,
   "count": 66,
   "type": "VEC3",
   "max": [
    2.7799999713897705,
    2.163151502609253,
    3.450000047683716
   ],
   "min": [
    2.319999933242798,
    1.7031515836715698,
    2.690000057220459
   ]
  },
  {
   "bufferView": 23,
   "componentType": 5123,
   "count": 486,
   "type": "SCALAR"
  },
  {
   "bufferView": 24,
   "componentType": 5126,
   "count": 204,
   "type": "VEC3",
   "max": [
    -1.4603511095046997,
    2.9168152809143066,
    3.0842578411102295
   ],
   "min": [
    -3.1641063690185547,
    0.9494880437850952,
    3.015742063522339
   ]
  },
  {
   "bufferView": 25,
   "componentType": 5123,
   "count": 306,
   "type": "SCALAR"
  },
  {
   "bufferView": 26,
   "componentType": 5126,
   "count": 204,
   "type": "VEC3",
   "max": [
    -1.9358935356140137,
    2.9168152809143066,
    3.0842578411102295
   ],
   "min": [
    -3.639648914337158,
    0.9494880437850952,
    3.015742063522339
   ]
  },
  {
   "bufferView": 27,
   "componentType": 5123,
   "count": 306,
   "type": "SCALAR"
  },
  {
   "bufferView": 28,
   "componentType": 5126,
   "count": 204,
   "type": "VEC3",
   "max": [
    3.639648914337158,
    2.9168152809143066,
    3.0842578411102295
   ],
   "min": [
    1.9358935356140137,
    0.9494880437850952,
    3.015742063522339
   ]
  },
  {
   "bufferView": 29,
   "componentType": 5123,
   "count": 306,
   "type": "SCALAR"
  },
  {
   "bufferView": 30,
   "componentType": 5126,
   "count": 204,
   "type": "VEC3",
   "max": [
    3.1641063690185547,
    2.9168152809143066,
    3.0842578411102295
   ],
   "min": [
    1.4603511095046997,
    0.9494880437850952,
    3.015742063522339
   ]
  },
  {
   "bufferView": 31,
   "componentType": 5123,
   "count": 306,
   "type": "SCALAR"
  },
  {
   "bufferView": 32,
   "componentType": 5126,
   "count": 400,
   "type": "VEC3",
   "max": [
    0.11486401408910751,
    4.2421441078186035,
    -4.833271503448486
   ],
   "min": [
    -0.11486401408910751,
    1.850000023841858,
    -7.083271503448486
   ]
  },
  {
   "bufferView": 33,
   "componentType": 5123,
   "count": 660,
   "type": "SCALAR"
  },
  {
   "bufferView": 34,
   "componentType": 5126,
   "count": 400,
   "type": "VEC3",
   "max": [
    0.06317520886659622,
    4.055087089538574,
    -7.033271789550781
   ],
   "min": [
    -0.06317520886659622,
    1.9500000476837158,
    -8.093271255493164
   ]
  },
  {
   "bufferView": 35,
   "componentType": 5123,
   "count": 660,
   "type": "SCALAR"
  },
  {
   "bufferView": 36,
   "componentType": 5126,
   "count": 400,
   "type": "VEC3",
   "max": [
    2.75,
    4.189525604248047,
    -5.88327169418335
   ],
   "min": [
    0.0,
    3.975996255874634,
    -6.833271503448486
   ]
  },
  {
   "bufferView": 37,
   "componentType": 5123,
   "count": 660,
   "type": "SCALAR"
  },
  {
   "bufferView": 38,
   "componentType": 5126,
   "count": 400,
   "type": "VEC3",
   "max": [
    0.0,
    4.189525604248047,
    -5.88327169418335
   ],
   "min": [
    -2.75,
    3.975996255874634,
    -6.833271503448486
   ]
  },
  {
   "bufferView": 39,
   "componentType": 5123,
   "count": 660,
   "type": "SCALAR"
  },
  {
   "bufferView": 40,
   "componentType": 5126,
   "count": 16,
   "type": "VEC3",
   "max": [
    -0.7052584290504456,
    1.6571811437606812,
    2.950000047683716
   ],
   "min": [
    -0.8123785257339478,
    1.306807041168213,
    1.5499999523162842
   ]
  },
  {
   "bufferView": 41,
   "componentType": 5123,
   "count": 24,
   "type": "SCALAR"
  },
  {
   "bufferView": 42,
   "componentType": 5126,
   "count": 400,
   "type": "VEC3",
   "max": [
    0.03158760443329811,
    2.644644260406494,
    0.4000000059604645
   ],
   "min": [
    -0.03158760443329811,
    2.3046441078186035,
    -0.05000000074505806
   ]
  },
  {
   "bufferView": 43,
   "componentType": 5123,
   "count": 660,
   "type": "SCALAR"
  },
  {
   "bufferView": 44,
   "componentType": 5126,
   "count": 38,
   "type": "VEC3",
   "max": [
    0.09000000357627869,
    1.044999599456787,
    5.0232720375061035
   ],
   "min": [
    -0.09000000357627869,
    -0.005000114440917969,
    4.843271732330322
   ]
  },
  {
   "bufferView": 45,
   "componentType": 5123,
   "count": 294,
   "type": "SCALAR"
  },
  {
   "bufferView": 46,
   "componentType": 5126,
   "count": 38,
   "type": "VEC3",
   "max": [
    -2.450000047683716,
    1.100000023841858,
    -0.25
   ],
   "min": [
    -2.6499998569488525,
    5.960464477539063e-08,
    -0.44999998807907104
   ]
  },
  {
   "bufferView": 47,
   "componentType": 5123,
   "count": 294,
   "type": "SCALAR"
  },
  {
   "bufferView": 48,
   "componentType": 5126,
   "count": 38,
   "type": "VEC3",
   "max": [
    2.6499998569488525,
    1.100000023841858,
    -0.25
   ],
   "min": [
    2.450000047683716,
    5.960464477539063e-08,
    -0.44999998807907104
   ]
  },
  {
   "bufferView": 49,
   "componentType": 5123,
   "count": 294,
   "type": "SCALAR"
  },
  {
   "bufferView": 50,
   "componentType": 5126,
   "count": 44,
   "type": "VEC3",
   "max": [
    0.1099996566772461,
    0.5924783945083618,
    5.233272075653076
   ],
   "min": [
    -0.1100001335144043,
    0.007521629333496094,
    4.63327169418335
   ]
  },
  {
   "bufferView": 51,
   "componentType": 5123,
   "count": 342,
   "type": "SCALAR"
  },
  {
   "bufferView": 52,
   "componentType": 5126,
   "count": 44,
   "type": "VEC3",
   "max": [
    -2.4200000762939453,
    0.6714755296707153,
    -0.009999990463256836
   ],
   "min": [
    -2.680000066757202,
    0.008524507284164429,
    -0.6899999976158142
   ]
  },
  {
   "bufferView": 53,
   "componentType": 5123,
   "count": 342,
   "type": "SCALAR"
  },
  {
   "bufferView": 54,
   "componentType": 5126,
   "count": 44,
   "type": "VEC3",
   "max": [
    2.680000066757202,
    0.6714755296707153,
    -0.009999990463256836
   ],
   "min": [
    2.4200000762939453,
    0.008524507284164429,
    -0.6899999976158142
   ]
  },
  {
   "bufferView": 55,
   "componentType": 5123,
   "count": 342,
   "type": "SCALAR"
  }
 ],
 "meshes": [
  {
   "name": "fuselage",
   "primitives": [
    {
     "attributes": {
      "POSITION": 0
     },
     "indices": 1,
     "mode": 4
    }
   ]
  },
  {
   "name": "nose",
   "primitives": [
    {
     "attributes": {
      "POSITION": 2
     },
     "indices": 3,
     "mode": 4
    }
   ]
  },
  {
   "name": "cockpit",
   "primitives": [
    {
     "attributes": {
      "POSITION": 4
     },
     "indices": 5,
     "mode": 4
    }
   ]
  },
  {
   "name": "cabin_windows",
   "primitives": [
    {
     "attributes": {
      "POSITION": 6
     },
     "indices": 7,
     "mode": 4
    }
   ]
  },
  {
   "name": "wing_left",
   "primitives": [
    {
     "attributes": {
      "POSITION": 8
     },
     "indices": 9,
     "mode": 4
    }
   ]
  },
  {
   "name": "wing_right",
   "primitives": [
    {
     "attributes": {
      "POSITION": 10
     },
     "indices": 11,
     "mode": 4
    }
   ]
  },
  {
   "name": "engine_left",
   "primitives": [
    {
     "attributes": {
      "POSITION": 12
     },
     "indices": 13,
     "mode": 4
    }
   ]
  },
  {
   "name": "engine_right",
   "primitives": [
    {
     "attributes": {
      "POSITION": 14
     },
     "indices": 15,
     "mode": 4
    }
   ]
  },
  {
   "name": "nacelle_left",
   "primitives": [
    {
     "attributes": {
      "POSITION": 16
     },
     "indices": 17,
     "mode": 4
    }
   ]
  },
  {
   "name": "nacelle_right",
   "primitives": [
    {
     "attributes": {
      "POSITION": 18
     },
     "indices": 19,
     "mode": 4
    }
   ]
  },
  {
   "name": "spinner_left",
   "primitives": [
    {
     "attributes": {
      "POSITION": 20
     },
     "indices": 21,
     "mode": 4
    }
   ]
  },
  {
   "name": "spinner_right",
   "primitives": [
    {
     "attributes": {
      "POSITION": 22
     },
     "indices": 23,
     "mode": 4
    }
   ]
  },
  {
   "name": "propeller_left",
   "primitives": [
    {
     "attributes": {
      "POSITION": 24
     },
     "indices": 25,
     "mode": 4
    }
   ]
  },
  {
   "name": "propeller_left_b",
   "primitives": [
    {
     "attributes": {
      "POSITION": 26
     },
     "indices": 27,
     "mode": 4
    }
   ]
  },
  {
   "name": "propeller_right",
   "primitives": [
    {
     "attributes": {
      "POSITION": 28
     },
     "indices": 29,
     "mode": 4
    }
   ]
  },
  {
   "name": "propeller_right_b",
   "primitives": [
    {
     "attributes": {
      "POSITION": 30
     },
     "indices": 31,
     "mode": 4
    }
   ]
  },
  {
   "name": "tail_fin",
   "primitives": [
    {
     "attributes": {
      "POSITION": 32
     },
     "indices": 33,
     "mode": 4
    }
   ]
  },
  {
   "name": "rudder",
   "primitives": [
    {
     "attributes": {
      "POSITION": 34
     },
     "indices": 35,
     "mode": 4
    }
   ]
  },
  {
   "name": "tailplane",
   "primitives": [
    {
     "attributes": {
      "POSITION": 36
     },
     "indices": 37,
     "mode": 4
    }
   ]
  },
  {
   "name": "tailplane_left",
   "primitives": [
    {
     "attributes": {
      "POSITION": 38
     },
     "indices": 39,
     "mode": 4
    }
   ]
  },
  {
   "name": "door_fwd",
   "primitives": [
    {
     "attributes": {
      "POSITION": 40
     },
     "indices": 41,
     "mode": 4
    }
   ]
  },
  {
   "name": "antenna",
   "primitives": [
    {
     "attributes": {
      "POSITION": 42
     },
     "indices": 43,
     "mode": 4
    }
   ]
  },
  {
   "name": "gear_nose",
   "primitives": [
    {
     "attributes": {
      "POSITION": 44
     },
     "indices": 45,
     "mode": 4
    }
   ]
  },
  {
   "name": "gear_left",
   "primitives": [
    {
     "attributes": {
      "POSITION": 46
     },
     "indices": 47,
     "mode": 4
    }
   ]
  },
  {
   "name": "gear_right",
   "primitives": [
    {
     "attributes": {
      "POSITION": 48
     },
     "indices": 49,
     "mode": 4
    }
   ]
  },
  {
   "name": "tire_nose",
   "primitives": [
    {
     "attributes": {
      "POSITION": 50
     },
     "indices": 51,
     "mode": 4
    }
   ]
  },
  {
   "name": "tire_left",
   "primitives": [
    {
     "attributes": {
      "POSITION": 52
     },
     "indices": 53,
     "mode": 4
    }
   ]
  },
  {
   "name": "tire_right",
   "primitives": [
    {
     "attributes": {
      "POSITION": 54
     },
     "indices": 55,
     "mode": 4
    }
   ]
  }
 ],
 "nodes": [
  {
   "name": "fuselage",
   "mesh": 0
  },
  {
   "name": "nose",
   "mesh": 1
  },
  {
   "name": "cockpit",
   "mesh": 2
  },
  {
   "name": "cabin_windows",
   "mesh": 3
  },
  {
   "name": "wing_left",
   "mesh": 4
  },
  {
   "name": "wing_right",
   "mesh": 5
  },
  {
   "name": "engine_left",
   "mesh": 6
  },
  {
   "name": "engine_right",
   "mesh": 7
  },
  {
   "name": "nacelle_left",
   "mesh": 8
  },
  {
   "name": "nacelle_right",
   "mesh": 9
  },
  {
   "name": "spinner_left",
   "mesh": 10
  },
  {
   "name": "spinner_right",
   "mesh": 11
  },
  {
   "name": "propeller_left",
   "mesh": 12
  },
  {
   "name": "propeller_left_b",
   "mesh": 13
  },
  {
   "name": "propeller_right",
   "mesh": 14
  },
  {
   "name": "propeller_right_b",
   "mesh": 15
  },
  {
   "name": "tail_fin",
   "mesh": 16
  },
  {
   "name": "rudder",
   "mesh": 17
  },
  {
   "name": "tailplane",
   "mesh": 18
  },
  {
   "name": "tailplane_left",
   "mesh": 19
  },
  {
   "name": "door_fwd",
   "mesh": 20
  },
  {
   "name": "antenna",
   "mesh": 21
  },
  {
   "name": "gear_nose",
   "mesh": 22
  },
  {
   "name": "gear_left",
   "mesh": 23
  },
  {
   "name": "gear_right",
   "mesh": 24
  },
  {
   "name": "tire_nose",
   "mesh": 25
  },
  {
   "name": "tire_left",
   "mesh": 26
  },
  {
   "name": "tire_right",
   "mesh": 27
  }
 ],
 "scenes": [
  {
   "name": "mdl_regional_turboprop_01_v04",
   "nodes": [
    0,
    1,
    2,
    3,
    4,
    5,
    6,
    7,
    8,
    9,
    10,
    11,
    12,
    13,
    14,
    15,
    16,
    17,
    18,
    19,
    20,
    21,
    22,
    23,
    24,
    25,
    26,
    27
   ]
  }
 ],
 "scene": 0
}