{
  "asset": {
    "version": "2.0",
    "generator": "Airside Batch C procedural kit"
  },
  "buffers": [
    {
      "uri": "mdl_regional_turboprop_01_lofted_v01.bin",
      "byteLength": 28440
    }
  ],
  "bufferViews": [
    {
      "buffer": 0,
      "byteOffset": 0,
      "byteLength": 288,
      "target": 34962
    },
    {
      "buffer": 0,
      "byteOffset": 288,
      "byteLength": 72,
      "target": 34963
    },
    {
      "buffer": 0,
      "byteOffset": 360,
      "byteLength": 288,
      "target": 34962
    },
    {
      "buffer": 0,
      "byteOffset": 648,
      "byteLength": 72,
      "target": 34963
    },
    {
      "buffer": 0,
      "byteOffset": 720,
      "byteLength": 288,
      "target": 34962
    },
    {
      "buffer": 0,
      "byteOffset": 1008,
      "byteLength": 72,
      "target": 34963
    },
    {
      "buffer": 0,
      "byteOffset": 1080,
      "byteLength": 288,
      "target": 34962
    },
    {
      "buffer": 0,
      "byteOffset": 1368,
      "byteLength": 72,
      "target": 34963
    },
    {
      "buffer": 0,
      "byteOffset": 1440,
      "byteLength": 288,
      "target": 34962
    },
    {
      "buffer": 0,
      "byteOffset": 1728,
      "byteLength": 72,
      "target": 34963
    },
    {
      "buffer": 0,
      "byteOffset": 1800,
      "byteLength": 288,
      "target": 34962
    },
    {
      "buffer": 0,
      "byteOffset": 2088,
      "byteLength": 72,
      "target": 34963
    },
    {
      "buffer": 0,
      "byteOffset": 2160,
      "byteLength": 288,
      "target": 34962
    },
    {
      "buffer": 0,
      "byteOffset": 2448,
      "byteLength": 72,
      "target": 34963
    },
    {
      "buffer": 0,
      "byteOffset": 2520,
      "byteLength": 288,
      "target": 34962
    },
    {
      "buffer": 0,
      "byteOffset": 2808,
      "byteLength": 72,
      "target": 34963
    },
    {
      "buffer": 0,
      "byteOffset": 2880,
      "byteLength": 288,
      "target": 34962
    },
    {
      "buffer": 0,
      "byteOffset": 3168,
      "byteLength": 72,
      "target": 34963
    },
    {
      "buffer": 0,
      "byteOffset": 3240,
      "byteLength": 288,
      "target": 34962
    },
    {
      "buffer": 0,
      "byteOffset": 3528,
      "byteLength": 72,
      "target": 34963
    },
    {
      "buffer": 0,
      "byteOffset": 3600,
      "byteLength": 288,
      "target": 34962
    },
    {
      "buffer": 0,
      "byteOffset": 3888,
      "byteLength": 72,
      "target": 34963
    },
    {
      "buffer": 0,
      "byteOffset": 3960,
      "byteLength": 288,
      "target": 34962
    },
    {
      "buffer": 0,
      "byteOffset": 4248,
      "byteLength": 72,
      "target": 34963
    },
    {
      "buffer": 0,
      "byteOffset": 4320,
      "byteLength": 288,
      "target": 34962
    },
    {
      "buffer": 0,
      "byteOffset": 4608,
      "byteLength": 72,
      "target": 34963
    },
    {
      "buffer": 0,
      "byteOffset": 4680,
      "byteLength": 288,
      "target": 34962
    },
    {
      "buffer": 0,
      "byteOffset": 4968,
      "byteLength": 72,
      "target": 34963
    },
    {
      "buffer": 0,
      "byteOffset": 5040,
      "byteLength": 288,
      "target": 34962
    },
    {
      "buffer": 0,
      "byteOffset": 5328,
      "byteLength": 72,
      "target": 34963
    },
    {
      "buffer": 0,
      "byteOffset": 5400,
      "byteLength": 288,
      "target": 34962
    },
    {
      "buffer": 0,
      "byteOffset": 5688,
      "byteLength": 72,
      "target": 34963
    },
    {
      "buffer": 0,
      "byteOffset": 5760,
      "byteLength": 288,
      "target": 34962
    },
    {
      "buffer": 0,
      "byteOffset": 6048,
      "byteLength": 72,
      "target": 34963
    },
    {
      "buffer": 0,
      "byteOffset": 6120,
      "byteLength": 288,
      "target": 34962
    },
    {
      "buffer": 0,
      "byteOffset": 6408,
      "byteLength": 72,
      "target": 34963
    },
    {
      "buffer": 0,
      "byteOffset": 6480,
      "byteLength": 288,
      "target": 34962
    },
    {
      "buffer": 0,
      "byteOffset": 6768,
      "byteLength": 72,
      "target": 34963
    },
    {
      "buffer": 0,
      "byteOffset": 6840,
      "byteLength": 288,
      "target": 34962
    },
    {
      "buffer": 0,
      "byteOffset": 7128,
      "byteLength": 72,
      "target": 34963
    },
    {
      "buffer": 0,
      "byteOffset": 7200,
      "byteLength": 288,
      "target": 34962
    },
    {
      "buffer": 0,
      "byteOffset": 7488,
      "byteLength": 72,
      "target": 34963
    },
    {
      "buffer": 0,
      "byteOffset": 7560,
      "byteLength": 288,
      "target": 34962
    },
    {
      "buffer": 0,
      "byteOffset": 7848,
      "byteLength": 72,
      "target": 34963
    },
    {
      "buffer": 0,
      "byteOffset": 7920,
      "byteLength": 288,
      "target": 34962
    },
    {
      "buffer": 0,
      "byteOffset": 8208,
      "byteLength": 72,
      "target": 34963
    },
    {
      "buffer": 0,
      "byteOffset": 8280,
      "byteLength": 288,
      "target": 34962
    },
    {
      "buffer": 0,
      "byteOffset": 8568,
      "byteLength": 72,
      "target": 34963
    },
    {
      "buffer": 0,
      "byteOffset": 8640,
      "byteLength": 288,
      "target": 34962
    },
    {
      "buffer": 0,
      "byteOffset": 8928,
      "byteLength": 72,
      "target": 34963
    },
    {
      "buffer": 0,
      "byteOffset": 9000,
      "byteLength": 288,
      "target": 34962
    },
    {
      "buffer": 0,
      "byteOffset": 9288,
      "byteLength": 72,
      "target": 34963
    },
    {
      "buffer": 0,
      "byteOffset": 9360,
      "byteLength": 288,
      "target": 34962
    },
    {
      "buffer": 0,
      "byteOffset": 9648,
      "byteLength": 72,
      "target": 34963
    },
    {
      "buffer": 0,
      "byteOffset": 9720,
      "byteLength": 288,
      "target": 34962
    },
    {
      "buffer": 0,
      "byteOffset": 10008,
      "byteLength": 72,
      "target": 34963
    },
    {
      "buffer": 0,
      "byteOffset": 10080,
      "byteLength": 288,
      "target": 34962
    },
    {
      "buffer": 0,
      "byteOffset": 10368,
      "byteLength": 72,
      "target": 34963
    },
    {
      "buffer": 0,
      "byteOffset": 10440,
      "byteLength": 288,
      "target": 34962
    },
    {
      "buffer": 0,
      "byteOffset": 10728,
      "byteLength": 72,
      "target": 34963
    },
    {
      "buffer": 0,
      "byteOffset": 10800,
      "byteLength": 288,
      "target": 34962
    },
    {
      "buffer": 0,
      "byteOffset": 11088,
      "byteLength": 72,
      "target": 34963
    },
    {
      "buffer": 0,
      "byteOffset": 11160,
      "byteLength": 288,
      "target": 34962
    },
    {
      "buffer": 0,
      "byteOffset": 11448,
      "byteLength": 72,
      "target": 34963
    },
    {
      "buffer": 0,
      "byteOffset": 11520,
      "byteLength": 288,
      "target": 34962
    },
    {
      "buffer": 0,
      "byteOffset": 11808,
      "byteLength": 72,
      "target": 34963
    },
    {
      "buffer": 0,
      "byteOffset": 11880,
      "byteLength": 288,
      "target": 34962
    },
    {
      "buffer": 0,
      "byteOffset": 12168,
      "byteLength": 72,
      "target": 34963
    },
    {
      "buffer": 0,
      "byteOffset": 12240,
      "byteLength": 288,
      "target": 34962
    },
    {
      "buffer": 0,
      "byteOffset": 12528,
      "byteLength": 72,
      "target": 34963
    },
    {
      "buffer": 0,
      "byteOffset": 12600,
      "byteLength": 288,
      "target": 34962
    },
    {
      "buffer": 0,
      "byteOffset": 12888,
      "byteLength": 72,
      "target": 34963
    },
    {
      "buffer": 0,
      "byteOffset": 12960,
      "byteLength": 288,
      "target": 34962
    },
    {
      "buffer": 0,
      "byteOffset": 13248,
      "byteLength": 72,
      "target": 34963
    },
    {
      "buffer": 0,
      "byteOffset": 13320,
      "byteLength": 288,
      "target": 34962
    },
    {
      "buffer": 0,
      "byteOffset": 13608,
      "byteLength": 72,
      "target": 34963
    },
    {
      "buffer": 0,
      "byteOffset": 13680,
      "byteLength": 288,
      "target": 34962
    },
    {
      "buffer": 0,
      "byteOffset": 13968,
      "byteLength": 72,
      "target": 34963
    },
    {
      "buffer": 0,
      "byteOffset": 14040,
      "byteLength": 288,
      "target": 34962
    },
    {
      "buffer": 0,
      "byteOffset": 14328,
      "byteLength": 72,
      "target": 34963
    },
    {
      "buffer": 0,
      "byteOffset": 14400,
      "byteLength": 288,
      "target": 34962
    },
    {
      "buffer": 0,
      "byteOffset": 14688,
      "byteLength": 72,
      "target": 34963
    },
    {
      "buffer": 0,
      "byteOffset": 14760,
      "byteLength": 288,
      "target": 34962
    },
    {
      "buffer": 0,
      "byteOffset": 15048,
      "byteLength": 72,
      "target": 34963
    },
    {
      "buffer": 0,
      "byteOffset": 15120,
      "byteLength": 288,
      "target": 34962
    },
    {
      "buffer": 0,
      "byteOffset": 15408,
      "byteLength": 72,
      "target": 34963
    },
    {
      "buffer": 0,
      "byteOffset": 15480,
      "byteLength": 288,
      "target": 34962
    },
    {
      "buffer": 0,
      "byteOffset": 15768,
      "byteLength": 72,
      "target": 34963
    },
    {
      "buffer": 0,
      "byteOffset": 15840,
      "byteLength": 288,
      "target": 34962
    },
    {
      "buffer": 0,
      "byteOffset": 16128,
      "byteLength": 72,
      "target": 34963
    },
    {
      "buffer": 0,
      "byteOffset": 16200,
      "byteLength": 288,
      "target": 34962
    },
    {
      "buffer": 0,
      "byteOffset": 16488,
      "byteLength": 72,
      "target": 34963
    },
    {
      "buffer": 0,
      "byteOffset": 16560,
      "byteLength": 288,
      "target": 34962
    },
    {
      "buffer": 0,
      "byteOffset": 16848,
      "byteLength": 72,
      "target": 34963
    },
    {
      "buffer": 0,
      "byteOffset": 16920,
      "byteLength": 288,
      "target": 34962
    },
    {
      "buffer": 0,
      "byteOffset": 17208,
      "byteLength": 72,
      "target": 34963
    },
    {
      "buffer": 0,
      "byteOffset": 17280,
      "byteLength": 288,
      "target": 34962
    },
    {
      "buffer": 0,
      "byteOffset": 17568,
      "byteLength": 72,
      "target": 34963
    },
    {
      "buffer": 0,
      "byteOffset": 17640,
      "byteLength": 288,
      "target": 34962
    },
    {
      "buffer": 0,
      "byteOffset": 17928,
      "byteLength": 72,
      "target": 34963
    },
    {
      "buffer": 0,
      "byteOffset": 18000,
      "byteLength": 288,
      "target": 34962
    },
    {
      "buffer": 0,
      "byteOffset": 18288,
      "byteLength": 72,
      "target": 34963
    },
    {
      "buffer": 0,
      "byteOffset": 18360,
      "byteLength": 288,
      "target": 34962
    },
    {
      "buffer": 0,
      "byteOffset": 18648,
      "byteLength": 72,
      "target": 34963
    },
    {
      "buffer": 0,
      "byteOffset": 18720,
      "byteLength": 288,
      "target": 34962
    },
    {
      "buffer": 0,
      "byteOffset": 19008,
      "byteLength": 72,
      "target": 34963
    },
    {
      "buffer": 0,
      "byteOffset": 19080,
      "byteLength": 288,
      "target": 34962
    },
    {
      "buffer": 0,
      "byteOffset": 19368,
      "byteLength": 72,
      "target": 34963
    },
    {
      "buffer": 0,
      "byteOffset": 19440,
      "byteLength": 288,
      "target": 34962
    },
    {
      "buffer": 0,
      "byteOffset": 19728,
      "byteLength": 72,
      "target": 34963
    },
    {
      "buffer": 0,
      "byteOffset": 19800,
      "byteLength": 288,
      "target": 34962
    },
    {
      "buffer": 0,
      "byteOffset": 20088,
      "byteLength": 72,
      "target": 34963
    },
    {
      "buffer": 0,
      "byteOffset": 20160,
      "byteLength": 288,
      "target": 34962
    },
    {
      "buffer": 0,
      "byteOffset": 20448,
      "byteLength": 72,
      "target": 34963
    },
    {
      "buffer": 0,
      "byteOffset": 20520,
      "byteLength": 288,
      "target": 34962
    },
    {
      "buffer": 0,
      "byteOffset": 20808,
      "byteLength": 72,
      "target": 34963
    },
    {
      "buffer": 0,
      "byteOffset": 20880,
      "byteLength": 288,
      "target": 34962
    },
    {
      "buffer": 0,
      "byteOffset": 21168,
      "byteLength": 72,
      "target": 34963
    },
    {
      "buffer": 0,
      "byteOffset": 21240,
      "byteLength": 288,
      "target": 34962
    },
    {
      "buffer": 0,
      "byteOffset": 21528,
      "byteLength": 72,
      "target": 34963
    },
    {
      "buffer": 0,
      "byteOffset": 21600,
      "byteLength": 288,
      "target": 34962
    },
    {
      "buffer": 0,
      "byteOffset": 21888,
      "byteLength": 72,
      "target": 34963
    },
    {
      "buffer": 0,
      "byteOffset": 21960,
      "byteLength": 288,
      "target": 34962
    },
    {
      "buffer": 0,
      "byteOffset": 22248,
      "byteLength": 72,
      "target": 34963
    },
    {
      "buffer": 0,
      "byteOffset": 22320,
      "byteLength": 288,
      "target": 34962
    },
    {
      "buffer": 0,
      "byteOffset": 22608,
      "byteLength": 72,
      "target": 34963
    },
    {
      "buffer": 0,
      "byteOffset": 22680,
      "byteLength": 288,
      "target": 34962
    },
    {
      "buffer": 0,
      "byteOffset": 22968,
      "byteLength": 72,
      "target": 34963
    },
    {
      "buffer": 0,
      "byteOffset": 23040,
      "byteLength": 288,
      "target": 34962
    },
    {
      "buffer": 0,
      "byteOffset": 23328,
      "byteLength": 72,
      "target": 34963
    },
    {
      "buffer": 0,
      "byteOffset": 23400,
      "byteLength": 288,
      "target": 34962
    },
    {
      "buffer": 0,
      "byteOffset": 23688,
      "byteLength": 72,
      "target": 34963
    },
    {
      "buffer": 0,
      "byteOffset": 23760,
      "byteLength": 288,
      "target": 34962
    },
    {
      "buffer": 0,
      "byteOffset": 24048,
      "byteLength": 72,
      "target": 34963
    },
    {
      "buffer": 0,
      "byteOffset": 24120,
      "byteLength": 288,
      "target": 34962
    },
    {
      "buffer": 0,
      "byteOffset": 24408,
      "byteLength": 72,
      "target": 34963
    },
    {
      "buffer": 0,
      "byteOffset": 24480,
      "byteLength": 288,
      "target": 34962
    },
    {
      "buffer": 0,
      "byteOffset": 24768,
      "byteLength": 72,
      "target": 34963
    },
    {
      "buffer": 0,
      "byteOffset": 24840,
      "byteLength": 288,
      "target": 34962
    },
    {
      "buffer": 0,
      "byteOffset": 25128,
      "byteLength": 72,
      "target": 34963
    },
    {
      "buffer": 0,
      "byteOffset": 25200,
      "byteLength": 288,
      "target": 34962
    },
    {
      "buffer": 0,
      "byteOffset": 25488,
      "byteLength": 72,
      "target": 34963
    },
    {
      "buffer": 0,
      "byteOffset": 25560,
      "byteLength": 288,
      "target": 34962
    },
    {
      "buffer": 0,
      "byteOffset": 25848,
      "byteLength": 72,
      "target": 34963
    },
    {
      "buffer": 0,
      "byteOffset": 25920,
      "byteLength": 288,
      "target": 34962
    },
    {
      "buffer": 0,
      "byteOffset": 26208,
      "byteLength": 72,
      "target": 34963
    },
    {
      "buffer": 0,
      "byteOffset": 26280,
      "byteLength": 288,
      "target": 34962
    },
    {
      "buffer": 0,
      "byteOffset": 26568,
      "byteLength": 72,
      "target": 34963
    },
    {
      "buffer": 0,
      "byteOffset": 26640,
      "byteLength": 288,
      "target": 34962
    },
    {
      "buffer": 0,
      "byteOffset": 26928,
      "byteLength": 72,
      "target": 34963
    },
    {
      "buffer": 0,
      "byteOffset": 27000,
      "byteLength": 288,
      "target": 34962
    },
    {
      "buffer": 0,
      "byteOffset": 27288,
      "byteLength": 72,
      "target": 34963
    },
    {
      "buffer": 0,
      "byteOffset": 27360,
      "byteLength": 288,
      "target": 34962
    },
    {
      "buffer": 0,
      "byteOffset": 27648,
      "byteLength": 72,
      "target": 34963
    },
    {
      "buffer": 0,
      "byteOffset": 27720,
      "byteLength": 288,
      "target": 34962
    },
    {
      "buffer": 0,
      "byteOffset": 28008,
      "byteLength": 72,
      "target": 34963
    },
    {
      "buffer": 0,
      "byteOffset": 28080,
      "byteLength": 288,
      "target": 34962
    },
    {
      "buffer": 0,
      "byteOffset": 28368,
      "byteLength": 72,
      "target": 34963
    }
  ],
  "accessors": [
    {
      "bufferView": 0,
      "componentType": 5126,
      "count": 24,
      "type": "VEC3",
      "max": [
        0.2750000059604645,
        1.3250000476837158,
        5.574999809265137
      ],
      "min": [
        -0.2750000059604645,
        0.7749999761581421,
        5.125
      ]
    },
    {
      "bufferView": 1,
      "componentType": 5123,
      "count": 36,
      "type": "SCALAR"
    },
    {
      "bufferView": 2,
      "componentType": 5126,
      "count": 24,
      "type": "VEC3",
      "max": [
        0.38999998569488525,
        1.440000057220459,
        5.25
      ],
      "min": [
        -0.38999998569488525,
        0.6600000262260437,
        4.75
      ]
    },
    {
      "bufferView": 3,
      "componentType": 5123,
      "count": 36,
      "type": "SCALAR"
    },
    {
      "bufferView": 4,
      "componentType": 5126,
      "count": 24,
      "type": "VEC3",
      "max": [
        0.5,
        1.5800000429153442,
        4.824999809265137
      ],
      "min": [
        -0.5,
        0.5799999833106995,
        4.275000095367432
      ]
    },
    {
      "bufferView": 5,
      "componentType": 5123,
      "count": 36,
      "type": "SCALAR"
    },
    {
      "bufferView": 6,
      "componentType": 5126,
      "count": 24,
      "type": "VEC3",
      "max": [
        0.5400000214576721,
        1.8250000476837158,
        4.275000095367432
      ],
      "min": [
        -0.5400000214576721,
        0.875,
        3.125
      ]
    },
    {
      "bufferView": 7,
      "componentType": 5123,
      "count": 36,
      "type": "SCALAR"
    },
    {
      "bufferView": 8,
      "componentType": 5126,
      "count": 24,
      "type": "VEC3",
      "max": [
        0.5699999928474426,
        1.7400000095367432,
        4.300000190734863
      ],
      "min": [
        -0.5699999928474426,
        1.659999966621399,
        3.0999999046325684
      ]
    },
    {
      "bufferView": 9,
      "componentType": 5123,
      "count": 36,
      "type": "SCALAR"
    },
    {
      "bufferView": 10,
      "componentType": 5126,
      "count": 24,
      "type": "VEC3",
      "max": [
        0.6600000262260437,
        1.840000033378601,
        3.2249999046325684
      ],
      "min": [
        -0.6600000262260437,
        0.5199999809265137,
        1.875
      ]
    },
    {
      "bufferView": 11,
      "componentType": 5123,
      "count": 36,
      "type": "SCALAR"
    },
    {
      "bufferView": 12,
      "componentType": 5126,
      "count": 24,
      "type": "VEC3",
      "max": [
        0.6800000071525574,
        1.8600000143051147,
        1.774999976158142
      ],
      "min": [
        -0.6800000071525574,
        0.5,
        0.22499999403953552
      ]
    },
    {
      "bufferView": 13,
      "componentType": 5123,
      "count": 36,
      "type": "SCALAR"
    },
    {
      "bufferView": 14,
      "componentType": 5126,
      "count": 24,
      "type": "VEC3",
      "max": [
        0.6600000262260437,
        1.7999999523162842,
        0.22499999403953552
      ],
      "min": [
        -0.6600000262260437,
        0.5,
        -1.3250000476837158
      ]
    },
    {
      "bufferView": 15,
      "componentType": 5123,
      "count": 36,
      "type": "SCALAR"
    },
    {
      "bufferView": 16,
      "componentType": 5126,
      "count": 24,
      "type": "VEC3",
      "max": [
        0.5899999737739563,
        1.7100000381469727,
        -1.375
      ],
      "min": [
        -0.5899999737739563,
        0.5299999713897705,
        -2.825000047683716
      ]
    },
    {
      "bufferView": 17,
      "componentType": 5123,
      "count": 36,
      "type": "SCALAR"
    },
    {
      "bufferView": 18,
      "componentType": 5126,
      "count": 24,
      "type": "VEC3",
      "max": [
        0.4749999940395355,
        1.524999976158142,
        -2.75
      ],
      "min": [
        -0.4749999940395355,
        0.574999988079071,
        -3.950000047683716
      ]
    },
    {
      "bufferView": 19,
      "componentType": 5123,
      "count": 36,
      "type": "SCALAR"
    },
    {
      "bufferView": 20,
      "componentType": 5126,
      "count": 24,
      "type": "VEC3",
      "max": [
        0.44999998807907104,
        0.6800000071525574,
        2.299999952316284
      ],
      "min": [
        -0.44999998807907104,
        0.36000001430511475,
        -1.7000000476837158
      ]
    },
    {
      "bufferView": 21,
      "componentType": 5123,
      "count": 36,
      "type": "SCALAR"
    },
    {
      "bufferView": 22,
      "componentType": 5126,
      "count": 24,
      "type": "VEC3",
      "max": [
        0.7099999785423279,
        1.4500000476837158,
        2.700000047683716
      ],
      "min": [
        -0.7099999785423279,
        1.309999942779541,
        -1.7000000476837158
      ]
    },
    {
      "bufferView": 23,
      "componentType": 5123,
      "count": 36,
      "type": "SCALAR"
    },
    {
      "bufferView": 24,
      "componentType": 5126,
      "count": 24,
      "type": "VEC3",
      "max": [
        -0.6899999976158142,
        1.5199999809265137,
        2.25
      ],
      "min": [
        -0.75,
        1.2400000095367432,
        1.75
      ]
    },
    {
      "bufferView": 25,
      "componentType": 5123,
      "count": 36,
      "type": "SCALAR"
    },
    {
      "bufferView": 26,
      "componentType": 5126,
      "count": 24,
      "type": "VEC3",
      "max": [
        -0.6899999976158142,
        1.5199999809265137,
        1.350000023841858
      ],
      "min": [
        -0.75,
        1.2400000095367432,
        0.8500000238418579
      ]
    },
    {
      "bufferView": 27,
      "componentType": 5123,
      "count": 36,
      "type": "SCALAR"
    },
    {
      "bufferView": 28,
      "componentType": 5126,
      "count": 24,
      "type": "VEC3",
      "max": [
        -0.6899999976158142,
        1.5199999809265137,
        0.44999998807907104
      ],
      "min": [
        -0.75,
        1.2400000095367432,
        -0.05000000074505806
      ]
    },
    {
      "bufferView": 29,
      "componentType": 5123,
      "count": 36,
      "type": "SCALAR"
    },
    {
      "bufferView": 30,
      "componentType": 5126,
      "count": 24,
      "type": "VEC3",
      "max": [
        -0.6899999976158142,
        1.5199999809265137,
        -0.44999998807907104
      ],
      "min": [
        -0.75,
        1.2400000095367432,
        -0.949999988079071
      ]
    },
    {
      "bufferView": 31,
      "componentType": 5123,
      "count": 36,
      "type": "SCALAR"
    },
    {
      "bufferView": 32,
      "componentType": 5126,
      "count": 24,
      "type": "VEC3",
      "max": [
        -0.6899999976158142,
        1.5199999809265137,
        -1.350000023841858
      ],
      "min": [
        -0.75,
        1.2400000095367432,
        -1.850000023841858
      ]
    },
    {
      "bufferView": 33,
      "componentType": 5123,
      "count": 36,
      "type": "SCALAR"
    },
    {
      "bufferView": 34,
      "componentType": 5126,
      "count": 24,
      "type": "VEC3",
      "max": [
        0.75,
        1.5199999809265137,
        2.25
      ],
      "min": [
        0.6899999976158142,
        1.2400000095367432,
        1.75
      ]
    },
    {
      "bufferView": 35,
      "componentType": 5123,
      "count": 36,
      "type": "SCALAR"
    },
    {
      "bufferView": 36,
      "componentType": 5126,
      "count": 24,
      "type": "VEC3",
      "max": [
        0.75,
        1.5199999809265137,
        1.350000023841858
      ],
      "min": [
        0.6899999976158142,
        1.2400000095367432,
        0.8500000238418579
      ]
    },
    {
      "bufferView": 37,
      "componentType": 5123,
      "count": 36,
      "type": "SCALAR"
    },
    {
      "bufferView": 38,
      "componentType": 5126,
      "count": 24,
      "type": "VEC3",
      "max": [
        0.75,
        1.5199999809265137,
        0.44999998807907104
      ],
      "min": [
        0.6899999976158142,
        1.2400000095367432,
        -0.05000000074505806
      ]
    },
    {
      "bufferView": 39,
      "componentType": 5123,
      "count": 36,
      "type": "SCALAR"
    },
    {
      "bufferView": 40,
      "componentType": 5126,
      "count": 24,
      "type": "VEC3",
      "max": [
        0.75,
        1.5199999809265137,
        -0.44999998807907104
      ],
      "min": [
        0.6899999976158142,
        1.2400000095367432,
        -0.949999988079071
      ]
    },
    {
      "bufferView": 41,
      "componentType": 5123,
      "count": 36,
      "type": "SCALAR"
    },
    {
      "bufferView": 42,
      "componentType": 5126,
      "count": 24,
      "type": "VEC3",
      "max": [
        0.75,
        1.5199999809265137,
        -1.350000023841858
      ],
      "min": [
        0.6899999976158142,
        1.2400000095367432,
        -1.850000023841858
      ]
    },
    {
      "bufferView": 43,
      "componentType": 5123,
      "count": 36,
      "type": "SCALAR"
    },
    {
      "bufferView": 44,
      "componentType": 5126,
      "count": 24,
      "type": "VEC3",
      "max": [
        -0.949999988079071,
        1.1299999952316284,
        1.350000023841858
      ],
      "min": [
        -7.449999809265137,
        0.9700000286102295,
        -0.550000011920929
      ]
    },
    {
      "bufferView": 45,
      "componentType": 5123,
      "count": 36,
      "type": "SCALAR"
    },
    {
      "bufferView": 46,
      "componentType": 5126,
      "count": 24,
      "type": "VEC3",
      "max": [
        7.449999809265137,
        1.1299999952316284,
        1.350000023841858
      ],
      "min": [
        0.949999988079071,
        0.9700000286102295,
        -0.550000011920929
      ]
    },
    {
      "bufferView": 47,
      "componentType": 5123,
      "count": 36,
      "type": "SCALAR"
    },
    {
      "bufferView": 48,
      "componentType": 5126,
      "count": 24,
      "type": "VEC3",
      "max": [
        -0.5,
        1.2000000476837158,
        1.225000023841858
      ],
      "min": [
        -2.200000047683716,
        0.9599999785423279,
        -0.32499998807907104
      ]
    },
    {
      "bufferView": 49,
      "componentType": 5123,
      "count": 36,
      "type": "SCALAR"
    },
    {
      "bufferView": 50,
      "componentType": 5126,
      "count": 24,
      "type": "VEC3",
      "max": [
        2.200000047683716,
        1.2000000476837158,
        1.225000023841858
      ],
      "min": [
        0.5,
        0.9599999785423279,
        -0.32499998807907104
      ]
    },
    {
      "bufferView": 51,
      "componentType": 5123,
      "count": 36,
      "type": "SCALAR"
    },
    {
      "bufferView": 52,
      "componentType": 5126,
      "count": 24,
      "type": "VEC3",
      "max": [
        -1.850000023841858,
        1.125,
        1.100000023841858
      ],
      "min": [
        -2.950000047683716,
        0.7749999761581421,
        0.0
      ]
    },
    {
      "bufferView": 53,
      "componentType": 5123,
      "count": 36,
      "type": "SCALAR"
    },
    {
      "bufferView": 54,
      "componentType": 5126,
      "count": 24,
      "type": "VEC3",
      "max": [
        2.950000047683716,
        1.125,
        1.100000023841858
      ],
      "min": [
        1.850000023841858,
        0.7749999761581421,
        0.0
      ]
    },
    {
      "bufferView": 55,
      "componentType": 5123,
      "count": 36,
      "type": "SCALAR"
    },
    {
      "bufferView": 56,
      "componentType": 5126,
      "count": 24,
      "type": "VEC3",
      "max": [
        -1.600000023841858,
        1.0399999618530273,
        -0.125
      ],
      "min": [
        -4.800000190734863,
        0.9599999785423279,
        -0.574999988079071
      ]
    },
    {
      "bufferView": 57,
      "componentType": 5123,
      "count": 36,
      "type": "SCALAR"
    },
    {
      "bufferView": 58,
      "componentType": 5126,
      "count": 24,
      "type": "VEC3",
      "max": [
        4.800000190734863,
        1.0399999618530273,
        -0.125
      ],
      "min": [
        1.600000023841858,
        0.9599999785423279,
        -0.574999988079071
      ]
    },
    {
      "bufferView": 59,
      "componentType": 5123,
      "count": 36,
      "type": "SCALAR"
    },
    {
      "bufferView": 60,
      "componentType": 5126,
      "count": 24,
      "type": "VEC3",
      "max": [
        -1.7999999523162842,
        1.1449999809265137,
        0.22499999403953552
      ],
      "min": [
        -4.199999809265137,
        1.0950000286102295,
        -0.125
      ]
    },
    {
      "bufferView": 61,
      "componentType": 5123,
      "count": 36,
      "type": "SCALAR"
    },
    {
      "bufferView": 62,
      "componentType": 5126,
      "count": 24,
      "type": "VEC3",
      "max": [
        4.199999809265137,
        1.1449999809265137,
        0.22499999403953552
      ],
      "min": [
        1.7999999523162842,
        1.0950000286102295,
        -0.125
      ]
    },
    {
      "bufferView": 63,
      "componentType": 5123,
      "count": 36,
      "type": "SCALAR"
    },
    {
      "bufferView": 64,
      "componentType": 5126,
      "count": 24,
      "type": "VEC3",
      "max": [
        -5.300000190734863,
        1.0549999475479126,
        0.42500001192092896
      ],
      "min": [
        -7.099999904632568,
        0.9850000143051147,
        -0.125
      ]
    },
    {
      "bufferView": 65,
      "componentType": 5123,
      "count": 36,
      "type": "SCALAR"
    },
    {
      "bufferView": 66,
      "componentType": 5126,
      "count": 24,
      "type": "VEC3",
      "max": [
        7.099999904632568,
        1.0549999475479126,
        0.42500001192092896
      ],
      "min": [
        5.300000190734863,
        0.9850000143051147,
        -0.125
      ]
    },
    {
      "bufferView": 67,
      "componentType": 5123,
      "count": 36,
      "type": "SCALAR"
    },
    {
      "bufferView": 68,
      "componentType": 5126,
      "count": 24,
      "type": "VEC3",
      "max": [
        -7.175000190734863,
        1.1100000143051147,
        0.8999999761581421
      ],
      "min": [
        -7.525000095367432,
        0.9900000095367432,
        0.20000000298023224
      ]
    },
    {
      "bufferView": 69,
      "componentType": 5123,
      "count": 36,
      "type": "SCALAR"
    },
    {
      "bufferView": 70,
      "componentType": 5126,
      "count": 24,
      "type": "VEC3",
      "max": [
        7.525000095367432,
        1.1100000143051147,
        0.8999999761581421
      ],
      "min": [
        7.175000190734863,
        0.9900000095367432,
        0.20000000298023224
      ]
    },
    {
      "bufferView": 71,
      "componentType": 5123,
      "count": 36,
      "type": "SCALAR"
    },
    {
      "bufferView": 72,
      "componentType": 5126,
      "count": 24,
      "type": "VEC3",
      "max": [
        -7.389999866485596,
        1.725000023841858,
        0.675000011920929
      ],
      "min": [
        -7.510000228881836,
        1.0750000476837158,
        0.22499999403953552
      ]
    },
    {
      "bufferView": 73,
      "componentType": 5123,
      "count": 36,
      "type": "SCALAR"
    },
    {
      "bufferView": 74,
      "componentType": 5126,
      "count": 24,
      "type": "VEC3",
      "max": [
        7.510000228881836,
        1.725000023841858,
        0.675000011920929
      ],
      "min": [
        7.389999866485596,
        1.0750000476837158,
        0.22499999403953552
      ]
    },
    {
      "bufferView": 75,
      "componentType": 5123,
      "count": 36,
      "type": "SCALAR"
    },
    {
      "bufferView": 76,
      "componentType": 5126,
      "count": 24,
      "type": "VEC3",
      "max": [
        -2.009999990463257,
        1.2400000095367432,
        2.125
      ],
      "min": [
        -2.7899999618530273,
        0.46000000834465027,
        -0.02500000037252903
      ]
    },
    {
      "bufferView": 77,
      "componentType": 5123,
      "count": 36,
      "type": "SCALAR"
    },
    {
      "bufferView": 78,
      "componentType": 5126,
      "count": 24,
      "type": "VEC3",
      "max": [
        2.7899999618530273,
        1.2400000095367432,
        2.125
      ],
      "min": [
        2.009999990463257,
        0.46000000834465027,
        -0.02500000037252903
      ]
    },
    {
      "bufferView": 79,
      "componentType": 5123,
      "count": 36,
      "type": "SCALAR"
    },
    {
      "bufferView": 80,
      "componentType": 5126,
      "count": 24,
      "type": "VEC3",
      "max": [
        -2.109999895095825,
        0.7099999785423279,
        1.1749999523162842
      ],
      "min": [
        -2.690000057220459,
        0.33000001311302185,
        -0.07500000298023224
      ]
    },
    {
      "bufferView": 81,
      "componentType": 5123,
      "count": 36,
      "type": "SCALAR"
    },
    {
      "bufferView": 82,
      "componentType": 5126,
      "count": 24,
      "type": "VEC3",
      "max": [
        2.690000057220459,
        0.7099999785423279,
        1.1749999523162842
      ],
      "min": [
        2.109999895095825,
        0.33000001311302185,
        -0.07500000298023224
      ]
    },
    {
      "bufferView": 83,
      "componentType": 5123,
      "count": 36,
      "type": "SCALAR"
    },
    {
      "bufferView": 84,
      "componentType": 5126,
      "count": 24,
      "type": "VEC3",
      "max": [
        -2.109999895095825,
        1.190000057220459,
        2.190000057220459
      ],
      "min": [
        -2.690000057220459,
        0.7099999785423279,
        1.809999942779541
      ]
    },
    {
      "bufferView": 85,
      "componentType": 5123,
      "count": 36,
      "type": "SCALAR"
    },
    {
      "bufferView": 86,
      "componentType": 5126,
      "count": 24,
      "type": "VEC3",
      "max": [
        2.690000057220459,
        1.190000057220459,
        2.190000057220459
      ],
      "min": [
        2.109999895095825,
        0.7099999785423279,
        1.809999942779541
      ]
    },
    {
      "bufferView": 87,
      "componentType": 5123,
      "count": 36,
      "type": "SCALAR"
    },
    {
      "bufferView": 88,
      "componentType": 5126,
      "count": 24,
      "type": "VEC3",
      "max": [
        -2.2100000381469727,
        0.8399999737739563,
        0.07500000298023224
      ],
      "min": [
        -2.5899999141693115,
        0.5600000023841858,
        -0.4749999940395355
      ]
    },
    {
      "bufferView": 89,
      "componentType": 5123,
      "count": 36,
      "type": "SCALAR"
    },
    {
      "bufferView": 90,
      "componentType": 5126,
      "count": 24,
      "type": "VEC3",
      "max": [
        2.5899999141693115,
        0.8399999737739563,
        0.07500000298023224
      ],
      "min": [
        2.2100000381469727,
        0.5600000023841858,
        -0.4749999940395355
      ]
    },
    {
      "bufferView": 91,
      "componentType": 5123,
      "count": 36,
      "type": "SCALAR"
    },
    {
      "bufferView": 92,
      "componentType": 5126,
      "count": 24,
      "type": "VEC3",
      "max": [
        -2.359999895095825,
        2.075000047683716,
        2.3399999141693115
      ],
      "min": [
        -2.440000057220459,
        -0.375,
        2.1600000858306885
      ]
    },
    {
      "bufferView": 93,
      "componentType": 5123,
      "count": 36,
      "type": "SCALAR"
    },
    {
      "bufferView": 94,
      "componentType": 5126,
      "count": 24,
      "type": "VEC3",
      "max": [
        -1.1749999523162842,
        0.8899999856948853,
        2.3399999141693115
      ],
      "min": [
        -3.625,
        0.8100000023841858,
        2.1600000858306885
      ]
    },
    {
      "bufferView": 95,
      "componentType": 5123,
      "count": 36,
      "type": "SCALAR"
    },
    {
      "bufferView": 96,
      "componentType": 5126,
      "count": 24,
      "type": "VEC3",
      "max": [
        2.440000057220459,
        2.075000047683716,
        2.3399999141693115
      ],
      "min": [
        2.359999895095825,
        -0.375,
        2.1600000858306885
      ]
    },
    {
      "bufferView": 97,
      "componentType": 5123,
      "count": 36,
      "type": "SCALAR"
    },
    {
      "bufferView": 98,
      "componentType": 5126,
      "count": 24,
      "type": "VEC3",
      "max": [
        3.625,
        0.8899999856948853,
        2.3399999141693115
      ],
      "min": [
        1.1749999523162842,
        0.8100000023841858,
        2.1600000858306885
      ]
    },
    {
      "bufferView": 99,
      "componentType": 5123,
      "count": 36,
      "type": "SCALAR"
    },
    {
      "bufferView": 100,
      "componentType": 5126,
      "count": 24,
      "type": "VEC3",
      "max": [
        -2.25,
        1.0,
        2.609999895095825
      ],
      "min": [
        -2.549999952316284,
        0.699999988079071,
        2.2300000190734863
      ]
    },
    {
      "bufferView": 101,
      "componentType": 5123,
      "count": 36,
      "type": "SCALAR"
    },
    {
      "bufferView": 102,
      "componentType": 5126,
      "count": 24,
      "type": "VEC3",
      "max": [
        2.549999952316284,
        1.0,
        2.609999895095825
      ],
      "min": [
        2.25,
        0.699999988079071,
        2.2300000190734863
      ]
    },
    {
      "bufferView": 103,
      "componentType": 5123,
      "count": 36,
      "type": "SCALAR"
    },
    {
      "bufferView": 104,
      "componentType": 5126,
      "count": 24,
      "type": "VEC3",
      "max": [
        0.07000000029802322,
        3.674999952316284,
        -2.9749999046325684
      ],
      "min": [
        -0.07000000029802322,
        1.3250000476837158,
        -4.525000095367432
      ]
    },
    {
      "bufferView": 105,
      "componentType": 5123,
      "count": 36,
      "type": "SCALAR"
    },
    {
      "bufferView": 106,
      "componentType": 5126,
      "count": 24,
      "type": "VEC3",
      "max": [
        0.05999999865889549,
        3.75,
        -3.174999952316284
      ],
      "min": [
        -0.05999999865889549,
        3.3499999046325684,
        -3.924999952316284
      ]
    },
    {
      "bufferView": 107,
      "componentType": 5123,
      "count": 36,
      "type": "SCALAR"
    },
    {
      "bufferView": 108,
      "componentType": 5126,
      "count": 24,
      "type": "VEC3",
      "max": [
        1.75,
        1.840000033378601,
        -3.375
      ],
      "min": [
        -1.75,
        1.7200000286102295,
        -4.425000190734863
      ]
    },
    {
      "bufferView": 109,
      "componentType": 5123,
      "count": 36,
      "type": "SCALAR"
    },
    {
      "bufferView": 110,
      "componentType": 5126,
      "count": 24,
      "type": "VEC3",
      "max": [
        -0.4749999940395355,
        1.7799999713897705,
        -4.090000152587891
      ],
      "min": [
        -1.8250000476837158,
        1.7200000286102295,
        -4.510000228881836
      ]
    },
    {
      "bufferView": 111,
      "componentType": 5123,
      "count": 36,
      "type": "SCALAR"
    },
    {
      "bufferView": 112,
      "componentType": 5126,
      "count": 24,
      "type": "VEC3",
      "max": [
        1.8250000476837158,
        1.7799999713897705,
        -4.090000152587891
      ],
      "min": [
        0.4749999940395355,
        1.7200000286102295,
        -4.510000228881836
      ]
    },
    {
      "bufferView": 113,
      "componentType": 5123,
      "count": 36,
      "type": "SCALAR"
    },
    {
      "bufferView": 114,
      "componentType": 5126,
      "count": 24,
      "type": "VEC3",
      "max": [
        0.05000000074505806,
        3.4000000953674316,
        -4.159999847412109
      ],
      "min": [
        -0.05000000074505806,
        1.7000000476837158,
        -4.639999866485596
      ]
    },
    {
      "bufferView": 115,
      "componentType": 5123,
      "count": 36,
      "type": "SCALAR"
    },
    {
      "bufferView": 116,
      "componentType": 5126,
      "count": 24,
      "type": "VEC3",
      "max": [
        0.05000000074505806,
        2.125,
        -2.4000000953674316
      ],
      "min": [
        -0.05000000074505806,
        1.5750000476837158,
        -3.299999952316284
      ]
    },
    {
      "bufferView": 117,
      "componentType": 5123,
      "count": 36,
      "type": "SCALAR"
    },
    {
      "bufferView": 118,
      "componentType": 5126,
      "count": 24,
      "type": "VEC3",
      "max": [
        0.07000000029802322,
        0.7549999952316284,
        3.375
      ],
      "min": [
        -0.07000000029802322,
        0.004999999888241291,
        3.0250000953674316
      ]
    },
    {
      "bufferView": 119,
      "componentType": 5123,
      "count": 36,
      "type": "SCALAR"
    },
    {
      "bufferView": 120,
      "componentType": 5126,
      "count": 24,
      "type": "VEC3",
      "max": [
        -1.0800000429153442,
        0.6949999928474426,
        -0.125
      ],
      "min": [
        -1.2200000286102295,
        -0.054999999701976776,
        -0.574999988079071
      ]
    },
    {
      "bufferView": 121,
      "componentType": 5123,
      "count": 36,
      "type": "SCALAR"
    },
    {
      "bufferView": 122,
      "componentType": 5126,
      "count": 24,
      "type": "VEC3",
      "max": [
        1.2200000286102295,
        0.6949999928474426,
        -0.125
      ],
      "min": [
        1.0800000429153442,
        -0.054999999701976776,
        -0.574999988079071
      ]
    },
    {
      "bufferView": 123,
      "componentType": 5123,
      "count": 36,
      "type": "SCALAR"
    },
    {
      "bufferView": 124,
      "componentType": 5126,
      "count": 24,
      "type": "VEC3",
      "max": [
        0.2750000059604645,
        0.5799999833106995,
        3.549999952316284
      ],
      "min": [
        -0.2750000059604645,
        0.5199999809265137,
        2.8499999046325684
      ]
    },
    {
      "bufferView": 125,
      "componentType": 5123,
      "count": 36,
      "type": "SCALAR"
    },
    {
      "bufferView": 126,
      "componentType": 5126,
      "count": 24,
      "type": "VEC3",
      "max": [
        -0.824999988079071,
        0.5799999833106995,
        0.07500000298023224
      ],
      "min": [
        -1.475000023841858,
        0.5199999809265137,
        -0.7749999761581421
      ]
    },
    {
      "bufferView": 127,
      "componentType": 5123,
      "count": 36,
      "type": "SCALAR"
    },
    {
      "bufferView": 128,
      "componentType": 5126,
      "count": 24,
      "type": "VEC3",
      "max": [
        1.475000023841858,
        0.5799999833106995,
        0.07500000298023224
      ],
      "min": [
        0.824999988079071,
        0.5199999809265137,
        -0.7749999761581421
      ]
    },
    {
      "bufferView": 129,
      "componentType": 5123,
      "count": 36,
      "type": "SCALAR"
    },
    {
      "bufferView": 130,
      "componentType": 5126,
      "count": 24,
      "type": "VEC3",
      "max": [
        0.10999999940395355,
        0.23000000417232513,
        3.3399999141693115
      ],
      "min": [
        -0.10999999940395355,
        0.009999999776482582,
        3.059999942779541
      ]
    },
    {
      "bufferView": 131,
      "componentType": 5123,
      "count": 36,
      "type": "SCALAR"
    },
    {
      "bufferView": 132,
      "componentType": 5126,
      "count": 24,
      "type": "VEC3",
      "max": [
        -1.0099999904632568,
        0.25999999046325684,
        -0.23999999463558197
      ],
      "min": [
        -1.2899999618530273,
        -0.019999999552965164,
        -0.46000000834465027
      ]
    },
    {
      "bufferView": 133,
      "componentType": 5123,
      "count": 36,
      "type": "SCALAR"
    },
    {
      "bufferView": 134,
      "componentType": 5126,
      "count": 24,
      "type": "VEC3",
      "max": [
        1.2899999618530273,
        0.25999999046325684,
        -0.23999999463558197
      ],
      "min": [
        1.0099999904632568,
        -0.019999999552965164,
        -0.46000000834465027
      ]
    },
    {
      "bufferView": 135,
      "componentType": 5123,
      "count": 36,
      "type": "SCALAR"
    },
    {
      "bufferView": 136,
      "componentType": 5126,
      "count": 24,
      "type": "VEC3",
      "max": [
        -0.6600000262260437,
        1.625,
        2.7750000953674316
      ],
      "min": [
        -0.7400000095367432,
        0.574999988079071,
        1.524999976158142
      ]
    },
    {
      "bufferView": 137,
      "componentType": 5123,
      "count": 36,
      "type": "SCALAR"
    },
    {
      "bufferView": 138,
      "componentType": 5126,
      "count": 24,
      "type": "VEC3",
      "max": [
        0.7400000095367432,
        1.475000023841858,
        -0.699999988079071
      ],
      "min": [
        0.6600000262260437,
        0.5249999761581421,
        -2.299999952316284
      ]
    },
    {
      "bufferView": 139,
      "componentType": 5123,
      "count": 36,
      "type": "SCALAR"
    },
    {
      "bufferView": 140,
      "componentType": 5126,
      "count": 24,
      "type": "VEC3",
      "max": [
        0.029999999329447746,
        2.375,
        1.3300000429153442
      ],
      "min": [
        -0.029999999329447746,
        1.8250000476837158,
        1.2699999809265137
      ]
    },
    {
      "bufferView": 141,
      "componentType": 5123,
      "count": 36,
      "type": "SCALAR"
    },
    {
      "bufferView": 142,
      "componentType": 5126,
      "count": 24,
      "type": "VEC3",
      "max": [
        0.02500000037252903,
        2.4000000953674316,
        -1.6749999523162842
      ],
      "min": [
        -0.02500000037252903,
        2.0,
        -1.725000023841858
      ]
    },
    {
      "bufferView": 143,
      "componentType": 5123,
      "count": 36,
      "type": "SCALAR"
    },
    {
      "bufferView": 144,
      "componentType": 5126,
      "count": 24,
      "type": "VEC3",
      "max": [
        0.4699999988079071,
        1.1699999570846558,
        5.224999904632568
      ],
      "min": [
        0.4300000071525574,
        1.1299999952316284,
        4.875
      ]
    },
    {
      "bufferView": 145,
      "componentType": 5123,
      "count": 36,
      "type": "SCALAR"
    },
    {
      "bufferView": 146,
      "componentType": 5126,
      "count": 24,
      "type": "VEC3",
      "max": [
        -7.340000152587891,
        1.1399999856948853,
        0.6100000143051147
      ],
      "min": [
        -7.460000038146973,
        1.0199999809265137,
        0.49000000953674316
      ]
    },
    {
      "bufferView": 147,
      "componentType": 5123,
      "count": 36,
      "type": "SCALAR"
    },
    {
      "bufferView": 148,
      "componentType": 5126,
      "count": 24,
      "type": "VEC3",
      "max": [
        7.460000038146973,
        1.1399999856948853,
        0.6100000143051147
      ],
      "min": [
        7.340000152587891,
        1.0199999809265137,
        0.49000000953674316
      ]
    },
    {
      "bufferView": 149,
      "componentType": 5123,
      "count": 36,
      "type": "SCALAR"
    },
    {
      "bufferView": 150,
      "componentType": 5126,
      "count": 24,
      "type": "VEC3",
      "max": [
        0.07000000029802322,
        3.119999885559082,
        -3.3299999237060547
      ],
      "min": [
        -0.07000000029802322,
        2.9800000190734863,
        -3.4700000286102295
      ]
    },
    {
      "bufferView": 151,
      "componentType": 5123,
      "count": 36,
      "type": "SCALAR"
    },
    {
      "bufferView": 152,
      "componentType": 5126,
      "count": 24,
      "type": "VEC3",
      "max": [
        -2.509999990463257,
        1.0099999904632568,
        2.109999895095825
      ],
      "min": [
        -2.690000057220459,
        0.8899999856948853,
        1.9900000095367432
      ]
    },
    {
      "bufferView": 153,
      "componentType": 5123,
      "count": 36,
      "type": "SCALAR"
    },
    {
      "bufferView": 154,
      "componentType": 5126,
      "count": 24,
      "type": "VEC3",
      "max": [
        2.690000057220459,
        1.0099999904632568,
        2.109999895095825
      ],
      "min": [
        2.509999990463257,
        0.8899999856948853,
        1.9900000095367432
      ]
    },
    {
      "bufferView": 155,
      "componentType": 5123,
      "count": 36,
      "type": "SCALAR"
    },
    {
      "bufferView": 156,
      "componentType": 5126,
      "count": 24,
      "type": "VEC3",
      "max": [
        0.07999999821186066,
        0.6000000238418579,
        3.6600000858306885
      ],
      "min": [
        -0.07999999821186066,
        0.5,
        3.5399999618530273
      ]
    },
    {
      "bufferView": 157,
      "componentType": 5123,
      "count": 36,
      "type": "SCALAR"
    }
  ],
  "meshes": [
    {
      "name": "nose_tip",
      "primitives": [
        {
          "attributes": {
            "POSITION": 0
          },
          "indices": 1,
          "mode": 4
        }
      ]
    },
    {
      "name": "nose_ring_a",
      "primitives": [
        {
          "attributes": {
            "POSITION": 2
          },
          "indices": 3,
          "mode": 4
        }
      ]
    },
    {
      "name": "nose_ring_b",
      "primitives": [
        {
          "attributes": {
            "POSITION": 4
          },
          "indices": 5,
          "mode": 4
        }
      ]
    },
    {
      "name": "cockpit_loft",
      "primitives": [
        {
          "attributes": {
            "POSITION": 6
          },
          "indices": 7,
          "mode": 4
        }
      ]
    },
    {
      "name": "cockpit_frame",
      "primitives": [
        {
          "attributes": {
            "POSITION": 8
          },
          "indices": 9,
          "mode": 4
        }
      ]
    },
    {
      "name": "cabin_ring_fwd",
      "primitives": [
        {
          "attributes": {
            "POSITION": 10
          },
          "indices": 11,
          "mode": 4
        }
      ]
    },
    {
      "name": "cabin_ring_mid",
      "primitives": [
        {
          "attributes": {
            "POSITION": 12
          },
          "indices": 13,
          "mode": 4
        }
      ]
    },
    {
      "name": "cabin_ring_aft",
      "primitives": [
        {
          "attributes": {
            "POSITION": 14
          },
          "indices": 15,
          "mode": 4
        }
      ]
    },
    {
      "name": "cabin_ring_tail",
      "primitives": [
        {
          "attributes": {
            "POSITION": 16
          },
          "indices": 17,
          "mode": 4
        }
      ]
    },
    {
      "name": "tail_cone",
      "primitives": [
        {
          "attributes": {
            "POSITION": 18
          },
          "indices": 19,
          "mode": 4
        }
      ]
    },
    {
      "name": "belly_fairing",
      "primitives": [
        {
          "attributes": {
            "POSITION": 20
          },
          "indices": 21,
          "mode": 4
        }
      ]
    },
    {
      "name": "cabin_window_band",
      "primitives": [
        {
          "attributes": {
            "POSITION": 22
          },
          "indices": 23,
          "mode": 4
        }
      ]
    },
    {
      "name": "cabin_window_1",
      "primitives": [
        {
          "attributes": {
            "POSITION": 24
          },
          "indices": 25,
          "mode": 4
        }
      ]
    },
    {
      "name": "cabin_window_2",
      "primitives": [
        {
          "attributes": {
            "POSITION": 26
          },
          "indices": 27,
          "mode": 4
        }
      ]
    },
    {
      "name": "cabin_window_3",
      "primitives": [
        {
          "attributes": {
            "POSITION": 28
          },
          "indices": 29,
          "mode": 4
        }
      ]
    },
    {
      "name": "cabin_window_4",
      "primitives": [
        {
          "attributes": {
            "POSITION": 30
          },
          "indices": 31,
          "mode": 4
        }
      ]
    },
    {
      "name": "cabin_window_5",
      "primitives": [
        {
          "attributes": {
            "POSITION": 32
          },
          "indices": 33,
          "mode": 4
        }
      ]
    },
    {
      "name": "cabin_window_r1",
      "primitives": [
        {
          "attributes": {
            "POSITION": 34
          },
          "indices": 35,
          "mode": 4
        }
      ]
    },
    {
      "name": "cabin_window_r2",
      "primitives": [
        {
          "attributes": {
            "POSITION": 36
          },
          "indices": 37,
          "mode": 4
        }
      ]
    },
    {
      "name": "cabin_window_r3",
      "primitives": [
        {
          "attributes": {
            "POSITION": 38
          },
          "indices": 39,
          "mode": 4
        }
      ]
    },
    {
      "name": "cabin_window_r4",
      "primitives": [
        {
          "attributes": {
            "POSITION": 40
          },
          "indices": 41,
          "mode": 4
        }
      ]
    },
    {
      "name": "cabin_window_r5",
      "primitives": [
        {
          "attributes": {
            "POSITION": 42
          },
          "indices": 43,
          "mode": 4
        }
      ]
    },
    {
      "name": "wing_left",
      "primitives": [
        {
          "attributes": {
            "POSITION": 44
          },
          "indices": 45,
          "mode": 4
        }
      ]
    },
    {
      "name": "wing_right",
      "primitives": [
        {
          "attributes": {
            "POSITION": 46
          },
          "indices": 47,
          "mode": 4
        }
      ]
    },
    {
      "name": "wing_root_left",
      "primitives": [
        {
          "attributes": {
            "POSITION": 48
          },
          "indices": 49,
          "mode": 4
        }
      ]
    },
    {
      "name": "wing_root_right",
      "primitives": [
        {
          "attributes": {
            "POSITION": 50
          },
          "indices": 51,
          "mode": 4
        }
      ]
    },
    {
      "name": "wing_fairing_left",
      "primitives": [
        {
          "attributes": {
            "POSITION": 52
          },
          "indices": 53,
          "mode": 4
        }
      ]
    },
    {
      "name": "wing_fairing_right",
      "primitives": [
        {
          "attributes": {
            "POSITION": 54
          },
          "indices": 55,
          "mode": 4
        }
      ]
    },
    {
      "name": "flap_left",
      "primitives": [
        {
          "attributes": {
            "POSITION": 56
          },
          "indices": 57,
          "mode": 4
        }
      ]
    },
    {
      "name": "flap_right",
      "primitives": [
        {
          "attributes": {
            "POSITION": 58
          },
          "indices": 59,
          "mode": 4
        }
      ]
    },
    {
      "name": "spoiler_left",
      "primitives": [
        {
          "attributes": {
            "POSITION": 60
          },
          "indices": 61,
          "mode": 4
        }
      ]
    },
    {
      "name": "spoiler_right",
      "primitives": [
        {
          "attributes": {
            "POSITION": 62
          },
          "indices": 63,
          "mode": 4
        }
      ]
    },
    {
      "name": "aileron_left",
      "primitives": [
        {
          "attributes": {
            "POSITION": 64
          },
          "indices": 65,
          "mode": 4
        }
      ]
    },
    {
      "name": "aileron_right",
      "primitives": [
        {
          "attributes": {
            "POSITION": 66
          },
          "indices": 67,
          "mode": 4
        }
      ]
    },
    {
      "name": "wingtip_left",
      "primitives": [
        {
          "attributes": {
            "POSITION": 68
          },
          "indices": 69,
          "mode": 4
        }
      ]
    },
    {
      "name": "wingtip_right",
      "primitives": [
        {
          "attributes": {
            "POSITION": 70
          },
          "indices": 71,
          "mode": 4
        }
      ]
    },
    {
      "name": "winglet_left",
      "primitives": [
        {
          "attributes": {
            "POSITION": 72
          },
          "indices": 73,
          "mode": 4
        }
      ]
    },
    {
      "name": "winglet_right",
      "primitives": [
        {
          "attributes": {
            "POSITION": 74
          },
          "indices": 75,
          "mode": 4
        }
      ]
    },
    {
      "name": "engine_left",
      "primitives": [
        {
          "attributes": {
            "POSITION": 76
          },
          "indices": 77,
          "mode": 4
        }
      ]
    },
    {
      "name": "engine_right",
      "primitives": [
        {
          "attributes": {
            "POSITION": 78
          },
          "indices": 79,
          "mode": 4
        }
      ]
    },
    {
      "name": "nacelle_left",
      "primitives": [
        {
          "attributes": {
            "POSITION": 80
          },
          "indices": 81,
          "mode": 4
        }
      ]
    },
    {
      "name": "nacelle_right",
      "primitives": [
        {
          "attributes": {
            "POSITION": 82
          },
          "indices": 83,
          "mode": 4
        }
      ]
    },
    {
      "name": "intake_left",
      "primitives": [
        {
          "attributes": {
            "POSITION": 84
          },
          "indices": 85,
          "mode": 4
        }
      ]
    },
    {
      "name": "intake_right",
      "primitives": [
        {
          "attributes": {
            "POSITION": 86
          },
          "indices": 87,
          "mode": 4
        }
      ]
    },
    {
      "name": "exhaust_left",
      "primitives": [
        {
          "attributes": {
            "POSITION": 88
          },
          "indices": 89,
          "mode": 4
        }
      ]
    },
    {
      "name": "exhaust_right",
      "primitives": [
        {
          "attributes": {
            "POSITION": 90
          },
          "indices": 91,
          "mode": 4
        }
      ]
    },
    {
      "name": "propeller_left",
      "primitives": [
        {
          "attributes": {
            "POSITION": 92
          },
          "indices": 93,
          "mode": 4
        }
      ]
    },
    {
      "name": "propeller_left_b",
      "primitives": [
        {
          "attributes": {
            "POSITION": 94
          },
          "indices": 95,
          "mode": 4
        }
      ]
    },
    {
      "name": "propeller_right",
      "primitives": [
        {
          "attributes": {
            "POSITION": 96
          },
          "indices": 97,
          "mode": 4
        }
      ]
    },
    {
      "name": "propeller_right_b",
      "primitives": [
        {
          "attributes": {
            "POSITION": 98
          },
          "indices": 99,
          "mode": 4
        }
      ]
    },
    {
      "name": "spinner_left",
      "primitives": [
        {
          "attributes": {
            "POSITION": 100
          },
          "indices": 101,
          "mode": 4
        }
      ]
    },
    {
      "name": "spinner_right",
      "primitives": [
        {
          "attributes": {
            "POSITION": 102
          },
          "indices": 103,
          "mode": 4
        }
      ]
    },
    {
      "name": "tail_fin",
      "primitives": [
        {
          "attributes": {
            "POSITION": 104
          },
          "indices": 105,
          "mode": 4
        }
      ]
    },
    {
      "name": "tail_fin_tip",
      "primitives": [
        {
          "attributes": {
            "POSITION": 106
          },
          "indices": 107,
          "mode": 4
        }
      ]
    },
    {
      "name": "tailplane",
      "primitives": [
        {
          "attributes": {
            "POSITION": 108
          },
          "indices": 109,
          "mode": 4
        }
      ]
    },
    {
      "name": "elevator_left",
      "primitives": [
        {
          "attributes": {
            "POSITION": 110
          },
          "indices": 111,
          "mode": 4
        }
      ]
    },
    {
      "name": "elevator_right",
      "primitives": [
        {
          "attributes": {
            "POSITION": 112
          },
          "indices": 113,
          "mode": 4
        }
      ]
    },
    {
      "name": "rudder",
      "primitives": [
        {
          "attributes": {
            "POSITION": 114
          },
          "indices": 115,
          "mode": 4
        }
      ]
    },
    {
      "name": "dorsal_fin",
      "primitives": [
        {
          "attributes": {
            "POSITION": 116
          },
          "indices": 117,
          "mode": 4
        }
      ]
    },
    {
      "name": "gear_nose",
      "primitives": [
        {
          "attributes": {
            "POSITION": 118
          },
          "indices": 119,
          "mode": 4
        }
      ]
    },
    {
      "name": "gear_left",
      "primitives": [
        {
          "attributes": {
            "POSITION": 120
          },
          "indices": 121,
          "mode": 4
        }
      ]
    },
    {
      "name": "gear_right",
      "primitives": [
        {
          "attributes": {
            "POSITION": 122
          },
          "indices": 123,
          "mode": 4
        }
      ]
    },
    {
      "name": "gear_door_nose",
      "primitives": [
        {
          "attributes": {
            "POSITION": 124
          },
          "indices": 125,
          "mode": 4
        }
      ]
    },
    {
      "name": "gear_door_left",
      "primitives": [
        {
          "attributes": {
            "POSITION": 126
          },
          "indices": 127,
          "mode": 4
        }
      ]
    },
    {
      "name": "gear_door_right",
      "primitives": [
        {
          "attributes": {
            "POSITION": 128
          },
          "indices": 129,
          "mode": 4
        }
      ]
    },
    {
      "name": "tire_nose",
      "primitives": [
        {
          "attributes": {
            "POSITION": 130
          },
          "indices": 131,
          "mode": 4
        }
      ]
    },
    {
      "name": "tire_left",
      "primitives": [
        {
          "attributes": {
            "POSITION": 132
          },
          "indices": 133,
          "mode": 4
        }
      ]
    },
    {
      "name": "tire_right",
      "primitives": [
        {
          "attributes": {
            "POSITION": 134
          },
          "indices": 135,
          "mode": 4
        }
      ]
    },
    {
      "name": "door_fwd",
      "primitives": [
        {
          "attributes": {
            "POSITION": 136
          },
          "indices": 137,
          "mode": 4
        }
      ]
    },
    {
      "name": "cargo_door",
      "primitives": [
        {
          "attributes": {
            "POSITION": 138
          },
          "indices": 139,
          "mode": 4
        }
      ]
    },
    {
      "name": "antenna",
      "primitives": [
        {
          "attributes": {
            "POSITION": 140
          },
          "indices": 141,
          "mode": 4
        }
      ]
    },
    {
      "name": "antenna_aft",
      "primitives": [
        {
          "attributes": {
            "POSITION": 142
          },
          "indices": 143,
          "mode": 4
        }
      ]
    },
    {
      "name": "pitot",
      "primitives": [
        {
          "attributes": {
            "POSITION": 144
          },
          "indices": 145,
          "mode": 4
        }
      ]
    },
    {
      "name": "nav_light_left",
      "primitives": [
        {
          "attributes": {
            "POSITION": 146
          },
          "indices": 147,
          "mode": 4
        }
      ]
    },
    {
      "name": "nav_light_right",
      "primitives": [
        {
          "attributes": {
            "POSITION": 148
          },
          "indices": 149,
          "mode": 4
        }
      ]
    },
    {
      "name": "beacon_top",
      "primitives": [
        {
          "attributes": {
            "POSITION": 150
          },
          "indices": 151,
          "mode": 4
        }
      ]
    },
    {
      "name": "landing_light_l",
      "primitives": [
        {
          "attributes": {
            "POSITION": 152
          },
          "indices": 153,
          "mode": 4
        }
      ]
    },
    {
      "name": "landing_light_r",
      "primitives": [
        {
          "attributes": {
            "POSITION": 154
          },
          "indices": 155,
          "mode": 4
        }
      ]
    },
    {
      "name": "taxi_light",
      "primitives": [
        {
          "attributes": {
            "POSITION": 156
          },
          "indices": 157,
          "mode": 4
        }
      ]
    }
  ],
  "nodes": [
    {
      "name": "nose_tip",
      "mesh": 0
    },
    {
      "name": "nose_ring_a",
      "mesh": 1
    },
    {
      "name": "nose_ring_b",
      "mesh": 2
    },
    {
      "name": "cockpit_loft",
      "mesh": 3
    },
    {
      "name": "cockpit_frame",
      "mesh": 4
    },
    {
      "name": "cabin_ring_fwd",
      "mesh": 5
    },
    {
      "name": "cabin_ring_mid",
      "mesh": 6
    },
    {
      "name": "cabin_ring_aft",
      "mesh": 7
    },
    {
      "name": "cabin_ring_tail",
      "mesh": 8
    },
    {
      "name": "tail_cone",
      "mesh": 9
    },
    {
      "name": "belly_fairing",
      "mesh": 10
    },
    {
      "name": "cabin_window_band",
      "mesh": 11
    },
    {
      "name": "cabin_window_1",
      "mesh": 12
    },
    {
      "name": "cabin_window_2",
      "mesh": 13
    },
    {
      "name": "cabin_window_3",
      "mesh": 14
    },
    {
      "name": "cabin_window_4",
      "mesh": 15
    },
    {
      "name": "cabin_window_5",
      "mesh": 16
    },
    {
      "name": "cabin_window_r1",
      "mesh": 17
    },
    {
      "name": "cabin_window_r2",
      "mesh": 18
    },
    {
      "name": "cabin_window_r3",
      "mesh": 19
    },
    {
      "name": "cabin_window_r4",
      "mesh": 20
    },
    {
      "name": "cabin_window_r5",
      "mesh": 21
    },
    {
      "name": "wing_left",
      "mesh": 22
    },
    {
      "name": "wing_right",
      "mesh": 23
    },
    {
      "name": "wing_root_left",
      "mesh": 24
    },
    {
      "name": "wing_root_right",
      "mesh": 25
    },
    {
      "name": "wing_fairing_left",
      "mesh": 26
    },
    {
      "name": "wing_fairing_right",
      "mesh": 27
    },
    {
      "name": "flap_left",
      "mesh": 28
    },
    {
      "name": "flap_right",
      "mesh": 29
    },
    {
      "name": "spoiler_left",
      "mesh": 30
    },
    {
      "name": "spoiler_right",
      "mesh": 31
    },
    {
      "name": "aileron_left",
      "mesh": 32
    },
    {
      "name": "aileron_right",
      "mesh": 33
    },
    {
      "name": "wingtip_left",
      "mesh": 34
    },
    {
      "name": "wingtip_right",
      "mesh": 35
    },
    {
      "name": "winglet_left",
      "mesh": 36
    },
    {
      "name": "winglet_right",
      "mesh": 37
    },
    {
      "name": "engine_left",
      "mesh": 38
    },
    {
      "name": "engine_right",
      "mesh": 39
    },
    {
      "name": "nacelle_left",
      "mesh": 40
    },
    {
      "name": "nacelle_right",
      "mesh": 41
    },
    {
      "name": "intake_left",
      "mesh": 42
    },
    {
      "name": "intake_right",
      "mesh": 43
    },
    {
      "name": "exhaust_left",
      "mesh": 44
    },
    {
      "name": "exhaust_right",
      "mesh": 45
    },
    {
      "name": "propeller_left",
      "mesh": 46
    },
    {
      "name": "propeller_left_b",
      "mesh": 47
    },
    {
      "name": "propeller_right",
      "mesh": 48
    },
    {
      "name": "propeller_right_b",
      "mesh": 49
    },
    {
      "name": "spinner_left",
      "mesh": 50
    },
    {
      "name": "spinner_right",
      "mesh": 51
    },
    {
      "name": "tail_fin",
      "mesh": 52
    },
    {
      "name": "tail_fin_tip",
      "mesh": 53
    },
    {
      "name": "tailplane",
      "mesh": 54
    },
    {
      "name": "elevator_left",
      "mesh": 55
    },
    {
      "name": "elevator_right",
      "mesh": 56
    },
    {
      "name": "rudder",
      "mesh": 57
    },
    {
      "name": "dorsal_fin",
      "mesh": 58
    },
    {
      "name": "gear_nose",
      "mesh": 59
    },
    {
      "name": "gear_left",
      "mesh": 60
    },
    {
      "name": "gear_right",
      "mesh": 61
    },
    {
      "name": "gear_door_nose",
      "mesh": 62
    },
    {
      "name": "gear_door_left",
      "mesh": 63
    },
    {
      "name": "gear_door_right",
      "mesh": 64
    },
    {
      "name": "tire_nose",
      "mesh": 65
    },
    {
      "name": "tire_left",
      "mesh": 66
    },
    {
      "name": "tire_right",
      "mesh": 67
    },
    {
      "name": "door_fwd",
      "mesh": 68
    },
    {
      "name": "cargo_door",
      "mesh": 69
    },
    {
      "name": "antenna",
      "mesh": 70
    },
    {
      "name": "antenna_aft",
      "mesh": 71
    },
    {
      "name": "pitot",
      "mesh": 72
    },
    {
      "name": "nav_light_left",
      "mesh": 73
    },
    {
      "name": "nav_light_right",
      "mesh": 74
    },
    {
      "name": "beacon_top",
      "mesh": 75
    },
    {
      "name": "landing_light_l",
      "mesh": 76
    },
    {
      "name": "landing_light_r",
      "mesh": 77
    },
    {
      "name": "taxi_light",
      "mesh": 78
    }
  ],
  "scenes": [
    {
      "name": "mdl_regional_turboprop_01_lofted_v01",
      "nodes": [
        0,
        1,
        2,
        3,
        4,
        5,
        6,
        7,
        8,
        9,
        10,
        11,
        12,
        13,
        14,
        15,
        16,
        17,
        18,
        19,
        20,
        21,
        22,
        23,
        24,
        25,
        26,
        27,
        28,
        29,
        30,
        31,
        32,
        33,
        34,
        35,
        36,
        37,
        38,
        39,
        40,
        41,
        42,
        43,
        44,
        45,
        46,
        47,
        48,
        49,
        50,
        51,
        52,
        53,
        54,
        55,
        56,
        57,
        58,
        59,
        60,
        61,
        62,
        63,
        64,
        65,
        66,
        67,
        68,
        69,
        70,
        71,
        72,
        73,
        74,
        75,
        76,
        77,
        78
      ]
    }
  ],
  "scene": 0
}