{
  "asset": {
    "version": "2.0",
    "generator": "Airside Batch C procedural kit"
  },
  "buffers": [
    {
      "uri": "mdl_bell_412_rescue_v01.bin",
      "byteLength": 788476
    }
  ],
  "bufferViews": [
    {
      "buffer": 0,
      "byteOffset": 0,
      "byteLength": 66552,
      "target": 34962
    },
    {
      "buffer": 0,
      "byteOffset": 66552,
      "byteLength": 66528,
      "target": 34963
    },
    {
      "buffer": 0,
      "byteOffset": 133080,
      "byteLength": 2400,
      "target": 34962
    },
    {
      "buffer": 0,
      "byteOffset": 135480,
      "byteLength": 480,
      "target": 34963
    },
    {
      "buffer": 0,
      "byteOffset": 135960,
      "byteLength": 2400,
      "target": 34962
    },
    {
      "buffer": 0,
      "byteOffset": 138360,
      "byteLength": 480,
      "target": 34963
    },
    {
      "buffer": 0,
      "byteOffset": 138840,
      "byteLength": 2400,
      "target": 34962
    },
    {
      "buffer": 0,
      "byteOffset": 141240,
      "byteLength": 480,
      "target": 34963
    },
    {
      "buffer": 0,
      "byteOffset": 141720,
      "byteLength": 2160,
      "target": 34962
    },
    {
      "buffer": 0,
      "byteOffset": 143880,
      "byteLength": 432,
      "target": 34963
    },
    {
      "buffer": 0,
      "byteOffset": 144312,
      "byteLength": 2160,
      "target": 34962
    },
    {
      "buffer": 0,
      "byteOffset": 146472,
      "byteLength": 432,
      "target": 34963
    },
    {
      "buffer": 0,
      "byteOffset": 146904,
      "byteLength": 38040,
      "target": 34962
    },
    {
      "buffer": 0,
      "byteOffset": 184944,
      "byteLength": 38016,
      "target": 34963
    },
    {
      "buffer": 0,
      "byteOffset": 222960,
      "byteLength": 15624,
      "target": 34962
    },
    {
      "buffer": 0,
      "byteOffset": 238584,
      "byteLength": 15600,
      "target": 34963
    },
    {
      "buffer": 0,
      "byteOffset": 254184,
      "byteLength": 15024,
      "target": 34962
    },
    {
      "buffer": 0,
      "byteOffset": 269208,
      "byteLength": 15000,
      "target": 34963
    },
    {
      "buffer": 0,
      "byteOffset": 284208,
      "byteLength": 15024,
      "target": 34962
    },
    {
      "buffer": 0,
      "byteOffset": 299232,
      "byteLength": 15000,
      "target": 34963
    },
    {
      "buffer": 0,
      "byteOffset": 314232,
      "byteLength": 288,
      "target": 34962
    },
    {
      "buffer": 0,
      "byteOffset": 314520,
      "byteLength": 72,
      "target": 34963
    },
    {
      "buffer": 0,
      "byteOffset": 314592,
      "byteLength": 288,
      "target": 34962
    },
    {
      "buffer": 0,
      "byteOffset": 314880,
      "byteLength": 72,
      "target": 34963
    },
    {
      "buffer": 0,
      "byteOffset": 314952,
      "byteLength": 288,
      "target": 34962
    },
    {
      "buffer": 0,
      "byteOffset": 315240,
      "byteLength": 72,
      "target": 34963
    },
    {
      "buffer": 0,
      "byteOffset": 315312,
      "byteLength": 288,
      "target": 34962
    },
    {
      "buffer": 0,
      "byteOffset": 315600,
      "byteLength": 72,
      "target": 34963
    },
    {
      "buffer": 0,
      "byteOffset": 315672,
      "byteLength": 288,
      "target": 34962
    },
    {
      "buffer": 0,
      "byteOffset": 315960,
      "byteLength": 72,
      "target": 34963
    },
    {
      "buffer": 0,
      "byteOffset": 316032,
      "byteLength": 288,
      "target": 34962
    },
    {
      "buffer": 0,
      "byteOffset": 316320,
      "byteLength": 72,
      "target": 34963
    },
    {
      "buffer": 0,
      "byteOffset": 316392,
      "byteLength": 288,
      "target": 34962
    },
    {
      "buffer": 0,
      "byteOffset": 316680,
      "byteLength": 72,
      "target": 34963
    },
    {
      "buffer": 0,
      "byteOffset": 316752,
      "byteLength": 288,
      "target": 34962
    },
    {
      "buffer": 0,
      "byteOffset": 317040,
      "byteLength": 72,
      "target": 34963
    },
    {
      "buffer": 0,
      "byteOffset": 317112,
      "byteLength": 288,
      "target": 34962
    },
    {
      "buffer": 0,
      "byteOffset": 317400,
      "byteLength": 72,
      "target": 34963
    },
    {
      "buffer": 0,
      "byteOffset": 317472,
      "byteLength": 288,
      "target": 34962
    },
    {
      "buffer": 0,
      "byteOffset": 317760,
      "byteLength": 72,
      "target": 34963
    },
    {
      "buffer": 0,
      "byteOffset": 317832,
      "byteLength": 288,
      "target": 34962
    },
    {
      "buffer": 0,
      "byteOffset": 318120,
      "byteLength": 72,
      "target": 34963
    },
    {
      "buffer": 0,
      "byteOffset": 318192,
      "byteLength": 288,
      "target": 34962
    },
    {
      "buffer": 0,
      "byteOffset": 318480,
      "byteLength": 72,
      "target": 34963
    },
    {
      "buffer": 0,
      "byteOffset": 318552,
      "byteLength": 288,
      "target": 34962
    },
    {
      "buffer": 0,
      "byteOffset": 318840,
      "byteLength": 72,
      "target": 34963
    },
    {
      "buffer": 0,
      "byteOffset": 318912,
      "byteLength": 288,
      "target": 34962
    },
    {
      "buffer": 0,
      "byteOffset": 319200,
      "byteLength": 72,
      "target": 34963
    },
    {
      "buffer": 0,
      "byteOffset": 319272,
      "byteLength": 288,
      "target": 34962
    },
    {
      "buffer": 0,
      "byteOffset": 319560,
      "byteLength": 72,
      "target": 34963
    },
    {
      "buffer": 0,
      "byteOffset": 319632,
      "byteLength": 288,
      "target": 34962
    },
    {
      "buffer": 0,
      "byteOffset": 319920,
      "byteLength": 72,
      "target": 34963
    },
    {
      "buffer": 0,
      "byteOffset": 319992,
      "byteLength": 288,
      "target": 34962
    },
    {
      "buffer": 0,
      "byteOffset": 320280,
      "byteLength": 72,
      "target": 34963
    },
    {
      "buffer": 0,
      "byteOffset": 320352,
      "byteLength": 5184,
      "target": 34962
    },
    {
      "buffer": 0,
      "byteOffset": 325536,
      "byteLength": 5160,
      "target": 34963
    },
    {
      "buffer": 0,
      "byteOffset": 330696,
      "byteLength": 5184,
      "target": 34962
    },
    {
      "buffer": 0,
      "byteOffset": 335880,
      "byteLength": 5160,
      "target": 34963
    },
    {
      "buffer": 0,
      "byteOffset": 341040,
      "byteLength": 6984,
      "target": 34962
    },
    {
      "buffer": 0,
      "byteOffset": 348024,
      "byteLength": 6960,
      "target": 34963
    },
    {
      "buffer": 0,
      "byteOffset": 354984,
      "byteLength": 6984,
      "target": 34962
    },
    {
      "buffer": 0,
      "byteOffset": 361968,
      "byteLength": 6960,
      "target": 34963
    },
    {
      "buffer": 0,
      "byteOffset": 368928,
      "byteLength": 7224,
      "target": 34962
    },
    {
      "buffer": 0,
      "byteOffset": 376152,
      "byteLength": 7200,
      "target": 34963
    },
    {
      "buffer": 0,
      "byteOffset": 383352,
      "byteLength": 7224,
      "target": 34962
    },
    {
      "buffer": 0,
      "byteOffset": 390576,
      "byteLength": 7200,
      "target": 34963
    },
    {
      "buffer": 0,
      "byteOffset": 397776,
      "byteLength": 82272,
      "target": 34962
    },
    {
      "buffer": 0,
      "byteOffset": 480048,
      "byteLength": 15528,
      "target": 34963
    },
    {
      "buffer": 0,
      "byteOffset": 495576,
      "byteLength": 199752,
      "target": 34962
    },
    {
      "buffer": 0,
      "byteOffset": 695328,
      "byteLength": 34842,
      "target": 34963
    },
    {
      "buffer": 0,
      "byteOffset": 730172,
      "byteLength": 20208,
      "target": 34962
    },
    {
      "buffer": 0,
      "byteOffset": 750380,
      "byteLength": 4410,
      "target": 34963
    },
    {
      "buffer": 0,
      "byteOffset": 754792,
      "byteLength": 23904,
      "target": 34962
    },
    {
      "buffer": 0,
      "byteOffset": 778696,
      "byteLength": 4956,
      "target": 34963
    },
    {
      "buffer": 0,
      "byteOffset": 783652,
      "byteLength": 288,
      "target": 34962
    },
    {
      "buffer": 0,
      "byteOffset": 783940,
      "byteLength": 72,
      "target": 34963
    },
    {
      "buffer": 0,
      "byteOffset": 784012,
      "byteLength": 1920,
      "target": 34962
    },
    {
      "buffer": 0,
      "byteOffset": 785932,
      "byteLength": 384,
      "target": 34963
    },
    {
      "buffer": 0,
      "byteOffset": 786316,
      "byteLength": 288,
      "target": 34962
    },
    {
      "buffer": 0,
      "byteOffset": 786604,
      "byteLength": 72,
      "target": 34963
    },
    {
      "buffer": 0,
      "byteOffset": 786676,
      "byteLength": 288,
      "target": 34962
    },
    {
      "buffer": 0,
      "byteOffset": 786964,
      "byteLength": 72,
      "target": 34963
    },
    {
      "buffer": 0,
      "byteOffset": 787036,
      "byteLength": 288,
      "target": 34962
    },
    {
      "buffer": 0,
      "byteOffset": 787324,
      "byteLength": 72,
      "target": 34963
    },
    {
      "buffer": 0,
      "byteOffset": 787396,
      "byteLength": 288,
      "target": 34962
    },
    {
      "buffer": 0,
      "byteOffset": 787684,
      "byteLength": 72,
      "target": 34963
    },
    {
      "buffer": 0,
      "byteOffset": 787756,
      "byteLength": 288,
      "target": 34962
    },
    {
      "buffer": 0,
      "byteOffset": 788044,
      "byteLength": 72,
      "target": 34963
    },
    {
      "buffer": 0,
      "byteOffset": 788116,
      "byteLength": 288,
      "target": 34962
    },
    {
      "buffer": 0,
      "byteOffset": 788404,
      "byteLength": 72,
      "target": 34963
    }
  ],
  "accessors": [
    {
      "bufferView": 0,
      "componentType": 5126,
      "count": 5546,
      "type": "VEC3",
      "max": [
        1.350000023841858,
        3.3844664096832275,
        3.7400004863739014
      ],
      "min": [
        -1.350000023841858,
        0.37919551134109497,
        -2.669999599456787
      ]
    },
    {
      "bufferView": 1,
      "componentType": 5123,
      "count": 33264,
      "type": "SCALAR"
    },
    {
      "bufferView": 2,
      "componentType": 5126,
      "count": 200,
      "type": "VEC3",
      "max": [
        0.949999988079071,
        1.2200000286102295,
        2.0199999809265137
      ],
      "min": [
        -0.949999988079071,
        0.3799999952316284,
        -2.119999885559082
      ]
    },
    {
      "bufferView": 3,
      "componentType": 5123,
      "count": 240,
      "type": "SCALAR"
    },
    {
      "bufferView": 4,
      "componentType": 5126,
      "count": 200,
      "type": "VEC3",
      "max": [
        -0.09999999403953552,
        3.9200000762939453,
        0.46999993920326233
      ],
      "min": [
        -1.059999942779541,
        2.9200000762939453,
        -1.6699997186660767
      ]
    },
    {
      "bufferView": 5,
      "componentType": 5123,
      "count": 240,
      "type": "SCALAR"
    },
    {
      "bufferView": 6,
      "componentType": 5126,
      "count": 200,
      "type": "VEC3",
      "max": [
        1.059999942779541,
        3.9200000762939453,
        0.46999993920326233
      ],
      "min": [
        0.09999999403953552,
        2.9200000762939453,
        -1.6699997186660767
      ]
    },
    {
      "bufferView": 7,
      "componentType": 5123,
      "count": 240,
      "type": "SCALAR"
    },
    {
      "bufferView": 8,
      "componentType": 5126,
      "count": 180,
      "type": "VEC3",
      "max": [
        -0.2799999713897705,
        3.715442419052124,
        -1.3300002813339233
      ],
      "min": [
        -0.8799999952316284,
        3.1245577335357666,
        -1.9800001382827759
      ]
    },
    {
      "bufferView": 9,
      "componentType": 5123,
      "count": 216,
      "type": "SCALAR"
    },
    {
      "bufferView": 10,
      "componentType": 5126,
      "count": 180,
      "type": "VEC3",
      "max": [
        0.8799999952316284,
        3.715442419052124,
        -1.3300002813339233
      ],
      "min": [
        0.2799999713897705,
        3.1245577335357666,
        -1.9800001382827759
      ]
    },
    {
      "bufferView": 11,
      "componentType": 5123,
      "count": 216,
      "type": "SCALAR"
    },
    {
      "bufferView": 12,
      "componentType": 5126,
      "count": 3170,
      "type": "VEC3",
      "max": [
        0.7094430327415466,
        2.8195273876190186,
        -1.8799999952316284
      ],
      "min": [
        -0.7094430327415466,
        1.3705347776412964,
        -9.869999885559082
      ]
    },
    {
      "bufferView": 13,
      "componentType": 5123,
      "count": 19008,
      "type": "SCALAR"
    },
    {
      "bufferView": 14,
      "componentType": 5126,
      "count": 1302,
      "type": "VEC3",
      "max": [
        0.08000272512435913,
        4.559999942779541,
        -8.619999885559082
      ],
      "min": [
        -0.08000272512435913,
        2.5914182662963867,
        -10.0600004196167
      ]
    },
    {
      "bufferView": 15,
      "componentType": 5123,
      "count": 7800,
      "type": "SCALAR"
    },
    {
      "bufferView": 16,
      "componentType": 5126,
      "count": 1252,
      "type": "VEC3",
      "max": [
        0.0,
        2.6747934818267822,
        -7.769999980926514
      ],
      "min": [
        -2.0500006675720215,
        2.4375016689300537,
        -8.569999694824219
      ]
    },
    {
      "bufferView": 17,
      "componentType": 5123,
      "count": 7500,
      "type": "SCALAR"
    },
    {
      "bufferView": 18,
      "componentType": 5126,
      "count": 1252,
      "type": "VEC3",
      "max": [
        2.0500006675720215,
        2.6747934818267822,
        -7.769999980926514
      ],
      "min": [
        0.0,
        2.4375016689300537,
        -8.569999694824219
      ]
    },
    {
      "bufferView": 19,
      "componentType": 5123,
      "count": 7500,
      "type": "SCALAR"
    },
    {
      "bufferView": 20,
      "componentType": 5126,
      "count": 24,
      "type": "VEC3",
      "max": [
        0.07999999821186066,
        4.545000076293945,
        -0.20000000298023224
      ],
      "min": [
        -0.07999999821186066,
        3.494999885559082,
        -0.36000001430511475
      ]
    },
    {
      "bufferView": 21,
      "componentType": 5123,
      "count": 36,
      "type": "SCALAR"
    },
    {
      "bufferView": 22,
      "componentType": 5126,
      "count": 24,
      "type": "VEC3",
      "max": [
        0.3100000023841858,
        4.610000133514404,
        0.029999999329447746
      ],
      "min": [
        -0.3100000023841858,
        4.429999828338623,
        -0.5899999737739563
      ]
    },
    {
      "bufferView": 23,
      "componentType": 5123,
      "count": 36,
      "type": "SCALAR"
    },
    {
      "bufferView": 24,
      "componentType": 5126,
      "count": 24,
      "type": "VEC3",
      "max": [
        0.17000000178813934,
        4.627500057220459,
        6.670000076293945
      ],
      "min": [
        -0.17000000178813934,
        4.572500228881836,
        -0.2800000011920929
      ]
    },
    {
      "bufferView": 25,
      "componentType": 5123,
      "count": 36,
      "type": "SCALAR"
    },
    {
      "bufferView": 26,
      "componentType": 5126,
      "count": 24,
      "type": "VEC3",
      "max": [
        6.950000286102295,
        4.627500057220459,
        -0.10999999940395355
      ],
      "min": [
        -1.19209286886246e-09,
        4.572500228881836,
        -0.44999998807907104
      ]
    },
    {
      "bufferView": 27,
      "componentType": 5123,
      "count": 36,
      "type": "SCALAR"
    },
    {
      "bufferView": 28,
      "componentType": 5126,
      "count": 24,
      "type": "VEC3",
      "max": [
        0.17000000178813934,
        4.627500057220459,
        -0.2800000011920929
      ],
      "min": [
        -0.17000000178813934,
        4.572500228881836,
        -7.230000019073486
      ]
    },
    {
      "bufferView": 29,
      "componentType": 5123,
      "count": 36,
      "type": "SCALAR"
    },
    {
      "bufferView": 30,
      "componentType": 5126,
      "count": 24,
      "type": "VEC3",
      "max": [
        1.19209286886246e-09,
        4.627500057220459,
        -0.10999999940395355
      ],
      "min": [
        -6.950000286102295,
        4.572500228881836,
        -0.44999998807907104
      ]
    },
    {
      "bufferView": 31,
      "componentType": 5123,
      "count": 36,
      "type": "SCALAR"
    },
    {
      "bufferView": 32,
      "componentType": 5126,
      "count": 24,
      "type": "VEC3",
      "max": [
        0.3199999928474426,
        3.1600000858306885,
        -9.550000190734863
      ],
      "min": [
        0.03999999910593033,
        2.940000057220459,
        -9.770000457763672
      ]
    },
    {
      "bufferView": 33,
      "componentType": 5123,
      "count": 36,
      "type": "SCALAR"
    },
    {
      "bufferView": 34,
      "componentType": 5126,
      "count": 24,
      "type": "VEC3",
      "max": [
        0.3199999928474426,
        4.271547794342041,
        -8.940826416015625
      ],
      "min": [
        0.23999999463558197,
        2.9983582496643066,
        -9.757124900817871
      ]
    },
    {
      "bufferView": 35,
      "componentType": 5123,
      "count": 36,
      "type": "SCALAR"
    },
    {
      "bufferView": 36,
      "componentType": 5126,
      "count": 24,
      "type": "VEC3",
      "max": [
        0.3400000035762787,
        3.101641893386841,
        -9.562875747680664
      ],
      "min": [
        0.25999999046325684,
        1.8284523487091064,
        -10.37917423248291
      ]
    },
    {
      "bufferView": 37,
      "componentType": 5123,
      "count": 36,
      "type": "SCALAR"
    },
    {
      "bufferView": 38,
      "componentType": 5126,
      "count": 24,
      "type": "VEC3",
      "max": [
        -1.1549999713897705,
        0.33500000834465027,
        2.7750000953674316
      ],
      "min": [
        -1.284999966621399,
        0.20499999821186066,
        -2.674999952316284
      ]
    },
    {
      "bufferView": 39,
      "componentType": 5123,
      "count": 36,
      "type": "SCALAR"
    },
    {
      "bufferView": 40,
      "componentType": 5126,
      "count": 24,
      "type": "VEC3",
      "max": [
        -0.6395228505134583,
        1.08427095413208,
        1.5299999713897705
      ],
      "min": [
        -1.1172771453857422,
        0.17572908103466034,
        1.4299999475479126
      ]
    },
    {
      "bufferView": 41,
      "componentType": 5123,
      "count": 36,
      "type": "SCALAR"
    },
    {
      "bufferView": 42,
      "componentType": 5126,
      "count": 24,
      "type": "VEC3",
      "max": [
        -0.6395228505134583,
        1.08427095413208,
        -1.2699999809265137
      ],
      "min": [
        -1.1172771453857422,
        0.17572908103466034,
        -1.3700000047683716
      ]
    },
    {
      "bufferView": 43,
      "componentType": 5123,
      "count": 36,
      "type": "SCALAR"
    },
    {
      "bufferView": 44,
      "componentType": 5126,
      "count": 24,
      "type": "VEC3",
      "max": [
        1.284999966621399,
        0.33500000834465027,
        2.7750000953674316
      ],
      "min": [
        1.1549999713897705,
        0.20499999821186066,
        -2.674999952316284
      ]
    },
    {
      "bufferView": 45,
      "componentType": 5123,
      "count": 36,
      "type": "SCALAR"
    },
    {
      "bufferView": 46,
      "componentType": 5126,
      "count": 24,
      "type": "VEC3",
      "max": [
        1.1172771453857422,
        1.08427095413208,
        1.5299999713897705
      ],
      "min": [
        0.6395228505134583,
        0.17572908103466034,
        1.4299999475479126
      ]
    },
    {
      "bufferView": 47,
      "componentType": 5123,
      "count": 36,
      "type": "SCALAR"
    },
    {
      "bufferView": 48,
      "componentType": 5126,
      "count": 24,
      "type": "VEC3",
      "max": [
        1.1172771453857422,
        1.08427095413208,
        -1.2699999809265137
      ],
      "min": [
        0.6395228505134583,
        0.17572908103466034,
        -1.3700000047683716
      ]
    },
    {
      "bufferView": 49,
      "componentType": 5123,
      "count": 36,
      "type": "SCALAR"
    },
    {
      "bufferView": 50,
      "componentType": 5126,
      "count": 24,
      "type": "VEC3",
      "max": [
        -1.2200000286102295,
        0.6700000166893005,
        0.9750000238418579
      ],
      "min": [
        -1.5,
        0.5699999928474426,
        -0.875
      ]
    },
    {
      "bufferView": 51,
      "componentType": 5123,
      "count": 36,
      "type": "SCALAR"
    },
    {
      "bufferView": 52,
      "componentType": 5126,
      "count": 24,
      "type": "VEC3",
      "max": [
        1.5,
        0.6700000166893005,
        0.9750000238418579
      ],
      "min": [
        1.2200000286102295,
        0.5699999928474426,
        -0.875
      ]
    },
    {
      "bufferView": 53,
      "componentType": 5123,
      "count": 36,
      "type": "SCALAR"
    },
    {
      "bufferView": 54,
      "componentType": 5126,
      "count": 432,
      "type": "VEC3",
      "max": [
        -0.41432055830955505,
        2.927785873413086,
        3.240000009536743
      ],
      "min": [
        -1.2270452976226807,
        1.9872212409973145,
        2.0799999237060547
      ]
    },
    {
      "bufferView": 55,
      "componentType": 5123,
      "count": 2580,
      "type": "SCALAR"
    },
    {
      "bufferView": 56,
      "componentType": 5126,
      "count": 432,
      "type": "VEC3",
      "max": [
        1.2270452976226807,
        2.927785873413086,
        3.240000009536743
      ],
      "min": [
        0.41432055830955505,
        1.9872212409973145,
        2.0799999237060547
      ]
    },
    {
      "bufferView": 57,
      "componentType": 5123,
      "count": 2580,
      "type": "SCALAR"
    },
    {
      "bufferView": 58,
      "componentType": 5126,
      "count": 582,
      "type": "VEC3",
      "max": [
        -1.1442512273788452,
        2.602952480316162,
        1.350000023841858
      ],
      "min": [
        -1.361958384513855,
        1.8581112623214722,
        -0.949999988079071
      ]
    },
    {
      "bufferView": 59,
      "componentType": 5123,
      "count": 3480,
      "type": "SCALAR"
    },
    {
      "bufferView": 60,
      "componentType": 5126,
      "count": 582,
      "type": "VEC3",
      "max": [
        1.361958384513855,
        2.602952480316162,
        1.350000023841858
      ],
      "min": [
        1.1442512273788452,
        1.8581112623214722,
        -0.949999988079071
      ]
    },
    {
      "bufferView": 61,
      "componentType": 5123,
      "count": 3480,
      "type": "SCALAR"
    },
    {
      "bufferView": 62,
      "componentType": 5126,
      "count": 602,
      "type": "VEC3",
      "max": [
        -0.926865816116333,
        2.4158527851104736,
        0.7599999904632568
      ],
      "min": [
        -1.3554998636245728,
        0.8270289301872253,
        -0.9599999785423279
      ]
    },
    {
      "bufferView": 63,
      "componentType": 5123,
      "count": 3600,
      "type": "SCALAR"
    },
    {
      "bufferView": 64,
      "componentType": 5126,
      "count": 602,
      "type": "VEC3",
      "max": [
        1.3554998636245728,
        2.4158527851104736,
        0.7599999904632568
      ],
      "min": [
        0.926865816116333,
        0.8270289301872253,
        -0.9599999785423279
      ]
    },
    {
      "bufferView": 65,
      "componentType": 5123,
      "count": 3600,
      "type": "SCALAR"
    },
    {
      "bufferView": 66,
      "componentType": 5126,
      "count": 6856,
      "type": "VEC3",
      "max": [
        1.312659502029419,
        2.1600000858306885,
        3.6609902381896973
      ],
      "min": [
        -1.312659502029419,
        0.800000011920929,
        -2.299999952316284
      ]
    },
    {
      "bufferView": 67,
      "componentType": 5123,
      "count": 7764,
      "type": "SCALAR"
    },
    {
      "bufferView": 68,
      "componentType": 5126,
      "count": 16646,
      "type": "VEC3",
      "max": [
        0.7274430394172668,
        4.559999942779541,
        -2.0
      ],
      "min": [
        -0.7274430394172668,
        1.399999976158142,
        -10.0600004196167
      ]
    },
    {
      "bufferView": 69,
      "componentType": 5123,
      "count": 17421,
      "type": "SCALAR"
    },
    {
      "bufferView": 70,
      "componentType": 5126,
      "count": 1684,
      "type": "VEC3",
      "max": [
        1.3608916997909546,
        2.4200000762939453,
        3.200000047683716
      ],
      "min": [
        -1.3608916997909546,
        1.600000023841858,
        -2.299999952316284
      ]
    },
    {
      "bufferView": 71,
      "componentType": 5123,
      "count": 2205,
      "type": "SCALAR"
    },
    {
      "bufferView": 72,
      "componentType": 5126,
      "count": 1992,
      "type": "VEC3",
      "max": [
        0.09409336000680923,
        3.8399999141693115,
        -8.9399995803833
      ],
      "min": [
        -0.09409336000680923,
        3.0299999713897705,
        -9.899999618530273
      ]
    },
    {
      "bufferView": 73,
      "componentType": 5123,
      "count": 2478,
      "type": "SCALAR"
    },
    {
      "bufferView": 74,
      "componentType": 5126,
      "count": 24,
      "type": "VEC3",
      "max": [
        -0.3799999952316284,
        1.2899999618530273,
        3.305000066757202
      ],
      "min": [
        -0.7200000286102295,
        0.949999988079071,
        3.055000066757202
      ]
    },
    {
      "bufferView": 75,
      "componentType": 5123,
      "count": 36,
      "type": "SCALAR"
    },
    {
      "bufferView": 76,
      "componentType": 5126,
      "count": 160,
      "type": "VEC3",
      "max": [
        0.23999999463558197,
        1.2200000286102295,
        3.320000410079956
      ],
      "min": [
        -0.23999999463558197,
        0.7400000095367432,
        2.630000114440918
      ]
    },
    {
      "bufferView": 77,
      "componentType": 5123,
      "count": 192,
      "type": "SCALAR"
    },
    {
      "bufferView": 78,
      "componentType": 5126,
      "count": 24,
      "type": "VEC3",
      "max": [
        0.029999999329447746,
        3.8928399085998535,
        2.2039120197296143
      ],
      "min": [
        -0.029999999329447746,
        3.147160291671753,
        1.8560879230499268
      ]
    },
    {
      "bufferView": 79,
      "componentType": 5123,
      "count": 36,
      "type": "SCALAR"
    },
    {
      "bufferView": 80,
      "componentType": 5126,
      "count": 24,
      "type": "VEC3",
      "max": [
        0.029999999329447746,
        1.2028075456619263,
        2.995696783065796
      ],
      "min": [
        -0.029999999329447746,
        0.5571925044059753,
        2.6643030643463135
      ]
    },
    {
      "bufferView": 81,
      "componentType": 5123,
      "count": 36,
      "type": "SCALAR"
    },
    {
      "bufferView": 82,
      "componentType": 5126,
      "count": 24,
      "type": "VEC3",
      "max": [
        0.10000000149011612,
        3.940000057220459,
        -1.149999976158142
      ],
      "min": [
        -0.10000000149011612,
        3.7799999713897705,
        -1.350000023841858
      ]
    },
    {
      "bufferView": 83,
      "componentType": 5123,
      "count": 36,
      "type": "SCALAR"
    },
    {
      "bufferView": 84,
      "componentType": 5126,
      "count": 24,
      "type": "VEC3",
      "max": [
        0.09000000357627869,
        0.6700000166893005,
        -0.5099999904632568
      ],
      "min": [
        -0.09000000357627869,
        0.5299999713897705,
        -0.6899999976158142
      ]
    },
    {
      "bufferView": 85,
      "componentType": 5123,
      "count": 36,
      "type": "SCALAR"
    },
    {
      "bufferView": 86,
      "componentType": 5126,
      "count": 24,
      "type": "VEC3",
      "max": [
        -1.159999966621399,
        2.6449999809265137,
        -8.0600004196167
      ],
      "min": [
        -1.3200000524520874,
        2.515000104904175,
        -8.239999771118164
      ]
    },
    {
      "bufferView": 87,
      "componentType": 5123,
      "count": 36,
      "type": "SCALAR"
    },
    {
      "bufferView": 88,
      "componentType": 5126,
      "count": 24,
      "type": "VEC3",
      "max": [
        1.3200000524520874,
        2.6449999809265137,
        -8.0600004196167
      ],
      "min": [
        1.159999966621399,
        2.515000104904175,
        -8.239999771118164
      ]
    },
    {
      "bufferView": 89,
      "componentType": 5123,
      "count": 36,
      "type": "SCALAR"
    }
  ],
  "meshes": [
    {
      "name": "fuselage",
      "primitives": [
        {
          "attributes": {
            "POSITION": 0
          },
          "indices": 1,
          "mode": 4
        }
      ]
    },
    {
      "name": "belly",
      "primitives": [
        {
          "attributes": {
            "POSITION": 2
          },
          "indices": 3,
          "mode": 4
        }
      ]
    },
    {
      "name": "engine_left",
      "primitives": [
        {
          "attributes": {
            "POSITION": 4
          },
          "indices": 5,
          "mode": 4
        }
      ]
    },
    {
      "name": "engine_right",
      "primitives": [
        {
          "attributes": {
            "POSITION": 6
          },
          "indices": 7,
          "mode": 4
        }
      ]
    },
    {
      "name": "engine_exhaust_left",
      "primitives": [
        {
          "attributes": {
            "POSITION": 8
          },
          "indices": 9,
          "mode": 4
        }
      ]
    },
    {
      "name": "engine_exhaust_right",
      "primitives": [
        {
          "attributes": {
            "POSITION": 10
          },
          "indices": 11,
          "mode": 4
        }
      ]
    },
    {
      "name": "tail_boom",
      "primitives": [
        {
          "attributes": {
            "POSITION": 12
          },
          "indices": 13,
          "mode": 4
        }
      ]
    },
    {
      "name": "tail_fin",
      "primitives": [
        {
          "attributes": {
            "POSITION": 14
          },
          "indices": 15,
          "mode": 4
        }
      ]
    },
    {
      "name": "tailplane_left",
      "primitives": [
        {
          "attributes": {
            "POSITION": 16
          },
          "indices": 17,
          "mode": 4
        }
      ]
    },
    {
      "name": "tailplane_right",
      "primitives": [
        {
          "attributes": {
            "POSITION": 18
          },
          "indices": 19,
          "mode": 4
        }
      ]
    },
    {
      "name": "rotor_mast",
      "primitives": [
        {
          "attributes": {
            "POSITION": 20
          },
          "indices": 21,
          "mode": 4
        }
      ]
    },
    {
      "name": "rotor_hub",
      "primitives": [
        {
          "attributes": {
            "POSITION": 22
          },
          "indices": 23,
          "mode": 4
        }
      ]
    },
    {
      "name": "main_rotor_blade_1",
      "primitives": [
        {
          "attributes": {
            "POSITION": 24
          },
          "indices": 25,
          "mode": 4
        }
      ]
    },
    {
      "name": "main_rotor_blade_2",
      "primitives": [
        {
          "attributes": {
            "POSITION": 26
          },
          "indices": 27,
          "mode": 4
        }
      ]
    },
    {
      "name": "main_rotor_blade_3",
      "primitives": [
        {
          "attributes": {
            "POSITION": 28
          },
          "indices": 29,
          "mode": 4
        }
      ]
    },
    {
      "name": "main_rotor_blade_4",
      "primitives": [
        {
          "attributes": {
            "POSITION": 30
          },
          "indices": 31,
          "mode": 4
        }
      ]
    },
    {
      "name": "tail_rotor_hub",
      "primitives": [
        {
          "attributes": {
            "POSITION": 32
          },
          "indices": 33,
          "mode": 4
        }
      ]
    },
    {
      "name": "tail_rotor_blade_1",
      "primitives": [
        {
          "attributes": {
            "POSITION": 34
          },
          "indices": 35,
          "mode": 4
        }
      ]
    },
    {
      "name": "tail_rotor_blade_2",
      "primitives": [
        {
          "attributes": {
            "POSITION": 36
          },
          "indices": 37,
          "mode": 4
        }
      ]
    },
    {
      "name": "landing_skid_left",
      "primitives": [
        {
          "attributes": {
            "POSITION": 38
          },
          "indices": 39,
          "mode": 4
        }
      ]
    },
    {
      "name": "skid_strut_left_front",
      "primitives": [
        {
          "attributes": {
            "POSITION": 40
          },
          "indices": 41,
          "mode": 4
        }
      ]
    },
    {
      "name": "skid_strut_left_rear",
      "primitives": [
        {
          "attributes": {
            "POSITION": 42
          },
          "indices": 43,
          "mode": 4
        }
      ]
    },
    {
      "name": "landing_skid_right",
      "primitives": [
        {
          "attributes": {
            "POSITION": 44
          },
          "indices": 45,
          "mode": 4
        }
      ]
    },
    {
      "name": "skid_strut_right_front",
      "primitives": [
        {
          "attributes": {
            "POSITION": 46
          },
          "indices": 47,
          "mode": 4
        }
      ]
    },
    {
      "name": "skid_strut_right_rear",
      "primitives": [
        {
          "attributes": {
            "POSITION": 48
          },
          "indices": 49,
          "mode": 4
        }
      ]
    },
    {
      "name": "step_left",
      "primitives": [
        {
          "attributes": {
            "POSITION": 50
          },
          "indices": 51,
          "mode": 4
        }
      ]
    },
    {
      "name": "step_right",
      "primitives": [
        {
          "attributes": {
            "POSITION": 52
          },
          "indices": 53,
          "mode": 4
        }
      ]
    },
    {
      "name": "cockpit_glass_left",
      "primitives": [
        {
          "attributes": {
            "POSITION": 54
          },
          "indices": 55,
          "mode": 4
        }
      ]
    },
    {
      "name": "cockpit_glass_right",
      "primitives": [
        {
          "attributes": {
            "POSITION": 56
          },
          "indices": 57,
          "mode": 4
        }
      ]
    },
    {
      "name": "cabin_window_left",
      "primitives": [
        {
          "attributes": {
            "POSITION": 58
          },
          "indices": 59,
          "mode": 4
        }
      ]
    },
    {
      "name": "cabin_window_right",
      "primitives": [
        {
          "attributes": {
            "POSITION": 60
          },
          "indices": 61,
          "mode": 4
        }
      ]
    },
    {
      "name": "sliding_door_left",
      "primitives": [
        {
          "attributes": {
            "POSITION": 62
          },
          "indices": 63,
          "mode": 4
        }
      ]
    },
    {
      "name": "sliding_door_right",
      "primitives": [
        {
          "attributes": {
            "POSITION": 64
          },
          "indices": 65,
          "mode": 4
        }
      ]
    },
    {
      "name": "rescue_red_belly",
      "primitives": [
        {
          "attributes": {
            "POSITION": 66
          },
          "indices": 67,
          "mode": 4
        }
      ]
    },
    {
      "name": "rescue_red_tail",
      "primitives": [
        {
          "attributes": {
            "POSITION": 68
          },
          "indices": 69,
          "mode": 4
        }
      ]
    },
    {
      "name": "livery_secondary",
      "primitives": [
        {
          "attributes": {
            "POSITION": 70
          },
          "indices": 71,
          "mode": 4
        }
      ]
    },
    {
      "name": "livery_emblem",
      "primitives": [
        {
          "attributes": {
            "POSITION": 72
          },
          "indices": 73,
          "mode": 4
        }
      ]
    },
    {
      "name": "nose_searchlight",
      "primitives": [
        {
          "attributes": {
            "POSITION": 74
          },
          "indices": 75,
          "mode": 4
        }
      ]
    },
    {
      "name": "camera_pod",
      "primitives": [
        {
          "attributes": {
            "POSITION": 76
          },
          "indices": 77,
          "mode": 4
        }
      ]
    },
    {
      "name": "wire_strike_upper",
      "primitives": [
        {
          "attributes": {
            "POSITION": 78
          },
          "indices": 79,
          "mode": 4
        }
      ]
    },
    {
      "name": "wire_strike_lower",
      "primitives": [
        {
          "attributes": {
            "POSITION": 80
          },
          "indices": 81,
          "mode": 4
        }
      ]
    },
    {
      "name": "beacon_top",
      "primitives": [
        {
          "attributes": {
            "POSITION": 82
          },
          "indices": 83,
          "mode": 4
        }
      ]
    },
    {
      "name": "beacon_belly",
      "primitives": [
        {
          "attributes": {
            "POSITION": 84
          },
          "indices": 85,
          "mode": 4
        }
      ]
    },
    {
      "name": "nav_light_left",
      "primitives": [
        {
          "attributes": {
            "POSITION": 86
          },
          "indices": 87,
          "mode": 4
        }
      ]
    },
    {
      "name": "nav_light_right",
      "primitives": [
        {
          "attributes": {
            "POSITION": 88
          },
          "indices": 89,
          "mode": 4
        }
      ]
    }
  ],
  "nodes": [
    {
      "name": "fuselage",
      "mesh": 0
    },
    {
      "name": "belly",
      "mesh": 1
    },
    {
      "name": "engine_left",
      "mesh": 2
    },
    {
      "name": "engine_right",
      "mesh": 3
    },
    {
      "name": "engine_exhaust_left",
      "mesh": 4
    },
    {
      "name": "engine_exhaust_right",
      "mesh": 5
    },
    {
      "name": "tail_boom",
      "mesh": 6
    },
    {
      "name": "tail_fin",
      "mesh": 7
    },
    {
      "name": "tailplane_left",
      "mesh": 8
    },
    {
      "name": "tailplane_right",
      "mesh": 9
    },
    {
      "name": "rotor_mast",
      "mesh": 10
    },
    {
      "name": "rotor_hub",
      "mesh": 11
    },
    {
      "name": "main_rotor_blade_1",
      "mesh": 12
    },
    {
      "name": "main_rotor_blade_2",
      "mesh": 13
    },
    {
      "name": "main_rotor_blade_3",
      "mesh": 14
    },
    {
      "name": "main_rotor_blade_4",
      "mesh": 15
    },
    {
      "name": "tail_rotor_hub",
      "mesh": 16
    },
    {
      "name": "tail_rotor_blade_1",
      "mesh": 17
    },
    {
      "name": "tail_rotor_blade_2",
      "mesh": 18
    },
    {
      "name": "landing_skid_left",
      "mesh": 19
    },
    {
      "name": "skid_strut_left_front",
      "mesh": 20
    },
    {
      "name": "skid_strut_left_rear",
      "mesh": 21
    },
    {
      "name": "landing_skid_right",
      "mesh": 22
    },
    {
      "name": "skid_strut_right_front",
      "mesh": 23
    },
    {
      "name": "skid_strut_right_rear",
      "mesh": 24
    },
    {
      "name": "step_left",
      "mesh": 25
    },
    {
      "name": "step_right",
      "mesh": 26
    },
    {
      "name": "cockpit_glass_left",
      "mesh": 27
    },
    {
      "name": "cockpit_glass_right",
      "mesh": 28
    },
    {
      "name": "cabin_window_left",
      "mesh": 29
    },
    {
      "name": "cabin_window_right",
      "mesh": 30
    },
    {
      "name": "sliding_door_left",
      "mesh": 31
    },
    {
      "name": "sliding_door_right",
      "mesh": 32
    },
    {
      "name": "rescue_red_belly",
      "mesh": 33
    },
    {
      "name": "rescue_red_tail",
      "mesh": 34
    },
    {
      "name": "livery_secondary",
      "mesh": 35
    },
    {
      "name": "livery_emblem",
      "mesh": 36
    },
    {
      "name": "nose_searchlight",
      "mesh": 37
    },
    {
      "name": "camera_pod",
      "mesh": 38
    },
    {
      "name": "wire_strike_upper",
      "mesh": 39
    },
    {
      "name": "wire_strike_lower",
      "mesh": 40
    },
    {
      "name": "beacon_top",
      "mesh": 41
    },
    {
      "name": "beacon_belly",
      "mesh": 42
    },
    {
      "name": "nav_light_left",
      "mesh": 43
    },
    {
      "name": "nav_light_right",
      "mesh": 44
    }
  ],
  "scenes": [
    {
      "name": "mdl_bell_412_rescue_v01",
      "nodes": [
        0,
        1,
        2,
        3,
        4,
        5,
        6,
        7,
        8,
        9,
        10,
        11,
        12,
        13,
        14,
        15,
        16,
        17,
        18,
        19,
        20,
        21,
        22,
        23,
        24,
        25,
        26,
        27,
        28,
        29,
        30,
        31,
        32,
        33,
        34,
        35,
        36,
        37,
        38,
        39,
        40,
        41,
        42,
        43,
        44
      ]
    }
  ],
  "scene": 0
}