{
  "asset": {
    "version": "2.0",
    "generator": "Airside Batch C procedural kit"
  },
  "buffers": [
    {
      "uri": "mdl_ramp_crew_kit_v02.bin",
      "byteLength": 96264
    }
  ],
  "bufferViews": [
    {
      "buffer": 0,
      "byteOffset": 0,
      "byteLength": 3936,
      "target": 34962
    },
    {
      "buffer": 0,
      "byteOffset": 3936,
      "byteLength": 816,
      "target": 34963
    },
    {
      "buffer": 0,
      "byteOffset": 4752,
      "byteLength": 2880,
      "target": 34962
    },
    {
      "buffer": 0,
      "byteOffset": 7632,
      "byteLength": 576,
      "target": 34963
    },
    {
      "buffer": 0,
      "byteOffset": 8208,
      "byteLength": 864,
      "target": 34962
    },
    {
      "buffer": 0,
      "byteOffset": 9072,
      "byteLength": 216,
      "target": 34963
    },
    {
      "buffer": 0,
      "byteOffset": 9288,
      "byteLength": 3360,
      "target": 34962
    },
    {
      "buffer": 0,
      "byteOffset": 12648,
      "byteLength": 672,
      "target": 34963
    },
    {
      "buffer": 0,
      "byteOffset": 13320,
      "byteLength": 3360,
      "target": 34962
    },
    {
      "buffer": 0,
      "byteOffset": 16680,
      "byteLength": 672,
      "target": 34963
    },
    {
      "buffer": 0,
      "byteOffset": 17352,
      "byteLength": 3360,
      "target": 34962
    },
    {
      "buffer": 0,
      "byteOffset": 20712,
      "byteLength": 672,
      "target": 34963
    },
    {
      "buffer": 0,
      "byteOffset": 21384,
      "byteLength": 3360,
      "target": 34962
    },
    {
      "buffer": 0,
      "byteOffset": 24744,
      "byteLength": 672,
      "target": 34963
    },
    {
      "buffer": 0,
      "byteOffset": 25416,
      "byteLength": 3360,
      "target": 34962
    },
    {
      "buffer": 0,
      "byteOffset": 28776,
      "byteLength": 672,
      "target": 34963
    },
    {
      "buffer": 0,
      "byteOffset": 29448,
      "byteLength": 576,
      "target": 34962
    },
    {
      "buffer": 0,
      "byteOffset": 30024,
      "byteLength": 144,
      "target": 34963
    },
    {
      "buffer": 0,
      "byteOffset": 30168,
      "byteLength": 576,
      "target": 34962
    },
    {
      "buffer": 0,
      "byteOffset": 30744,
      "byteLength": 144,
      "target": 34963
    },
    {
      "buffer": 0,
      "byteOffset": 30888,
      "byteLength": 1488,
      "target": 34962
    },
    {
      "buffer": 0,
      "byteOffset": 32376,
      "byteLength": 312,
      "target": 34963
    },
    {
      "buffer": 0,
      "byteOffset": 32688,
      "byteLength": 1488,
      "target": 34962
    },
    {
      "buffer": 0,
      "byteOffset": 34176,
      "byteLength": 312,
      "target": 34963
    },
    {
      "buffer": 0,
      "byteOffset": 34488,
      "byteLength": 3936,
      "target": 34962
    },
    {
      "buffer": 0,
      "byteOffset": 38424,
      "byteLength": 816,
      "target": 34963
    },
    {
      "buffer": 0,
      "byteOffset": 39240,
      "byteLength": 2880,
      "target": 34962
    },
    {
      "buffer": 0,
      "byteOffset": 42120,
      "byteLength": 576,
      "target": 34963
    },
    {
      "buffer": 0,
      "byteOffset": 42696,
      "byteLength": 864,
      "target": 34962
    },
    {
      "buffer": 0,
      "byteOffset": 43560,
      "byteLength": 216,
      "target": 34963
    },
    {
      "buffer": 0,
      "byteOffset": 43776,
      "byteLength": 3360,
      "target": 34962
    },
    {
      "buffer": 0,
      "byteOffset": 47136,
      "byteLength": 672,
      "target": 34963
    },
    {
      "buffer": 0,
      "byteOffset": 47808,
      "byteLength": 3360,
      "target": 34962
    },
    {
      "buffer": 0,
      "byteOffset": 51168,
      "byteLength": 672,
      "target": 34963
    },
    {
      "buffer": 0,
      "byteOffset": 51840,
      "byteLength": 3360,
      "target": 34962
    },
    {
      "buffer": 0,
      "byteOffset": 55200,
      "byteLength": 672,
      "target": 34963
    },
    {
      "buffer": 0,
      "byteOffset": 55872,
      "byteLength": 3360,
      "target": 34962
    },
    {
      "buffer": 0,
      "byteOffset": 59232,
      "byteLength": 672,
      "target": 34963
    },
    {
      "buffer": 0,
      "byteOffset": 59904,
      "byteLength": 3360,
      "target": 34962
    },
    {
      "buffer": 0,
      "byteOffset": 63264,
      "byteLength": 672,
      "target": 34963
    },
    {
      "buffer": 0,
      "byteOffset": 63936,
      "byteLength": 576,
      "target": 34962
    },
    {
      "buffer": 0,
      "byteOffset": 64512,
      "byteLength": 144,
      "target": 34963
    },
    {
      "buffer": 0,
      "byteOffset": 64656,
      "byteLength": 576,
      "target": 34962
    },
    {
      "buffer": 0,
      "byteOffset": 65232,
      "byteLength": 144,
      "target": 34963
    },
    {
      "buffer": 0,
      "byteOffset": 65376,
      "byteLength": 3936,
      "target": 34962
    },
    {
      "buffer": 0,
      "byteOffset": 69312,
      "byteLength": 816,
      "target": 34963
    },
    {
      "buffer": 0,
      "byteOffset": 70128,
      "byteLength": 2880,
      "target": 34962
    },
    {
      "buffer": 0,
      "byteOffset": 73008,
      "byteLength": 576,
      "target": 34963
    },
    {
      "buffer": 0,
      "byteOffset": 73584,
      "byteLength": 864,
      "target": 34962
    },
    {
      "buffer": 0,
      "byteOffset": 74448,
      "byteLength": 216,
      "target": 34963
    },
    {
      "buffer": 0,
      "byteOffset": 74664,
      "byteLength": 3360,
      "target": 34962
    },
    {
      "buffer": 0,
      "byteOffset": 78024,
      "byteLength": 672,
      "target": 34963
    },
    {
      "buffer": 0,
      "byteOffset": 78696,
      "byteLength": 3360,
      "target": 34962
    },
    {
      "buffer": 0,
      "byteOffset": 82056,
      "byteLength": 672,
      "target": 34963
    },
    {
      "buffer": 0,
      "byteOffset": 82728,
      "byteLength": 3360,
      "target": 34962
    },
    {
      "buffer": 0,
      "byteOffset": 86088,
      "byteLength": 672,
      "target": 34963
    },
    {
      "buffer": 0,
      "byteOffset": 86760,
      "byteLength": 3360,
      "target": 34962
    },
    {
      "buffer": 0,
      "byteOffset": 90120,
      "byteLength": 672,
      "target": 34963
    },
    {
      "buffer": 0,
      "byteOffset": 90792,
      "byteLength": 3360,
      "target": 34962
    },
    {
      "buffer": 0,
      "byteOffset": 94152,
      "byteLength": 672,
      "target": 34963
    },
    {
      "buffer": 0,
      "byteOffset": 94824,
      "byteLength": 576,
      "target": 34962
    },
    {
      "buffer": 0,
      "byteOffset": 95400,
      "byteLength": 144,
      "target": 34963
    },
    {
      "buffer": 0,
      "byteOffset": 95544,
      "byteLength": 576,
      "target": 34962
    },
    {
      "buffer": 0,
      "byteOffset": 96120,
      "byteLength": 144,
      "target": 34963
    }
  ],
  "accessors": [
    {
      "bufferView": 0,
      "componentType": 5126,
      "count": 328,
      "type": "VEC3",
      "max": [
        0.30000001192092896,
        1.399999976158142,
        0.11999999731779099
      ],
      "min": [
        -0.30000001192092896,
        0.5,
        -0.11999999731779099
      ]
    },
    {
      "bufferView": 1,
      "componentType": 5123,
      "count": 408,
      "type": "SCALAR"
    },
    {
      "bufferView": 2,
      "componentType": 5126,
      "count": 240,
      "type": "VEC3",
      "max": [
        0.11999999731779099,
        1.7080000638961792,
        0.11699134856462479
      ],
      "min": [
        -0.11999999731779099,
        1.4079999923706055,
        -0.11699134856462479
      ]
    },
    {
      "bufferView": 3,
      "componentType": 5123,
      "count": 288,
      "type": "SCALAR"
    },
    {
      "bufferView": 4,
      "componentType": 5126,
      "count": 72,
      "type": "VEC3",
      "max": [
        0.1899999976158142,
        1.1950000524520874,
        0.1599999964237213
      ],
      "min": [
        -0.1899999976158142,
        0.7450000047683716,
        0.10499999672174454
      ]
    },
    {
      "bufferView": 5,
      "componentType": 5123,
      "count": 108,
      "type": "SCALAR"
    },
    {
      "bufferView": 6,
      "componentType": 5126,
      "count": 280,
      "type": "VEC3",
      "max": [
        0.18000000715255737,
        1.7879999876022339,
        0.17548702657222748
      ],
      "min": [
        -0.18000000715255737,
        1.6829999685287476,
        -0.17548702657222748
      ]
    },
    {
      "bufferView": 7,
      "componentType": 5123,
      "count": 336,
      "type": "SCALAR"
    },
    {
      "bufferView": 8,
      "componentType": 5126,
      "count": 280,
      "type": "VEC3",
      "max": [
        -0.019999999552965164,
        0.7749999761581421,
        0.08337031304836273
      ],
      "min": [
        -0.18000000715255737,
        0.019999997690320015,
        -0.07799423485994339
      ]
    },
    {
      "bufferView": 9,
      "componentType": 5123,
      "count": 336,
      "type": "SCALAR"
    },
    {
      "bufferView": 10,
      "componentType": 5126,
      "count": 280,
      "type": "VEC3",
      "max": [
        0.18000000715255737,
        0.7749999761581421,
        0.08337031304836273
      ],
      "min": [
        0.019999999552965164,
        0.019999997690320015,
        -0.07799423485994339
      ]
    },
    {
      "bufferView": 11,
      "componentType": 5123,
      "count": 336,
      "type": "SCALAR"
    },
    {
      "bufferView": 12,
      "componentType": 5126,
      "count": 280,
      "type": "VEC3",
      "max": [
        -0.23999999463558197,
        1.1750000715255737,
        0.06874639540910721
      ],
      "min": [
        -0.36000001430511475,
        0.5699999928474426,
        -0.05849567428231239
      ]
    },
    {
      "bufferView": 13,
      "componentType": 5123,
      "count": 336,
      "type": "SCALAR"
    },
    {
      "bufferView": 14,
      "componentType": 5126,
      "count": 280,
      "type": "VEC3",
      "max": [
        0.36000001430511475,
        1.1750000715255737,
        0.06874639540910721
      ],
      "min": [
        0.23999999463558197,
        0.5699999928474426,
        -0.05849567428231239
      ]
    },
    {
      "bufferView": 15,
      "componentType": 5123,
      "count": 336,
      "type": "SCALAR"
    },
    {
      "bufferView": 16,
      "componentType": 5126,
      "count": 48,
      "type": "VEC3",
      "max": [
        -0.02500000037252903,
        0.10000000149011612,
        0.1899999976158142
      ],
      "min": [
        -0.17499999701976776,
        0.009999999776482582,
        -0.07000000029802322
      ]
    },
    {
      "bufferView": 17,
      "componentType": 5123,
      "count": 72,
      "type": "SCALAR"
    },
    {
      "bufferView": 18,
      "componentType": 5126,
      "count": 48,
      "type": "VEC3",
      "max": [
        0.17499999701976776,
        0.10000000149011612,
        0.1899999976158142
      ],
      "min": [
        0.02500000037252903,
        0.009999999776482582,
        -0.07000000029802322
      ]
    },
    {
      "bufferView": 19,
      "componentType": 5123,
      "count": 72,
      "type": "SCALAR"
    },
    {
      "bufferView": 20,
      "componentType": 5126,
      "count": 124,
      "type": "VEC3",
      "max": [
        0.44999998807907104,
        1.4250000715255737,
        0.07999999821186066
      ],
      "min": [
        0.38999998569488525,
        0.8600000143051147,
        0.019999999552965164
      ]
    },
    {
      "bufferView": 21,
      "componentType": 5123,
      "count": 156,
      "type": "SCALAR"
    },
    {
      "bufferView": 22,
      "componentType": 5126,
      "count": 124,
      "type": "VEC3",
      "max": [
        0.4699999988079071,
        1.5500000715255737,
        0.0975528284907341
      ],
      "min": [
        0.3700000047683716,
        1.4249999523162842,
        0.0024471741635352373
      ]
    },
    {
      "bufferView": 23,
      "componentType": 5123,
      "count": 156,
      "type": "SCALAR"
    },
    {
      "bufferView": 24,
      "componentType": 5126,
      "count": 328,
      "type": "VEC3",
      "max": [
        0.30000001192092896,
        1.399999976158142,
        0.11999999731779099
      ],
      "min": [
        -0.30000001192092896,
        0.5,
        -0.11999999731779099
      ]
    },
    {
      "bufferView": 25,
      "componentType": 5123,
      "count": 408,
      "type": "SCALAR"
    },
    {
      "bufferView": 26,
      "componentType": 5126,
      "count": 240,
      "type": "VEC3",
      "max": [
        0.11999999731779099,
        1.7080000638961792,
        0.11699134856462479
      ],
      "min": [
        -0.11999999731779099,
        1.4079999923706055,
        -0.11699134856462479
      ]
    },
    {
      "bufferView": 27,
      "componentType": 5123,
      "count": 288,
      "type": "SCALAR"
    },
    {
      "bufferView": 28,
      "componentType": 5126,
      "count": 72,
      "type": "VEC3",
      "max": [
        0.1899999976158142,
        1.1950000524520874,
        0.1599999964237213
      ],
      "min": [
        -0.1899999976158142,
        0.7450000047683716,
        0.10499999672174454
      ]
    },
    {
      "bufferView": 29,
      "componentType": 5123,
      "count": 108,
      "type": "SCALAR"
    },
    {
      "bufferView": 30,
      "componentType": 5126,
      "count": 280,
      "type": "VEC3",
      "max": [
        0.18000000715255737,
        1.7879999876022339,
        0.17548702657222748
      ],
      "min": [
        -0.18000000715255737,
        1.6829999685287476,
        -0.17548702657222748
      ]
    },
    {
      "bufferView": 31,
      "componentType": 5123,
      "count": 336,
      "type": "SCALAR"
    },
    {
      "bufferView": 32,
      "componentType": 5126,
      "count": 280,
      "type": "VEC3",
      "max": [
        -0.019999999552965164,
        0.7749999761581421,
        0.08337031304836273
      ],
      "min": [
        -0.18000000715255737,
        0.019999997690320015,
        -0.07799423485994339
      ]
    },
    {
      "bufferView": 33,
      "componentType": 5123,
      "count": 336,
      "type": "SCALAR"
    },
    {
      "bufferView": 34,
      "componentType": 5126,
      "count": 280,
      "type": "VEC3",
      "max": [
        0.18000000715255737,
        0.7749999761581421,
        0.08337031304836273
      ],
      "min": [
        0.019999999552965164,
        0.019999997690320015,
        -0.07799423485994339
      ]
    },
    {
      "bufferView": 35,
      "componentType": 5123,
      "count": 336,
      "type": "SCALAR"
    },
    {
      "bufferView": 36,
      "componentType": 5126,
      "count": 280,
      "type": "VEC3",
      "max": [
        -0.23999999463558197,
        1.1750000715255737,
        0.06874639540910721
      ],
      "min": [
        -0.36000001430511475,
        0.5699999928474426,
        -0.05849567428231239
      ]
    },
    {
      "bufferView": 37,
      "componentType": 5123,
      "count": 336,
      "type": "SCALAR"
    },
    {
      "bufferView": 38,
      "componentType": 5126,
      "count": 280,
      "type": "VEC3",
      "max": [
        0.36000001430511475,
        1.1750000715255737,
        0.06874639540910721
      ],
      "min": [
        0.23999999463558197,
        0.5699999928474426,
        -0.05849567428231239
      ]
    },
    {
      "bufferView": 39,
      "componentType": 5123,
      "count": 336,
      "type": "SCALAR"
    },
    {
      "bufferView": 40,
      "componentType": 5126,
      "count": 48,
      "type": "VEC3",
      "max": [
        -0.02500000037252903,
        0.10000000149011612,
        0.1899999976158142
      ],
      "min": [
        -0.17499999701976776,
        0.009999999776482582,
        -0.07000000029802322
      ]
    },
    {
      "bufferView": 41,
      "componentType": 5123,
      "count": 72,
      "type": "SCALAR"
    },
    {
      "bufferView": 42,
      "componentType": 5126,
      "count": 48,
      "type": "VEC3",
      "max": [
        0.17499999701976776,
        0.10000000149011612,
        0.1899999976158142
      ],
      "min": [
        0.02500000037252903,
        0.009999999776482582,
        -0.07000000029802322
      ]
    },
    {
      "bufferView": 43,
      "componentType": 5123,
      "count": 72,
      "type": "SCALAR"
    },
    {
      "bufferView": 44,
      "componentType": 5126,
      "count": 328,
      "type": "VEC3",
      "max": [
        0.30000001192092896,
        1.399999976158142,
        0.11999999731779099
      ],
      "min": [
        -0.30000001192092896,
        0.5,
        -0.11999999731779099
      ]
    },
    {
      "bufferView": 45,
      "componentType": 5123,
      "count": 408,
      "type": "SCALAR"
    },
    {
      "bufferView": 46,
      "componentType": 5126,
      "count": 240,
      "type": "VEC3",
      "max": [
        0.11999999731779099,
        1.7080000638961792,
        0.11699134856462479
      ],
      "min": [
        -0.11999999731779099,
        1.4079999923706055,
        -0.11699134856462479
      ]
    },
    {
      "bufferView": 47,
      "componentType": 5123,
      "count": 288,
      "type": "SCALAR"
    },
    {
      "bufferView": 48,
      "componentType": 5126,
      "count": 72,
      "type": "VEC3",
      "max": [
        0.1899999976158142,
        1.1950000524520874,
        0.1599999964237213
      ],
      "min": [
        -0.1899999976158142,
        0.7450000047683716,
        0.10499999672174454
      ]
    },
    {
      "bufferView": 49,
      "componentType": 5123,
      "count": 108,
      "type": "SCALAR"
    },
    {
      "bufferView": 50,
      "componentType": 5126,
      "count": 280,
      "type": "VEC3",
      "max": [
        0.18000000715255737,
        1.7879999876022339,
        0.17548702657222748
      ],
      "min": [
        -0.18000000715255737,
        1.6829999685287476,
        -0.17548702657222748
      ]
    },
    {
      "bufferView": 51,
      "componentType": 5123,
      "count": 336,
      "type": "SCALAR"
    },
    {
      "bufferView": 52,
      "componentType": 5126,
      "count": 280,
      "type": "VEC3",
      "max": [
        -0.019999999552965164,
        0.7749999761581421,
        0.08337031304836273
      ],
      "min": [
        -0.18000000715255737,
        0.019999997690320015,
        -0.07799423485994339
      ]
    },
    {
      "bufferView": 53,
      "componentType": 5123,
      "count": 336,
      "type": "SCALAR"
    },
    {
      "bufferView": 54,
      "componentType": 5126,
      "count": 280,
      "type": "VEC3",
      "max": [
        0.18000000715255737,
        0.7749999761581421,
        0.08337031304836273
      ],
      "min": [
        0.019999999552965164,
        0.019999997690320015,
        -0.07799423485994339
      ]
    },
    {
      "bufferView": 55,
      "componentType": 5123,
      "count": 336,
      "type": "SCALAR"
    },
    {
      "bufferView": 56,
      "componentType": 5126,
      "count": 280,
      "type": "VEC3",
      "max": [
        -0.23999999463558197,
        1.1750000715255737,
        0.06874639540910721
      ],
      "min": [
        -0.36000001430511475,
        0.5699999928474426,
        -0.05849567428231239
      ]
    },
    {
      "bufferView": 57,
      "componentType": 5123,
      "count": 336,
      "type": "SCALAR"
    },
    {
      "bufferView": 58,
      "componentType": 5126,
      "count": 280,
      "type": "VEC3",
      "max": [
        0.36000001430511475,
        1.1750000715255737,
        0.06874639540910721
      ],
      "min": [
        0.23999999463558197,
        0.5699999928474426,
        -0.05849567428231239
      ]
    },
    {
      "bufferView": 59,
      "componentType": 5123,
      "count": 336,
      "type": "SCALAR"
    },
    {
      "bufferView": 60,
      "componentType": 5126,
      "count": 48,
      "type": "VEC3",
      "max": [
        -0.02500000037252903,
        0.10000000149011612,
        0.1899999976158142
      ],
      "min": [
        -0.17499999701976776,
        0.009999999776482582,
        -0.07000000029802322
      ]
    },
    {
      "bufferView": 61,
      "componentType": 5123,
      "count": 72,
      "type": "SCALAR"
    },
    {
      "bufferView": 62,
      "componentType": 5126,
      "count": 48,
      "type": "VEC3",
      "max": [
        0.17499999701976776,
        0.10000000149011612,
        0.1899999976158142
      ],
      "min": [
        0.02500000037252903,
        0.009999999776482582,
        -0.07000000029802322
      ]
    },
    {
      "bufferView": 63,
      "componentType": 5123,
      "count": 72,
      "type": "SCALAR"
    }
  ],
  "meshes": [
    {
      "name": "marshaller_torso",
      "primitives": [
        {
          "attributes": {
            "POSITION": 0
          },
          "indices": 1,
          "mode": 4
        }
      ]
    },
    {
      "name": "marshaller_head",
      "primitives": [
        {
          "attributes": {
            "POSITION": 2
          },
          "indices": 3,
          "mode": 4
        }
      ]
    },
    {
      "name": "marshaller_vest",
      "primitives": [
        {
          "attributes": {
            "POSITION": 4
          },
          "indices": 5,
          "mode": 4
        }
      ]
    },
    {
      "name": "marshaller_hat",
      "primitives": [
        {
          "attributes": {
            "POSITION": 6
          },
          "indices": 7,
          "mode": 4
        }
      ]
    },
    {
      "name": "marshaller_leg_l",
      "primitives": [
        {
          "attributes": {
            "POSITION": 8
          },
          "indices": 9,
          "mode": 4
        }
      ]
    },
    {
      "name": "marshaller_leg_r",
      "primitives": [
        {
          "attributes": {
            "POSITION": 10
          },
          "indices": 11,
          "mode": 4
        }
      ]
    },
    {
      "name": "marshaller_arm_l",
      "primitives": [
        {
          "attributes": {
            "POSITION": 12
          },
          "indices": 13,
          "mode": 4
        }
      ]
    },
    {
      "name": "marshaller_arm_r",
      "primitives": [
        {
          "attributes": {
            "POSITION": 14
          },
          "indices": 15,
          "mode": 4
        }
      ]
    },
    {
      "name": "marshaller_shoe_l",
      "primitives": [
        {
          "attributes": {
            "POSITION": 16
          },
          "indices": 17,
          "mode": 4
        }
      ]
    },
    {
      "name": "marshaller_shoe_r",
      "primitives": [
        {
          "attributes": {
            "POSITION": 18
          },
          "indices": 19,
          "mode": 4
        }
      ]
    },
    {
      "name": "marshaller_wand",
      "primitives": [
        {
          "attributes": {
            "POSITION": 20
          },
          "indices": 21,
          "mode": 4
        }
      ]
    },
    {
      "name": "marshaller_wand_tip",
      "primitives": [
        {
          "attributes": {
            "POSITION": 22
          },
          "indices": 23,
          "mode": 4
        }
      ]
    },
    {
      "name": "fueler_torso",
      "primitives": [
        {
          "attributes": {
            "POSITION": 24
          },
          "indices": 25,
          "mode": 4
        }
      ]
    },
    {
      "name": "fueler_head",
      "primitives": [
        {
          "attributes": {
            "POSITION": 26
          },
          "indices": 27,
          "mode": 4
        }
      ]
    },
    {
      "name": "fueler_vest",
      "primitives": [
        {
          "attributes": {
            "POSITION": 28
          },
          "indices": 29,
          "mode": 4
        }
      ]
    },
    {
      "name": "fueler_hat",
      "primitives": [
        {
          "attributes": {
            "POSITION": 30
          },
          "indices": 31,
          "mode": 4
        }
      ]
    },
    {
      "name": "fueler_leg_l",
      "primitives": [
        {
          "attributes": {
            "POSITION": 32
          },
          "indices": 33,
          "mode": 4
        }
      ]
    },
    {
      "name": "fueler_leg_r",
      "primitives": [
        {
          "attributes": {
            "POSITION": 34
          },
          "indices": 35,
          "mode": 4
        }
      ]
    },
    {
      "name": "fueler_arm_l",
      "primitives": [
        {
          "attributes": {
            "POSITION": 36
          },
          "indices": 37,
          "mode": 4
        }
      ]
    },
    {
      "name": "fueler_arm_r",
      "primitives": [
        {
          "attributes": {
            "POSITION": 38
          },
          "indices": 39,
          "mode": 4
        }
      ]
    },
    {
      "name": "fueler_shoe_l",
      "primitives": [
        {
          "attributes": {
            "POSITION": 40
          },
          "indices": 41,
          "mode": 4
        }
      ]
    },
    {
      "name": "fueler_shoe_r",
      "primitives": [
        {
          "attributes": {
            "POSITION": 42
          },
          "indices": 43,
          "mode": 4
        }
      ]
    },
    {
      "name": "ramp_torso",
      "primitives": [
        {
          "attributes": {
            "POSITION": 44
          },
          "indices": 45,
          "mode": 4
        }
      ]
    },
    {
      "name": "ramp_head",
      "primitives": [
        {
          "attributes": {
            "POSITION": 46
          },
          "indices": 47,
          "mode": 4
        }
      ]
    },
    {
      "name": "ramp_vest",
      "primitives": [
        {
          "attributes": {
            "POSITION": 48
          },
          "indices": 49,
          "mode": 4
        }
      ]
    },
    {
      "name": "ramp_hat",
      "primitives": [
        {
          "attributes": {
            "POSITION": 50
          },
          "indices": 51,
          "mode": 4
        }
      ]
    },
    {
      "name": "ramp_leg_l",
      "primitives": [
        {
          "attributes": {
            "POSITION": 52
          },
          "indices": 53,
          "mode": 4
        }
      ]
    },
    {
      "name": "ramp_leg_r",
      "primitives": [
        {
          "attributes": {
            "POSITION": 54
          },
          "indices": 55,
          "mode": 4
        }
      ]
    },
    {
      "name": "ramp_arm_l",
      "primitives": [
        {
          "attributes": {
            "POSITION": 56
          },
          "indices": 57,
          "mode": 4
        }
      ]
    },
    {
      "name": "ramp_arm_r",
      "primitives": [
        {
          "attributes": {
            "POSITION": 58
          },
          "indices": 59,
          "mode": 4
        }
      ]
    },
    {
      "name": "ramp_shoe_l",
      "primitives": [
        {
          "attributes": {
            "POSITION": 60
          },
          "indices": 61,
          "mode": 4
        }
      ]
    },
    {
      "name": "ramp_shoe_r",
      "primitives": [
        {
          "attributes": {
            "POSITION": 62
          },
          "indices": 63,
          "mode": 4
        }
      ]
    }
  ],
  "nodes": [
    {
      "name": "marshaller_torso",
      "mesh": 0
    },
    {
      "name": "marshaller_head",
      "mesh": 1
    },
    {
      "name": "marshaller_vest",
      "mesh": 2
    },
    {
      "name": "marshaller_hat",
      "mesh": 3
    },
    {
      "name": "marshaller_leg_l",
      "mesh": 4
    },
    {
      "name": "marshaller_leg_r",
      "mesh": 5
    },
    {
      "name": "marshaller_arm_l",
      "mesh": 6
    },
    {
      "name": "marshaller_arm_r",
      "mesh": 7
    },
    {
      "name": "marshaller_shoe_l",
      "mesh": 8
    },
    {
      "name": "marshaller_shoe_r",
      "mesh": 9
    },
    {
      "name": "marshaller_wand",
      "mesh": 10
    },
    {
      "name": "marshaller_wand_tip",
      "mesh": 11
    },
    {
      "name": "fueler_torso",
      "mesh": 12
    },
    {
      "name": "fueler_head",
      "mesh": 13
    },
    {
      "name": "fueler_vest",
      "mesh": 14
    },
    {
      "name": "fueler_hat",
      "mesh": 15
    },
    {
      "name": "fueler_leg_l",
      "mesh": 16
    },
    {
      "name": "fueler_leg_r",
      "mesh": 17
    },
    {
      "name": "fueler_arm_l",
      "mesh": 18
    },
    {
      "name": "fueler_arm_r",
      "mesh": 19
    },
    {
      "name": "fueler_shoe_l",
      "mesh": 20
    },
    {
      "name": "fueler_shoe_r",
      "mesh": 21
    },
    {
      "name": "ramp_torso",
      "mesh": 22
    },
    {
      "name": "ramp_head",
      "mesh": 23
    },
    {
      "name": "ramp_vest",
      "mesh": 24
    },
    {
      "name": "ramp_hat",
      "mesh": 25
    },
    {
      "name": "ramp_leg_l",
      "mesh": 26
    },
    {
      "name": "ramp_leg_r",
      "mesh": 27
    },
    {
      "name": "ramp_arm_l",
      "mesh": 28
    },
    {
      "name": "ramp_arm_r",
      "mesh": 29
    },
    {
      "name": "ramp_shoe_l",
      "mesh": 30
    },
    {
      "name": "ramp_shoe_r",
      "mesh": 31
    }
  ],
  "scenes": [
    {
      "name": "mdl_ramp_crew_kit_v02",
      "nodes": [
        0,
        1,
        2,
        3,
        4,
        5,
        6,
        7,
        8,
        9,
        10,
        11,
        12,
        13,
        14,
        15,
        16,
        17,
        18,
        19,
        20,
        21,
        22,
        23,
        24,
        25,
        26,
        27,
        28,
        29,
        30,
        31
      ]
    }
  ],
  "scene": 0
}