{
  "asset": {
    "version": "2.0",
    "generator": "Airside Batch C procedural kit"
  },
  "buffers": [
    {
      "uri": "mdl_ramp_crew_kit_v01.bin",
      "byteLength": 27504
    }
  ],
  "bufferViews": [
    {
      "buffer": 0,
      "byteOffset": 0,
      "byteLength": 288,
      "target": 34962
    },
    {
      "buffer": 0,
      "byteOffset": 288,
      "byteLength": 72,
      "target": 34963
    },
    {
      "buffer": 0,
      "byteOffset": 360,
      "byteLength": 1200,
      "target": 34962
    },
    {
      "buffer": 0,
      "byteOffset": 1560,
      "byteLength": 240,
      "target": 34963
    },
    {
      "buffer": 0,
      "byteOffset": 1800,
      "byteLength": 288,
      "target": 34962
    },
    {
      "buffer": 0,
      "byteOffset": 2088,
      "byteLength": 72,
      "target": 34963
    },
    {
      "buffer": 0,
      "byteOffset": 2160,
      "byteLength": 1200,
      "target": 34962
    },
    {
      "buffer": 0,
      "byteOffset": 3360,
      "byteLength": 240,
      "target": 34963
    },
    {
      "buffer": 0,
      "byteOffset": 3600,
      "byteLength": 960,
      "target": 34962
    },
    {
      "buffer": 0,
      "byteOffset": 4560,
      "byteLength": 192,
      "target": 34963
    },
    {
      "buffer": 0,
      "byteOffset": 4752,
      "byteLength": 960,
      "target": 34962
    },
    {
      "buffer": 0,
      "byteOffset": 5712,
      "byteLength": 192,
      "target": 34963
    },
    {
      "buffer": 0,
      "byteOffset": 5904,
      "byteLength": 960,
      "target": 34962
    },
    {
      "buffer": 0,
      "byteOffset": 6864,
      "byteLength": 192,
      "target": 34963
    },
    {
      "buffer": 0,
      "byteOffset": 7056,
      "byteLength": 960,
      "target": 34962
    },
    {
      "buffer": 0,
      "byteOffset": 8016,
      "byteLength": 192,
      "target": 34963
    },
    {
      "buffer": 0,
      "byteOffset": 8208,
      "byteLength": 288,
      "target": 34962
    },
    {
      "buffer": 0,
      "byteOffset": 8496,
      "byteLength": 72,
      "target": 34963
    },
    {
      "buffer": 0,
      "byteOffset": 8568,
      "byteLength": 288,
      "target": 34962
    },
    {
      "buffer": 0,
      "byteOffset": 8856,
      "byteLength": 72,
      "target": 34963
    },
    {
      "buffer": 0,
      "byteOffset": 8928,
      "byteLength": 288,
      "target": 34962
    },
    {
      "buffer": 0,
      "byteOffset": 9216,
      "byteLength": 72,
      "target": 34963
    },
    {
      "buffer": 0,
      "byteOffset": 9288,
      "byteLength": 288,
      "target": 34962
    },
    {
      "buffer": 0,
      "byteOffset": 9576,
      "byteLength": 72,
      "target": 34963
    },
    {
      "buffer": 0,
      "byteOffset": 9648,
      "byteLength": 288,
      "target": 34962
    },
    {
      "buffer": 0,
      "byteOffset": 9936,
      "byteLength": 72,
      "target": 34963
    },
    {
      "buffer": 0,
      "byteOffset": 10008,
      "byteLength": 1200,
      "target": 34962
    },
    {
      "buffer": 0,
      "byteOffset": 11208,
      "byteLength": 240,
      "target": 34963
    },
    {
      "buffer": 0,
      "byteOffset": 11448,
      "byteLength": 288,
      "target": 34962
    },
    {
      "buffer": 0,
      "byteOffset": 11736,
      "byteLength": 72,
      "target": 34963
    },
    {
      "buffer": 0,
      "byteOffset": 11808,
      "byteLength": 1200,
      "target": 34962
    },
    {
      "buffer": 0,
      "byteOffset": 13008,
      "byteLength": 240,
      "target": 34963
    },
    {
      "buffer": 0,
      "byteOffset": 13248,
      "byteLength": 960,
      "target": 34962
    },
    {
      "buffer": 0,
      "byteOffset": 14208,
      "byteLength": 192,
      "target": 34963
    },
    {
      "buffer": 0,
      "byteOffset": 14400,
      "byteLength": 960,
      "target": 34962
    },
    {
      "buffer": 0,
      "byteOffset": 15360,
      "byteLength": 192,
      "target": 34963
    },
    {
      "buffer": 0,
      "byteOffset": 15552,
      "byteLength": 960,
      "target": 34962
    },
    {
      "buffer": 0,
      "byteOffset": 16512,
      "byteLength": 192,
      "target": 34963
    },
    {
      "buffer": 0,
      "byteOffset": 16704,
      "byteLength": 960,
      "target": 34962
    },
    {
      "buffer": 0,
      "byteOffset": 17664,
      "byteLength": 192,
      "target": 34963
    },
    {
      "buffer": 0,
      "byteOffset": 17856,
      "byteLength": 288,
      "target": 34962
    },
    {
      "buffer": 0,
      "byteOffset": 18144,
      "byteLength": 72,
      "target": 34963
    },
    {
      "buffer": 0,
      "byteOffset": 18216,
      "byteLength": 288,
      "target": 34962
    },
    {
      "buffer": 0,
      "byteOffset": 18504,
      "byteLength": 72,
      "target": 34963
    },
    {
      "buffer": 0,
      "byteOffset": 18576,
      "byteLength": 288,
      "target": 34962
    },
    {
      "buffer": 0,
      "byteOffset": 18864,
      "byteLength": 72,
      "target": 34963
    },
    {
      "buffer": 0,
      "byteOffset": 18936,
      "byteLength": 1200,
      "target": 34962
    },
    {
      "buffer": 0,
      "byteOffset": 20136,
      "byteLength": 240,
      "target": 34963
    },
    {
      "buffer": 0,
      "byteOffset": 20376,
      "byteLength": 288,
      "target": 34962
    },
    {
      "buffer": 0,
      "byteOffset": 20664,
      "byteLength": 72,
      "target": 34963
    },
    {
      "buffer": 0,
      "byteOffset": 20736,
      "byteLength": 1200,
      "target": 34962
    },
    {
      "buffer": 0,
      "byteOffset": 21936,
      "byteLength": 240,
      "target": 34963
    },
    {
      "buffer": 0,
      "byteOffset": 22176,
      "byteLength": 960,
      "target": 34962
    },
    {
      "buffer": 0,
      "byteOffset": 23136,
      "byteLength": 192,
      "target": 34963
    },
    {
      "buffer": 0,
      "byteOffset": 23328,
      "byteLength": 960,
      "target": 34962
    },
    {
      "buffer": 0,
      "byteOffset": 24288,
      "byteLength": 192,
      "target": 34963
    },
    {
      "buffer": 0,
      "byteOffset": 24480,
      "byteLength": 960,
      "target": 34962
    },
    {
      "buffer": 0,
      "byteOffset": 25440,
      "byteLength": 192,
      "target": 34963
    },
    {
      "buffer": 0,
      "byteOffset": 25632,
      "byteLength": 960,
      "target": 34962
    },
    {
      "buffer": 0,
      "byteOffset": 26592,
      "byteLength": 192,
      "target": 34963
    },
    {
      "buffer": 0,
      "byteOffset": 26784,
      "byteLength": 288,
      "target": 34962
    },
    {
      "buffer": 0,
      "byteOffset": 27072,
      "byteLength": 72,
      "target": 34963
    },
    {
      "buffer": 0,
      "byteOffset": 27144,
      "byteLength": 288,
      "target": 34962
    },
    {
      "buffer": 0,
      "byteOffset": 27432,
      "byteLength": 72,
      "target": 34963
    }
  ],
  "accessors": [
    {
      "bufferView": 0,
      "componentType": 5126,
      "count": 24,
      "type": "VEC3",
      "max": [
        0.1899999976158142,
        1.3250000476837158,
        0.10999999940395355
      ],
      "min": [
        -0.1899999976158142,
        0.4749999940395355,
        -0.10999999940395355
      ]
    },
    {
      "bufferView": 1,
      "componentType": 5123,
      "count": 36,
      "type": "SCALAR"
    },
    {
      "bufferView": 2,
      "componentType": 5126,
      "count": 100,
      "type": "VEC3",
      "max": [
        0.10999999940395355,
        1.627500295639038,
        0.10461621731519699
      ],
      "min": [
        -0.10999999940395355,
        1.4274998903274536,
        -0.10461621731519699
      ]
    },
    {
      "bufferView": 3,
      "componentType": 5123,
      "count": 120,
      "type": "SCALAR"
    },
    {
      "bufferView": 4,
      "componentType": 5126,
      "count": 24,
      "type": "VEC3",
      "max": [
        0.18000000715255737,
        1.0099999904632568,
        0.14000000059604645
      ],
      "min": [
        -0.18000000715255737,
        0.8899999856948853,
        0.10000000149011612
      ]
    },
    {
      "bufferView": 5,
      "componentType": 5123,
      "count": 36,
      "type": "SCALAR"
    },
    {
      "bufferView": 6,
      "componentType": 5126,
      "count": 100,
      "type": "VEC3",
      "max": [
        0.12999999523162842,
        1.6974999904632568,
        0.12363734841346741
      ],
      "min": [
        -0.12999999523162842,
        1.597499966621399,
        -0.12363734841346741
      ]
    },
    {
      "bufferView": 7,
      "componentType": 5123,
      "count": 120,
      "type": "SCALAR"
    },
    {
      "bufferView": 8,
      "componentType": 5126,
      "count": 80,
      "type": "VEC3",
      "max": [
        -0.029999999329447746,
        0.699999988079071,
        0.07000000029802322
      ],
      "min": [
        -0.17000000178813934,
        0.0,
        -0.07000000029802322
      ]
    },
    {
      "bufferView": 9,
      "componentType": 5123,
      "count": 96,
      "type": "SCALAR"
    },
    {
      "bufferView": 10,
      "componentType": 5126,
      "count": 80,
      "type": "VEC3",
      "max": [
        0.17000000178813934,
        0.699999988079071,
        0.07000000029802322
      ],
      "min": [
        0.029999999329447746,
        0.0,
        -0.07000000029802322
      ]
    },
    {
      "bufferView": 11,
      "componentType": 5123,
      "count": 96,
      "type": "SCALAR"
    },
    {
      "bufferView": 12,
      "componentType": 5126,
      "count": 80,
      "type": "VEC3",
      "max": [
        -0.22499999403953552,
        1.1950000524520874,
        0.054999999701976776
      ],
      "min": [
        -0.33500000834465027,
        0.6449999809265137,
        -0.054999999701976776
      ]
    },
    {
      "bufferView": 13,
      "componentType": 5123,
      "count": 96,
      "type": "SCALAR"
    },
    {
      "bufferView": 14,
      "componentType": 5126,
      "count": 80,
      "type": "VEC3",
      "max": [
        0.33500000834465027,
        1.1950000524520874,
        0.054999999701976776
      ],
      "min": [
        0.22499999403953552,
        0.6449999809265137,
        -0.054999999701976776
      ]
    },
    {
      "bufferView": 15,
      "componentType": 5123,
      "count": 96,
      "type": "SCALAR"
    },
    {
      "bufferView": 16,
      "componentType": 5126,
      "count": 24,
      "type": "VEC3",
      "max": [
        -0.029999999329447746,
        0.09000000357627869,
        0.15000000596046448
      ],
      "min": [
        -0.17000000178813934,
        0.009999999776482582,
        -0.07000000029802322
      ]
    },
    {
      "bufferView": 17,
      "componentType": 5123,
      "count": 36,
      "type": "SCALAR"
    },
    {
      "bufferView": 18,
      "componentType": 5126,
      "count": 24,
      "type": "VEC3",
      "max": [
        0.17000000178813934,
        0.09000000357627869,
        0.15000000596046448
      ],
      "min": [
        0.029999999329447746,
        0.009999999776482582,
        -0.07000000029802322
      ]
    },
    {
      "bufferView": 19,
      "componentType": 5123,
      "count": 36,
      "type": "SCALAR"
    },
    {
      "bufferView": 20,
      "componentType": 5126,
      "count": 24,
      "type": "VEC3",
      "max": [
        0.4449999928474426,
        1.524999976158142,
        0.07500000298023224
      ],
      "min": [
        0.39500001072883606,
        0.9750000238418579,
        0.02500000037252903
      ]
    },
    {
      "bufferView": 21,
      "componentType": 5123,
      "count": 36,
      "type": "SCALAR"
    },
    {
      "bufferView": 22,
      "componentType": 5126,
      "count": 24,
      "type": "VEC3",
      "max": [
        0.46000000834465027,
        1.590000033378601,
        0.09000000357627869
      ],
      "min": [
        0.3799999952316284,
        1.5099999904632568,
        0.009999999776482582
      ]
    },
    {
      "bufferView": 23,
      "componentType": 5123,
      "count": 36,
      "type": "SCALAR"
    },
    {
      "bufferView": 24,
      "componentType": 5126,
      "count": 24,
      "type": "VEC3",
      "max": [
        2.690000057220459,
        1.3250000476837158,
        0.10999999940395355
      ],
      "min": [
        2.309999942779541,
        0.4749999940395355,
        -0.10999999940395355
      ]
    },
    {
      "bufferView": 25,
      "componentType": 5123,
      "count": 36,
      "type": "SCALAR"
    },
    {
      "bufferView": 26,
      "componentType": 5126,
      "count": 100,
      "type": "VEC3",
      "max": [
        2.609999895095825,
        1.627500295639038,
        0.10461621731519699
      ],
      "min": [
        2.390000104904175,
        1.4274998903274536,
        -0.10461621731519699
      ]
    },
    {
      "bufferView": 27,
      "componentType": 5123,
      "count": 120,
      "type": "SCALAR"
    },
    {
      "bufferView": 28,
      "componentType": 5126,
      "count": 24,
      "type": "VEC3",
      "max": [
        2.680000066757202,
        1.0099999904632568,
        0.14000000059604645
      ],
      "min": [
        2.319999933242798,
        0.8899999856948853,
        0.10000000149011612
      ]
    },
    {
      "bufferView": 29,
      "componentType": 5123,
      "count": 36,
      "type": "SCALAR"
    },
    {
      "bufferView": 30,
      "componentType": 5126,
      "count": 100,
      "type": "VEC3",
      "max": [
        2.630000114440918,
        1.6974999904632568,
        0.12363734841346741
      ],
      "min": [
        2.369999885559082,
        1.597499966621399,
        -0.12363734841346741
      ]
    },
    {
      "bufferView": 31,
      "componentType": 5123,
      "count": 120,
      "type": "SCALAR"
    },
    {
      "bufferView": 32,
      "componentType": 5126,
      "count": 80,
      "type": "VEC3",
      "max": [
        2.4700000286102295,
        0.699999988079071,
        0.07000000029802322
      ],
      "min": [
        2.3299999237060547,
        0.0,
        -0.07000000029802322
      ]
    },
    {
      "bufferView": 33,
      "componentType": 5123,
      "count": 96,
      "type": "SCALAR"
    },
    {
      "bufferView": 34,
      "componentType": 5126,
      "count": 80,
      "type": "VEC3",
      "max": [
        2.6700000762939453,
        0.699999988079071,
        0.07000000029802322
      ],
      "min": [
        2.5299999713897705,
        0.0,
        -0.07000000029802322
      ]
    },
    {
      "bufferView": 35,
      "componentType": 5123,
      "count": 96,
      "type": "SCALAR"
    },
    {
      "bufferView": 36,
      "componentType": 5126,
      "count": 80,
      "type": "VEC3",
      "max": [
        2.2750000953674316,
        1.1950000524520874,
        0.054999999701976776
      ],
      "min": [
        2.1649999618530273,
        0.6449999809265137,
        -0.054999999701976776
      ]
    },
    {
      "bufferView": 37,
      "componentType": 5123,
      "count": 96,
      "type": "SCALAR"
    },
    {
      "bufferView": 38,
      "componentType": 5126,
      "count": 80,
      "type": "VEC3",
      "max": [
        2.8350000381469727,
        1.1950000524520874,
        0.054999999701976776
      ],
      "min": [
        2.7249999046325684,
        0.6449999809265137,
        -0.054999999701976776
      ]
    },
    {
      "bufferView": 39,
      "componentType": 5123,
      "count": 96,
      "type": "SCALAR"
    },
    {
      "bufferView": 40,
      "componentType": 5126,
      "count": 24,
      "type": "VEC3",
      "max": [
        2.4700000286102295,
        0.09000000357627869,
        0.15000000596046448
      ],
      "min": [
        2.3299999237060547,
        0.009999999776482582,
        -0.07000000029802322
      ]
    },
    {
      "bufferView": 41,
      "componentType": 5123,
      "count": 36,
      "type": "SCALAR"
    },
    {
      "bufferView": 42,
      "componentType": 5126,
      "count": 24,
      "type": "VEC3",
      "max": [
        2.6700000762939453,
        0.09000000357627869,
        0.15000000596046448
      ],
      "min": [
        2.5299999713897705,
        0.009999999776482582,
        -0.07000000029802322
      ]
    },
    {
      "bufferView": 43,
      "componentType": 5123,
      "count": 36,
      "type": "SCALAR"
    },
    {
      "bufferView": 44,
      "componentType": 5126,
      "count": 24,
      "type": "VEC3",
      "max": [
        5.190000057220459,
        1.3250000476837158,
        0.10999999940395355
      ],
      "min": [
        4.809999942779541,
        0.4749999940395355,
        -0.10999999940395355
      ]
    },
    {
      "bufferView": 45,
      "componentType": 5123,
      "count": 36,
      "type": "SCALAR"
    },
    {
      "bufferView": 46,
      "componentType": 5126,
      "count": 100,
      "type": "VEC3",
      "max": [
        5.110000133514404,
        1.627500295639038,
        0.10461621731519699
      ],
      "min": [
        4.889999866485596,
        1.4274998903274536,
        -0.10461621731519699
      ]
    },
    {
      "bufferView": 47,
      "componentType": 5123,
      "count": 120,
      "type": "SCALAR"
    },
    {
      "bufferView": 48,
      "componentType": 5126,
      "count": 24,
      "type": "VEC3",
      "max": [
        5.179999828338623,
        1.0099999904632568,
        0.14000000059604645
      ],
      "min": [
        4.820000171661377,
        0.8899999856948853,
        0.10000000149011612
      ]
    },
    {
      "bufferView": 49,
      "componentType": 5123,
      "count": 36,
      "type": "SCALAR"
    },
    {
      "bufferView": 50,
      "componentType": 5126,
      "count": 100,
      "type": "VEC3",
      "max": [
        5.130000114440918,
        1.6974999904632568,
        0.12363734841346741
      ],
      "min": [
        4.869999885559082,
        1.597499966621399,
        -0.12363734841346741
      ]
    },
    {
      "bufferView": 51,
      "componentType": 5123,
      "count": 120,
      "type": "SCALAR"
    },
    {
      "bufferView": 52,
      "componentType": 5126,
      "count": 80,
      "type": "VEC3",
      "max": [
        4.96999979019165,
        0.699999988079071,
        0.07000000029802322
      ],
      "min": [
        4.829999923706055,
        0.0,
        -0.07000000029802322
      ]
    },
    {
      "bufferView": 53,
      "componentType": 5123,
      "count": 96,
      "type": "SCALAR"
    },
    {
      "bufferView": 54,
      "componentType": 5126,
      "count": 80,
      "type": "VEC3",
      "max": [
        5.170000076293945,
        0.699999988079071,
        0.07000000029802322
      ],
      "min": [
        5.03000020980835,
        0.0,
        -0.07000000029802322
      ]
    },
    {
      "bufferView": 55,
      "componentType": 5123,
      "count": 96,
      "type": "SCALAR"
    },
    {
      "bufferView": 56,
      "componentType": 5126,
      "count": 80,
      "type": "VEC3",
      "max": [
        4.775000095367432,
        1.1950000524520874,
        0.054999999701976776
      ],
      "min": [
        4.664999961853027,
        0.6449999809265137,
        -0.054999999701976776
      ]
    },
    {
      "bufferView": 57,
      "componentType": 5123,
      "count": 96,
      "type": "SCALAR"
    },
    {
      "bufferView": 58,
      "componentType": 5126,
      "count": 80,
      "type": "VEC3",
      "max": [
        5.335000038146973,
        1.1950000524520874,
        0.054999999701976776
      ],
      "min": [
        5.224999904632568,
        0.6449999809265137,
        -0.054999999701976776
      ]
    },
    {
      "bufferView": 59,
      "componentType": 5123,
      "count": 96,
      "type": "SCALAR"
    },
    {
      "bufferView": 60,
      "componentType": 5126,
      "count": 24,
      "type": "VEC3",
      "max": [
        4.96999979019165,
        0.09000000357627869,
        0.15000000596046448
      ],
      "min": [
        4.829999923706055,
        0.009999999776482582,
        -0.07000000029802322
      ]
    },
    {
      "bufferView": 61,
      "componentType": 5123,
      "count": 36,
      "type": "SCALAR"
    },
    {
      "bufferView": 62,
      "componentType": 5126,
      "count": 24,
      "type": "VEC3",
      "max": [
        5.170000076293945,
        0.09000000357627869,
        0.15000000596046448
      ],
      "min": [
        5.03000020980835,
        0.009999999776482582,
        -0.07000000029802322
      ]
    },
    {
      "bufferView": 63,
      "componentType": 5123,
      "count": 36,
      "type": "SCALAR"
    }
  ],
  "meshes": [
    {
      "name": "marshaller_torso",
      "primitives": [
        {
          "attributes": {
            "POSITION": 0
          },
          "indices": 1,
          "mode": 4
        }
      ]
    },
    {
      "name": "marshaller_head",
      "primitives": [
        {
          "attributes": {
            "POSITION": 2
          },
          "indices": 3,
          "mode": 4
        }
      ]
    },
    {
      "name": "marshaller_vest",
      "primitives": [
        {
          "attributes": {
            "POSITION": 4
          },
          "indices": 5,
          "mode": 4
        }
      ]
    },
    {
      "name": "marshaller_hat",
      "primitives": [
        {
          "attributes": {
            "POSITION": 6
          },
          "indices": 7,
          "mode": 4
        }
      ]
    },
    {
      "name": "marshaller_leg_l",
      "primitives": [
        {
          "attributes": {
            "POSITION": 8
          },
          "indices": 9,
          "mode": 4
        }
      ]
    },
    {
      "name": "marshaller_leg_r",
      "primitives": [
        {
          "attributes": {
            "POSITION": 10
          },
          "indices": 11,
          "mode": 4
        }
      ]
    },
    {
      "name": "marshaller_arm_l",
      "primitives": [
        {
          "attributes": {
            "POSITION": 12
          },
          "indices": 13,
          "mode": 4
        }
      ]
    },
    {
      "name": "marshaller_arm_r",
      "primitives": [
        {
          "attributes": {
            "POSITION": 14
          },
          "indices": 15,
          "mode": 4
        }
      ]
    },
    {
      "name": "marshaller_shoe_l",
      "primitives": [
        {
          "attributes": {
            "POSITION": 16
          },
          "indices": 17,
          "mode": 4
        }
      ]
    },
    {
      "name": "marshaller_shoe_r",
      "primitives": [
        {
          "attributes": {
            "POSITION": 18
          },
          "indices": 19,
          "mode": 4
        }
      ]
    },
    {
      "name": "marshaller_wand",
      "primitives": [
        {
          "attributes": {
            "POSITION": 20
          },
          "indices": 21,
          "mode": 4
        }
      ]
    },
    {
      "name": "marshaller_wand_tip",
      "primitives": [
        {
          "attributes": {
            "POSITION": 22
          },
          "indices": 23,
          "mode": 4
        }
      ]
    },
    {
      "name": "fueler_torso",
      "primitives": [
        {
          "attributes": {
            "POSITION": 24
          },
          "indices": 25,
          "mode": 4
        }
      ]
    },
    {
      "name": "fueler_head",
      "primitives": [
        {
          "attributes": {
            "POSITION": 26
          },
          "indices": 27,
          "mode": 4
        }
      ]
    },
    {
      "name": "fueler_vest",
      "primitives": [
        {
          "attributes": {
            "POSITION": 28
          },
          "indices": 29,
          "mode": 4
        }
      ]
    },
    {
      "name": "fueler_hat",
      "primitives": [
        {
          "attributes": {
            "POSITION": 30
          },
          "indices": 31,
          "mode": 4
        }
      ]
    },
    {
      "name": "fueler_leg_l",
      "primitives": [
        {
          "attributes": {
            "POSITION": 32
          },
          "indices": 33,
          "mode": 4
        }
      ]
    },
    {
      "name": "fueler_leg_r",
      "primitives": [
        {
          "attributes": {
            "POSITION": 34
          },
          "indices": 35,
          "mode": 4
        }
      ]
    },
    {
      "name": "fueler_arm_l",
      "primitives": [
        {
          "attributes": {
            "POSITION": 36
          },
          "indices": 37,
          "mode": 4
        }
      ]
    },
    {
      "name": "fueler_arm_r",
      "primitives": [
        {
          "attributes": {
            "POSITION": 38
          },
          "indices": 39,
          "mode": 4
        }
      ]
    },
    {
      "name": "fueler_shoe_l",
      "primitives": [
        {
          "attributes": {
            "POSITION": 40
          },
          "indices": 41,
          "mode": 4
        }
      ]
    },
    {
      "name": "fueler_shoe_r",
      "primitives": [
        {
          "attributes": {
            "POSITION": 42
          },
          "indices": 43,
          "mode": 4
        }
      ]
    },
    {
      "name": "ramp_torso",
      "primitives": [
        {
          "attributes": {
            "POSITION": 44
          },
          "indices": 45,
          "mode": 4
        }
      ]
    },
    {
      "name": "ramp_head",
      "primitives": [
        {
          "attributes": {
            "POSITION": 46
          },
          "indices": 47,
          "mode": 4
        }
      ]
    },
    {
      "name": "ramp_vest",
      "primitives": [
        {
          "attributes": {
            "POSITION": 48
          },
          "indices": 49,
          "mode": 4
        }
      ]
    },
    {
      "name": "ramp_hat",
      "primitives": [
        {
          "attributes": {
            "POSITION": 50
          },
          "indices": 51,
          "mode": 4
        }
      ]
    },
    {
      "name": "ramp_leg_l",
      "primitives": [
        {
          "attributes": {
            "POSITION": 52
          },
          "indices": 53,
          "mode": 4
        }
      ]
    },
    {
      "name": "ramp_leg_r",
      "primitives": [
        {
          "attributes": {
            "POSITION": 54
          },
          "indices": 55,
          "mode": 4
        }
      ]
    },
    {
      "name": "ramp_arm_l",
      "primitives": [
        {
          "attributes": {
            "POSITION": 56
          },
          "indices": 57,
          "mode": 4
        }
      ]
    },
    {
      "name": "ramp_arm_r",
      "primitives": [
        {
          "attributes": {
            "POSITION": 58
          },
          "indices": 59,
          "mode": 4
        }
      ]
    },
    {
      "name": "ramp_shoe_l",
      "primitives": [
        {
          "attributes": {
            "POSITION": 60
          },
          "indices": 61,
          "mode": 4
        }
      ]
    },
    {
      "name": "ramp_shoe_r",
      "primitives": [
        {
          "attributes": {
            "POSITION": 62
          },
          "indices": 63,
          "mode": 4
        }
      ]
    }
  ],
  "nodes": [
    {
      "name": "marshaller_torso",
      "mesh": 0
    },
    {
      "name": "marshaller_head",
      "mesh": 1
    },
    {
      "name": "marshaller_vest",
      "mesh": 2
    },
    {
      "name": "marshaller_hat",
      "mesh": 3
    },
    {
      "name": "marshaller_leg_l",
      "mesh": 4
    },
    {
      "name": "marshaller_leg_r",
      "mesh": 5
    },
    {
      "name": "marshaller_arm_l",
      "mesh": 6
    },
    {
      "name": "marshaller_arm_r",
      "mesh": 7
    },
    {
      "name": "marshaller_shoe_l",
      "mesh": 8
    },
    {
      "name": "marshaller_shoe_r",
      "mesh": 9
    },
    {
      "name": "marshaller_wand",
      "mesh": 10
    },
    {
      "name": "marshaller_wand_tip",
      "mesh": 11
    },
    {
      "name": "fueler_torso",
      "mesh": 12
    },
    {
      "name": "fueler_head",
      "mesh": 13
    },
    {
      "name": "fueler_vest",
      "mesh": 14
    },
    {
      "name": "fueler_hat",
      "mesh": 15
    },
    {
      "name": "fueler_leg_l",
      "mesh": 16
    },
    {
      "name": "fueler_leg_r",
      "mesh": 17
    },
    {
      "name": "fueler_arm_l",
      "mesh": 18
    },
    {
      "name": "fueler_arm_r",
      "mesh": 19
    },
    {
      "name": "fueler_shoe_l",
      "mesh": 20
    },
    {
      "name": "fueler_shoe_r",
      "mesh": 21
    },
    {
      "name": "ramp_torso",
      "mesh": 22
    },
    {
      "name": "ramp_head",
      "mesh": 23
    },
    {
      "name": "ramp_vest",
      "mesh": 24
    },
    {
      "name": "ramp_hat",
      "mesh": 25
    },
    {
      "name": "ramp_leg_l",
      "mesh": 26
    },
    {
      "name": "ramp_leg_r",
      "mesh": 27
    },
    {
      "name": "ramp_arm_l",
      "mesh": 28
    },
    {
      "name": "ramp_arm_r",
      "mesh": 29
    },
    {
      "name": "ramp_shoe_l",
      "mesh": 30
    },
    {
      "name": "ramp_shoe_r",
      "mesh": 31
    }
  ],
  "scenes": [
    {
      "name": "mdl_ramp_crew_kit_v01",
      "nodes": [
        0,
        1,
        2,
        3,
        4,
        5,
        6,
        7,
        8,
        9,
        10,
        11,
        12,
        13,
        14,
        15,
        16,
        17,
        18,
        19,
        20,
        21,
        22,
        23,
        24,
        25,
        26,
        27,
        28,
        29,
        30,
        31
      ]
    }
  ],
  "scene": 0
}