{
  "asset": {
    "version": "2.0",
    "generator": "Airside Batch C procedural kit"
  },
  "buffers": [
    {
      "uri": "mdl_passenger_kit_v01.bin",
      "byteLength": 34272
    }
  ],
  "bufferViews": [
    {
      "buffer": 0,
      "byteOffset": 0,
      "byteLength": 288,
      "target": 34962
    },
    {
      "buffer": 0,
      "byteOffset": 288,
      "byteLength": 72,
      "target": 34963
    },
    {
      "buffer": 0,
      "byteOffset": 360,
      "byteLength": 1200,
      "target": 34962
    },
    {
      "buffer": 0,
      "byteOffset": 1560,
      "byteLength": 240,
      "target": 34963
    },
    {
      "buffer": 0,
      "byteOffset": 1800,
      "byteLength": 960,
      "target": 34962
    },
    {
      "buffer": 0,
      "byteOffset": 2760,
      "byteLength": 192,
      "target": 34963
    },
    {
      "buffer": 0,
      "byteOffset": 2952,
      "byteLength": 960,
      "target": 34962
    },
    {
      "buffer": 0,
      "byteOffset": 3912,
      "byteLength": 192,
      "target": 34963
    },
    {
      "buffer": 0,
      "byteOffset": 4104,
      "byteLength": 960,
      "target": 34962
    },
    {
      "buffer": 0,
      "byteOffset": 5064,
      "byteLength": 192,
      "target": 34963
    },
    {
      "buffer": 0,
      "byteOffset": 5256,
      "byteLength": 960,
      "target": 34962
    },
    {
      "buffer": 0,
      "byteOffset": 6216,
      "byteLength": 192,
      "target": 34963
    },
    {
      "buffer": 0,
      "byteOffset": 6408,
      "byteLength": 288,
      "target": 34962
    },
    {
      "buffer": 0,
      "byteOffset": 6696,
      "byteLength": 72,
      "target": 34963
    },
    {
      "buffer": 0,
      "byteOffset": 6768,
      "byteLength": 288,
      "target": 34962
    },
    {
      "buffer": 0,
      "byteOffset": 7056,
      "byteLength": 72,
      "target": 34963
    },
    {
      "buffer": 0,
      "byteOffset": 7128,
      "byteLength": 288,
      "target": 34962
    },
    {
      "buffer": 0,
      "byteOffset": 7416,
      "byteLength": 72,
      "target": 34963
    },
    {
      "buffer": 0,
      "byteOffset": 7488,
      "byteLength": 1200,
      "target": 34962
    },
    {
      "buffer": 0,
      "byteOffset": 8688,
      "byteLength": 240,
      "target": 34963
    },
    {
      "buffer": 0,
      "byteOffset": 8928,
      "byteLength": 960,
      "target": 34962
    },
    {
      "buffer": 0,
      "byteOffset": 9888,
      "byteLength": 192,
      "target": 34963
    },
    {
      "buffer": 0,
      "byteOffset": 10080,
      "byteLength": 960,
      "target": 34962
    },
    {
      "buffer": 0,
      "byteOffset": 11040,
      "byteLength": 192,
      "target": 34963
    },
    {
      "buffer": 0,
      "byteOffset": 11232,
      "byteLength": 960,
      "target": 34962
    },
    {
      "buffer": 0,
      "byteOffset": 12192,
      "byteLength": 192,
      "target": 34963
    },
    {
      "buffer": 0,
      "byteOffset": 12384,
      "byteLength": 960,
      "target": 34962
    },
    {
      "buffer": 0,
      "byteOffset": 13344,
      "byteLength": 192,
      "target": 34963
    },
    {
      "buffer": 0,
      "byteOffset": 13536,
      "byteLength": 288,
      "target": 34962
    },
    {
      "buffer": 0,
      "byteOffset": 13824,
      "byteLength": 72,
      "target": 34963
    },
    {
      "buffer": 0,
      "byteOffset": 13896,
      "byteLength": 288,
      "target": 34962
    },
    {
      "buffer": 0,
      "byteOffset": 14184,
      "byteLength": 72,
      "target": 34963
    },
    {
      "buffer": 0,
      "byteOffset": 14256,
      "byteLength": 288,
      "target": 34962
    },
    {
      "buffer": 0,
      "byteOffset": 14544,
      "byteLength": 72,
      "target": 34963
    },
    {
      "buffer": 0,
      "byteOffset": 14616,
      "byteLength": 1200,
      "target": 34962
    },
    {
      "buffer": 0,
      "byteOffset": 15816,
      "byteLength": 240,
      "target": 34963
    },
    {
      "buffer": 0,
      "byteOffset": 16056,
      "byteLength": 960,
      "target": 34962
    },
    {
      "buffer": 0,
      "byteOffset": 17016,
      "byteLength": 192,
      "target": 34963
    },
    {
      "buffer": 0,
      "byteOffset": 17208,
      "byteLength": 960,
      "target": 34962
    },
    {
      "buffer": 0,
      "byteOffset": 18168,
      "byteLength": 192,
      "target": 34963
    },
    {
      "buffer": 0,
      "byteOffset": 18360,
      "byteLength": 960,
      "target": 34962
    },
    {
      "buffer": 0,
      "byteOffset": 19320,
      "byteLength": 192,
      "target": 34963
    },
    {
      "buffer": 0,
      "byteOffset": 19512,
      "byteLength": 960,
      "target": 34962
    },
    {
      "buffer": 0,
      "byteOffset": 20472,
      "byteLength": 192,
      "target": 34963
    },
    {
      "buffer": 0,
      "byteOffset": 20664,
      "byteLength": 288,
      "target": 34962
    },
    {
      "buffer": 0,
      "byteOffset": 20952,
      "byteLength": 72,
      "target": 34963
    },
    {
      "buffer": 0,
      "byteOffset": 21024,
      "byteLength": 288,
      "target": 34962
    },
    {
      "buffer": 0,
      "byteOffset": 21312,
      "byteLength": 72,
      "target": 34963
    },
    {
      "buffer": 0,
      "byteOffset": 21384,
      "byteLength": 288,
      "target": 34962
    },
    {
      "buffer": 0,
      "byteOffset": 21672,
      "byteLength": 72,
      "target": 34963
    },
    {
      "buffer": 0,
      "byteOffset": 21744,
      "byteLength": 1200,
      "target": 34962
    },
    {
      "buffer": 0,
      "byteOffset": 22944,
      "byteLength": 240,
      "target": 34963
    },
    {
      "buffer": 0,
      "byteOffset": 23184,
      "byteLength": 960,
      "target": 34962
    },
    {
      "buffer": 0,
      "byteOffset": 24144,
      "byteLength": 192,
      "target": 34963
    },
    {
      "buffer": 0,
      "byteOffset": 24336,
      "byteLength": 960,
      "target": 34962
    },
    {
      "buffer": 0,
      "byteOffset": 25296,
      "byteLength": 192,
      "target": 34963
    },
    {
      "buffer": 0,
      "byteOffset": 25488,
      "byteLength": 960,
      "target": 34962
    },
    {
      "buffer": 0,
      "byteOffset": 26448,
      "byteLength": 192,
      "target": 34963
    },
    {
      "buffer": 0,
      "byteOffset": 26640,
      "byteLength": 960,
      "target": 34962
    },
    {
      "buffer": 0,
      "byteOffset": 27600,
      "byteLength": 192,
      "target": 34963
    },
    {
      "buffer": 0,
      "byteOffset": 27792,
      "byteLength": 288,
      "target": 34962
    },
    {
      "buffer": 0,
      "byteOffset": 28080,
      "byteLength": 72,
      "target": 34963
    },
    {
      "buffer": 0,
      "byteOffset": 28152,
      "byteLength": 288,
      "target": 34962
    },
    {
      "buffer": 0,
      "byteOffset": 28440,
      "byteLength": 72,
      "target": 34963
    },
    {
      "buffer": 0,
      "byteOffset": 28512,
      "byteLength": 288,
      "target": 34962
    },
    {
      "buffer": 0,
      "byteOffset": 28800,
      "byteLength": 72,
      "target": 34963
    },
    {
      "buffer": 0,
      "byteOffset": 28872,
      "byteLength": 1200,
      "target": 34962
    },
    {
      "buffer": 0,
      "byteOffset": 30072,
      "byteLength": 240,
      "target": 34963
    },
    {
      "buffer": 0,
      "byteOffset": 30312,
      "byteLength": 288,
      "target": 34962
    },
    {
      "buffer": 0,
      "byteOffset": 30600,
      "byteLength": 72,
      "target": 34963
    },
    {
      "buffer": 0,
      "byteOffset": 30672,
      "byteLength": 288,
      "target": 34962
    },
    {
      "buffer": 0,
      "byteOffset": 30960,
      "byteLength": 72,
      "target": 34963
    },
    {
      "buffer": 0,
      "byteOffset": 31032,
      "byteLength": 288,
      "target": 34962
    },
    {
      "buffer": 0,
      "byteOffset": 31320,
      "byteLength": 72,
      "target": 34963
    },
    {
      "buffer": 0,
      "byteOffset": 31392,
      "byteLength": 288,
      "target": 34962
    },
    {
      "buffer": 0,
      "byteOffset": 31680,
      "byteLength": 72,
      "target": 34963
    },
    {
      "buffer": 0,
      "byteOffset": 31752,
      "byteLength": 1200,
      "target": 34962
    },
    {
      "buffer": 0,
      "byteOffset": 32952,
      "byteLength": 240,
      "target": 34963
    },
    {
      "buffer": 0,
      "byteOffset": 33192,
      "byteLength": 288,
      "target": 34962
    },
    {
      "buffer": 0,
      "byteOffset": 33480,
      "byteLength": 72,
      "target": 34963
    },
    {
      "buffer": 0,
      "byteOffset": 33552,
      "byteLength": 288,
      "target": 34962
    },
    {
      "buffer": 0,
      "byteOffset": 33840,
      "byteLength": 72,
      "target": 34963
    },
    {
      "buffer": 0,
      "byteOffset": 33912,
      "byteLength": 288,
      "target": 34962
    },
    {
      "buffer": 0,
      "byteOffset": 34200,
      "byteLength": 72,
      "target": 34963
    }
  ],
  "accessors": [
    {
      "bufferView": 0,
      "componentType": 5126,
      "count": 24,
      "type": "VEC3",
      "max": [
        0.1899999976158142,
        1.3250000476837158,
        0.10999999940395355
      ],
      "min": [
        -0.1899999976158142,
        0.4749999940395355,
        -0.10999999940395355
      ]
    },
    {
      "bufferView": 1,
      "componentType": 5123,
      "count": 36,
      "type": "SCALAR"
    },
    {
      "bufferView": 2,
      "componentType": 5126,
      "count": 100,
      "type": "VEC3",
      "max": [
        0.10999999940395355,
        1.627500295639038,
        0.10461621731519699
      ],
      "min": [
        -0.10999999940395355,
        1.4274998903274536,
        -0.10461621731519699
      ]
    },
    {
      "bufferView": 3,
      "componentType": 5123,
      "count": 120,
      "type": "SCALAR"
    },
    {
      "bufferView": 4,
      "componentType": 5126,
      "count": 80,
      "type": "VEC3",
      "max": [
        -0.029999999329447746,
        0.699999988079071,
        0.07000000029802322
      ],
      "min": [
        -0.17000000178813934,
        0.0,
        -0.07000000029802322
      ]
    },
    {
      "bufferView": 5,
      "componentType": 5123,
      "count": 96,
      "type": "SCALAR"
    },
    {
      "bufferView": 6,
      "componentType": 5126,
      "count": 80,
      "type": "VEC3",
      "max": [
        0.17000000178813934,
        0.699999988079071,
        0.07000000029802322
      ],
      "min": [
        0.029999999329447746,
        0.0,
        -0.07000000029802322
      ]
    },
    {
      "bufferView": 7,
      "componentType": 5123,
      "count": 96,
      "type": "SCALAR"
    },
    {
      "bufferView": 8,
      "componentType": 5126,
      "count": 80,
      "type": "VEC3",
      "max": [
        -0.22499999403953552,
        1.1950000524520874,
        0.054999999701976776
      ],
      "min": [
        -0.33500000834465027,
        0.6449999809265137,
        -0.054999999701976776
      ]
    },
    {
      "bufferView": 9,
      "componentType": 5123,
      "count": 96,
      "type": "SCALAR"
    },
    {
      "bufferView": 10,
      "componentType": 5126,
      "count": 80,
      "type": "VEC3",
      "max": [
        0.33500000834465027,
        1.1950000524520874,
        0.054999999701976776
      ],
      "min": [
        0.22499999403953552,
        0.6449999809265137,
        -0.054999999701976776
      ]
    },
    {
      "bufferView": 11,
      "componentType": 5123,
      "count": 96,
      "type": "SCALAR"
    },
    {
      "bufferView": 12,
      "componentType": 5126,
      "count": 24,
      "type": "VEC3",
      "max": [
        -0.029999999329447746,
        0.09000000357627869,
        0.15000000596046448
      ],
      "min": [
        -0.17000000178813934,
        0.009999999776482582,
        -0.07000000029802322
      ]
    },
    {
      "bufferView": 13,
      "componentType": 5123,
      "count": 36,
      "type": "SCALAR"
    },
    {
      "bufferView": 14,
      "componentType": 5126,
      "count": 24,
      "type": "VEC3",
      "max": [
        0.17000000178813934,
        0.09000000357627869,
        0.15000000596046448
      ],
      "min": [
        0.029999999329447746,
        0.009999999776482582,
        -0.07000000029802322
      ]
    },
    {
      "bufferView": 15,
      "componentType": 5123,
      "count": 36,
      "type": "SCALAR"
    },
    {
      "bufferView": 16,
      "componentType": 5126,
      "count": 24,
      "type": "VEC3",
      "max": [
        2.380500078201294,
        1.2587499618530273,
        0.10450000315904617
      ],
      "min": [
        2.0195000171661377,
        0.45124998688697815,
        -0.10450000315904617
      ]
    },
    {
      "bufferView": 17,
      "componentType": 5123,
      "count": 36,
      "type": "SCALAR"
    },
    {
      "bufferView": 18,
      "componentType": 5126,
      "count": 100,
      "type": "VEC3",
      "max": [
        2.304500102996826,
        1.5461251735687256,
        0.09938540309667587
      ],
      "min": [
        2.0954999923706055,
        1.356124997138977,
        -0.09938540309667587
      ]
    },
    {
      "bufferView": 19,
      "componentType": 5123,
      "count": 120,
      "type": "SCALAR"
    },
    {
      "bufferView": 20,
      "componentType": 5126,
      "count": 80,
      "type": "VEC3",
      "max": [
        2.1714999675750732,
        0.6650000214576721,
        0.06650000065565109
      ],
      "min": [
        2.0385000705718994,
        0.0,
        -0.06650000065565109
      ]
    },
    {
      "bufferView": 21,
      "componentType": 5123,
      "count": 96,
      "type": "SCALAR"
    },
    {
      "bufferView": 22,
      "componentType": 5126,
      "count": 80,
      "type": "VEC3",
      "max": [
        2.3615000247955322,
        0.6650000214576721,
        0.06650000065565109
      ],
      "min": [
        2.2285001277923584,
        0.0,
        -0.06650000065565109
      ]
    },
    {
      "bufferView": 23,
      "componentType": 5123,
      "count": 96,
      "type": "SCALAR"
    },
    {
      "bufferView": 24,
      "componentType": 5126,
      "count": 80,
      "type": "VEC3",
      "max": [
        1.9862500429153442,
        1.1352499723434448,
        0.05225000157952309
      ],
      "min": [
        1.8817501068115234,
        0.6127499938011169,
        -0.05225000157952309
      ]
    },
    {
      "bufferView": 25,
      "componentType": 5123,
      "count": 96,
      "type": "SCALAR"
    },
    {
      "bufferView": 26,
      "componentType": 5126,
      "count": 80,
      "type": "VEC3",
      "max": [
        2.518249988555908,
        1.1352499723434448,
        0.05225000157952309
      ],
      "min": [
        2.413750171661377,
        0.6127499938011169,
        -0.05225000157952309
      ]
    },
    {
      "bufferView": 27,
      "componentType": 5123,
      "count": 96,
      "type": "SCALAR"
    },
    {
      "bufferView": 28,
      "componentType": 5126,
      "count": 24,
      "type": "VEC3",
      "max": [
        2.1714999675750732,
        0.08550000190734863,
        0.14249999821186066
      ],
      "min": [
        2.0385000705718994,
        0.009499999694526196,
        -0.06650000065565109
      ]
    },
    {
      "bufferView": 29,
      "componentType": 5123,
      "count": 36,
      "type": "SCALAR"
    },
    {
      "bufferView": 30,
      "componentType": 5126,
      "count": 24,
      "type": "VEC3",
      "max": [
        2.3615000247955322,
        0.08550000190734863,
        0.14249999821186066
      ],
      "min": [
        2.2285001277923584,
        0.009499999694526196,
        -0.06650000065565109
      ]
    },
    {
      "bufferView": 31,
      "componentType": 5123,
      "count": 36,
      "type": "SCALAR"
    },
    {
      "bufferView": 32,
      "componentType": 5126,
      "count": 24,
      "type": "VEC3",
      "max": [
        4.593800067901611,
        1.3515000343322754,
        0.11219999939203262
      ],
      "min": [
        4.206200122833252,
        0.484499990940094,
        -0.11219999939203262
      ]
    },
    {
      "bufferView": 33,
      "componentType": 5123,
      "count": 36,
      "type": "SCALAR"
    },
    {
      "bufferView": 34,
      "componentType": 5126,
      "count": 100,
      "type": "VEC3",
      "max": [
        4.512199878692627,
        1.6600501537322998,
        0.10670854151248932
      ],
      "min": [
        4.287800312042236,
        1.4560500383377075,
        -0.10670854151248932
      ]
    },
    {
      "bufferView": 35,
      "componentType": 5123,
      "count": 120,
      "type": "SCALAR"
    },
    {
      "bufferView": 36,
      "componentType": 5126,
      "count": 80,
      "type": "VEC3",
      "max": [
        4.3694000244140625,
        0.7139999866485596,
        0.0714000016450882
      ],
      "min": [
        4.226600170135498,
        0.0,
        -0.0714000016450882
      ]
    },
    {
      "bufferView": 37,
      "componentType": 5123,
      "count": 96,
      "type": "SCALAR"
    },
    {
      "bufferView": 38,
      "componentType": 5126,
      "count": 80,
      "type": "VEC3",
      "max": [
        4.573400020599365,
        0.7139999866485596,
        0.0714000016450882
      ],
      "min": [
        4.430600166320801,
        0.0,
        -0.0714000016450882
      ]
    },
    {
      "bufferView": 39,
      "componentType": 5123,
      "count": 96,
      "type": "SCALAR"
    },
    {
      "bufferView": 40,
      "componentType": 5126,
      "count": 80,
      "type": "VEC3",
      "max": [
        4.1705002784729,
        1.2188999652862549,
        0.05609999969601631
      ],
      "min": [
        4.058300018310547,
        0.6578999161720276,
        -0.05609999969601631
      ]
    },
    {
      "bufferView": 41,
      "componentType": 5123,
      "count": 96,
      "type": "SCALAR"
    },
    {
      "bufferView": 42,
      "componentType": 5126,
      "count": 80,
      "type": "VEC3",
      "max": [
        4.741700172424316,
        1.2188999652862549,
        0.05609999969601631
      ],
      "min": [
        4.629499912261963,
        0.6578999161720276,
        -0.05609999969601631
      ]
    },
    {
      "bufferView": 43,
      "componentType": 5123,
      "count": 96,
      "type": "SCALAR"
    },
    {
      "bufferView": 44,
      "componentType": 5126,
      "count": 24,
      "type": "VEC3",
      "max": [
        4.3694000244140625,
        0.09179999679327011,
        0.15299999713897705
      ],
      "min": [
        4.226600170135498,
        0.010200000368058681,
        -0.0714000016450882
      ]
    },
    {
      "bufferView": 45,
      "componentType": 5123,
      "count": 36,
      "type": "SCALAR"
    },
    {
      "bufferView": 46,
      "componentType": 5126,
      "count": 24,
      "type": "VEC3",
      "max": [
        4.573400020599365,
        0.09179999679327011,
        0.15299999713897705
      ],
      "min": [
        4.430600166320801,
        0.010200000368058681,
        -0.0714000016450882
      ]
    },
    {
      "bufferView": 47,
      "componentType": 5123,
      "count": 36,
      "type": "SCALAR"
    },
    {
      "bufferView": 48,
      "componentType": 5126,
      "count": 24,
      "type": "VEC3",
      "max": [
        6.786200046539307,
        1.2984999418258667,
        0.10779999941587448
      ],
      "min": [
        6.41379976272583,
        0.46549999713897705,
        -0.10779999941587448
      ]
    },
    {
      "bufferView": 49,
      "componentType": 5123,
      "count": 36,
      "type": "SCALAR"
    },
    {
      "bufferView": 50,
      "componentType": 5126,
      "count": 100,
      "type": "VEC3",
      "max": [
        6.707799911499023,
        1.5949499607086182,
        0.10252389311790466
      ],
      "min": [
        6.492199897766113,
        1.3989498615264893,
        -0.10252389311790466
      ]
    },
    {
      "bufferView": 51,
      "componentType": 5123,
      "count": 120,
      "type": "SCALAR"
    },
    {
      "bufferView": 52,
      "componentType": 5126,
      "count": 80,
      "type": "VEC3",
      "max": [
        6.5706000328063965,
        0.6859999895095825,
        0.06859999895095825
      ],
      "min": [
        6.433399677276611,
        0.0,
        -0.06859999895095825
      ]
    },
    {
      "bufferView": 53,
      "componentType": 5123,
      "count": 96,
      "type": "SCALAR"
    },
    {
      "bufferView": 54,
      "componentType": 5126,
      "count": 80,
      "type": "VEC3",
      "max": [
        6.766600131988525,
        0.6859999895095825,
        0.06859999895095825
      ],
      "min": [
        6.62939977645874,
        0.0,
        -0.06859999895095825
      ]
    },
    {
      "bufferView": 55,
      "componentType": 5123,
      "count": 96,
      "type": "SCALAR"
    },
    {
      "bufferView": 56,
      "componentType": 5126,
      "count": 80,
      "type": "VEC3",
      "max": [
        6.379499912261963,
        1.1711000204086304,
        0.05389999970793724
      ],
      "min": [
        6.271699905395508,
        0.632099986076355,
        -0.05389999970793724
      ]
    },
    {
      "bufferView": 57,
      "componentType": 5123,
      "count": 96,
      "type": "SCALAR"
    },
    {
      "bufferView": 58,
      "componentType": 5126,
      "count": 80,
      "type": "VEC3",
      "max": [
        6.928299903869629,
        1.1711000204086304,
        0.05389999970793724
      ],
      "min": [
        6.820499897003174,
        0.632099986076355,
        -0.05389999970793724
      ]
    },
    {
      "bufferView": 59,
      "componentType": 5123,
      "count": 96,
      "type": "SCALAR"
    },
    {
      "bufferView": 60,
      "componentType": 5126,
      "count": 24,
      "type": "VEC3",
      "max": [
        6.5706000328063965,
        0.08820000290870667,
        0.1469999998807907
      ],
      "min": [
        6.433399677276611,
        0.009800000116229057,
        -0.06859999895095825
      ]
    },
    {
      "bufferView": 61,
      "componentType": 5123,
      "count": 36,
      "type": "SCALAR"
    },
    {
      "bufferView": 62,
      "componentType": 5126,
      "count": 24,
      "type": "VEC3",
      "max": [
        6.766600131988525,
        0.08820000290870667,
        0.1469999998807907
      ],
      "min": [
        6.62939977645874,
        0.009800000116229057,
        -0.06859999895095825
      ]
    },
    {
      "bufferView": 63,
      "componentType": 5123,
      "count": 36,
      "type": "SCALAR"
    },
    {
      "bufferView": 64,
      "componentType": 5126,
      "count": 24,
      "type": "VEC3",
      "max": [
        8.989999771118164,
        0.824999988079071,
        0.10999999940395355
      ],
      "min": [
        8.610000610351562,
        0.2750000059604645,
        -0.10999999940395355
      ]
    },
    {
      "bufferView": 65,
      "componentType": 5123,
      "count": 36,
      "type": "SCALAR"
    },
    {
      "bufferView": 66,
      "componentType": 5126,
      "count": 100,
      "type": "VEC3",
      "max": [
        8.90999984741211,
        1.1125000715255737,
        0.10461621731519699
      ],
      "min": [
        8.690000534057617,
        0.9125000238418579,
        -0.10461621731519699
      ]
    },
    {
      "bufferView": 67,
      "componentType": 5123,
      "count": 120,
      "type": "SCALAR"
    },
    {
      "bufferView": 68,
      "componentType": 5126,
      "count": 24,
      "type": "VEC3",
      "max": [
        9.0,
        0.3799999952316284,
        0.4749999940395355
      ],
      "min": [
        8.600000381469727,
        0.18000000715255737,
        -0.07500000298023224
      ]
    },
    {
      "bufferView": 69,
      "componentType": 5123,
      "count": 36,
      "type": "SCALAR"
    },
    {
      "bufferView": 70,
      "componentType": 5126,
      "count": 24,
      "type": "VEC3",
      "max": [
        8.579999923706055,
        0.75,
        0.10999999940395355
      ],
      "min": [
        8.460000038146973,
        0.3499999940395355,
        -0.009999999776482582
      ]
    },
    {
      "bufferView": 71,
      "componentType": 5123,
      "count": 36,
      "type": "SCALAR"
    },
    {
      "bufferView": 72,
      "componentType": 5126,
      "count": 24,
      "type": "VEC3",
      "max": [
        9.140000343322754,
        0.75,
        0.10999999940395355
      ],
      "min": [
        9.020000457763672,
        0.3499999940395355,
        -0.009999999776482582
      ]
    },
    {
      "bufferView": 73,
      "componentType": 5123,
      "count": 36,
      "type": "SCALAR"
    },
    {
      "bufferView": 74,
      "componentType": 5126,
      "count": 24,
      "type": "VEC3",
      "max": [
        11.18239974975586,
        0.7919999957084656,
        0.10559999942779541
      ],
      "min": [
        10.81760025024414,
        0.2639999985694885,
        -0.10559999942779541
      ]
    },
    {
      "bufferView": 75,
      "componentType": 5123,
      "count": 36,
      "type": "SCALAR"
    },
    {
      "bufferView": 76,
      "componentType": 5126,
      "count": 100,
      "type": "VEC3",
      "max": [
        11.105600357055664,
        1.0679999589920044,
        0.10043156892061234
      ],
      "min": [
        10.894399642944336,
        0.8759999871253967,
        -0.10043156892061234
      ]
    },
    {
      "bufferView": 77,
      "componentType": 5123,
      "count": 120,
      "type": "SCALAR"
    },
    {
      "bufferView": 78,
      "componentType": 5126,
      "count": 24,
      "type": "VEC3",
      "max": [
        11.192000389099121,
        0.36480000615119934,
        0.4560000002384186
      ],
      "min": [
        10.807999610900879,
        0.1728000044822693,
        -0.07199999690055847
      ]
    },
    {
      "bufferView": 79,
      "componentType": 5123,
      "count": 36,
      "type": "SCALAR"
    },
    {
      "bufferView": 80,
      "componentType": 5126,
      "count": 24,
      "type": "VEC3",
      "max": [
        10.788800239562988,
        0.7200000286102295,
        0.10559999942779541
      ],
      "min": [
        10.673600196838379,
        0.335999995470047,
        -0.009600000455975533
      ]
    },
    {
      "bufferView": 81,
      "componentType": 5123,
      "count": 36,
      "type": "SCALAR"
    },
    {
      "bufferView": 82,
      "componentType": 5126,
      "count": 24,
      "type": "VEC3",
      "max": [
        11.326399803161621,
        0.7200000286102295,
        0.10559999942779541
      ],
      "min": [
        11.211199760437012,
        0.335999995470047,
        -0.009600000455975533
      ]
    },
    {
      "bufferView": 83,
      "componentType": 5123,
      "count": 36,
      "type": "SCALAR"
    }
  ],
  "meshes": [
    {
      "name": "stand_a_torso",
      "primitives": [
        {
          "attributes": {
            "POSITION": 0
          },
          "indices": 1,
          "mode": 4
        }
      ]
    },
    {
      "name": "stand_a_head",
      "primitives": [
        {
          "attributes": {
            "POSITION": 2
          },
          "indices": 3,
          "mode": 4
        }
      ]
    },
    {
      "name": "stand_a_leg_l",
      "primitives": [
        {
          "attributes": {
            "POSITION": 4
          },
          "indices": 5,
          "mode": 4
        }
      ]
    },
    {
      "name": "stand_a_leg_r",
      "primitives": [
        {
          "attributes": {
            "POSITION": 6
          },
          "indices": 7,
          "mode": 4
        }
      ]
    },
    {
      "name": "stand_a_arm_l",
      "primitives": [
        {
          "attributes": {
            "POSITION": 8
          },
          "indices": 9,
          "mode": 4
        }
      ]
    },
    {
      "name": "stand_a_arm_r",
      "primitives": [
        {
          "attributes": {
            "POSITION": 10
          },
          "indices": 11,
          "mode": 4
        }
      ]
    },
    {
      "name": "stand_a_shoe_l",
      "primitives": [
        {
          "attributes": {
            "POSITION": 12
          },
          "indices": 13,
          "mode": 4
        }
      ]
    },
    {
      "name": "stand_a_shoe_r",
      "primitives": [
        {
          "attributes": {
            "POSITION": 14
          },
          "indices": 15,
          "mode": 4
        }
      ]
    },
    {
      "name": "stand_b_torso",
      "primitives": [
        {
          "attributes": {
            "POSITION": 16
          },
          "indices": 17,
          "mode": 4
        }
      ]
    },
    {
      "name": "stand_b_head",
      "primitives": [
        {
          "attributes": {
            "POSITION": 18
          },
          "indices": 19,
          "mode": 4
        }
      ]
    },
    {
      "name": "stand_b_leg_l",
      "primitives": [
        {
          "attributes": {
            "POSITION": 20
          },
          "indices": 21,
          "mode": 4
        }
      ]
    },
    {
      "name": "stand_b_leg_r",
      "primitives": [
        {
          "attributes": {
            "POSITION": 22
          },
          "indices": 23,
          "mode": 4
        }
      ]
    },
    {
      "name": "stand_b_arm_l",
      "primitives": [
        {
          "attributes": {
            "POSITION": 24
          },
          "indices": 25,
          "mode": 4
        }
      ]
    },
    {
      "name": "stand_b_arm_r",
      "primitives": [
        {
          "attributes": {
            "POSITION": 26
          },
          "indices": 27,
          "mode": 4
        }
      ]
    },
    {
      "name": "stand_b_shoe_l",
      "primitives": [
        {
          "attributes": {
            "POSITION": 28
          },
          "indices": 29,
          "mode": 4
        }
      ]
    },
    {
      "name": "stand_b_shoe_r",
      "primitives": [
        {
          "attributes": {
            "POSITION": 30
          },
          "indices": 31,
          "mode": 4
        }
      ]
    },
    {
      "name": "walk_c_torso",
      "primitives": [
        {
          "attributes": {
            "POSITION": 32
          },
          "indices": 33,
          "mode": 4
        }
      ]
    },
    {
      "name": "walk_c_head",
      "primitives": [
        {
          "attributes": {
            "POSITION": 34
          },
          "indices": 35,
          "mode": 4
        }
      ]
    },
    {
      "name": "walk_c_leg_l",
      "primitives": [
        {
          "attributes": {
            "POSITION": 36
          },
          "indices": 37,
          "mode": 4
        }
      ]
    },
    {
      "name": "walk_c_leg_r",
      "primitives": [
        {
          "attributes": {
            "POSITION": 38
          },
          "indices": 39,
          "mode": 4
        }
      ]
    },
    {
      "name": "walk_c_arm_l",
      "primitives": [
        {
          "attributes": {
            "POSITION": 40
          },
          "indices": 41,
          "mode": 4
        }
      ]
    },
    {
      "name": "walk_c_arm_r",
      "primitives": [
        {
          "attributes": {
            "POSITION": 42
          },
          "indices": 43,
          "mode": 4
        }
      ]
    },
    {
      "name": "walk_c_shoe_l",
      "primitives": [
        {
          "attributes": {
            "POSITION": 44
          },
          "indices": 45,
          "mode": 4
        }
      ]
    },
    {
      "name": "walk_c_shoe_r",
      "primitives": [
        {
          "attributes": {
            "POSITION": 46
          },
          "indices": 47,
          "mode": 4
        }
      ]
    },
    {
      "name": "walk_d_torso",
      "primitives": [
        {
          "attributes": {
            "POSITION": 48
          },
          "indices": 49,
          "mode": 4
        }
      ]
    },
    {
      "name": "walk_d_head",
      "primitives": [
        {
          "attributes": {
            "POSITION": 50
          },
          "indices": 51,
          "mode": 4
        }
      ]
    },
    {
      "name": "walk_d_leg_l",
      "primitives": [
        {
          "attributes": {
            "POSITION": 52
          },
          "indices": 53,
          "mode": 4
        }
      ]
    },
    {
      "name": "walk_d_leg_r",
      "primitives": [
        {
          "attributes": {
            "POSITION": 54
          },
          "indices": 55,
          "mode": 4
        }
      ]
    },
    {
      "name": "walk_d_arm_l",
      "primitives": [
        {
          "attributes": {
            "POSITION": 56
          },
          "indices": 57,
          "mode": 4
        }
      ]
    },
    {
      "name": "walk_d_arm_r",
      "primitives": [
        {
          "attributes": {
            "POSITION": 58
          },
          "indices": 59,
          "mode": 4
        }
      ]
    },
    {
      "name": "walk_d_shoe_l",
      "primitives": [
        {
          "attributes": {
            "POSITION": 60
          },
          "indices": 61,
          "mode": 4
        }
      ]
    },
    {
      "name": "walk_d_shoe_r",
      "primitives": [
        {
          "attributes": {
            "POSITION": 62
          },
          "indices": 63,
          "mode": 4
        }
      ]
    },
    {
      "name": "sit_e_torso",
      "primitives": [
        {
          "attributes": {
            "POSITION": 64
          },
          "indices": 65,
          "mode": 4
        }
      ]
    },
    {
      "name": "sit_e_head",
      "primitives": [
        {
          "attributes": {
            "POSITION": 66
          },
          "indices": 67,
          "mode": 4
        }
      ]
    },
    {
      "name": "sit_e_legs",
      "primitives": [
        {
          "attributes": {
            "POSITION": 68
          },
          "indices": 69,
          "mode": 4
        }
      ]
    },
    {
      "name": "sit_e_arm_l",
      "primitives": [
        {
          "attributes": {
            "POSITION": 70
          },
          "indices": 71,
          "mode": 4
        }
      ]
    },
    {
      "name": "sit_e_arm_r",
      "primitives": [
        {
          "attributes": {
            "POSITION": 72
          },
          "indices": 73,
          "mode": 4
        }
      ]
    },
    {
      "name": "sit_f_torso",
      "primitives": [
        {
          "attributes": {
            "POSITION": 74
          },
          "indices": 75,
          "mode": 4
        }
      ]
    },
    {
      "name": "sit_f_head",
      "primitives": [
        {
          "attributes": {
            "POSITION": 76
          },
          "indices": 77,
          "mode": 4
        }
      ]
    },
    {
      "name": "sit_f_legs",
      "primitives": [
        {
          "attributes": {
            "POSITION": 78
          },
          "indices": 79,
          "mode": 4
        }
      ]
    },
    {
      "name": "sit_f_arm_l",
      "primitives": [
        {
          "attributes": {
            "POSITION": 80
          },
          "indices": 81,
          "mode": 4
        }
      ]
    },
    {
      "name": "sit_f_arm_r",
      "primitives": [
        {
          "attributes": {
            "POSITION": 82
          },
          "indices": 83,
          "mode": 4
        }
      ]
    }
  ],
  "nodes": [
    {
      "name": "stand_a_torso",
      "mesh": 0
    },
    {
      "name": "stand_a_head",
      "mesh": 1
    },
    {
      "name": "stand_a_leg_l",
      "mesh": 2
    },
    {
      "name": "stand_a_leg_r",
      "mesh": 3
    },
    {
      "name": "stand_a_arm_l",
      "mesh": 4
    },
    {
      "name": "stand_a_arm_r",
      "mesh": 5
    },
    {
      "name": "stand_a_shoe_l",
      "mesh": 6
    },
    {
      "name": "stand_a_shoe_r",
      "mesh": 7
    },
    {
      "name": "stand_b_torso",
      "mesh": 8
    },
    {
      "name": "stand_b_head",
      "mesh": 9
    },
    {
      "name": "stand_b_leg_l",
      "mesh": 10
    },
    {
      "name": "stand_b_leg_r",
      "mesh": 11
    },
    {
      "name": "stand_b_arm_l",
      "mesh": 12
    },
    {
      "name": "stand_b_arm_r",
      "mesh": 13
    },
    {
      "name": "stand_b_shoe_l",
      "mesh": 14
    },
    {
      "name": "stand_b_shoe_r",
      "mesh": 15
    },
    {
      "name": "walk_c_torso",
      "mesh": 16
    },
    {
      "name": "walk_c_head",
      "mesh": 17
    },
    {
      "name": "walk_c_leg_l",
      "mesh": 18
    },
    {
      "name": "walk_c_leg_r",
      "mesh": 19
    },
    {
      "name": "walk_c_arm_l",
      "mesh": 20
    },
    {
      "name": "walk_c_arm_r",
      "mesh": 21
    },
    {
      "name": "walk_c_shoe_l",
      "mesh": 22
    },
    {
      "name": "walk_c_shoe_r",
      "mesh": 23
    },
    {
      "name": "walk_d_torso",
      "mesh": 24
    },
    {
      "name": "walk_d_head",
      "mesh": 25
    },
    {
      "name": "walk_d_leg_l",
      "mesh": 26
    },
    {
      "name": "walk_d_leg_r",
      "mesh": 27
    },
    {
      "name": "walk_d_arm_l",
      "mesh": 28
    },
    {
      "name": "walk_d_arm_r",
      "mesh": 29
    },
    {
      "name": "walk_d_shoe_l",
      "mesh": 30
    },
    {
      "name": "walk_d_shoe_r",
      "mesh": 31
    },
    {
      "name": "sit_e_torso",
      "mesh": 32
    },
    {
      "name": "sit_e_head",
      "mesh": 33
    },
    {
      "name": "sit_e_legs",
      "mesh": 34
    },
    {
      "name": "sit_e_arm_l",
      "mesh": 35
    },
    {
      "name": "sit_e_arm_r",
      "mesh": 36
    },
    {
      "name": "sit_f_torso",
      "mesh": 37
    },
    {
      "name": "sit_f_head",
      "mesh": 38
    },
    {
      "name": "sit_f_legs",
      "mesh": 39
    },
    {
      "name": "sit_f_arm_l",
      "mesh": 40
    },
    {
      "name": "sit_f_arm_r",
      "mesh": 41
    }
  ],
  "scenes": [
    {
      "name": "mdl_passenger_kit_v01",
      "nodes": [
        0,
        1,
        2,
        3,
        4,
        5,
        6,
        7,
        8,
        9,
        10,
        11,
        12,
        13,
        14,
        15,
        16,
        17,
        18,
        19,
        20,
        21,
        22,
        23,
        24,
        25,
        26,
        27,
        28,
        29,
        30,
        31,
        32,
        33,
        34,
        35,
        36,
        37,
        38,
        39,
        40,
        41
      ]
    }
  ],
  "scene": 0
}