{
  "asset": {
    "version": "2.0",
    "generator": "Airside Batch C procedural kit"
  },
  "buffers": [
    {
      "uri": "mdl_passenger_kit_v02.bin",
      "byteLength": 137808
    }
  ],
  "bufferViews": [
    {
      "buffer": 0,
      "byteOffset": 0,
      "byteLength": 3936,
      "target": 34962
    },
    {
      "buffer": 0,
      "byteOffset": 3936,
      "byteLength": 816,
      "target": 34963
    },
    {
      "buffer": 0,
      "byteOffset": 4752,
      "byteLength": 2880,
      "target": 34962
    },
    {
      "buffer": 0,
      "byteOffset": 7632,
      "byteLength": 576,
      "target": 34963
    },
    {
      "buffer": 0,
      "byteOffset": 8208,
      "byteLength": 3360,
      "target": 34962
    },
    {
      "buffer": 0,
      "byteOffset": 11568,
      "byteLength": 672,
      "target": 34963
    },
    {
      "buffer": 0,
      "byteOffset": 12240,
      "byteLength": 3360,
      "target": 34962
    },
    {
      "buffer": 0,
      "byteOffset": 15600,
      "byteLength": 672,
      "target": 34963
    },
    {
      "buffer": 0,
      "byteOffset": 16272,
      "byteLength": 3360,
      "target": 34962
    },
    {
      "buffer": 0,
      "byteOffset": 19632,
      "byteLength": 672,
      "target": 34963
    },
    {
      "buffer": 0,
      "byteOffset": 20304,
      "byteLength": 3360,
      "target": 34962
    },
    {
      "buffer": 0,
      "byteOffset": 23664,
      "byteLength": 672,
      "target": 34963
    },
    {
      "buffer": 0,
      "byteOffset": 24336,
      "byteLength": 576,
      "target": 34962
    },
    {
      "buffer": 0,
      "byteOffset": 24912,
      "byteLength": 144,
      "target": 34963
    },
    {
      "buffer": 0,
      "byteOffset": 25056,
      "byteLength": 576,
      "target": 34962
    },
    {
      "buffer": 0,
      "byteOffset": 25632,
      "byteLength": 144,
      "target": 34963
    },
    {
      "buffer": 0,
      "byteOffset": 25776,
      "byteLength": 3936,
      "target": 34962
    },
    {
      "buffer": 0,
      "byteOffset": 29712,
      "byteLength": 816,
      "target": 34963
    },
    {
      "buffer": 0,
      "byteOffset": 30528,
      "byteLength": 2880,
      "target": 34962
    },
    {
      "buffer": 0,
      "byteOffset": 33408,
      "byteLength": 576,
      "target": 34963
    },
    {
      "buffer": 0,
      "byteOffset": 33984,
      "byteLength": 3360,
      "target": 34962
    },
    {
      "buffer": 0,
      "byteOffset": 37344,
      "byteLength": 672,
      "target": 34963
    },
    {
      "buffer": 0,
      "byteOffset": 38016,
      "byteLength": 3360,
      "target": 34962
    },
    {
      "buffer": 0,
      "byteOffset": 41376,
      "byteLength": 672,
      "target": 34963
    },
    {
      "buffer": 0,
      "byteOffset": 42048,
      "byteLength": 3360,
      "target": 34962
    },
    {
      "buffer": 0,
      "byteOffset": 45408,
      "byteLength": 672,
      "target": 34963
    },
    {
      "buffer": 0,
      "byteOffset": 46080,
      "byteLength": 3360,
      "target": 34962
    },
    {
      "buffer": 0,
      "byteOffset": 49440,
      "byteLength": 672,
      "target": 34963
    },
    {
      "buffer": 0,
      "byteOffset": 50112,
      "byteLength": 576,
      "target": 34962
    },
    {
      "buffer": 0,
      "byteOffset": 50688,
      "byteLength": 144,
      "target": 34963
    },
    {
      "buffer": 0,
      "byteOffset": 50832,
      "byteLength": 576,
      "target": 34962
    },
    {
      "buffer": 0,
      "byteOffset": 51408,
      "byteLength": 144,
      "target": 34963
    },
    {
      "buffer": 0,
      "byteOffset": 51552,
      "byteLength": 3936,
      "target": 34962
    },
    {
      "buffer": 0,
      "byteOffset": 55488,
      "byteLength": 816,
      "target": 34963
    },
    {
      "buffer": 0,
      "byteOffset": 56304,
      "byteLength": 2880,
      "target": 34962
    },
    {
      "buffer": 0,
      "byteOffset": 59184,
      "byteLength": 576,
      "target": 34963
    },
    {
      "buffer": 0,
      "byteOffset": 59760,
      "byteLength": 3360,
      "target": 34962
    },
    {
      "buffer": 0,
      "byteOffset": 63120,
      "byteLength": 672,
      "target": 34963
    },
    {
      "buffer": 0,
      "byteOffset": 63792,
      "byteLength": 3360,
      "target": 34962
    },
    {
      "buffer": 0,
      "byteOffset": 67152,
      "byteLength": 672,
      "target": 34963
    },
    {
      "buffer": 0,
      "byteOffset": 67824,
      "byteLength": 3360,
      "target": 34962
    },
    {
      "buffer": 0,
      "byteOffset": 71184,
      "byteLength": 672,
      "target": 34963
    },
    {
      "buffer": 0,
      "byteOffset": 71856,
      "byteLength": 3360,
      "target": 34962
    },
    {
      "buffer": 0,
      "byteOffset": 75216,
      "byteLength": 672,
      "target": 34963
    },
    {
      "buffer": 0,
      "byteOffset": 75888,
      "byteLength": 576,
      "target": 34962
    },
    {
      "buffer": 0,
      "byteOffset": 76464,
      "byteLength": 144,
      "target": 34963
    },
    {
      "buffer": 0,
      "byteOffset": 76608,
      "byteLength": 576,
      "target": 34962
    },
    {
      "buffer": 0,
      "byteOffset": 77184,
      "byteLength": 144,
      "target": 34963
    },
    {
      "buffer": 0,
      "byteOffset": 77328,
      "byteLength": 3936,
      "target": 34962
    },
    {
      "buffer": 0,
      "byteOffset": 81264,
      "byteLength": 816,
      "target": 34963
    },
    {
      "buffer": 0,
      "byteOffset": 82080,
      "byteLength": 2880,
      "target": 34962
    },
    {
      "buffer": 0,
      "byteOffset": 84960,
      "byteLength": 576,
      "target": 34963
    },
    {
      "buffer": 0,
      "byteOffset": 85536,
      "byteLength": 3360,
      "target": 34962
    },
    {
      "buffer": 0,
      "byteOffset": 88896,
      "byteLength": 672,
      "target": 34963
    },
    {
      "buffer": 0,
      "byteOffset": 89568,
      "byteLength": 3360,
      "target": 34962
    },
    {
      "buffer": 0,
      "byteOffset": 92928,
      "byteLength": 672,
      "target": 34963
    },
    {
      "buffer": 0,
      "byteOffset": 93600,
      "byteLength": 3360,
      "target": 34962
    },
    {
      "buffer": 0,
      "byteOffset": 96960,
      "byteLength": 672,
      "target": 34963
    },
    {
      "buffer": 0,
      "byteOffset": 97632,
      "byteLength": 3360,
      "target": 34962
    },
    {
      "buffer": 0,
      "byteOffset": 100992,
      "byteLength": 672,
      "target": 34963
    },
    {
      "buffer": 0,
      "byteOffset": 101664,
      "byteLength": 576,
      "target": 34962
    },
    {
      "buffer": 0,
      "byteOffset": 102240,
      "byteLength": 144,
      "target": 34963
    },
    {
      "buffer": 0,
      "byteOffset": 102384,
      "byteLength": 576,
      "target": 34962
    },
    {
      "buffer": 0,
      "byteOffset": 102960,
      "byteLength": 144,
      "target": 34963
    },
    {
      "buffer": 0,
      "byteOffset": 103104,
      "byteLength": 3936,
      "target": 34962
    },
    {
      "buffer": 0,
      "byteOffset": 107040,
      "byteLength": 816,
      "target": 34963
    },
    {
      "buffer": 0,
      "byteOffset": 107856,
      "byteLength": 2880,
      "target": 34962
    },
    {
      "buffer": 0,
      "byteOffset": 110736,
      "byteLength": 576,
      "target": 34963
    },
    {
      "buffer": 0,
      "byteOffset": 111312,
      "byteLength": 3648,
      "target": 34962
    },
    {
      "buffer": 0,
      "byteOffset": 114960,
      "byteLength": 744,
      "target": 34963
    },
    {
      "buffer": 0,
      "byteOffset": 115704,
      "byteLength": 1968,
      "target": 34962
    },
    {
      "buffer": 0,
      "byteOffset": 117672,
      "byteLength": 408,
      "target": 34963
    },
    {
      "buffer": 0,
      "byteOffset": 118080,
      "byteLength": 1968,
      "target": 34962
    },
    {
      "buffer": 0,
      "byteOffset": 120048,
      "byteLength": 408,
      "target": 34963
    },
    {
      "buffer": 0,
      "byteOffset": 120456,
      "byteLength": 3936,
      "target": 34962
    },
    {
      "buffer": 0,
      "byteOffset": 124392,
      "byteLength": 816,
      "target": 34963
    },
    {
      "buffer": 0,
      "byteOffset": 125208,
      "byteLength": 2880,
      "target": 34962
    },
    {
      "buffer": 0,
      "byteOffset": 128088,
      "byteLength": 576,
      "target": 34963
    },
    {
      "buffer": 0,
      "byteOffset": 128664,
      "byteLength": 3648,
      "target": 34962
    },
    {
      "buffer": 0,
      "byteOffset": 132312,
      "byteLength": 744,
      "target": 34963
    },
    {
      "buffer": 0,
      "byteOffset": 133056,
      "byteLength": 1968,
      "target": 34962
    },
    {
      "buffer": 0,
      "byteOffset": 135024,
      "byteLength": 408,
      "target": 34963
    },
    {
      "buffer": 0,
      "byteOffset": 135432,
      "byteLength": 1968,
      "target": 34962
    },
    {
      "buffer": 0,
      "byteOffset": 137400,
      "byteLength": 408,
      "target": 34963
    }
  ],
  "accessors": [
    {
      "bufferView": 0,
      "componentType": 5126,
      "count": 328,
      "type": "VEC3",
      "max": [
        0.30000001192092896,
        1.399999976158142,
        0.11999999731779099
      ],
      "min": [
        -0.30000001192092896,
        0.5,
        -0.11999999731779099
      ]
    },
    {
      "bufferView": 1,
      "componentType": 5123,
      "count": 408,
      "type": "SCALAR"
    },
    {
      "bufferView": 2,
      "componentType": 5126,
      "count": 240,
      "type": "VEC3",
      "max": [
        0.11999999731779099,
        1.7080000638961792,
        0.11699134856462479
      ],
      "min": [
        -0.11999999731779099,
        1.4079999923706055,
        -0.11699134856462479
      ]
    },
    {
      "bufferView": 3,
      "componentType": 5123,
      "count": 288,
      "type": "SCALAR"
    },
    {
      "bufferView": 4,
      "componentType": 5126,
      "count": 280,
      "type": "VEC3",
      "max": [
        -0.019999999552965164,
        0.7749999761581421,
        0.08337031304836273
      ],
      "min": [
        -0.18000000715255737,
        0.019999997690320015,
        -0.07799423485994339
      ]
    },
    {
      "bufferView": 5,
      "componentType": 5123,
      "count": 336,
      "type": "SCALAR"
    },
    {
      "bufferView": 6,
      "componentType": 5126,
      "count": 280,
      "type": "VEC3",
      "max": [
        0.18000000715255737,
        0.7749999761581421,
        0.08337031304836273
      ],
      "min": [
        0.019999999552965164,
        0.019999997690320015,
        -0.07799423485994339
      ]
    },
    {
      "bufferView": 7,
      "componentType": 5123,
      "count": 336,
      "type": "SCALAR"
    },
    {
      "bufferView": 8,
      "componentType": 5126,
      "count": 280,
      "type": "VEC3",
      "max": [
        -0.23999999463558197,
        1.1750000715255737,
        0.06874639540910721
      ],
      "min": [
        -0.36000001430511475,
        0.5699999928474426,
        -0.05849567428231239
      ]
    },
    {
      "bufferView": 9,
      "componentType": 5123,
      "count": 336,
      "type": "SCALAR"
    },
    {
      "bufferView": 10,
      "componentType": 5126,
      "count": 280,
      "type": "VEC3",
      "max": [
        0.36000001430511475,
        1.1750000715255737,
        0.06874639540910721
      ],
      "min": [
        0.23999999463558197,
        0.5699999928474426,
        -0.05849567428231239
      ]
    },
    {
      "bufferView": 11,
      "componentType": 5123,
      "count": 336,
      "type": "SCALAR"
    },
    {
      "bufferView": 12,
      "componentType": 5126,
      "count": 48,
      "type": "VEC3",
      "max": [
        -0.02500000037252903,
        0.10000000149011612,
        0.1899999976158142
      ],
      "min": [
        -0.17499999701976776,
        0.009999999776482582,
        -0.07000000029802322
      ]
    },
    {
      "bufferView": 13,
      "componentType": 5123,
      "count": 72,
      "type": "SCALAR"
    },
    {
      "bufferView": 14,
      "componentType": 5126,
      "count": 48,
      "type": "VEC3",
      "max": [
        0.17499999701976776,
        0.10000000149011612,
        0.1899999976158142
      ],
      "min": [
        0.02500000037252903,
        0.009999999776482582,
        -0.07000000029802322
      ]
    },
    {
      "bufferView": 15,
      "componentType": 5123,
      "count": 72,
      "type": "SCALAR"
    },
    {
      "bufferView": 16,
      "componentType": 5126,
      "count": 328,
      "type": "VEC3",
      "max": [
        0.2850000262260437,
        1.3300000429153442,
        0.11400000005960464
      ],
      "min": [
        -0.2850000262260437,
        0.4749999940395355,
        -0.11400000005960464
      ]
    },
    {
      "bufferView": 17,
      "componentType": 5123,
      "count": 408,
      "type": "SCALAR"
    },
    {
      "bufferView": 18,
      "componentType": 5126,
      "count": 240,
      "type": "VEC3",
      "max": [
        0.11400000005960464,
        1.6225999593734741,
        0.11114177852869034
      ],
      "min": [
        -0.11400000005960464,
        1.3375998735427856,
        -0.11114177852869034
      ]
    },
    {
      "bufferView": 19,
      "componentType": 5123,
      "count": 288,
      "type": "SCALAR"
    },
    {
      "bufferView": 20,
      "componentType": 5126,
      "count": 280,
      "type": "VEC3",
      "max": [
        -0.01899999938905239,
        0.7362499833106995,
        0.07920179516077042
      ],
      "min": [
        -0.17100000381469727,
        0.018999997526407242,
        -0.07409451901912689
      ]
    },
    {
      "bufferView": 21,
      "componentType": 5123,
      "count": 336,
      "type": "SCALAR"
    },
    {
      "bufferView": 22,
      "componentType": 5126,
      "count": 280,
      "type": "VEC3",
      "max": [
        0.17100000381469727,
        0.7362499833106995,
        0.07920179516077042
      ],
      "min": [
        0.01899999938905239,
        0.018999997526407242,
        -0.07409451901912689
      ]
    },
    {
      "bufferView": 23,
      "componentType": 5123,
      "count": 336,
      "type": "SCALAR"
    },
    {
      "bufferView": 24,
      "componentType": 5126,
      "count": 280,
      "type": "VEC3",
      "max": [
        -0.2280000001192093,
        1.1162500381469727,
        0.065309077501297
      ],
      "min": [
        -0.34200000762939453,
        0.5414999723434448,
        -0.05557088926434517
      ]
    },
    {
      "bufferView": 25,
      "componentType": 5123,
      "count": 336,
      "type": "SCALAR"
    },
    {
      "bufferView": 26,
      "componentType": 5126,
      "count": 280,
      "type": "VEC3",
      "max": [
        0.34200000762939453,
        1.1162500381469727,
        0.065309077501297
      ],
      "min": [
        0.2280000001192093,
        0.5414999723434448,
        -0.05557088926434517
      ]
    },
    {
      "bufferView": 27,
      "componentType": 5123,
      "count": 336,
      "type": "SCALAR"
    },
    {
      "bufferView": 28,
      "componentType": 5126,
      "count": 48,
      "type": "VEC3",
      "max": [
        -0.023749999701976776,
        0.0949999988079071,
        0.18050000071525574
      ],
      "min": [
        -0.16625000536441803,
        0.009499999694526196,
        -0.06650000065565109
      ]
    },
    {
      "bufferView": 29,
      "componentType": 5123,
      "count": 72,
      "type": "SCALAR"
    },
    {
      "bufferView": 30,
      "componentType": 5126,
      "count": 48,
      "type": "VEC3",
      "max": [
        0.16625000536441803,
        0.0949999988079071,
        0.18050000071525574
      ],
      "min": [
        0.023749999701976776,
        0.009499999694526196,
        -0.06650000065565109
      ]
    },
    {
      "bufferView": 31,
      "componentType": 5123,
      "count": 72,
      "type": "SCALAR"
    },
    {
      "bufferView": 32,
      "componentType": 5126,
      "count": 328,
      "type": "VEC3",
      "max": [
        0.3059999942779541,
        1.4279999732971191,
        0.12240000069141388
      ],
      "min": [
        -0.3059999942779541,
        0.5099999904632568,
        -0.12240000069141388
      ]
    },
    {
      "bufferView": 33,
      "componentType": 5123,
      "count": 408,
      "type": "SCALAR"
    },
    {
      "bufferView": 34,
      "componentType": 5126,
      "count": 240,
      "type": "VEC3",
      "max": [
        0.12240000069141388,
        1.7421602010726929,
        0.11933117359876633
      ],
      "min": [
        -0.12240000069141388,
        1.4361599683761597,
        -0.11933117359876633
      ]
    },
    {
      "bufferView": 35,
      "componentType": 5123,
      "count": 288,
      "type": "SCALAR"
    },
    {
      "bufferView": 36,
      "componentType": 5126,
      "count": 280,
      "type": "VEC3",
      "max": [
        -0.020400000736117363,
        0.7904999852180481,
        0.0850377231836319
      ],
      "min": [
        -0.18359999358654022,
        0.020400000736117363,
        -0.07955411821603775
      ]
    },
    {
      "bufferView": 37,
      "componentType": 5123,
      "count": 336,
      "type": "SCALAR"
    },
    {
      "bufferView": 38,
      "componentType": 5126,
      "count": 280,
      "type": "VEC3",
      "max": [
        0.18359999358654022,
        0.7904999852180481,
        0.0850377231836319
      ],
      "min": [
        0.020400000736117363,
        0.020400000736117363,
        -0.07955411821603775
      ]
    },
    {
      "bufferView": 39,
      "componentType": 5123,
      "count": 336,
      "type": "SCALAR"
    },
    {
      "bufferView": 40,
      "componentType": 5126,
      "count": 280,
      "type": "VEC3",
      "max": [
        -0.24480000138282776,
        1.1985000371932983,
        0.07012132555246353
      ],
      "min": [
        -0.36719998717308044,
        0.5813999772071838,
        -0.05966558679938316
      ]
    },
    {
      "bufferView": 41,
      "componentType": 5123,
      "count": 336,
      "type": "SCALAR"
    },
    {
      "bufferView": 42,
      "componentType": 5126,
      "count": 280,
      "type": "VEC3",
      "max": [
        0.36719998717308044,
        1.1985000371932983,
        0.07012132555246353
      ],
      "min": [
        0.24480000138282776,
        0.5813999772071838,
        -0.05966558679938316
      ]
    },
    {
      "bufferView": 43,
      "componentType": 5123,
      "count": 336,
      "type": "SCALAR"
    },
    {
      "bufferView": 44,
      "componentType": 5126,
      "count": 48,
      "type": "VEC3",
      "max": [
        -0.025499999523162842,
        0.10199999809265137,
        0.19380000233650208
      ],
      "min": [
        -0.1784999966621399,
        0.010200000368058681,
        -0.0714000016450882
      ]
    },
    {
      "bufferView": 45,
      "componentType": 5123,
      "count": 72,
      "type": "SCALAR"
    },
    {
      "bufferView": 46,
      "componentType": 5126,
      "count": 48,
      "type": "VEC3",
      "max": [
        0.1784999966621399,
        0.10199999809265137,
        0.19380000233650208
      ],
      "min": [
        0.025499999523162842,
        0.010200000368058681,
        -0.0714000016450882
      ]
    },
    {
      "bufferView": 47,
      "componentType": 5123,
      "count": 72,
      "type": "SCALAR"
    },
    {
      "bufferView": 48,
      "componentType": 5126,
      "count": 328,
      "type": "VEC3",
      "max": [
        0.2939999997615814,
        1.371999979019165,
        0.11760000139474869
      ],
      "min": [
        -0.2939999997615814,
        0.49000000953674316,
        -0.11760000139474869
      ]
    },
    {
      "bufferView": 49,
      "componentType": 5123,
      "count": 408,
      "type": "SCALAR"
    },
    {
      "bufferView": 50,
      "componentType": 5126,
      "count": 240,
      "type": "VEC3",
      "max": [
        0.11760000139474869,
        1.673840045928955,
        0.11465152353048325
      ],
      "min": [
        -0.11760000139474869,
        1.3798400163650513,
        -0.11465152353048325
      ]
    },
    {
      "bufferView": 51,
      "componentType": 5123,
      "count": 288,
      "type": "SCALAR"
    },
    {
      "bufferView": 52,
      "componentType": 5126,
      "count": 280,
      "type": "VEC3",
      "max": [
        -0.019600000232458115,
        0.7595000863075256,
        0.08170291036367416
      ],
      "min": [
        -0.17640000581741333,
        0.019600000232458115,
        -0.07643435150384903
      ]
    },
    {
      "bufferView": 53,
      "componentType": 5123,
      "count": 336,
      "type": "SCALAR"
    },
    {
      "bufferView": 54,
      "componentType": 5126,
      "count": 280,
      "type": "VEC3",
      "max": [
        0.17640000581741333,
        0.7595000863075256,
        0.08170291036367416
      ],
      "min": [
        0.019600000232458115,
        0.019600000232458115,
        -0.07643435150384903
      ]
    },
    {
      "bufferView": 55,
      "componentType": 5123,
      "count": 336,
      "type": "SCALAR"
    },
    {
      "bufferView": 56,
      "componentType": 5126,
      "count": 280,
      "type": "VEC3",
      "max": [
        -0.23520000278949738,
        1.1514999866485596,
        0.06737146526575089
      ],
      "min": [
        -0.35280001163482666,
        0.5586000084877014,
        -0.05732576176524162
      ]
    },
    {
      "bufferView": 57,
      "componentType": 5123,
      "count": 336,
      "type": "SCALAR"
    },
    {
      "bufferView": 58,
      "componentType": 5126,
      "count": 280,
      "type": "VEC3",
      "max": [
        0.35280001163482666,
        1.1514999866485596,
        0.06737146526575089
      ],
      "min": [
        0.23520000278949738,
        0.5586000084877014,
        -0.05732576176524162
      ]
    },
    {
      "bufferView": 59,
      "componentType": 5123,
      "count": 336,
      "type": "SCALAR"
    },
    {
      "bufferView": 60,
      "componentType": 5126,
      "count": 48,
      "type": "VEC3",
      "max": [
        -0.02449999935925007,
        0.09799999743700027,
        0.18619999289512634
      ],
      "min": [
        -0.17149999737739563,
        0.009800000116229057,
        -0.06859999895095825
      ]
    },
    {
      "bufferView": 61,
      "componentType": 5123,
      "count": 72,
      "type": "SCALAR"
    },
    {
      "bufferView": 62,
      "componentType": 5126,
      "count": 48,
      "type": "VEC3",
      "max": [
        0.17149999737739563,
        0.09799999743700027,
        0.18619999289512634
      ],
      "min": [
        0.02449999935925007,
        0.009800000116229057,
        -0.06859999895095825
      ]
    },
    {
      "bufferView": 63,
      "componentType": 5123,
      "count": 72,
      "type": "SCALAR"
    },
    {
      "bufferView": 64,
      "componentType": 5126,
      "count": 328,
      "type": "VEC3",
      "max": [
        0.30000001192092896,
        0.824999988079071,
        0.11999999731779099
      ],
      "min": [
        -0.30000001192092896,
        0.2750000059604645,
        -0.11999999731779099
      ]
    },
    {
      "bufferView": 65,
      "componentType": 5123,
      "count": 408,
      "type": "SCALAR"
    },
    {
      "bufferView": 66,
      "componentType": 5126,
      "count": 240,
      "type": "VEC3",
      "max": [
        0.11999999731779099,
        1.126000165939331,
        0.11699134856462479
      ],
      "min": [
        -0.11999999731779099,
        0.8259999752044678,
        -0.11699134856462479
      ]
    },
    {
      "bufferView": 67,
      "componentType": 5123,
      "count": 288,
      "type": "SCALAR"
    },
    {
      "bufferView": 68,
      "componentType": 5126,
      "count": 304,
      "type": "VEC3",
      "max": [
        0.20999999344348907,
        0.4099999964237213,
        0.5250000357627869
      ],
      "min": [
        -0.20999999344348907,
        0.15175504982471466,
        -0.07000000029802322
      ]
    },
    {
      "bufferView": 69,
      "componentType": 5123,
      "count": 372,
      "type": "SCALAR"
    },
    {
      "bufferView": 70,
      "componentType": 5126,
      "count": 164,
      "type": "VEC3",
      "max": [
        -0.22499999403953552,
        0.6036210060119629,
        0.33000001311302185
      ],
      "min": [
        -0.33500000834465027,
        0.49637895822525024,
        -0.11999999731779099
      ]
    },
    {
      "bufferView": 71,
      "componentType": 5123,
      "count": 204,
      "type": "SCALAR"
    },
    {
      "bufferView": 72,
      "componentType": 5126,
      "count": 164,
      "type": "VEC3",
      "max": [
        0.33500000834465027,
        0.6036210060119629,
        0.33000001311302185
      ],
      "min": [
        0.22499999403953552,
        0.49637895822525024,
        -0.11999999731779099
      ]
    },
    {
      "bufferView": 73,
      "componentType": 5123,
      "count": 204,
      "type": "SCALAR"
    },
    {
      "bufferView": 74,
      "componentType": 5126,
      "count": 328,
      "type": "VEC3",
      "max": [
        0.28800004720687866,
        0.7919999957084656,
        0.1151999980211258
      ],
      "min": [
        -0.28800004720687866,
        0.2639999985694885,
        -0.1151999980211258
      ]
    },
    {
      "bufferView": 75,
      "componentType": 5123,
      "count": 408,
      "type": "SCALAR"
    },
    {
      "bufferView": 76,
      "componentType": 5126,
      "count": 240,
      "type": "VEC3",
      "max": [
        0.1151999980211258,
        1.0809601545333862,
        0.1123116984963417
      ],
      "min": [
        -0.1151999980211258,
        0.792959988117218,
        -0.1123116984963417
      ]
    },
    {
      "bufferView": 77,
      "componentType": 5123,
      "count": 288,
      "type": "SCALAR"
    },
    {
      "bufferView": 78,
      "componentType": 5126,
      "count": 304,
      "type": "VEC3",
      "max": [
        0.20160000026226044,
        0.3935999870300293,
        0.5040000677108765
      ],
      "min": [
        -0.20160000026226044,
        0.1456848382949829,
        -0.06719999760389328
      ]
    },
    {
      "bufferView": 79,
      "componentType": 5123,
      "count": 372,
      "type": "SCALAR"
    },
    {
      "bufferView": 80,
      "componentType": 5126,
      "count": 164,
      "type": "VEC3",
      "max": [
        -0.2160000056028366,
        0.5794761776924133,
        0.31679999828338623
      ],
      "min": [
        -0.3215999901294708,
        0.47652381658554077,
        -0.11520000547170639
      ]
    },
    {
      "bufferView": 81,
      "componentType": 5123,
      "count": 204,
      "type": "SCALAR"
    },
    {
      "bufferView": 82,
      "componentType": 5126,
      "count": 164,
      "type": "VEC3",
      "max": [
        0.3215999901294708,
        0.5794761776924133,
        0.31679999828338623
      ],
      "min": [
        0.2160000056028366,
        0.47652381658554077,
        -0.11520000547170639
      ]
    },
    {
      "bufferView": 83,
      "componentType": 5123,
      "count": 204,
      "type": "SCALAR"
    }
  ],
  "meshes": [
    {
      "name": "stand_a_torso",
      "primitives": [
        {
          "attributes": {
            "POSITION": 0
          },
          "indices": 1,
          "mode": 4
        }
      ]
    },
    {
      "name": "stand_a_head",
      "primitives": [
        {
          "attributes": {
            "POSITION": 2
          },
          "indices": 3,
          "mode": 4
        }
      ]
    },
    {
      "name": "stand_a_leg_l",
      "primitives": [
        {
          "attributes": {
            "POSITION": 4
          },
          "indices": 5,
          "mode": 4
        }
      ]
    },
    {
      "name": "stand_a_leg_r",
      "primitives": [
        {
          "attributes": {
            "POSITION": 6
          },
          "indices": 7,
          "mode": 4
        }
      ]
    },
    {
      "name": "stand_a_arm_l",
      "primitives": [
        {
          "attributes": {
            "POSITION": 8
          },
          "indices": 9,
          "mode": 4
        }
      ]
    },
    {
      "name": "stand_a_arm_r",
      "primitives": [
        {
          "attributes": {
            "POSITION": 10
          },
          "indices": 11,
          "mode": 4
        }
      ]
    },
    {
      "name": "stand_a_shoe_l",
      "primitives": [
        {
          "attributes": {
            "POSITION": 12
          },
          "indices": 13,
          "mode": 4
        }
      ]
    },
    {
      "name": "stand_a_shoe_r",
      "primitives": [
        {
          "attributes": {
            "POSITION": 14
          },
          "indices": 15,
          "mode": 4
        }
      ]
    },
    {
      "name": "stand_b_torso",
      "primitives": [
        {
          "attributes": {
            "POSITION": 16
          },
          "indices": 17,
          "mode": 4
        }
      ]
    },
    {
      "name": "stand_b_head",
      "primitives": [
        {
          "attributes": {
            "POSITION": 18
          },
          "indices": 19,
          "mode": 4
        }
      ]
    },
    {
      "name": "stand_b_leg_l",
      "primitives": [
        {
          "attributes": {
            "POSITION": 20
          },
          "indices": 21,
          "mode": 4
        }
      ]
    },
    {
      "name": "stand_b_leg_r",
      "primitives": [
        {
          "attributes": {
            "POSITION": 22
          },
          "indices": 23,
          "mode": 4
        }
      ]
    },
    {
      "name": "stand_b_arm_l",
      "primitives": [
        {
          "attributes": {
            "POSITION": 24
          },
          "indices": 25,
          "mode": 4
        }
      ]
    },
    {
      "name": "stand_b_arm_r",
      "primitives": [
        {
          "attributes": {
            "POSITION": 26
          },
          "indices": 27,
          "mode": 4
        }
      ]
    },
    {
      "name": "stand_b_shoe_l",
      "primitives": [
        {
          "attributes": {
            "POSITION": 28
          },
          "indices": 29,
          "mode": 4
        }
      ]
    },
    {
      "name": "stand_b_shoe_r",
      "primitives": [
        {
          "attributes": {
            "POSITION": 30
          },
          "indices": 31,
          "mode": 4
        }
      ]
    },
    {
      "name": "walk_c_torso",
      "primitives": [
        {
          "attributes": {
            "POSITION": 32
          },
          "indices": 33,
          "mode": 4
        }
      ]
    },
    {
      "name": "walk_c_head",
      "primitives": [
        {
          "attributes": {
            "POSITION": 34
          },
          "indices": 35,
          "mode": 4
        }
      ]
    },
    {
      "name": "walk_c_leg_l",
      "primitives": [
        {
          "attributes": {
            "POSITION": 36
          },
          "indices": 37,
          "mode": 4
        }
      ]
    },
    {
      "name": "walk_c_leg_r",
      "primitives": [
        {
          "attributes": {
            "POSITION": 38
          },
          "indices": 39,
          "mode": 4
        }
      ]
    },
    {
      "name": "walk_c_arm_l",
      "primitives": [
        {
          "attributes": {
            "POSITION": 40
          },
          "indices": 41,
          "mode": 4
        }
      ]
    },
    {
      "name": "walk_c_arm_r",
      "primitives": [
        {
          "attributes": {
            "POSITION": 42
          },
          "indices": 43,
          "mode": 4
        }
      ]
    },
    {
      "name": "walk_c_shoe_l",
      "primitives": [
        {
          "attributes": {
            "POSITION": 44
          },
          "indices": 45,
          "mode": 4
        }
      ]
    },
    {
      "name": "walk_c_shoe_r",
      "primitives": [
        {
          "attributes": {
            "POSITION": 46
          },
          "indices": 47,
          "mode": 4
        }
      ]
    },
    {
      "name": "walk_d_torso",
      "primitives": [
        {
          "attributes": {
            "POSITION": 48
          },
          "indices": 49,
          "mode": 4
        }
      ]
    },
    {
      "name": "walk_d_head",
      "primitives": [
        {
          "attributes": {
            "POSITION": 50
          },
          "indices": 51,
          "mode": 4
        }
      ]
    },
    {
      "name": "walk_d_leg_l",
      "primitives": [
        {
          "attributes": {
            "POSITION": 52
          },
          "indices": 53,
          "mode": 4
        }
      ]
    },
    {
      "name": "walk_d_leg_r",
      "primitives": [
        {
          "attributes": {
            "POSITION": 54
          },
          "indices": 55,
          "mode": 4
        }
      ]
    },
    {
      "name": "walk_d_arm_l",
      "primitives": [
        {
          "attributes": {
            "POSITION": 56
          },
          "indices": 57,
          "mode": 4
        }
      ]
    },
    {
      "name": "walk_d_arm_r",
      "primitives": [
        {
          "attributes": {
            "POSITION": 58
          },
          "indices": 59,
          "mode": 4
        }
      ]
    },
    {
      "name": "walk_d_shoe_l",
      "primitives": [
        {
          "attributes": {
            "POSITION": 60
          },
          "indices": 61,
          "mode": 4
        }
      ]
    },
    {
      "name": "walk_d_shoe_r",
      "primitives": [
        {
          "attributes": {
            "POSITION": 62
          },
          "indices": 63,
          "mode": 4
        }
      ]
    },
    {
      "name": "sit_e_torso",
      "primitives": [
        {
          "attributes": {
            "POSITION": 64
          },
          "indices": 65,
          "mode": 4
        }
      ]
    },
    {
      "name": "sit_e_head",
      "primitives": [
        {
          "attributes": {
            "POSITION": 66
          },
          "indices": 67,
          "mode": 4
        }
      ]
    },
    {
      "name": "sit_e_legs",
      "primitives": [
        {
          "attributes": {
            "POSITION": 68
          },
          "indices": 69,
          "mode": 4
        }
      ]
    },
    {
      "name": "sit_e_arm_l",
      "primitives": [
        {
          "attributes": {
            "POSITION": 70
          },
          "indices": 71,
          "mode": 4
        }
      ]
    },
    {
      "name": "sit_e_arm_r",
      "primitives": [
        {
          "attributes": {
            "POSITION": 72
          },
          "indices": 73,
          "mode": 4
        }
      ]
    },
    {
      "name": "sit_f_torso",
      "primitives": [
        {
          "attributes": {
            "POSITION": 74
          },
          "indices": 75,
          "mode": 4
        }
      ]
    },
    {
      "name": "sit_f_head",
      "primitives": [
        {
          "attributes": {
            "POSITION": 76
          },
          "indices": 77,
          "mode": 4
        }
      ]
    },
    {
      "name": "sit_f_legs",
      "primitives": [
        {
          "attributes": {
            "POSITION": 78
          },
          "indices": 79,
          "mode": 4
        }
      ]
    },
    {
      "name": "sit_f_arm_l",
      "primitives": [
        {
          "attributes": {
            "POSITION": 80
          },
          "indices": 81,
          "mode": 4
        }
      ]
    },
    {
      "name": "sit_f_arm_r",
      "primitives": [
        {
          "attributes": {
            "POSITION": 82
          },
          "indices": 83,
          "mode": 4
        }
      ]
    }
  ],
  "nodes": [
    {
      "name": "stand_a_torso",
      "mesh": 0
    },
    {
      "name": "stand_a_head",
      "mesh": 1
    },
    {
      "name": "stand_a_leg_l",
      "mesh": 2
    },
    {
      "name": "stand_a_leg_r",
      "mesh": 3
    },
    {
      "name": "stand_a_arm_l",
      "mesh": 4
    },
    {
      "name": "stand_a_arm_r",
      "mesh": 5
    },
    {
      "name": "stand_a_shoe_l",
      "mesh": 6
    },
    {
      "name": "stand_a_shoe_r",
      "mesh": 7
    },
    {
      "name": "stand_b_torso",
      "mesh": 8
    },
    {
      "name": "stand_b_head",
      "mesh": 9
    },
    {
      "name": "stand_b_leg_l",
      "mesh": 10
    },
    {
      "name": "stand_b_leg_r",
      "mesh": 11
    },
    {
      "name": "stand_b_arm_l",
      "mesh": 12
    },
    {
      "name": "stand_b_arm_r",
      "mesh": 13
    },
    {
      "name": "stand_b_shoe_l",
      "mesh": 14
    },
    {
      "name": "stand_b_shoe_r",
      "mesh": 15
    },
    {
      "name": "walk_c_torso",
      "mesh": 16
    },
    {
      "name": "walk_c_head",
      "mesh": 17
    },
    {
      "name": "walk_c_leg_l",
      "mesh": 18
    },
    {
      "name": "walk_c_leg_r",
      "mesh": 19
    },
    {
      "name": "walk_c_arm_l",
      "mesh": 20
    },
    {
      "name": "walk_c_arm_r",
      "mesh": 21
    },
    {
      "name": "walk_c_shoe_l",
      "mesh": 22
    },
    {
      "name": "walk_c_shoe_r",
      "mesh": 23
    },
    {
      "name": "walk_d_torso",
      "mesh": 24
    },
    {
      "name": "walk_d_head",
      "mesh": 25
    },
    {
      "name": "walk_d_leg_l",
      "mesh": 26
    },
    {
      "name": "walk_d_leg_r",
      "mesh": 27
    },
    {
      "name": "walk_d_arm_l",
      "mesh": 28
    },
    {
      "name": "walk_d_arm_r",
      "mesh": 29
    },
    {
      "name": "walk_d_shoe_l",
      "mesh": 30
    },
    {
      "name": "walk_d_shoe_r",
      "mesh": 31
    },
    {
      "name": "sit_e_torso",
      "mesh": 32
    },
    {
      "name": "sit_e_head",
      "mesh": 33
    },
    {
      "name": "sit_e_legs",
      "mesh": 34
    },
    {
      "name": "sit_e_arm_l",
      "mesh": 35
    },
    {
      "name": "sit_e_arm_r",
      "mesh": 36
    },
    {
      "name": "sit_f_torso",
      "mesh": 37
    },
    {
      "name": "sit_f_head",
      "mesh": 38
    },
    {
      "name": "sit_f_legs",
      "mesh": 39
    },
    {
      "name": "sit_f_arm_l",
      "mesh": 40
    },
    {
      "name": "sit_f_arm_r",
      "mesh": 41
    }
  ],
  "scenes": [
    {
      "name": "mdl_passenger_kit_v02",
      "nodes": [
        0,
        1,
        2,
        3,
        4,
        5,
        6,
        7,
        8,
        9,
        10,
        11,
        12,
        13,
        14,
        15,
        16,
        17,
        18,
        19,
        20,
        21,
        22,
        23,
        24,
        25,
        26,
        27,
        28,
        29,
        30,
        31,
        32,
        33,
        34,
        35,
        36,
        37,
        38,
        39,
        40,
        41
      ]
    }
  ],
  "scene": 0
}