{
  "asset": {
    "version": "2.0",
    "generator": "Airside Batch C procedural kit"
  },
  "buffers": [
    {
      "uri": "mdl_passenger_kit_v01.bin",
      "byteLength": 81792
    }
  ],
  "bufferViews": [
    {
      "buffer": 0,
      "byteOffset": 0,
      "byteLength": 288,
      "target": 34962
    },
    {
      "buffer": 0,
      "byteOffset": 288,
      "byteLength": 288,
      "target": 34962
    },
    {
      "buffer": 0,
      "byteOffset": 576,
      "byteLength": 192,
      "target": 34962
    },
    {
      "buffer": 0,
      "byteOffset": 768,
      "byteLength": 384,
      "target": 34962
    },
    {
      "buffer": 0,
      "byteOffset": 1152,
      "byteLength": 72,
      "target": 34963
    },
    {
      "buffer": 0,
      "byteOffset": 1224,
      "byteLength": 600,
      "target": 34962
    },
    {
      "buffer": 0,
      "byteOffset": 1824,
      "byteLength": 600,
      "target": 34962
    },
    {
      "buffer": 0,
      "byteOffset": 2424,
      "byteLength": 400,
      "target": 34962
    },
    {
      "buffer": 0,
      "byteOffset": 2824,
      "byteLength": 800,
      "target": 34962
    },
    {
      "buffer": 0,
      "byteOffset": 3624,
      "byteLength": 240,
      "target": 34963
    },
    {
      "buffer": 0,
      "byteOffset": 3864,
      "byteLength": 600,
      "target": 34962
    },
    {
      "buffer": 0,
      "byteOffset": 4464,
      "byteLength": 600,
      "target": 34962
    },
    {
      "buffer": 0,
      "byteOffset": 5064,
      "byteLength": 400,
      "target": 34962
    },
    {
      "buffer": 0,
      "byteOffset": 5464,
      "byteLength": 800,
      "target": 34962
    },
    {
      "buffer": 0,
      "byteOffset": 6264,
      "byteLength": 192,
      "target": 34963
    },
    {
      "buffer": 0,
      "byteOffset": 6456,
      "byteLength": 600,
      "target": 34962
    },
    {
      "buffer": 0,
      "byteOffset": 7056,
      "byteLength": 600,
      "target": 34962
    },
    {
      "buffer": 0,
      "byteOffset": 7656,
      "byteLength": 400,
      "target": 34962
    },
    {
      "buffer": 0,
      "byteOffset": 8056,
      "byteLength": 800,
      "target": 34962
    },
    {
      "buffer": 0,
      "byteOffset": 8856,
      "byteLength": 192,
      "target": 34963
    },
    {
      "buffer": 0,
      "byteOffset": 9048,
      "byteLength": 600,
      "target": 34962
    },
    {
      "buffer": 0,
      "byteOffset": 9648,
      "byteLength": 600,
      "target": 34962
    },
    {
      "buffer": 0,
      "byteOffset": 10248,
      "byteLength": 400,
      "target": 34962
    },
    {
      "buffer": 0,
      "byteOffset": 10648,
      "byteLength": 800,
      "target": 34962
    },
    {
      "buffer": 0,
      "byteOffset": 11448,
      "byteLength": 192,
      "target": 34963
    },
    {
      "buffer": 0,
      "byteOffset": 11640,
      "byteLength": 600,
      "target": 34962
    },
    {
      "buffer": 0,
      "byteOffset": 12240,
      "byteLength": 600,
      "target": 34962
    },
    {
      "buffer": 0,
      "byteOffset": 12840,
      "byteLength": 400,
      "target": 34962
    },
    {
      "buffer": 0,
      "byteOffset": 13240,
      "byteLength": 800,
      "target": 34962
    },
    {
      "buffer": 0,
      "byteOffset": 14040,
      "byteLength": 192,
      "target": 34963
    },
    {
      "buffer": 0,
      "byteOffset": 14232,
      "byteLength": 288,
      "target": 34962
    },
    {
      "buffer": 0,
      "byteOffset": 14520,
      "byteLength": 288,
      "target": 34962
    },
    {
      "buffer": 0,
      "byteOffset": 14808,
      "byteLength": 192,
      "target": 34962
    },
    {
      "buffer": 0,
      "byteOffset": 15000,
      "byteLength": 384,
      "target": 34962
    },
    {
      "buffer": 0,
      "byteOffset": 15384,
      "byteLength": 72,
      "target": 34963
    },
    {
      "buffer": 0,
      "byteOffset": 15456,
      "byteLength": 288,
      "target": 34962
    },
    {
      "buffer": 0,
      "byteOffset": 15744,
      "byteLength": 288,
      "target": 34962
    },
    {
      "buffer": 0,
      "byteOffset": 16032,
      "byteLength": 192,
      "target": 34962
    },
    {
      "buffer": 0,
      "byteOffset": 16224,
      "byteLength": 384,
      "target": 34962
    },
    {
      "buffer": 0,
      "byteOffset": 16608,
      "byteLength": 72,
      "target": 34963
    },
    {
      "buffer": 0,
      "byteOffset": 16680,
      "byteLength": 288,
      "target": 34962
    },
    {
      "buffer": 0,
      "byteOffset": 16968,
      "byteLength": 288,
      "target": 34962
    },
    {
      "buffer": 0,
      "byteOffset": 17256,
      "byteLength": 192,
      "target": 34962
    },
    {
      "buffer": 0,
      "byteOffset": 17448,
      "byteLength": 384,
      "target": 34962
    },
    {
      "buffer": 0,
      "byteOffset": 17832,
      "byteLength": 72,
      "target": 34963
    },
    {
      "buffer": 0,
      "byteOffset": 17904,
      "byteLength": 600,
      "target": 34962
    },
    {
      "buffer": 0,
      "byteOffset": 18504,
      "byteLength": 600,
      "target": 34962
    },
    {
      "buffer": 0,
      "byteOffset": 19104,
      "byteLength": 400,
      "target": 34962
    },
    {
      "buffer": 0,
      "byteOffset": 19504,
      "byteLength": 800,
      "target": 34962
    },
    {
      "buffer": 0,
      "byteOffset": 20304,
      "byteLength": 240,
      "target": 34963
    },
    {
      "buffer": 0,
      "byteOffset": 20544,
      "byteLength": 600,
      "target": 34962
    },
    {
      "buffer": 0,
      "byteOffset": 21144,
      "byteLength": 600,
      "target": 34962
    },
    {
      "buffer": 0,
      "byteOffset": 21744,
      "byteLength": 400,
      "target": 34962
    },
    {
      "buffer": 0,
      "byteOffset": 22144,
      "byteLength": 800,
      "target": 34962
    },
    {
      "buffer": 0,
      "byteOffset": 22944,
      "byteLength": 192,
      "target": 34963
    },
    {
      "buffer": 0,
      "byteOffset": 23136,
      "byteLength": 600,
      "target": 34962
    },
    {
      "buffer": 0,
      "byteOffset": 23736,
      "byteLength": 600,
      "target": 34962
    },
    {
      "buffer": 0,
      "byteOffset": 24336,
      "byteLength": 400,
      "target": 34962
    },
    {
      "buffer": 0,
      "byteOffset": 24736,
      "byteLength": 800,
      "target": 34962
    },
    {
      "buffer": 0,
      "byteOffset": 25536,
      "byteLength": 192,
      "target": 34963
    },
    {
      "buffer": 0,
      "byteOffset": 25728,
      "byteLength": 600,
      "target": 34962
    },
    {
      "buffer": 0,
      "byteOffset": 26328,
      "byteLength": 600,
      "target": 34962
    },
    {
      "buffer": 0,
      "byteOffset": 26928,
      "byteLength": 400,
      "target": 34962
    },
    {
      "buffer": 0,
      "byteOffset": 27328,
      "byteLength": 800,
      "target": 34962
    },
    {
      "buffer": 0,
      "byteOffset": 28128,
      "byteLength": 192,
      "target": 34963
    },
    {
      "buffer": 0,
      "byteOffset": 28320,
      "byteLength": 600,
      "target": 34962
    },
    {
      "buffer": 0,
      "byteOffset": 28920,
      "byteLength": 600,
      "target": 34962
    },
    {
      "buffer": 0,
      "byteOffset": 29520,
      "byteLength": 400,
      "target": 34962
    },
    {
      "buffer": 0,
      "byteOffset": 29920,
      "byteLength": 800,
      "target": 34962
    },
    {
      "buffer": 0,
      "byteOffset": 30720,
      "byteLength": 192,
      "target": 34963
    },
    {
      "buffer": 0,
      "byteOffset": 30912,
      "byteLength": 288,
      "target": 34962
    },
    {
      "buffer": 0,
      "byteOffset": 31200,
      "byteLength": 288,
      "target": 34962
    },
    {
      "buffer": 0,
      "byteOffset": 31488,
      "byteLength": 192,
      "target": 34962
    },
    {
      "buffer": 0,
      "byteOffset": 31680,
      "byteLength": 384,
      "target": 34962
    },
    {
      "buffer": 0,
      "byteOffset": 32064,
      "byteLength": 72,
      "target": 34963
    },
    {
      "buffer": 0,
      "byteOffset": 32136,
      "byteLength": 288,
      "target": 34962
    },
    {
      "buffer": 0,
      "byteOffset": 32424,
      "byteLength": 288,
      "target": 34962
    },
    {
      "buffer": 0,
      "byteOffset": 32712,
      "byteLength": 192,
      "target": 34962
    },
    {
      "buffer": 0,
      "byteOffset": 32904,
      "byteLength": 384,
      "target": 34962
    },
    {
      "buffer": 0,
      "byteOffset": 33288,
      "byteLength": 72,
      "target": 34963
    },
    {
      "buffer": 0,
      "byteOffset": 33360,
      "byteLength": 288,
      "target": 34962
    },
    {
      "buffer": 0,
      "byteOffset": 33648,
      "byteLength": 288,
      "target": 34962
    },
    {
      "buffer": 0,
      "byteOffset": 33936,
      "byteLength": 192,
      "target": 34962
    },
    {
      "buffer": 0,
      "byteOffset": 34128,
      "byteLength": 384,
      "target": 34962
    },
    {
      "buffer": 0,
      "byteOffset": 34512,
      "byteLength": 72,
      "target": 34963
    },
    {
      "buffer": 0,
      "byteOffset": 34584,
      "byteLength": 600,
      "target": 34962
    },
    {
      "buffer": 0,
      "byteOffset": 35184,
      "byteLength": 600,
      "target": 34962
    },
    {
      "buffer": 0,
      "byteOffset": 35784,
      "byteLength": 400,
      "target": 34962
    },
    {
      "buffer": 0,
      "byteOffset": 36184,
      "byteLength": 800,
      "target": 34962
    },
    {
      "buffer": 0,
      "byteOffset": 36984,
      "byteLength": 240,
      "target": 34963
    },
    {
      "buffer": 0,
      "byteOffset": 37224,
      "byteLength": 600,
      "target": 34962
    },
    {
      "buffer": 0,
      "byteOffset": 37824,
      "byteLength": 600,
      "target": 34962
    },
    {
      "buffer": 0,
      "byteOffset": 38424,
      "byteLength": 400,
      "target": 34962
    },
    {
      "buffer": 0,
      "byteOffset": 38824,
      "byteLength": 800,
      "target": 34962
    },
    {
      "buffer": 0,
      "byteOffset": 39624,
      "byteLength": 192,
      "target": 34963
    },
    {
      "buffer": 0,
      "byteOffset": 39816,
      "byteLength": 600,
      "target": 34962
    },
    {
      "buffer": 0,
      "byteOffset": 40416,
      "byteLength": 600,
      "target": 34962
    },
    {
      "buffer": 0,
      "byteOffset": 41016,
      "byteLength": 400,
      "target": 34962
    },
    {
      "buffer": 0,
      "byteOffset": 41416,
      "byteLength": 800,
      "target": 34962
    },
    {
      "buffer": 0,
      "byteOffset": 42216,
      "byteLength": 192,
      "target": 34963
    },
    {
      "buffer": 0,
      "byteOffset": 42408,
      "byteLength": 600,
      "target": 34962
    },
    {
      "buffer": 0,
      "byteOffset": 43008,
      "byteLength": 600,
      "target": 34962
    },
    {
      "buffer": 0,
      "byteOffset": 43608,
      "byteLength": 400,
      "target": 34962
    },
    {
      "buffer": 0,
      "byteOffset": 44008,
      "byteLength": 800,
      "target": 34962
    },
    {
      "buffer": 0,
      "byteOffset": 44808,
      "byteLength": 192,
      "target": 34963
    },
    {
      "buffer": 0,
      "byteOffset": 45000,
      "byteLength": 600,
      "target": 34962
    },
    {
      "buffer": 0,
      "byteOffset": 45600,
      "byteLength": 600,
      "target": 34962
    },
    {
      "buffer": 0,
      "byteOffset": 46200,
      "byteLength": 400,
      "target": 34962
    },
    {
      "buffer": 0,
      "byteOffset": 46600,
      "byteLength": 800,
      "target": 34962
    },
    {
      "buffer": 0,
      "byteOffset": 47400,
      "byteLength": 192,
      "target": 34963
    },
    {
      "buffer": 0,
      "byteOffset": 47592,
      "byteLength": 288,
      "target": 34962
    },
    {
      "buffer": 0,
      "byteOffset": 47880,
      "byteLength": 288,
      "target": 34962
    },
    {
      "buffer": 0,
      "byteOffset": 48168,
      "byteLength": 192,
      "target": 34962
    },
    {
      "buffer": 0,
      "byteOffset": 48360,
      "byteLength": 384,
      "target": 34962
    },
    {
      "buffer": 0,
      "byteOffset": 48744,
      "byteLength": 72,
      "target": 34963
    },
    {
      "buffer": 0,
      "byteOffset": 48816,
      "byteLength": 288,
      "target": 34962
    },
    {
      "buffer": 0,
      "byteOffset": 49104,
      "byteLength": 288,
      "target": 34962
    },
    {
      "buffer": 0,
      "byteOffset": 49392,
      "byteLength": 192,
      "target": 34962
    },
    {
      "buffer": 0,
      "byteOffset": 49584,
      "byteLength": 384,
      "target": 34962
    },
    {
      "buffer": 0,
      "byteOffset": 49968,
      "byteLength": 72,
      "target": 34963
    },
    {
      "buffer": 0,
      "byteOffset": 50040,
      "byteLength": 288,
      "target": 34962
    },
    {
      "buffer": 0,
      "byteOffset": 50328,
      "byteLength": 288,
      "target": 34962
    },
    {
      "buffer": 0,
      "byteOffset": 50616,
      "byteLength": 192,
      "target": 34962
    },
    {
      "buffer": 0,
      "byteOffset": 50808,
      "byteLength": 384,
      "target": 34962
    },
    {
      "buffer": 0,
      "byteOffset": 51192,
      "byteLength": 72,
      "target": 34963
    },
    {
      "buffer": 0,
      "byteOffset": 51264,
      "byteLength": 600,
      "target": 34962
    },
    {
      "buffer": 0,
      "byteOffset": 51864,
      "byteLength": 600,
      "target": 34962
    },
    {
      "buffer": 0,
      "byteOffset": 52464,
      "byteLength": 400,
      "target": 34962
    },
    {
      "buffer": 0,
      "byteOffset": 52864,
      "byteLength": 800,
      "target": 34962
    },
    {
      "buffer": 0,
      "byteOffset": 53664,
      "byteLength": 240,
      "target": 34963
    },
    {
      "buffer": 0,
      "byteOffset": 53904,
      "byteLength": 600,
      "target": 34962
    },
    {
      "buffer": 0,
      "byteOffset": 54504,
      "byteLength": 600,
      "target": 34962
    },
    {
      "buffer": 0,
      "byteOffset": 55104,
      "byteLength": 400,
      "target": 34962
    },
    {
      "buffer": 0,
      "byteOffset": 55504,
      "byteLength": 800,
      "target": 34962
    },
    {
      "buffer": 0,
      "byteOffset": 56304,
      "byteLength": 192,
      "target": 34963
    },
    {
      "buffer": 0,
      "byteOffset": 56496,
      "byteLength": 600,
      "target": 34962
    },
    {
      "buffer": 0,
      "byteOffset": 57096,
      "byteLength": 600,
      "target": 34962
    },
    {
      "buffer": 0,
      "byteOffset": 57696,
      "byteLength": 400,
      "target": 34962
    },
    {
      "buffer": 0,
      "byteOffset": 58096,
      "byteLength": 800,
      "target": 34962
    },
    {
      "buffer": 0,
      "byteOffset": 58896,
      "byteLength": 192,
      "target": 34963
    },
    {
      "buffer": 0,
      "byteOffset": 59088,
      "byteLength": 600,
      "target": 34962
    },
    {
      "buffer": 0,
      "byteOffset": 59688,
      "byteLength": 600,
      "target": 34962
    },
    {
      "buffer": 0,
      "byteOffset": 60288,
      "byteLength": 400,
      "target": 34962
    },
    {
      "buffer": 0,
      "byteOffset": 60688,
      "byteLength": 800,
      "target": 34962
    },
    {
      "buffer": 0,
      "byteOffset": 61488,
      "byteLength": 192,
      "target": 34963
    },
    {
      "buffer": 0,
      "byteOffset": 61680,
      "byteLength": 600,
      "target": 34962
    },
    {
      "buffer": 0,
      "byteOffset": 62280,
      "byteLength": 600,
      "target": 34962
    },
    {
      "buffer": 0,
      "byteOffset": 62880,
      "byteLength": 400,
      "target": 34962
    },
    {
      "buffer": 0,
      "byteOffset": 63280,
      "byteLength": 800,
      "target": 34962
    },
    {
      "buffer": 0,
      "byteOffset": 64080,
      "byteLength": 192,
      "target": 34963
    },
    {
      "buffer": 0,
      "byteOffset": 64272,
      "byteLength": 288,
      "target": 34962
    },
    {
      "buffer": 0,
      "byteOffset": 64560,
      "byteLength": 288,
      "target": 34962
    },
    {
      "buffer": 0,
      "byteOffset": 64848,
      "byteLength": 192,
      "target": 34962
    },
    {
      "buffer": 0,
      "byteOffset": 65040,
      "byteLength": 384,
      "target": 34962
    },
    {
      "buffer": 0,
      "byteOffset": 65424,
      "byteLength": 72,
      "target": 34963
    },
    {
      "buffer": 0,
      "byteOffset": 65496,
      "byteLength": 288,
      "target": 34962
    },
    {
      "buffer": 0,
      "byteOffset": 65784,
      "byteLength": 288,
      "target": 34962
    },
    {
      "buffer": 0,
      "byteOffset": 66072,
      "byteLength": 192,
      "target": 34962
    },
    {
      "buffer": 0,
      "byteOffset": 66264,
      "byteLength": 384,
      "target": 34962
    },
    {
      "buffer": 0,
      "byteOffset": 66648,
      "byteLength": 72,
      "target": 34963
    },
    {
      "buffer": 0,
      "byteOffset": 66720,
      "byteLength": 288,
      "target": 34962
    },
    {
      "buffer": 0,
      "byteOffset": 67008,
      "byteLength": 288,
      "target": 34962
    },
    {
      "buffer": 0,
      "byteOffset": 67296,
      "byteLength": 192,
      "target": 34962
    },
    {
      "buffer": 0,
      "byteOffset": 67488,
      "byteLength": 384,
      "target": 34962
    },
    {
      "buffer": 0,
      "byteOffset": 67872,
      "byteLength": 72,
      "target": 34963
    },
    {
      "buffer": 0,
      "byteOffset": 67944,
      "byteLength": 600,
      "target": 34962
    },
    {
      "buffer": 0,
      "byteOffset": 68544,
      "byteLength": 600,
      "target": 34962
    },
    {
      "buffer": 0,
      "byteOffset": 69144,
      "byteLength": 400,
      "target": 34962
    },
    {
      "buffer": 0,
      "byteOffset": 69544,
      "byteLength": 800,
      "target": 34962
    },
    {
      "buffer": 0,
      "byteOffset": 70344,
      "byteLength": 240,
      "target": 34963
    },
    {
      "buffer": 0,
      "byteOffset": 70584,
      "byteLength": 288,
      "target": 34962
    },
    {
      "buffer": 0,
      "byteOffset": 70872,
      "byteLength": 288,
      "target": 34962
    },
    {
      "buffer": 0,
      "byteOffset": 71160,
      "byteLength": 192,
      "target": 34962
    },
    {
      "buffer": 0,
      "byteOffset": 71352,
      "byteLength": 384,
      "target": 34962
    },
    {
      "buffer": 0,
      "byteOffset": 71736,
      "byteLength": 72,
      "target": 34963
    },
    {
      "buffer": 0,
      "byteOffset": 71808,
      "byteLength": 288,
      "target": 34962
    },
    {
      "buffer": 0,
      "byteOffset": 72096,
      "byteLength": 288,
      "target": 34962
    },
    {
      "buffer": 0,
      "byteOffset": 72384,
      "byteLength": 192,
      "target": 34962
    },
    {
      "buffer": 0,
      "byteOffset": 72576,
      "byteLength": 384,
      "target": 34962
    },
    {
      "buffer": 0,
      "byteOffset": 72960,
      "byteLength": 72,
      "target": 34963
    },
    {
      "buffer": 0,
      "byteOffset": 73032,
      "byteLength": 288,
      "target": 34962
    },
    {
      "buffer": 0,
      "byteOffset": 73320,
      "byteLength": 288,
      "target": 34962
    },
    {
      "buffer": 0,
      "byteOffset": 73608,
      "byteLength": 192,
      "target": 34962
    },
    {
      "buffer": 0,
      "byteOffset": 73800,
      "byteLength": 384,
      "target": 34962
    },
    {
      "buffer": 0,
      "byteOffset": 74184,
      "byteLength": 72,
      "target": 34963
    },
    {
      "buffer": 0,
      "byteOffset": 74256,
      "byteLength": 288,
      "target": 34962
    },
    {
      "buffer": 0,
      "byteOffset": 74544,
      "byteLength": 288,
      "target": 34962
    },
    {
      "buffer": 0,
      "byteOffset": 74832,
      "byteLength": 192,
      "target": 34962
    },
    {
      "buffer": 0,
      "byteOffset": 75024,
      "byteLength": 384,
      "target": 34962
    },
    {
      "buffer": 0,
      "byteOffset": 75408,
      "byteLength": 72,
      "target": 34963
    },
    {
      "buffer": 0,
      "byteOffset": 75480,
      "byteLength": 600,
      "target": 34962
    },
    {
      "buffer": 0,
      "byteOffset": 76080,
      "byteLength": 600,
      "target": 34962
    },
    {
      "buffer": 0,
      "byteOffset": 76680,
      "byteLength": 400,
      "target": 34962
    },
    {
      "buffer": 0,
      "byteOffset": 77080,
      "byteLength": 800,
      "target": 34962
    },
    {
      "buffer": 0,
      "byteOffset": 77880,
      "byteLength": 240,
      "target": 34963
    },
    {
      "buffer": 0,
      "byteOffset": 78120,
      "byteLength": 288,
      "target": 34962
    },
    {
      "buffer": 0,
      "byteOffset": 78408,
      "byteLength": 288,
      "target": 34962
    },
    {
      "buffer": 0,
      "byteOffset": 78696,
      "byteLength": 192,
      "target": 34962
    },
    {
      "buffer": 0,
      "byteOffset": 78888,
      "byteLength": 384,
      "target": 34962
    },
    {
      "buffer": 0,
      "byteOffset": 79272,
      "byteLength": 72,
      "target": 34963
    },
    {
      "buffer": 0,
      "byteOffset": 79344,
      "byteLength": 288,
      "target": 34962
    },
    {
      "buffer": 0,
      "byteOffset": 79632,
      "byteLength": 288,
      "target": 34962
    },
    {
      "buffer": 0,
      "byteOffset": 79920,
      "byteLength": 192,
      "target": 34962
    },
    {
      "buffer": 0,
      "byteOffset": 80112,
      "byteLength": 384,
      "target": 34962
    },
    {
      "buffer": 0,
      "byteOffset": 80496,
      "byteLength": 72,
      "target": 34963
    },
    {
      "buffer": 0,
      "byteOffset": 80568,
      "byteLength": 288,
      "target": 34962
    },
    {
      "buffer": 0,
      "byteOffset": 80856,
      "byteLength": 288,
      "target": 34962
    },
    {
      "buffer": 0,
      "byteOffset": 81144,
      "byteLength": 192,
      "target": 34962
    },
    {
      "buffer": 0,
      "byteOffset": 81336,
      "byteLength": 384,
      "target": 34962
    },
    {
      "buffer": 0,
      "byteOffset": 81720,
      "byteLength": 72,
      "target": 34963
    }
  ],
  "accessors": [
    {
      "bufferView": 0,
      "componentType": 5126,
      "count": 24,
      "type": "VEC3",
      "min": [
        -0.1899999976158142,
        0.4749999940395355,
        -0.10999999940395355
      ],
      "max": [
        0.1899999976158142,
        1.3250000476837158,
        0.10999999940395355
      ]
    },
    {
      "bufferView": 1,
      "componentType": 5126,
      "count": 24,
      "type": "VEC3"
    },
    {
      "bufferView": 2,
      "componentType": 5126,
      "count": 24,
      "type": "VEC2"
    },
    {
      "bufferView": 3,
      "componentType": 5126,
      "count": 24,
      "type": "VEC4"
    },
    {
      "bufferView": 4,
      "componentType": 5123,
      "count": 36,
      "type": "SCALAR"
    },
    {
      "bufferView": 5,
      "componentType": 5126,
      "count": 50,
      "type": "VEC3",
      "min": [
        -0.10999999940395355,
        1.4274998903274536,
        -0.10461621731519699
      ],
      "max": [
        0.10999999940395355,
        1.627500295639038,
        0.10461621731519699
      ]
    },
    {
      "bufferView": 6,
      "componentType": 5126,
      "count": 50,
      "type": "VEC3"
    },
    {
      "bufferView": 7,
      "componentType": 5126,
      "count": 50,
      "type": "VEC2"
    },
    {
      "bufferView": 8,
      "componentType": 5126,
      "count": 50,
      "type": "VEC4"
    },
    {
      "bufferView": 9,
      "componentType": 5123,
      "count": 120,
      "type": "SCALAR"
    },
    {
      "bufferView": 10,
      "componentType": 5126,
      "count": 50,
      "type": "VEC3",
      "min": [
        -0.17000000178813934,
        0.0,
        -0.07000000029802322
      ],
      "max": [
        -0.029999999329447746,
        0.699999988079071,
        0.07000000029802322
      ]
    },
    {
      "bufferView": 11,
      "componentType": 5126,
      "count": 50,
      "type": "VEC3"
    },
    {
      "bufferView": 12,
      "componentType": 5126,
      "count": 50,
      "type": "VEC2"
    },
    {
      "bufferView": 13,
      "componentType": 5126,
      "count": 50,
      "type": "VEC4"
    },
    {
      "bufferView": 14,
      "componentType": 5123,
      "count": 96,
      "type": "SCALAR"
    },
    {
      "bufferView": 15,
      "componentType": 5126,
      "count": 50,
      "type": "VEC3",
      "min": [
        0.029999999329447746,
        0.0,
        -0.07000000029802322
      ],
      "max": [
        0.17000000178813934,
        0.699999988079071,
        0.07000000029802322
      ]
    },
    {
      "bufferView": 16,
      "componentType": 5126,
      "count": 50,
      "type": "VEC3"
    },
    {
      "bufferView": 17,
      "componentType": 5126,
      "count": 50,
      "type": "VEC2"
    },
    {
      "bufferView": 18,
      "componentType": 5126,
      "count": 50,
      "type": "VEC4"
    },
    {
      "bufferView": 19,
      "componentType": 5123,
      "count": 96,
      "type": "SCALAR"
    },
    {
      "bufferView": 20,
      "componentType": 5126,
      "count": 50,
      "type": "VEC3",
      "min": [
        -0.33500000834465027,
        0.6449999809265137,
        -0.054999999701976776
      ],
      "max": [
        -0.22499999403953552,
        1.1950000524520874,
        0.054999999701976776
      ]
    },
    {
      "bufferView": 21,
      "componentType": 5126,
      "count": 50,
      "type": "VEC3"
    },
    {
      "bufferView": 22,
      "componentType": 5126,
      "count": 50,
      "type": "VEC2"
    },
    {
      "bufferView": 23,
      "componentType": 5126,
      "count": 50,
      "type": "VEC4"
    },
    {
      "bufferView": 24,
      "componentType": 5123,
      "count": 96,
      "type": "SCALAR"
    },
    {
      "bufferView": 25,
      "componentType": 5126,
      "count": 50,
      "type": "VEC3",
      "min": [
        0.22499999403953552,
        0.6449999809265137,
        -0.054999999701976776
      ],
      "max": [
        0.33500000834465027,
        1.1950000524520874,
        0.054999999701976776
      ]
    },
    {
      "bufferView": 26,
      "componentType": 5126,
      "count": 50,
      "type": "VEC3"
    },
    {
      "bufferView": 27,
      "componentType": 5126,
      "count": 50,
      "type": "VEC2"
    },
    {
      "bufferView": 28,
      "componentType": 5126,
      "count": 50,
      "type": "VEC4"
    },
    {
      "bufferView": 29,
      "componentType": 5123,
      "count": 96,
      "type": "SCALAR"
    },
    {
      "bufferView": 30,
      "componentType": 5126,
      "count": 24,
      "type": "VEC3",
      "min": [
        -0.17000000178813934,
        0.009999999776482582,
        -0.07000000029802322
      ],
      "max": [
        -0.029999999329447746,
        0.09000000357627869,
        0.15000000596046448
      ]
    },
    {
      "bufferView": 31,
      "componentType": 5126,
      "count": 24,
      "type": "VEC3"
    },
    {
      "bufferView": 32,
      "componentType": 5126,
      "count": 24,
      "type": "VEC2"
    },
    {
      "bufferView": 33,
      "componentType": 5126,
      "count": 24,
      "type": "VEC4"
    },
    {
      "bufferView": 34,
      "componentType": 5123,
      "count": 36,
      "type": "SCALAR"
    },
    {
      "bufferView": 35,
      "componentType": 5126,
      "count": 24,
      "type": "VEC3",
      "min": [
        0.029999999329447746,
        0.009999999776482582,
        -0.07000000029802322
      ],
      "max": [
        0.17000000178813934,
        0.09000000357627869,
        0.15000000596046448
      ]
    },
    {
      "bufferView": 36,
      "componentType": 5126,
      "count": 24,
      "type": "VEC3"
    },
    {
      "bufferView": 37,
      "componentType": 5126,
      "count": 24,
      "type": "VEC2"
    },
    {
      "bufferView": 38,
      "componentType": 5126,
      "count": 24,
      "type": "VEC4"
    },
    {
      "bufferView": 39,
      "componentType": 5123,
      "count": 36,
      "type": "SCALAR"
    },
    {
      "bufferView": 40,
      "componentType": 5126,
      "count": 24,
      "type": "VEC3",
      "min": [
        -0.18050000071525574,
        0.45124998688697815,
        -0.10450000315904617
      ],
      "max": [
        0.18050000071525574,
        1.2587499618530273,
        0.10450000315904617
      ]
    },
    {
      "bufferView": 41,
      "componentType": 5126,
      "count": 24,
      "type": "VEC3"
    },
    {
      "bufferView": 42,
      "componentType": 5126,
      "count": 24,
      "type": "VEC2"
    },
    {
      "bufferView": 43,
      "componentType": 5126,
      "count": 24,
      "type": "VEC4"
    },
    {
      "bufferView": 44,
      "componentType": 5123,
      "count": 36,
      "type": "SCALAR"
    },
    {
      "bufferView": 45,
      "componentType": 5126,
      "count": 50,
      "type": "VEC3",
      "min": [
        -0.10450000315904617,
        1.356124997138977,
        -0.09938540309667587
      ],
      "max": [
        0.10450000315904617,
        1.5461251735687256,
        0.09938540309667587
      ]
    },
    {
      "bufferView": 46,
      "componentType": 5126,
      "count": 50,
      "type": "VEC3"
    },
    {
      "bufferView": 47,
      "componentType": 5126,
      "count": 50,
      "type": "VEC2"
    },
    {
      "bufferView": 48,
      "componentType": 5126,
      "count": 50,
      "type": "VEC4"
    },
    {
      "bufferView": 49,
      "componentType": 5123,
      "count": 120,
      "type": "SCALAR"
    },
    {
      "bufferView": 50,
      "componentType": 5126,
      "count": 50,
      "type": "VEC3",
      "min": [
        -0.1615000069141388,
        0.0,
        -0.06650000065565109
      ],
      "max": [
        -0.02850000001490116,
        0.6650000214576721,
        0.06650000065565109
      ]
    },
    {
      "bufferView": 51,
      "componentType": 5126,
      "count": 50,
      "type": "VEC3"
    },
    {
      "bufferView": 52,
      "componentType": 5126,
      "count": 50,
      "type": "VEC2"
    },
    {
      "bufferView": 53,
      "componentType": 5126,
      "count": 50,
      "type": "VEC4"
    },
    {
      "bufferView": 54,
      "componentType": 5123,
      "count": 96,
      "type": "SCALAR"
    },
    {
      "bufferView": 55,
      "componentType": 5126,
      "count": 50,
      "type": "VEC3",
      "min": [
        0.02850000001490116,
        0.0,
        -0.06650000065565109
      ],
      "max": [
        0.1615000069141388,
        0.6650000214576721,
        0.06650000065565109
      ]
    },
    {
      "bufferView": 56,
      "componentType": 5126,
      "count": 50,
      "type": "VEC3"
    },
    {
      "bufferView": 57,
      "componentType": 5126,
      "count": 50,
      "type": "VEC2"
    },
    {
      "bufferView": 58,
      "componentType": 5126,
      "count": 50,
      "type": "VEC4"
    },
    {
      "bufferView": 59,
      "componentType": 5123,
      "count": 96,
      "type": "SCALAR"
    },
    {
      "bufferView": 60,
      "componentType": 5126,
      "count": 50,
      "type": "VEC3",
      "min": [
        -0.31825000047683716,
        0.6127499938011169,
        -0.05225000157952309
      ],
      "max": [
        -0.21375000476837158,
        1.1352499723434448,
        0.05225000157952309
      ]
    },
    {
      "bufferView": 61,
      "componentType": 5126,
      "count": 50,
      "type": "VEC3"
    },
    {
      "bufferView": 62,
      "componentType": 5126,
      "count": 50,
      "type": "VEC2"
    },
    {
      "bufferView": 63,
      "componentType": 5126,
      "count": 50,
      "type": "VEC4"
    },
    {
      "bufferView": 64,
      "componentType": 5123,
      "count": 96,
      "type": "SCALAR"
    },
    {
      "bufferView": 65,
      "componentType": 5126,
      "count": 50,
      "type": "VEC3",
      "min": [
        0.21375000476837158,
        0.6127499938011169,
        -0.05225000157952309
      ],
      "max": [
        0.31825000047683716,
        1.1352499723434448,
        0.05225000157952309
      ]
    },
    {
      "bufferView": 66,
      "componentType": 5126,
      "count": 50,
      "type": "VEC3"
    },
    {
      "bufferView": 67,
      "componentType": 5126,
      "count": 50,
      "type": "VEC2"
    },
    {
      "bufferView": 68,
      "componentType": 5126,
      "count": 50,
      "type": "VEC4"
    },
    {
      "bufferView": 69,
      "componentType": 5123,
      "count": 96,
      "type": "SCALAR"
    },
    {
      "bufferView": 70,
      "componentType": 5126,
      "count": 24,
      "type": "VEC3",
      "min": [
        -0.1615000069141388,
        0.009499999694526196,
        -0.06650000065565109
      ],
      "max": [
        -0.02850000001490116,
        0.08550000190734863,
        0.14249999821186066
      ]
    },
    {
      "bufferView": 71,
      "componentType": 5126,
      "count": 24,
      "type": "VEC3"
    },
    {
      "bufferView": 72,
      "componentType": 5126,
      "count": 24,
      "type": "VEC2"
    },
    {
      "bufferView": 73,
      "componentType": 5126,
      "count": 24,
      "type": "VEC4"
    },
    {
      "bufferView": 74,
      "componentType": 5123,
      "count": 36,
      "type": "SCALAR"
    },
    {
      "bufferView": 75,
      "componentType": 5126,
      "count": 24,
      "type": "VEC3",
      "min": [
        0.02850000001490116,
        0.009499999694526196,
        -0.06650000065565109
      ],
      "max": [
        0.1615000069141388,
        0.08550000190734863,
        0.14249999821186066
      ]
    },
    {
      "bufferView": 76,
      "componentType": 5126,
      "count": 24,
      "type": "VEC3"
    },
    {
      "bufferView": 77,
      "componentType": 5126,
      "count": 24,
      "type": "VEC2"
    },
    {
      "bufferView": 78,
      "componentType": 5126,
      "count": 24,
      "type": "VEC4"
    },
    {
      "bufferView": 79,
      "componentType": 5123,
      "count": 36,
      "type": "SCALAR"
    },
    {
      "bufferView": 80,
      "componentType": 5126,
      "count": 24,
      "type": "VEC3",
      "min": [
        -0.19380000233650208,
        0.484499990940094,
        -0.11219999939203262
      ],
      "max": [
        0.19380000233650208,
        1.3515000343322754,
        0.11219999939203262
      ]
    },
    {
      "bufferView": 81,
      "componentType": 5126,
      "count": 24,
      "type": "VEC3"
    },
    {
      "bufferView": 82,
      "componentType": 5126,
      "count": 24,
      "type": "VEC2"
    },
    {
      "bufferView": 83,
      "componentType": 5126,
      "count": 24,
      "type": "VEC4"
    },
    {
      "bufferView": 84,
      "componentType": 5123,
      "count": 36,
      "type": "SCALAR"
    },
    {
      "bufferView": 85,
      "componentType": 5126,
      "count": 50,
      "type": "VEC3",
      "min": [
        -0.11219999939203262,
        1.4560500383377075,
        -0.10670854151248932
      ],
      "max": [
        0.11219999939203262,
        1.6600501537322998,
        0.10670854151248932
      ]
    },
    {
      "bufferView": 86,
      "componentType": 5126,
      "count": 50,
      "type": "VEC3"
    },
    {
      "bufferView": 87,
      "componentType": 5126,
      "count": 50,
      "type": "VEC2"
    },
    {
      "bufferView": 88,
      "componentType": 5126,
      "count": 50,
      "type": "VEC4"
    },
    {
      "bufferView": 89,
      "componentType": 5123,
      "count": 120,
      "type": "SCALAR"
    },
    {
      "bufferView": 90,
      "componentType": 5126,
      "count": 50,
      "type": "VEC3",
      "min": [
        -0.17339999973773956,
        0.0,
        -0.0714000016450882
      ],
      "max": [
        -0.03060000017285347,
        0.7139999866485596,
        0.0714000016450882
      ]
    },
    {
      "bufferView": 91,
      "componentType": 5126,
      "count": 50,
      "type": "VEC3"
    },
    {
      "bufferView": 92,
      "componentType": 5126,
      "count": 50,
      "type": "VEC2"
    },
    {
      "bufferView": 93,
      "componentType": 5126,
      "count": 50,
      "type": "VEC4"
    },
    {
      "bufferView": 94,
      "componentType": 5123,
      "count": 96,
      "type": "SCALAR"
    },
    {
      "bufferView": 95,
      "componentType": 5126,
      "count": 50,
      "type": "VEC3",
      "min": [
        0.03060000017285347,
        0.0,
        -0.0714000016450882
      ],
      "max": [
        0.17339999973773956,
        0.7139999866485596,
        0.0714000016450882
      ]
    },
    {
      "bufferView": 96,
      "componentType": 5126,
      "count": 50,
      "type": "VEC3"
    },
    {
      "bufferView": 97,
      "componentType": 5126,
      "count": 50,
      "type": "VEC2"
    },
    {
      "bufferView": 98,
      "componentType": 5126,
      "count": 50,
      "type": "VEC4"
    },
    {
      "bufferView": 99,
      "componentType": 5123,
      "count": 96,
      "type": "SCALAR"
    },
    {
      "bufferView": 100,
      "componentType": 5126,
      "count": 50,
      "type": "VEC3",
      "min": [
        -0.3416999876499176,
        0.6578999161720276,
        -0.05609999969601631
      ],
      "max": [
        -0.22949999570846558,
        1.2188999652862549,
        0.05609999969601631
      ]
    },
    {
      "bufferView": 101,
      "componentType": 5126,
      "count": 50,
      "type": "VEC3"
    },
    {
      "bufferView": 102,
      "componentType": 5126,
      "count": 50,
      "type": "VEC2"
    },
    {
      "bufferView": 103,
      "componentType": 5126,
      "count": 50,
      "type": "VEC4"
    },
    {
      "bufferView": 104,
      "componentType": 5123,
      "count": 96,
      "type": "SCALAR"
    },
    {
      "bufferView": 105,
      "componentType": 5126,
      "count": 50,
      "type": "VEC3",
      "min": [
        0.22949999570846558,
        0.6578999161720276,
        -0.05609999969601631
      ],
      "max": [
        0.3416999876499176,
        1.2188999652862549,
        0.05609999969601631
      ]
    },
    {
      "bufferView": 106,
      "componentType": 5126,
      "count": 50,
      "type": "VEC3"
    },
    {
      "bufferView": 107,
      "componentType": 5126,
      "count": 50,
      "type": "VEC2"
    },
    {
      "bufferView": 108,
      "componentType": 5126,
      "count": 50,
      "type": "VEC4"
    },
    {
      "bufferView": 109,
      "componentType": 5123,
      "count": 96,
      "type": "SCALAR"
    },
    {
      "bufferView": 110,
      "componentType": 5126,
      "count": 24,
      "type": "VEC3",
      "min": [
        -0.17339999973773956,
        0.010200000368058681,
        -0.0714000016450882
      ],
      "max": [
        -0.03060000017285347,
        0.09179999679327011,
        0.15299999713897705
      ]
    },
    {
      "bufferView": 111,
      "componentType": 5126,
      "count": 24,
      "type": "VEC3"
    },
    {
      "bufferView": 112,
      "componentType": 5126,
      "count": 24,
      "type": "VEC2"
    },
    {
      "bufferView": 113,
      "componentType": 5126,
      "count": 24,
      "type": "VEC4"
    },
    {
      "bufferView": 114,
      "componentType": 5123,
      "count": 36,
      "type": "SCALAR"
    },
    {
      "bufferView": 115,
      "componentType": 5126,
      "count": 24,
      "type": "VEC3",
      "min": [
        0.03060000017285347,
        0.010200000368058681,
        -0.0714000016450882
      ],
      "max": [
        0.17339999973773956,
        0.09179999679327011,
        0.15299999713897705
      ]
    },
    {
      "bufferView": 116,
      "componentType": 5126,
      "count": 24,
      "type": "VEC3"
    },
    {
      "bufferView": 117,
      "componentType": 5126,
      "count": 24,
      "type": "VEC2"
    },
    {
      "bufferView": 118,
      "componentType": 5126,
      "count": 24,
      "type": "VEC4"
    },
    {
      "bufferView": 119,
      "componentType": 5123,
      "count": 36,
      "type": "SCALAR"
    },
    {
      "bufferView": 120,
      "componentType": 5126,
      "count": 24,
      "type": "VEC3",
      "min": [
        -0.18619999289512634,
        0.46549999713897705,
        -0.10779999941587448
      ],
      "max": [
        0.18619999289512634,
        1.2984999418258667,
        0.10779999941587448
      ]
    },
    {
      "bufferView": 121,
      "componentType": 5126,
      "count": 24,
      "type": "VEC3"
    },
    {
      "bufferView": 122,
      "componentType": 5126,
      "count": 24,
      "type": "VEC2"
    },
    {
      "bufferView": 123,
      "componentType": 5126,
      "count": 24,
      "type": "VEC4"
    },
    {
      "bufferView": 124,
      "componentType": 5123,
      "count": 36,
      "type": "SCALAR"
    },
    {
      "bufferView": 125,
      "componentType": 5126,
      "count": 50,
      "type": "VEC3",
      "min": [
        -0.10779999941587448,
        1.3989498615264893,
        -0.10252389311790466
      ],
      "max": [
        0.10779999941587448,
        1.5949499607086182,
        0.10252389311790466
      ]
    },
    {
      "bufferView": 126,
      "componentType": 5126,
      "count": 50,
      "type": "VEC3"
    },
    {
      "bufferView": 127,
      "componentType": 5126,
      "count": 50,
      "type": "VEC2"
    },
    {
      "bufferView": 128,
      "componentType": 5126,
      "count": 50,
      "type": "VEC4"
    },
    {
      "bufferView": 129,
      "componentType": 5123,
      "count": 120,
      "type": "SCALAR"
    },
    {
      "bufferView": 130,
      "componentType": 5126,
      "count": 50,
      "type": "VEC3",
      "min": [
        -0.16660000383853912,
        0.0,
        -0.06859999895095825
      ],
      "max": [
        -0.029400000348687172,
        0.6859999895095825,
        0.06859999895095825
      ]
    },
    {
      "bufferView": 131,
      "componentType": 5126,
      "count": 50,
      "type": "VEC3"
    },
    {
      "bufferView": 132,
      "componentType": 5126,
      "count": 50,
      "type": "VEC2"
    },
    {
      "bufferView": 133,
      "componentType": 5126,
      "count": 50,
      "type": "VEC4"
    },
    {
      "bufferView": 134,
      "componentType": 5123,
      "count": 96,
      "type": "SCALAR"
    },
    {
      "bufferView": 135,
      "componentType": 5126,
      "count": 50,
      "type": "VEC3",
      "min": [
        0.029400000348687172,
        0.0,
        -0.06859999895095825
      ],
      "max": [
        0.16660000383853912,
        0.6859999895095825,
        0.06859999895095825
      ]
    },
    {
      "bufferView": 136,
      "componentType": 5126,
      "count": 50,
      "type": "VEC3"
    },
    {
      "bufferView": 137,
      "componentType": 5126,
      "count": 50,
      "type": "VEC2"
    },
    {
      "bufferView": 138,
      "componentType": 5126,
      "count": 50,
      "type": "VEC4"
    },
    {
      "bufferView": 139,
      "componentType": 5123,
      "count": 96,
      "type": "SCALAR"
    },
    {
      "bufferView": 140,
      "componentType": 5126,
      "count": 50,
      "type": "VEC3",
      "min": [
        -0.32829999923706055,
        0.632099986076355,
        -0.05389999970793724
      ],
      "max": [
        -0.22050000727176666,
        1.1711000204086304,
        0.05389999970793724
      ]
    },
    {
      "bufferView": 141,
      "componentType": 5126,
      "count": 50,
      "type": "VEC3"
    },
    {
      "bufferView": 142,
      "componentType": 5126,
      "count": 50,
      "type": "VEC2"
    },
    {
      "bufferView": 143,
      "componentType": 5126,
      "count": 50,
      "type": "VEC4"
    },
    {
      "bufferView": 144,
      "componentType": 5123,
      "count": 96,
      "type": "SCALAR"
    },
    {
      "bufferView": 145,
      "componentType": 5126,
      "count": 50,
      "type": "VEC3",
      "min": [
        0.22050000727176666,
        0.632099986076355,
        -0.05389999970793724
      ],
      "max": [
        0.32829999923706055,
        1.1711000204086304,
        0.05389999970793724
      ]
    },
    {
      "bufferView": 146,
      "componentType": 5126,
      "count": 50,
      "type": "VEC3"
    },
    {
      "bufferView": 147,
      "componentType": 5126,
      "count": 50,
      "type": "VEC2"
    },
    {
      "bufferView": 148,
      "componentType": 5126,
      "count": 50,
      "type": "VEC4"
    },
    {
      "bufferView": 149,
      "componentType": 5123,
      "count": 96,
      "type": "SCALAR"
    },
    {
      "bufferView": 150,
      "componentType": 5126,
      "count": 24,
      "type": "VEC3",
      "min": [
        -0.16660000383853912,
        0.009800000116229057,
        -0.06859999895095825
      ],
      "max": [
        -0.029400000348687172,
        0.08820000290870667,
        0.1469999998807907
      ]
    },
    {
      "bufferView": 151,
      "componentType": 5126,
      "count": 24,
      "type": "VEC3"
    },
    {
      "bufferView": 152,
      "componentType": 5126,
      "count": 24,
      "type": "VEC2"
    },
    {
      "bufferView": 153,
      "componentType": 5126,
      "count": 24,
      "type": "VEC4"
    },
    {
      "bufferView": 154,
      "componentType": 5123,
      "count": 36,
      "type": "SCALAR"
    },
    {
      "bufferView": 155,
      "componentType": 5126,
      "count": 24,
      "type": "VEC3",
      "min": [
        0.029400000348687172,
        0.009800000116229057,
        -0.06859999895095825
      ],
      "max": [
        0.16660000383853912,
        0.08820000290870667,
        0.1469999998807907
      ]
    },
    {
      "bufferView": 156,
      "componentType": 5126,
      "count": 24,
      "type": "VEC3"
    },
    {
      "bufferView": 157,
      "componentType": 5126,
      "count": 24,
      "type": "VEC2"
    },
    {
      "bufferView": 158,
      "componentType": 5126,
      "count": 24,
      "type": "VEC4"
    },
    {
      "bufferView": 159,
      "componentType": 5123,
      "count": 36,
      "type": "SCALAR"
    },
    {
      "bufferView": 160,
      "componentType": 5126,
      "count": 24,
      "type": "VEC3",
      "min": [
        -0.1899999976158142,
        0.2750000059604645,
        -0.10999999940395355
      ],
      "max": [
        0.1899999976158142,
        0.824999988079071,
        0.10999999940395355
      ]
    },
    {
      "bufferView": 161,
      "componentType": 5126,
      "count": 24,
      "type": "VEC3"
    },
    {
      "bufferView": 162,
      "componentType": 5126,
      "count": 24,
      "type": "VEC2"
    },
    {
      "bufferView": 163,
      "componentType": 5126,
      "count": 24,
      "type": "VEC4"
    },
    {
      "bufferView": 164,
      "componentType": 5123,
      "count": 36,
      "type": "SCALAR"
    },
    {
      "bufferView": 165,
      "componentType": 5126,
      "count": 50,
      "type": "VEC3",
      "min": [
        -0.10999999940395355,
        0.9125000238418579,
        -0.10461621731519699
      ],
      "max": [
        0.10999999940395355,
        1.1125000715255737,
        0.10461621731519699
      ]
    },
    {
      "bufferView": 166,
      "componentType": 5126,
      "count": 50,
      "type": "VEC3"
    },
    {
      "bufferView": 167,
      "componentType": 5126,
      "count": 50,
      "type": "VEC2"
    },
    {
      "bufferView": 168,
      "componentType": 5126,
      "count": 50,
      "type": "VEC4"
    },
    {
      "bufferView": 169,
      "componentType": 5123,
      "count": 120,
      "type": "SCALAR"
    },
    {
      "bufferView": 170,
      "componentType": 5126,
      "count": 24,
      "type": "VEC3",
      "min": [
        -0.20000000298023224,
        0.18000000715255737,
        -0.07500000298023224
      ],
      "max": [
        0.20000000298023224,
        0.3799999952316284,
        0.4749999940395355
      ]
    },
    {
      "bufferView": 171,
      "componentType": 5126,
      "count": 24,
      "type": "VEC3"
    },
    {
      "bufferView": 172,
      "componentType": 5126,
      "count": 24,
      "type": "VEC2"
    },
    {
      "bufferView": 173,
      "componentType": 5126,
      "count": 24,
      "type": "VEC4"
    },
    {
      "bufferView": 174,
      "componentType": 5123,
      "count": 36,
      "type": "SCALAR"
    },
    {
      "bufferView": 175,
      "componentType": 5126,
      "count": 24,
      "type": "VEC3",
      "min": [
        -0.3400000035762787,
        0.3499999940395355,
        -0.009999999776482582
      ],
      "max": [
        -0.2199999988079071,
        0.75,
        0.10999999940395355
      ]
    },
    {
      "bufferView": 176,
      "componentType": 5126,
      "count": 24,
      "type": "VEC3"
    },
    {
      "bufferView": 177,
      "componentType": 5126,
      "count": 24,
      "type": "VEC2"
    },
    {
      "bufferView": 178,
      "componentType": 5126,
      "count": 24,
      "type": "VEC4"
    },
    {
      "bufferView": 179,
      "componentType": 5123,
      "count": 36,
      "type": "SCALAR"
    },
    {
      "bufferView": 180,
      "componentType": 5126,
      "count": 24,
      "type": "VEC3",
      "min": [
        0.2199999988079071,
        0.3499999940395355,
        -0.009999999776482582
      ],
      "max": [
        0.3400000035762787,
        0.75,
        0.10999999940395355
      ]
    },
    {
      "bufferView": 181,
      "componentType": 5126,
      "count": 24,
      "type": "VEC3"
    },
    {
      "bufferView": 182,
      "componentType": 5126,
      "count": 24,
      "type": "VEC2"
    },
    {
      "bufferView": 183,
      "componentType": 5126,
      "count": 24,
      "type": "VEC4"
    },
    {
      "bufferView": 184,
      "componentType": 5123,
      "count": 36,
      "type": "SCALAR"
    },
    {
      "bufferView": 185,
      "componentType": 5126,
      "count": 24,
      "type": "VEC3",
      "min": [
        -0.18240000307559967,
        0.2639999985694885,
        -0.10559999942779541
      ],
      "max": [
        0.18240000307559967,
        0.7919999957084656,
        0.10559999942779541
      ]
    },
    {
      "bufferView": 186,
      "componentType": 5126,
      "count": 24,
      "type": "VEC3"
    },
    {
      "bufferView": 187,
      "componentType": 5126,
      "count": 24,
      "type": "VEC2"
    },
    {
      "bufferView": 188,
      "componentType": 5126,
      "count": 24,
      "type": "VEC4"
    },
    {
      "bufferView": 189,
      "componentType": 5123,
      "count": 36,
      "type": "SCALAR"
    },
    {
      "bufferView": 190,
      "componentType": 5126,
      "count": 50,
      "type": "VEC3",
      "min": [
        -0.10559999942779541,
        0.8759999871253967,
        -0.10043156892061234
      ],
      "max": [
        0.10559999942779541,
        1.0679999589920044,
        0.10043156892061234
      ]
    },
    {
      "bufferView": 191,
      "componentType": 5126,
      "count": 50,
      "type": "VEC3"
    },
    {
      "bufferView": 192,
      "componentType": 5126,
      "count": 50,
      "type": "VEC2"
    },
    {
      "bufferView": 193,
      "componentType": 5126,
      "count": 50,
      "type": "VEC4"
    },
    {
      "bufferView": 194,
      "componentType": 5123,
      "count": 120,
      "type": "SCALAR"
    },
    {
      "bufferView": 195,
      "componentType": 5126,
      "count": 24,
      "type": "VEC3",
      "min": [
        -0.19200000166893005,
        0.1728000044822693,
        -0.07199999690055847
      ],
      "max": [
        0.19200000166893005,
        0.36480000615119934,
        0.4560000002384186
      ]
    },
    {
      "bufferView": 196,
      "componentType": 5126,
      "count": 24,
      "type": "VEC3"
    },
    {
      "bufferView": 197,
      "componentType": 5126,
      "count": 24,
      "type": "VEC2"
    },
    {
      "bufferView": 198,
      "componentType": 5126,
      "count": 24,
      "type": "VEC4"
    },
    {
      "bufferView": 199,
      "componentType": 5123,
      "count": 36,
      "type": "SCALAR"
    },
    {
      "bufferView": 200,
      "componentType": 5126,
      "count": 24,
      "type": "VEC3",
      "min": [
        -0.3264000117778778,
        0.335999995470047,
        -0.009600000455975533
      ],
      "max": [
        -0.21119999885559082,
        0.7200000286102295,
        0.10559999942779541
      ]
    },
    {
      "bufferView": 201,
      "componentType": 5126,
      "count": 24,
      "type": "VEC3"
    },
    {
      "bufferView": 202,
      "componentType": 5126,
      "count": 24,
      "type": "VEC2"
    },
    {
      "bufferView": 203,
      "componentType": 5126,
      "count": 24,
      "type": "VEC4"
    },
    {
      "bufferView": 204,
      "componentType": 5123,
      "count": 36,
      "type": "SCALAR"
    },
    {
      "bufferView": 205,
      "componentType": 5126,
      "count": 24,
      "type": "VEC3",
      "min": [
        0.21119999885559082,
        0.335999995470047,
        -0.009600000455975533
      ],
      "max": [
        0.3264000117778778,
        0.7200000286102295,
        0.10559999942779541
      ]
    },
    {
      "bufferView": 206,
      "componentType": 5126,
      "count": 24,
      "type": "VEC3"
    },
    {
      "bufferView": 207,
      "componentType": 5126,
      "count": 24,
      "type": "VEC2"
    },
    {
      "bufferView": 208,
      "componentType": 5126,
      "count": 24,
      "type": "VEC4"
    },
    {
      "bufferView": 209,
      "componentType": 5123,
      "count": 36,
      "type": "SCALAR"
    }
  ],
  "meshes": [
    {
      "name": "stand_a_torso",
      "primitives": [
        {
          "attributes": {
            "POSITION": 0,
            "NORMAL": 1,
            "TEXCOORD_0": 2,
            "TANGENT": 3
          },
          "indices": 4,
          "mode": 4
        }
      ]
    },
    {
      "name": "stand_a_head",
      "primitives": [
        {
          "attributes": {
            "POSITION": 5,
            "NORMAL": 6,
            "TEXCOORD_0": 7,
            "TANGENT": 8
          },
          "indices": 9,
          "mode": 4
        }
      ]
    },
    {
      "name": "stand_a_leg_l",
      "primitives": [
        {
          "attributes": {
            "POSITION": 10,
            "NORMAL": 11,
            "TEXCOORD_0": 12,
            "TANGENT": 13
          },
          "indices": 14,
          "mode": 4
        }
      ]
    },
    {
      "name": "stand_a_leg_r",
      "primitives": [
        {
          "attributes": {
            "POSITION": 15,
            "NORMAL": 16,
            "TEXCOORD_0": 17,
            "TANGENT": 18
          },
          "indices": 19,
          "mode": 4
        }
      ]
    },
    {
      "name": "stand_a_arm_l",
      "primitives": [
        {
          "attributes": {
            "POSITION": 20,
            "NORMAL": 21,
            "TEXCOORD_0": 22,
            "TANGENT": 23
          },
          "indices": 24,
          "mode": 4
        }
      ]
    },
    {
      "name": "stand_a_arm_r",
      "primitives": [
        {
          "attributes": {
            "POSITION": 25,
            "NORMAL": 26,
            "TEXCOORD_0": 27,
            "TANGENT": 28
          },
          "indices": 29,
          "mode": 4
        }
      ]
    },
    {
      "name": "stand_a_shoe_l",
      "primitives": [
        {
          "attributes": {
            "POSITION": 30,
            "NORMAL": 31,
            "TEXCOORD_0": 32,
            "TANGENT": 33
          },
          "indices": 34,
          "mode": 4
        }
      ]
    },
    {
      "name": "stand_a_shoe_r",
      "primitives": [
        {
          "attributes": {
            "POSITION": 35,
            "NORMAL": 36,
            "TEXCOORD_0": 37,
            "TANGENT": 38
          },
          "indices": 39,
          "mode": 4
        }
      ]
    },
    {
      "name": "stand_b_torso",
      "primitives": [
        {
          "attributes": {
            "POSITION": 40,
            "NORMAL": 41,
            "TEXCOORD_0": 42,
            "TANGENT": 43
          },
          "indices": 44,
          "mode": 4
        }
      ]
    },
    {
      "name": "stand_b_head",
      "primitives": [
        {
          "attributes": {
            "POSITION": 45,
            "NORMAL": 46,
            "TEXCOORD_0": 47,
            "TANGENT": 48
          },
          "indices": 49,
          "mode": 4
        }
      ]
    },
    {
      "name": "stand_b_leg_l",
      "primitives": [
        {
          "attributes": {
            "POSITION": 50,
            "NORMAL": 51,
            "TEXCOORD_0": 52,
            "TANGENT": 53
          },
          "indices": 54,
          "mode": 4
        }
      ]
    },
    {
      "name": "stand_b_leg_r",
      "primitives": [
        {
          "attributes": {
            "POSITION": 55,
            "NORMAL": 56,
            "TEXCOORD_0": 57,
            "TANGENT": 58
          },
          "indices": 59,
          "mode": 4
        }
      ]
    },
    {
      "name": "stand_b_arm_l",
      "primitives": [
        {
          "attributes": {
            "POSITION": 60,
            "NORMAL": 61,
            "TEXCOORD_0": 62,
            "TANGENT": 63
          },
          "indices": 64,
          "mode": 4
        }
      ]
    },
    {
      "name": "stand_b_arm_r",
      "primitives": [
        {
          "attributes": {
            "POSITION": 65,
            "NORMAL": 66,
            "TEXCOORD_0": 67,
            "TANGENT": 68
          },
          "indices": 69,
          "mode": 4
        }
      ]
    },
    {
      "name": "stand_b_shoe_l",
      "primitives": [
        {
          "attributes": {
            "POSITION": 70,
            "NORMAL": 71,
            "TEXCOORD_0": 72,
            "TANGENT": 73
          },
          "indices": 74,
          "mode": 4
        }
      ]
    },
    {
      "name": "stand_b_shoe_r",
      "primitives": [
        {
          "attributes": {
            "POSITION": 75,
            "NORMAL": 76,
            "TEXCOORD_0": 77,
            "TANGENT": 78
          },
          "indices": 79,
          "mode": 4
        }
      ]
    },
    {
      "name": "walk_c_torso",
      "primitives": [
        {
          "attributes": {
            "POSITION": 80,
            "NORMAL": 81,
            "TEXCOORD_0": 82,
            "TANGENT": 83
          },
          "indices": 84,
          "mode": 4
        }
      ]
    },
    {
      "name": "walk_c_head",
      "primitives": [
        {
          "attributes": {
            "POSITION": 85,
            "NORMAL": 86,
            "TEXCOORD_0": 87,
            "TANGENT": 88
          },
          "indices": 89,
          "mode": 4
        }
      ]
    },
    {
      "name": "walk_c_leg_l",
      "primitives": [
        {
          "attributes": {
            "POSITION": 90,
            "NORMAL": 91,
            "TEXCOORD_0": 92,
            "TANGENT": 93
          },
          "indices": 94,
          "mode": 4
        }
      ]
    },
    {
      "name": "walk_c_leg_r",
      "primitives": [
        {
          "attributes": {
            "POSITION": 95,
            "NORMAL": 96,
            "TEXCOORD_0": 97,
            "TANGENT": 98
          },
          "indices": 99,
          "mode": 4
        }
      ]
    },
    {
      "name": "walk_c_arm_l",
      "primitives": [
        {
          "attributes": {
            "POSITION": 100,
            "NORMAL": 101,
            "TEXCOORD_0": 102,
            "TANGENT": 103
          },
          "indices": 104,
          "mode": 4
        }
      ]
    },
    {
      "name": "walk_c_arm_r",
      "primitives": [
        {
          "attributes": {
            "POSITION": 105,
            "NORMAL": 106,
            "TEXCOORD_0": 107,
            "TANGENT": 108
          },
          "indices": 109,
          "mode": 4
        }
      ]
    },
    {
      "name": "walk_c_shoe_l",
      "primitives": [
        {
          "attributes": {
            "POSITION": 110,
            "NORMAL": 111,
            "TEXCOORD_0": 112,
            "TANGENT": 113
          },
          "indices": 114,
          "mode": 4
        }
      ]
    },
    {
      "name": "walk_c_shoe_r",
      "primitives": [
        {
          "attributes": {
            "POSITION": 115,
            "NORMAL": 116,
            "TEXCOORD_0": 117,
            "TANGENT": 118
          },
          "indices": 119,
          "mode": 4
        }
      ]
    },
    {
      "name": "walk_d_torso",
      "primitives": [
        {
          "attributes": {
            "POSITION": 120,
            "NORMAL": 121,
            "TEXCOORD_0": 122,
            "TANGENT": 123
          },
          "indices": 124,
          "mode": 4
        }
      ]
    },
    {
      "name": "walk_d_head",
      "primitives": [
        {
          "attributes": {
            "POSITION": 125,
            "NORMAL": 126,
            "TEXCOORD_0": 127,
            "TANGENT": 128
          },
          "indices": 129,
          "mode": 4
        }
      ]
    },
    {
      "name": "walk_d_leg_l",
      "primitives": [
        {
          "attributes": {
            "POSITION": 130,
            "NORMAL": 131,
            "TEXCOORD_0": 132,
            "TANGENT": 133
          },
          "indices": 134,
          "mode": 4
        }
      ]
    },
    {
      "name": "walk_d_leg_r",
      "primitives": [
        {
          "attributes": {
            "POSITION": 135,
            "NORMAL": 136,
            "TEXCOORD_0": 137,
            "TANGENT": 138
          },
          "indices": 139,
          "mode": 4
        }
      ]
    },
    {
      "name": "walk_d_arm_l",
      "primitives": [
        {
          "attributes": {
            "POSITION": 140,
            "NORMAL": 141,
            "TEXCOORD_0": 142,
            "TANGENT": 143
          },
          "indices": 144,
          "mode": 4
        }
      ]
    },
    {
      "name": "walk_d_arm_r",
      "primitives": [
        {
          "attributes": {
            "POSITION": 145,
            "NORMAL": 146,
            "TEXCOORD_0": 147,
            "TANGENT": 148
          },
          "indices": 149,
          "mode": 4
        }
      ]
    },
    {
      "name": "walk_d_shoe_l",
      "primitives": [
        {
          "attributes": {
            "POSITION": 150,
            "NORMAL": 151,
            "TEXCOORD_0": 152,
            "TANGENT": 153
          },
          "indices": 154,
          "mode": 4
        }
      ]
    },
    {
      "name": "walk_d_shoe_r",
      "primitives": [
        {
          "attributes": {
            "POSITION": 155,
            "NORMAL": 156,
            "TEXCOORD_0": 157,
            "TANGENT": 158
          },
          "indices": 159,
          "mode": 4
        }
      ]
    },
    {
      "name": "sit_e_torso",
      "primitives": [
        {
          "attributes": {
            "POSITION": 160,
            "NORMAL": 161,
            "TEXCOORD_0": 162,
            "TANGENT": 163
          },
          "indices": 164,
          "mode": 4
        }
      ]
    },
    {
      "name": "sit_e_head",
      "primitives": [
        {
          "attributes": {
            "POSITION": 165,
            "NORMAL": 166,
            "TEXCOORD_0": 167,
            "TANGENT": 168
          },
          "indices": 169,
          "mode": 4
        }
      ]
    },
    {
      "name": "sit_e_legs",
      "primitives": [
        {
          "attributes": {
            "POSITION": 170,
            "NORMAL": 171,
            "TEXCOORD_0": 172,
            "TANGENT": 173
          },
          "indices": 174,
          "mode": 4
        }
      ]
    },
    {
      "name": "sit_e_arm_l",
      "primitives": [
        {
          "attributes": {
            "POSITION": 175,
            "NORMAL": 176,
            "TEXCOORD_0": 177,
            "TANGENT": 178
          },
          "indices": 179,
          "mode": 4
        }
      ]
    },
    {
      "name": "sit_e_arm_r",
      "primitives": [
        {
          "attributes": {
            "POSITION": 180,
            "NORMAL": 181,
            "TEXCOORD_0": 182,
            "TANGENT": 183
          },
          "indices": 184,
          "mode": 4
        }
      ]
    },
    {
      "name": "sit_f_torso",
      "primitives": [
        {
          "attributes": {
            "POSITION": 185,
            "NORMAL": 186,
            "TEXCOORD_0": 187,
            "TANGENT": 188
          },
          "indices": 189,
          "mode": 4
        }
      ]
    },
    {
      "name": "sit_f_head",
      "primitives": [
        {
          "attributes": {
            "POSITION": 190,
            "NORMAL": 191,
            "TEXCOORD_0": 192,
            "TANGENT": 193
          },
          "indices": 194,
          "mode": 4
        }
      ]
    },
    {
      "name": "sit_f_legs",
      "primitives": [
        {
          "attributes": {
            "POSITION": 195,
            "NORMAL": 196,
            "TEXCOORD_0": 197,
            "TANGENT": 198
          },
          "indices": 199,
          "mode": 4
        }
      ]
    },
    {
      "name": "sit_f_arm_l",
      "primitives": [
        {
          "attributes": {
            "POSITION": 200,
            "NORMAL": 201,
            "TEXCOORD_0": 202,
            "TANGENT": 203
          },
          "indices": 204,
          "mode": 4
        }
      ]
    },
    {
      "name": "sit_f_arm_r",
      "primitives": [
        {
          "attributes": {
            "POSITION": 205,
            "NORMAL": 206,
            "TEXCOORD_0": 207,
            "TANGENT": 208
          },
          "indices": 209,
          "mode": 4
        }
      ]
    }
  ],
  "nodes": [
    {
      "name": "stand_a_torso",
      "mesh": 0
    },
    {
      "name": "stand_a_head",
      "mesh": 1
    },
    {
      "name": "stand_a_leg_l",
      "mesh": 2
    },
    {
      "name": "stand_a_leg_r",
      "mesh": 3
    },
    {
      "name": "stand_a_arm_l",
      "mesh": 4
    },
    {
      "name": "stand_a_arm_r",
      "mesh": 5
    },
    {
      "name": "stand_a_shoe_l",
      "mesh": 6
    },
    {
      "name": "stand_a_shoe_r",
      "mesh": 7
    },
    {
      "name": "stand_b_torso",
      "mesh": 8
    },
    {
      "name": "stand_b_head",
      "mesh": 9
    },
    {
      "name": "stand_b_leg_l",
      "mesh": 10
    },
    {
      "name": "stand_b_leg_r",
      "mesh": 11
    },
    {
      "name": "stand_b_arm_l",
      "mesh": 12
    },
    {
      "name": "stand_b_arm_r",
      "mesh": 13
    },
    {
      "name": "stand_b_shoe_l",
      "mesh": 14
    },
    {
      "name": "stand_b_shoe_r",
      "mesh": 15
    },
    {
      "name": "walk_c_torso",
      "mesh": 16
    },
    {
      "name": "walk_c_head",
      "mesh": 17
    },
    {
      "name": "walk_c_leg_l",
      "mesh": 18
    },
    {
      "name": "walk_c_leg_r",
      "mesh": 19
    },
    {
      "name": "walk_c_arm_l",
      "mesh": 20
    },
    {
      "name": "walk_c_arm_r",
      "mesh": 21
    },
    {
      "name": "walk_c_shoe_l",
      "mesh": 22
    },
    {
      "name": "walk_c_shoe_r",
      "mesh": 23
    },
    {
      "name": "walk_d_torso",
      "mesh": 24
    },
    {
      "name": "walk_d_head",
      "mesh": 25
    },
    {
      "name": "walk_d_leg_l",
      "mesh": 26
    },
    {
      "name": "walk_d_leg_r",
      "mesh": 27
    },
    {
      "name": "walk_d_arm_l",
      "mesh": 28
    },
    {
      "name": "walk_d_arm_r",
      "mesh": 29
    },
    {
      "name": "walk_d_shoe_l",
      "mesh": 30
    },
    {
      "name": "walk_d_shoe_r",
      "mesh": 31
    },
    {
      "name": "sit_e_torso",
      "mesh": 32
    },
    {
      "name": "sit_e_head",
      "mesh": 33
    },
    {
      "name": "sit_e_legs",
      "mesh": 34
    },
    {
      "name": "sit_e_arm_l",
      "mesh": 35
    },
    {
      "name": "sit_e_arm_r",
      "mesh": 36
    },
    {
      "name": "sit_f_torso",
      "mesh": 37
    },
    {
      "name": "sit_f_head",
      "mesh": 38
    },
    {
      "name": "sit_f_legs",
      "mesh": 39
    },
    {
      "name": "sit_f_arm_l",
      "mesh": 40
    },
    {
      "name": "sit_f_arm_r",
      "mesh": 41
    }
  ],
  "scenes": [
    {
      "name": "mdl_passenger_kit_v01",
      "nodes": [
        0,
        1,
        2,
        3,
        4,
        5,
        6,
        7,
        8,
        9,
        10,
        11,
        12,
        13,
        14,
        15,
        16,
        17,
        18,
        19,
        20,
        21,
        22,
        23,
        24,
        25,
        26,
        27,
        28,
        29,
        30,
        31,
        32,
        33,
        34,
        35,
        36,
        37,
        38,
        39,
        40,
        41
      ]
    }
  ],
  "scene": 0
}