{
  "asset": {
    "version": "2.0",
    "generator": "Airside Batch C procedural kit"
  },
  "buffers": [
    {
      "uri": "mdl_passenger_bus_apron_v04.bin",
      "byteLength": 6840
    }
  ],
  "bufferViews": [
    {
      "buffer": 0,
      "byteOffset": 0,
      "byteLength": 288,
      "target": 34962
    },
    {
      "buffer": 0,
      "byteOffset": 288,
      "byteLength": 72,
      "target": 34963
    },
    {
      "buffer": 0,
      "byteOffset": 360,
      "byteLength": 288,
      "target": 34962
    },
    {
      "buffer": 0,
      "byteOffset": 648,
      "byteLength": 72,
      "target": 34963
    },
    {
      "buffer": 0,
      "byteOffset": 720,
      "byteLength": 288,
      "target": 34962
    },
    {
      "buffer": 0,
      "byteOffset": 1008,
      "byteLength": 72,
      "target": 34963
    },
    {
      "buffer": 0,
      "byteOffset": 1080,
      "byteLength": 288,
      "target": 34962
    },
    {
      "buffer": 0,
      "byteOffset": 1368,
      "byteLength": 72,
      "target": 34963
    },
    {
      "buffer": 0,
      "byteOffset": 1440,
      "byteLength": 288,
      "target": 34962
    },
    {
      "buffer": 0,
      "byteOffset": 1728,
      "byteLength": 72,
      "target": 34963
    },
    {
      "buffer": 0,
      "byteOffset": 1800,
      "byteLength": 288,
      "target": 34962
    },
    {
      "buffer": 0,
      "byteOffset": 2088,
      "byteLength": 72,
      "target": 34963
    },
    {
      "buffer": 0,
      "byteOffset": 2160,
      "byteLength": 288,
      "target": 34962
    },
    {
      "buffer": 0,
      "byteOffset": 2448,
      "byteLength": 72,
      "target": 34963
    },
    {
      "buffer": 0,
      "byteOffset": 2520,
      "byteLength": 288,
      "target": 34962
    },
    {
      "buffer": 0,
      "byteOffset": 2808,
      "byteLength": 72,
      "target": 34963
    },
    {
      "buffer": 0,
      "byteOffset": 2880,
      "byteLength": 288,
      "target": 34962
    },
    {
      "buffer": 0,
      "byteOffset": 3168,
      "byteLength": 72,
      "target": 34963
    },
    {
      "buffer": 0,
      "byteOffset": 3240,
      "byteLength": 288,
      "target": 34962
    },
    {
      "buffer": 0,
      "byteOffset": 3528,
      "byteLength": 72,
      "target": 34963
    },
    {
      "buffer": 0,
      "byteOffset": 3600,
      "byteLength": 288,
      "target": 34962
    },
    {
      "buffer": 0,
      "byteOffset": 3888,
      "byteLength": 72,
      "target": 34963
    },
    {
      "buffer": 0,
      "byteOffset": 3960,
      "byteLength": 288,
      "target": 34962
    },
    {
      "buffer": 0,
      "byteOffset": 4248,
      "byteLength": 72,
      "target": 34963
    },
    {
      "buffer": 0,
      "byteOffset": 4320,
      "byteLength": 288,
      "target": 34962
    },
    {
      "buffer": 0,
      "byteOffset": 4608,
      "byteLength": 72,
      "target": 34963
    },
    {
      "buffer": 0,
      "byteOffset": 4680,
      "byteLength": 288,
      "target": 34962
    },
    {
      "buffer": 0,
      "byteOffset": 4968,
      "byteLength": 72,
      "target": 34963
    },
    {
      "buffer": 0,
      "byteOffset": 5040,
      "byteLength": 288,
      "target": 34962
    },
    {
      "buffer": 0,
      "byteOffset": 5328,
      "byteLength": 72,
      "target": 34963
    },
    {
      "buffer": 0,
      "byteOffset": 5400,
      "byteLength": 288,
      "target": 34962
    },
    {
      "buffer": 0,
      "byteOffset": 5688,
      "byteLength": 72,
      "target": 34963
    },
    {
      "buffer": 0,
      "byteOffset": 5760,
      "byteLength": 288,
      "target": 34962
    },
    {
      "buffer": 0,
      "byteOffset": 6048,
      "byteLength": 72,
      "target": 34963
    },
    {
      "buffer": 0,
      "byteOffset": 6120,
      "byteLength": 288,
      "target": 34962
    },
    {
      "buffer": 0,
      "byteOffset": 6408,
      "byteLength": 72,
      "target": 34963
    },
    {
      "buffer": 0,
      "byteOffset": 6480,
      "byteLength": 288,
      "target": 34962
    },
    {
      "buffer": 0,
      "byteOffset": 6768,
      "byteLength": 72,
      "target": 34963
    }
  ],
  "accessors": [
    {
      "bufferView": 0,
      "componentType": 5126,
      "count": 24,
      "type": "VEC3",
      "max": [
        2.200000047683716,
        1.774999976158142,
        0.824999988079071
      ],
      "min": [
        -2.200000047683716,
        0.125,
        -0.824999988079071
      ]
    },
    {
      "bufferView": 1,
      "componentType": 5123,
      "count": 36,
      "type": "SCALAR"
    },
    {
      "bufferView": 2,
      "componentType": 5126,
      "count": 24,
      "type": "VEC3",
      "max": [
        2.0999999046325684,
        2.0399999618530273,
        0.7749999761581421
      ],
      "min": [
        -2.0999999046325684,
        1.7599999904632568,
        -0.7749999761581421
      ]
    },
    {
      "bufferView": 3,
      "componentType": 5123,
      "count": 36,
      "type": "SCALAR"
    },
    {
      "bufferView": 4,
      "componentType": 5126,
      "count": 24,
      "type": "VEC3",
      "max": [
        1.899999976158142,
        1.625,
        0.8500000238418579
      ],
      "min": [
        -1.899999976158142,
        1.0750000476837158,
        -0.8500000238418579
      ]
    },
    {
      "bufferView": 5,
      "componentType": 5123,
      "count": 36,
      "type": "SCALAR"
    },
    {
      "bufferView": 6,
      "componentType": 5126,
      "count": 24,
      "type": "VEC3",
      "max": [
        0.03999999910593033,
        1.625,
        0.8600000143051147
      ],
      "min": [
        -0.03999999910593033,
        1.0750000476837158,
        -0.8600000143051147
      ]
    },
    {
      "bufferView": 7,
      "componentType": 5123,
      "count": 36,
      "type": "SCALAR"
    },
    {
      "bufferView": 8,
      "componentType": 5126,
      "count": 24,
      "type": "VEC3",
      "max": [
        -1.159999966621399,
        1.625,
        0.8600000143051147
      ],
      "min": [
        -1.2400000095367432,
        1.0750000476837158,
        -0.8600000143051147
      ]
    },
    {
      "bufferView": 9,
      "componentType": 5123,
      "count": 36,
      "type": "SCALAR"
    },
    {
      "bufferView": 10,
      "componentType": 5126,
      "count": 24,
      "type": "VEC3",
      "max": [
        1.2400000095367432,
        1.625,
        0.8600000143051147
      ],
      "min": [
        1.159999966621399,
        1.0750000476837158,
        -0.8600000143051147
      ]
    },
    {
      "bufferView": 11,
      "componentType": 5123,
      "count": 36,
      "type": "SCALAR"
    },
    {
      "bufferView": 12,
      "componentType": 5126,
      "count": 24,
      "type": "VEC3",
      "max": [
        0.7749999761581421,
        1.625,
        0.8999999761581421
      ],
      "min": [
        -0.2750000059604645,
        0.2750000059604645,
        0.800000011920929
      ]
    },
    {
      "bufferView": 13,
      "componentType": 5123,
      "count": 36,
      "type": "SCALAR"
    },
    {
      "bufferView": 14,
      "componentType": 5126,
      "count": 24,
      "type": "VEC3",
      "max": [
        0.6000000238418579,
        1.5750000476837158,
        0.9300000071525574
      ],
      "min": [
        -0.10000000149011612,
        1.125,
        0.8700000047683716
      ]
    },
    {
      "bufferView": 15,
      "componentType": 5123,
      "count": 36,
      "type": "SCALAR"
    },
    {
      "bufferView": 16,
      "componentType": 5126,
      "count": 24,
      "type": "VEC3",
      "max": [
        2.375,
        0.675000011920929,
        0.75
      ],
      "min": [
        2.125,
        0.22499999403953552,
        -0.75
      ]
    },
    {
      "bufferView": 17,
      "componentType": 5123,
      "count": 36,
      "type": "SCALAR"
    },
    {
      "bufferView": 18,
      "componentType": 5126,
      "count": 24,
      "type": "VEC3",
      "max": [
        -2.125,
        0.675000011920929,
        0.75
      ],
      "min": [
        -2.375,
        0.22499999403953552,
        -0.75
      ]
    },
    {
      "bufferView": 19,
      "componentType": 5123,
      "count": 36,
      "type": "SCALAR"
    },
    {
      "bufferView": 20,
      "componentType": 5126,
      "count": 24,
      "type": "VEC3",
      "max": [
        1.659999966621399,
        0.574999988079071,
        0.8399999737739563
      ],
      "min": [
        1.2400000095367432,
        0.02500000037252903,
        0.6000000238418579
      ]
    },
    {
      "bufferView": 21,
      "componentType": 5123,
      "count": 36,
      "type": "SCALAR"
    },
    {
      "bufferView": 22,
      "componentType": 5126,
      "count": 24,
      "type": "VEC3",
      "max": [
        1.659999966621399,
        0.574999988079071,
        -0.6000000238418579
      ],
      "min": [
        1.2400000095367432,
        0.02500000037252903,
        -0.8399999737739563
      ]
    },
    {
      "bufferView": 23,
      "componentType": 5123,
      "count": 36,
      "type": "SCALAR"
    },
    {
      "bufferView": 24,
      "componentType": 5126,
      "count": 24,
      "type": "VEC3",
      "max": [
        -1.2400000095367432,
        0.574999988079071,
        0.8399999737739563
      ],
      "min": [
        -1.659999966621399,
        0.02500000037252903,
        0.6000000238418579
      ]
    },
    {
      "bufferView": 25,
      "componentType": 5123,
      "count": 36,
      "type": "SCALAR"
    },
    {
      "bufferView": 26,
      "componentType": 5126,
      "count": 24,
      "type": "VEC3",
      "max": [
        -1.2400000095367432,
        0.574999988079071,
        -0.6000000238418579
      ],
      "min": [
        -1.659999966621399,
        0.02500000037252903,
        -0.8399999737739563
      ]
    },
    {
      "bufferView": 27,
      "componentType": 5123,
      "count": 36,
      "type": "SCALAR"
    },
    {
      "bufferView": 28,
      "componentType": 5126,
      "count": 24,
      "type": "VEC3",
      "max": [
        0.14000000059604645,
        2.25,
        0.14000000059604645
      ],
      "min": [
        -0.14000000059604645,
        2.049999952316284,
        -0.14000000059604645
      ]
    },
    {
      "bufferView": 29,
      "componentType": 5123,
      "count": 36,
      "type": "SCALAR"
    },
    {
      "bufferView": 30,
      "componentType": 5126,
      "count": 24,
      "type": "VEC3",
      "max": [
        2.1600000858306885,
        1.7000000476837158,
        1.0
      ],
      "min": [
        2.0399999618530273,
        1.399999976158142,
        0.800000011920929
      ]
    },
    {
      "bufferView": 31,
      "componentType": 5123,
      "count": 36,
      "type": "SCALAR"
    },
    {
      "bufferView": 32,
      "componentType": 5126,
      "count": 24,
      "type": "VEC3",
      "max": [
        0.699999988079071,
        0.42500001192092896,
        1.125
      ],
      "min": [
        -0.20000000298023224,
        0.2750000059604645,
        0.7749999761581421
      ]
    },
    {
      "bufferView": 33,
      "componentType": 5123,
      "count": 36,
      "type": "SCALAR"
    },
    {
      "bufferView": 34,
      "componentType": 5126,
      "count": 24,
      "type": "VEC3",
      "max": [
        2.359999895095825,
        0.7900000214576721,
        0.6499999761581421
      ],
      "min": [
        2.240000009536743,
        0.6100000143051147,
        0.44999998807907104
      ]
    },
    {
      "bufferView": 35,
      "componentType": 5123,
      "count": 36,
      "type": "SCALAR"
    },
    {
      "bufferView": 36,
      "componentType": 5126,
      "count": 24,
      "type": "VEC3",
      "max": [
        2.359999895095825,
        0.7900000214576721,
        -0.44999998807907104
      ],
      "min": [
        2.240000009536743,
        0.6100000143051147,
        -0.6499999761581421
      ]
    },
    {
      "bufferView": 37,
      "componentType": 5123,
      "count": 36,
      "type": "SCALAR"
    }
  ],
  "meshes": [
    {
      "name": "bus_body",
      "primitives": [
        {
          "attributes": {
            "POSITION": 0
          },
          "indices": 1,
          "mode": 4
        }
      ]
    },
    {
      "name": "cabin_roof",
      "primitives": [
        {
          "attributes": {
            "POSITION": 2
          },
          "indices": 3,
          "mode": 4
        }
      ]
    },
    {
      "name": "windows",
      "primitives": [
        {
          "attributes": {
            "POSITION": 4
          },
          "indices": 5,
          "mode": 4
        }
      ]
    },
    {
      "name": "window_mullion",
      "primitives": [
        {
          "attributes": {
            "POSITION": 6
          },
          "indices": 7,
          "mode": 4
        }
      ]
    },
    {
      "name": "window_mullion_2",
      "primitives": [
        {
          "attributes": {
            "POSITION": 8
          },
          "indices": 9,
          "mode": 4
        }
      ]
    },
    {
      "name": "window_mullion_3",
      "primitives": [
        {
          "attributes": {
            "POSITION": 10
          },
          "indices": 11,
          "mode": 4
        }
      ]
    },
    {
      "name": "door",
      "primitives": [
        {
          "attributes": {
            "POSITION": 12
          },
          "indices": 13,
          "mode": 4
        }
      ]
    },
    {
      "name": "door_window",
      "primitives": [
        {
          "attributes": {
            "POSITION": 14
          },
          "indices": 15,
          "mode": 4
        }
      ]
    },
    {
      "name": "bumper_front",
      "primitives": [
        {
          "attributes": {
            "POSITION": 16
          },
          "indices": 17,
          "mode": 4
        }
      ]
    },
    {
      "name": "bumper_rear",
      "primitives": [
        {
          "attributes": {
            "POSITION": 18
          },
          "indices": 19,
          "mode": 4
        }
      ]
    },
    {
      "name": "wheel_fl",
      "primitives": [
        {
          "attributes": {
            "POSITION": 20
          },
          "indices": 21,
          "mode": 4
        }
      ]
    },
    {
      "name": "wheel_fr",
      "primitives": [
        {
          "attributes": {
            "POSITION": 22
          },
          "indices": 23,
          "mode": 4
        }
      ]
    },
    {
      "name": "wheel_rl",
      "primitives": [
        {
          "attributes": {
            "POSITION": 24
          },
          "indices": 25,
          "mode": 4
        }
      ]
    },
    {
      "name": "wheel_rr",
      "primitives": [
        {
          "attributes": {
            "POSITION": 26
          },
          "indices": 27,
          "mode": 4
        }
      ]
    },
    {
      "name": "beacon",
      "primitives": [
        {
          "attributes": {
            "POSITION": 28
          },
          "indices": 29,
          "mode": 4
        }
      ]
    },
    {
      "name": "mirror_l",
      "primitives": [
        {
          "attributes": {
            "POSITION": 30
          },
          "indices": 31,
          "mode": 4
        }
      ]
    },
    {
      "name": "step",
      "primitives": [
        {
          "attributes": {
            "POSITION": 32
          },
          "indices": 33,
          "mode": 4
        }
      ]
    },
    {
      "name": "headlight_l",
      "primitives": [
        {
          "attributes": {
            "POSITION": 34
          },
          "indices": 35,
          "mode": 4
        }
      ]
    },
    {
      "name": "headlight_r",
      "primitives": [
        {
          "attributes": {
            "POSITION": 36
          },
          "indices": 37,
          "mode": 4
        }
      ]
    }
  ],
  "nodes": [
    {
      "name": "bus_body",
      "mesh": 0
    },
    {
      "name": "cabin_roof",
      "mesh": 1
    },
    {
      "name": "windows",
      "mesh": 2
    },
    {
      "name": "window_mullion",
      "mesh": 3
    },
    {
      "name": "window_mullion_2",
      "mesh": 4
    },
    {
      "name": "window_mullion_3",
      "mesh": 5
    },
    {
      "name": "door",
      "mesh": 6
    },
    {
      "name": "door_window",
      "mesh": 7
    },
    {
      "name": "bumper_front",
      "mesh": 8
    },
    {
      "name": "bumper_rear",
      "mesh": 9
    },
    {
      "name": "wheel_fl",
      "mesh": 10
    },
    {
      "name": "wheel_fr",
      "mesh": 11
    },
    {
      "name": "wheel_rl",
      "mesh": 12
    },
    {
      "name": "wheel_rr",
      "mesh": 13
    },
    {
      "name": "beacon",
      "mesh": 14
    },
    {
      "name": "mirror_l",
      "mesh": 15
    },
    {
      "name": "step",
      "mesh": 16
    },
    {
      "name": "headlight_l",
      "mesh": 17
    },
    {
      "name": "headlight_r",
      "mesh": 18
    }
  ],
  "scenes": [
    {
      "name": "mdl_passenger_bus_apron_v04",
      "nodes": [
        0,
        1,
        2,
        3,
        4,
        5,
        6,
        7,
        8,
        9,
        10,
        11,
        12,
        13,
        14,
        15,
        16,
        17,
        18
      ]
    }
  ],
  "scene": 0
}