{
  "asset": {
    "version": "2.0",
    "generator": "Airside Batch C procedural kit"
  },
  "buffers": [
    {
      "uri": "mdl_catering_truck_v01.bin",
      "byteLength": 35208
    }
  ],
  "bufferViews": [
    {
      "buffer": 0,
      "byteOffset": 0,
      "byteLength": 288,
      "target": 34962
    },
    {
      "buffer": 0,
      "byteOffset": 288,
      "byteLength": 72,
      "target": 34963
    },
    {
      "buffer": 0,
      "byteOffset": 360,
      "byteLength": 288,
      "target": 34962
    },
    {
      "buffer": 0,
      "byteOffset": 648,
      "byteLength": 72,
      "target": 34963
    },
    {
      "buffer": 0,
      "byteOffset": 720,
      "byteLength": 288,
      "target": 34962
    },
    {
      "buffer": 0,
      "byteOffset": 1008,
      "byteLength": 72,
      "target": 34963
    },
    {
      "buffer": 0,
      "byteOffset": 1080,
      "byteLength": 288,
      "target": 34962
    },
    {
      "buffer": 0,
      "byteOffset": 1368,
      "byteLength": 72,
      "target": 34963
    },
    {
      "buffer": 0,
      "byteOffset": 1440,
      "byteLength": 288,
      "target": 34962
    },
    {
      "buffer": 0,
      "byteOffset": 1728,
      "byteLength": 72,
      "target": 34963
    },
    {
      "buffer": 0,
      "byteOffset": 1800,
      "byteLength": 288,
      "target": 34962
    },
    {
      "buffer": 0,
      "byteOffset": 2088,
      "byteLength": 72,
      "target": 34963
    },
    {
      "buffer": 0,
      "byteOffset": 2160,
      "byteLength": 288,
      "target": 34962
    },
    {
      "buffer": 0,
      "byteOffset": 2448,
      "byteLength": 72,
      "target": 34963
    },
    {
      "buffer": 0,
      "byteOffset": 2520,
      "byteLength": 288,
      "target": 34962
    },
    {
      "buffer": 0,
      "byteOffset": 2808,
      "byteLength": 72,
      "target": 34963
    },
    {
      "buffer": 0,
      "byteOffset": 2880,
      "byteLength": 1440,
      "target": 34962
    },
    {
      "buffer": 0,
      "byteOffset": 4320,
      "byteLength": 288,
      "target": 34963
    },
    {
      "buffer": 0,
      "byteOffset": 4608,
      "byteLength": 288,
      "target": 34962
    },
    {
      "buffer": 0,
      "byteOffset": 4896,
      "byteLength": 72,
      "target": 34963
    },
    {
      "buffer": 0,
      "byteOffset": 4968,
      "byteLength": 288,
      "target": 34962
    },
    {
      "buffer": 0,
      "byteOffset": 5256,
      "byteLength": 72,
      "target": 34963
    },
    {
      "buffer": 0,
      "byteOffset": 5328,
      "byteLength": 1440,
      "target": 34962
    },
    {
      "buffer": 0,
      "byteOffset": 6768,
      "byteLength": 288,
      "target": 34963
    },
    {
      "buffer": 0,
      "byteOffset": 7056,
      "byteLength": 288,
      "target": 34962
    },
    {
      "buffer": 0,
      "byteOffset": 7344,
      "byteLength": 72,
      "target": 34963
    },
    {
      "buffer": 0,
      "byteOffset": 7416,
      "byteLength": 288,
      "target": 34962
    },
    {
      "buffer": 0,
      "byteOffset": 7704,
      "byteLength": 72,
      "target": 34963
    },
    {
      "buffer": 0,
      "byteOffset": 7776,
      "byteLength": 288,
      "target": 34962
    },
    {
      "buffer": 0,
      "byteOffset": 8064,
      "byteLength": 72,
      "target": 34963
    },
    {
      "buffer": 0,
      "byteOffset": 8136,
      "byteLength": 288,
      "target": 34962
    },
    {
      "buffer": 0,
      "byteOffset": 8424,
      "byteLength": 72,
      "target": 34963
    },
    {
      "buffer": 0,
      "byteOffset": 8496,
      "byteLength": 288,
      "target": 34962
    },
    {
      "buffer": 0,
      "byteOffset": 8784,
      "byteLength": 72,
      "target": 34963
    },
    {
      "buffer": 0,
      "byteOffset": 8856,
      "byteLength": 288,
      "target": 34962
    },
    {
      "buffer": 0,
      "byteOffset": 9144,
      "byteLength": 72,
      "target": 34963
    },
    {
      "buffer": 0,
      "byteOffset": 9216,
      "byteLength": 288,
      "target": 34962
    },
    {
      "buffer": 0,
      "byteOffset": 9504,
      "byteLength": 72,
      "target": 34963
    },
    {
      "buffer": 0,
      "byteOffset": 9576,
      "byteLength": 288,
      "target": 34962
    },
    {
      "buffer": 0,
      "byteOffset": 9864,
      "byteLength": 72,
      "target": 34963
    },
    {
      "buffer": 0,
      "byteOffset": 9936,
      "byteLength": 288,
      "target": 34962
    },
    {
      "buffer": 0,
      "byteOffset": 10224,
      "byteLength": 72,
      "target": 34963
    },
    {
      "buffer": 0,
      "byteOffset": 10296,
      "byteLength": 960,
      "target": 34962
    },
    {
      "buffer": 0,
      "byteOffset": 11256,
      "byteLength": 192,
      "target": 34963
    },
    {
      "buffer": 0,
      "byteOffset": 11448,
      "byteLength": 960,
      "target": 34962
    },
    {
      "buffer": 0,
      "byteOffset": 12408,
      "byteLength": 192,
      "target": 34963
    },
    {
      "buffer": 0,
      "byteOffset": 12600,
      "byteLength": 960,
      "target": 34962
    },
    {
      "buffer": 0,
      "byteOffset": 13560,
      "byteLength": 192,
      "target": 34963
    },
    {
      "buffer": 0,
      "byteOffset": 13752,
      "byteLength": 960,
      "target": 34962
    },
    {
      "buffer": 0,
      "byteOffset": 14712,
      "byteLength": 192,
      "target": 34963
    },
    {
      "buffer": 0,
      "byteOffset": 14904,
      "byteLength": 1920,
      "target": 34962
    },
    {
      "buffer": 0,
      "byteOffset": 16824,
      "byteLength": 384,
      "target": 34963
    },
    {
      "buffer": 0,
      "byteOffset": 17208,
      "byteLength": 1200,
      "target": 34962
    },
    {
      "buffer": 0,
      "byteOffset": 18408,
      "byteLength": 240,
      "target": 34963
    },
    {
      "buffer": 0,
      "byteOffset": 18648,
      "byteLength": 1920,
      "target": 34962
    },
    {
      "buffer": 0,
      "byteOffset": 20568,
      "byteLength": 384,
      "target": 34963
    },
    {
      "buffer": 0,
      "byteOffset": 20952,
      "byteLength": 1200,
      "target": 34962
    },
    {
      "buffer": 0,
      "byteOffset": 22152,
      "byteLength": 240,
      "target": 34963
    },
    {
      "buffer": 0,
      "byteOffset": 22392,
      "byteLength": 1920,
      "target": 34962
    },
    {
      "buffer": 0,
      "byteOffset": 24312,
      "byteLength": 384,
      "target": 34963
    },
    {
      "buffer": 0,
      "byteOffset": 24696,
      "byteLength": 1200,
      "target": 34962
    },
    {
      "buffer": 0,
      "byteOffset": 25896,
      "byteLength": 240,
      "target": 34963
    },
    {
      "buffer": 0,
      "byteOffset": 26136,
      "byteLength": 1920,
      "target": 34962
    },
    {
      "buffer": 0,
      "byteOffset": 28056,
      "byteLength": 384,
      "target": 34963
    },
    {
      "buffer": 0,
      "byteOffset": 28440,
      "byteLength": 1200,
      "target": 34962
    },
    {
      "buffer": 0,
      "byteOffset": 29640,
      "byteLength": 240,
      "target": 34963
    },
    {
      "buffer": 0,
      "byteOffset": 29880,
      "byteLength": 288,
      "target": 34962
    },
    {
      "buffer": 0,
      "byteOffset": 30168,
      "byteLength": 72,
      "target": 34963
    },
    {
      "buffer": 0,
      "byteOffset": 30240,
      "byteLength": 288,
      "target": 34962
    },
    {
      "buffer": 0,
      "byteOffset": 30528,
      "byteLength": 72,
      "target": 34963
    },
    {
      "buffer": 0,
      "byteOffset": 30600,
      "byteLength": 288,
      "target": 34962
    },
    {
      "buffer": 0,
      "byteOffset": 30888,
      "byteLength": 72,
      "target": 34963
    },
    {
      "buffer": 0,
      "byteOffset": 30960,
      "byteLength": 288,
      "target": 34962
    },
    {
      "buffer": 0,
      "byteOffset": 31248,
      "byteLength": 72,
      "target": 34963
    },
    {
      "buffer": 0,
      "byteOffset": 31320,
      "byteLength": 288,
      "target": 34962
    },
    {
      "buffer": 0,
      "byteOffset": 31608,
      "byteLength": 72,
      "target": 34963
    },
    {
      "buffer": 0,
      "byteOffset": 31680,
      "byteLength": 288,
      "target": 34962
    },
    {
      "buffer": 0,
      "byteOffset": 31968,
      "byteLength": 72,
      "target": 34963
    },
    {
      "buffer": 0,
      "byteOffset": 32040,
      "byteLength": 288,
      "target": 34962
    },
    {
      "buffer": 0,
      "byteOffset": 32328,
      "byteLength": 72,
      "target": 34963
    },
    {
      "buffer": 0,
      "byteOffset": 32400,
      "byteLength": 288,
      "target": 34962
    },
    {
      "buffer": 0,
      "byteOffset": 32688,
      "byteLength": 72,
      "target": 34963
    },
    {
      "buffer": 0,
      "byteOffset": 32760,
      "byteLength": 288,
      "target": 34962
    },
    {
      "buffer": 0,
      "byteOffset": 33048,
      "byteLength": 72,
      "target": 34963
    },
    {
      "buffer": 0,
      "byteOffset": 33120,
      "byteLength": 288,
      "target": 34962
    },
    {
      "buffer": 0,
      "byteOffset": 33408,
      "byteLength": 72,
      "target": 34963
    },
    {
      "buffer": 0,
      "byteOffset": 33480,
      "byteLength": 1440,
      "target": 34962
    },
    {
      "buffer": 0,
      "byteOffset": 34920,
      "byteLength": 288,
      "target": 34963
    }
  ],
  "accessors": [
    {
      "bufferView": 0,
      "componentType": 5126,
      "count": 24,
      "type": "VEC3",
      "max": [
        2.200000047683716,
        0.699999988079071,
        0.6600000262260437
      ],
      "min": [
        -2.4000000953674316,
        0.3400000035762787,
        -0.6600000262260437
      ]
    },
    {
      "bufferView": 1,
      "componentType": 5123,
      "count": 36,
      "type": "SCALAR"
    },
    {
      "bufferView": 2,
      "componentType": 5126,
      "count": 24,
      "type": "VEC3",
      "max": [
        2.3450000286102295,
        1.6299999952316284,
        0.7099999785423279
      ],
      "min": [
        1.0950000286102295,
        0.6100000143051147,
        -0.7099999785423279
      ]
    },
    {
      "bufferView": 3,
      "componentType": 5123,
      "count": 36,
      "type": "SCALAR"
    },
    {
      "bufferView": 4,
      "componentType": 5126,
      "count": 24,
      "type": "VEC3",
      "max": [
        2.309999942779541,
        1.7400000095367432,
        0.6600000262260437
      ],
      "min": [
        1.1299999952316284,
        1.6200000047683716,
        -0.6600000262260437
      ]
    },
    {
      "bufferView": 5,
      "componentType": 5123,
      "count": 36,
      "type": "SCALAR"
    },
    {
      "bufferView": 6,
      "componentType": 5126,
      "count": 24,
      "type": "VEC3",
      "max": [
        2.305000066757202,
        1.5499999523162842,
        0.5799999833106995
      ],
      "min": [
        2.255000114440918,
        0.9300000071525574,
        -0.5799999833106995
      ]
    },
    {
      "bufferView": 7,
      "componentType": 5123,
      "count": 36,
      "type": "SCALAR"
    },
    {
      "bufferView": 8,
      "componentType": 5126,
      "count": 24,
      "type": "VEC3",
      "max": [
        2.180000066757202,
        1.5199999809265137,
        -0.4350000023841858
      ],
      "min": [
        1.2599999904632568,
        0.9599999785423279,
        -0.48500001430511475
      ]
    },
    {
      "bufferView": 9,
      "componentType": 5123,
      "count": 36,
      "type": "SCALAR"
    },
    {
      "bufferView": 10,
      "componentType": 5126,
      "count": 24,
      "type": "VEC3",
      "max": [
        2.180000066757202,
        1.5199999809265137,
        0.48500001430511475
      ],
      "min": [
        1.2599999904632568,
        0.9599999785423279,
        0.4350000023841858
      ]
    },
    {
      "bufferView": 11,
      "componentType": 5123,
      "count": 36,
      "type": "SCALAR"
    },
    {
      "bufferView": 12,
      "componentType": 5126,
      "count": 24,
      "type": "VEC3",
      "max": [
        -0.4699999988079071,
        2.0899999141693115,
        0.5799999833106995
      ],
      "min": [
        -0.6299999952316284,
        0.4699999988079071,
        0.46000000834465027
      ]
    },
    {
      "bufferView": 13,
      "componentType": 5123,
      "count": 36,
      "type": "SCALAR"
    },
    {
      "bufferView": 14,
      "componentType": 5126,
      "count": 24,
      "type": "VEC3",
      "max": [
        0.25999999046325684,
        1.3600000143051147,
        0.5799999833106995
      ],
      "min": [
        -1.3600000143051147,
        1.2000000476837158,
        0.46000000834465027
      ]
    },
    {
      "bufferView": 15,
      "componentType": 5123,
      "count": 36,
      "type": "SCALAR"
    },
    {
      "bufferView": 16,
      "componentType": 5126,
      "count": 120,
      "type": "VEC3",
      "max": [
        -0.4399999976158142,
        1.3899999856948853,
        0.6000000238418579
      ],
      "min": [
        -0.6600000262260437,
        1.1699999570846558,
        0.4399999976158142
      ]
    },
    {
      "bufferView": 17,
      "componentType": 5123,
      "count": 144,
      "type": "SCALAR"
    },
    {
      "bufferView": 18,
      "componentType": 5126,
      "count": 24,
      "type": "VEC3",
      "max": [
        -0.4699999988079071,
        2.0899999141693115,
        -0.46000000834465027
      ],
      "min": [
        -0.6299999952316284,
        0.4699999988079071,
        -0.5799999833106995
      ]
    },
    {
      "bufferView": 19,
      "componentType": 5123,
      "count": 36,
      "type": "SCALAR"
    },
    {
      "bufferView": 20,
      "componentType": 5126,
      "count": 24,
      "type": "VEC3",
      "max": [
        0.25999999046325684,
        1.3600000143051147,
        -0.46000000834465027
      ],
      "min": [
        -1.3600000143051147,
        1.2000000476837158,
        -0.5799999833106995
      ]
    },
    {
      "bufferView": 21,
      "componentType": 5123,
      "count": 36,
      "type": "SCALAR"
    },
    {
      "bufferView": 22,
      "componentType": 5126,
      "count": 120,
      "type": "VEC3",
      "max": [
        -0.4399999976158142,
        1.3899999856948853,
        -0.4399999976158142
      ],
      "min": [
        -0.6600000262260437,
        1.1699999570846558,
        -0.6000000238418579
      ]
    },
    {
      "bufferView": 23,
      "componentType": 5123,
      "count": 144,
      "type": "SCALAR"
    },
    {
      "bufferView": 24,
      "componentType": 5126,
      "count": 24,
      "type": "VEC3",
      "max": [
        0.925000011920929,
        3.3949999809265137,
        0.7200000286102295
      ],
      "min": [
        -2.0250000953674316,
        1.8450000286102295,
        -0.7200000286102295
      ]
    },
    {
      "bufferView": 25,
      "componentType": 5123,
      "count": 36,
      "type": "SCALAR"
    },
    {
      "bufferView": 26,
      "componentType": 5126,
      "count": 24,
      "type": "VEC3",
      "max": [
        0.875,
        3.5,
        0.6800000071525574
      ],
      "min": [
        -1.975000023841858,
        3.380000114440918,
        -0.6800000071525574
      ]
    },
    {
      "bufferView": 27,
      "componentType": 5123,
      "count": 36,
      "type": "SCALAR"
    },
    {
      "bufferView": 28,
      "componentType": 5126,
      "count": 24,
      "type": "VEC3",
      "max": [
        0.824999988079071,
        3.630000114440918,
        0.6899999976158142
      ],
      "min": [
        -1.9249999523162842,
        3.569999933242798,
        0.6299999952316284
      ]
    },
    {
      "bufferView": 29,
      "componentType": 5123,
      "count": 36,
      "type": "SCALAR"
    },
    {
      "bufferView": 30,
      "componentType": 5126,
      "count": 24,
      "type": "VEC3",
      "max": [
        0.824999988079071,
        3.630000114440918,
        -0.6299999952316284
      ],
      "min": [
        -1.9249999523162842,
        3.569999933242798,
        -0.6899999976158142
      ]
    },
    {
      "bufferView": 31,
      "componentType": 5123,
      "count": 36,
      "type": "SCALAR"
    },
    {
      "bufferView": 32,
      "componentType": 5126,
      "count": 24,
      "type": "VEC3",
      "max": [
        0.949999988079071,
        3.2200000286102295,
        0.5899999737739563
      ],
      "min": [
        0.8899999856948853,
        1.940000057220459,
        -0.5899999737739563
      ]
    },
    {
      "bufferView": 33,
      "componentType": 5123,
      "count": 36,
      "type": "SCALAR"
    },
    {
      "bufferView": 34,
      "componentType": 5126,
      "count": 24,
      "type": "VEC3",
      "max": [
        1.0049999952316284,
        2.569999933242798,
        0.49000000953674316
      ],
      "min": [
        0.9549999833106995,
        2.4700000286102295,
        0.27000001072883606
      ]
    },
    {
      "bufferView": 35,
      "componentType": 5123,
      "count": 36,
      "type": "SCALAR"
    },
    {
      "bufferView": 36,
      "componentType": 5126,
      "count": 24,
      "type": "VEC3",
      "max": [
        2.0450000762939453,
        2.069999933242798,
        0.6499999761581421
      ],
      "min": [
        0.7950000166893005,
        1.9700000286102295,
        -0.6499999761581421
      ]
    },
    {
      "bufferView": 37,
      "componentType": 5123,
      "count": 36,
      "type": "SCALAR"
    },
    {
      "bufferView": 38,
      "componentType": 5126,
      "count": 24,
      "type": "VEC3",
      "max": [
        2.009999990463257,
        2.505000114440918,
        0.625
      ],
      "min": [
        0.8299999833106995,
        2.4549999237060547,
        0.574999988079071
      ]
    },
    {
      "bufferView": 39,
      "componentType": 5123,
      "count": 36,
      "type": "SCALAR"
    },
    {
      "bufferView": 40,
      "componentType": 5126,
      "count": 24,
      "type": "VEC3",
      "max": [
        2.009999990463257,
        2.505000114440918,
        -0.574999988079071
      ],
      "min": [
        0.8299999833106995,
        2.4549999237060547,
        -0.625
      ]
    },
    {
      "bufferView": 41,
      "componentType": 5123,
      "count": 36,
      "type": "SCALAR"
    },
    {
      "bufferView": 42,
      "componentType": 5126,
      "count": 80,
      "type": "VEC3",
      "max": [
        0.9150000214576721,
        2.490000009536743,
        0.6349999904632568
      ],
      "min": [
        0.8450000286102295,
        2.0299999713897705,
        0.5649999976158142
      ]
    },
    {
      "bufferView": 43,
      "componentType": 5123,
      "count": 96,
      "type": "SCALAR"
    },
    {
      "bufferView": 44,
      "componentType": 5126,
      "count": 80,
      "type": "VEC3",
      "max": [
        0.9150000214576721,
        2.490000009536743,
        -0.5649999976158142
      ],
      "min": [
        0.8450000286102295,
        2.0299999713897705,
        -0.6349999904632568
      ]
    },
    {
      "bufferView": 45,
      "componentType": 5123,
      "count": 96,
      "type": "SCALAR"
    },
    {
      "bufferView": 46,
      "componentType": 5126,
      "count": 80,
      "type": "VEC3",
      "max": [
        1.9950000047683716,
        2.490000009536743,
        0.6349999904632568
      ],
      "min": [
        1.9249999523162842,
        2.0299999713897705,
        0.5649999976158142
      ]
    },
    {
      "bufferView": 47,
      "componentType": 5123,
      "count": 96,
      "type": "SCALAR"
    },
    {
      "bufferView": 48,
      "componentType": 5126,
      "count": 80,
      "type": "VEC3",
      "max": [
        1.9950000047683716,
        2.490000009536743,
        -0.5649999976158142
      ],
      "min": [
        1.9249999523162842,
        2.0299999713897705,
        -0.6349999904632568
      ]
    },
    {
      "bufferView": 49,
      "componentType": 5123,
      "count": 96,
      "type": "SCALAR"
    },
    {
      "bufferView": 50,
      "componentType": 5126,
      "count": 160,
      "type": "VEC3",
      "max": [
        1.940000057220459,
        0.6399999856948853,
        0.7400000095367432
      ],
      "min": [
        1.2999999523162842,
        0.0,
        0.5
      ]
    },
    {
      "bufferView": 51,
      "componentType": 5123,
      "count": 192,
      "type": "SCALAR"
    },
    {
      "bufferView": 52,
      "componentType": 5126,
      "count": 100,
      "type": "VEC3",
      "max": [
        1.75,
        0.44363734126091003,
        0.6800000071525574
      ],
      "min": [
        1.4900000095367432,
        0.1963626593351364,
        0.5600000023841858
      ]
    },
    {
      "bufferView": 53,
      "componentType": 5123,
      "count": 120,
      "type": "SCALAR"
    },
    {
      "bufferView": 54,
      "componentType": 5126,
      "count": 160,
      "type": "VEC3",
      "max": [
        1.940000057220459,
        0.6399999856948853,
        -0.5
      ],
      "min": [
        1.2999999523162842,
        0.0,
        -0.7400000095367432
      ]
    },
    {
      "bufferView": 55,
      "componentType": 5123,
      "count": 192,
      "type": "SCALAR"
    },
    {
      "bufferView": 56,
      "componentType": 5126,
      "count": 100,
      "type": "VEC3",
      "max": [
        1.75,
        0.44363734126091003,
        -0.5600000023841858
      ],
      "min": [
        1.4900000095367432,
        0.1963626593351364,
        -0.6800000071525574
      ]
    },
    {
      "bufferView": 57,
      "componentType": 5123,
      "count": 120,
      "type": "SCALAR"
    },
    {
      "bufferView": 58,
      "componentType": 5126,
      "count": 160,
      "type": "VEC3",
      "max": [
        -1.399999976158142,
        0.6399999856948853,
        0.7400000095367432
      ],
      "min": [
        -2.0399999618530273,
        0.0,
        0.5
      ]
    },
    {
      "bufferView": 59,
      "componentType": 5123,
      "count": 192,
      "type": "SCALAR"
    },
    {
      "bufferView": 60,
      "componentType": 5126,
      "count": 100,
      "type": "VEC3",
      "max": [
        -1.590000033378601,
        0.44363734126091003,
        0.6800000071525574
      ],
      "min": [
        -1.850000023841858,
        0.1963626593351364,
        0.5600000023841858
      ]
    },
    {
      "bufferView": 61,
      "componentType": 5123,
      "count": 120,
      "type": "SCALAR"
    },
    {
      "bufferView": 62,
      "componentType": 5126,
      "count": 160,
      "type": "VEC3",
      "max": [
        -1.399999976158142,
        0.6399999856948853,
        -0.5
      ],
      "min": [
        -2.0399999618530273,
        0.0,
        -0.7400000095367432
      ]
    },
    {
      "bufferView": 63,
      "componentType": 5123,
      "count": 192,
      "type": "SCALAR"
    },
    {
      "bufferView": 64,
      "componentType": 5126,
      "count": 100,
      "type": "VEC3",
      "max": [
        -1.590000033378601,
        0.44363734126091003,
        -0.5600000023841858
      ],
      "min": [
        -1.850000023841858,
        0.1963626593351364,
        -0.6800000071525574
      ]
    },
    {
      "bufferView": 65,
      "componentType": 5123,
      "count": 120,
      "type": "SCALAR"
    },
    {
      "bufferView": 66,
      "componentType": 5126,
      "count": 24,
      "type": "VEC3",
      "max": [
        2.0299999713897705,
        0.6800000071525574,
        0.8399999737739563
      ],
      "min": [
        1.2100000381469727,
        0.47999998927116394,
        0.6399999856948853
      ]
    },
    {
      "bufferView": 67,
      "componentType": 5123,
      "count": 36,
      "type": "SCALAR"
    },
    {
      "bufferView": 68,
      "componentType": 5126,
      "count": 24,
      "type": "VEC3",
      "max": [
        2.0299999713897705,
        0.6800000071525574,
        -0.6399999856948853
      ],
      "min": [
        1.2100000381469727,
        0.47999998927116394,
        -0.8399999737739563
      ]
    },
    {
      "bufferView": 69,
      "componentType": 5123,
      "count": 36,
      "type": "SCALAR"
    },
    {
      "bufferView": 70,
      "componentType": 5126,
      "count": 24,
      "type": "VEC3",
      "max": [
        -1.309999942779541,
        0.6800000071525574,
        0.8399999737739563
      ],
      "min": [
        -2.130000114440918,
        0.47999998927116394,
        0.6399999856948853
      ]
    },
    {
      "bufferView": 71,
      "componentType": 5123,
      "count": 36,
      "type": "SCALAR"
    },
    {
      "bufferView": 72,
      "componentType": 5126,
      "count": 24,
      "type": "VEC3",
      "max": [
        -1.309999942779541,
        0.6800000071525574,
        -0.6399999856948853
      ],
      "min": [
        -2.130000114440918,
        0.47999998927116394,
        -0.8399999737739563
      ]
    },
    {
      "bufferView": 73,
      "componentType": 5123,
      "count": 36,
      "type": "SCALAR"
    },
    {
      "bufferView": 74,
      "componentType": 5126,
      "count": 24,
      "type": "VEC3",
      "max": [
        2.509999990463257,
        0.5899999737739563,
        0.6700000166893005
      ],
      "min": [
        2.2899999618530273,
        0.25,
        -0.6700000166893005
      ]
    },
    {
      "bufferView": 75,
      "componentType": 5123,
      "count": 36,
      "type": "SCALAR"
    },
    {
      "bufferView": 76,
      "componentType": 5126,
      "count": 24,
      "type": "VEC3",
      "max": [
        -2.309999942779541,
        0.5899999737739563,
        0.6299999952316284
      ],
      "min": [
        -2.5299999713897705,
        0.25,
        -0.6299999952316284
      ]
    },
    {
      "bufferView": 77,
      "componentType": 5123,
      "count": 36,
      "type": "SCALAR"
    },
    {
      "bufferView": 78,
      "componentType": 5126,
      "count": 24,
      "type": "VEC3",
      "max": [
        2.4749999046325684,
        0.8600000143051147,
        0.6000000238418579
      ],
      "min": [
        2.4049999713897705,
        0.699999988079071,
        0.36000001430511475
      ]
    },
    {
      "bufferView": 79,
      "componentType": 5123,
      "count": 36,
      "type": "SCALAR"
    },
    {
      "bufferView": 80,
      "componentType": 5126,
      "count": 24,
      "type": "VEC3",
      "max": [
        2.4749999046325684,
        0.8600000143051147,
        -0.36000001430511475
      ],
      "min": [
        2.4049999713897705,
        0.699999988079071,
        -0.6000000238418579
      ]
    },
    {
      "bufferView": 81,
      "componentType": 5123,
      "count": 36,
      "type": "SCALAR"
    },
    {
      "bufferView": 82,
      "componentType": 5126,
      "count": 24,
      "type": "VEC3",
      "max": [
        -2.430000066757202,
        0.8600000143051147,
        0.5400000214576721
      ],
      "min": [
        -2.490000009536743,
        0.699999988079071,
        0.3400000035762787
      ]
    },
    {
      "bufferView": 83,
      "componentType": 5123,
      "count": 36,
      "type": "SCALAR"
    },
    {
      "bufferView": 84,
      "componentType": 5126,
      "count": 24,
      "type": "VEC3",
      "max": [
        -2.430000066757202,
        0.8600000143051147,
        -0.3400000035762787
      ],
      "min": [
        -2.490000009536743,
        0.699999988079071,
        -0.5400000214576721
      ]
    },
    {
      "bufferView": 85,
      "componentType": 5123,
      "count": 36,
      "type": "SCALAR"
    },
    {
      "bufferView": 86,
      "componentType": 5126,
      "count": 120,
      "type": "VEC3",
      "max": [
        1.809999942779541,
        1.899999976158142,
        0.09000000357627869
      ],
      "min": [
        1.6299999952316284,
        1.7399998903274536,
        -0.09000000357627869
      ]
    },
    {
      "bufferView": 87,
      "componentType": 5123,
      "count": 144,
      "type": "SCALAR"
    }
  ],
  "meshes": [
    {
      "name": "chassis",
      "primitives": [
        {
          "attributes": {
            "POSITION": 0
          },
          "indices": 1,
          "mode": 4
        }
      ]
    },
    {
      "name": "cab",
      "primitives": [
        {
          "attributes": {
            "POSITION": 2
          },
          "indices": 3,
          "mode": 4
        }
      ]
    },
    {
      "name": "cab_roof",
      "primitives": [
        {
          "attributes": {
            "POSITION": 4
          },
          "indices": 5,
          "mode": 4
        }
      ]
    },
    {
      "name": "cab_window",
      "primitives": [
        {
          "attributes": {
            "POSITION": 6
          },
          "indices": 7,
          "mode": 4
        }
      ]
    },
    {
      "name": "glass_pane_1",
      "primitives": [
        {
          "attributes": {
            "POSITION": 8
          },
          "indices": 9,
          "mode": 4
        }
      ]
    },
    {
      "name": "glass_pane_2",
      "primitives": [
        {
          "attributes": {
            "POSITION": 10
          },
          "indices": 11,
          "mode": 4
        }
      ]
    },
    {
      "name": "scissor_l_a",
      "primitives": [
        {
          "attributes": {
            "POSITION": 12
          },
          "indices": 13,
          "mode": 4
        }
      ]
    },
    {
      "name": "scissor_l_b",
      "primitives": [
        {
          "attributes": {
            "POSITION": 14
          },
          "indices": 15,
          "mode": 4
        }
      ]
    },
    {
      "name": "scissor_pivot_l",
      "primitives": [
        {
          "attributes": {
            "POSITION": 16
          },
          "indices": 17,
          "mode": 4
        }
      ]
    },
    {
      "name": "scissor_r_a",
      "primitives": [
        {
          "attributes": {
            "POSITION": 18
          },
          "indices": 19,
          "mode": 4
        }
      ]
    },
    {
      "name": "scissor_r_b",
      "primitives": [
        {
          "attributes": {
            "POSITION": 20
          },
          "indices": 21,
          "mode": 4
        }
      ]
    },
    {
      "name": "scissor_pivot_r",
      "primitives": [
        {
          "attributes": {
            "POSITION": 22
          },
          "indices": 23,
          "mode": 4
        }
      ]
    },
    {
      "name": "box_body",
      "primitives": [
        {
          "attributes": {
            "POSITION": 24
          },
          "indices": 25,
          "mode": 4
        }
      ]
    },
    {
      "name": "box_roof",
      "primitives": [
        {
          "attributes": {
            "POSITION": 26
          },
          "indices": 27,
          "mode": 4
        }
      ]
    },
    {
      "name": "box_rail_l",
      "primitives": [
        {
          "attributes": {
            "POSITION": 28
          },
          "indices": 29,
          "mode": 4
        }
      ]
    },
    {
      "name": "box_rail_r",
      "primitives": [
        {
          "attributes": {
            "POSITION": 30
          },
          "indices": 31,
          "mode": 4
        }
      ]
    },
    {
      "name": "box_door",
      "primitives": [
        {
          "attributes": {
            "POSITION": 32
          },
          "indices": 33,
          "mode": 4
        }
      ]
    },
    {
      "name": "box_door_handle",
      "primitives": [
        {
          "attributes": {
            "POSITION": 34
          },
          "indices": 35,
          "mode": 4
        }
      ]
    },
    {
      "name": "platform",
      "primitives": [
        {
          "attributes": {
            "POSITION": 36
          },
          "indices": 37,
          "mode": 4
        }
      ]
    },
    {
      "name": "platform_rail_l",
      "primitives": [
        {
          "attributes": {
            "POSITION": 38
          },
          "indices": 39,
          "mode": 4
        }
      ]
    },
    {
      "name": "platform_rail_r",
      "primitives": [
        {
          "attributes": {
            "POSITION": 40
          },
          "indices": 41,
          "mode": 4
        }
      ]
    },
    {
      "name": "platform_post_1l",
      "primitives": [
        {
          "attributes": {
            "POSITION": 42
          },
          "indices": 43,
          "mode": 4
        }
      ]
    },
    {
      "name": "platform_post_1r",
      "primitives": [
        {
          "attributes": {
            "POSITION": 44
          },
          "indices": 45,
          "mode": 4
        }
      ]
    },
    {
      "name": "platform_post_2l",
      "primitives": [
        {
          "attributes": {
            "POSITION": 46
          },
          "indices": 47,
          "mode": 4
        }
      ]
    },
    {
      "name": "platform_post_2r",
      "primitives": [
        {
          "attributes": {
            "POSITION": 48
          },
          "indices": 49,
          "mode": 4
        }
      ]
    },
    {
      "name": "wheel_fl",
      "primitives": [
        {
          "attributes": {
            "POSITION": 50
          },
          "indices": 51,
          "mode": 4
        }
      ]
    },
    {
      "name": "hub_fl",
      "primitives": [
        {
          "attributes": {
            "POSITION": 52
          },
          "indices": 53,
          "mode": 4
        }
      ]
    },
    {
      "name": "wheel_fr",
      "primitives": [
        {
          "attributes": {
            "POSITION": 54
          },
          "indices": 55,
          "mode": 4
        }
      ]
    },
    {
      "name": "hub_fr",
      "primitives": [
        {
          "attributes": {
            "POSITION": 56
          },
          "indices": 57,
          "mode": 4
        }
      ]
    },
    {
      "name": "wheel_rl",
      "primitives": [
        {
          "attributes": {
            "POSITION": 58
          },
          "indices": 59,
          "mode": 4
        }
      ]
    },
    {
      "name": "hub_rl",
      "primitives": [
        {
          "attributes": {
            "POSITION": 60
          },
          "indices": 61,
          "mode": 4
        }
      ]
    },
    {
      "name": "wheel_rr",
      "primitives": [
        {
          "attributes": {
            "POSITION": 62
          },
          "indices": 63,
          "mode": 4
        }
      ]
    },
    {
      "name": "hub_rr",
      "primitives": [
        {
          "attributes": {
            "POSITION": 64
          },
          "indices": 65,
          "mode": 4
        }
      ]
    },
    {
      "name": "fender_fl",
      "primitives": [
        {
          "attributes": {
            "POSITION": 66
          },
          "indices": 67,
          "mode": 4
        }
      ]
    },
    {
      "name": "fender_fr",
      "primitives": [
        {
          "attributes": {
            "POSITION": 68
          },
          "indices": 69,
          "mode": 4
        }
      ]
    },
    {
      "name": "fender_rl",
      "primitives": [
        {
          "attributes": {
            "POSITION": 70
          },
          "indices": 71,
          "mode": 4
        }
      ]
    },
    {
      "name": "fender_rr",
      "primitives": [
        {
          "attributes": {
            "POSITION": 72
          },
          "indices": 73,
          "mode": 4
        }
      ]
    },
    {
      "name": "bumper",
      "primitives": [
        {
          "attributes": {
            "POSITION": 74
          },
          "indices": 75,
          "mode": 4
        }
      ]
    },
    {
      "name": "bumper_rear",
      "primitives": [
        {
          "attributes": {
            "POSITION": 76
          },
          "indices": 77,
          "mode": 4
        }
      ]
    },
    {
      "name": "headlight_l",
      "primitives": [
        {
          "attributes": {
            "POSITION": 78
          },
          "indices": 79,
          "mode": 4
        }
      ]
    },
    {
      "name": "headlight_r",
      "primitives": [
        {
          "attributes": {
            "POSITION": 80
          },
          "indices": 81,
          "mode": 4
        }
      ]
    },
    {
      "name": "taillight_l",
      "primitives": [
        {
          "attributes": {
            "POSITION": 82
          },
          "indices": 83,
          "mode": 4
        }
      ]
    },
    {
      "name": "taillight_r",
      "primitives": [
        {
          "attributes": {
            "POSITION": 84
          },
          "indices": 85,
          "mode": 4
        }
      ]
    },
    {
      "name": "beacon",
      "primitives": [
        {
          "attributes": {
            "POSITION": 86
          },
          "indices": 87,
          "mode": 4
        }
      ]
    }
  ],
  "nodes": [
    {
      "name": "chassis",
      "mesh": 0
    },
    {
      "name": "cab",
      "mesh": 1
    },
    {
      "name": "cab_roof",
      "mesh": 2
    },
    {
      "name": "cab_window",
      "mesh": 3
    },
    {
      "name": "glass_pane_1",
      "mesh": 4
    },
    {
      "name": "glass_pane_2",
      "mesh": 5
    },
    {
      "name": "scissor_l_a",
      "mesh": 6
    },
    {
      "name": "scissor_l_b",
      "mesh": 7
    },
    {
      "name": "scissor_pivot_l",
      "mesh": 8
    },
    {
      "name": "scissor_r_a",
      "mesh": 9
    },
    {
      "name": "scissor_r_b",
      "mesh": 10
    },
    {
      "name": "scissor_pivot_r",
      "mesh": 11
    },
    {
      "name": "box_body",
      "mesh": 12
    },
    {
      "name": "box_roof",
      "mesh": 13
    },
    {
      "name": "box_rail_l",
      "mesh": 14
    },
    {
      "name": "box_rail_r",
      "mesh": 15
    },
    {
      "name": "box_door",
      "mesh": 16
    },
    {
      "name": "box_door_handle",
      "mesh": 17
    },
    {
      "name": "platform",
      "mesh": 18
    },
    {
      "name": "platform_rail_l",
      "mesh": 19
    },
    {
      "name": "platform_rail_r",
      "mesh": 20
    },
    {
      "name": "platform_post_1l",
      "mesh": 21
    },
    {
      "name": "platform_post_1r",
      "mesh": 22
    },
    {
      "name": "platform_post_2l",
      "mesh": 23
    },
    {
      "name": "platform_post_2r",
      "mesh": 24
    },
    {
      "name": "wheel_fl",
      "mesh": 25
    },
    {
      "name": "hub_fl",
      "mesh": 26
    },
    {
      "name": "wheel_fr",
      "mesh": 27
    },
    {
      "name": "hub_fr",
      "mesh": 28
    },
    {
      "name": "wheel_rl",
      "mesh": 29
    },
    {
      "name": "hub_rl",
      "mesh": 30
    },
    {
      "name": "wheel_rr",
      "mesh": 31
    },
    {
      "name": "hub_rr",
      "mesh": 32
    },
    {
      "name": "fender_fl",
      "mesh": 33
    },
    {
      "name": "fender_fr",
      "mesh": 34
    },
    {
      "name": "fender_rl",
      "mesh": 35
    },
    {
      "name": "fender_rr",
      "mesh": 36
    },
    {
      "name": "bumper",
      "mesh": 37
    },
    {
      "name": "bumper_rear",
      "mesh": 38
    },
    {
      "name": "headlight_l",
      "mesh": 39
    },
    {
      "name": "headlight_r",
      "mesh": 40
    },
    {
      "name": "taillight_l",
      "mesh": 41
    },
    {
      "name": "taillight_r",
      "mesh": 42
    },
    {
      "name": "beacon",
      "mesh": 43
    }
  ],
  "scenes": [
    {
      "name": "mdl_catering_truck_v01",
      "nodes": [
        0,
        1,
        2,
        3,
        4,
        5,
        6,
        7,
        8,
        9,
        10,
        11,
        12,
        13,
        14,
        15,
        16,
        17,
        18,
        19,
        20,
        21,
        22,
        23,
        24,
        25,
        26,
        27,
        28,
        29,
        30,
        31,
        32,
        33,
        34,
        35,
        36,
        37,
        38,
        39,
        40,
        41,
        42,
        43
      ]
    }
  ],
  "scene": 0
}