{
  "asset": {
    "version": "2.0",
    "generator": "Airside Batch C procedural kit"
  },
  "buffers": [
    {
      "uri": "mdl_passenger_bus_apron_authored_v01.bin",
      "byteLength": 43344
    }
  ],
  "bufferViews": [
    {
      "buffer": 0,
      "byteOffset": 0,
      "byteLength": 288,
      "target": 34962
    },
    {
      "buffer": 0,
      "byteOffset": 288,
      "byteLength": 72,
      "target": 34963
    },
    {
      "buffer": 0,
      "byteOffset": 360,
      "byteLength": 288,
      "target": 34962
    },
    {
      "buffer": 0,
      "byteOffset": 648,
      "byteLength": 72,
      "target": 34963
    },
    {
      "buffer": 0,
      "byteOffset": 720,
      "byteLength": 288,
      "target": 34962
    },
    {
      "buffer": 0,
      "byteOffset": 1008,
      "byteLength": 72,
      "target": 34963
    },
    {
      "buffer": 0,
      "byteOffset": 1080,
      "byteLength": 288,
      "target": 34962
    },
    {
      "buffer": 0,
      "byteOffset": 1368,
      "byteLength": 72,
      "target": 34963
    },
    {
      "buffer": 0,
      "byteOffset": 1440,
      "byteLength": 288,
      "target": 34962
    },
    {
      "buffer": 0,
      "byteOffset": 1728,
      "byteLength": 72,
      "target": 34963
    },
    {
      "buffer": 0,
      "byteOffset": 1800,
      "byteLength": 288,
      "target": 34962
    },
    {
      "buffer": 0,
      "byteOffset": 2088,
      "byteLength": 72,
      "target": 34963
    },
    {
      "buffer": 0,
      "byteOffset": 2160,
      "byteLength": 288,
      "target": 34962
    },
    {
      "buffer": 0,
      "byteOffset": 2448,
      "byteLength": 72,
      "target": 34963
    },
    {
      "buffer": 0,
      "byteOffset": 2520,
      "byteLength": 288,
      "target": 34962
    },
    {
      "buffer": 0,
      "byteOffset": 2808,
      "byteLength": 72,
      "target": 34963
    },
    {
      "buffer": 0,
      "byteOffset": 2880,
      "byteLength": 288,
      "target": 34962
    },
    {
      "buffer": 0,
      "byteOffset": 3168,
      "byteLength": 72,
      "target": 34963
    },
    {
      "buffer": 0,
      "byteOffset": 3240,
      "byteLength": 288,
      "target": 34962
    },
    {
      "buffer": 0,
      "byteOffset": 3528,
      "byteLength": 72,
      "target": 34963
    },
    {
      "buffer": 0,
      "byteOffset": 3600,
      "byteLength": 288,
      "target": 34962
    },
    {
      "buffer": 0,
      "byteOffset": 3888,
      "byteLength": 72,
      "target": 34963
    },
    {
      "buffer": 0,
      "byteOffset": 3960,
      "byteLength": 288,
      "target": 34962
    },
    {
      "buffer": 0,
      "byteOffset": 4248,
      "byteLength": 72,
      "target": 34963
    },
    {
      "buffer": 0,
      "byteOffset": 4320,
      "byteLength": 288,
      "target": 34962
    },
    {
      "buffer": 0,
      "byteOffset": 4608,
      "byteLength": 72,
      "target": 34963
    },
    {
      "buffer": 0,
      "byteOffset": 4680,
      "byteLength": 288,
      "target": 34962
    },
    {
      "buffer": 0,
      "byteOffset": 4968,
      "byteLength": 72,
      "target": 34963
    },
    {
      "buffer": 0,
      "byteOffset": 5040,
      "byteLength": 288,
      "target": 34962
    },
    {
      "buffer": 0,
      "byteOffset": 5328,
      "byteLength": 72,
      "target": 34963
    },
    {
      "buffer": 0,
      "byteOffset": 5400,
      "byteLength": 288,
      "target": 34962
    },
    {
      "buffer": 0,
      "byteOffset": 5688,
      "byteLength": 72,
      "target": 34963
    },
    {
      "buffer": 0,
      "byteOffset": 5760,
      "byteLength": 288,
      "target": 34962
    },
    {
      "buffer": 0,
      "byteOffset": 6048,
      "byteLength": 72,
      "target": 34963
    },
    {
      "buffer": 0,
      "byteOffset": 6120,
      "byteLength": 288,
      "target": 34962
    },
    {
      "buffer": 0,
      "byteOffset": 6408,
      "byteLength": 72,
      "target": 34963
    },
    {
      "buffer": 0,
      "byteOffset": 6480,
      "byteLength": 288,
      "target": 34962
    },
    {
      "buffer": 0,
      "byteOffset": 6768,
      "byteLength": 72,
      "target": 34963
    },
    {
      "buffer": 0,
      "byteOffset": 6840,
      "byteLength": 288,
      "target": 34962
    },
    {
      "buffer": 0,
      "byteOffset": 7128,
      "byteLength": 72,
      "target": 34963
    },
    {
      "buffer": 0,
      "byteOffset": 7200,
      "byteLength": 288,
      "target": 34962
    },
    {
      "buffer": 0,
      "byteOffset": 7488,
      "byteLength": 72,
      "target": 34963
    },
    {
      "buffer": 0,
      "byteOffset": 7560,
      "byteLength": 288,
      "target": 34962
    },
    {
      "buffer": 0,
      "byteOffset": 7848,
      "byteLength": 72,
      "target": 34963
    },
    {
      "buffer": 0,
      "byteOffset": 7920,
      "byteLength": 288,
      "target": 34962
    },
    {
      "buffer": 0,
      "byteOffset": 8208,
      "byteLength": 72,
      "target": 34963
    },
    {
      "buffer": 0,
      "byteOffset": 8280,
      "byteLength": 1680,
      "target": 34962
    },
    {
      "buffer": 0,
      "byteOffset": 9960,
      "byteLength": 336,
      "target": 34963
    },
    {
      "buffer": 0,
      "byteOffset": 10296,
      "byteLength": 1680,
      "target": 34962
    },
    {
      "buffer": 0,
      "byteOffset": 11976,
      "byteLength": 336,
      "target": 34963
    },
    {
      "buffer": 0,
      "byteOffset": 12312,
      "byteLength": 1680,
      "target": 34962
    },
    {
      "buffer": 0,
      "byteOffset": 13992,
      "byteLength": 336,
      "target": 34963
    },
    {
      "buffer": 0,
      "byteOffset": 14328,
      "byteLength": 1680,
      "target": 34962
    },
    {
      "buffer": 0,
      "byteOffset": 16008,
      "byteLength": 336,
      "target": 34963
    },
    {
      "buffer": 0,
      "byteOffset": 16344,
      "byteLength": 288,
      "target": 34962
    },
    {
      "buffer": 0,
      "byteOffset": 16632,
      "byteLength": 72,
      "target": 34963
    },
    {
      "buffer": 0,
      "byteOffset": 16704,
      "byteLength": 288,
      "target": 34962
    },
    {
      "buffer": 0,
      "byteOffset": 16992,
      "byteLength": 72,
      "target": 34963
    },
    {
      "buffer": 0,
      "byteOffset": 17064,
      "byteLength": 288,
      "target": 34962
    },
    {
      "buffer": 0,
      "byteOffset": 17352,
      "byteLength": 72,
      "target": 34963
    },
    {
      "buffer": 0,
      "byteOffset": 17424,
      "byteLength": 288,
      "target": 34962
    },
    {
      "buffer": 0,
      "byteOffset": 17712,
      "byteLength": 72,
      "target": 34963
    },
    {
      "buffer": 0,
      "byteOffset": 17784,
      "byteLength": 288,
      "target": 34962
    },
    {
      "buffer": 0,
      "byteOffset": 18072,
      "byteLength": 72,
      "target": 34963
    },
    {
      "buffer": 0,
      "byteOffset": 18144,
      "byteLength": 288,
      "target": 34962
    },
    {
      "buffer": 0,
      "byteOffset": 18432,
      "byteLength": 72,
      "target": 34963
    },
    {
      "buffer": 0,
      "byteOffset": 18504,
      "byteLength": 288,
      "target": 34962
    },
    {
      "buffer": 0,
      "byteOffset": 18792,
      "byteLength": 72,
      "target": 34963
    },
    {
      "buffer": 0,
      "byteOffset": 18864,
      "byteLength": 288,
      "target": 34962
    },
    {
      "buffer": 0,
      "byteOffset": 19152,
      "byteLength": 72,
      "target": 34963
    },
    {
      "buffer": 0,
      "byteOffset": 19224,
      "byteLength": 288,
      "target": 34962
    },
    {
      "buffer": 0,
      "byteOffset": 19512,
      "byteLength": 72,
      "target": 34963
    },
    {
      "buffer": 0,
      "byteOffset": 19584,
      "byteLength": 288,
      "target": 34962
    },
    {
      "buffer": 0,
      "byteOffset": 19872,
      "byteLength": 72,
      "target": 34963
    },
    {
      "buffer": 0,
      "byteOffset": 19944,
      "byteLength": 288,
      "target": 34962
    },
    {
      "buffer": 0,
      "byteOffset": 20232,
      "byteLength": 72,
      "target": 34963
    },
    {
      "buffer": 0,
      "byteOffset": 20304,
      "byteLength": 288,
      "target": 34962
    },
    {
      "buffer": 0,
      "byteOffset": 20592,
      "byteLength": 72,
      "target": 34963
    },
    {
      "buffer": 0,
      "byteOffset": 20664,
      "byteLength": 288,
      "target": 34962
    },
    {
      "buffer": 0,
      "byteOffset": 20952,
      "byteLength": 72,
      "target": 34963
    },
    {
      "buffer": 0,
      "byteOffset": 21024,
      "byteLength": 288,
      "target": 34962
    },
    {
      "buffer": 0,
      "byteOffset": 21312,
      "byteLength": 72,
      "target": 34963
    },
    {
      "buffer": 0,
      "byteOffset": 21384,
      "byteLength": 288,
      "target": 34962
    },
    {
      "buffer": 0,
      "byteOffset": 21672,
      "byteLength": 72,
      "target": 34963
    },
    {
      "buffer": 0,
      "byteOffset": 21744,
      "byteLength": 288,
      "target": 34962
    },
    {
      "buffer": 0,
      "byteOffset": 22032,
      "byteLength": 72,
      "target": 34963
    },
    {
      "buffer": 0,
      "byteOffset": 22104,
      "byteLength": 288,
      "target": 34962
    },
    {
      "buffer": 0,
      "byteOffset": 22392,
      "byteLength": 72,
      "target": 34963
    },
    {
      "buffer": 0,
      "byteOffset": 22464,
      "byteLength": 288,
      "target": 34962
    },
    {
      "buffer": 0,
      "byteOffset": 22752,
      "byteLength": 72,
      "target": 34963
    },
    {
      "buffer": 0,
      "byteOffset": 22824,
      "byteLength": 288,
      "target": 34962
    },
    {
      "buffer": 0,
      "byteOffset": 23112,
      "byteLength": 72,
      "target": 34963
    },
    {
      "buffer": 0,
      "byteOffset": 23184,
      "byteLength": 288,
      "target": 34962
    },
    {
      "buffer": 0,
      "byteOffset": 23472,
      "byteLength": 72,
      "target": 34963
    },
    {
      "buffer": 0,
      "byteOffset": 23544,
      "byteLength": 288,
      "target": 34962
    },
    {
      "buffer": 0,
      "byteOffset": 23832,
      "byteLength": 72,
      "target": 34963
    },
    {
      "buffer": 0,
      "byteOffset": 23904,
      "byteLength": 288,
      "target": 34962
    },
    {
      "buffer": 0,
      "byteOffset": 24192,
      "byteLength": 72,
      "target": 34963
    },
    {
      "buffer": 0,
      "byteOffset": 24264,
      "byteLength": 288,
      "target": 34962
    },
    {
      "buffer": 0,
      "byteOffset": 24552,
      "byteLength": 72,
      "target": 34963
    },
    {
      "buffer": 0,
      "byteOffset": 24624,
      "byteLength": 288,
      "target": 34962
    },
    {
      "buffer": 0,
      "byteOffset": 24912,
      "byteLength": 72,
      "target": 34963
    },
    {
      "buffer": 0,
      "byteOffset": 24984,
      "byteLength": 288,
      "target": 34962
    },
    {
      "buffer": 0,
      "byteOffset": 25272,
      "byteLength": 72,
      "target": 34963
    },
    {
      "buffer": 0,
      "byteOffset": 25344,
      "byteLength": 288,
      "target": 34962
    },
    {
      "buffer": 0,
      "byteOffset": 25632,
      "byteLength": 72,
      "target": 34963
    },
    {
      "buffer": 0,
      "byteOffset": 25704,
      "byteLength": 288,
      "target": 34962
    },
    {
      "buffer": 0,
      "byteOffset": 25992,
      "byteLength": 72,
      "target": 34963
    },
    {
      "buffer": 0,
      "byteOffset": 26064,
      "byteLength": 288,
      "target": 34962
    },
    {
      "buffer": 0,
      "byteOffset": 26352,
      "byteLength": 72,
      "target": 34963
    },
    {
      "buffer": 0,
      "byteOffset": 26424,
      "byteLength": 288,
      "target": 34962
    },
    {
      "buffer": 0,
      "byteOffset": 26712,
      "byteLength": 72,
      "target": 34963
    },
    {
      "buffer": 0,
      "byteOffset": 26784,
      "byteLength": 288,
      "target": 34962
    },
    {
      "buffer": 0,
      "byteOffset": 27072,
      "byteLength": 72,
      "target": 34963
    },
    {
      "buffer": 0,
      "byteOffset": 27144,
      "byteLength": 288,
      "target": 34962
    },
    {
      "buffer": 0,
      "byteOffset": 27432,
      "byteLength": 72,
      "target": 34963
    },
    {
      "buffer": 0,
      "byteOffset": 27504,
      "byteLength": 288,
      "target": 34962
    },
    {
      "buffer": 0,
      "byteOffset": 27792,
      "byteLength": 72,
      "target": 34963
    },
    {
      "buffer": 0,
      "byteOffset": 27864,
      "byteLength": 288,
      "target": 34962
    },
    {
      "buffer": 0,
      "byteOffset": 28152,
      "byteLength": 72,
      "target": 34963
    },
    {
      "buffer": 0,
      "byteOffset": 28224,
      "byteLength": 288,
      "target": 34962
    },
    {
      "buffer": 0,
      "byteOffset": 28512,
      "byteLength": 72,
      "target": 34963
    },
    {
      "buffer": 0,
      "byteOffset": 28584,
      "byteLength": 288,
      "target": 34962
    },
    {
      "buffer": 0,
      "byteOffset": 28872,
      "byteLength": 72,
      "target": 34963
    },
    {
      "buffer": 0,
      "byteOffset": 28944,
      "byteLength": 288,
      "target": 34962
    },
    {
      "buffer": 0,
      "byteOffset": 29232,
      "byteLength": 72,
      "target": 34963
    },
    {
      "buffer": 0,
      "byteOffset": 29304,
      "byteLength": 1200,
      "target": 34962
    },
    {
      "buffer": 0,
      "byteOffset": 30504,
      "byteLength": 240,
      "target": 34963
    },
    {
      "buffer": 0,
      "byteOffset": 30744,
      "byteLength": 1200,
      "target": 34962
    },
    {
      "buffer": 0,
      "byteOffset": 31944,
      "byteLength": 240,
      "target": 34963
    },
    {
      "buffer": 0,
      "byteOffset": 32184,
      "byteLength": 1200,
      "target": 34962
    },
    {
      "buffer": 0,
      "byteOffset": 33384,
      "byteLength": 240,
      "target": 34963
    },
    {
      "buffer": 0,
      "byteOffset": 33624,
      "byteLength": 1200,
      "target": 34962
    },
    {
      "buffer": 0,
      "byteOffset": 34824,
      "byteLength": 240,
      "target": 34963
    },
    {
      "buffer": 0,
      "byteOffset": 35064,
      "byteLength": 288,
      "target": 34962
    },
    {
      "buffer": 0,
      "byteOffset": 35352,
      "byteLength": 72,
      "target": 34963
    },
    {
      "buffer": 0,
      "byteOffset": 35424,
      "byteLength": 288,
      "target": 34962
    },
    {
      "buffer": 0,
      "byteOffset": 35712,
      "byteLength": 72,
      "target": 34963
    },
    {
      "buffer": 0,
      "byteOffset": 35784,
      "byteLength": 288,
      "target": 34962
    },
    {
      "buffer": 0,
      "byteOffset": 36072,
      "byteLength": 72,
      "target": 34963
    },
    {
      "buffer": 0,
      "byteOffset": 36144,
      "byteLength": 288,
      "target": 34962
    },
    {
      "buffer": 0,
      "byteOffset": 36432,
      "byteLength": 72,
      "target": 34963
    },
    {
      "buffer": 0,
      "byteOffset": 36504,
      "byteLength": 288,
      "target": 34962
    },
    {
      "buffer": 0,
      "byteOffset": 36792,
      "byteLength": 72,
      "target": 34963
    },
    {
      "buffer": 0,
      "byteOffset": 36864,
      "byteLength": 288,
      "target": 34962
    },
    {
      "buffer": 0,
      "byteOffset": 37152,
      "byteLength": 72,
      "target": 34963
    },
    {
      "buffer": 0,
      "byteOffset": 37224,
      "byteLength": 288,
      "target": 34962
    },
    {
      "buffer": 0,
      "byteOffset": 37512,
      "byteLength": 72,
      "target": 34963
    },
    {
      "buffer": 0,
      "byteOffset": 37584,
      "byteLength": 288,
      "target": 34962
    },
    {
      "buffer": 0,
      "byteOffset": 37872,
      "byteLength": 72,
      "target": 34963
    },
    {
      "buffer": 0,
      "byteOffset": 37944,
      "byteLength": 288,
      "target": 34962
    },
    {
      "buffer": 0,
      "byteOffset": 38232,
      "byteLength": 72,
      "target": 34963
    },
    {
      "buffer": 0,
      "byteOffset": 38304,
      "byteLength": 288,
      "target": 34962
    },
    {
      "buffer": 0,
      "byteOffset": 38592,
      "byteLength": 72,
      "target": 34963
    },
    {
      "buffer": 0,
      "byteOffset": 38664,
      "byteLength": 288,
      "target": 34962
    },
    {
      "buffer": 0,
      "byteOffset": 38952,
      "byteLength": 72,
      "target": 34963
    },
    {
      "buffer": 0,
      "byteOffset": 39024,
      "byteLength": 288,
      "target": 34962
    },
    {
      "buffer": 0,
      "byteOffset": 39312,
      "byteLength": 72,
      "target": 34963
    },
    {
      "buffer": 0,
      "byteOffset": 39384,
      "byteLength": 288,
      "target": 34962
    },
    {
      "buffer": 0,
      "byteOffset": 39672,
      "byteLength": 72,
      "target": 34963
    },
    {
      "buffer": 0,
      "byteOffset": 39744,
      "byteLength": 288,
      "target": 34962
    },
    {
      "buffer": 0,
      "byteOffset": 40032,
      "byteLength": 72,
      "target": 34963
    },
    {
      "buffer": 0,
      "byteOffset": 40104,
      "byteLength": 288,
      "target": 34962
    },
    {
      "buffer": 0,
      "byteOffset": 40392,
      "byteLength": 72,
      "target": 34963
    },
    {
      "buffer": 0,
      "byteOffset": 40464,
      "byteLength": 288,
      "target": 34962
    },
    {
      "buffer": 0,
      "byteOffset": 40752,
      "byteLength": 72,
      "target": 34963
    },
    {
      "buffer": 0,
      "byteOffset": 40824,
      "byteLength": 288,
      "target": 34962
    },
    {
      "buffer": 0,
      "byteOffset": 41112,
      "byteLength": 72,
      "target": 34963
    },
    {
      "buffer": 0,
      "byteOffset": 41184,
      "byteLength": 288,
      "target": 34962
    },
    {
      "buffer": 0,
      "byteOffset": 41472,
      "byteLength": 72,
      "target": 34963
    },
    {
      "buffer": 0,
      "byteOffset": 41544,
      "byteLength": 288,
      "target": 34962
    },
    {
      "buffer": 0,
      "byteOffset": 41832,
      "byteLength": 72,
      "target": 34963
    },
    {
      "buffer": 0,
      "byteOffset": 41904,
      "byteLength": 288,
      "target": 34962
    },
    {
      "buffer": 0,
      "byteOffset": 42192,
      "byteLength": 72,
      "target": 34963
    },
    {
      "buffer": 0,
      "byteOffset": 42264,
      "byteLength": 288,
      "target": 34962
    },
    {
      "buffer": 0,
      "byteOffset": 42552,
      "byteLength": 72,
      "target": 34963
    },
    {
      "buffer": 0,
      "byteOffset": 42624,
      "byteLength": 288,
      "target": 34962
    },
    {
      "buffer": 0,
      "byteOffset": 42912,
      "byteLength": 72,
      "target": 34963
    },
    {
      "buffer": 0,
      "byteOffset": 42984,
      "byteLength": 288,
      "target": 34962
    },
    {
      "buffer": 0,
      "byteOffset": 43272,
      "byteLength": 72,
      "target": 34963
    }
  ],
  "accessors": [
    {
      "bufferView": 0,
      "componentType": 5126,
      "count": 24,
      "type": "VEC3",
      "max": [
        2.200000047683716,
        1.774999976158142,
        0.824999988079071
      ],
      "min": [
        -2.200000047683716,
        0.125,
        -0.824999988079071
      ]
    },
    {
      "bufferView": 1,
      "componentType": 5123,
      "count": 36,
      "type": "SCALAR"
    },
    {
      "bufferView": 2,
      "componentType": 5126,
      "count": 24,
      "type": "VEC3",
      "max": [
        2.0999999046325684,
        2.0399999618530273,
        0.7749999761581421
      ],
      "min": [
        -2.0999999046325684,
        1.7599999904632568,
        -0.7749999761581421
      ]
    },
    {
      "bufferView": 3,
      "componentType": 5123,
      "count": 36,
      "type": "SCALAR"
    },
    {
      "bufferView": 4,
      "componentType": 5126,
      "count": 24,
      "type": "VEC3",
      "max": [
        1.899999976158142,
        1.625,
        0.8100000023841858
      ],
      "min": [
        -1.899999976158142,
        1.0750000476837158,
        -0.8100000023841858
      ]
    },
    {
      "bufferView": 5,
      "componentType": 5123,
      "count": 36,
      "type": "SCALAR"
    },
    {
      "bufferView": 6,
      "componentType": 5126,
      "count": 24,
      "type": "VEC3",
      "max": [
        0.03999999910593033,
        1.625,
        0.8700000047683716
      ],
      "min": [
        -0.03999999910593033,
        1.0750000476837158,
        0.8100000023841858
      ]
    },
    {
      "bufferView": 7,
      "componentType": 5123,
      "count": 36,
      "type": "SCALAR"
    },
    {
      "bufferView": 8,
      "componentType": 5126,
      "count": 24,
      "type": "VEC3",
      "max": [
        -1.159999966621399,
        1.625,
        0.8700000047683716
      ],
      "min": [
        -1.2400000095367432,
        1.0750000476837158,
        0.8100000023841858
      ]
    },
    {
      "bufferView": 9,
      "componentType": 5123,
      "count": 36,
      "type": "SCALAR"
    },
    {
      "bufferView": 10,
      "componentType": 5126,
      "count": 24,
      "type": "VEC3",
      "max": [
        1.2400000095367432,
        1.625,
        0.8700000047683716
      ],
      "min": [
        1.159999966621399,
        1.0750000476837158,
        0.8100000023841858
      ]
    },
    {
      "bufferView": 11,
      "componentType": 5123,
      "count": 36,
      "type": "SCALAR"
    },
    {
      "bufferView": 12,
      "componentType": 5126,
      "count": 24,
      "type": "VEC3",
      "max": [
        -1.9600000381469727,
        1.625,
        0.8700000047683716
      ],
      "min": [
        -2.0399999618530273,
        1.0750000476837158,
        0.8100000023841858
      ]
    },
    {
      "bufferView": 13,
      "componentType": 5123,
      "count": 36,
      "type": "SCALAR"
    },
    {
      "bufferView": 14,
      "componentType": 5126,
      "count": 24,
      "type": "VEC3",
      "max": [
        2.0399999618530273,
        1.625,
        0.8700000047683716
      ],
      "min": [
        1.9600000381469727,
        1.0750000476837158,
        0.8100000023841858
      ]
    },
    {
      "bufferView": 15,
      "componentType": 5123,
      "count": 36,
      "type": "SCALAR"
    },
    {
      "bufferView": 16,
      "componentType": 5126,
      "count": 24,
      "type": "VEC3",
      "max": [
        -0.5699999928474426,
        1.625,
        0.8700000047683716
      ],
      "min": [
        -0.6299999952316284,
        1.0750000476837158,
        0.8100000023841858
      ]
    },
    {
      "bufferView": 17,
      "componentType": 5123,
      "count": 36,
      "type": "SCALAR"
    },
    {
      "bufferView": 18,
      "componentType": 5126,
      "count": 24,
      "type": "VEC3",
      "max": [
        0.6299999952316284,
        1.625,
        0.8700000047683716
      ],
      "min": [
        0.5699999928474426,
        1.0750000476837158,
        0.8100000023841858
      ]
    },
    {
      "bufferView": 19,
      "componentType": 5123,
      "count": 36,
      "type": "SCALAR"
    },
    {
      "bufferView": 20,
      "componentType": 5126,
      "count": 24,
      "type": "VEC3",
      "max": [
        -1.159999966621399,
        1.625,
        -0.8100000023841858
      ],
      "min": [
        -1.2400000095367432,
        1.0750000476837158,
        -0.8700000047683716
      ]
    },
    {
      "bufferView": 21,
      "componentType": 5123,
      "count": 36,
      "type": "SCALAR"
    },
    {
      "bufferView": 22,
      "componentType": 5126,
      "count": 24,
      "type": "VEC3",
      "max": [
        1.2400000095367432,
        1.625,
        -0.8100000023841858
      ],
      "min": [
        1.159999966621399,
        1.0750000476837158,
        -0.8700000047683716
      ]
    },
    {
      "bufferView": 23,
      "componentType": 5123,
      "count": 36,
      "type": "SCALAR"
    },
    {
      "bufferView": 24,
      "componentType": 5126,
      "count": 24,
      "type": "VEC3",
      "max": [
        0.03999999910593033,
        1.625,
        -0.8100000023841858
      ],
      "min": [
        -0.03999999910593033,
        1.0750000476837158,
        -0.8700000047683716
      ]
    },
    {
      "bufferView": 25,
      "componentType": 5123,
      "count": 36,
      "type": "SCALAR"
    },
    {
      "bufferView": 26,
      "componentType": 5126,
      "count": 24,
      "type": "VEC3",
      "max": [
        1.899999976158142,
        1.0800000429153442,
        0.8899999856948853
      ],
      "min": [
        -1.899999976158142,
        1.0199999809265137,
        0.8299999833106995
      ]
    },
    {
      "bufferView": 27,
      "componentType": 5123,
      "count": 36,
      "type": "SCALAR"
    },
    {
      "bufferView": 28,
      "componentType": 5126,
      "count": 24,
      "type": "VEC3",
      "max": [
        1.899999976158142,
        1.0800000429153442,
        -0.8299999833106995
      ],
      "min": [
        -1.899999976158142,
        1.0199999809265137,
        -0.8899999856948853
      ]
    },
    {
      "bufferView": 29,
      "componentType": 5123,
      "count": 36,
      "type": "SCALAR"
    },
    {
      "bufferView": 30,
      "componentType": 5126,
      "count": 24,
      "type": "VEC3",
      "max": [
        1.899999976158142,
        1.6799999475479126,
        0.8899999856948853
      ],
      "min": [
        -1.899999976158142,
        1.6200000047683716,
        0.8299999833106995
      ]
    },
    {
      "bufferView": 31,
      "componentType": 5123,
      "count": 36,
      "type": "SCALAR"
    },
    {
      "bufferView": 32,
      "componentType": 5126,
      "count": 24,
      "type": "VEC3",
      "max": [
        1.899999976158142,
        1.6799999475479126,
        -0.8299999833106995
      ],
      "min": [
        -1.899999976158142,
        1.6200000047683716,
        -0.8899999856948853
      ]
    },
    {
      "bufferView": 33,
      "componentType": 5123,
      "count": 36,
      "type": "SCALAR"
    },
    {
      "bufferView": 34,
      "componentType": 5126,
      "count": 24,
      "type": "VEC3",
      "max": [
        0.7749999761581421,
        1.625,
        0.8999999761581421
      ],
      "min": [
        -0.2750000059604645,
        0.2750000059604645,
        0.800000011920929
      ]
    },
    {
      "bufferView": 35,
      "componentType": 5123,
      "count": 36,
      "type": "SCALAR"
    },
    {
      "bufferView": 36,
      "componentType": 5126,
      "count": 24,
      "type": "VEC3",
      "max": [
        0.824999988079071,
        1.6749999523162842,
        0.949999988079071
      ],
      "min": [
        -0.32499998807907104,
        0.22499999403953552,
        0.8899999856948853
      ]
    },
    {
      "bufferView": 37,
      "componentType": 5123,
      "count": 36,
      "type": "SCALAR"
    },
    {
      "bufferView": 38,
      "componentType": 5126,
      "count": 24,
      "type": "VEC3",
      "max": [
        0.6000000238418579,
        1.524999976158142,
        0.925000011920929
      ],
      "min": [
        -0.10000000149011612,
        0.9750000238418579,
        0.875
      ]
    },
    {
      "bufferView": 39,
      "componentType": 5123,
      "count": 36,
      "type": "SCALAR"
    },
    {
      "bufferView": 40,
      "componentType": 5126,
      "count": 24,
      "type": "VEC3",
      "max": [
        0.5899999737739563,
        1.100000023841858,
        0.9800000190734863
      ],
      "min": [
        0.5099999904632568,
        0.8999999761581421,
        0.9200000166893005
      ]
    },
    {
      "bufferView": 41,
      "componentType": 5123,
      "count": 36,
      "type": "SCALAR"
    },
    {
      "bufferView": 42,
      "componentType": 5126,
      "count": 24,
      "type": "VEC3",
      "max": [
        2.375,
        0.675000011920929,
        0.75
      ],
      "min": [
        2.125,
        0.22499999403953552,
        -0.75
      ]
    },
    {
      "bufferView": 43,
      "componentType": 5123,
      "count": 36,
      "type": "SCALAR"
    },
    {
      "bufferView": 44,
      "componentType": 5126,
      "count": 24,
      "type": "VEC3",
      "max": [
        -2.125,
        0.675000011920929,
        0.75
      ],
      "min": [
        -2.375,
        0.22499999403953552,
        -0.75
      ]
    },
    {
      "bufferView": 45,
      "componentType": 5123,
      "count": 36,
      "type": "SCALAR"
    },
    {
      "bufferView": 46,
      "componentType": 5126,
      "count": 140,
      "type": "VEC3",
      "max": [
        1.7300000190734863,
        0.5729798078536987,
        0.8400000929832458
      ],
      "min": [
        1.1699999570846558,
        0.027020184323191643,
        0.5999999642372131
      ]
    },
    {
      "bufferView": 47,
      "componentType": 5123,
      "count": 168,
      "type": "SCALAR"
    },
    {
      "bufferView": 48,
      "componentType": 5126,
      "count": 140,
      "type": "VEC3",
      "max": [
        1.7300000190734863,
        0.5729798078536987,
        -0.5999999642372131
      ],
      "min": [
        1.1699999570846558,
        0.027020184323191643,
        -0.8400000929832458
      ]
    },
    {
      "bufferView": 49,
      "componentType": 5123,
      "count": 168,
      "type": "SCALAR"
    },
    {
      "bufferView": 50,
      "componentType": 5126,
      "count": 140,
      "type": "VEC3",
      "max": [
        -1.1699999570846558,
        0.5729798078536987,
        0.8400000929832458
      ],
      "min": [
        -1.7300000190734863,
        0.027020184323191643,
        0.5999999642372131
      ]
    },
    {
      "bufferView": 51,
      "componentType": 5123,
      "count": 168,
      "type": "SCALAR"
    },
    {
      "bufferView": 52,
      "componentType": 5126,
      "count": 140,
      "type": "VEC3",
      "max": [
        -1.1699999570846558,
        0.5729798078536987,
        -0.5999999642372131
      ],
      "min": [
        -1.7300000190734863,
        0.027020184323191643,
        -0.8400000929832458
      ]
    },
    {
      "bufferView": 53,
      "componentType": 5123,
      "count": 168,
      "type": "SCALAR"
    },
    {
      "bufferView": 54,
      "componentType": 5126,
      "count": 24,
      "type": "VEC3",
      "max": [
        1.7999999523162842,
        0.7250000238418579,
        0.8399999737739563
      ],
      "min": [
        1.100000023841858,
        0.375,
        0.7200000286102295
      ]
    },
    {
      "bufferView": 55,
      "componentType": 5123,
      "count": 36,
      "type": "SCALAR"
    },
    {
      "bufferView": 56,
      "componentType": 5126,
      "count": 24,
      "type": "VEC3",
      "max": [
        1.7999999523162842,
        0.7250000238418579,
        -0.7200000286102295
      ],
      "min": [
        1.100000023841858,
        0.375,
        -0.8399999737739563
      ]
    },
    {
      "bufferView": 57,
      "componentType": 5123,
      "count": 36,
      "type": "SCALAR"
    },
    {
      "bufferView": 58,
      "componentType": 5126,
      "count": 24,
      "type": "VEC3",
      "max": [
        -1.100000023841858,
        0.7250000238418579,
        0.8399999737739563
      ],
      "min": [
        -1.7999999523162842,
        0.375,
        0.7200000286102295
      ]
    },
    {
      "bufferView": 59,
      "componentType": 5123,
      "count": 36,
      "type": "SCALAR"
    },
    {
      "bufferView": 60,
      "componentType": 5126,
      "count": 24,
      "type": "VEC3",
      "max": [
        -1.100000023841858,
        0.7250000238418579,
        -0.7200000286102295
      ],
      "min": [
        -1.7999999523162842,
        0.375,
        -0.8399999737739563
      ]
    },
    {
      "bufferView": 61,
      "componentType": 5123,
      "count": 36,
      "type": "SCALAR"
    },
    {
      "bufferView": 62,
      "componentType": 5126,
      "count": 24,
      "type": "VEC3",
      "max": [
        0.14000000059604645,
        2.25,
        0.14000000059604645
      ],
      "min": [
        -0.14000000059604645,
        2.049999952316284,
        -0.14000000059604645
      ]
    },
    {
      "bufferView": 63,
      "componentType": 5123,
      "count": 36,
      "type": "SCALAR"
    },
    {
      "bufferView": 64,
      "componentType": 5126,
      "count": 24,
      "type": "VEC3",
      "max": [
        2.1600000858306885,
        1.7000000476837158,
        1.0
      ],
      "min": [
        2.0399999618530273,
        1.399999976158142,
        0.800000011920929
      ]
    },
    {
      "bufferView": 65,
      "componentType": 5123,
      "count": 36,
      "type": "SCALAR"
    },
    {
      "bufferView": 66,
      "componentType": 5126,
      "count": 24,
      "type": "VEC3",
      "max": [
        2.1600000858306885,
        1.7000000476837158,
        -0.800000011920929
      ],
      "min": [
        2.0399999618530273,
        1.399999976158142,
        -1.0
      ]
    },
    {
      "bufferView": 67,
      "componentType": 5123,
      "count": 36,
      "type": "SCALAR"
    },
    {
      "bufferView": 68,
      "componentType": 5126,
      "count": 24,
      "type": "VEC3",
      "max": [
        0.699999988079071,
        0.42500001192092896,
        1.125
      ],
      "min": [
        -0.20000000298023224,
        0.2750000059604645,
        0.7749999761581421
      ]
    },
    {
      "bufferView": 69,
      "componentType": 5123,
      "count": 36,
      "type": "SCALAR"
    },
    {
      "bufferView": 70,
      "componentType": 5126,
      "count": 24,
      "type": "VEC3",
      "max": [
        2.359999895095825,
        0.7900000214576721,
        0.6499999761581421
      ],
      "min": [
        2.240000009536743,
        0.6100000143051147,
        0.44999998807907104
      ]
    },
    {
      "bufferView": 71,
      "componentType": 5123,
      "count": 36,
      "type": "SCALAR"
    },
    {
      "bufferView": 72,
      "componentType": 5126,
      "count": 24,
      "type": "VEC3",
      "max": [
        2.359999895095825,
        0.7900000214576721,
        -0.44999998807907104
      ],
      "min": [
        2.240000009536743,
        0.6100000143051147,
        -0.6499999761581421
      ]
    },
    {
      "bufferView": 73,
      "componentType": 5123,
      "count": 36,
      "type": "SCALAR"
    },
    {
      "bufferView": 74,
      "componentType": 5126,
      "count": 24,
      "type": "VEC3",
      "max": [
        -2.25,
        0.7799999713897705,
        0.6299999952316284
      ],
      "min": [
        -2.3499999046325684,
        0.6200000047683716,
        0.4699999988079071
      ]
    },
    {
      "bufferView": 75,
      "componentType": 5123,
      "count": 36,
      "type": "SCALAR"
    },
    {
      "bufferView": 76,
      "componentType": 5126,
      "count": 24,
      "type": "VEC3",
      "max": [
        -2.25,
        0.7799999713897705,
        -0.4699999988079071
      ],
      "min": [
        -2.3499999046325684,
        0.6200000047683716,
        -0.6299999952316284
      ]
    },
    {
      "bufferView": 77,
      "componentType": 5123,
      "count": 36,
      "type": "SCALAR"
    },
    {
      "bufferView": 78,
      "componentType": 5126,
      "count": 24,
      "type": "VEC3",
      "max": [
        2.0,
        0.8100000023841858,
        0.8500000238418579
      ],
      "min": [
        -2.0,
        0.6899999976158142,
        0.7900000214576721
      ]
    },
    {
      "bufferView": 79,
      "componentType": 5123,
      "count": 36,
      "type": "SCALAR"
    },
    {
      "bufferView": 80,
      "componentType": 5126,
      "count": 24,
      "type": "VEC3",
      "max": [
        2.0,
        0.8100000023841858,
        -0.7900000214576721
      ],
      "min": [
        -2.0,
        0.6899999976158142,
        -0.8500000238418579
      ]
    },
    {
      "bufferView": 81,
      "componentType": 5123,
      "count": 36,
      "type": "SCALAR"
    },
    {
      "bufferView": 82,
      "componentType": 5126,
      "count": 24,
      "type": "VEC3",
      "max": [
        2.0,
        1.7899999618530273,
        0.8600000143051147
      ],
      "min": [
        -2.0,
        1.7100000381469727,
        0.8199999928474426
      ]
    },
    {
      "bufferView": 83,
      "componentType": 5123,
      "count": 36,
      "type": "SCALAR"
    },
    {
      "bufferView": 84,
      "componentType": 5126,
      "count": 24,
      "type": "VEC3",
      "max": [
        2.190000057220459,
        1.5800000429153442,
        0.44999998807907104
      ],
      "min": [
        2.109999895095825,
        1.5199999809265137,
        -0.44999998807907104
      ]
    },
    {
      "bufferView": 85,
      "componentType": 5123,
      "count": 36,
      "type": "SCALAR"
    },
    {
      "bufferView": 86,
      "componentType": 5126,
      "count": 24,
      "type": "VEC3",
      "max": [
        2.180000066757202,
        1.475000023841858,
        0.550000011920929
      ],
      "min": [
        2.119999885559082,
        1.4249999523162842,
        -0.15000000596046448
      ]
    },
    {
      "bufferView": 87,
      "componentType": 5123,
      "count": 36,
      "type": "SCALAR"
    },
    {
      "bufferView": 88,
      "componentType": 5126,
      "count": 24,
      "type": "VEC3",
      "max": [
        1.600000023841858,
        2.190000057220459,
        0.44999998807907104
      ],
      "min": [
        -1.600000023841858,
        2.109999895095825,
        -0.44999998807907104
      ]
    },
    {
      "bufferView": 89,
      "componentType": 5123,
      "count": 36,
      "type": "SCALAR"
    },
    {
      "bufferView": 90,
      "componentType": 5126,
      "count": 24,
      "type": "VEC3",
      "max": [
        -0.574999988079071,
        2.180000066757202,
        0.22499999403953552
      ],
      "min": [
        -1.024999976158142,
        2.059999942779541,
        -0.22499999403953552
      ]
    },
    {
      "bufferView": 91,
      "componentType": 5123,
      "count": 36,
      "type": "SCALAR"
    },
    {
      "bufferView": 92,
      "componentType": 5126,
      "count": 24,
      "type": "VEC3",
      "max": [
        2.390000104904175,
        1.024999976158142,
        0.44999998807907104
      ],
      "min": [
        2.309999942779541,
        0.675000011920929,
        -0.44999998807907104
      ]
    },
    {
      "bufferView": 93,
      "componentType": 5123,
      "count": 36,
      "type": "SCALAR"
    },
    {
      "bufferView": 94,
      "componentType": 5126,
      "count": 24,
      "type": "VEC3",
      "max": [
        2.4200000762939453,
        0.5799999833106995,
        0.20000000298023224
      ],
      "min": [
        2.380000114440918,
        0.41999998688697815,
        -0.20000000298023224
      ]
    },
    {
      "bufferView": 95,
      "componentType": 5123,
      "count": 36,
      "type": "SCALAR"
    },
    {
      "bufferView": 96,
      "componentType": 5126,
      "count": 24,
      "type": "VEC3",
      "max": [
        -1.25,
        0.42500001192092896,
        0.8700000047683716
      ],
      "min": [
        -1.649999976158142,
        0.07500000298023224,
        0.8299999833106995
      ]
    },
    {
      "bufferView": 97,
      "componentType": 5123,
      "count": 36,
      "type": "SCALAR"
    },
    {
      "bufferView": 98,
      "componentType": 5126,
      "count": 24,
      "type": "VEC3",
      "max": [
        -1.25,
        0.42500001192092896,
        -0.8299999833106995
      ],
      "min": [
        -1.649999976158142,
        0.07500000298023224,
        -0.8700000047683716
      ]
    },
    {
      "bufferView": 99,
      "componentType": 5123,
      "count": 36,
      "type": "SCALAR"
    },
    {
      "bufferView": 100,
      "componentType": 5126,
      "count": 24,
      "type": "VEC3",
      "max": [
        2.190000057220459,
        1.9600000381469727,
        0.44999998807907104
      ],
      "min": [
        2.109999895095825,
        1.7400000095367432,
        -0.44999998807907104
      ]
    },
    {
      "bufferView": 101,
      "componentType": 5123,
      "count": 36,
      "type": "SCALAR"
    },
    {
      "bufferView": 102,
      "componentType": 5126,
      "count": 24,
      "type": "VEC3",
      "max": [
        2.180000066757202,
        2.009999990463257,
        0.4749999940395355
      ],
      "min": [
        2.059999942779541,
        1.9500000476837158,
        -0.4749999940395355
      ]
    },
    {
      "bufferView": 103,
      "componentType": 5123,
      "count": 36,
      "type": "SCALAR"
    },
    {
      "bufferView": 104,
      "componentType": 5126,
      "count": 24,
      "type": "VEC3",
      "max": [
        2.2200000286102295,
        1.9199999570846558,
        0.2750000059604645
      ],
      "min": [
        2.180000066757202,
        1.7799999713897705,
        -0.2750000059604645
      ]
    },
    {
      "bufferView": 105,
      "componentType": 5123,
      "count": 36,
      "type": "SCALAR"
    },
    {
      "bufferView": 106,
      "componentType": 5126,
      "count": 24,
      "type": "VEC3",
      "max": [
        -2.194999933242798,
        1.625,
        0.6000000238418579
      ],
      "min": [
        -2.244999885559082,
        1.0750000476837158,
        -0.6000000238418579
      ]
    },
    {
      "bufferView": 107,
      "componentType": 5123,
      "count": 36,
      "type": "SCALAR"
    },
    {
      "bufferView": 108,
      "componentType": 5126,
      "count": 24,
      "type": "VEC3",
      "max": [
        0.10000000149011612,
        1.0750000476837158,
        0.574999988079071
      ],
      "min": [
        -1.7000000476837158,
        0.625,
        0.125
      ]
    },
    {
      "bufferView": 109,
      "componentType": 5123,
      "count": 36,
      "type": "SCALAR"
    },
    {
      "bufferView": 110,
      "componentType": 5126,
      "count": 24,
      "type": "VEC3",
      "max": [
        0.10000000149011612,
        1.0750000476837158,
        -0.125
      ],
      "min": [
        -1.7000000476837158,
        0.625,
        -0.574999988079071
      ]
    },
    {
      "bufferView": 111,
      "componentType": 5123,
      "count": 36,
      "type": "SCALAR"
    },
    {
      "bufferView": 112,
      "componentType": 5126,
      "count": 24,
      "type": "VEC3",
      "max": [
        1.2000000476837158,
        1.0750000476837158,
        0.574999988079071
      ],
      "min": [
        0.0,
        0.625,
        0.125
      ]
    },
    {
      "bufferView": 113,
      "componentType": 5123,
      "count": 36,
      "type": "SCALAR"
    },
    {
      "bufferView": 114,
      "componentType": 5126,
      "count": 24,
      "type": "VEC3",
      "max": [
        1.2000000476837158,
        1.0750000476837158,
        -0.125
      ],
      "min": [
        0.0,
        0.625,
        -0.574999988079071
      ]
    },
    {
      "bufferView": 115,
      "componentType": 5123,
      "count": 36,
      "type": "SCALAR"
    },
    {
      "bufferView": 116,
      "componentType": 5126,
      "count": 24,
      "type": "VEC3",
      "max": [
        0.10000000149011612,
        1.3250000476837158,
        0.5400000214576721
      ],
      "min": [
        -1.7000000476837158,
        0.9750000238418579,
        0.46000000834465027
      ]
    },
    {
      "bufferView": 117,
      "componentType": 5123,
      "count": 36,
      "type": "SCALAR"
    },
    {
      "bufferView": 118,
      "componentType": 5126,
      "count": 24,
      "type": "VEC3",
      "max": [
        0.10000000149011612,
        1.3250000476837158,
        -0.46000000834465027
      ],
      "min": [
        -1.7000000476837158,
        0.9750000238418579,
        -0.5400000214576721
      ]
    },
    {
      "bufferView": 119,
      "componentType": 5123,
      "count": 36,
      "type": "SCALAR"
    },
    {
      "bufferView": 120,
      "componentType": 5126,
      "count": 24,
      "type": "VEC3",
      "max": [
        2.2049999237060547,
        1.7000000476837158,
        0.675000011920929
      ],
      "min": [
        2.1549999713897705,
        1.0,
        -0.675000011920929
      ]
    },
    {
      "bufferView": 121,
      "componentType": 5123,
      "count": 36,
      "type": "SCALAR"
    },
    {
      "bufferView": 122,
      "componentType": 5126,
      "count": 24,
      "type": "VEC3",
      "max": [
        2.0,
        0.7250000238418579,
        0.8650000095367432
      ],
      "min": [
        -2.0,
        0.375,
        0.8149999976158142
      ]
    },
    {
      "bufferView": 123,
      "componentType": 5123,
      "count": 36,
      "type": "SCALAR"
    },
    {
      "bufferView": 124,
      "componentType": 5126,
      "count": 24,
      "type": "VEC3",
      "max": [
        2.0,
        0.7250000238418579,
        -0.8149999976158142
      ],
      "min": [
        -2.0,
        0.375,
        -0.8650000095367432
      ]
    },
    {
      "bufferView": 125,
      "componentType": 5123,
      "count": 36,
      "type": "SCALAR"
    },
    {
      "bufferView": 126,
      "componentType": 5126,
      "count": 100,
      "type": "VEC3",
      "max": [
        1.590000033378601,
        0.4331479072570801,
        0.7900000214576721
      ],
      "min": [
        1.309999942779541,
        0.16685208678245544,
        0.6499999761581421
      ]
    },
    {
      "bufferView": 127,
      "componentType": 5123,
      "count": 120,
      "type": "SCALAR"
    },
    {
      "bufferView": 128,
      "componentType": 5126,
      "count": 100,
      "type": "VEC3",
      "max": [
        1.590000033378601,
        0.4331479072570801,
        -0.6499999761581421
      ],
      "min": [
        1.309999942779541,
        0.16685208678245544,
        -0.7900000214576721
      ]
    },
    {
      "bufferView": 129,
      "componentType": 5123,
      "count": 120,
      "type": "SCALAR"
    },
    {
      "bufferView": 130,
      "componentType": 5126,
      "count": 100,
      "type": "VEC3",
      "max": [
        -1.309999942779541,
        0.4331479072570801,
        0.7900000214576721
      ],
      "min": [
        -1.590000033378601,
        0.16685208678245544,
        0.6499999761581421
      ]
    },
    {
      "bufferView": 131,
      "componentType": 5123,
      "count": 120,
      "type": "SCALAR"
    },
    {
      "bufferView": 132,
      "componentType": 5126,
      "count": 100,
      "type": "VEC3",
      "max": [
        -1.309999942779541,
        0.4331479072570801,
        -0.6499999761581421
      ],
      "min": [
        -1.590000033378601,
        0.16685208678245544,
        -0.7900000214576721
      ]
    },
    {
      "bufferView": 133,
      "componentType": 5123,
      "count": 120,
      "type": "SCALAR"
    },
    {
      "bufferView": 134,
      "componentType": 5126,
      "count": 24,
      "type": "VEC3",
      "max": [
        -0.1599999964237213,
        1.5099999904632568,
        0.9700000286102295
      ],
      "min": [
        -0.23999999463558197,
        1.3899999856948853,
        0.8899999856948853
      ]
    },
    {
      "bufferView": 135,
      "componentType": 5123,
      "count": 36,
      "type": "SCALAR"
    },
    {
      "bufferView": 136,
      "componentType": 5126,
      "count": 24,
      "type": "VEC3",
      "max": [
        -0.1599999964237213,
        0.6100000143051147,
        0.9700000286102295
      ],
      "min": [
        -0.23999999463558197,
        0.49000000953674316,
        0.8899999856948853
      ]
    },
    {
      "bufferView": 137,
      "componentType": 5123,
      "count": 36,
      "type": "SCALAR"
    },
    {
      "bufferView": 138,
      "componentType": 5126,
      "count": 24,
      "type": "VEC3",
      "max": [
        -1.975000023841858,
        0.4000000059604645,
        -0.5
      ],
      "min": [
        -2.325000047683716,
        0.30000001192092896,
        -0.6000000238418579
      ]
    },
    {
      "bufferView": 139,
      "componentType": 5123,
      "count": 36,
      "type": "SCALAR"
    },
    {
      "bufferView": 140,
      "componentType": 5126,
      "count": 24,
      "type": "VEC3",
      "max": [
        -2.0899999141693115,
        1.0099999904632568,
        0.7599999904632568
      ],
      "min": [
        -2.2100000381469727,
        0.8899999856948853,
        0.6399999856948853
      ]
    },
    {
      "bufferView": 141,
      "componentType": 5123,
      "count": 36,
      "type": "SCALAR"
    },
    {
      "bufferView": 142,
      "componentType": 5126,
      "count": 24,
      "type": "VEC3",
      "max": [
        1.7999999523162842,
        0.3400000035762787,
        0.8100000023841858
      ],
      "min": [
        -1.7999999523162842,
        0.2199999988079071,
        0.75
      ]
    },
    {
      "bufferView": 143,
      "componentType": 5123,
      "count": 36,
      "type": "SCALAR"
    },
    {
      "bufferView": 144,
      "componentType": 5126,
      "count": 24,
      "type": "VEC3",
      "max": [
        1.7999999523162842,
        0.3400000035762787,
        -0.75
      ],
      "min": [
        -1.7999999523162842,
        0.2199999988079071,
        -0.8100000023841858
      ]
    },
    {
      "bufferView": 145,
      "componentType": 5123,
      "count": 36,
      "type": "SCALAR"
    },
    {
      "bufferView": 146,
      "componentType": 5126,
      "count": 24,
      "type": "VEC3",
      "max": [
        -1.5499999523162842,
        1.590000033378601,
        0.875
      ],
      "min": [
        -2.049999952316284,
        1.1100000143051147,
        0.8349999785423279
      ]
    },
    {
      "bufferView": 147,
      "componentType": 5123,
      "count": 36,
      "type": "SCALAR"
    },
    {
      "bufferView": 148,
      "componentType": 5126,
      "count": 24,
      "type": "VEC3",
      "max": [
        -1.5499999523162842,
        1.590000033378601,
        -0.8349999785423279
      ],
      "min": [
        -2.049999952316284,
        1.1100000143051147,
        -0.875
      ]
    },
    {
      "bufferView": 149,
      "componentType": 5123,
      "count": 36,
      "type": "SCALAR"
    },
    {
      "bufferView": 150,
      "componentType": 5126,
      "count": 24,
      "type": "VEC3",
      "max": [
        -1.25,
        1.590000033378601,
        0.875
      ],
      "min": [
        -1.75,
        1.1100000143051147,
        0.8349999785423279
      ]
    },
    {
      "bufferView": 151,
      "componentType": 5123,
      "count": 36,
      "type": "SCALAR"
    },
    {
      "bufferView": 152,
      "componentType": 5126,
      "count": 24,
      "type": "VEC3",
      "max": [
        -1.25,
        1.590000033378601,
        -0.8349999785423279
      ],
      "min": [
        -1.75,
        1.1100000143051147,
        -0.875
      ]
    },
    {
      "bufferView": 153,
      "componentType": 5123,
      "count": 36,
      "type": "SCALAR"
    },
    {
      "bufferView": 154,
      "componentType": 5126,
      "count": 24,
      "type": "VEC3",
      "max": [
        -0.6499999761581421,
        1.590000033378601,
        0.875
      ],
      "min": [
        -1.149999976158142,
        1.1100000143051147,
        0.8349999785423279
      ]
    },
    {
      "bufferView": 155,
      "componentType": 5123,
      "count": 36,
      "type": "SCALAR"
    },
    {
      "bufferView": 156,
      "componentType": 5126,
      "count": 24,
      "type": "VEC3",
      "max": [
        -0.6499999761581421,
        1.590000033378601,
        -0.8349999785423279
      ],
      "min": [
        -1.149999976158142,
        1.1100000143051147,
        -0.875
      ]
    },
    {
      "bufferView": 157,
      "componentType": 5123,
      "count": 36,
      "type": "SCALAR"
    },
    {
      "bufferView": 158,
      "componentType": 5126,
      "count": 24,
      "type": "VEC3",
      "max": [
        -0.05000000074505806,
        1.590000033378601,
        0.875
      ],
      "min": [
        -0.550000011920929,
        1.1100000143051147,
        0.8349999785423279
      ]
    },
    {
      "bufferView": 159,
      "componentType": 5123,
      "count": 36,
      "type": "SCALAR"
    },
    {
      "bufferView": 160,
      "componentType": 5126,
      "count": 24,
      "type": "VEC3",
      "max": [
        -0.05000000074505806,
        1.590000033378601,
        -0.8349999785423279
      ],
      "min": [
        -0.550000011920929,
        1.1100000143051147,
        -0.875
      ]
    },
    {
      "bufferView": 161,
      "componentType": 5123,
      "count": 36,
      "type": "SCALAR"
    },
    {
      "bufferView": 162,
      "componentType": 5126,
      "count": 24,
      "type": "VEC3",
      "max": [
        1.149999976158142,
        1.590000033378601,
        0.875
      ],
      "min": [
        0.6499999761581421,
        1.1100000143051147,
        0.8349999785423279
      ]
    },
    {
      "bufferView": 163,
      "componentType": 5123,
      "count": 36,
      "type": "SCALAR"
    },
    {
      "bufferView": 164,
      "componentType": 5126,
      "count": 24,
      "type": "VEC3",
      "max": [
        1.149999976158142,
        1.590000033378601,
        -0.8349999785423279
      ],
      "min": [
        0.6499999761581421,
        1.1100000143051147,
        -0.875
      ]
    },
    {
      "bufferView": 165,
      "componentType": 5123,
      "count": 36,
      "type": "SCALAR"
    },
    {
      "bufferView": 166,
      "componentType": 5126,
      "count": 24,
      "type": "VEC3",
      "max": [
        1.75,
        1.590000033378601,
        0.875
      ],
      "min": [
        1.25,
        1.1100000143051147,
        0.8349999785423279
      ]
    },
    {
      "bufferView": 167,
      "componentType": 5123,
      "count": 36,
      "type": "SCALAR"
    },
    {
      "bufferView": 168,
      "componentType": 5126,
      "count": 24,
      "type": "VEC3",
      "max": [
        1.75,
        1.590000033378601,
        -0.8349999785423279
      ],
      "min": [
        1.25,
        1.1100000143051147,
        -0.875
      ]
    },
    {
      "bufferView": 169,
      "componentType": 5123,
      "count": 36,
      "type": "SCALAR"
    },
    {
      "bufferView": 170,
      "componentType": 5126,
      "count": 24,
      "type": "VEC3",
      "max": [
        2.049999952316284,
        1.590000033378601,
        0.875
      ],
      "min": [
        1.5499999523162842,
        1.1100000143051147,
        0.8349999785423279
      ]
    },
    {
      "bufferView": 171,
      "componentType": 5123,
      "count": 36,
      "type": "SCALAR"
    },
    {
      "bufferView": 172,
      "componentType": 5126,
      "count": 24,
      "type": "VEC3",
      "max": [
        2.049999952316284,
        1.590000033378601,
        -0.8349999785423279
      ],
      "min": [
        1.5499999523162842,
        1.1100000143051147,
        -0.875
      ]
    },
    {
      "bufferView": 173,
      "componentType": 5123,
      "count": 36,
      "type": "SCALAR"
    },
    {
      "bufferView": 174,
      "componentType": 5126,
      "count": 24,
      "type": "VEC3",
      "max": [
        2.2200000286102295,
        1.625,
        -0.25
      ],
      "min": [
        2.180000066757202,
        1.0750000476837158,
        -0.6499999761581421
      ]
    },
    {
      "bufferView": 175,
      "componentType": 5123,
      "count": 36,
      "type": "SCALAR"
    },
    {
      "bufferView": 176,
      "componentType": 5126,
      "count": 24,
      "type": "VEC3",
      "max": [
        2.2200000286102295,
        1.625,
        0.20000000298023224
      ],
      "min": [
        2.180000066757202,
        1.0750000476837158,
        -0.20000000298023224
      ]
    },
    {
      "bufferView": 177,
      "componentType": 5123,
      "count": 36,
      "type": "SCALAR"
    },
    {
      "bufferView": 178,
      "componentType": 5126,
      "count": 24,
      "type": "VEC3",
      "max": [
        2.2200000286102295,
        1.625,
        0.6499999761581421
      ],
      "min": [
        2.180000066757202,
        1.0750000476837158,
        0.25
      ]
    },
    {
      "bufferView": 179,
      "componentType": 5123,
      "count": 36,
      "type": "SCALAR"
    }
  ],
  "meshes": [
    {
      "name": "bus_body",
      "primitives": [
        {
          "attributes": {
            "POSITION": 0
          },
          "indices": 1,
          "mode": 4
        }
      ]
    },
    {
      "name": "cabin_roof",
      "primitives": [
        {
          "attributes": {
            "POSITION": 2
          },
          "indices": 3,
          "mode": 4
        }
      ]
    },
    {
      "name": "windows",
      "primitives": [
        {
          "attributes": {
            "POSITION": 4
          },
          "indices": 5,
          "mode": 4
        }
      ]
    },
    {
      "name": "window_mullion",
      "primitives": [
        {
          "attributes": {
            "POSITION": 6
          },
          "indices": 7,
          "mode": 4
        }
      ]
    },
    {
      "name": "window_mullion_2",
      "primitives": [
        {
          "attributes": {
            "POSITION": 8
          },
          "indices": 9,
          "mode": 4
        }
      ]
    },
    {
      "name": "window_mullion_3",
      "primitives": [
        {
          "attributes": {
            "POSITION": 10
          },
          "indices": 11,
          "mode": 4
        }
      ]
    },
    {
      "name": "window_mullion_4",
      "primitives": [
        {
          "attributes": {
            "POSITION": 12
          },
          "indices": 13,
          "mode": 4
        }
      ]
    },
    {
      "name": "window_mullion_5",
      "primitives": [
        {
          "attributes": {
            "POSITION": 14
          },
          "indices": 15,
          "mode": 4
        }
      ]
    },
    {
      "name": "window_mullion_6",
      "primitives": [
        {
          "attributes": {
            "POSITION": 16
          },
          "indices": 17,
          "mode": 4
        }
      ]
    },
    {
      "name": "window_mullion_7",
      "primitives": [
        {
          "attributes": {
            "POSITION": 18
          },
          "indices": 19,
          "mode": 4
        }
      ]
    },
    {
      "name": "window_mullion_8",
      "primitives": [
        {
          "attributes": {
            "POSITION": 20
          },
          "indices": 21,
          "mode": 4
        }
      ]
    },
    {
      "name": "window_mullion_9",
      "primitives": [
        {
          "attributes": {
            "POSITION": 22
          },
          "indices": 23,
          "mode": 4
        }
      ]
    },
    {
      "name": "window_mullion_10",
      "primitives": [
        {
          "attributes": {
            "POSITION": 24
          },
          "indices": 25,
          "mode": 4
        }
      ]
    },
    {
      "name": "window_sill",
      "primitives": [
        {
          "attributes": {
            "POSITION": 26
          },
          "indices": 27,
          "mode": 4
        }
      ]
    },
    {
      "name": "window_sill_b",
      "primitives": [
        {
          "attributes": {
            "POSITION": 28
          },
          "indices": 29,
          "mode": 4
        }
      ]
    },
    {
      "name": "window_header",
      "primitives": [
        {
          "attributes": {
            "POSITION": 30
          },
          "indices": 31,
          "mode": 4
        }
      ]
    },
    {
      "name": "window_header_b",
      "primitives": [
        {
          "attributes": {
            "POSITION": 32
          },
          "indices": 33,
          "mode": 4
        }
      ]
    },
    {
      "name": "door",
      "primitives": [
        {
          "attributes": {
            "POSITION": 34
          },
          "indices": 35,
          "mode": 4
        }
      ]
    },
    {
      "name": "door_frame",
      "primitives": [
        {
          "attributes": {
            "POSITION": 36
          },
          "indices": 37,
          "mode": 4
        }
      ]
    },
    {
      "name": "door_glass",
      "primitives": [
        {
          "attributes": {
            "POSITION": 38
          },
          "indices": 39,
          "mode": 4
        }
      ]
    },
    {
      "name": "door_handle",
      "primitives": [
        {
          "attributes": {
            "POSITION": 40
          },
          "indices": 41,
          "mode": 4
        }
      ]
    },
    {
      "name": "bumper_front",
      "primitives": [
        {
          "attributes": {
            "POSITION": 42
          },
          "indices": 43,
          "mode": 4
        }
      ]
    },
    {
      "name": "bumper_rear",
      "primitives": [
        {
          "attributes": {
            "POSITION": 44
          },
          "indices": 45,
          "mode": 4
        }
      ]
    },
    {
      "name": "wheel_fl",
      "primitives": [
        {
          "attributes": {
            "POSITION": 46
          },
          "indices": 47,
          "mode": 4
        }
      ]
    },
    {
      "name": "wheel_fr",
      "primitives": [
        {
          "attributes": {
            "POSITION": 48
          },
          "indices": 49,
          "mode": 4
        }
      ]
    },
    {
      "name": "wheel_rl",
      "primitives": [
        {
          "attributes": {
            "POSITION": 50
          },
          "indices": 51,
          "mode": 4
        }
      ]
    },
    {
      "name": "wheel_rr",
      "primitives": [
        {
          "attributes": {
            "POSITION": 52
          },
          "indices": 53,
          "mode": 4
        }
      ]
    },
    {
      "name": "wheel_arch_fl",
      "primitives": [
        {
          "attributes": {
            "POSITION": 54
          },
          "indices": 55,
          "mode": 4
        }
      ]
    },
    {
      "name": "wheel_arch_fr",
      "primitives": [
        {
          "attributes": {
            "POSITION": 56
          },
          "indices": 57,
          "mode": 4
        }
      ]
    },
    {
      "name": "wheel_arch_rl",
      "primitives": [
        {
          "attributes": {
            "POSITION": 58
          },
          "indices": 59,
          "mode": 4
        }
      ]
    },
    {
      "name": "wheel_arch_rr",
      "primitives": [
        {
          "attributes": {
            "POSITION": 60
          },
          "indices": 61,
          "mode": 4
        }
      ]
    },
    {
      "name": "beacon",
      "primitives": [
        {
          "attributes": {
            "POSITION": 62
          },
          "indices": 63,
          "mode": 4
        }
      ]
    },
    {
      "name": "mirror_l",
      "primitives": [
        {
          "attributes": {
            "POSITION": 64
          },
          "indices": 65,
          "mode": 4
        }
      ]
    },
    {
      "name": "mirror_r",
      "primitives": [
        {
          "attributes": {
            "POSITION": 66
          },
          "indices": 67,
          "mode": 4
        }
      ]
    },
    {
      "name": "step",
      "primitives": [
        {
          "attributes": {
            "POSITION": 68
          },
          "indices": 69,
          "mode": 4
        }
      ]
    },
    {
      "name": "headlight_l",
      "primitives": [
        {
          "attributes": {
            "POSITION": 70
          },
          "indices": 71,
          "mode": 4
        }
      ]
    },
    {
      "name": "headlight_r",
      "primitives": [
        {
          "attributes": {
            "POSITION": 72
          },
          "indices": 73,
          "mode": 4
        }
      ]
    },
    {
      "name": "taillight_l",
      "primitives": [
        {
          "attributes": {
            "POSITION": 74
          },
          "indices": 75,
          "mode": 4
        }
      ]
    },
    {
      "name": "taillight_r",
      "primitives": [
        {
          "attributes": {
            "POSITION": 76
          },
          "indices": 77,
          "mode": 4
        }
      ]
    },
    {
      "name": "stripe",
      "primitives": [
        {
          "attributes": {
            "POSITION": 78
          },
          "indices": 79,
          "mode": 4
        }
      ]
    },
    {
      "name": "stripe_b",
      "primitives": [
        {
          "attributes": {
            "POSITION": 80
          },
          "indices": 81,
          "mode": 4
        }
      ]
    },
    {
      "name": "stripe_upper",
      "primitives": [
        {
          "attributes": {
            "POSITION": 82
          },
          "indices": 83,
          "mode": 4
        }
      ]
    },
    {
      "name": "wiper",
      "primitives": [
        {
          "attributes": {
            "POSITION": 84
          },
          "indices": 85,
          "mode": 4
        }
      ]
    },
    {
      "name": "wiper_b",
      "primitives": [
        {
          "attributes": {
            "POSITION": 86
          },
          "indices": 87,
          "mode": 4
        }
      ]
    },
    {
      "name": "roof_rack",
      "primitives": [
        {
          "attributes": {
            "POSITION": 88
          },
          "indices": 89,
          "mode": 4
        }
      ]
    },
    {
      "name": "roof_vent",
      "primitives": [
        {
          "attributes": {
            "POSITION": 90
          },
          "indices": 91,
          "mode": 4
        }
      ]
    },
    {
      "name": "grill",
      "primitives": [
        {
          "attributes": {
            "POSITION": 92
          },
          "indices": 93,
          "mode": 4
        }
      ]
    },
    {
      "name": "number_plate",
      "primitives": [
        {
          "attributes": {
            "POSITION": 94
          },
          "indices": 95,
          "mode": 4
        }
      ]
    },
    {
      "name": "mudflap_l",
      "primitives": [
        {
          "attributes": {
            "POSITION": 96
          },
          "indices": 97,
          "mode": 4
        }
      ]
    },
    {
      "name": "mudflap_r",
      "primitives": [
        {
          "attributes": {
            "POSITION": 98
          },
          "indices": 99,
          "mode": 4
        }
      ]
    },
    {
      "name": "destination_board",
      "primitives": [
        {
          "attributes": {
            "POSITION": 100
          },
          "indices": 101,
          "mode": 4
        }
      ]
    },
    {
      "name": "destination_board_hood",
      "primitives": [
        {
          "attributes": {
            "POSITION": 102
          },
          "indices": 103,
          "mode": 4
        }
      ]
    },
    {
      "name": "destination_digit",
      "primitives": [
        {
          "attributes": {
            "POSITION": 104
          },
          "indices": 105,
          "mode": 4
        }
      ]
    },
    {
      "name": "rear_window",
      "primitives": [
        {
          "attributes": {
            "POSITION": 106
          },
          "indices": 107,
          "mode": 4
        }
      ]
    },
    {
      "name": "seat_row_1",
      "primitives": [
        {
          "attributes": {
            "POSITION": 108
          },
          "indices": 109,
          "mode": 4
        }
      ]
    },
    {
      "name": "seat_row_2",
      "primitives": [
        {
          "attributes": {
            "POSITION": 110
          },
          "indices": 111,
          "mode": 4
        }
      ]
    },
    {
      "name": "seat_row_3",
      "primitives": [
        {
          "attributes": {
            "POSITION": 112
          },
          "indices": 113,
          "mode": 4
        }
      ]
    },
    {
      "name": "seat_row_4",
      "primitives": [
        {
          "attributes": {
            "POSITION": 114
          },
          "indices": 115,
          "mode": 4
        }
      ]
    },
    {
      "name": "seat_back_1",
      "primitives": [
        {
          "attributes": {
            "POSITION": 116
          },
          "indices": 117,
          "mode": 4
        }
      ]
    },
    {
      "name": "seat_back_2",
      "primitives": [
        {
          "attributes": {
            "POSITION": 118
          },
          "indices": 119,
          "mode": 4
        }
      ]
    },
    {
      "name": "windshield",
      "primitives": [
        {
          "attributes": {
            "POSITION": 120
          },
          "indices": 121,
          "mode": 4
        }
      ]
    },
    {
      "name": "body_panel_l",
      "primitives": [
        {
          "attributes": {
            "POSITION": 122
          },
          "indices": 123,
          "mode": 4
        }
      ]
    },
    {
      "name": "body_panel_r",
      "primitives": [
        {
          "attributes": {
            "POSITION": 124
          },
          "indices": 125,
          "mode": 4
        }
      ]
    },
    {
      "name": "wheel_hub_fl",
      "primitives": [
        {
          "attributes": {
            "POSITION": 126
          },
          "indices": 127,
          "mode": 4
        }
      ]
    },
    {
      "name": "wheel_hub_fr",
      "primitives": [
        {
          "attributes": {
            "POSITION": 128
          },
          "indices": 129,
          "mode": 4
        }
      ]
    },
    {
      "name": "wheel_hub_rl",
      "primitives": [
        {
          "attributes": {
            "POSITION": 130
          },
          "indices": 131,
          "mode": 4
        }
      ]
    },
    {
      "name": "wheel_hub_rr",
      "primitives": [
        {
          "attributes": {
            "POSITION": 132
          },
          "indices": 133,
          "mode": 4
        }
      ]
    },
    {
      "name": "door_hinge_t",
      "primitives": [
        {
          "attributes": {
            "POSITION": 134
          },
          "indices": 135,
          "mode": 4
        }
      ]
    },
    {
      "name": "door_hinge_b",
      "primitives": [
        {
          "attributes": {
            "POSITION": 136
          },
          "indices": 137,
          "mode": 4
        }
      ]
    },
    {
      "name": "exhaust_pipe",
      "primitives": [
        {
          "attributes": {
            "POSITION": 138
          },
          "indices": 139,
          "mode": 4
        }
      ]
    },
    {
      "name": "fuel_filler",
      "primitives": [
        {
          "attributes": {
            "POSITION": 140
          },
          "indices": 141,
          "mode": 4
        }
      ]
    },
    {
      "name": "skirt_l",
      "primitives": [
        {
          "attributes": {
            "POSITION": 142
          },
          "indices": 143,
          "mode": 4
        }
      ]
    },
    {
      "name": "skirt_r",
      "primitives": [
        {
          "attributes": {
            "POSITION": 144
          },
          "indices": 145,
          "mode": 4
        }
      ]
    },
    {
      "name": "glass_pane_1",
      "primitives": [
        {
          "attributes": {
            "POSITION": 146
          },
          "indices": 147,
          "mode": 4
        }
      ]
    },
    {
      "name": "glass_pane_lo_1",
      "primitives": [
        {
          "attributes": {
            "POSITION": 148
          },
          "indices": 149,
          "mode": 4
        }
      ]
    },
    {
      "name": "glass_pane_2",
      "primitives": [
        {
          "attributes": {
            "POSITION": 150
          },
          "indices": 151,
          "mode": 4
        }
      ]
    },
    {
      "name": "glass_pane_lo_2",
      "primitives": [
        {
          "attributes": {
            "POSITION": 152
          },
          "indices": 153,
          "mode": 4
        }
      ]
    },
    {
      "name": "glass_pane_3",
      "primitives": [
        {
          "attributes": {
            "POSITION": 154
          },
          "indices": 155,
          "mode": 4
        }
      ]
    },
    {
      "name": "glass_pane_lo_3",
      "primitives": [
        {
          "attributes": {
            "POSITION": 156
          },
          "indices": 157,
          "mode": 4
        }
      ]
    },
    {
      "name": "glass_pane_4",
      "primitives": [
        {
          "attributes": {
            "POSITION": 158
          },
          "indices": 159,
          "mode": 4
        }
      ]
    },
    {
      "name": "glass_pane_lo_4",
      "primitives": [
        {
          "attributes": {
            "POSITION": 160
          },
          "indices": 161,
          "mode": 4
        }
      ]
    },
    {
      "name": "glass_pane_5",
      "primitives": [
        {
          "attributes": {
            "POSITION": 162
          },
          "indices": 163,
          "mode": 4
        }
      ]
    },
    {
      "name": "glass_pane_lo_5",
      "primitives": [
        {
          "attributes": {
            "POSITION": 164
          },
          "indices": 165,
          "mode": 4
        }
      ]
    },
    {
      "name": "glass_pane_6",
      "primitives": [
        {
          "attributes": {
            "POSITION": 166
          },
          "indices": 167,
          "mode": 4
        }
      ]
    },
    {
      "name": "glass_pane_lo_6",
      "primitives": [
        {
          "attributes": {
            "POSITION": 168
          },
          "indices": 169,
          "mode": 4
        }
      ]
    },
    {
      "name": "glass_pane_7",
      "primitives": [
        {
          "attributes": {
            "POSITION": 170
          },
          "indices": 171,
          "mode": 4
        }
      ]
    },
    {
      "name": "glass_pane_lo_7",
      "primitives": [
        {
          "attributes": {
            "POSITION": 172
          },
          "indices": 173,
          "mode": 4
        }
      ]
    },
    {
      "name": "glass_pane_front_1",
      "primitives": [
        {
          "attributes": {
            "POSITION": 174
          },
          "indices": 175,
          "mode": 4
        }
      ]
    },
    {
      "name": "glass_pane_front_2",
      "primitives": [
        {
          "attributes": {
            "POSITION": 176
          },
          "indices": 177,
          "mode": 4
        }
      ]
    },
    {
      "name": "glass_pane_front_3",
      "primitives": [
        {
          "attributes": {
            "POSITION": 178
          },
          "indices": 179,
          "mode": 4
        }
      ]
    }
  ],
  "nodes": [
    {
      "name": "bus_body",
      "mesh": 0
    },
    {
      "name": "cabin_roof",
      "mesh": 1
    },
    {
      "name": "windows",
      "mesh": 2
    },
    {
      "name": "window_mullion",
      "mesh": 3
    },
    {
      "name": "window_mullion_2",
      "mesh": 4
    },
    {
      "name": "window_mullion_3",
      "mesh": 5
    },
    {
      "name": "window_mullion_4",
      "mesh": 6
    },
    {
      "name": "window_mullion_5",
      "mesh": 7
    },
    {
      "name": "window_mullion_6",
      "mesh": 8
    },
    {
      "name": "window_mullion_7",
      "mesh": 9
    },
    {
      "name": "window_mullion_8",
      "mesh": 10
    },
    {
      "name": "window_mullion_9",
      "mesh": 11
    },
    {
      "name": "window_mullion_10",
      "mesh": 12
    },
    {
      "name": "window_sill",
      "mesh": 13
    },
    {
      "name": "window_sill_b",
      "mesh": 14
    },
    {
      "name": "window_header",
      "mesh": 15
    },
    {
      "name": "window_header_b",
      "mesh": 16
    },
    {
      "name": "door",
      "mesh": 17
    },
    {
      "name": "door_frame",
      "mesh": 18
    },
    {
      "name": "door_glass",
      "mesh": 19
    },
    {
      "name": "door_handle",
      "mesh": 20
    },
    {
      "name": "bumper_front",
      "mesh": 21
    },
    {
      "name": "bumper_rear",
      "mesh": 22
    },
    {
      "name": "wheel_fl",
      "mesh": 23
    },
    {
      "name": "wheel_fr",
      "mesh": 24
    },
    {
      "name": "wheel_rl",
      "mesh": 25
    },
    {
      "name": "wheel_rr",
      "mesh": 26
    },
    {
      "name": "wheel_arch_fl",
      "mesh": 27
    },
    {
      "name": "wheel_arch_fr",
      "mesh": 28
    },
    {
      "name": "wheel_arch_rl",
      "mesh": 29
    },
    {
      "name": "wheel_arch_rr",
      "mesh": 30
    },
    {
      "name": "beacon",
      "mesh": 31
    },
    {
      "name": "mirror_l",
      "mesh": 32
    },
    {
      "name": "mirror_r",
      "mesh": 33
    },
    {
      "name": "step",
      "mesh": 34
    },
    {
      "name": "headlight_l",
      "mesh": 35
    },
    {
      "name": "headlight_r",
      "mesh": 36
    },
    {
      "name": "taillight_l",
      "mesh": 37
    },
    {
      "name": "taillight_r",
      "mesh": 38
    },
    {
      "name": "stripe",
      "mesh": 39
    },
    {
      "name": "stripe_b",
      "mesh": 40
    },
    {
      "name": "stripe_upper",
      "mesh": 41
    },
    {
      "name": "wiper",
      "mesh": 42
    },
    {
      "name": "wiper_b",
      "mesh": 43
    },
    {
      "name": "roof_rack",
      "mesh": 44
    },
    {
      "name": "roof_vent",
      "mesh": 45
    },
    {
      "name": "grill",
      "mesh": 46
    },
    {
      "name": "number_plate",
      "mesh": 47
    },
    {
      "name": "mudflap_l",
      "mesh": 48
    },
    {
      "name": "mudflap_r",
      "mesh": 49
    },
    {
      "name": "destination_board",
      "mesh": 50
    },
    {
      "name": "destination_board_hood",
      "mesh": 51
    },
    {
      "name": "destination_digit",
      "mesh": 52
    },
    {
      "name": "rear_window",
      "mesh": 53
    },
    {
      "name": "seat_row_1",
      "mesh": 54
    },
    {
      "name": "seat_row_2",
      "mesh": 55
    },
    {
      "name": "seat_row_3",
      "mesh": 56
    },
    {
      "name": "seat_row_4",
      "mesh": 57
    },
    {
      "name": "seat_back_1",
      "mesh": 58
    },
    {
      "name": "seat_back_2",
      "mesh": 59
    },
    {
      "name": "windshield",
      "mesh": 60
    },
    {
      "name": "body_panel_l",
      "mesh": 61
    },
    {
      "name": "body_panel_r",
      "mesh": 62
    },
    {
      "name": "wheel_hub_fl",
      "mesh": 63
    },
    {
      "name": "wheel_hub_fr",
      "mesh": 64
    },
    {
      "name": "wheel_hub_rl",
      "mesh": 65
    },
    {
      "name": "wheel_hub_rr",
      "mesh": 66
    },
    {
      "name": "door_hinge_t",
      "mesh": 67
    },
    {
      "name": "door_hinge_b",
      "mesh": 68
    },
    {
      "name": "exhaust_pipe",
      "mesh": 69
    },
    {
      "name": "fuel_filler",
      "mesh": 70
    },
    {
      "name": "skirt_l",
      "mesh": 71
    },
    {
      "name": "skirt_r",
      "mesh": 72
    },
    {
      "name": "glass_pane_1",
      "mesh": 73
    },
    {
      "name": "glass_pane_lo_1",
      "mesh": 74
    },
    {
      "name": "glass_pane_2",
      "mesh": 75
    },
    {
      "name": "glass_pane_lo_2",
      "mesh": 76
    },
    {
      "name": "glass_pane_3",
      "mesh": 77
    },
    {
      "name": "glass_pane_lo_3",
      "mesh": 78
    },
    {
      "name": "glass_pane_4",
      "mesh": 79
    },
    {
      "name": "glass_pane_lo_4",
      "mesh": 80
    },
    {
      "name": "glass_pane_5",
      "mesh": 81
    },
    {
      "name": "glass_pane_lo_5",
      "mesh": 82
    },
    {
      "name": "glass_pane_6",
      "mesh": 83
    },
    {
      "name": "glass_pane_lo_6",
      "mesh": 84
    },
    {
      "name": "glass_pane_7",
      "mesh": 85
    },
    {
      "name": "glass_pane_lo_7",
      "mesh": 86
    },
    {
      "name": "glass_pane_front_1",
      "mesh": 87
    },
    {
      "name": "glass_pane_front_2",
      "mesh": 88
    },
    {
      "name": "glass_pane_front_3",
      "mesh": 89
    }
  ],
  "scenes": [
    {
      "name": "mdl_passenger_bus_apron_authored_v01",
      "nodes": [
        0,
        1,
        2,
        3,
        4,
        5,
        6,
        7,
        8,
        9,
        10,
        11,
        12,
        13,
        14,
        15,
        16,
        17,
        18,
        19,
        20,
        21,
        22,
        23,
        24,
        25,
        26,
        27,
        28,
        29,
        30,
        31,
        32,
        33,
        34,
        35,
        36,
        37,
        38,
        39,
        40,
        41,
        42,
        43,
        44,
        45,
        46,
        47,
        48,
        49,
        50,
        51,
        52,
        53,
        54,
        55,
        56,
        57,
        58,
        59,
        60,
        61,
        62,
        63,
        64,
        65,
        66,
        67,
        68,
        69,
        70,
        71,
        72,
        73,
        74,
        75,
        76,
        77,
        78,
        79,
        80,
        81,
        82,
        83,
        84,
        85,
        86,
        87,
        88,
        89
      ]
    }
  ],
  "scene": 0
}