{
  "asset": {
    "version": "2.0",
    "generator": "Airside Batch C procedural kit"
  },
  "buffers": [
    {
      "uri": "mdl_baggage_tug_train_authored_v01.bin",
      "byteLength": 28152
    }
  ],
  "bufferViews": [
    {
      "buffer": 0,
      "byteOffset": 0,
      "byteLength": 288,
      "target": 34962
    },
    {
      "buffer": 0,
      "byteOffset": 288,
      "byteLength": 72,
      "target": 34963
    },
    {
      "buffer": 0,
      "byteOffset": 360,
      "byteLength": 288,
      "target": 34962
    },
    {
      "buffer": 0,
      "byteOffset": 648,
      "byteLength": 72,
      "target": 34963
    },
    {
      "buffer": 0,
      "byteOffset": 720,
      "byteLength": 288,
      "target": 34962
    },
    {
      "buffer": 0,
      "byteOffset": 1008,
      "byteLength": 72,
      "target": 34963
    },
    {
      "buffer": 0,
      "byteOffset": 1080,
      "byteLength": 288,
      "target": 34962
    },
    {
      "buffer": 0,
      "byteOffset": 1368,
      "byteLength": 72,
      "target": 34963
    },
    {
      "buffer": 0,
      "byteOffset": 1440,
      "byteLength": 288,
      "target": 34962
    },
    {
      "buffer": 0,
      "byteOffset": 1728,
      "byteLength": 72,
      "target": 34963
    },
    {
      "buffer": 0,
      "byteOffset": 1800,
      "byteLength": 288,
      "target": 34962
    },
    {
      "buffer": 0,
      "byteOffset": 2088,
      "byteLength": 72,
      "target": 34963
    },
    {
      "buffer": 0,
      "byteOffset": 2160,
      "byteLength": 288,
      "target": 34962
    },
    {
      "buffer": 0,
      "byteOffset": 2448,
      "byteLength": 72,
      "target": 34963
    },
    {
      "buffer": 0,
      "byteOffset": 2520,
      "byteLength": 288,
      "target": 34962
    },
    {
      "buffer": 0,
      "byteOffset": 2808,
      "byteLength": 72,
      "target": 34963
    },
    {
      "buffer": 0,
      "byteOffset": 2880,
      "byteLength": 288,
      "target": 34962
    },
    {
      "buffer": 0,
      "byteOffset": 3168,
      "byteLength": 72,
      "target": 34963
    },
    {
      "buffer": 0,
      "byteOffset": 3240,
      "byteLength": 288,
      "target": 34962
    },
    {
      "buffer": 0,
      "byteOffset": 3528,
      "byteLength": 72,
      "target": 34963
    },
    {
      "buffer": 0,
      "byteOffset": 3600,
      "byteLength": 288,
      "target": 34962
    },
    {
      "buffer": 0,
      "byteOffset": 3888,
      "byteLength": 72,
      "target": 34963
    },
    {
      "buffer": 0,
      "byteOffset": 3960,
      "byteLength": 288,
      "target": 34962
    },
    {
      "buffer": 0,
      "byteOffset": 4248,
      "byteLength": 72,
      "target": 34963
    },
    {
      "buffer": 0,
      "byteOffset": 4320,
      "byteLength": 288,
      "target": 34962
    },
    {
      "buffer": 0,
      "byteOffset": 4608,
      "byteLength": 72,
      "target": 34963
    },
    {
      "buffer": 0,
      "byteOffset": 4680,
      "byteLength": 288,
      "target": 34962
    },
    {
      "buffer": 0,
      "byteOffset": 4968,
      "byteLength": 72,
      "target": 34963
    },
    {
      "buffer": 0,
      "byteOffset": 5040,
      "byteLength": 288,
      "target": 34962
    },
    {
      "buffer": 0,
      "byteOffset": 5328,
      "byteLength": 72,
      "target": 34963
    },
    {
      "buffer": 0,
      "byteOffset": 5400,
      "byteLength": 288,
      "target": 34962
    },
    {
      "buffer": 0,
      "byteOffset": 5688,
      "byteLength": 72,
      "target": 34963
    },
    {
      "buffer": 0,
      "byteOffset": 5760,
      "byteLength": 288,
      "target": 34962
    },
    {
      "buffer": 0,
      "byteOffset": 6048,
      "byteLength": 72,
      "target": 34963
    },
    {
      "buffer": 0,
      "byteOffset": 6120,
      "byteLength": 288,
      "target": 34962
    },
    {
      "buffer": 0,
      "byteOffset": 6408,
      "byteLength": 72,
      "target": 34963
    },
    {
      "buffer": 0,
      "byteOffset": 6480,
      "byteLength": 288,
      "target": 34962
    },
    {
      "buffer": 0,
      "byteOffset": 6768,
      "byteLength": 72,
      "target": 34963
    },
    {
      "buffer": 0,
      "byteOffset": 6840,
      "byteLength": 288,
      "target": 34962
    },
    {
      "buffer": 0,
      "byteOffset": 7128,
      "byteLength": 72,
      "target": 34963
    },
    {
      "buffer": 0,
      "byteOffset": 7200,
      "byteLength": 288,
      "target": 34962
    },
    {
      "buffer": 0,
      "byteOffset": 7488,
      "byteLength": 72,
      "target": 34963
    },
    {
      "buffer": 0,
      "byteOffset": 7560,
      "byteLength": 288,
      "target": 34962
    },
    {
      "buffer": 0,
      "byteOffset": 7848,
      "byteLength": 72,
      "target": 34963
    },
    {
      "buffer": 0,
      "byteOffset": 7920,
      "byteLength": 288,
      "target": 34962
    },
    {
      "buffer": 0,
      "byteOffset": 8208,
      "byteLength": 72,
      "target": 34963
    },
    {
      "buffer": 0,
      "byteOffset": 8280,
      "byteLength": 288,
      "target": 34962
    },
    {
      "buffer": 0,
      "byteOffset": 8568,
      "byteLength": 72,
      "target": 34963
    },
    {
      "buffer": 0,
      "byteOffset": 8640,
      "byteLength": 288,
      "target": 34962
    },
    {
      "buffer": 0,
      "byteOffset": 8928,
      "byteLength": 72,
      "target": 34963
    },
    {
      "buffer": 0,
      "byteOffset": 9000,
      "byteLength": 288,
      "target": 34962
    },
    {
      "buffer": 0,
      "byteOffset": 9288,
      "byteLength": 72,
      "target": 34963
    },
    {
      "buffer": 0,
      "byteOffset": 9360,
      "byteLength": 288,
      "target": 34962
    },
    {
      "buffer": 0,
      "byteOffset": 9648,
      "byteLength": 72,
      "target": 34963
    },
    {
      "buffer": 0,
      "byteOffset": 9720,
      "byteLength": 288,
      "target": 34962
    },
    {
      "buffer": 0,
      "byteOffset": 10008,
      "byteLength": 72,
      "target": 34963
    },
    {
      "buffer": 0,
      "byteOffset": 10080,
      "byteLength": 1440,
      "target": 34962
    },
    {
      "buffer": 0,
      "byteOffset": 11520,
      "byteLength": 288,
      "target": 34963
    },
    {
      "buffer": 0,
      "byteOffset": 11808,
      "byteLength": 1440,
      "target": 34962
    },
    {
      "buffer": 0,
      "byteOffset": 13248,
      "byteLength": 288,
      "target": 34963
    },
    {
      "buffer": 0,
      "byteOffset": 13536,
      "byteLength": 1440,
      "target": 34962
    },
    {
      "buffer": 0,
      "byteOffset": 14976,
      "byteLength": 288,
      "target": 34963
    },
    {
      "buffer": 0,
      "byteOffset": 15264,
      "byteLength": 1440,
      "target": 34962
    },
    {
      "buffer": 0,
      "byteOffset": 16704,
      "byteLength": 288,
      "target": 34963
    },
    {
      "buffer": 0,
      "byteOffset": 16992,
      "byteLength": 1200,
      "target": 34962
    },
    {
      "buffer": 0,
      "byteOffset": 18192,
      "byteLength": 240,
      "target": 34963
    },
    {
      "buffer": 0,
      "byteOffset": 18432,
      "byteLength": 1200,
      "target": 34962
    },
    {
      "buffer": 0,
      "byteOffset": 19632,
      "byteLength": 240,
      "target": 34963
    },
    {
      "buffer": 0,
      "byteOffset": 19872,
      "byteLength": 1200,
      "target": 34962
    },
    {
      "buffer": 0,
      "byteOffset": 21072,
      "byteLength": 240,
      "target": 34963
    },
    {
      "buffer": 0,
      "byteOffset": 21312,
      "byteLength": 1200,
      "target": 34962
    },
    {
      "buffer": 0,
      "byteOffset": 22512,
      "byteLength": 240,
      "target": 34963
    },
    {
      "buffer": 0,
      "byteOffset": 22752,
      "byteLength": 1200,
      "target": 34962
    },
    {
      "buffer": 0,
      "byteOffset": 23952,
      "byteLength": 240,
      "target": 34963
    },
    {
      "buffer": 0,
      "byteOffset": 24192,
      "byteLength": 1200,
      "target": 34962
    },
    {
      "buffer": 0,
      "byteOffset": 25392,
      "byteLength": 240,
      "target": 34963
    },
    {
      "buffer": 0,
      "byteOffset": 25632,
      "byteLength": 288,
      "target": 34962
    },
    {
      "buffer": 0,
      "byteOffset": 25920,
      "byteLength": 72,
      "target": 34963
    },
    {
      "buffer": 0,
      "byteOffset": 25992,
      "byteLength": 288,
      "target": 34962
    },
    {
      "buffer": 0,
      "byteOffset": 26280,
      "byteLength": 72,
      "target": 34963
    },
    {
      "buffer": 0,
      "byteOffset": 26352,
      "byteLength": 288,
      "target": 34962
    },
    {
      "buffer": 0,
      "byteOffset": 26640,
      "byteLength": 72,
      "target": 34963
    },
    {
      "buffer": 0,
      "byteOffset": 26712,
      "byteLength": 288,
      "target": 34962
    },
    {
      "buffer": 0,
      "byteOffset": 27000,
      "byteLength": 72,
      "target": 34963
    },
    {
      "buffer": 0,
      "byteOffset": 27072,
      "byteLength": 288,
      "target": 34962
    },
    {
      "buffer": 0,
      "byteOffset": 27360,
      "byteLength": 72,
      "target": 34963
    },
    {
      "buffer": 0,
      "byteOffset": 27432,
      "byteLength": 288,
      "target": 34962
    },
    {
      "buffer": 0,
      "byteOffset": 27720,
      "byteLength": 72,
      "target": 34963
    },
    {
      "buffer": 0,
      "byteOffset": 27792,
      "byteLength": 288,
      "target": 34962
    },
    {
      "buffer": 0,
      "byteOffset": 28080,
      "byteLength": 72,
      "target": 34963
    }
  ],
  "accessors": [
    {
      "bufferView": 0,
      "componentType": 5126,
      "count": 24,
      "type": "VEC3",
      "max": [
        4.449999809265137,
        1.024999976158142,
        0.574999988079071
      ],
      "min": [
        2.75,
        0.07500000298023224,
        -0.574999988079071
      ]
    },
    {
      "bufferView": 1,
      "componentType": 5123,
      "count": 36,
      "type": "SCALAR"
    },
    {
      "bufferView": 2,
      "componentType": 5126,
      "count": 24,
      "type": "VEC3",
      "max": [
        4.550000190734863,
        1.375,
        0.5249999761581421
      ],
      "min": [
        3.6500000953674316,
        0.5249999761581421,
        -0.5249999761581421
      ]
    },
    {
      "bufferView": 3,
      "componentType": 5123,
      "count": 36,
      "type": "SCALAR"
    },
    {
      "bufferView": 4,
      "componentType": 5126,
      "count": 24,
      "type": "VEC3",
      "max": [
        4.539999961853027,
        1.375,
        0.42500001192092896
      ],
      "min": [
        4.460000038146973,
        0.925000011920929,
        -0.42500001192092896
      ]
    },
    {
      "bufferView": 5,
      "componentType": 5123,
      "count": 36,
      "type": "SCALAR"
    },
    {
      "bufferView": 6,
      "componentType": 5126,
      "count": 24,
      "type": "VEC3",
      "max": [
        4.650000095367432,
        0.574999988079071,
        0.5
      ],
      "min": [
        4.449999809265137,
        0.22499999403953552,
        -0.5
      ]
    },
    {
      "bufferView": 7,
      "componentType": 5123,
      "count": 36,
      "type": "SCALAR"
    },
    {
      "bufferView": 8,
      "componentType": 5126,
      "count": 24,
      "type": "VEC3",
      "max": [
        4.074999809265137,
        1.024999976158142,
        0.3499999940395355
      ],
      "min": [
        3.625,
        0.675000011920929,
        -0.3499999940395355
      ]
    },
    {
      "bufferView": 9,
      "componentType": 5123,
      "count": 36,
      "type": "SCALAR"
    },
    {
      "bufferView": 10,
      "componentType": 5126,
      "count": 24,
      "type": "VEC3",
      "max": [
        3.740000009536743,
        1.7000000476837158,
        0.44999998807907104
      ],
      "min": [
        3.6600000858306885,
        1.0,
        -0.44999998807907104
      ]
    },
    {
      "bufferView": 11,
      "componentType": 5123,
      "count": 36,
      "type": "SCALAR"
    },
    {
      "bufferView": 12,
      "componentType": 5126,
      "count": 24,
      "type": "VEC3",
      "max": [
        4.349999904632568,
        0.38999998569488525,
        0.5
      ],
      "min": [
        3.450000047683716,
        0.3100000023841858,
        -0.5
      ]
    },
    {
      "bufferView": 13,
      "componentType": 5123,
      "count": 36,
      "type": "SCALAR"
    },
    {
      "bufferView": 14,
      "componentType": 5126,
      "count": 24,
      "type": "VEC3",
      "max": [
        4.309999942779541,
        1.225000023841858,
        0.20999999344348907
      ],
      "min": [
        4.190000057220459,
        0.875,
        0.09000000357627869
      ]
    },
    {
      "bufferView": 15,
      "componentType": 5123,
      "count": 36,
      "type": "SCALAR"
    },
    {
      "bufferView": 16,
      "componentType": 5126,
      "count": 24,
      "type": "VEC3",
      "max": [
        2.549999952316284,
        0.875,
        0.5249999761581421
      ],
      "min": [
        1.0499999523162842,
        0.125,
        -0.5249999761581421
      ]
    },
    {
      "bufferView": 17,
      "componentType": 5123,
      "count": 36,
      "type": "SCALAR"
    },
    {
      "bufferView": 18,
      "componentType": 5126,
      "count": 24,
      "type": "VEC3",
      "max": [
        0.949999988079071,
        0.875,
        0.5249999761581421
      ],
      "min": [
        -0.550000011920929,
        0.125,
        -0.5249999761581421
      ]
    },
    {
      "bufferView": 19,
      "componentType": 5123,
      "count": 36,
      "type": "SCALAR"
    },
    {
      "bufferView": 20,
      "componentType": 5126,
      "count": 24,
      "type": "VEC3",
      "max": [
        -0.6499999761581421,
        0.875,
        0.5249999761581421
      ],
      "min": [
        -2.1500000953674316,
        0.125,
        -0.5249999761581421
      ]
    },
    {
      "bufferView": 21,
      "componentType": 5123,
      "count": 36,
      "type": "SCALAR"
    },
    {
      "bufferView": 22,
      "componentType": 5126,
      "count": 24,
      "type": "VEC3",
      "max": [
        2.5,
        0.8899999856948853,
        0.5199999809265137
      ],
      "min": [
        1.100000023841858,
        0.8100000023841858,
        0.4399999976158142
      ]
    },
    {
      "bufferView": 23,
      "componentType": 5123,
      "count": 36,
      "type": "SCALAR"
    },
    {
      "bufferView": 24,
      "componentType": 5126,
      "count": 24,
      "type": "VEC3",
      "max": [
        0.8999999761581421,
        0.8899999856948853,
        0.5199999809265137
      ],
      "min": [
        -0.5,
        0.8100000023841858,
        0.4399999976158142
      ]
    },
    {
      "bufferView": 25,
      "componentType": 5123,
      "count": 36,
      "type": "SCALAR"
    },
    {
      "bufferView": 26,
      "componentType": 5126,
      "count": 24,
      "type": "VEC3",
      "max": [
        -0.699999988079071,
        0.8899999856948853,
        0.5199999809265137
      ],
      "min": [
        -2.0999999046325684,
        0.8100000023841858,
        0.4399999976158142
      ]
    },
    {
      "bufferView": 27,
      "componentType": 5123,
      "count": 36,
      "type": "SCALAR"
    },
    {
      "bufferView": 28,
      "componentType": 5126,
      "count": 24,
      "type": "VEC3",
      "max": [
        2.5,
        0.8899999856948853,
        -0.4399999976158142
      ],
      "min": [
        1.100000023841858,
        0.8100000023841858,
        -0.5199999809265137
      ]
    },
    {
      "bufferView": 29,
      "componentType": 5123,
      "count": 36,
      "type": "SCALAR"
    },
    {
      "bufferView": 30,
      "componentType": 5126,
      "count": 24,
      "type": "VEC3",
      "max": [
        0.8999999761581421,
        0.8899999856948853,
        -0.4399999976158142
      ],
      "min": [
        -0.5,
        0.8100000023841858,
        -0.5199999809265137
      ]
    },
    {
      "bufferView": 31,
      "componentType": 5123,
      "count": 36,
      "type": "SCALAR"
    },
    {
      "bufferView": 32,
      "componentType": 5126,
      "count": 24,
      "type": "VEC3",
      "max": [
        -0.699999988079071,
        0.8899999856948853,
        -0.4399999976158142
      ],
      "min": [
        -2.0999999046325684,
        0.8100000023841858,
        -0.5199999809265137
      ]
    },
    {
      "bufferView": 33,
      "componentType": 5123,
      "count": 36,
      "type": "SCALAR"
    },
    {
      "bufferView": 34,
      "componentType": 5126,
      "count": 24,
      "type": "VEC3",
      "max": [
        2.450000047683716,
        0.925000011920929,
        -0.5199999809265137
      ],
      "min": [
        1.149999976158142,
        0.4749999940395355,
        -0.5799999833106995
      ]
    },
    {
      "bufferView": 35,
      "componentType": 5123,
      "count": 36,
      "type": "SCALAR"
    },
    {
      "bufferView": 36,
      "componentType": 5126,
      "count": 24,
      "type": "VEC3",
      "max": [
        0.8500000238418579,
        0.925000011920929,
        -0.5199999809265137
      ],
      "min": [
        -0.44999998807907104,
        0.4749999940395355,
        -0.5799999833106995
      ]
    },
    {
      "bufferView": 37,
      "componentType": 5123,
      "count": 36,
      "type": "SCALAR"
    },
    {
      "bufferView": 38,
      "componentType": 5126,
      "count": 24,
      "type": "VEC3",
      "max": [
        -0.75,
        0.925000011920929,
        -0.5199999809265137
      ],
      "min": [
        -2.049999952316284,
        0.4749999940395355,
        -0.5799999833106995
      ]
    },
    {
      "bufferView": 39,
      "componentType": 5123,
      "count": 36,
      "type": "SCALAR"
    },
    {
      "bufferView": 40,
      "componentType": 5126,
      "count": 24,
      "type": "VEC3",
      "max": [
        2.4000000953674316,
        1.1749999523162842,
        0.42500001192092896
      ],
      "min": [
        1.2000000476837158,
        0.7250000238418579,
        -0.42500001192092896
      ]
    },
    {
      "bufferView": 41,
      "componentType": 5123,
      "count": 36,
      "type": "SCALAR"
    },
    {
      "bufferView": 42,
      "componentType": 5126,
      "count": 24,
      "type": "VEC3",
      "max": [
        0.800000011920929,
        1.1749999523162842,
        0.42500001192092896
      ],
      "min": [
        -0.4000000059604645,
        0.7250000238418579,
        -0.42500001192092896
      ]
    },
    {
      "bufferView": 43,
      "componentType": 5123,
      "count": 36,
      "type": "SCALAR"
    },
    {
      "bufferView": 44,
      "componentType": 5126,
      "count": 24,
      "type": "VEC3",
      "max": [
        -0.800000011920929,
        1.1749999523162842,
        0.42500001192092896
      ],
      "min": [
        -2.0,
        0.7250000238418579,
        -0.42500001192092896
      ]
    },
    {
      "bufferView": 45,
      "componentType": 5123,
      "count": 36,
      "type": "SCALAR"
    },
    {
      "bufferView": 46,
      "componentType": 5126,
      "count": 24,
      "type": "VEC3",
      "max": [
        1.975000023841858,
        1.2100000381469727,
        0.41999998688697815
      ],
      "min": [
        1.625,
        1.090000033378601,
        0.3799999952316284
      ]
    },
    {
      "bufferView": 47,
      "componentType": 5123,
      "count": 36,
      "type": "SCALAR"
    },
    {
      "bufferView": 48,
      "componentType": 5126,
      "count": 24,
      "type": "VEC3",
      "max": [
        0.375,
        1.2100000381469727,
        0.41999998688697815
      ],
      "min": [
        0.02500000037252903,
        1.090000033378601,
        0.3799999952316284
      ]
    },
    {
      "bufferView": 49,
      "componentType": 5123,
      "count": 36,
      "type": "SCALAR"
    },
    {
      "bufferView": 50,
      "componentType": 5126,
      "count": 24,
      "type": "VEC3",
      "max": [
        2.924999952316284,
        0.44999998807907104,
        0.10000000149011612
      ],
      "min": [
        2.4749999046325684,
        0.25,
        -0.10000000149011612
      ]
    },
    {
      "bufferView": 51,
      "componentType": 5123,
      "count": 36,
      "type": "SCALAR"
    },
    {
      "bufferView": 52,
      "componentType": 5126,
      "count": 24,
      "type": "VEC3",
      "max": [
        1.225000023841858,
        0.44999998807907104,
        0.10000000149011612
      ],
      "min": [
        0.7749999761581421,
        0.25,
        -0.10000000149011612
      ]
    },
    {
      "bufferView": 53,
      "componentType": 5123,
      "count": 36,
      "type": "SCALAR"
    },
    {
      "bufferView": 54,
      "componentType": 5126,
      "count": 24,
      "type": "VEC3",
      "max": [
        -0.375,
        0.44999998807907104,
        0.10000000149011612
      ],
      "min": [
        -0.824999988079071,
        0.25,
        -0.10000000149011612
      ]
    },
    {
      "bufferView": 55,
      "componentType": 5123,
      "count": 36,
      "type": "SCALAR"
    },
    {
      "bufferView": 56,
      "componentType": 5126,
      "count": 120,
      "type": "VEC3",
      "max": [
        4.199999809265137,
        0.41999998688697815,
        0.5900000333786011
      ],
      "min": [
        3.799999952316284,
        0.019999999552965164,
        0.4099999964237213
      ]
    },
    {
      "bufferView": 57,
      "componentType": 5123,
      "count": 144,
      "type": "SCALAR"
    },
    {
      "bufferView": 58,
      "componentType": 5126,
      "count": 120,
      "type": "VEC3",
      "max": [
        4.199999809265137,
        0.41999998688697815,
        -0.4099999964237213
      ],
      "min": [
        3.799999952316284,
        0.019999999552965164,
        -0.5900000333786011
      ]
    },
    {
      "bufferView": 59,
      "componentType": 5123,
      "count": 144,
      "type": "SCALAR"
    },
    {
      "bufferView": 60,
      "componentType": 5126,
      "count": 120,
      "type": "VEC3",
      "max": [
        3.4000000953674316,
        0.41999998688697815,
        0.5900000333786011
      ],
      "min": [
        3.0,
        0.019999999552965164,
        0.4099999964237213
      ]
    },
    {
      "bufferView": 61,
      "componentType": 5123,
      "count": 144,
      "type": "SCALAR"
    },
    {
      "bufferView": 62,
      "componentType": 5126,
      "count": 120,
      "type": "VEC3",
      "max": [
        3.4000000953674316,
        0.41999998688697815,
        -0.4099999964237213
      ],
      "min": [
        3.0,
        0.019999999552965164,
        -0.5900000333786011
      ]
    },
    {
      "bufferView": 63,
      "componentType": 5123,
      "count": 144,
      "type": "SCALAR"
    },
    {
      "bufferView": 64,
      "componentType": 5126,
      "count": 100,
      "type": "VEC3",
      "max": [
        1.9600000381469727,
        0.3321690559387207,
        0.5500000715255737
      ],
      "min": [
        1.6399999856948853,
        0.027830956503748894,
        0.4099999964237213
      ]
    },
    {
      "bufferView": 65,
      "componentType": 5123,
      "count": 120,
      "type": "SCALAR"
    },
    {
      "bufferView": 66,
      "componentType": 5126,
      "count": 100,
      "type": "VEC3",
      "max": [
        1.9600000381469727,
        0.3321690559387207,
        -0.4099999964237213
      ],
      "min": [
        1.6399999856948853,
        0.027830956503748894,
        -0.5500000715255737
      ]
    },
    {
      "bufferView": 67,
      "componentType": 5123,
      "count": 120,
      "type": "SCALAR"
    },
    {
      "bufferView": 68,
      "componentType": 5126,
      "count": 100,
      "type": "VEC3",
      "max": [
        0.36000001430511475,
        0.3321690559387207,
        0.5500000715255737
      ],
      "min": [
        0.03999999910593033,
        0.027830956503748894,
        0.4099999964237213
      ]
    },
    {
      "bufferView": 69,
      "componentType": 5123,
      "count": 120,
      "type": "SCALAR"
    },
    {
      "bufferView": 70,
      "componentType": 5126,
      "count": 100,
      "type": "VEC3",
      "max": [
        0.36000001430511475,
        0.3321690559387207,
        -0.4099999964237213
      ],
      "min": [
        0.03999999910593033,
        0.027830956503748894,
        -0.5500000715255737
      ]
    },
    {
      "bufferView": 71,
      "componentType": 5123,
      "count": 120,
      "type": "SCALAR"
    },
    {
      "bufferView": 72,
      "componentType": 5126,
      "count": 100,
      "type": "VEC3",
      "max": [
        -1.2400000095367432,
        0.3321690559387207,
        0.5500000715255737
      ],
      "min": [
        -1.559999942779541,
        0.027830956503748894,
        0.4099999964237213
      ]
    },
    {
      "bufferView": 73,
      "componentType": 5123,
      "count": 120,
      "type": "SCALAR"
    },
    {
      "bufferView": 74,
      "componentType": 5126,
      "count": 100,
      "type": "VEC3",
      "max": [
        -1.2400000095367432,
        0.3321690559387207,
        -0.4099999964237213
      ],
      "min": [
        -1.559999942779541,
        0.027830956503748894,
        -0.5500000715255737
      ]
    },
    {
      "bufferView": 75,
      "componentType": 5123,
      "count": 120,
      "type": "SCALAR"
    },
    {
      "bufferView": 76,
      "componentType": 5126,
      "count": 24,
      "type": "VEC3",
      "max": [
        4.199999809265137,
        1.5750000476837158,
        0.10000000149011612
      ],
      "min": [
        4.0,
        1.4249999523162842,
        -0.10000000149011612
      ]
    },
    {
      "bufferView": 77,
      "componentType": 5123,
      "count": 36,
      "type": "SCALAR"
    },
    {
      "bufferView": 78,
      "componentType": 5126,
      "count": 24,
      "type": "VEC3",
      "max": [
        4.599999904632568,
        0.7099999785423279,
        0.41999998688697815
      ],
      "min": [
        4.5,
        0.5899999737739563,
        0.2800000011920929
      ]
    },
    {
      "bufferView": 79,
      "componentType": 5123,
      "count": 36,
      "type": "SCALAR"
    },
    {
      "bufferView": 80,
      "componentType": 5126,
      "count": 24,
      "type": "VEC3",
      "max": [
        4.599999904632568,
        0.7099999785423279,
        -0.2800000011920929
      ],
      "min": [
        4.5,
        0.5899999737739563,
        -0.41999998688697815
      ]
    },
    {
      "bufferView": 81,
      "componentType": 5123,
      "count": 36,
      "type": "SCALAR"
    },
    {
      "bufferView": 82,
      "componentType": 5126,
      "count": 24,
      "type": "VEC3",
      "max": [
        3.0399999618530273,
        0.6000000238418579,
        0.6000000238418579
      ],
      "min": [
        2.9600000381469727,
        0.5,
        0.5
      ]
    },
    {
      "bufferView": 83,
      "componentType": 5123,
      "count": 36,
      "type": "SCALAR"
    },
    {
      "bufferView": 84,
      "componentType": 5126,
      "count": 24,
      "type": "VEC3",
      "max": [
        3.0399999618530273,
        0.6000000238418579,
        -0.5
      ],
      "min": [
        2.9600000381469727,
        0.5,
        -0.6000000238418579
      ]
    },
    {
      "bufferView": 85,
      "componentType": 5123,
      "count": 36,
      "type": "SCALAR"
    },
    {
      "bufferView": 86,
      "componentType": 5126,
      "count": 24,
      "type": "VEC3",
      "max": [
        3.375,
        0.824999988079071,
        0.44999998807907104
      ],
      "min": [
        2.924999952316284,
        0.2750000059604645,
        -0.44999998807907104
      ]
    },
    {
      "bufferView": 87,
      "componentType": 5123,
      "count": 36,
      "type": "SCALAR"
    },
    {
      "bufferView": 88,
      "componentType": 5126,
      "count": 24,
      "type": "VEC3",
      "max": [
        4.670000076293945,
        0.5699999928474426,
        0.17499999701976776
      ],
      "min": [
        4.630000114440918,
        0.4300000071525574,
        -0.17499999701976776
      ]
    },
    {
      "bufferView": 89,
      "componentType": 5123,
      "count": 36,
      "type": "SCALAR"
    }
  ],
  "meshes": [
    {
      "name": "tug",
      "primitives": [
        {
          "attributes": {
            "POSITION": 0
          },
          "indices": 1,
          "mode": 4
        }
      ]
    },
    {
      "name": "tug_cab",
      "primitives": [
        {
          "attributes": {
            "POSITION": 2
          },
          "indices": 3,
          "mode": 4
        }
      ]
    },
    {
      "name": "tug_window",
      "primitives": [
        {
          "attributes": {
            "POSITION": 4
          },
          "indices": 5,
          "mode": 4
        }
      ]
    },
    {
      "name": "tug_bumper",
      "primitives": [
        {
          "attributes": {
            "POSITION": 6
          },
          "indices": 7,
          "mode": 4
        }
      ]
    },
    {
      "name": "tug_seat",
      "primitives": [
        {
          "attributes": {
            "POSITION": 8
          },
          "indices": 9,
          "mode": 4
        }
      ]
    },
    {
      "name": "tug_rollbar",
      "primitives": [
        {
          "attributes": {
            "POSITION": 10
          },
          "indices": 11,
          "mode": 4
        }
      ]
    },
    {
      "name": "tug_floor",
      "primitives": [
        {
          "attributes": {
            "POSITION": 12
          },
          "indices": 13,
          "mode": 4
        }
      ]
    },
    {
      "name": "tug_steering",
      "primitives": [
        {
          "attributes": {
            "POSITION": 14
          },
          "indices": 15,
          "mode": 4
        }
      ]
    },
    {
      "name": "cart_1",
      "primitives": [
        {
          "attributes": {
            "POSITION": 16
          },
          "indices": 17,
          "mode": 4
        }
      ]
    },
    {
      "name": "cart_2",
      "primitives": [
        {
          "attributes": {
            "POSITION": 18
          },
          "indices": 19,
          "mode": 4
        }
      ]
    },
    {
      "name": "cart_3",
      "primitives": [
        {
          "attributes": {
            "POSITION": 20
          },
          "indices": 21,
          "mode": 4
        }
      ]
    },
    {
      "name": "cart_rail_1",
      "primitives": [
        {
          "attributes": {
            "POSITION": 22
          },
          "indices": 23,
          "mode": 4
        }
      ]
    },
    {
      "name": "cart_rail_2",
      "primitives": [
        {
          "attributes": {
            "POSITION": 24
          },
          "indices": 25,
          "mode": 4
        }
      ]
    },
    {
      "name": "cart_rail_3",
      "primitives": [
        {
          "attributes": {
            "POSITION": 26
          },
          "indices": 27,
          "mode": 4
        }
      ]
    },
    {
      "name": "cart_rail_1b",
      "primitives": [
        {
          "attributes": {
            "POSITION": 28
          },
          "indices": 29,
          "mode": 4
        }
      ]
    },
    {
      "name": "cart_rail_2b",
      "primitives": [
        {
          "attributes": {
            "POSITION": 30
          },
          "indices": 31,
          "mode": 4
        }
      ]
    },
    {
      "name": "cart_rail_3b",
      "primitives": [
        {
          "attributes": {
            "POSITION": 32
          },
          "indices": 33,
          "mode": 4
        }
      ]
    },
    {
      "name": "cart_gate_1",
      "primitives": [
        {
          "attributes": {
            "POSITION": 34
          },
          "indices": 35,
          "mode": 4
        }
      ]
    },
    {
      "name": "cart_gate_2",
      "primitives": [
        {
          "attributes": {
            "POSITION": 36
          },
          "indices": 37,
          "mode": 4
        }
      ]
    },
    {
      "name": "cart_gate_3",
      "primitives": [
        {
          "attributes": {
            "POSITION": 38
          },
          "indices": 39,
          "mode": 4
        }
      ]
    },
    {
      "name": "cargo_1",
      "primitives": [
        {
          "attributes": {
            "POSITION": 40
          },
          "indices": 41,
          "mode": 4
        }
      ]
    },
    {
      "name": "cargo_2",
      "primitives": [
        {
          "attributes": {
            "POSITION": 42
          },
          "indices": 43,
          "mode": 4
        }
      ]
    },
    {
      "name": "cargo_3",
      "primitives": [
        {
          "attributes": {
            "POSITION": 44
          },
          "indices": 45,
          "mode": 4
        }
      ]
    },
    {
      "name": "cargo_tag_1",
      "primitives": [
        {
          "attributes": {
            "POSITION": 46
          },
          "indices": 47,
          "mode": 4
        }
      ]
    },
    {
      "name": "cargo_tag_2",
      "primitives": [
        {
          "attributes": {
            "POSITION": 48
          },
          "indices": 49,
          "mode": 4
        }
      ]
    },
    {
      "name": "hitch_1",
      "primitives": [
        {
          "attributes": {
            "POSITION": 50
          },
          "indices": 51,
          "mode": 4
        }
      ]
    },
    {
      "name": "hitch_2",
      "primitives": [
        {
          "attributes": {
            "POSITION": 52
          },
          "indices": 53,
          "mode": 4
        }
      ]
    },
    {
      "name": "hitch_3",
      "primitives": [
        {
          "attributes": {
            "POSITION": 54
          },
          "indices": 55,
          "mode": 4
        }
      ]
    },
    {
      "name": "wheel_fl",
      "primitives": [
        {
          "attributes": {
            "POSITION": 56
          },
          "indices": 57,
          "mode": 4
        }
      ]
    },
    {
      "name": "wheel_fr",
      "primitives": [
        {
          "attributes": {
            "POSITION": 58
          },
          "indices": 59,
          "mode": 4
        }
      ]
    },
    {
      "name": "wheel_rl",
      "primitives": [
        {
          "attributes": {
            "POSITION": 60
          },
          "indices": 61,
          "mode": 4
        }
      ]
    },
    {
      "name": "wheel_rr",
      "primitives": [
        {
          "attributes": {
            "POSITION": 62
          },
          "indices": 63,
          "mode": 4
        }
      ]
    },
    {
      "name": "cart_wheel_1l",
      "primitives": [
        {
          "attributes": {
            "POSITION": 64
          },
          "indices": 65,
          "mode": 4
        }
      ]
    },
    {
      "name": "cart_wheel_1r",
      "primitives": [
        {
          "attributes": {
            "POSITION": 66
          },
          "indices": 67,
          "mode": 4
        }
      ]
    },
    {
      "name": "cart_wheel_2l",
      "primitives": [
        {
          "attributes": {
            "POSITION": 68
          },
          "indices": 69,
          "mode": 4
        }
      ]
    },
    {
      "name": "cart_wheel_2r",
      "primitives": [
        {
          "attributes": {
            "POSITION": 70
          },
          "indices": 71,
          "mode": 4
        }
      ]
    },
    {
      "name": "cart_wheel_3l",
      "primitives": [
        {
          "attributes": {
            "POSITION": 72
          },
          "indices": 73,
          "mode": 4
        }
      ]
    },
    {
      "name": "cart_wheel_3r",
      "primitives": [
        {
          "attributes": {
            "POSITION": 74
          },
          "indices": 75,
          "mode": 4
        }
      ]
    },
    {
      "name": "beacon",
      "primitives": [
        {
          "attributes": {
            "POSITION": 76
          },
          "indices": 77,
          "mode": 4
        }
      ]
    },
    {
      "name": "headlight_l",
      "primitives": [
        {
          "attributes": {
            "POSITION": 78
          },
          "indices": 79,
          "mode": 4
        }
      ]
    },
    {
      "name": "headlight_r",
      "primitives": [
        {
          "attributes": {
            "POSITION": 80
          },
          "indices": 81,
          "mode": 4
        }
      ]
    },
    {
      "name": "taillight_l",
      "primitives": [
        {
          "attributes": {
            "POSITION": 82
          },
          "indices": 83,
          "mode": 4
        }
      ]
    },
    {
      "name": "taillight_r",
      "primitives": [
        {
          "attributes": {
            "POSITION": 84
          },
          "indices": 85,
          "mode": 4
        }
      ]
    },
    {
      "name": "counterweight",
      "primitives": [
        {
          "attributes": {
            "POSITION": 86
          },
          "indices": 87,
          "mode": 4
        }
      ]
    },
    {
      "name": "number_plate",
      "primitives": [
        {
          "attributes": {
            "POSITION": 88
          },
          "indices": 89,
          "mode": 4
        }
      ]
    }
  ],
  "nodes": [
    {
      "name": "tug",
      "mesh": 0
    },
    {
      "name": "tug_cab",
      "mesh": 1
    },
    {
      "name": "tug_window",
      "mesh": 2
    },
    {
      "name": "tug_bumper",
      "mesh": 3
    },
    {
      "name": "tug_seat",
      "mesh": 4
    },
    {
      "name": "tug_rollbar",
      "mesh": 5
    },
    {
      "name": "tug_floor",
      "mesh": 6
    },
    {
      "name": "tug_steering",
      "mesh": 7
    },
    {
      "name": "cart_1",
      "mesh": 8
    },
    {
      "name": "cart_2",
      "mesh": 9
    },
    {
      "name": "cart_3",
      "mesh": 10
    },
    {
      "name": "cart_rail_1",
      "mesh": 11
    },
    {
      "name": "cart_rail_2",
      "mesh": 12
    },
    {
      "name": "cart_rail_3",
      "mesh": 13
    },
    {
      "name": "cart_rail_1b",
      "mesh": 14
    },
    {
      "name": "cart_rail_2b",
      "mesh": 15
    },
    {
      "name": "cart_rail_3b",
      "mesh": 16
    },
    {
      "name": "cart_gate_1",
      "mesh": 17
    },
    {
      "name": "cart_gate_2",
      "mesh": 18
    },
    {
      "name": "cart_gate_3",
      "mesh": 19
    },
    {
      "name": "cargo_1",
      "mesh": 20
    },
    {
      "name": "cargo_2",
      "mesh": 21
    },
    {
      "name": "cargo_3",
      "mesh": 22
    },
    {
      "name": "cargo_tag_1",
      "mesh": 23
    },
    {
      "name": "cargo_tag_2",
      "mesh": 24
    },
    {
      "name": "hitch_1",
      "mesh": 25
    },
    {
      "name": "hitch_2",
      "mesh": 26
    },
    {
      "name": "hitch_3",
      "mesh": 27
    },
    {
      "name": "wheel_fl",
      "mesh": 28
    },
    {
      "name": "wheel_fr",
      "mesh": 29
    },
    {
      "name": "wheel_rl",
      "mesh": 30
    },
    {
      "name": "wheel_rr",
      "mesh": 31
    },
    {
      "name": "cart_wheel_1l",
      "mesh": 32
    },
    {
      "name": "cart_wheel_1r",
      "mesh": 33
    },
    {
      "name": "cart_wheel_2l",
      "mesh": 34
    },
    {
      "name": "cart_wheel_2r",
      "mesh": 35
    },
    {
      "name": "cart_wheel_3l",
      "mesh": 36
    },
    {
      "name": "cart_wheel_3r",
      "mesh": 37
    },
    {
      "name": "beacon",
      "mesh": 38
    },
    {
      "name": "headlight_l",
      "mesh": 39
    },
    {
      "name": "headlight_r",
      "mesh": 40
    },
    {
      "name": "taillight_l",
      "mesh": 41
    },
    {
      "name": "taillight_r",
      "mesh": 42
    },
    {
      "name": "counterweight",
      "mesh": 43
    },
    {
      "name": "number_plate",
      "mesh": 44
    }
  ],
  "scenes": [
    {
      "name": "mdl_baggage_tug_train_authored_v01",
      "nodes": [
        0,
        1,
        2,
        3,
        4,
        5,
        6,
        7,
        8,
        9,
        10,
        11,
        12,
        13,
        14,
        15,
        16,
        17,
        18,
        19,
        20,
        21,
        22,
        23,
        24,
        25,
        26,
        27,
        28,
        29,
        30,
        31,
        32,
        33,
        34,
        35,
        36,
        37,
        38,
        39,
        40,
        41,
        42,
        43,
        44
      ]
    }
  ],
  "scene": 0
}