{
  "asset": {
    "version": "2.0",
    "generator": "Airside Batch C procedural kit"
  },
  "buffers": [
    {
      "uri": "mdl_fuel_truck_small_v06.bin",
      "byteLength": 100152
    }
  ],
  "bufferViews": [
    {
      "buffer": 0,
      "byteOffset": 0,
      "byteLength": 288,
      "target": 34962
    },
    {
      "buffer": 0,
      "byteOffset": 288,
      "byteLength": 72,
      "target": 34963
    },
    {
      "buffer": 0,
      "byteOffset": 360,
      "byteLength": 288,
      "target": 34962
    },
    {
      "buffer": 0,
      "byteOffset": 648,
      "byteLength": 72,
      "target": 34963
    },
    {
      "buffer": 0,
      "byteOffset": 720,
      "byteLength": 288,
      "target": 34962
    },
    {
      "buffer": 0,
      "byteOffset": 1008,
      "byteLength": 72,
      "target": 34963
    },
    {
      "buffer": 0,
      "byteOffset": 1080,
      "byteLength": 288,
      "target": 34962
    },
    {
      "buffer": 0,
      "byteOffset": 1368,
      "byteLength": 72,
      "target": 34963
    },
    {
      "buffer": 0,
      "byteOffset": 1440,
      "byteLength": 288,
      "target": 34962
    },
    {
      "buffer": 0,
      "byteOffset": 1728,
      "byteLength": 72,
      "target": 34963
    },
    {
      "buffer": 0,
      "byteOffset": 1800,
      "byteLength": 288,
      "target": 34962
    },
    {
      "buffer": 0,
      "byteOffset": 2088,
      "byteLength": 72,
      "target": 34963
    },
    {
      "buffer": 0,
      "byteOffset": 2160,
      "byteLength": 288,
      "target": 34962
    },
    {
      "buffer": 0,
      "byteOffset": 2448,
      "byteLength": 72,
      "target": 34963
    },
    {
      "buffer": 0,
      "byteOffset": 2520,
      "byteLength": 288,
      "target": 34962
    },
    {
      "buffer": 0,
      "byteOffset": 2808,
      "byteLength": 72,
      "target": 34963
    },
    {
      "buffer": 0,
      "byteOffset": 2880,
      "byteLength": 288,
      "target": 34962
    },
    {
      "buffer": 0,
      "byteOffset": 3168,
      "byteLength": 72,
      "target": 34963
    },
    {
      "buffer": 0,
      "byteOffset": 3240,
      "byteLength": 288,
      "target": 34962
    },
    {
      "buffer": 0,
      "byteOffset": 3528,
      "byteLength": 72,
      "target": 34963
    },
    {
      "buffer": 0,
      "byteOffset": 3600,
      "byteLength": 288,
      "target": 34962
    },
    {
      "buffer": 0,
      "byteOffset": 3888,
      "byteLength": 72,
      "target": 34963
    },
    {
      "buffer": 0,
      "byteOffset": 3960,
      "byteLength": 19008,
      "target": 34962
    },
    {
      "buffer": 0,
      "byteOffset": 22968,
      "byteLength": 4608,
      "target": 34963
    },
    {
      "buffer": 0,
      "byteOffset": 27576,
      "byteLength": 2400,
      "target": 34962
    },
    {
      "buffer": 0,
      "byteOffset": 29976,
      "byteLength": 480,
      "target": 34963
    },
    {
      "buffer": 0,
      "byteOffset": 30456,
      "byteLength": 2400,
      "target": 34962
    },
    {
      "buffer": 0,
      "byteOffset": 32856,
      "byteLength": 480,
      "target": 34963
    },
    {
      "buffer": 0,
      "byteOffset": 33336,
      "byteLength": 288,
      "target": 34962
    },
    {
      "buffer": 0,
      "byteOffset": 33624,
      "byteLength": 72,
      "target": 34963
    },
    {
      "buffer": 0,
      "byteOffset": 33696,
      "byteLength": 288,
      "target": 34962
    },
    {
      "buffer": 0,
      "byteOffset": 33984,
      "byteLength": 72,
      "target": 34963
    },
    {
      "buffer": 0,
      "byteOffset": 34056,
      "byteLength": 288,
      "target": 34962
    },
    {
      "buffer": 0,
      "byteOffset": 34344,
      "byteLength": 72,
      "target": 34963
    },
    {
      "buffer": 0,
      "byteOffset": 34416,
      "byteLength": 288,
      "target": 34962
    },
    {
      "buffer": 0,
      "byteOffset": 34704,
      "byteLength": 72,
      "target": 34963
    },
    {
      "buffer": 0,
      "byteOffset": 34776,
      "byteLength": 1440,
      "target": 34962
    },
    {
      "buffer": 0,
      "byteOffset": 36216,
      "byteLength": 288,
      "target": 34963
    },
    {
      "buffer": 0,
      "byteOffset": 36504,
      "byteLength": 1200,
      "target": 34962
    },
    {
      "buffer": 0,
      "byteOffset": 37704,
      "byteLength": 240,
      "target": 34963
    },
    {
      "buffer": 0,
      "byteOffset": 37944,
      "byteLength": 960,
      "target": 34962
    },
    {
      "buffer": 0,
      "byteOffset": 38904,
      "byteLength": 192,
      "target": 34963
    },
    {
      "buffer": 0,
      "byteOffset": 39096,
      "byteLength": 288,
      "target": 34962
    },
    {
      "buffer": 0,
      "byteOffset": 39384,
      "byteLength": 72,
      "target": 34963
    },
    {
      "buffer": 0,
      "byteOffset": 39456,
      "byteLength": 288,
      "target": 34962
    },
    {
      "buffer": 0,
      "byteOffset": 39744,
      "byteLength": 72,
      "target": 34963
    },
    {
      "buffer": 0,
      "byteOffset": 39816,
      "byteLength": 288,
      "target": 34962
    },
    {
      "buffer": 0,
      "byteOffset": 40104,
      "byteLength": 72,
      "target": 34963
    },
    {
      "buffer": 0,
      "byteOffset": 40176,
      "byteLength": 288,
      "target": 34962
    },
    {
      "buffer": 0,
      "byteOffset": 40464,
      "byteLength": 72,
      "target": 34963
    },
    {
      "buffer": 0,
      "byteOffset": 40536,
      "byteLength": 288,
      "target": 34962
    },
    {
      "buffer": 0,
      "byteOffset": 40824,
      "byteLength": 72,
      "target": 34963
    },
    {
      "buffer": 0,
      "byteOffset": 40896,
      "byteLength": 288,
      "target": 34962
    },
    {
      "buffer": 0,
      "byteOffset": 41184,
      "byteLength": 72,
      "target": 34963
    },
    {
      "buffer": 0,
      "byteOffset": 41256,
      "byteLength": 288,
      "target": 34962
    },
    {
      "buffer": 0,
      "byteOffset": 41544,
      "byteLength": 72,
      "target": 34963
    },
    {
      "buffer": 0,
      "byteOffset": 41616,
      "byteLength": 288,
      "target": 34962
    },
    {
      "buffer": 0,
      "byteOffset": 41904,
      "byteLength": 72,
      "target": 34963
    },
    {
      "buffer": 0,
      "byteOffset": 41976,
      "byteLength": 288,
      "target": 34962
    },
    {
      "buffer": 0,
      "byteOffset": 42264,
      "byteLength": 72,
      "target": 34963
    },
    {
      "buffer": 0,
      "byteOffset": 42336,
      "byteLength": 288,
      "target": 34962
    },
    {
      "buffer": 0,
      "byteOffset": 42624,
      "byteLength": 72,
      "target": 34963
    },
    {
      "buffer": 0,
      "byteOffset": 42696,
      "byteLength": 288,
      "target": 34962
    },
    {
      "buffer": 0,
      "byteOffset": 42984,
      "byteLength": 72,
      "target": 34963
    },
    {
      "buffer": 0,
      "byteOffset": 43056,
      "byteLength": 288,
      "target": 34962
    },
    {
      "buffer": 0,
      "byteOffset": 43344,
      "byteLength": 72,
      "target": 34963
    },
    {
      "buffer": 0,
      "byteOffset": 43416,
      "byteLength": 288,
      "target": 34962
    },
    {
      "buffer": 0,
      "byteOffset": 43704,
      "byteLength": 72,
      "target": 34963
    },
    {
      "buffer": 0,
      "byteOffset": 43776,
      "byteLength": 1920,
      "target": 34962
    },
    {
      "buffer": 0,
      "byteOffset": 45696,
      "byteLength": 384,
      "target": 34963
    },
    {
      "buffer": 0,
      "byteOffset": 46080,
      "byteLength": 1920,
      "target": 34962
    },
    {
      "buffer": 0,
      "byteOffset": 48000,
      "byteLength": 384,
      "target": 34963
    },
    {
      "buffer": 0,
      "byteOffset": 48384,
      "byteLength": 1920,
      "target": 34962
    },
    {
      "buffer": 0,
      "byteOffset": 50304,
      "byteLength": 384,
      "target": 34963
    },
    {
      "buffer": 0,
      "byteOffset": 50688,
      "byteLength": 1920,
      "target": 34962
    },
    {
      "buffer": 0,
      "byteOffset": 52608,
      "byteLength": 384,
      "target": 34963
    },
    {
      "buffer": 0,
      "byteOffset": 52992,
      "byteLength": 1200,
      "target": 34962
    },
    {
      "buffer": 0,
      "byteOffset": 54192,
      "byteLength": 240,
      "target": 34963
    },
    {
      "buffer": 0,
      "byteOffset": 54432,
      "byteLength": 1200,
      "target": 34962
    },
    {
      "buffer": 0,
      "byteOffset": 55632,
      "byteLength": 240,
      "target": 34963
    },
    {
      "buffer": 0,
      "byteOffset": 55872,
      "byteLength": 1200,
      "target": 34962
    },
    {
      "buffer": 0,
      "byteOffset": 57072,
      "byteLength": 240,
      "target": 34963
    },
    {
      "buffer": 0,
      "byteOffset": 57312,
      "byteLength": 1200,
      "target": 34962
    },
    {
      "buffer": 0,
      "byteOffset": 58512,
      "byteLength": 240,
      "target": 34963
    },
    {
      "buffer": 0,
      "byteOffset": 58752,
      "byteLength": 288,
      "target": 34962
    },
    {
      "buffer": 0,
      "byteOffset": 59040,
      "byteLength": 72,
      "target": 34963
    },
    {
      "buffer": 0,
      "byteOffset": 59112,
      "byteLength": 288,
      "target": 34962
    },
    {
      "buffer": 0,
      "byteOffset": 59400,
      "byteLength": 72,
      "target": 34963
    },
    {
      "buffer": 0,
      "byteOffset": 59472,
      "byteLength": 1680,
      "target": 34962
    },
    {
      "buffer": 0,
      "byteOffset": 61152,
      "byteLength": 336,
      "target": 34963
    },
    {
      "buffer": 0,
      "byteOffset": 61488,
      "byteLength": 288,
      "target": 34962
    },
    {
      "buffer": 0,
      "byteOffset": 61776,
      "byteLength": 72,
      "target": 34963
    },
    {
      "buffer": 0,
      "byteOffset": 61848,
      "byteLength": 1680,
      "target": 34962
    },
    {
      "buffer": 0,
      "byteOffset": 63528,
      "byteLength": 336,
      "target": 34963
    },
    {
      "buffer": 0,
      "byteOffset": 63864,
      "byteLength": 1440,
      "target": 34962
    },
    {
      "buffer": 0,
      "byteOffset": 65304,
      "byteLength": 288,
      "target": 34963
    },
    {
      "buffer": 0,
      "byteOffset": 65592,
      "byteLength": 1440,
      "target": 34962
    },
    {
      "buffer": 0,
      "byteOffset": 67032,
      "byteLength": 288,
      "target": 34963
    },
    {
      "buffer": 0,
      "byteOffset": 67320,
      "byteLength": 1440,
      "target": 34962
    },
    {
      "buffer": 0,
      "byteOffset": 68760,
      "byteLength": 288,
      "target": 34963
    },
    {
      "buffer": 0,
      "byteOffset": 69048,
      "byteLength": 1440,
      "target": 34962
    },
    {
      "buffer": 0,
      "byteOffset": 70488,
      "byteLength": 288,
      "target": 34963
    },
    {
      "buffer": 0,
      "byteOffset": 70776,
      "byteLength": 288,
      "target": 34962
    },
    {
      "buffer": 0,
      "byteOffset": 71064,
      "byteLength": 72,
      "target": 34963
    },
    {
      "buffer": 0,
      "byteOffset": 71136,
      "byteLength": 288,
      "target": 34962
    },
    {
      "buffer": 0,
      "byteOffset": 71424,
      "byteLength": 72,
      "target": 34963
    },
    {
      "buffer": 0,
      "byteOffset": 71496,
      "byteLength": 288,
      "target": 34962
    },
    {
      "buffer": 0,
      "byteOffset": 71784,
      "byteLength": 72,
      "target": 34963
    },
    {
      "buffer": 0,
      "byteOffset": 71856,
      "byteLength": 288,
      "target": 34962
    },
    {
      "buffer": 0,
      "byteOffset": 72144,
      "byteLength": 72,
      "target": 34963
    },
    {
      "buffer": 0,
      "byteOffset": 72216,
      "byteLength": 288,
      "target": 34962
    },
    {
      "buffer": 0,
      "byteOffset": 72504,
      "byteLength": 72,
      "target": 34963
    },
    {
      "buffer": 0,
      "byteOffset": 72576,
      "byteLength": 288,
      "target": 34962
    },
    {
      "buffer": 0,
      "byteOffset": 72864,
      "byteLength": 72,
      "target": 34963
    },
    {
      "buffer": 0,
      "byteOffset": 72936,
      "byteLength": 960,
      "target": 34962
    },
    {
      "buffer": 0,
      "byteOffset": 73896,
      "byteLength": 192,
      "target": 34963
    },
    {
      "buffer": 0,
      "byteOffset": 74088,
      "byteLength": 288,
      "target": 34962
    },
    {
      "buffer": 0,
      "byteOffset": 74376,
      "byteLength": 72,
      "target": 34963
    },
    {
      "buffer": 0,
      "byteOffset": 74448,
      "byteLength": 288,
      "target": 34962
    },
    {
      "buffer": 0,
      "byteOffset": 74736,
      "byteLength": 72,
      "target": 34963
    },
    {
      "buffer": 0,
      "byteOffset": 74808,
      "byteLength": 288,
      "target": 34962
    },
    {
      "buffer": 0,
      "byteOffset": 75096,
      "byteLength": 72,
      "target": 34963
    },
    {
      "buffer": 0,
      "byteOffset": 75168,
      "byteLength": 288,
      "target": 34962
    },
    {
      "buffer": 0,
      "byteOffset": 75456,
      "byteLength": 72,
      "target": 34963
    },
    {
      "buffer": 0,
      "byteOffset": 75528,
      "byteLength": 288,
      "target": 34962
    },
    {
      "buffer": 0,
      "byteOffset": 75816,
      "byteLength": 72,
      "target": 34963
    },
    {
      "buffer": 0,
      "byteOffset": 75888,
      "byteLength": 288,
      "target": 34962
    },
    {
      "buffer": 0,
      "byteOffset": 76176,
      "byteLength": 72,
      "target": 34963
    },
    {
      "buffer": 0,
      "byteOffset": 76248,
      "byteLength": 288,
      "target": 34962
    },
    {
      "buffer": 0,
      "byteOffset": 76536,
      "byteLength": 72,
      "target": 34963
    },
    {
      "buffer": 0,
      "byteOffset": 76608,
      "byteLength": 288,
      "target": 34962
    },
    {
      "buffer": 0,
      "byteOffset": 76896,
      "byteLength": 72,
      "target": 34963
    },
    {
      "buffer": 0,
      "byteOffset": 76968,
      "byteLength": 288,
      "target": 34962
    },
    {
      "buffer": 0,
      "byteOffset": 77256,
      "byteLength": 72,
      "target": 34963
    },
    {
      "buffer": 0,
      "byteOffset": 77328,
      "byteLength": 288,
      "target": 34962
    },
    {
      "buffer": 0,
      "byteOffset": 77616,
      "byteLength": 72,
      "target": 34963
    },
    {
      "buffer": 0,
      "byteOffset": 77688,
      "byteLength": 288,
      "target": 34962
    },
    {
      "buffer": 0,
      "byteOffset": 77976,
      "byteLength": 72,
      "target": 34963
    },
    {
      "buffer": 0,
      "byteOffset": 78048,
      "byteLength": 288,
      "target": 34962
    },
    {
      "buffer": 0,
      "byteOffset": 78336,
      "byteLength": 72,
      "target": 34963
    },
    {
      "buffer": 0,
      "byteOffset": 78408,
      "byteLength": 288,
      "target": 34962
    },
    {
      "buffer": 0,
      "byteOffset": 78696,
      "byteLength": 72,
      "target": 34963
    },
    {
      "buffer": 0,
      "byteOffset": 78768,
      "byteLength": 288,
      "target": 34962
    },
    {
      "buffer": 0,
      "byteOffset": 79056,
      "byteLength": 72,
      "target": 34963
    },
    {
      "buffer": 0,
      "byteOffset": 79128,
      "byteLength": 288,
      "target": 34962
    },
    {
      "buffer": 0,
      "byteOffset": 79416,
      "byteLength": 72,
      "target": 34963
    },
    {
      "buffer": 0,
      "byteOffset": 79488,
      "byteLength": 960,
      "target": 34962
    },
    {
      "buffer": 0,
      "byteOffset": 80448,
      "byteLength": 192,
      "target": 34963
    },
    {
      "buffer": 0,
      "byteOffset": 80640,
      "byteLength": 288,
      "target": 34962
    },
    {
      "buffer": 0,
      "byteOffset": 80928,
      "byteLength": 72,
      "target": 34963
    },
    {
      "buffer": 0,
      "byteOffset": 81000,
      "byteLength": 288,
      "target": 34962
    },
    {
      "buffer": 0,
      "byteOffset": 81288,
      "byteLength": 72,
      "target": 34963
    },
    {
      "buffer": 0,
      "byteOffset": 81360,
      "byteLength": 288,
      "target": 34962
    },
    {
      "buffer": 0,
      "byteOffset": 81648,
      "byteLength": 72,
      "target": 34963
    },
    {
      "buffer": 0,
      "byteOffset": 81720,
      "byteLength": 288,
      "target": 34962
    },
    {
      "buffer": 0,
      "byteOffset": 82008,
      "byteLength": 72,
      "target": 34963
    },
    {
      "buffer": 0,
      "byteOffset": 82080,
      "byteLength": 288,
      "target": 34962
    },
    {
      "buffer": 0,
      "byteOffset": 82368,
      "byteLength": 72,
      "target": 34963
    },
    {
      "buffer": 0,
      "byteOffset": 82440,
      "byteLength": 288,
      "target": 34962
    },
    {
      "buffer": 0,
      "byteOffset": 82728,
      "byteLength": 72,
      "target": 34963
    },
    {
      "buffer": 0,
      "byteOffset": 82800,
      "byteLength": 288,
      "target": 34962
    },
    {
      "buffer": 0,
      "byteOffset": 83088,
      "byteLength": 72,
      "target": 34963
    },
    {
      "buffer": 0,
      "byteOffset": 83160,
      "byteLength": 288,
      "target": 34962
    },
    {
      "buffer": 0,
      "byteOffset": 83448,
      "byteLength": 72,
      "target": 34963
    },
    {
      "buffer": 0,
      "byteOffset": 83520,
      "byteLength": 288,
      "target": 34962
    },
    {
      "buffer": 0,
      "byteOffset": 83808,
      "byteLength": 72,
      "target": 34963
    },
    {
      "buffer": 0,
      "byteOffset": 83880,
      "byteLength": 288,
      "target": 34962
    },
    {
      "buffer": 0,
      "byteOffset": 84168,
      "byteLength": 72,
      "target": 34963
    },
    {
      "buffer": 0,
      "byteOffset": 84240,
      "byteLength": 288,
      "target": 34962
    },
    {
      "buffer": 0,
      "byteOffset": 84528,
      "byteLength": 72,
      "target": 34963
    },
    {
      "buffer": 0,
      "byteOffset": 84600,
      "byteLength": 288,
      "target": 34962
    },
    {
      "buffer": 0,
      "byteOffset": 84888,
      "byteLength": 72,
      "target": 34963
    },
    {
      "buffer": 0,
      "byteOffset": 84960,
      "byteLength": 288,
      "target": 34962
    },
    {
      "buffer": 0,
      "byteOffset": 85248,
      "byteLength": 72,
      "target": 34963
    },
    {
      "buffer": 0,
      "byteOffset": 85320,
      "byteLength": 288,
      "target": 34962
    },
    {
      "buffer": 0,
      "byteOffset": 85608,
      "byteLength": 72,
      "target": 34963
    },
    {
      "buffer": 0,
      "byteOffset": 85680,
      "byteLength": 288,
      "target": 34962
    },
    {
      "buffer": 0,
      "byteOffset": 85968,
      "byteLength": 72,
      "target": 34963
    },
    {
      "buffer": 0,
      "byteOffset": 86040,
      "byteLength": 288,
      "target": 34962
    },
    {
      "buffer": 0,
      "byteOffset": 86328,
      "byteLength": 72,
      "target": 34963
    },
    {
      "buffer": 0,
      "byteOffset": 86400,
      "byteLength": 288,
      "target": 34962
    },
    {
      "buffer": 0,
      "byteOffset": 86688,
      "byteLength": 72,
      "target": 34963
    },
    {
      "buffer": 0,
      "byteOffset": 86760,
      "byteLength": 1920,
      "target": 34962
    },
    {
      "buffer": 0,
      "byteOffset": 88680,
      "byteLength": 384,
      "target": 34963
    },
    {
      "buffer": 0,
      "byteOffset": 89064,
      "byteLength": 1920,
      "target": 34962
    },
    {
      "buffer": 0,
      "byteOffset": 90984,
      "byteLength": 384,
      "target": 34963
    },
    {
      "buffer": 0,
      "byteOffset": 91368,
      "byteLength": 1920,
      "target": 34962
    },
    {
      "buffer": 0,
      "byteOffset": 93288,
      "byteLength": 384,
      "target": 34963
    },
    {
      "buffer": 0,
      "byteOffset": 93672,
      "byteLength": 1200,
      "target": 34962
    },
    {
      "buffer": 0,
      "byteOffset": 94872,
      "byteLength": 240,
      "target": 34963
    },
    {
      "buffer": 0,
      "byteOffset": 95112,
      "byteLength": 1200,
      "target": 34962
    },
    {
      "buffer": 0,
      "byteOffset": 96312,
      "byteLength": 240,
      "target": 34963
    },
    {
      "buffer": 0,
      "byteOffset": 96552,
      "byteLength": 288,
      "target": 34962
    },
    {
      "buffer": 0,
      "byteOffset": 96840,
      "byteLength": 72,
      "target": 34963
    },
    {
      "buffer": 0,
      "byteOffset": 96912,
      "byteLength": 288,
      "target": 34962
    },
    {
      "buffer": 0,
      "byteOffset": 97200,
      "byteLength": 72,
      "target": 34963
    },
    {
      "buffer": 0,
      "byteOffset": 97272,
      "byteLength": 1200,
      "target": 34962
    },
    {
      "buffer": 0,
      "byteOffset": 98472,
      "byteLength": 240,
      "target": 34963
    },
    {
      "buffer": 0,
      "byteOffset": 98712,
      "byteLength": 288,
      "target": 34962
    },
    {
      "buffer": 0,
      "byteOffset": 99000,
      "byteLength": 72,
      "target": 34963
    },
    {
      "buffer": 0,
      "byteOffset": 99072,
      "byteLength": 288,
      "target": 34962
    },
    {
      "buffer": 0,
      "byteOffset": 99360,
      "byteLength": 72,
      "target": 34963
    },
    {
      "buffer": 0,
      "byteOffset": 99432,
      "byteLength": 288,
      "target": 34962
    },
    {
      "buffer": 0,
      "byteOffset": 99720,
      "byteLength": 72,
      "target": 34963
    },
    {
      "buffer": 0,
      "byteOffset": 99792,
      "byteLength": 288,
      "target": 34962
    },
    {
      "buffer": 0,
      "byteOffset": 100080,
      "byteLength": 72,
      "target": 34963
    }
  ],
  "accessors": [
    {
      "bufferView": 0,
      "componentType": 5126,
      "count": 24,
      "type": "VEC3",
      "max": [
        1.8250000476837158,
        1.725000023841858,
        0.800000011920929
      ],
      "min": [
        0.2750000059604645,
        0.17499999701976776,
        -0.800000011920929
      ]
    },
    {
      "bufferView": 1,
      "componentType": 5123,
      "count": 36,
      "type": "SCALAR"
    },
    {
      "bufferView": 2,
      "componentType": 5126,
      "count": 24,
      "type": "VEC3",
      "max": [
        1.7599999904632568,
        1.8899999856948853,
        0.7099999785423279
      ],
      "min": [
        0.3400000035762787,
        1.75,
        -0.7099999785423279
      ]
    },
    {
      "bufferView": 3,
      "componentType": 5123,
      "count": 36,
      "type": "SCALAR"
    },
    {
      "bufferView": 4,
      "componentType": 5126,
      "count": 24,
      "type": "VEC3",
      "max": [
        1.8200000524520874,
        1.6200000047683716,
        0.675000011920929
      ],
      "min": [
        1.4199999570846558,
        1.5399999618530273,
        -0.675000011920929
      ]
    },
    {
      "bufferView": 5,
      "componentType": 5123,
      "count": 36,
      "type": "SCALAR"
    },
    {
      "bufferView": 6,
      "componentType": 5126,
      "count": 24,
      "type": "VEC3",
      "max": [
        1.6799999475479126,
        1.6699999570846558,
        0.6399999856948853
      ],
      "min": [
        1.6399999856948853,
        0.8899999856948853,
        -0.6399999856948853
      ]
    },
    {
      "bufferView": 7,
      "componentType": 5123,
      "count": 36,
      "type": "SCALAR"
    },
    {
      "bufferView": 8,
      "componentType": 5126,
      "count": 24,
      "type": "VEC3",
      "max": [
        1.6749999523162842,
        1.5750000476837158,
        0.8600000143051147
      ],
      "min": [
        0.42500001192092896,
        0.32499998807907104,
        0.7799999713897705
      ]
    },
    {
      "bufferView": 9,
      "componentType": 5123,
      "count": 36,
      "type": "SCALAR"
    },
    {
      "bufferView": 10,
      "componentType": 5126,
      "count": 24,
      "type": "VEC3",
      "max": [
        1.6749999523162842,
        1.5750000476837158,
        -0.7799999713897705
      ],
      "min": [
        0.42500001192092896,
        0.32499998807907104,
        -0.8600000143051147
      ]
    },
    {
      "bufferView": 11,
      "componentType": 5123,
      "count": 36,
      "type": "SCALAR"
    },
    {
      "bufferView": 12,
      "componentType": 5126,
      "count": 24,
      "type": "VEC3",
      "max": [
        1.409999966621399,
        1.5099999904632568,
        0.8600000143051147
      ],
      "min": [
        0.6899999976158142,
        0.9300000071525574,
        0.8199999928474426
      ]
    },
    {
      "bufferView": 13,
      "componentType": 5123,
      "count": 36,
      "type": "SCALAR"
    },
    {
      "bufferView": 14,
      "componentType": 5126,
      "count": 24,
      "type": "VEC3",
      "max": [
        1.409999966621399,
        1.5099999904632568,
        -0.8199999928474426
      ],
      "min": [
        0.6899999976158142,
        0.9300000071525574,
        -0.8600000143051147
      ]
    },
    {
      "bufferView": 15,
      "componentType": 5123,
      "count": 36,
      "type": "SCALAR"
    },
    {
      "bufferView": 16,
      "componentType": 5126,
      "count": 24,
      "type": "VEC3",
      "max": [
        1.4199999570846558,
        1.0299999713897705,
        0.9049999713897705
      ],
      "min": [
        1.340000033378601,
        0.8700000047683716,
        0.8550000190734863
      ]
    },
    {
      "bufferView": 17,
      "componentType": 5123,
      "count": 36,
      "type": "SCALAR"
    },
    {
      "bufferView": 18,
      "componentType": 5126,
      "count": 24,
      "type": "VEC3",
      "max": [
        1.4199999570846558,
        1.0299999713897705,
        -0.8550000190734863
      ],
      "min": [
        1.340000033378601,
        0.8700000047683716,
        -0.9049999713897705
      ]
    },
    {
      "bufferView": 19,
      "componentType": 5123,
      "count": 36,
      "type": "SCALAR"
    },
    {
      "bufferView": 20,
      "componentType": 5126,
      "count": 24,
      "type": "VEC3",
      "max": [
        1.75,
        0.7400000095367432,
        0.8600000143051147
      ],
      "min": [
        0.3499999940395355,
        0.6200000047683716,
        0.8199999928474426
      ]
    },
    {
      "bufferView": 21,
      "componentType": 5123,
      "count": 36,
      "type": "SCALAR"
    },
    {
      "bufferView": 22,
      "componentType": 5126,
      "count": 1584,
      "type": "VEC3",
      "max": [
        0.875,
        1.65975821018219,
        0.7197440266609192
      ],
      "min": [
        -1.875,
        0.30024176836013794,
        -0.7197440266609192
      ]
    },
    {
      "bufferView": 23,
      "componentType": 5123,
      "count": 2304,
      "type": "SCALAR"
    },
    {
      "bufferView": 24,
      "componentType": 5126,
      "count": 200,
      "type": "VEC3",
      "max": [
        0.9900000095367432,
        1.6200000047683716,
        0.6399999856948853
      ],
      "min": [
        0.7699999809265137,
        0.3400000035762787,
        -0.6399999856948853
      ]
    },
    {
      "bufferView": 25,
      "componentType": 5123,
      "count": 240,
      "type": "SCALAR"
    },
    {
      "bufferView": 26,
      "componentType": 5126,
      "count": 200,
      "type": "VEC3",
      "max": [
        -1.7400000095367432,
        1.6200000047683716,
        0.6399999856948853
      ],
      "min": [
        -1.9600000381469727,
        0.3400000035762787,
        -0.6399999856948853
      ]
    },
    {
      "bufferView": 27,
      "componentType": 5123,
      "count": 240,
      "type": "SCALAR"
    },
    {
      "bufferView": 28,
      "componentType": 5126,
      "count": 24,
      "type": "VEC3",
      "max": [
        0.8500000238418579,
        1.0399999618530273,
        0.7099999785423279
      ],
      "min": [
        -1.850000023841858,
        0.8600000143051147,
        -0.7099999785423279
      ]
    },
    {
      "bufferView": 29,
      "componentType": 5123,
      "count": 36,
      "type": "SCALAR"
    },
    {
      "bufferView": 30,
      "componentType": 5126,
      "count": 24,
      "type": "VEC3",
      "max": [
        -0.4300000071525574,
        1.590000033378601,
        0.6399999856948853
      ],
      "min": [
        -0.5699999928474426,
        0.3100000023841858,
        -0.6399999856948853
      ]
    },
    {
      "bufferView": 31,
      "componentType": 5123,
      "count": 36,
      "type": "SCALAR"
    },
    {
      "bufferView": 32,
      "componentType": 5126,
      "count": 24,
      "type": "VEC3",
      "max": [
        0.4099999964237213,
        1.559999942779541,
        0.6100000143051147
      ],
      "min": [
        0.28999999165534973,
        0.3400000035762787,
        -0.6100000143051147
      ]
    },
    {
      "bufferView": 33,
      "componentType": 5123,
      "count": 36,
      "type": "SCALAR"
    },
    {
      "bufferView": 34,
      "componentType": 5126,
      "count": 24,
      "type": "VEC3",
      "max": [
        -1.2400000095367432,
        1.559999942779541,
        0.6100000143051147
      ],
      "min": [
        -1.3600000143051147,
        0.3400000035762787,
        -0.6100000143051147
      ]
    },
    {
      "bufferView": 35,
      "componentType": 5123,
      "count": 36,
      "type": "SCALAR"
    },
    {
      "bufferView": 36,
      "componentType": 5126,
      "count": 120,
      "type": "VEC3",
      "max": [
        -0.2800000011920929,
        1.7100000381469727,
        0.2199999988079071
      ],
      "min": [
        -0.7200000286102295,
        1.529999852180481,
        -0.2199999988079071
      ]
    },
    {
      "bufferView": 37,
      "componentType": 5123,
      "count": 144,
      "type": "SCALAR"
    },
    {
      "bufferView": 38,
      "componentType": 5126,
      "count": 100,
      "type": "VEC3",
      "max": [
        0.46000000834465027,
        1.690000295639038,
        0.15216904878616333
      ],
      "min": [
        0.14000000059604645,
        1.5499999523162842,
        -0.15216904878616333
      ]
    },
    {
      "bufferView": 39,
      "componentType": 5123,
      "count": 120,
      "type": "SCALAR"
    },
    {
      "bufferView": 40,
      "componentType": 5126,
      "count": 80,
      "type": "VEC3",
      "max": [
        -0.07999999821186066,
        1.8000000715255737,
        0.07000000029802322
      ],
      "min": [
        -0.2199999988079071,
        1.6399999856948853,
        -0.07000000029802322
      ]
    },
    {
      "bufferView": 41,
      "componentType": 5123,
      "count": 96,
      "type": "SCALAR"
    },
    {
      "bufferView": 42,
      "componentType": 5126,
      "count": 24,
      "type": "VEC3",
      "max": [
        0.6499999761581421,
        1.5750000476837158,
        0.7400000095367432
      ],
      "min": [
        -1.649999976158142,
        1.524999976158142,
        0.41999998688697815
      ]
    },
    {
      "bufferView": 43,
      "componentType": 5123,
      "count": 36,
      "type": "SCALAR"
    },
    {
      "bufferView": 44,
      "componentType": 5126,
      "count": 24,
      "type": "VEC3",
      "max": [
        0.550000011920929,
        1.6449999809265137,
        0.7649999856948853
      ],
      "min": [
        -1.5499999523162842,
        1.5950000286102295,
        0.7149999737739563
      ]
    },
    {
      "bufferView": 45,
      "componentType": 5123,
      "count": 36,
      "type": "SCALAR"
    },
    {
      "bufferView": 46,
      "componentType": 5126,
      "count": 24,
      "type": "VEC3",
      "max": [
        0.550000011920929,
        1.6449999809265137,
        -0.7149999737739563
      ],
      "min": [
        -1.5499999523162842,
        1.5950000286102295,
        -0.7649999856948853
      ]
    },
    {
      "bufferView": 47,
      "componentType": 5123,
      "count": 36,
      "type": "SCALAR"
    },
    {
      "bufferView": 48,
      "componentType": 5126,
      "count": 24,
      "type": "VEC3",
      "max": [
        -1.5099999904632568,
        1.6749999523162842,
        0.9399999976158142
      ],
      "min": [
        -1.590000033378601,
        0.625,
        0.6200000047683716
      ]
    },
    {
      "bufferView": 49,
      "componentType": 5123,
      "count": 36,
      "type": "SCALAR"
    },
    {
      "bufferView": 50,
      "componentType": 5126,
      "count": 24,
      "type": "VEC3",
      "max": [
        0.699999988079071,
        0.7400000095367432,
        0.7599999904632568
      ],
      "min": [
        -1.7000000476837158,
        0.6200000047683716,
        0.7200000286102295
      ]
    },
    {
      "bufferView": 51,
      "componentType": 5123,
      "count": 36,
      "type": "SCALAR"
    },
    {
      "bufferView": 52,
      "componentType": 5126,
      "count": 24,
      "type": "VEC3",
      "max": [
        -0.22499999403953552,
        1.4249999523162842,
        0.7599999904632568
      ],
      "min": [
        -0.7749999761581421,
        1.0750000476837158,
        0.7200000286102295
      ]
    },
    {
      "bufferView": 53,
      "componentType": 5123,
      "count": 36,
      "type": "SCALAR"
    },
    {
      "bufferView": 54,
      "componentType": 5126,
      "count": 24,
      "type": "VEC3",
      "max": [
        1.9249999523162842,
        0.46000000834465027,
        0.5600000023841858
      ],
      "min": [
        -1.8250000476837158,
        0.2199999988079071,
        -0.5600000023841858
      ]
    },
    {
      "bufferView": 55,
      "componentType": 5123,
      "count": 36,
      "type": "SCALAR"
    },
    {
      "bufferView": 56,
      "componentType": 5126,
      "count": 24,
      "type": "VEC3",
      "max": [
        1.7999999523162842,
        0.49000000953674316,
        0.5600000023841858
      ],
      "min": [
        -1.7000000476837158,
        0.38999998569488525,
        0.47999998927116394
      ]
    },
    {
      "bufferView": 57,
      "componentType": 5123,
      "count": 36,
      "type": "SCALAR"
    },
    {
      "bufferView": 58,
      "componentType": 5126,
      "count": 24,
      "type": "VEC3",
      "max": [
        1.7999999523162842,
        0.49000000953674316,
        -0.47999998927116394
      ],
      "min": [
        -1.7000000476837158,
        0.38999998569488525,
        -0.5600000023841858
      ]
    },
    {
      "bufferView": 59,
      "componentType": 5123,
      "count": 36,
      "type": "SCALAR"
    },
    {
      "bufferView": 60,
      "componentType": 5126,
      "count": 24,
      "type": "VEC3",
      "max": [
        1.774999976158142,
        0.5899999737739563,
        0.8299999833106995
      ],
      "min": [
        1.024999976158142,
        0.3700000047683716,
        0.6100000143051147
      ]
    },
    {
      "bufferView": 61,
      "componentType": 5123,
      "count": 36,
      "type": "SCALAR"
    },
    {
      "bufferView": 62,
      "componentType": 5126,
      "count": 24,
      "type": "VEC3",
      "max": [
        1.774999976158142,
        0.5899999737739563,
        -0.6100000143051147
      ],
      "min": [
        1.024999976158142,
        0.3700000047683716,
        -0.8299999833106995
      ]
    },
    {
      "bufferView": 63,
      "componentType": 5123,
      "count": 36,
      "type": "SCALAR"
    },
    {
      "bufferView": 64,
      "componentType": 5126,
      "count": 24,
      "type": "VEC3",
      "max": [
        -0.824999988079071,
        0.5899999737739563,
        0.8299999833106995
      ],
      "min": [
        -1.5750000476837158,
        0.3700000047683716,
        0.6100000143051147
      ]
    },
    {
      "bufferView": 65,
      "componentType": 5123,
      "count": 36,
      "type": "SCALAR"
    },
    {
      "bufferView": 66,
      "componentType": 5126,
      "count": 24,
      "type": "VEC3",
      "max": [
        -0.824999988079071,
        0.5899999737739563,
        -0.6100000143051147
      ],
      "min": [
        -1.5750000476837158,
        0.3700000047683716,
        -0.8299999833106995
      ]
    },
    {
      "bufferView": 67,
      "componentType": 5123,
      "count": 36,
      "type": "SCALAR"
    },
    {
      "bufferView": 68,
      "componentType": 5126,
      "count": 160,
      "type": "VEC3",
      "max": [
        1.7000000476837158,
        0.5799999833106995,
        0.720000147819519
      ],
      "min": [
        1.100000023841858,
        -0.019999999552965164,
        0.47999998927116394
      ]
    },
    {
      "bufferView": 69,
      "componentType": 5123,
      "count": 192,
      "type": "SCALAR"
    },
    {
      "bufferView": 70,
      "componentType": 5126,
      "count": 160,
      "type": "VEC3",
      "max": [
        1.7000000476837158,
        0.5799999833106995,
        -0.47999998927116394
      ],
      "min": [
        1.100000023841858,
        -0.019999999552965164,
        -0.720000147819519
      ]
    },
    {
      "bufferView": 71,
      "componentType": 5123,
      "count": 192,
      "type": "SCALAR"
    },
    {
      "bufferView": 72,
      "componentType": 5126,
      "count": 160,
      "type": "VEC3",
      "max": [
        -0.8999999761581421,
        0.5799999833106995,
        0.720000147819519
      ],
      "min": [
        -1.5,
        -0.019999999552965164,
        0.47999998927116394
      ]
    },
    {
      "bufferView": 73,
      "componentType": 5123,
      "count": 192,
      "type": "SCALAR"
    },
    {
      "bufferView": 74,
      "componentType": 5126,
      "count": 160,
      "type": "VEC3",
      "max": [
        -0.8999999761581421,
        0.5799999833106995,
        -0.47999998927116394
      ],
      "min": [
        -1.5,
        -0.019999999552965164,
        -0.720000147819519
      ]
    },
    {
      "bufferView": 75,
      "componentType": 5123,
      "count": 192,
      "type": "SCALAR"
    },
    {
      "bufferView": 76,
      "componentType": 5126,
      "count": 100,
      "type": "VEC3",
      "max": [
        1.5199999809265137,
        0.3941267728805542,
        0.6600000262260437
      ],
      "min": [
        1.2799999713897705,
        0.1658732146024704,
        0.5400000214576721
      ]
    },
    {
      "bufferView": 77,
      "componentType": 5123,
      "count": 120,
      "type": "SCALAR"
    },
    {
      "bufferView": 78,
      "componentType": 5126,
      "count": 100,
      "type": "VEC3",
      "max": [
        1.5199999809265137,
        0.3941267728805542,
        -0.5400000214576721
      ],
      "min": [
        1.2799999713897705,
        0.1658732146024704,
        -0.6600000262260437
      ]
    },
    {
      "bufferView": 79,
      "componentType": 5123,
      "count": 120,
      "type": "SCALAR"
    },
    {
      "bufferView": 80,
      "componentType": 5126,
      "count": 100,
      "type": "VEC3",
      "max": [
        -1.0800000429153442,
        0.3941267728805542,
        0.6600000262260437
      ],
      "min": [
        -1.3200000524520874,
        0.1658732146024704,
        0.5400000214576721
      ]
    },
    {
      "bufferView": 81,
      "componentType": 5123,
      "count": 120,
      "type": "SCALAR"
    },
    {
      "bufferView": 82,
      "componentType": 5126,
      "count": 100,
      "type": "VEC3",
      "max": [
        -1.0800000429153442,
        0.3941267728805542,
        -0.5400000214576721
      ],
      "min": [
        -1.3200000524520874,
        0.1658732146024704,
        -0.6600000262260437
      ]
    },
    {
      "bufferView": 83,
      "componentType": 5123,
      "count": 120,
      "type": "SCALAR"
    },
    {
      "bufferView": 84,
      "componentType": 5126,
      "count": 24,
      "type": "VEC3",
      "max": [
        -1.024999976158142,
        0.39500001072883606,
        0.800000011920929
      ],
      "min": [
        -1.375,
        0.04500000178813934,
        0.7599999904632568
      ]
    },
    {
      "bufferView": 85,
      "componentType": 5123,
      "count": 36,
      "type": "SCALAR"
    },
    {
      "bufferView": 86,
      "componentType": 5126,
      "count": 24,
      "type": "VEC3",
      "max": [
        -1.024999976158142,
        0.39500001072883606,
        -0.7599999904632568
      ],
      "min": [
        -1.375,
        0.04500000178813934,
        -0.800000011920929
      ]
    },
    {
      "bufferView": 87,
      "componentType": 5123,
      "count": 36,
      "type": "SCALAR"
    },
    {
      "bufferView": 88,
      "componentType": 5126,
      "count": 140,
      "type": "VEC3",
      "max": [
        -1.5099999904632568,
        1.1339826583862305,
        0.05999999865889549
      ],
      "min": [
        -1.9900000095367432,
        0.6660172939300537,
        -0.05999999865889549
      ]
    },
    {
      "bufferView": 89,
      "componentType": 5123,
      "count": 168,
      "type": "SCALAR"
    },
    {
      "bufferView": 90,
      "componentType": 5126,
      "count": 24,
      "type": "VEC3",
      "max": [
        -1.409999966621399,
        0.9300000071525574,
        0.9900000095367432
      ],
      "min": [
        -1.8300000429153442,
        0.5099999904632568,
        0.5699999928474426
      ]
    },
    {
      "bufferView": 91,
      "componentType": 5123,
      "count": 36,
      "type": "SCALAR"
    },
    {
      "bufferView": 92,
      "componentType": 5126,
      "count": 140,
      "type": "VEC3",
      "max": [
        -1.3200000524520874,
        1.1724783182144165,
        0.5700000524520874
      ],
      "min": [
        -1.9199999570846558,
        0.5875216126441956,
        0.1899999976158142
      ]
    },
    {
      "bufferView": 93,
      "componentType": 5123,
      "count": 168,
      "type": "SCALAR"
    },
    {
      "bufferView": 94,
      "componentType": 5126,
      "count": 120,
      "type": "VEC3",
      "max": [
        -1.690000057220459,
        0.8500000238418579,
        0.3100000023841858
      ],
      "min": [
        -1.9500000476837158,
        0.5899999737739563,
        0.12999999523162842
      ]
    },
    {
      "bufferView": 95,
      "componentType": 5123,
      "count": 144,
      "type": "SCALAR"
    },
    {
      "bufferView": 96,
      "componentType": 5126,
      "count": 120,
      "type": "VEC3",
      "max": [
        -1.690000057220459,
        0.8500000238418579,
        0.11000000685453415
      ],
      "min": [
        -1.9500000476837158,
        0.5899999737739563,
        -0.07000000029802322
      ]
    },
    {
      "bufferView": 97,
      "componentType": 5123,
      "count": 144,
      "type": "SCALAR"
    },
    {
      "bufferView": 98,
      "componentType": 5126,
      "count": 120,
      "type": "VEC3",
      "max": [
        -1.7000000476837158,
        0.8399999737739563,
        -0.10000000149011612
      ],
      "min": [
        -1.940000057220459,
        0.6000000238418579,
        -0.25999999046325684
      ]
    },
    {
      "bufferView": 99,
      "componentType": 5123,
      "count": 144,
      "type": "SCALAR"
    },
    {
      "bufferView": 100,
      "componentType": 5126,
      "count": 120,
      "type": "VEC3",
      "max": [
        -1.7799999713897705,
        0.6200000047683716,
        1.095000147819519
      ],
      "min": [
        -1.9199999570846558,
        0.47999998927116394,
        0.14499999582767487
      ]
    },
    {
      "bufferView": 101,
      "componentType": 5123,
      "count": 144,
      "type": "SCALAR"
    },
    {
      "bufferView": 102,
      "componentType": 5126,
      "count": 24,
      "type": "VEC3",
      "max": [
        -1.8899999856948853,
        0.6100000143051147,
        0.9700000286102295
      ],
      "min": [
        -2.2100000381469727,
        0.4300000071525574,
        0.7900000214576721
      ]
    },
    {
      "bufferView": 103,
      "componentType": 5123,
      "count": 36,
      "type": "SCALAR"
    },
    {
      "bufferView": 104,
      "componentType": 5126,
      "count": 24,
      "type": "VEC3",
      "max": [
        -1.5199999809265137,
        0.9800000190734863,
        0.8199999928474426
      ],
      "min": [
        -2.0399999618530273,
        0.46000000834465027,
        0.7400000095367432
      ]
    },
    {
      "bufferView": 105,
      "componentType": 5123,
      "count": 36,
      "type": "SCALAR"
    },
    {
      "bufferView": 106,
      "componentType": 5126,
      "count": 24,
      "type": "VEC3",
      "max": [
        -1.3450000286102295,
        0.5799999833106995,
        0.824999988079071
      ],
      "min": [
        -1.8949999809265137,
        0.46000000834465027,
        0.2750000059604645
      ]
    },
    {
      "bufferView": 107,
      "componentType": 5123,
      "count": 36,
      "type": "SCALAR"
    },
    {
      "bufferView": 108,
      "componentType": 5126,
      "count": 24,
      "type": "VEC3",
      "max": [
        -1.3300000429153442,
        1.2400000095367432,
        -0.25999999046325684
      ],
      "min": [
        -1.909999966621399,
        0.5199999809265137,
        -0.8399999737739563
      ]
    },
    {
      "bufferView": 109,
      "componentType": 5123,
      "count": 36,
      "type": "SCALAR"
    },
    {
      "bufferView": 110,
      "componentType": 5126,
      "count": 24,
      "type": "VEC3",
      "max": [
        -1.3700000047683716,
        1.190000057220459,
        -0.7950000166893005
      ],
      "min": [
        -1.8700000047683716,
        0.5699999928474426,
        -0.8450000286102295
      ]
    },
    {
      "bufferView": 111,
      "componentType": 5123,
      "count": 36,
      "type": "SCALAR"
    },
    {
      "bufferView": 112,
      "componentType": 5126,
      "count": 24,
      "type": "VEC3",
      "max": [
        -1.5099999904632568,
        1.2100000381469727,
        -0.8349999785423279
      ],
      "min": [
        -1.7300000190734863,
        1.0299999713897705,
        -0.8849999904632568
      ]
    },
    {
      "bufferView": 113,
      "componentType": 5123,
      "count": 36,
      "type": "SCALAR"
    },
    {
      "bufferView": 114,
      "componentType": 5126,
      "count": 80,
      "type": "VEC3",
      "max": [
        -1.5399999618530273,
        0.6300000548362732,
        -0.4699999988079071
      ],
      "min": [
        -1.7000000476837158,
        0.4099999964237213,
        -0.6299999952316284
      ]
    },
    {
      "bufferView": 115,
      "componentType": 5123,
      "count": 96,
      "type": "SCALAR"
    },
    {
      "bufferView": 116,
      "componentType": 5126,
      "count": 24,
      "type": "VEC3",
      "max": [
        -1.7450000047683716,
        0.5699999928474426,
        -0.5
      ],
      "min": [
        -2.0950000286102295,
        0.4699999988079071,
        -0.6000000238418579
      ]
    },
    {
      "bufferView": 117,
      "componentType": 5123,
      "count": 36,
      "type": "SCALAR"
    },
    {
      "bufferView": 118,
      "componentType": 5126,
      "count": 24,
      "type": "VEC3",
      "max": [
        2.0799999237060547,
        0.5899999737739563,
        0.7400000095367432
      ],
      "min": [
        1.8200000524520874,
        0.20999999344348907,
        -0.7400000095367432
      ]
    },
    {
      "bufferView": 119,
      "componentType": 5123,
      "count": 36,
      "type": "SCALAR"
    },
    {
      "bufferView": 120,
      "componentType": 5126,
      "count": 24,
      "type": "VEC3",
      "max": [
        -1.8700000047683716,
        0.5899999737739563,
        0.6899999976158142
      ],
      "min": [
        -2.130000114440918,
        0.20999999344348907,
        -0.6899999976158142
      ]
    },
    {
      "bufferView": 121,
      "componentType": 5123,
      "count": 36,
      "type": "SCALAR"
    },
    {
      "bufferView": 122,
      "componentType": 5126,
      "count": 24,
      "type": "VEC3",
      "max": [
        1.9900000095367432,
        1.1200000047683716,
        0.5249999761581421
      ],
      "min": [
        1.909999966621399,
        0.6399999856948853,
        -0.5249999761581421
      ]
    },
    {
      "bufferView": 123,
      "componentType": 5123,
      "count": 36,
      "type": "SCALAR"
    },
    {
      "bufferView": 124,
      "componentType": 5126,
      "count": 24,
      "type": "VEC3",
      "max": [
        1.940000057220459,
        0.6600000262260437,
        0.625
      ],
      "min": [
        1.8200000524520874,
        0.5,
        -0.625
      ]
    },
    {
      "bufferView": 125,
      "componentType": 5123,
      "count": 36,
      "type": "SCALAR"
    },
    {
      "bufferView": 126,
      "componentType": 5126,
      "count": 24,
      "type": "VEC3",
      "max": [
        2.069999933242798,
        0.75,
        0.5
      ],
      "min": [
        1.9700000286102295,
        0.6100000143051147,
        0.3400000035762787
      ]
    },
    {
      "bufferView": 127,
      "componentType": 5123,
      "count": 36,
      "type": "SCALAR"
    },
    {
      "bufferView": 128,
      "componentType": 5126,
      "count": 24,
      "type": "VEC3",
      "max": [
        2.069999933242798,
        0.75,
        -0.3400000035762787
      ],
      "min": [
        1.9700000286102295,
        0.6100000143051147,
        -0.5
      ]
    },
    {
      "bufferView": 129,
      "componentType": 5123,
      "count": 36,
      "type": "SCALAR"
    },
    {
      "bufferView": 130,
      "componentType": 5126,
      "count": 24,
      "type": "VEC3",
      "max": [
        -2.009999990463257,
        0.6100000143051147,
        0.5400000214576721
      ],
      "min": [
        -2.0899999141693115,
        0.49000000953674316,
        0.41999998688697815
      ]
    },
    {
      "bufferView": 131,
      "componentType": 5123,
      "count": 36,
      "type": "SCALAR"
    },
    {
      "bufferView": 132,
      "componentType": 5126,
      "count": 24,
      "type": "VEC3",
      "max": [
        -2.009999990463257,
        0.6100000143051147,
        -0.41999998688697815
      ],
      "min": [
        -2.0899999141693115,
        0.49000000953674316,
        -0.5400000214576721
      ]
    },
    {
      "bufferView": 133,
      "componentType": 5123,
      "count": 36,
      "type": "SCALAR"
    },
    {
      "bufferView": 134,
      "componentType": 5126,
      "count": 24,
      "type": "VEC3",
      "max": [
        1.1799999475479126,
        2.0199999809265137,
        0.12999999523162842
      ],
      "min": [
        0.9200000166893005,
        1.8200000524520874,
        -0.12999999523162842
      ]
    },
    {
      "bufferView": 135,
      "componentType": 5123,
      "count": 36,
      "type": "SCALAR"
    },
    {
      "bufferView": 136,
      "componentType": 5126,
      "count": 24,
      "type": "VEC3",
      "max": [
        1.2300000190734863,
        2.049999952316284,
        0.18000000715255737
      ],
      "min": [
        0.8700000047683716,
        1.9900000095367432,
        -0.18000000715255737
      ]
    },
    {
      "bufferView": 137,
      "componentType": 5123,
      "count": 36,
      "type": "SCALAR"
    },
    {
      "bufferView": 138,
      "componentType": 5126,
      "count": 24,
      "type": "VEC3",
      "max": [
        1.809999942779541,
        1.5099999904632568,
        0.9900000095367432
      ],
      "min": [
        1.690000057220459,
        1.25,
        0.8100000023841858
      ]
    },
    {
      "bufferView": 139,
      "componentType": 5123,
      "count": 36,
      "type": "SCALAR"
    },
    {
      "bufferView": 140,
      "componentType": 5126,
      "count": 24,
      "type": "VEC3",
      "max": [
        1.809999942779541,
        1.5099999904632568,
        -0.8100000023841858
      ],
      "min": [
        1.690000057220459,
        1.25,
        -0.9900000095367432
      ]
    },
    {
      "bufferView": 141,
      "componentType": 5123,
      "count": 36,
      "type": "SCALAR"
    },
    {
      "bufferView": 142,
      "componentType": 5126,
      "count": 24,
      "type": "VEC3",
      "max": [
        1.7549999952316284,
        0.5199999809265137,
        1.059999942779541
      ],
      "min": [
        1.4049999713897705,
        0.3799999952316284,
        0.7400000095367432
      ]
    },
    {
      "bufferView": 143,
      "componentType": 5123,
      "count": 36,
      "type": "SCALAR"
    },
    {
      "bufferView": 144,
      "componentType": 5126,
      "count": 24,
      "type": "VEC3",
      "max": [
        1.7549999952316284,
        0.5199999809265137,
        -0.7400000095367432
      ],
      "min": [
        1.4049999713897705,
        0.3799999952316284,
        -1.059999942779541
      ]
    },
    {
      "bufferView": 145,
      "componentType": 5123,
      "count": 36,
      "type": "SCALAR"
    },
    {
      "bufferView": 146,
      "componentType": 5126,
      "count": 80,
      "type": "VEC3",
      "max": [
        -1.590000033378601,
        1.875,
        -0.5199999809265137
      ],
      "min": [
        -1.7100000381469727,
        0.925000011920929,
        -0.6399999856948853
      ]
    },
    {
      "bufferView": 147,
      "componentType": 5123,
      "count": 96,
      "type": "SCALAR"
    },
    {
      "bufferView": 148,
      "componentType": 5126,
      "count": 24,
      "type": "VEC3",
      "max": [
        2.0399999618530273,
        0.6000000238418579,
        0.20999999344348907
      ],
      "min": [
        2.0,
        0.4399999976158142,
        -0.20999999344348907
      ]
    },
    {
      "bufferView": 149,
      "componentType": 5123,
      "count": 36,
      "type": "SCALAR"
    },
    {
      "bufferView": 150,
      "componentType": 5126,
      "count": 24,
      "type": "VEC3",
      "max": [
        1.809999942779541,
        1.5750000476837158,
        0.375
      ],
      "min": [
        1.75,
        1.524999976158142,
        -0.375
      ]
    },
    {
      "bufferView": 151,
      "componentType": 5123,
      "count": 36,
      "type": "SCALAR"
    },
    {
      "bufferView": 152,
      "componentType": 5126,
      "count": 24,
      "type": "VEC3",
      "max": [
        1.649999976158142,
        1.6549999713897705,
        0.02500000037252903
      ],
      "min": [
        1.6100000143051147,
        0.9049999713897705,
        -0.02500000037252903
      ]
    },
    {
      "bufferView": 153,
      "componentType": 5123,
      "count": 36,
      "type": "SCALAR"
    },
    {
      "bufferView": 154,
      "componentType": 5126,
      "count": 24,
      "type": "VEC3",
      "max": [
        1.649999976158142,
        1.6549999713897705,
        0.4449999928474426
      ],
      "min": [
        1.6100000143051147,
        0.9049999713897705,
        0.39500001072883606
      ]
    },
    {
      "bufferView": 155,
      "componentType": 5123,
      "count": 36,
      "type": "SCALAR"
    },
    {
      "bufferView": 156,
      "componentType": 5126,
      "count": 24,
      "type": "VEC3",
      "max": [
        1.649999976158142,
        1.6549999713897705,
        -0.39500001072883606
      ],
      "min": [
        1.6100000143051147,
        0.9049999713897705,
        -0.4449999928474426
      ]
    },
    {
      "bufferView": 157,
      "componentType": 5123,
      "count": 36,
      "type": "SCALAR"
    },
    {
      "bufferView": 158,
      "componentType": 5126,
      "count": 24,
      "type": "VEC3",
      "max": [
        1.6549999713897705,
        0.925000011920929,
        0.6000000238418579
      ],
      "min": [
        1.6050000190734863,
        0.875,
        -0.6000000238418579
      ]
    },
    {
      "bufferView": 159,
      "componentType": 5123,
      "count": 36,
      "type": "SCALAR"
    },
    {
      "bufferView": 160,
      "componentType": 5126,
      "count": 24,
      "type": "VEC3",
      "max": [
        1.6549999713897705,
        1.684999942779541,
        0.6000000238418579
      ],
      "min": [
        1.6050000190734863,
        1.6349999904632568,
        -0.6000000238418579
      ]
    },
    {
      "bufferView": 161,
      "componentType": 5123,
      "count": 36,
      "type": "SCALAR"
    },
    {
      "bufferView": 162,
      "componentType": 5126,
      "count": 24,
      "type": "VEC3",
      "max": [
        1.659999966621399,
        1.6100000143051147,
        -0.33000001311302185
      ],
      "min": [
        1.6200000047683716,
        1.2300000190734863,
        -0.6299999952316284
      ]
    },
    {
      "bufferView": 163,
      "componentType": 5123,
      "count": 36,
      "type": "SCALAR"
    },
    {
      "bufferView": 164,
      "componentType": 5126,
      "count": 24,
      "type": "VEC3",
      "max": [
        1.659999966621399,
        1.2599999904632568,
        -0.33000001311302185
      ],
      "min": [
        1.6200000047683716,
        0.9800000190734863,
        -0.6299999952316284
      ]
    },
    {
      "bufferView": 165,
      "componentType": 5123,
      "count": 36,
      "type": "SCALAR"
    },
    {
      "bufferView": 166,
      "componentType": 5126,
      "count": 24,
      "type": "VEC3",
      "max": [
        1.659999966621399,
        1.6100000143051147,
        -0.009999999776482582
      ],
      "min": [
        1.6200000047683716,
        1.2300000190734863,
        -0.3100000023841858
      ]
    },
    {
      "bufferView": 167,
      "componentType": 5123,
      "count": 36,
      "type": "SCALAR"
    },
    {
      "bufferView": 168,
      "componentType": 5126,
      "count": 24,
      "type": "VEC3",
      "max": [
        1.659999966621399,
        1.2599999904632568,
        -0.009999999776482582
      ],
      "min": [
        1.6200000047683716,
        0.9800000190734863,
        -0.3100000023841858
      ]
    },
    {
      "bufferView": 169,
      "componentType": 5123,
      "count": 36,
      "type": "SCALAR"
    },
    {
      "bufferView": 170,
      "componentType": 5126,
      "count": 24,
      "type": "VEC3",
      "max": [
        1.659999966621399,
        1.6100000143051147,
        0.3100000023841858
      ],
      "min": [
        1.6200000047683716,
        1.2300000190734863,
        0.009999999776482582
      ]
    },
    {
      "bufferView": 171,
      "componentType": 5123,
      "count": 36,
      "type": "SCALAR"
    },
    {
      "bufferView": 172,
      "componentType": 5126,
      "count": 24,
      "type": "VEC3",
      "max": [
        1.659999966621399,
        1.2599999904632568,
        0.3100000023841858
      ],
      "min": [
        1.6200000047683716,
        0.9800000190734863,
        0.009999999776482582
      ]
    },
    {
      "bufferView": 173,
      "componentType": 5123,
      "count": 36,
      "type": "SCALAR"
    },
    {
      "bufferView": 174,
      "componentType": 5126,
      "count": 24,
      "type": "VEC3",
      "max": [
        1.659999966621399,
        1.6100000143051147,
        0.6299999952316284
      ],
      "min": [
        1.6200000047683716,
        1.2300000190734863,
        0.33000001311302185
      ]
    },
    {
      "bufferView": 175,
      "componentType": 5123,
      "count": 36,
      "type": "SCALAR"
    },
    {
      "bufferView": 176,
      "componentType": 5126,
      "count": 24,
      "type": "VEC3",
      "max": [
        1.659999966621399,
        1.2599999904632568,
        0.6299999952316284
      ],
      "min": [
        1.6200000047683716,
        0.9800000190734863,
        0.33000001311302185
      ]
    },
    {
      "bufferView": 177,
      "componentType": 5123,
      "count": 36,
      "type": "SCALAR"
    },
    {
      "bufferView": 178,
      "componentType": 5126,
      "count": 24,
      "type": "VEC3",
      "max": [
        0.7250000238418579,
        1.225000023841858,
        0.7400000095367432
      ],
      "min": [
        0.375,
        0.675000011920929,
        0.699999988079071
      ]
    },
    {
      "bufferView": 179,
      "componentType": 5123,
      "count": 36,
      "type": "SCALAR"
    },
    {
      "bufferView": 180,
      "componentType": 5126,
      "count": 24,
      "type": "VEC3",
      "max": [
        -1.375,
        1.225000023841858,
        0.7400000095367432
      ],
      "min": [
        -1.725000023841858,
        0.675000011920929,
        0.699999988079071
      ]
    },
    {
      "bufferView": 181,
      "componentType": 5123,
      "count": 36,
      "type": "SCALAR"
    },
    {
      "bufferView": 182,
      "componentType": 5126,
      "count": 160,
      "type": "VEC3",
      "max": [
        2.3950002193450928,
        1.899999976158142,
        0.550000011920929
      ],
      "min": [
        1.0449999570846558,
        0.800000011920929,
        -0.550000011920929
      ]
    },
    {
      "bufferView": 183,
      "componentType": 5123,
      "count": 192,
      "type": "SCALAR"
    },
    {
      "bufferView": 184,
      "componentType": 5126,
      "count": 160,
      "type": "VEC3",
      "max": [
        -0.05000000074505806,
        0.5799999833106995,
        0.720000147819519
      ],
      "min": [
        -0.6499999761581421,
        -0.019999999552965164,
        0.47999998927116394
      ]
    },
    {
      "bufferView": 185,
      "componentType": 5123,
      "count": 192,
      "type": "SCALAR"
    },
    {
      "bufferView": 186,
      "componentType": 5126,
      "count": 160,
      "type": "VEC3",
      "max": [
        -0.05000000074505806,
        0.5799999833106995,
        -0.47999998927116394
      ],
      "min": [
        -0.6499999761581421,
        -0.019999999552965164,
        -0.720000147819519
      ]
    },
    {
      "bufferView": 187,
      "componentType": 5123,
      "count": 192,
      "type": "SCALAR"
    },
    {
      "bufferView": 188,
      "componentType": 5126,
      "count": 100,
      "type": "VEC3",
      "max": [
        -0.23000000417232513,
        0.3941267728805542,
        0.6600000262260437
      ],
      "min": [
        -0.4699999988079071,
        0.1658732146024704,
        0.5400000214576721
      ]
    },
    {
      "bufferView": 189,
      "componentType": 5123,
      "count": 120,
      "type": "SCALAR"
    },
    {
      "bufferView": 190,
      "componentType": 5126,
      "count": 100,
      "type": "VEC3",
      "max": [
        -0.23000000417232513,
        0.3941267728805542,
        -0.5400000214576721
      ],
      "min": [
        -0.4699999988079071,
        0.1658732146024704,
        -0.6600000262260437
      ]
    },
    {
      "bufferView": 191,
      "componentType": 5123,
      "count": 120,
      "type": "SCALAR"
    },
    {
      "bufferView": 192,
      "componentType": 5126,
      "count": 24,
      "type": "VEC3",
      "max": [
        0.02500000037252903,
        0.5899999737739563,
        0.8299999833106995
      ],
      "min": [
        -0.7250000238418579,
        0.3700000047683716,
        0.6100000143051147
      ]
    },
    {
      "bufferView": 193,
      "componentType": 5123,
      "count": 36,
      "type": "SCALAR"
    },
    {
      "bufferView": 194,
      "componentType": 5126,
      "count": 24,
      "type": "VEC3",
      "max": [
        0.02500000037252903,
        0.5899999737739563,
        -0.6100000143051147
      ],
      "min": [
        -0.7250000238418579,
        0.3700000047683716,
        -0.8299999833106995
      ]
    },
    {
      "bufferView": 195,
      "componentType": 5123,
      "count": 36,
      "type": "SCALAR"
    },
    {
      "bufferView": 196,
      "componentType": 5126,
      "count": 100,
      "type": "VEC3",
      "max": [
        -1.5399999618530273,
        0.7900000214576721,
        0.8560845255851746
      ],
      "min": [
        -1.7000000476837158,
        0.6499999761581421,
        0.7039154767990112
      ]
    },
    {
      "bufferView": 197,
      "componentType": 5123,
      "count": 120,
      "type": "SCALAR"
    },
    {
      "bufferView": 198,
      "componentType": 5126,
      "count": 24,
      "type": "VEC3",
      "max": [
        1.6799999475479126,
        1.559999942779541,
        -0.4099999964237213
      ],
      "min": [
        1.6399999856948853,
        1.1399999856948853,
        -0.6899999976158142
      ]
    },
    {
      "bufferView": 199,
      "componentType": 5123,
      "count": 36,
      "type": "SCALAR"
    },
    {
      "bufferView": 200,
      "componentType": 5126,
      "count": 24,
      "type": "VEC3",
      "max": [
        1.6799999475479126,
        1.559999942779541,
        -0.07999999821186066
      ],
      "min": [
        1.6399999856948853,
        1.1399999856948853,
        -0.36000001430511475
      ]
    },
    {
      "bufferView": 201,
      "componentType": 5123,
      "count": 36,
      "type": "SCALAR"
    },
    {
      "bufferView": 202,
      "componentType": 5126,
      "count": 24,
      "type": "VEC3",
      "max": [
        1.6799999475479126,
        1.559999942779541,
        0.36000001430511475
      ],
      "min": [
        1.6399999856948853,
        1.1399999856948853,
        0.07999999821186066
      ]
    },
    {
      "bufferView": 203,
      "componentType": 5123,
      "count": 36,
      "type": "SCALAR"
    },
    {
      "bufferView": 204,
      "componentType": 5126,
      "count": 24,
      "type": "VEC3",
      "max": [
        1.6799999475479126,
        1.559999942779541,
        0.6899999976158142
      ],
      "min": [
        1.6399999856948853,
        1.1399999856948853,
        0.4099999964237213
      ]
    },
    {
      "bufferView": 205,
      "componentType": 5123,
      "count": 36,
      "type": "SCALAR"
    }
  ],
  "meshes": [
    {
      "name": "cab",
      "primitives": [
        {
          "attributes": {
            "POSITION": 0
          },
          "indices": 1,
          "mode": 4
        }
      ]
    },
    {
      "name": "cab_roof",
      "primitives": [
        {
          "attributes": {
            "POSITION": 2
          },
          "indices": 3,
          "mode": 4
        }
      ]
    },
    {
      "name": "cab_visor",
      "primitives": [
        {
          "attributes": {
            "POSITION": 4
          },
          "indices": 5,
          "mode": 4
        }
      ]
    },
    {
      "name": "cab_window",
      "primitives": [
        {
          "attributes": {
            "POSITION": 6
          },
          "indices": 7,
          "mode": 4
        }
      ]
    },
    {
      "name": "cab_door",
      "primitives": [
        {
          "attributes": {
            "POSITION": 8
          },
          "indices": 9,
          "mode": 4
        }
      ]
    },
    {
      "name": "cab_door_r",
      "primitives": [
        {
          "attributes": {
            "POSITION": 10
          },
          "indices": 11,
          "mode": 4
        }
      ]
    },
    {
      "name": "door_glass",
      "primitives": [
        {
          "attributes": {
            "POSITION": 12
          },
          "indices": 13,
          "mode": 4
        }
      ]
    },
    {
      "name": "door_glass_r",
      "primitives": [
        {
          "attributes": {
            "POSITION": 14
          },
          "indices": 15,
          "mode": 4
        }
      ]
    },
    {
      "name": "door_handle_l",
      "primitives": [
        {
          "attributes": {
            "POSITION": 16
          },
          "indices": 17,
          "mode": 4
        }
      ]
    },
    {
      "name": "door_handle_r",
      "primitives": [
        {
          "attributes": {
            "POSITION": 18
          },
          "indices": 19,
          "mode": 4
        }
      ]
    },
    {
      "name": "cab_stripe",
      "primitives": [
        {
          "attributes": {
            "POSITION": 20
          },
          "indices": 21,
          "mode": 4
        }
      ]
    },
    {
      "name": "tank",
      "primitives": [
        {
          "attributes": {
            "POSITION": 22
          },
          "indices": 23,
          "mode": 4
        }
      ]
    },
    {
      "name": "tank_end_f",
      "primitives": [
        {
          "attributes": {
            "POSITION": 24
          },
          "indices": 25,
          "mode": 4
        }
      ]
    },
    {
      "name": "tank_end_r",
      "primitives": [
        {
          "attributes": {
            "POSITION": 26
          },
          "indices": 27,
          "mode": 4
        }
      ]
    },
    {
      "name": "tank_band",
      "primitives": [
        {
          "attributes": {
            "POSITION": 28
          },
          "indices": 29,
          "mode": 4
        }
      ]
    },
    {
      "name": "tank_band_2",
      "primitives": [
        {
          "attributes": {
            "POSITION": 30
          },
          "indices": 31,
          "mode": 4
        }
      ]
    },
    {
      "name": "tank_band_3",
      "primitives": [
        {
          "attributes": {
            "POSITION": 32
          },
          "indices": 33,
          "mode": 4
        }
      ]
    },
    {
      "name": "tank_band_4",
      "primitives": [
        {
          "attributes": {
            "POSITION": 34
          },
          "indices": 35,
          "mode": 4
        }
      ]
    },
    {
      "name": "tank_cap",
      "primitives": [
        {
          "attributes": {
            "POSITION": 36
          },
          "indices": 37,
          "mode": 4
        }
      ]
    },
    {
      "name": "tank_cap_b",
      "primitives": [
        {
          "attributes": {
            "POSITION": 38
          },
          "indices": 39,
          "mode": 4
        }
      ]
    },
    {
      "name": "tank_valve_top",
      "primitives": [
        {
          "attributes": {
            "POSITION": 40
          },
          "indices": 41,
          "mode": 4
        }
      ]
    },
    {
      "name": "tank_walkway",
      "primitives": [
        {
          "attributes": {
            "POSITION": 42
          },
          "indices": 43,
          "mode": 4
        }
      ]
    },
    {
      "name": "tank_rail_l",
      "primitives": [
        {
          "attributes": {
            "POSITION": 44
          },
          "indices": 45,
          "mode": 4
        }
      ]
    },
    {
      "name": "tank_rail_r",
      "primitives": [
        {
          "attributes": {
            "POSITION": 46
          },
          "indices": 47,
          "mode": 4
        }
      ]
    },
    {
      "name": "tank_ladder",
      "primitives": [
        {
          "attributes": {
            "POSITION": 48
          },
          "indices": 49,
          "mode": 4
        }
      ]
    },
    {
      "name": "tank_stripe",
      "primitives": [
        {
          "attributes": {
            "POSITION": 50
          },
          "indices": 51,
          "mode": 4
        }
      ]
    },
    {
      "name": "fuel_hazard",
      "primitives": [
        {
          "attributes": {
            "POSITION": 52
          },
          "indices": 53,
          "mode": 4
        }
      ]
    },
    {
      "name": "chassis",
      "primitives": [
        {
          "attributes": {
            "POSITION": 54
          },
          "indices": 55,
          "mode": 4
        }
      ]
    },
    {
      "name": "chassis_rail_l",
      "primitives": [
        {
          "attributes": {
            "POSITION": 56
          },
          "indices": 57,
          "mode": 4
        }
      ]
    },
    {
      "name": "chassis_rail_r",
      "primitives": [
        {
          "attributes": {
            "POSITION": 58
          },
          "indices": 59,
          "mode": 4
        }
      ]
    },
    {
      "name": "fender_fl",
      "primitives": [
        {
          "attributes": {
            "POSITION": 60
          },
          "indices": 61,
          "mode": 4
        }
      ]
    },
    {
      "name": "fender_fr",
      "primitives": [
        {
          "attributes": {
            "POSITION": 62
          },
          "indices": 63,
          "mode": 4
        }
      ]
    },
    {
      "name": "fender_rl",
      "primitives": [
        {
          "attributes": {
            "POSITION": 64
          },
          "indices": 65,
          "mode": 4
        }
      ]
    },
    {
      "name": "fender_rr",
      "primitives": [
        {
          "attributes": {
            "POSITION": 66
          },
          "indices": 67,
          "mode": 4
        }
      ]
    },
    {
      "name": "wheel_fl",
      "primitives": [
        {
          "attributes": {
            "POSITION": 68
          },
          "indices": 69,
          "mode": 4
        }
      ]
    },
    {
      "name": "wheel_fr",
      "primitives": [
        {
          "attributes": {
            "POSITION": 70
          },
          "indices": 71,
          "mode": 4
        }
      ]
    },
    {
      "name": "wheel_rl",
      "primitives": [
        {
          "attributes": {
            "POSITION": 72
          },
          "indices": 73,
          "mode": 4
        }
      ]
    },
    {
      "name": "wheel_rr",
      "primitives": [
        {
          "attributes": {
            "POSITION": 74
          },
          "indices": 75,
          "mode": 4
        }
      ]
    },
    {
      "name": "hub_fl",
      "primitives": [
        {
          "attributes": {
            "POSITION": 76
          },
          "indices": 77,
          "mode": 4
        }
      ]
    },
    {
      "name": "hub_fr",
      "primitives": [
        {
          "attributes": {
            "POSITION": 78
          },
          "indices": 79,
          "mode": 4
        }
      ]
    },
    {
      "name": "hub_rl",
      "primitives": [
        {
          "attributes": {
            "POSITION": 80
          },
          "indices": 81,
          "mode": 4
        }
      ]
    },
    {
      "name": "hub_rr",
      "primitives": [
        {
          "attributes": {
            "POSITION": 82
          },
          "indices": 83,
          "mode": 4
        }
      ]
    },
    {
      "name": "mudflap_l",
      "primitives": [
        {
          "attributes": {
            "POSITION": 84
          },
          "indices": 85,
          "mode": 4
        }
      ]
    },
    {
      "name": "mudflap_r",
      "primitives": [
        {
          "attributes": {
            "POSITION": 86
          },
          "indices": 87,
          "mode": 4
        }
      ]
    },
    {
      "name": "spare_wheel",
      "primitives": [
        {
          "attributes": {
            "POSITION": 88
          },
          "indices": 89,
          "mode": 4
        }
      ]
    },
    {
      "name": "hose_mount",
      "primitives": [
        {
          "attributes": {
            "POSITION": 90
          },
          "indices": 91,
          "mode": 4
        }
      ]
    },
    {
      "name": "hose_reel",
      "primitives": [
        {
          "attributes": {
            "POSITION": 92
          },
          "indices": 93,
          "mode": 4
        }
      ]
    },
    {
      "name": "hose_coil_a",
      "primitives": [
        {
          "attributes": {
            "POSITION": 94
          },
          "indices": 95,
          "mode": 4
        }
      ]
    },
    {
      "name": "hose_coil_b",
      "primitives": [
        {
          "attributes": {
            "POSITION": 96
          },
          "indices": 97,
          "mode": 4
        }
      ]
    },
    {
      "name": "hose_coil_c",
      "primitives": [
        {
          "attributes": {
            "POSITION": 98
          },
          "indices": 99,
          "mode": 4
        }
      ]
    },
    {
      "name": "hose",
      "primitives": [
        {
          "attributes": {
            "POSITION": 100
          },
          "indices": 101,
          "mode": 4
        }
      ]
    },
    {
      "name": "hose_nozzle",
      "primitives": [
        {
          "attributes": {
            "POSITION": 102
          },
          "indices": 103,
          "mode": 4
        }
      ]
    },
    {
      "name": "hose_guard",
      "primitives": [
        {
          "attributes": {
            "POSITION": 104
          },
          "indices": 105,
          "mode": 4
        }
      ]
    },
    {
      "name": "hose_tray",
      "primitives": [
        {
          "attributes": {
            "POSITION": 106
          },
          "indices": 107,
          "mode": 4
        }
      ]
    },
    {
      "name": "pump_cabinet",
      "primitives": [
        {
          "attributes": {
            "POSITION": 108
          },
          "indices": 109,
          "mode": 4
        }
      ]
    },
    {
      "name": "pump_cabinet_door",
      "primitives": [
        {
          "attributes": {
            "POSITION": 110
          },
          "indices": 111,
          "mode": 4
        }
      ]
    },
    {
      "name": "pump_gauge",
      "primitives": [
        {
          "attributes": {
            "POSITION": 112
          },
          "indices": 113,
          "mode": 4
        }
      ]
    },
    {
      "name": "pump_valve",
      "primitives": [
        {
          "attributes": {
            "POSITION": 114
          },
          "indices": 115,
          "mode": 4
        }
      ]
    },
    {
      "name": "pump_hose_out",
      "primitives": [
        {
          "attributes": {
            "POSITION": 116
          },
          "indices": 117,
          "mode": 4
        }
      ]
    },
    {
      "name": "bumper",
      "primitives": [
        {
          "attributes": {
            "POSITION": 118
          },
          "indices": 119,
          "mode": 4
        }
      ]
    },
    {
      "name": "bumper_rear",
      "primitives": [
        {
          "attributes": {
            "POSITION": 120
          },
          "indices": 121,
          "mode": 4
        }
      ]
    },
    {
      "name": "grill",
      "primitives": [
        {
          "attributes": {
            "POSITION": 122
          },
          "indices": 123,
          "mode": 4
        }
      ]
    },
    {
      "name": "light_bar",
      "primitives": [
        {
          "attributes": {
            "POSITION": 124
          },
          "indices": 125,
          "mode": 4
        }
      ]
    },
    {
      "name": "headlight_l",
      "primitives": [
        {
          "attributes": {
            "POSITION": 126
          },
          "indices": 127,
          "mode": 4
        }
      ]
    },
    {
      "name": "headlight_r",
      "primitives": [
        {
          "attributes": {
            "POSITION": 128
          },
          "indices": 129,
          "mode": 4
        }
      ]
    },
    {
      "name": "taillight_l",
      "primitives": [
        {
          "attributes": {
            "POSITION": 130
          },
          "indices": 131,
          "mode": 4
        }
      ]
    },
    {
      "name": "taillight_r",
      "primitives": [
        {
          "attributes": {
            "POSITION": 132
          },
          "indices": 133,
          "mode": 4
        }
      ]
    },
    {
      "name": "beacon",
      "primitives": [
        {
          "attributes": {
            "POSITION": 134
          },
          "indices": 135,
          "mode": 4
        }
      ]
    },
    {
      "name": "beacon_guard",
      "primitives": [
        {
          "attributes": {
            "POSITION": 136
          },
          "indices": 137,
          "mode": 4
        }
      ]
    },
    {
      "name": "mirror_l",
      "primitives": [
        {
          "attributes": {
            "POSITION": 138
          },
          "indices": 139,
          "mode": 4
        }
      ]
    },
    {
      "name": "mirror_r",
      "primitives": [
        {
          "attributes": {
            "POSITION": 140
          },
          "indices": 141,
          "mode": 4
        }
      ]
    },
    {
      "name": "step",
      "primitives": [
        {
          "attributes": {
            "POSITION": 142
          },
          "indices": 143,
          "mode": 4
        }
      ]
    },
    {
      "name": "step_r",
      "primitives": [
        {
          "attributes": {
            "POSITION": 144
          },
          "indices": 145,
          "mode": 4
        }
      ]
    },
    {
      "name": "exhaust",
      "primitives": [
        {
          "attributes": {
            "POSITION": 146
          },
          "indices": 147,
          "mode": 4
        }
      ]
    },
    {
      "name": "number_plate",
      "primitives": [
        {
          "attributes": {
            "POSITION": 148
          },
          "indices": 149,
          "mode": 4
        }
      ]
    },
    {
      "name": "wiper",
      "primitives": [
        {
          "attributes": {
            "POSITION": 150
          },
          "indices": 151,
          "mode": 4
        }
      ]
    },
    {
      "name": "window_mullion",
      "primitives": [
        {
          "attributes": {
            "POSITION": 152
          },
          "indices": 153,
          "mode": 4
        }
      ]
    },
    {
      "name": "window_mullion_2",
      "primitives": [
        {
          "attributes": {
            "POSITION": 154
          },
          "indices": 155,
          "mode": 4
        }
      ]
    },
    {
      "name": "window_mullion_3",
      "primitives": [
        {
          "attributes": {
            "POSITION": 156
          },
          "indices": 157,
          "mode": 4
        }
      ]
    },
    {
      "name": "window_sill",
      "primitives": [
        {
          "attributes": {
            "POSITION": 158
          },
          "indices": 159,
          "mode": 4
        }
      ]
    },
    {
      "name": "window_header",
      "primitives": [
        {
          "attributes": {
            "POSITION": 160
          },
          "indices": 161,
          "mode": 4
        }
      ]
    },
    {
      "name": "glass_pane_1",
      "primitives": [
        {
          "attributes": {
            "POSITION": 162
          },
          "indices": 163,
          "mode": 4
        }
      ]
    },
    {
      "name": "glass_pane_lo_1",
      "primitives": [
        {
          "attributes": {
            "POSITION": 164
          },
          "indices": 165,
          "mode": 4
        }
      ]
    },
    {
      "name": "glass_pane_2",
      "primitives": [
        {
          "attributes": {
            "POSITION": 166
          },
          "indices": 167,
          "mode": 4
        }
      ]
    },
    {
      "name": "glass_pane_lo_2",
      "primitives": [
        {
          "attributes": {
            "POSITION": 168
          },
          "indices": 169,
          "mode": 4
        }
      ]
    },
    {
      "name": "glass_pane_3",
      "primitives": [
        {
          "attributes": {
            "POSITION": 170
          },
          "indices": 171,
          "mode": 4
        }
      ]
    },
    {
      "name": "glass_pane_lo_3",
      "primitives": [
        {
          "attributes": {
            "POSITION": 172
          },
          "indices": 173,
          "mode": 4
        }
      ]
    },
    {
      "name": "glass_pane_4",
      "primitives": [
        {
          "attributes": {
            "POSITION": 174
          },
          "indices": 175,
          "mode": 4
        }
      ]
    },
    {
      "name": "glass_pane_lo_4",
      "primitives": [
        {
          "attributes": {
            "POSITION": 176
          },
          "indices": 177,
          "mode": 4
        }
      ]
    },
    {
      "name": "hazard_chevron_1",
      "primitives": [
        {
          "attributes": {
            "POSITION": 178
          },
          "indices": 179,
          "mode": 4
        }
      ]
    },
    {
      "name": "hazard_chevron_2",
      "primitives": [
        {
          "attributes": {
            "POSITION": 180
          },
          "indices": 181,
          "mode": 4
        }
      ]
    },
    {
      "name": "cab_fairing",
      "primitives": [
        {
          "attributes": {
            "POSITION": 182
          },
          "indices": 183,
          "mode": 4
        }
      ]
    },
    {
      "name": "wheel_ml",
      "primitives": [
        {
          "attributes": {
            "POSITION": 184
          },
          "indices": 185,
          "mode": 4
        }
      ]
    },
    {
      "name": "wheel_mr",
      "primitives": [
        {
          "attributes": {
            "POSITION": 186
          },
          "indices": 187,
          "mode": 4
        }
      ]
    },
    {
      "name": "hub_ml",
      "primitives": [
        {
          "attributes": {
            "POSITION": 188
          },
          "indices": 189,
          "mode": 4
        }
      ]
    },
    {
      "name": "hub_mr",
      "primitives": [
        {
          "attributes": {
            "POSITION": 190
          },
          "indices": 191,
          "mode": 4
        }
      ]
    },
    {
      "name": "fender_ml",
      "primitives": [
        {
          "attributes": {
            "POSITION": 192
          },
          "indices": 193,
          "mode": 4
        }
      ]
    },
    {
      "name": "fender_mr",
      "primitives": [
        {
          "attributes": {
            "POSITION": 194
          },
          "indices": 195,
          "mode": 4
        }
      ]
    },
    {
      "name": "hose_pivot",
      "primitives": [
        {
          "attributes": {
            "POSITION": 196
          },
          "indices": 197,
          "mode": 4
        }
      ]
    },
    {
      "name": "glass_pane_5",
      "primitives": [
        {
          "attributes": {
            "POSITION": 198
          },
          "indices": 199,
          "mode": 4
        }
      ]
    },
    {
      "name": "glass_pane_6",
      "primitives": [
        {
          "attributes": {
            "POSITION": 200
          },
          "indices": 201,
          "mode": 4
        }
      ]
    },
    {
      "name": "glass_pane_7",
      "primitives": [
        {
          "attributes": {
            "POSITION": 202
          },
          "indices": 203,
          "mode": 4
        }
      ]
    },
    {
      "name": "glass_pane_8",
      "primitives": [
        {
          "attributes": {
            "POSITION": 204
          },
          "indices": 205,
          "mode": 4
        }
      ]
    }
  ],
  "nodes": [
    {
      "name": "cab",
      "mesh": 0
    },
    {
      "name": "cab_roof",
      "mesh": 1
    },
    {
      "name": "cab_visor",
      "mesh": 2
    },
    {
      "name": "cab_window",
      "mesh": 3
    },
    {
      "name": "cab_door",
      "mesh": 4
    },
    {
      "name": "cab_door_r",
      "mesh": 5
    },
    {
      "name": "door_glass",
      "mesh": 6
    },
    {
      "name": "door_glass_r",
      "mesh": 7
    },
    {
      "name": "door_handle_l",
      "mesh": 8
    },
    {
      "name": "door_handle_r",
      "mesh": 9
    },
    {
      "name": "cab_stripe",
      "mesh": 10
    },
    {
      "name": "tank",
      "mesh": 11
    },
    {
      "name": "tank_end_f",
      "mesh": 12
    },
    {
      "name": "tank_end_r",
      "mesh": 13
    },
    {
      "name": "tank_band",
      "mesh": 14
    },
    {
      "name": "tank_band_2",
      "mesh": 15
    },
    {
      "name": "tank_band_3",
      "mesh": 16
    },
    {
      "name": "tank_band_4",
      "mesh": 17
    },
    {
      "name": "tank_cap",
      "mesh": 18
    },
    {
      "name": "tank_cap_b",
      "mesh": 19
    },
    {
      "name": "tank_valve_top",
      "mesh": 20
    },
    {
      "name": "tank_walkway",
      "mesh": 21
    },
    {
      "name": "tank_rail_l",
      "mesh": 22
    },
    {
      "name": "tank_rail_r",
      "mesh": 23
    },
    {
      "name": "tank_ladder",
      "mesh": 24
    },
    {
      "name": "tank_stripe",
      "mesh": 25
    },
    {
      "name": "fuel_hazard",
      "mesh": 26
    },
    {
      "name": "chassis",
      "mesh": 27
    },
    {
      "name": "chassis_rail_l",
      "mesh": 28
    },
    {
      "name": "chassis_rail_r",
      "mesh": 29
    },
    {
      "name": "fender_fl",
      "mesh": 30
    },
    {
      "name": "fender_fr",
      "mesh": 31
    },
    {
      "name": "fender_rl",
      "mesh": 32
    },
    {
      "name": "fender_rr",
      "mesh": 33
    },
    {
      "name": "wheel_fl",
      "mesh": 34
    },
    {
      "name": "wheel_fr",
      "mesh": 35
    },
    {
      "name": "wheel_rl",
      "mesh": 36
    },
    {
      "name": "wheel_rr",
      "mesh": 37
    },
    {
      "name": "hub_fl",
      "mesh": 38
    },
    {
      "name": "hub_fr",
      "mesh": 39
    },
    {
      "name": "hub_rl",
      "mesh": 40
    },
    {
      "name": "hub_rr",
      "mesh": 41
    },
    {
      "name": "mudflap_l",
      "mesh": 42
    },
    {
      "name": "mudflap_r",
      "mesh": 43
    },
    {
      "name": "spare_wheel",
      "mesh": 44
    },
    {
      "name": "hose_mount",
      "mesh": 45
    },
    {
      "name": "hose_reel",
      "mesh": 46
    },
    {
      "name": "hose_coil_a",
      "mesh": 47
    },
    {
      "name": "hose_coil_b",
      "mesh": 48
    },
    {
      "name": "hose_coil_c",
      "mesh": 49
    },
    {
      "name": "hose",
      "mesh": 50
    },
    {
      "name": "hose_nozzle",
      "mesh": 51
    },
    {
      "name": "hose_guard",
      "mesh": 52
    },
    {
      "name": "hose_tray",
      "mesh": 53
    },
    {
      "name": "pump_cabinet",
      "mesh": 54
    },
    {
      "name": "pump_cabinet_door",
      "mesh": 55
    },
    {
      "name": "pump_gauge",
      "mesh": 56
    },
    {
      "name": "pump_valve",
      "mesh": 57
    },
    {
      "name": "pump_hose_out",
      "mesh": 58
    },
    {
      "name": "bumper",
      "mesh": 59
    },
    {
      "name": "bumper_rear",
      "mesh": 60
    },
    {
      "name": "grill",
      "mesh": 61
    },
    {
      "name": "light_bar",
      "mesh": 62
    },
    {
      "name": "headlight_l",
      "mesh": 63
    },
    {
      "name": "headlight_r",
      "mesh": 64
    },
    {
      "name": "taillight_l",
      "mesh": 65
    },
    {
      "name": "taillight_r",
      "mesh": 66
    },
    {
      "name": "beacon",
      "mesh": 67
    },
    {
      "name": "beacon_guard",
      "mesh": 68
    },
    {
      "name": "mirror_l",
      "mesh": 69
    },
    {
      "name": "mirror_r",
      "mesh": 70
    },
    {
      "name": "step",
      "mesh": 71
    },
    {
      "name": "step_r",
      "mesh": 72
    },
    {
      "name": "exhaust",
      "mesh": 73
    },
    {
      "name": "number_plate",
      "mesh": 74
    },
    {
      "name": "wiper",
      "mesh": 75
    },
    {
      "name": "window_mullion",
      "mesh": 76
    },
    {
      "name": "window_mullion_2",
      "mesh": 77
    },
    {
      "name": "window_mullion_3",
      "mesh": 78
    },
    {
      "name": "window_sill",
      "mesh": 79
    },
    {
      "name": "window_header",
      "mesh": 80
    },
    {
      "name": "glass_pane_1",
      "mesh": 81
    },
    {
      "name": "glass_pane_lo_1",
      "mesh": 82
    },
    {
      "name": "glass_pane_2",
      "mesh": 83
    },
    {
      "name": "glass_pane_lo_2",
      "mesh": 84
    },
    {
      "name": "glass_pane_3",
      "mesh": 85
    },
    {
      "name": "glass_pane_lo_3",
      "mesh": 86
    },
    {
      "name": "glass_pane_4",
      "mesh": 87
    },
    {
      "name": "glass_pane_lo_4",
      "mesh": 88
    },
    {
      "name": "hazard_chevron_1",
      "mesh": 89
    },
    {
      "name": "hazard_chevron_2",
      "mesh": 90
    },
    {
      "name": "cab_fairing",
      "mesh": 91
    },
    {
      "name": "wheel_ml",
      "mesh": 92
    },
    {
      "name": "wheel_mr",
      "mesh": 93
    },
    {
      "name": "hub_ml",
      "mesh": 94
    },
    {
      "name": "hub_mr",
      "mesh": 95
    },
    {
      "name": "fender_ml",
      "mesh": 96
    },
    {
      "name": "fender_mr",
      "mesh": 97
    },
    {
      "name": "hose_pivot",
      "mesh": 98
    },
    {
      "name": "glass_pane_5",
      "mesh": 99
    },
    {
      "name": "glass_pane_6",
      "mesh": 100
    },
    {
      "name": "glass_pane_7",
      "mesh": 101
    },
    {
      "name": "glass_pane_8",
      "mesh": 102
    }
  ],
  "scenes": [
    {
      "name": "mdl_fuel_truck_small_v06",
      "nodes": [
        0,
        1,
        2,
        3,
        4,
        5,
        6,
        7,
        8,
        9,
        10,
        11,
        12,
        13,
        14,
        15,
        16,
        17,
        18,
        19,
        20,
        21,
        22,
        23,
        24,
        25,
        26,
        27,
        28,
        29,
        30,
        31,
        32,
        33,
        34,
        35,
        36,
        37,
        38,
        39,
        40,
        41,
        42,
        43,
        44,
        45,
        46,
        47,
        48,
        49,
        50,
        51,
        52,
        53,
        54,
        55,
        56,
        57,
        58,
        59,
        60,
        61,
        62,
        63,
        64,
        65,
        66,
        67,
        68,
        69,
        70,
        71,
        72,
        73,
        74,
        75,
        76,
        77,
        78,
        79,
        80,
        81,
        82,
        83,
        84,
        85,
        86,
        87,
        88,
        89,
        90,
        91,
        92,
        93,
        94,
        95,
        96,
        97,
        98,
        99,
        100,
        101,
        102
      ]
    }
  ],
  "scene": 0
}