{
  "asset": {
    "version": "2.0",
    "generator": "Airside Batch C procedural kit"
  },
  "buffers": [
    {
      "uri": "mdl_passenger_bus_apron_v06.bin",
      "byteLength": 52056
    }
  ],
  "bufferViews": [
    {
      "buffer": 0,
      "byteOffset": 0,
      "byteLength": 288,
      "target": 34962
    },
    {
      "buffer": 0,
      "byteOffset": 288,
      "byteLength": 72,
      "target": 34963
    },
    {
      "buffer": 0,
      "byteOffset": 360,
      "byteLength": 288,
      "target": 34962
    },
    {
      "buffer": 0,
      "byteOffset": 648,
      "byteLength": 72,
      "target": 34963
    },
    {
      "buffer": 0,
      "byteOffset": 720,
      "byteLength": 2400,
      "target": 34962
    },
    {
      "buffer": 0,
      "byteOffset": 3120,
      "byteLength": 480,
      "target": 34963
    },
    {
      "buffer": 0,
      "byteOffset": 3600,
      "byteLength": 2400,
      "target": 34962
    },
    {
      "buffer": 0,
      "byteOffset": 6000,
      "byteLength": 480,
      "target": 34963
    },
    {
      "buffer": 0,
      "byteOffset": 6480,
      "byteLength": 288,
      "target": 34962
    },
    {
      "buffer": 0,
      "byteOffset": 6768,
      "byteLength": 72,
      "target": 34963
    },
    {
      "buffer": 0,
      "byteOffset": 6840,
      "byteLength": 288,
      "target": 34962
    },
    {
      "buffer": 0,
      "byteOffset": 7128,
      "byteLength": 72,
      "target": 34963
    },
    {
      "buffer": 0,
      "byteOffset": 7200,
      "byteLength": 288,
      "target": 34962
    },
    {
      "buffer": 0,
      "byteOffset": 7488,
      "byteLength": 72,
      "target": 34963
    },
    {
      "buffer": 0,
      "byteOffset": 7560,
      "byteLength": 288,
      "target": 34962
    },
    {
      "buffer": 0,
      "byteOffset": 7848,
      "byteLength": 72,
      "target": 34963
    },
    {
      "buffer": 0,
      "byteOffset": 7920,
      "byteLength": 288,
      "target": 34962
    },
    {
      "buffer": 0,
      "byteOffset": 8208,
      "byteLength": 72,
      "target": 34963
    },
    {
      "buffer": 0,
      "byteOffset": 8280,
      "byteLength": 288,
      "target": 34962
    },
    {
      "buffer": 0,
      "byteOffset": 8568,
      "byteLength": 72,
      "target": 34963
    },
    {
      "buffer": 0,
      "byteOffset": 8640,
      "byteLength": 288,
      "target": 34962
    },
    {
      "buffer": 0,
      "byteOffset": 8928,
      "byteLength": 72,
      "target": 34963
    },
    {
      "buffer": 0,
      "byteOffset": 9000,
      "byteLength": 288,
      "target": 34962
    },
    {
      "buffer": 0,
      "byteOffset": 9288,
      "byteLength": 72,
      "target": 34963
    },
    {
      "buffer": 0,
      "byteOffset": 9360,
      "byteLength": 288,
      "target": 34962
    },
    {
      "buffer": 0,
      "byteOffset": 9648,
      "byteLength": 72,
      "target": 34963
    },
    {
      "buffer": 0,
      "byteOffset": 9720,
      "byteLength": 288,
      "target": 34962
    },
    {
      "buffer": 0,
      "byteOffset": 10008,
      "byteLength": 72,
      "target": 34963
    },
    {
      "buffer": 0,
      "byteOffset": 10080,
      "byteLength": 288,
      "target": 34962
    },
    {
      "buffer": 0,
      "byteOffset": 10368,
      "byteLength": 72,
      "target": 34963
    },
    {
      "buffer": 0,
      "byteOffset": 10440,
      "byteLength": 1920,
      "target": 34962
    },
    {
      "buffer": 0,
      "byteOffset": 12360,
      "byteLength": 384,
      "target": 34963
    },
    {
      "buffer": 0,
      "byteOffset": 12744,
      "byteLength": 1920,
      "target": 34962
    },
    {
      "buffer": 0,
      "byteOffset": 14664,
      "byteLength": 384,
      "target": 34963
    },
    {
      "buffer": 0,
      "byteOffset": 15048,
      "byteLength": 1920,
      "target": 34962
    },
    {
      "buffer": 0,
      "byteOffset": 16968,
      "byteLength": 384,
      "target": 34963
    },
    {
      "buffer": 0,
      "byteOffset": 17352,
      "byteLength": 1920,
      "target": 34962
    },
    {
      "buffer": 0,
      "byteOffset": 19272,
      "byteLength": 384,
      "target": 34963
    },
    {
      "buffer": 0,
      "byteOffset": 19656,
      "byteLength": 1200,
      "target": 34962
    },
    {
      "buffer": 0,
      "byteOffset": 20856,
      "byteLength": 240,
      "target": 34963
    },
    {
      "buffer": 0,
      "byteOffset": 21096,
      "byteLength": 1200,
      "target": 34962
    },
    {
      "buffer": 0,
      "byteOffset": 22296,
      "byteLength": 240,
      "target": 34963
    },
    {
      "buffer": 0,
      "byteOffset": 22536,
      "byteLength": 1200,
      "target": 34962
    },
    {
      "buffer": 0,
      "byteOffset": 23736,
      "byteLength": 240,
      "target": 34963
    },
    {
      "buffer": 0,
      "byteOffset": 23976,
      "byteLength": 1200,
      "target": 34962
    },
    {
      "buffer": 0,
      "byteOffset": 25176,
      "byteLength": 240,
      "target": 34963
    },
    {
      "buffer": 0,
      "byteOffset": 25416,
      "byteLength": 288,
      "target": 34962
    },
    {
      "buffer": 0,
      "byteOffset": 25704,
      "byteLength": 72,
      "target": 34963
    },
    {
      "buffer": 0,
      "byteOffset": 25776,
      "byteLength": 288,
      "target": 34962
    },
    {
      "buffer": 0,
      "byteOffset": 26064,
      "byteLength": 72,
      "target": 34963
    },
    {
      "buffer": 0,
      "byteOffset": 26136,
      "byteLength": 288,
      "target": 34962
    },
    {
      "buffer": 0,
      "byteOffset": 26424,
      "byteLength": 72,
      "target": 34963
    },
    {
      "buffer": 0,
      "byteOffset": 26496,
      "byteLength": 288,
      "target": 34962
    },
    {
      "buffer": 0,
      "byteOffset": 26784,
      "byteLength": 72,
      "target": 34963
    },
    {
      "buffer": 0,
      "byteOffset": 26856,
      "byteLength": 288,
      "target": 34962
    },
    {
      "buffer": 0,
      "byteOffset": 27144,
      "byteLength": 72,
      "target": 34963
    },
    {
      "buffer": 0,
      "byteOffset": 27216,
      "byteLength": 288,
      "target": 34962
    },
    {
      "buffer": 0,
      "byteOffset": 27504,
      "byteLength": 72,
      "target": 34963
    },
    {
      "buffer": 0,
      "byteOffset": 27576,
      "byteLength": 288,
      "target": 34962
    },
    {
      "buffer": 0,
      "byteOffset": 27864,
      "byteLength": 72,
      "target": 34963
    },
    {
      "buffer": 0,
      "byteOffset": 27936,
      "byteLength": 288,
      "target": 34962
    },
    {
      "buffer": 0,
      "byteOffset": 28224,
      "byteLength": 72,
      "target": 34963
    },
    {
      "buffer": 0,
      "byteOffset": 28296,
      "byteLength": 288,
      "target": 34962
    },
    {
      "buffer": 0,
      "byteOffset": 28584,
      "byteLength": 72,
      "target": 34963
    },
    {
      "buffer": 0,
      "byteOffset": 28656,
      "byteLength": 288,
      "target": 34962
    },
    {
      "buffer": 0,
      "byteOffset": 28944,
      "byteLength": 72,
      "target": 34963
    },
    {
      "buffer": 0,
      "byteOffset": 29016,
      "byteLength": 288,
      "target": 34962
    },
    {
      "buffer": 0,
      "byteOffset": 29304,
      "byteLength": 72,
      "target": 34963
    },
    {
      "buffer": 0,
      "byteOffset": 29376,
      "byteLength": 288,
      "target": 34962
    },
    {
      "buffer": 0,
      "byteOffset": 29664,
      "byteLength": 72,
      "target": 34963
    },
    {
      "buffer": 0,
      "byteOffset": 29736,
      "byteLength": 288,
      "target": 34962
    },
    {
      "buffer": 0,
      "byteOffset": 30024,
      "byteLength": 72,
      "target": 34963
    },
    {
      "buffer": 0,
      "byteOffset": 30096,
      "byteLength": 288,
      "target": 34962
    },
    {
      "buffer": 0,
      "byteOffset": 30384,
      "byteLength": 72,
      "target": 34963
    },
    {
      "buffer": 0,
      "byteOffset": 30456,
      "byteLength": 288,
      "target": 34962
    },
    {
      "buffer": 0,
      "byteOffset": 30744,
      "byteLength": 72,
      "target": 34963
    },
    {
      "buffer": 0,
      "byteOffset": 30816,
      "byteLength": 288,
      "target": 34962
    },
    {
      "buffer": 0,
      "byteOffset": 31104,
      "byteLength": 72,
      "target": 34963
    },
    {
      "buffer": 0,
      "byteOffset": 31176,
      "byteLength": 288,
      "target": 34962
    },
    {
      "buffer": 0,
      "byteOffset": 31464,
      "byteLength": 72,
      "target": 34963
    },
    {
      "buffer": 0,
      "byteOffset": 31536,
      "byteLength": 288,
      "target": 34962
    },
    {
      "buffer": 0,
      "byteOffset": 31824,
      "byteLength": 72,
      "target": 34963
    },
    {
      "buffer": 0,
      "byteOffset": 31896,
      "byteLength": 288,
      "target": 34962
    },
    {
      "buffer": 0,
      "byteOffset": 32184,
      "byteLength": 72,
      "target": 34963
    },
    {
      "buffer": 0,
      "byteOffset": 32256,
      "byteLength": 288,
      "target": 34962
    },
    {
      "buffer": 0,
      "byteOffset": 32544,
      "byteLength": 72,
      "target": 34963
    },
    {
      "buffer": 0,
      "byteOffset": 32616,
      "byteLength": 288,
      "target": 34962
    },
    {
      "buffer": 0,
      "byteOffset": 32904,
      "byteLength": 72,
      "target": 34963
    },
    {
      "buffer": 0,
      "byteOffset": 32976,
      "byteLength": 288,
      "target": 34962
    },
    {
      "buffer": 0,
      "byteOffset": 33264,
      "byteLength": 72,
      "target": 34963
    },
    {
      "buffer": 0,
      "byteOffset": 33336,
      "byteLength": 288,
      "target": 34962
    },
    {
      "buffer": 0,
      "byteOffset": 33624,
      "byteLength": 72,
      "target": 34963
    },
    {
      "buffer": 0,
      "byteOffset": 33696,
      "byteLength": 288,
      "target": 34962
    },
    {
      "buffer": 0,
      "byteOffset": 33984,
      "byteLength": 72,
      "target": 34963
    },
    {
      "buffer": 0,
      "byteOffset": 34056,
      "byteLength": 288,
      "target": 34962
    },
    {
      "buffer": 0,
      "byteOffset": 34344,
      "byteLength": 72,
      "target": 34963
    },
    {
      "buffer": 0,
      "byteOffset": 34416,
      "byteLength": 288,
      "target": 34962
    },
    {
      "buffer": 0,
      "byteOffset": 34704,
      "byteLength": 72,
      "target": 34963
    },
    {
      "buffer": 0,
      "byteOffset": 34776,
      "byteLength": 288,
      "target": 34962
    },
    {
      "buffer": 0,
      "byteOffset": 35064,
      "byteLength": 72,
      "target": 34963
    },
    {
      "buffer": 0,
      "byteOffset": 35136,
      "byteLength": 288,
      "target": 34962
    },
    {
      "buffer": 0,
      "byteOffset": 35424,
      "byteLength": 72,
      "target": 34963
    },
    {
      "buffer": 0,
      "byteOffset": 35496,
      "byteLength": 288,
      "target": 34962
    },
    {
      "buffer": 0,
      "byteOffset": 35784,
      "byteLength": 72,
      "target": 34963
    },
    {
      "buffer": 0,
      "byteOffset": 35856,
      "byteLength": 288,
      "target": 34962
    },
    {
      "buffer": 0,
      "byteOffset": 36144,
      "byteLength": 72,
      "target": 34963
    },
    {
      "buffer": 0,
      "byteOffset": 36216,
      "byteLength": 288,
      "target": 34962
    },
    {
      "buffer": 0,
      "byteOffset": 36504,
      "byteLength": 72,
      "target": 34963
    },
    {
      "buffer": 0,
      "byteOffset": 36576,
      "byteLength": 288,
      "target": 34962
    },
    {
      "buffer": 0,
      "byteOffset": 36864,
      "byteLength": 72,
      "target": 34963
    },
    {
      "buffer": 0,
      "byteOffset": 36936,
      "byteLength": 288,
      "target": 34962
    },
    {
      "buffer": 0,
      "byteOffset": 37224,
      "byteLength": 72,
      "target": 34963
    },
    {
      "buffer": 0,
      "byteOffset": 37296,
      "byteLength": 288,
      "target": 34962
    },
    {
      "buffer": 0,
      "byteOffset": 37584,
      "byteLength": 72,
      "target": 34963
    },
    {
      "buffer": 0,
      "byteOffset": 37656,
      "byteLength": 288,
      "target": 34962
    },
    {
      "buffer": 0,
      "byteOffset": 37944,
      "byteLength": 72,
      "target": 34963
    },
    {
      "buffer": 0,
      "byteOffset": 38016,
      "byteLength": 288,
      "target": 34962
    },
    {
      "buffer": 0,
      "byteOffset": 38304,
      "byteLength": 72,
      "target": 34963
    },
    {
      "buffer": 0,
      "byteOffset": 38376,
      "byteLength": 288,
      "target": 34962
    },
    {
      "buffer": 0,
      "byteOffset": 38664,
      "byteLength": 72,
      "target": 34963
    },
    {
      "buffer": 0,
      "byteOffset": 38736,
      "byteLength": 288,
      "target": 34962
    },
    {
      "buffer": 0,
      "byteOffset": 39024,
      "byteLength": 72,
      "target": 34963
    },
    {
      "buffer": 0,
      "byteOffset": 39096,
      "byteLength": 288,
      "target": 34962
    },
    {
      "buffer": 0,
      "byteOffset": 39384,
      "byteLength": 72,
      "target": 34963
    },
    {
      "buffer": 0,
      "byteOffset": 39456,
      "byteLength": 288,
      "target": 34962
    },
    {
      "buffer": 0,
      "byteOffset": 39744,
      "byteLength": 72,
      "target": 34963
    },
    {
      "buffer": 0,
      "byteOffset": 39816,
      "byteLength": 288,
      "target": 34962
    },
    {
      "buffer": 0,
      "byteOffset": 40104,
      "byteLength": 72,
      "target": 34963
    },
    {
      "buffer": 0,
      "byteOffset": 40176,
      "byteLength": 288,
      "target": 34962
    },
    {
      "buffer": 0,
      "byteOffset": 40464,
      "byteLength": 72,
      "target": 34963
    },
    {
      "buffer": 0,
      "byteOffset": 40536,
      "byteLength": 288,
      "target": 34962
    },
    {
      "buffer": 0,
      "byteOffset": 40824,
      "byteLength": 72,
      "target": 34963
    },
    {
      "buffer": 0,
      "byteOffset": 40896,
      "byteLength": 288,
      "target": 34962
    },
    {
      "buffer": 0,
      "byteOffset": 41184,
      "byteLength": 72,
      "target": 34963
    },
    {
      "buffer": 0,
      "byteOffset": 41256,
      "byteLength": 288,
      "target": 34962
    },
    {
      "buffer": 0,
      "byteOffset": 41544,
      "byteLength": 72,
      "target": 34963
    },
    {
      "buffer": 0,
      "byteOffset": 41616,
      "byteLength": 288,
      "target": 34962
    },
    {
      "buffer": 0,
      "byteOffset": 41904,
      "byteLength": 72,
      "target": 34963
    },
    {
      "buffer": 0,
      "byteOffset": 41976,
      "byteLength": 288,
      "target": 34962
    },
    {
      "buffer": 0,
      "byteOffset": 42264,
      "byteLength": 72,
      "target": 34963
    },
    {
      "buffer": 0,
      "byteOffset": 42336,
      "byteLength": 288,
      "target": 34962
    },
    {
      "buffer": 0,
      "byteOffset": 42624,
      "byteLength": 72,
      "target": 34963
    },
    {
      "buffer": 0,
      "byteOffset": 42696,
      "byteLength": 288,
      "target": 34962
    },
    {
      "buffer": 0,
      "byteOffset": 42984,
      "byteLength": 72,
      "target": 34963
    },
    {
      "buffer": 0,
      "byteOffset": 43056,
      "byteLength": 288,
      "target": 34962
    },
    {
      "buffer": 0,
      "byteOffset": 43344,
      "byteLength": 72,
      "target": 34963
    },
    {
      "buffer": 0,
      "byteOffset": 43416,
      "byteLength": 288,
      "target": 34962
    },
    {
      "buffer": 0,
      "byteOffset": 43704,
      "byteLength": 72,
      "target": 34963
    },
    {
      "buffer": 0,
      "byteOffset": 43776,
      "byteLength": 288,
      "target": 34962
    },
    {
      "buffer": 0,
      "byteOffset": 44064,
      "byteLength": 72,
      "target": 34963
    },
    {
      "buffer": 0,
      "byteOffset": 44136,
      "byteLength": 288,
      "target": 34962
    },
    {
      "buffer": 0,
      "byteOffset": 44424,
      "byteLength": 72,
      "target": 34963
    },
    {
      "buffer": 0,
      "byteOffset": 44496,
      "byteLength": 288,
      "target": 34962
    },
    {
      "buffer": 0,
      "byteOffset": 44784,
      "byteLength": 72,
      "target": 34963
    },
    {
      "buffer": 0,
      "byteOffset": 44856,
      "byteLength": 288,
      "target": 34962
    },
    {
      "buffer": 0,
      "byteOffset": 45144,
      "byteLength": 72,
      "target": 34963
    },
    {
      "buffer": 0,
      "byteOffset": 45216,
      "byteLength": 288,
      "target": 34962
    },
    {
      "buffer": 0,
      "byteOffset": 45504,
      "byteLength": 72,
      "target": 34963
    },
    {
      "buffer": 0,
      "byteOffset": 45576,
      "byteLength": 288,
      "target": 34962
    },
    {
      "buffer": 0,
      "byteOffset": 45864,
      "byteLength": 72,
      "target": 34963
    },
    {
      "buffer": 0,
      "byteOffset": 45936,
      "byteLength": 288,
      "target": 34962
    },
    {
      "buffer": 0,
      "byteOffset": 46224,
      "byteLength": 72,
      "target": 34963
    },
    {
      "buffer": 0,
      "byteOffset": 46296,
      "byteLength": 288,
      "target": 34962
    },
    {
      "buffer": 0,
      "byteOffset": 46584,
      "byteLength": 72,
      "target": 34963
    },
    {
      "buffer": 0,
      "byteOffset": 46656,
      "byteLength": 288,
      "target": 34962
    },
    {
      "buffer": 0,
      "byteOffset": 46944,
      "byteLength": 72,
      "target": 34963
    },
    {
      "buffer": 0,
      "byteOffset": 47016,
      "byteLength": 288,
      "target": 34962
    },
    {
      "buffer": 0,
      "byteOffset": 47304,
      "byteLength": 72,
      "target": 34963
    },
    {
      "buffer": 0,
      "byteOffset": 47376,
      "byteLength": 288,
      "target": 34962
    },
    {
      "buffer": 0,
      "byteOffset": 47664,
      "byteLength": 72,
      "target": 34963
    },
    {
      "buffer": 0,
      "byteOffset": 47736,
      "byteLength": 288,
      "target": 34962
    },
    {
      "buffer": 0,
      "byteOffset": 48024,
      "byteLength": 72,
      "target": 34963
    },
    {
      "buffer": 0,
      "byteOffset": 48096,
      "byteLength": 288,
      "target": 34962
    },
    {
      "buffer": 0,
      "byteOffset": 48384,
      "byteLength": 72,
      "target": 34963
    },
    {
      "buffer": 0,
      "byteOffset": 48456,
      "byteLength": 288,
      "target": 34962
    },
    {
      "buffer": 0,
      "byteOffset": 48744,
      "byteLength": 72,
      "target": 34963
    },
    {
      "buffer": 0,
      "byteOffset": 48816,
      "byteLength": 288,
      "target": 34962
    },
    {
      "buffer": 0,
      "byteOffset": 49104,
      "byteLength": 72,
      "target": 34963
    },
    {
      "buffer": 0,
      "byteOffset": 49176,
      "byteLength": 288,
      "target": 34962
    },
    {
      "buffer": 0,
      "byteOffset": 49464,
      "byteLength": 72,
      "target": 34963
    },
    {
      "buffer": 0,
      "byteOffset": 49536,
      "byteLength": 288,
      "target": 34962
    },
    {
      "buffer": 0,
      "byteOffset": 49824,
      "byteLength": 72,
      "target": 34963
    },
    {
      "buffer": 0,
      "byteOffset": 49896,
      "byteLength": 288,
      "target": 34962
    },
    {
      "buffer": 0,
      "byteOffset": 50184,
      "byteLength": 72,
      "target": 34963
    },
    {
      "buffer": 0,
      "byteOffset": 50256,
      "byteLength": 288,
      "target": 34962
    },
    {
      "buffer": 0,
      "byteOffset": 50544,
      "byteLength": 72,
      "target": 34963
    },
    {
      "buffer": 0,
      "byteOffset": 50616,
      "byteLength": 288,
      "target": 34962
    },
    {
      "buffer": 0,
      "byteOffset": 50904,
      "byteLength": 72,
      "target": 34963
    },
    {
      "buffer": 0,
      "byteOffset": 50976,
      "byteLength": 288,
      "target": 34962
    },
    {
      "buffer": 0,
      "byteOffset": 51264,
      "byteLength": 72,
      "target": 34963
    },
    {
      "buffer": 0,
      "byteOffset": 51336,
      "byteLength": 288,
      "target": 34962
    },
    {
      "buffer": 0,
      "byteOffset": 51624,
      "byteLength": 72,
      "target": 34963
    },
    {
      "buffer": 0,
      "byteOffset": 51696,
      "byteLength": 288,
      "target": 34962
    },
    {
      "buffer": 0,
      "byteOffset": 51984,
      "byteLength": 72,
      "target": 34963
    }
  ],
  "accessors": [
    {
      "bufferView": 0,
      "componentType": 5126,
      "count": 24,
      "type": "VEC3",
      "max": [
        2.25,
        1.2949999570846558,
        0.8600000143051147
      ],
      "min": [
        -2.25,
        0.14499999582767487,
        -0.8600000143051147
      ]
    },
    {
      "bufferView": 1,
      "componentType": 5123,
      "count": 36,
      "type": "SCALAR"
    },
    {
      "bufferView": 2,
      "componentType": 5126,
      "count": 24,
      "type": "VEC3",
      "max": [
        2.125,
        2.130000114440918,
        0.7599999904632568
      ],
      "min": [
        -2.125,
        1.909999966621399,
        -0.7599999904632568
      ]
    },
    {
      "bufferView": 3,
      "componentType": 5123,
      "count": 36,
      "type": "SCALAR"
    },
    {
      "bufferView": 4,
      "componentType": 5126,
      "count": 200,
      "type": "VEC3",
      "max": [
        2.955000638961792,
        1.8300000429153442,
        0.8799999952316284
      ],
      "min": [
        1.4049999713897705,
        0.07000000029802322,
        -0.8799999952316284
      ]
    },
    {
      "bufferView": 5,
      "componentType": 5123,
      "count": 240,
      "type": "SCALAR"
    },
    {
      "bufferView": 6,
      "componentType": 5126,
      "count": 200,
      "type": "VEC3",
      "max": [
        -1.4299999475479126,
        1.7899999618530273,
        0.8399999737739563
      ],
      "min": [
        -2.930000066757202,
        0.10999999940395355,
        -0.8399999737739563
      ]
    },
    {
      "bufferView": 7,
      "componentType": 5123,
      "count": 240,
      "type": "SCALAR"
    },
    {
      "bufferView": 8,
      "componentType": 5126,
      "count": 24,
      "type": "VEC3",
      "max": [
        1.9500000476837158,
        1.6699999570846558,
        0.8399999737739563
      ],
      "min": [
        -1.9500000476837158,
        1.090000033378601,
        -0.8399999737739563
      ]
    },
    {
      "bufferView": 9,
      "componentType": 5123,
      "count": 36,
      "type": "SCALAR"
    },
    {
      "bufferView": 10,
      "componentType": 5126,
      "count": 24,
      "type": "VEC3",
      "max": [
        2.3450000286102295,
        1.8300000429153442,
        0.7099999785423279
      ],
      "min": [
        2.2950000762939453,
        1.0099999904632568,
        -0.7099999785423279
      ]
    },
    {
      "bufferView": 11,
      "componentType": 5123,
      "count": 36,
      "type": "SCALAR"
    },
    {
      "bufferView": 12,
      "componentType": 5126,
      "count": 24,
      "type": "VEC3",
      "max": [
        -2.255000114440918,
        1.7000000476837158,
        0.625
      ],
      "min": [
        -2.305000066757202,
        1.100000023841858,
        -0.625
      ]
    },
    {
      "bufferView": 13,
      "componentType": 5123,
      "count": 36,
      "type": "SCALAR"
    },
    {
      "bufferView": 14,
      "componentType": 5126,
      "count": 24,
      "type": "VEC3",
      "max": [
        0.875,
        1.7050000429153442,
        0.949999988079071
      ],
      "min": [
        -0.17499999701976776,
        0.2549999952316284,
        0.8500000238418579
      ]
    },
    {
      "bufferView": 15,
      "componentType": 5123,
      "count": 36,
      "type": "SCALAR"
    },
    {
      "bufferView": 16,
      "componentType": 5126,
      "count": 24,
      "type": "VEC3",
      "max": [
        0.8999999761581421,
        1.7300000190734863,
        0.9800000190734863
      ],
      "min": [
        -0.30000001192092896,
        0.23000000417232513,
        0.9200000166893005
      ]
    },
    {
      "bufferView": 17,
      "componentType": 5123,
      "count": 36,
      "type": "SCALAR"
    },
    {
      "bufferView": 18,
      "componentType": 5126,
      "count": 24,
      "type": "VEC3",
      "max": [
        0.699999988079071,
        1.590000033378601,
        0.9700000286102295
      ],
      "min": [
        0.0,
        0.9700000286102295,
        0.9300000071525574
      ]
    },
    {
      "bufferView": 19,
      "componentType": 5123,
      "count": 36,
      "type": "SCALAR"
    },
    {
      "bufferView": 20,
      "componentType": 5126,
      "count": 24,
      "type": "VEC3",
      "max": [
        0.6600000262260437,
        1.1200000047683716,
        1.0099999904632568
      ],
      "min": [
        0.5799999833106995,
        0.9200000166893005,
        0.949999988079071
      ]
    },
    {
      "bufferView": 21,
      "componentType": 5123,
      "count": 36,
      "type": "SCALAR"
    },
    {
      "bufferView": 22,
      "componentType": 5126,
      "count": 24,
      "type": "VEC3",
      "max": [
        -0.14000000059604645,
        1.5399999618530273,
        1.0
      ],
      "min": [
        -0.2199999988079071,
        1.4199999570846558,
        0.9200000166893005
      ]
    },
    {
      "bufferView": 23,
      "componentType": 5123,
      "count": 36,
      "type": "SCALAR"
    },
    {
      "bufferView": 24,
      "componentType": 5126,
      "count": 24,
      "type": "VEC3",
      "max": [
        -0.14000000059604645,
        0.6100000143051147,
        1.0
      ],
      "min": [
        -0.2199999988079071,
        0.49000000953674316,
        0.9200000166893005
      ]
    },
    {
      "bufferView": 25,
      "componentType": 5123,
      "count": 36,
      "type": "SCALAR"
    },
    {
      "bufferView": 26,
      "componentType": 5126,
      "count": 24,
      "type": "VEC3",
      "max": [
        2.5799999237060547,
        0.5799999833106995,
        0.7900000214576721
      ],
      "min": [
        2.259999990463257,
        0.18000000715255737,
        -0.7900000214576721
      ]
    },
    {
      "bufferView": 27,
      "componentType": 5123,
      "count": 36,
      "type": "SCALAR"
    },
    {
      "bufferView": 28,
      "componentType": 5126,
      "count": 24,
      "type": "VEC3",
      "max": [
        -2.259999990463257,
        0.5799999833106995,
        0.7900000214576721
      ],
      "min": [
        -2.5799999237060547,
        0.18000000715255737,
        -0.7900000214576721
      ]
    },
    {
      "bufferView": 29,
      "componentType": 5123,
      "count": 36,
      "type": "SCALAR"
    },
    {
      "bufferView": 30,
      "componentType": 5126,
      "count": 160,
      "type": "VEC3",
      "max": [
        1.7999999523162842,
        0.6000000238418579,
        0.8800000548362732
      ],
      "min": [
        1.2000000476837158,
        0.0,
        0.6199999451637268
      ]
    },
    {
      "bufferView": 31,
      "componentType": 5123,
      "count": 192,
      "type": "SCALAR"
    },
    {
      "bufferView": 32,
      "componentType": 5126,
      "count": 160,
      "type": "VEC3",
      "max": [
        1.7999999523162842,
        0.6000000238418579,
        -0.6199999451637268
      ],
      "min": [
        1.2000000476837158,
        0.0,
        -0.8800000548362732
      ]
    },
    {
      "bufferView": 33,
      "componentType": 5123,
      "count": 192,
      "type": "SCALAR"
    },
    {
      "bufferView": 34,
      "componentType": 5126,
      "count": 160,
      "type": "VEC3",
      "max": [
        -1.2000000476837158,
        0.6000000238418579,
        0.8800000548362732
      ],
      "min": [
        -1.7999999523162842,
        0.0,
        0.6199999451637268
      ]
    },
    {
      "bufferView": 35,
      "componentType": 5123,
      "count": 192,
      "type": "SCALAR"
    },
    {
      "bufferView": 36,
      "componentType": 5126,
      "count": 160,
      "type": "VEC3",
      "max": [
        -1.2000000476837158,
        0.6000000238418579,
        -0.6199999451637268
      ],
      "min": [
        -1.7999999523162842,
        0.0,
        -0.8800000548362732
      ]
    },
    {
      "bufferView": 37,
      "componentType": 5123,
      "count": 192,
      "type": "SCALAR"
    },
    {
      "bufferView": 38,
      "componentType": 5126,
      "count": 100,
      "type": "VEC3",
      "max": [
        1.6399999856948853,
        0.4331479072570801,
        0.8200000524520874
      ],
      "min": [
        1.3600000143051147,
        0.16685208678245544,
        0.6799999475479126
      ]
    },
    {
      "bufferView": 39,
      "componentType": 5123,
      "count": 120,
      "type": "SCALAR"
    },
    {
      "bufferView": 40,
      "componentType": 5126,
      "count": 100,
      "type": "VEC3",
      "max": [
        1.6399999856948853,
        0.4331479072570801,
        -0.6799999475479126
      ],
      "min": [
        1.3600000143051147,
        0.16685208678245544,
        -0.8200000524520874
      ]
    },
    {
      "bufferView": 41,
      "componentType": 5123,
      "count": 120,
      "type": "SCALAR"
    },
    {
      "bufferView": 42,
      "componentType": 5126,
      "count": 100,
      "type": "VEC3",
      "max": [
        -1.3600000143051147,
        0.4331479072570801,
        0.8200000524520874
      ],
      "min": [
        -1.6399999856948853,
        0.16685208678245544,
        0.6799999475479126
      ]
    },
    {
      "bufferView": 43,
      "componentType": 5123,
      "count": 120,
      "type": "SCALAR"
    },
    {
      "bufferView": 44,
      "componentType": 5126,
      "count": 100,
      "type": "VEC3",
      "max": [
        -1.3600000143051147,
        0.4331479072570801,
        -0.6799999475479126
      ],
      "min": [
        -1.6399999856948853,
        0.16685208678245544,
        -0.8200000524520874
      ]
    },
    {
      "bufferView": 45,
      "componentType": 5123,
      "count": 120,
      "type": "SCALAR"
    },
    {
      "bufferView": 46,
      "componentType": 5126,
      "count": 24,
      "type": "VEC3",
      "max": [
        1.875,
        0.7699999809265137,
        0.8899999856948853
      ],
      "min": [
        1.125,
        0.38999998569488525,
        0.75
      ]
    },
    {
      "bufferView": 47,
      "componentType": 5123,
      "count": 36,
      "type": "SCALAR"
    },
    {
      "bufferView": 48,
      "componentType": 5126,
      "count": 24,
      "type": "VEC3",
      "max": [
        1.875,
        0.7699999809265137,
        -0.75
      ],
      "min": [
        1.125,
        0.38999998569488525,
        -0.8899999856948853
      ]
    },
    {
      "bufferView": 49,
      "componentType": 5123,
      "count": 36,
      "type": "SCALAR"
    },
    {
      "bufferView": 50,
      "componentType": 5126,
      "count": 24,
      "type": "VEC3",
      "max": [
        -1.125,
        0.7699999809265137,
        0.8899999856948853
      ],
      "min": [
        -1.875,
        0.38999998569488525,
        0.75
      ]
    },
    {
      "bufferView": 51,
      "componentType": 5123,
      "count": 36,
      "type": "SCALAR"
    },
    {
      "bufferView": 52,
      "componentType": 5126,
      "count": 24,
      "type": "VEC3",
      "max": [
        -1.125,
        0.7699999809265137,
        -0.75
      ],
      "min": [
        -1.875,
        0.38999998569488525,
        -0.8899999856948853
      ]
    },
    {
      "bufferView": 53,
      "componentType": 5123,
      "count": 36,
      "type": "SCALAR"
    },
    {
      "bufferView": 54,
      "componentType": 5126,
      "count": 24,
      "type": "VEC3",
      "max": [
        0.15000000596046448,
        2.299999952316284,
        0.15000000596046448
      ],
      "min": [
        -0.15000000596046448,
        2.0999999046325684,
        -0.15000000596046448
      ]
    },
    {
      "bufferView": 55,
      "componentType": 5123,
      "count": 36,
      "type": "SCALAR"
    },
    {
      "bufferView": 56,
      "componentType": 5126,
      "count": 24,
      "type": "VEC3",
      "max": [
        2.240000009536743,
        1.7400000095367432,
        1.0499999523162842
      ],
      "min": [
        2.119999885559082,
        1.4199999570846558,
        0.8500000238418579
      ]
    },
    {
      "bufferView": 57,
      "componentType": 5123,
      "count": 36,
      "type": "SCALAR"
    },
    {
      "bufferView": 58,
      "componentType": 5126,
      "count": 24,
      "type": "VEC3",
      "max": [
        2.240000009536743,
        1.7400000095367432,
        -0.8500000238418579
      ],
      "min": [
        2.119999885559082,
        1.4199999570846558,
        -1.0499999523162842
      ]
    },
    {
      "bufferView": 59,
      "componentType": 5123,
      "count": 36,
      "type": "SCALAR"
    },
    {
      "bufferView": 60,
      "componentType": 5126,
      "count": 24,
      "type": "VEC3",
      "max": [
        0.7749999761581421,
        0.38999998569488525,
        1.190000057220459
      ],
      "min": [
        -0.17499999701976776,
        0.25,
        0.8100000023841858
      ]
    },
    {
      "bufferView": 61,
      "componentType": 5123,
      "count": 36,
      "type": "SCALAR"
    },
    {
      "bufferView": 62,
      "componentType": 5126,
      "count": 24,
      "type": "VEC3",
      "max": [
        2.4800000190734863,
        0.8100000023841858,
        0.6499999761581421
      ],
      "min": [
        2.359999895095825,
        0.6299999952316284,
        0.44999998807907104
      ]
    },
    {
      "bufferView": 63,
      "componentType": 5123,
      "count": 36,
      "type": "SCALAR"
    },
    {
      "bufferView": 64,
      "componentType": 5126,
      "count": 24,
      "type": "VEC3",
      "max": [
        2.4800000190734863,
        0.8100000023841858,
        -0.44999998807907104
      ],
      "min": [
        2.359999895095825,
        0.6299999952316284,
        -0.6499999761581421
      ]
    },
    {
      "bufferView": 65,
      "componentType": 5123,
      "count": 36,
      "type": "SCALAR"
    },
    {
      "bufferView": 66,
      "componentType": 5126,
      "count": 24,
      "type": "VEC3",
      "max": [
        -2.369999885559082,
        0.800000011920929,
        0.6299999952316284
      ],
      "min": [
        -2.4700000286102295,
        0.6399999856948853,
        0.4699999988079071
      ]
    },
    {
      "bufferView": 67,
      "componentType": 5123,
      "count": 36,
      "type": "SCALAR"
    },
    {
      "bufferView": 68,
      "componentType": 5126,
      "count": 24,
      "type": "VEC3",
      "max": [
        -2.369999885559082,
        0.800000011920929,
        -0.4699999988079071
      ],
      "min": [
        -2.4700000286102295,
        0.6399999856948853,
        -0.6299999952316284
      ]
    },
    {
      "bufferView": 69,
      "componentType": 5123,
      "count": 36,
      "type": "SCALAR"
    },
    {
      "bufferView": 70,
      "componentType": 5126,
      "count": 24,
      "type": "VEC3",
      "max": [
        2.0999999046325684,
        1.0299999713897705,
        0.9049999713897705
      ],
      "min": [
        -2.0999999046325684,
        0.8700000047683716,
        0.8550000190734863
      ]
    },
    {
      "bufferView": 71,
      "componentType": 5123,
      "count": 36,
      "type": "SCALAR"
    },
    {
      "bufferView": 72,
      "componentType": 5126,
      "count": 24,
      "type": "VEC3",
      "max": [
        2.0999999046325684,
        1.0299999713897705,
        -0.8550000190734863
      ],
      "min": [
        -2.0999999046325684,
        0.8700000047683716,
        -0.9049999713897705
      ]
    },
    {
      "bufferView": 73,
      "componentType": 5123,
      "count": 36,
      "type": "SCALAR"
    },
    {
      "bufferView": 74,
      "componentType": 5126,
      "count": 24,
      "type": "VEC3",
      "max": [
        2.075000047683716,
        1.809999942779541,
        0.8999999761581421
      ],
      "min": [
        -2.075000047683716,
        1.75,
        0.8600000143051147
      ]
    },
    {
      "bufferView": 75,
      "componentType": 5123,
      "count": 36,
      "type": "SCALAR"
    },
    {
      "bufferView": 76,
      "componentType": 5126,
      "count": 24,
      "type": "VEC3",
      "max": [
        2.049999952316284,
        0.7099999785423279,
        0.9049999713897705
      ],
      "min": [
        -2.049999952316284,
        0.33000001311302185,
        0.8550000190734863
      ]
    },
    {
      "bufferView": 77,
      "componentType": 5123,
      "count": 36,
      "type": "SCALAR"
    },
    {
      "bufferView": 78,
      "componentType": 5126,
      "count": 24,
      "type": "VEC3",
      "max": [
        2.049999952316284,
        0.7099999785423279,
        -0.8550000190734863
      ],
      "min": [
        -2.049999952316284,
        0.33000001311302185,
        -0.9049999713897705
      ]
    },
    {
      "bufferView": 79,
      "componentType": 5123,
      "count": 36,
      "type": "SCALAR"
    },
    {
      "bufferView": 80,
      "componentType": 5126,
      "count": 24,
      "type": "VEC3",
      "max": [
        1.850000023841858,
        0.3199999928474426,
        0.8299999833106995
      ],
      "min": [
        -1.850000023841858,
        0.20000000298023224,
        0.7699999809265137
      ]
    },
    {
      "bufferView": 81,
      "componentType": 5123,
      "count": 36,
      "type": "SCALAR"
    },
    {
      "bufferView": 82,
      "componentType": 5126,
      "count": 24,
      "type": "VEC3",
      "max": [
        1.850000023841858,
        0.3199999928474426,
        -0.7699999809265137
      ],
      "min": [
        -1.850000023841858,
        0.20000000298023224,
        -0.8299999833106995
      ]
    },
    {
      "bufferView": 83,
      "componentType": 5123,
      "count": 36,
      "type": "SCALAR"
    },
    {
      "bufferView": 84,
      "componentType": 5126,
      "count": 24,
      "type": "VEC3",
      "max": [
        2.259999990463257,
        1.6100000143051147,
        0.4749999940395355
      ],
      "min": [
        2.180000066757202,
        1.5499999523162842,
        -0.4749999940395355
      ]
    },
    {
      "bufferView": 85,
      "componentType": 5123,
      "count": 36,
      "type": "SCALAR"
    },
    {
      "bufferView": 86,
      "componentType": 5126,
      "count": 24,
      "type": "VEC3",
      "max": [
        2.25,
        1.5049999952316284,
        0.5699999928474426
      ],
      "min": [
        2.190000057220459,
        1.4550000429153442,
        -0.12999999523162842
      ]
    },
    {
      "bufferView": 87,
      "componentType": 5123,
      "count": 36,
      "type": "SCALAR"
    },
    {
      "bufferView": 88,
      "componentType": 5126,
      "count": 24,
      "type": "VEC3",
      "max": [
        1.649999976158142,
        2.2200000286102295,
        0.4749999940395355
      ],
      "min": [
        -1.649999976158142,
        2.140000104904175,
        -0.4749999940395355
      ]
    },
    {
      "bufferView": 89,
      "componentType": 5123,
      "count": 36,
      "type": "SCALAR"
    },
    {
      "bufferView": 90,
      "componentType": 5126,
      "count": 24,
      "type": "VEC3",
      "max": [
        -0.5600000023841858,
        2.2200000286102295,
        0.23999999463558197
      ],
      "min": [
        -1.0399999618530273,
        2.0799999237060547,
        -0.23999999463558197
      ]
    },
    {
      "bufferView": 91,
      "componentType": 5123,
      "count": 36,
      "type": "SCALAR"
    },
    {
      "bufferView": 92,
      "componentType": 5126,
      "count": 24,
      "type": "VEC3",
      "max": [
        2.490000009536743,
        1.0700000524520874,
        0.4749999940395355
      ],
      "min": [
        2.4100000858306885,
        0.6899999976158142,
        -0.4749999940395355
      ]
    },
    {
      "bufferView": 93,
      "componentType": 5123,
      "count": 36,
      "type": "SCALAR"
    },
    {
      "bufferView": 94,
      "componentType": 5126,
      "count": 24,
      "type": "VEC3",
      "max": [
        2.5,
        0.5600000023841858,
        0.20000000298023224
      ],
      "min": [
        2.4600000381469727,
        0.4000000059604645,
        -0.20000000298023224
      ]
    },
    {
      "bufferView": 95,
      "componentType": 5123,
      "count": 36,
      "type": "SCALAR"
    },
    {
      "bufferView": 96,
      "componentType": 5126,
      "count": 24,
      "type": "VEC3",
      "max": [
        -1.2999999523162842,
        0.39500001072883606,
        0.8999999761581421
      ],
      "min": [
        -1.7000000476837158,
        0.04500000178813934,
        0.8600000143051147
      ]
    },
    {
      "bufferView": 97,
      "componentType": 5123,
      "count": 36,
      "type": "SCALAR"
    },
    {
      "bufferView": 98,
      "componentType": 5126,
      "count": 24,
      "type": "VEC3",
      "max": [
        -1.2999999523162842,
        0.39500001072883606,
        -0.8600000143051147
      ],
      "min": [
        -1.7000000476837158,
        0.04500000178813934,
        -0.8999999761581421
      ]
    },
    {
      "bufferView": 99,
      "componentType": 5123,
      "count": 36,
      "type": "SCALAR"
    },
    {
      "bufferView": 100,
      "componentType": 5126,
      "count": 24,
      "type": "VEC3",
      "max": [
        2.259999990463257,
        2.0199999809265137,
        0.4749999940395355
      ],
      "min": [
        2.180000066757202,
        1.7799999713897705,
        -0.4749999940395355
      ]
    },
    {
      "bufferView": 101,
      "componentType": 5123,
      "count": 36,
      "type": "SCALAR"
    },
    {
      "bufferView": 102,
      "componentType": 5126,
      "count": 24,
      "type": "VEC3",
      "max": [
        2.240000009536743,
        2.069999933242798,
        0.5
      ],
      "min": [
        2.119999885559082,
        2.009999990463257,
        -0.5
      ]
    },
    {
      "bufferView": 103,
      "componentType": 5123,
      "count": 36,
      "type": "SCALAR"
    },
    {
      "bufferView": 104,
      "componentType": 5126,
      "count": 24,
      "type": "VEC3",
      "max": [
        2.2799999713897705,
        1.9800000190734863,
        0.2750000059604645
      ],
      "min": [
        2.240000009536743,
        1.8200000524520874,
        -0.2750000059604645
      ]
    },
    {
      "bufferView": 105,
      "componentType": 5123,
      "count": 36,
      "type": "SCALAR"
    },
    {
      "bufferView": 106,
      "componentType": 5126,
      "count": 24,
      "type": "VEC3",
      "max": [
        -2.0450000762939453,
        0.3700000047683716,
        -0.5
      ],
      "min": [
        -2.3949999809265137,
        0.27000001072883606,
        -0.6000000238418579
      ]
    },
    {
      "bufferView": 107,
      "componentType": 5123,
      "count": 36,
      "type": "SCALAR"
    },
    {
      "bufferView": 108,
      "componentType": 5126,
      "count": 24,
      "type": "VEC3",
      "max": [
        -2.1600000858306885,
        1.0399999618530273,
        0.7799999713897705
      ],
      "min": [
        -2.2799999713897705,
        0.9200000166893005,
        0.6600000262260437
      ]
    },
    {
      "bufferView": 109,
      "componentType": 5123,
      "count": 36,
      "type": "SCALAR"
    },
    {
      "bufferView": 110,
      "componentType": 5126,
      "count": 24,
      "type": "VEC3",
      "max": [
        0.07500000298023224,
        1.1200000047683716,
        0.6200000047683716
      ],
      "min": [
        -1.774999976158142,
        0.6399999856948853,
        0.14000000059604645
      ]
    },
    {
      "bufferView": 111,
      "componentType": 5123,
      "count": 36,
      "type": "SCALAR"
    },
    {
      "bufferView": 112,
      "componentType": 5126,
      "count": 24,
      "type": "VEC3",
      "max": [
        0.07500000298023224,
        1.1200000047683716,
        -0.14000000059604645
      ],
      "min": [
        -1.774999976158142,
        0.6399999856948853,
        -0.6200000047683716
      ]
    },
    {
      "bufferView": 113,
      "componentType": 5123,
      "count": 36,
      "type": "SCALAR"
    },
    {
      "bufferView": 114,
      "componentType": 5126,
      "count": 24,
      "type": "VEC3",
      "max": [
        1.274999976158142,
        1.1200000047683716,
        0.6200000047683716
      ],
      "min": [
        0.02500000037252903,
        0.6399999856948853,
        0.14000000059604645
      ]
    },
    {
      "bufferView": 115,
      "componentType": 5123,
      "count": 36,
      "type": "SCALAR"
    },
    {
      "bufferView": 116,
      "componentType": 5126,
      "count": 24,
      "type": "VEC3",
      "max": [
        1.274999976158142,
        1.1200000047683716,
        -0.14000000059604645
      ],
      "min": [
        0.02500000037252903,
        0.6399999856948853,
        -0.6200000047683716
      ]
    },
    {
      "bufferView": 117,
      "componentType": 5123,
      "count": 36,
      "type": "SCALAR"
    },
    {
      "bufferView": 118,
      "componentType": 5126,
      "count": 24,
      "type": "VEC3",
      "max": [
        0.07500000298023224,
        1.3899999856948853,
        0.5899999737739563
      ],
      "min": [
        -1.774999976158142,
        1.0099999904632568,
        0.5099999904632568
      ]
    },
    {
      "bufferView": 119,
      "componentType": 5123,
      "count": 36,
      "type": "SCALAR"
    },
    {
      "bufferView": 120,
      "componentType": 5126,
      "count": 24,
      "type": "VEC3",
      "max": [
        0.07500000298023224,
        1.3899999856948853,
        -0.5099999904632568
      ],
      "min": [
        -1.774999976158142,
        1.0099999904632568,
        -0.5899999737739563
      ]
    },
    {
      "bufferView": 121,
      "componentType": 5123,
      "count": 36,
      "type": "SCALAR"
    },
    {
      "bufferView": 122,
      "componentType": 5126,
      "count": 24,
      "type": "VEC3",
      "max": [
        1.9500000476837158,
        1.1100000143051147,
        0.9300000071525574
      ],
      "min": [
        -1.9500000476837158,
        1.0499999523162842,
        0.8700000047683716
      ]
    },
    {
      "bufferView": 123,
      "componentType": 5123,
      "count": 36,
      "type": "SCALAR"
    },
    {
      "bufferView": 124,
      "componentType": 5126,
      "count": 24,
      "type": "VEC3",
      "max": [
        1.9500000476837158,
        1.1100000143051147,
        -0.8700000047683716
      ],
      "min": [
        -1.9500000476837158,
        1.0499999523162842,
        -0.9300000071525574
      ]
    },
    {
      "bufferView": 125,
      "componentType": 5123,
      "count": 36,
      "type": "SCALAR"
    },
    {
      "bufferView": 126,
      "componentType": 5126,
      "count": 24,
      "type": "VEC3",
      "max": [
        1.9500000476837158,
        1.7300000190734863,
        0.9300000071525574
      ],
      "min": [
        -1.9500000476837158,
        1.6699999570846558,
        0.8700000047683716
      ]
    },
    {
      "bufferView": 127,
      "componentType": 5123,
      "count": 36,
      "type": "SCALAR"
    },
    {
      "bufferView": 128,
      "componentType": 5126,
      "count": 24,
      "type": "VEC3",
      "max": [
        1.9500000476837158,
        1.7300000190734863,
        -0.8700000047683716
      ],
      "min": [
        -1.9500000476837158,
        1.6699999570846558,
        -0.9300000071525574
      ]
    },
    {
      "bufferView": 129,
      "componentType": 5123,
      "count": 36,
      "type": "SCALAR"
    },
    {
      "bufferView": 130,
      "componentType": 5126,
      "count": 24,
      "type": "VEC3",
      "max": [
        -1.965000033378601,
        1.6699999570846558,
        0.9300000071525574
      ],
      "min": [
        -2.0350000858306885,
        1.090000033378601,
        0.8700000047683716
      ]
    },
    {
      "bufferView": 131,
      "componentType": 5123,
      "count": 36,
      "type": "SCALAR"
    },
    {
      "bufferView": 132,
      "componentType": 5126,
      "count": 24,
      "type": "VEC3",
      "max": [
        -1.965000033378601,
        1.6699999570846558,
        -0.8700000047683716
      ],
      "min": [
        -2.0350000858306885,
        1.090000033378601,
        -0.9300000071525574
      ]
    },
    {
      "bufferView": 133,
      "componentType": 5123,
      "count": 36,
      "type": "SCALAR"
    },
    {
      "bufferView": 134,
      "componentType": 5126,
      "count": 24,
      "type": "VEC3",
      "max": [
        -1.315000057220459,
        1.6699999570846558,
        0.9300000071525574
      ],
      "min": [
        -1.3849999904632568,
        1.090000033378601,
        0.8700000047683716
      ]
    },
    {
      "bufferView": 135,
      "componentType": 5123,
      "count": 36,
      "type": "SCALAR"
    },
    {
      "bufferView": 136,
      "componentType": 5126,
      "count": 24,
      "type": "VEC3",
      "max": [
        -1.315000057220459,
        1.6699999570846558,
        -0.8700000047683716
      ],
      "min": [
        -1.3849999904632568,
        1.090000033378601,
        -0.9300000071525574
      ]
    },
    {
      "bufferView": 137,
      "componentType": 5123,
      "count": 36,
      "type": "SCALAR"
    },
    {
      "bufferView": 138,
      "componentType": 5126,
      "count": 24,
      "type": "VEC3",
      "max": [
        -0.6650000214576721,
        1.6699999570846558,
        0.9300000071525574
      ],
      "min": [
        -0.7350000143051147,
        1.090000033378601,
        0.8700000047683716
      ]
    },
    {
      "bufferView": 139,
      "componentType": 5123,
      "count": 36,
      "type": "SCALAR"
    },
    {
      "bufferView": 140,
      "componentType": 5126,
      "count": 24,
      "type": "VEC3",
      "max": [
        -0.6650000214576721,
        1.6699999570846558,
        -0.8700000047683716
      ],
      "min": [
        -0.7350000143051147,
        1.090000033378601,
        -0.9300000071525574
      ]
    },
    {
      "bufferView": 141,
      "componentType": 5123,
      "count": 36,
      "type": "SCALAR"
    },
    {
      "bufferView": 142,
      "componentType": 5126,
      "count": 24,
      "type": "VEC3",
      "max": [
        0.03500000014901161,
        1.6699999570846558,
        0.9300000071525574
      ],
      "min": [
        -0.03500000014901161,
        1.090000033378601,
        0.8700000047683716
      ]
    },
    {
      "bufferView": 143,
      "componentType": 5123,
      "count": 36,
      "type": "SCALAR"
    },
    {
      "bufferView": 144,
      "componentType": 5126,
      "count": 24,
      "type": "VEC3",
      "max": [
        0.03500000014901161,
        1.6699999570846558,
        -0.8700000047683716
      ],
      "min": [
        -0.03500000014901161,
        1.090000033378601,
        -0.9300000071525574
      ]
    },
    {
      "bufferView": 145,
      "componentType": 5123,
      "count": 36,
      "type": "SCALAR"
    },
    {
      "bufferView": 146,
      "componentType": 5126,
      "count": 24,
      "type": "VEC3",
      "max": [
        0.9850000143051147,
        1.6699999570846558,
        0.9300000071525574
      ],
      "min": [
        0.9150000214576721,
        1.090000033378601,
        0.8700000047683716
      ]
    },
    {
      "bufferView": 147,
      "componentType": 5123,
      "count": 36,
      "type": "SCALAR"
    },
    {
      "bufferView": 148,
      "componentType": 5126,
      "count": 24,
      "type": "VEC3",
      "max": [
        0.9850000143051147,
        1.6699999570846558,
        -0.8700000047683716
      ],
      "min": [
        0.9150000214576721,
        1.090000033378601,
        -0.9300000071525574
      ]
    },
    {
      "bufferView": 149,
      "componentType": 5123,
      "count": 36,
      "type": "SCALAR"
    },
    {
      "bufferView": 150,
      "componentType": 5126,
      "count": 24,
      "type": "VEC3",
      "max": [
        1.5850000381469727,
        1.6699999570846558,
        0.9300000071525574
      ],
      "min": [
        1.5149999856948853,
        1.090000033378601,
        0.8700000047683716
      ]
    },
    {
      "bufferView": 151,
      "componentType": 5123,
      "count": 36,
      "type": "SCALAR"
    },
    {
      "bufferView": 152,
      "componentType": 5126,
      "count": 24,
      "type": "VEC3",
      "max": [
        1.5850000381469727,
        1.6699999570846558,
        -0.8700000047683716
      ],
      "min": [
        1.5149999856948853,
        1.090000033378601,
        -0.9300000071525574
      ]
    },
    {
      "bufferView": 153,
      "componentType": 5123,
      "count": 36,
      "type": "SCALAR"
    },
    {
      "bufferView": 154,
      "componentType": 5126,
      "count": 24,
      "type": "VEC3",
      "max": [
        2.0850000381469727,
        1.6699999570846558,
        0.9300000071525574
      ],
      "min": [
        2.015000104904175,
        1.090000033378601,
        0.8700000047683716
      ]
    },
    {
      "bufferView": 155,
      "componentType": 5123,
      "count": 36,
      "type": "SCALAR"
    },
    {
      "bufferView": 156,
      "componentType": 5126,
      "count": 24,
      "type": "VEC3",
      "max": [
        2.0850000381469727,
        1.6699999570846558,
        -0.8700000047683716
      ],
      "min": [
        2.015000104904175,
        1.090000033378601,
        -0.9300000071525574
      ]
    },
    {
      "bufferView": 157,
      "componentType": 5123,
      "count": 36,
      "type": "SCALAR"
    },
    {
      "bufferView": 158,
      "componentType": 5126,
      "count": 24,
      "type": "VEC3",
      "max": [
        -1.649999976158142,
        1.6950000524520874,
        0.9200000166893005
      ],
      "min": [
        -2.1500000953674316,
        1.1449999809265137,
        0.8799999952316284
      ]
    },
    {
      "bufferView": 159,
      "componentType": 5123,
      "count": 36,
      "type": "SCALAR"
    },
    {
      "bufferView": 160,
      "componentType": 5126,
      "count": 24,
      "type": "VEC3",
      "max": [
        -1.649999976158142,
        1.6950000524520874,
        -0.8799999952316284
      ],
      "min": [
        -2.1500000953674316,
        1.1449999809265137,
        -0.9200000166893005
      ]
    },
    {
      "bufferView": 161,
      "componentType": 5123,
      "count": 36,
      "type": "SCALAR"
    },
    {
      "bufferView": 162,
      "componentType": 5126,
      "count": 24,
      "type": "VEC3",
      "max": [
        -1.100000023841858,
        1.6950000524520874,
        0.9200000166893005
      ],
      "min": [
        -1.600000023841858,
        1.1449999809265137,
        0.8799999952316284
      ]
    },
    {
      "bufferView": 163,
      "componentType": 5123,
      "count": 36,
      "type": "SCALAR"
    },
    {
      "bufferView": 164,
      "componentType": 5126,
      "count": 24,
      "type": "VEC3",
      "max": [
        -1.100000023841858,
        1.6950000524520874,
        -0.8799999952316284
      ],
      "min": [
        -1.600000023841858,
        1.1449999809265137,
        -0.9200000166893005
      ]
    },
    {
      "bufferView": 165,
      "componentType": 5123,
      "count": 36,
      "type": "SCALAR"
    },
    {
      "bufferView": 166,
      "componentType": 5126,
      "count": 24,
      "type": "VEC3",
      "max": [
        -0.550000011920929,
        1.6950000524520874,
        0.9200000166893005
      ],
      "min": [
        -1.0499999523162842,
        1.1449999809265137,
        0.8799999952316284
      ]
    },
    {
      "bufferView": 167,
      "componentType": 5123,
      "count": 36,
      "type": "SCALAR"
    },
    {
      "bufferView": 168,
      "componentType": 5126,
      "count": 24,
      "type": "VEC3",
      "max": [
        -0.550000011920929,
        1.6950000524520874,
        -0.8799999952316284
      ],
      "min": [
        -1.0499999523162842,
        1.1449999809265137,
        -0.9200000166893005
      ]
    },
    {
      "bufferView": 169,
      "componentType": 5123,
      "count": 36,
      "type": "SCALAR"
    },
    {
      "bufferView": 170,
      "componentType": 5126,
      "count": 24,
      "type": "VEC3",
      "max": [
        0.0,
        1.6950000524520874,
        0.9200000166893005
      ],
      "min": [
        -0.5,
        1.1449999809265137,
        0.8799999952316284
      ]
    },
    {
      "bufferView": 171,
      "componentType": 5123,
      "count": 36,
      "type": "SCALAR"
    },
    {
      "bufferView": 172,
      "componentType": 5126,
      "count": 24,
      "type": "VEC3",
      "max": [
        0.0,
        1.6950000524520874,
        -0.8799999952316284
      ],
      "min": [
        -0.5,
        1.1449999809265137,
        -0.9200000166893005
      ]
    },
    {
      "bufferView": 173,
      "componentType": 5123,
      "count": 36,
      "type": "SCALAR"
    },
    {
      "bufferView": 174,
      "componentType": 5126,
      "count": 24,
      "type": "VEC3",
      "max": [
        1.100000023841858,
        1.6950000524520874,
        0.9200000166893005
      ],
      "min": [
        0.6000000238418579,
        1.1449999809265137,
        0.8799999952316284
      ]
    },
    {
      "bufferView": 175,
      "componentType": 5123,
      "count": 36,
      "type": "SCALAR"
    },
    {
      "bufferView": 176,
      "componentType": 5126,
      "count": 24,
      "type": "VEC3",
      "max": [
        1.100000023841858,
        1.6950000524520874,
        -0.8799999952316284
      ],
      "min": [
        0.6000000238418579,
        1.1449999809265137,
        -0.9200000166893005
      ]
    },
    {
      "bufferView": 177,
      "componentType": 5123,
      "count": 36,
      "type": "SCALAR"
    },
    {
      "bufferView": 178,
      "componentType": 5126,
      "count": 24,
      "type": "VEC3",
      "max": [
        1.649999976158142,
        1.6950000524520874,
        0.9200000166893005
      ],
      "min": [
        1.149999976158142,
        1.1449999809265137,
        0.8799999952316284
      ]
    },
    {
      "bufferView": 179,
      "componentType": 5123,
      "count": 36,
      "type": "SCALAR"
    },
    {
      "bufferView": 180,
      "componentType": 5126,
      "count": 24,
      "type": "VEC3",
      "max": [
        1.649999976158142,
        1.6950000524520874,
        -0.8799999952316284
      ],
      "min": [
        1.149999976158142,
        1.1449999809265137,
        -0.9200000166893005
      ]
    },
    {
      "bufferView": 181,
      "componentType": 5123,
      "count": 36,
      "type": "SCALAR"
    },
    {
      "bufferView": 182,
      "componentType": 5126,
      "count": 24,
      "type": "VEC3",
      "max": [
        2.1500000953674316,
        1.6950000524520874,
        0.9200000166893005
      ],
      "min": [
        1.649999976158142,
        1.1449999809265137,
        0.8799999952316284
      ]
    },
    {
      "bufferView": 183,
      "componentType": 5123,
      "count": 36,
      "type": "SCALAR"
    },
    {
      "bufferView": 184,
      "componentType": 5126,
      "count": 24,
      "type": "VEC3",
      "max": [
        2.1500000953674316,
        1.6950000524520874,
        -0.8799999952316284
      ],
      "min": [
        1.649999976158142,
        1.1449999809265137,
        -0.9200000166893005
      ]
    },
    {
      "bufferView": 185,
      "componentType": 5123,
      "count": 36,
      "type": "SCALAR"
    },
    {
      "bufferView": 186,
      "componentType": 5126,
      "count": 24,
      "type": "VEC3",
      "max": [
        2.319999933242798,
        1.7000000476837158,
        -0.27000001072883606
      ],
      "min": [
        2.2799999713897705,
        1.100000023841858,
        -0.6899999976158142
      ]
    },
    {
      "bufferView": 187,
      "componentType": 5123,
      "count": 36,
      "type": "SCALAR"
    },
    {
      "bufferView": 188,
      "componentType": 5126,
      "count": 24,
      "type": "VEC3",
      "max": [
        2.319999933242798,
        1.7000000476837158,
        0.20999999344348907
      ],
      "min": [
        2.2799999713897705,
        1.100000023841858,
        -0.20999999344348907
      ]
    },
    {
      "bufferView": 189,
      "componentType": 5123,
      "count": 36,
      "type": "SCALAR"
    },
    {
      "bufferView": 190,
      "componentType": 5126,
      "count": 24,
      "type": "VEC3",
      "max": [
        2.319999933242798,
        1.7000000476837158,
        0.6899999976158142
      ],
      "min": [
        2.2799999713897705,
        1.100000023841858,
        0.27000001072883606
      ]
    },
    {
      "bufferView": 191,
      "componentType": 5123,
      "count": 36,
      "type": "SCALAR"
    },
    {
      "bufferView": 192,
      "componentType": 5126,
      "count": 24,
      "type": "VEC3",
      "max": [
        2.174999952316284,
        1.975000023841858,
        0.8100000023841858
      ],
      "min": [
        -2.174999952316284,
        1.125,
        -0.8100000023841858
      ]
    },
    {
      "bufferView": 193,
      "componentType": 5123,
      "count": 36,
      "type": "SCALAR"
    }
  ],
  "meshes": [
    {
      "name": "bus_body",
      "primitives": [
        {
          "attributes": {
            "POSITION": 0
          },
          "indices": 1,
          "mode": 4
        }
      ]
    },
    {
      "name": "cabin_roof",
      "primitives": [
        {
          "attributes": {
            "POSITION": 2
          },
          "indices": 3,
          "mode": 4
        }
      ]
    },
    {
      "name": "nose_round",
      "primitives": [
        {
          "attributes": {
            "POSITION": 4
          },
          "indices": 5,
          "mode": 4
        }
      ]
    },
    {
      "name": "tail_round",
      "primitives": [
        {
          "attributes": {
            "POSITION": 6
          },
          "indices": 7,
          "mode": 4
        }
      ]
    },
    {
      "name": "windows",
      "primitives": [
        {
          "attributes": {
            "POSITION": 8
          },
          "indices": 9,
          "mode": 4
        }
      ]
    },
    {
      "name": "windshield",
      "primitives": [
        {
          "attributes": {
            "POSITION": 10
          },
          "indices": 11,
          "mode": 4
        }
      ]
    },
    {
      "name": "rear_window",
      "primitives": [
        {
          "attributes": {
            "POSITION": 12
          },
          "indices": 13,
          "mode": 4
        }
      ]
    },
    {
      "name": "door",
      "primitives": [
        {
          "attributes": {
            "POSITION": 14
          },
          "indices": 15,
          "mode": 4
        }
      ]
    },
    {
      "name": "door_frame",
      "primitives": [
        {
          "attributes": {
            "POSITION": 16
          },
          "indices": 17,
          "mode": 4
        }
      ]
    },
    {
      "name": "door_glass",
      "primitives": [
        {
          "attributes": {
            "POSITION": 18
          },
          "indices": 19,
          "mode": 4
        }
      ]
    },
    {
      "name": "door_handle",
      "primitives": [
        {
          "attributes": {
            "POSITION": 20
          },
          "indices": 21,
          "mode": 4
        }
      ]
    },
    {
      "name": "door_hinge_t",
      "primitives": [
        {
          "attributes": {
            "POSITION": 22
          },
          "indices": 23,
          "mode": 4
        }
      ]
    },
    {
      "name": "door_hinge_b",
      "primitives": [
        {
          "attributes": {
            "POSITION": 24
          },
          "indices": 25,
          "mode": 4
        }
      ]
    },
    {
      "name": "bumper_front",
      "primitives": [
        {
          "attributes": {
            "POSITION": 26
          },
          "indices": 27,
          "mode": 4
        }
      ]
    },
    {
      "name": "bumper_rear",
      "primitives": [
        {
          "attributes": {
            "POSITION": 28
          },
          "indices": 29,
          "mode": 4
        }
      ]
    },
    {
      "name": "wheel_fl",
      "primitives": [
        {
          "attributes": {
            "POSITION": 30
          },
          "indices": 31,
          "mode": 4
        }
      ]
    },
    {
      "name": "wheel_fr",
      "primitives": [
        {
          "attributes": {
            "POSITION": 32
          },
          "indices": 33,
          "mode": 4
        }
      ]
    },
    {
      "name": "wheel_rl",
      "primitives": [
        {
          "attributes": {
            "POSITION": 34
          },
          "indices": 35,
          "mode": 4
        }
      ]
    },
    {
      "name": "wheel_rr",
      "primitives": [
        {
          "attributes": {
            "POSITION": 36
          },
          "indices": 37,
          "mode": 4
        }
      ]
    },
    {
      "name": "wheel_hub_fl",
      "primitives": [
        {
          "attributes": {
            "POSITION": 38
          },
          "indices": 39,
          "mode": 4
        }
      ]
    },
    {
      "name": "wheel_hub_fr",
      "primitives": [
        {
          "attributes": {
            "POSITION": 40
          },
          "indices": 41,
          "mode": 4
        }
      ]
    },
    {
      "name": "wheel_hub_rl",
      "primitives": [
        {
          "attributes": {
            "POSITION": 42
          },
          "indices": 43,
          "mode": 4
        }
      ]
    },
    {
      "name": "wheel_hub_rr",
      "primitives": [
        {
          "attributes": {
            "POSITION": 44
          },
          "indices": 45,
          "mode": 4
        }
      ]
    },
    {
      "name": "wheel_arch_fl",
      "primitives": [
        {
          "attributes": {
            "POSITION": 46
          },
          "indices": 47,
          "mode": 4
        }
      ]
    },
    {
      "name": "wheel_arch_fr",
      "primitives": [
        {
          "attributes": {
            "POSITION": 48
          },
          "indices": 49,
          "mode": 4
        }
      ]
    },
    {
      "name": "wheel_arch_rl",
      "primitives": [
        {
          "attributes": {
            "POSITION": 50
          },
          "indices": 51,
          "mode": 4
        }
      ]
    },
    {
      "name": "wheel_arch_rr",
      "primitives": [
        {
          "attributes": {
            "POSITION": 52
          },
          "indices": 53,
          "mode": 4
        }
      ]
    },
    {
      "name": "beacon",
      "primitives": [
        {
          "attributes": {
            "POSITION": 54
          },
          "indices": 55,
          "mode": 4
        }
      ]
    },
    {
      "name": "mirror_l",
      "primitives": [
        {
          "attributes": {
            "POSITION": 56
          },
          "indices": 57,
          "mode": 4
        }
      ]
    },
    {
      "name": "mirror_r",
      "primitives": [
        {
          "attributes": {
            "POSITION": 58
          },
          "indices": 59,
          "mode": 4
        }
      ]
    },
    {
      "name": "step",
      "primitives": [
        {
          "attributes": {
            "POSITION": 60
          },
          "indices": 61,
          "mode": 4
        }
      ]
    },
    {
      "name": "headlight_l",
      "primitives": [
        {
          "attributes": {
            "POSITION": 62
          },
          "indices": 63,
          "mode": 4
        }
      ]
    },
    {
      "name": "headlight_r",
      "primitives": [
        {
          "attributes": {
            "POSITION": 64
          },
          "indices": 65,
          "mode": 4
        }
      ]
    },
    {
      "name": "taillight_l",
      "primitives": [
        {
          "attributes": {
            "POSITION": 66
          },
          "indices": 67,
          "mode": 4
        }
      ]
    },
    {
      "name": "taillight_r",
      "primitives": [
        {
          "attributes": {
            "POSITION": 68
          },
          "indices": 69,
          "mode": 4
        }
      ]
    },
    {
      "name": "stripe",
      "primitives": [
        {
          "attributes": {
            "POSITION": 70
          },
          "indices": 71,
          "mode": 4
        }
      ]
    },
    {
      "name": "stripe_b",
      "primitives": [
        {
          "attributes": {
            "POSITION": 72
          },
          "indices": 73,
          "mode": 4
        }
      ]
    },
    {
      "name": "stripe_upper",
      "primitives": [
        {
          "attributes": {
            "POSITION": 74
          },
          "indices": 75,
          "mode": 4
        }
      ]
    },
    {
      "name": "body_panel_l",
      "primitives": [
        {
          "attributes": {
            "POSITION": 76
          },
          "indices": 77,
          "mode": 4
        }
      ]
    },
    {
      "name": "body_panel_r",
      "primitives": [
        {
          "attributes": {
            "POSITION": 78
          },
          "indices": 79,
          "mode": 4
        }
      ]
    },
    {
      "name": "skirt_l",
      "primitives": [
        {
          "attributes": {
            "POSITION": 80
          },
          "indices": 81,
          "mode": 4
        }
      ]
    },
    {
      "name": "skirt_r",
      "primitives": [
        {
          "attributes": {
            "POSITION": 82
          },
          "indices": 83,
          "mode": 4
        }
      ]
    },
    {
      "name": "wiper",
      "primitives": [
        {
          "attributes": {
            "POSITION": 84
          },
          "indices": 85,
          "mode": 4
        }
      ]
    },
    {
      "name": "wiper_b",
      "primitives": [
        {
          "attributes": {
            "POSITION": 86
          },
          "indices": 87,
          "mode": 4
        }
      ]
    },
    {
      "name": "roof_rack",
      "primitives": [
        {
          "attributes": {
            "POSITION": 88
          },
          "indices": 89,
          "mode": 4
        }
      ]
    },
    {
      "name": "roof_vent",
      "primitives": [
        {
          "attributes": {
            "POSITION": 90
          },
          "indices": 91,
          "mode": 4
        }
      ]
    },
    {
      "name": "grill",
      "primitives": [
        {
          "attributes": {
            "POSITION": 92
          },
          "indices": 93,
          "mode": 4
        }
      ]
    },
    {
      "name": "number_plate",
      "primitives": [
        {
          "attributes": {
            "POSITION": 94
          },
          "indices": 95,
          "mode": 4
        }
      ]
    },
    {
      "name": "mudflap_l",
      "primitives": [
        {
          "attributes": {
            "POSITION": 96
          },
          "indices": 97,
          "mode": 4
        }
      ]
    },
    {
      "name": "mudflap_r",
      "primitives": [
        {
          "attributes": {
            "POSITION": 98
          },
          "indices": 99,
          "mode": 4
        }
      ]
    },
    {
      "name": "destination_board",
      "primitives": [
        {
          "attributes": {
            "POSITION": 100
          },
          "indices": 101,
          "mode": 4
        }
      ]
    },
    {
      "name": "destination_board_hood",
      "primitives": [
        {
          "attributes": {
            "POSITION": 102
          },
          "indices": 103,
          "mode": 4
        }
      ]
    },
    {
      "name": "destination_digit",
      "primitives": [
        {
          "attributes": {
            "POSITION": 104
          },
          "indices": 105,
          "mode": 4
        }
      ]
    },
    {
      "name": "exhaust_pipe",
      "primitives": [
        {
          "attributes": {
            "POSITION": 106
          },
          "indices": 107,
          "mode": 4
        }
      ]
    },
    {
      "name": "fuel_filler",
      "primitives": [
        {
          "attributes": {
            "POSITION": 108
          },
          "indices": 109,
          "mode": 4
        }
      ]
    },
    {
      "name": "seat_row_1",
      "primitives": [
        {
          "attributes": {
            "POSITION": 110
          },
          "indices": 111,
          "mode": 4
        }
      ]
    },
    {
      "name": "seat_row_2",
      "primitives": [
        {
          "attributes": {
            "POSITION": 112
          },
          "indices": 113,
          "mode": 4
        }
      ]
    },
    {
      "name": "seat_row_3",
      "primitives": [
        {
          "attributes": {
            "POSITION": 114
          },
          "indices": 115,
          "mode": 4
        }
      ]
    },
    {
      "name": "seat_row_4",
      "primitives": [
        {
          "attributes": {
            "POSITION": 116
          },
          "indices": 117,
          "mode": 4
        }
      ]
    },
    {
      "name": "seat_back_1",
      "primitives": [
        {
          "attributes": {
            "POSITION": 118
          },
          "indices": 119,
          "mode": 4
        }
      ]
    },
    {
      "name": "seat_back_2",
      "primitives": [
        {
          "attributes": {
            "POSITION": 120
          },
          "indices": 121,
          "mode": 4
        }
      ]
    },
    {
      "name": "window_sill",
      "primitives": [
        {
          "attributes": {
            "POSITION": 122
          },
          "indices": 123,
          "mode": 4
        }
      ]
    },
    {
      "name": "window_sill_b",
      "primitives": [
        {
          "attributes": {
            "POSITION": 124
          },
          "indices": 125,
          "mode": 4
        }
      ]
    },
    {
      "name": "window_header",
      "primitives": [
        {
          "attributes": {
            "POSITION": 126
          },
          "indices": 127,
          "mode": 4
        }
      ]
    },
    {
      "name": "window_header_b",
      "primitives": [
        {
          "attributes": {
            "POSITION": 128
          },
          "indices": 129,
          "mode": 4
        }
      ]
    },
    {
      "name": "window_mullion_1",
      "primitives": [
        {
          "attributes": {
            "POSITION": 130
          },
          "indices": 131,
          "mode": 4
        }
      ]
    },
    {
      "name": "window_mullion_r1",
      "primitives": [
        {
          "attributes": {
            "POSITION": 132
          },
          "indices": 133,
          "mode": 4
        }
      ]
    },
    {
      "name": "window_mullion_2",
      "primitives": [
        {
          "attributes": {
            "POSITION": 134
          },
          "indices": 135,
          "mode": 4
        }
      ]
    },
    {
      "name": "window_mullion_r2",
      "primitives": [
        {
          "attributes": {
            "POSITION": 136
          },
          "indices": 137,
          "mode": 4
        }
      ]
    },
    {
      "name": "window_mullion_3",
      "primitives": [
        {
          "attributes": {
            "POSITION": 138
          },
          "indices": 139,
          "mode": 4
        }
      ]
    },
    {
      "name": "window_mullion_r3",
      "primitives": [
        {
          "attributes": {
            "POSITION": 140
          },
          "indices": 141,
          "mode": 4
        }
      ]
    },
    {
      "name": "window_mullion_4",
      "primitives": [
        {
          "attributes": {
            "POSITION": 142
          },
          "indices": 143,
          "mode": 4
        }
      ]
    },
    {
      "name": "window_mullion_r4",
      "primitives": [
        {
          "attributes": {
            "POSITION": 144
          },
          "indices": 145,
          "mode": 4
        }
      ]
    },
    {
      "name": "window_mullion_5",
      "primitives": [
        {
          "attributes": {
            "POSITION": 146
          },
          "indices": 147,
          "mode": 4
        }
      ]
    },
    {
      "name": "window_mullion_r5",
      "primitives": [
        {
          "attributes": {
            "POSITION": 148
          },
          "indices": 149,
          "mode": 4
        }
      ]
    },
    {
      "name": "window_mullion_6",
      "primitives": [
        {
          "attributes": {
            "POSITION": 150
          },
          "indices": 151,
          "mode": 4
        }
      ]
    },
    {
      "name": "window_mullion_r6",
      "primitives": [
        {
          "attributes": {
            "POSITION": 152
          },
          "indices": 153,
          "mode": 4
        }
      ]
    },
    {
      "name": "window_mullion_7",
      "primitives": [
        {
          "attributes": {
            "POSITION": 154
          },
          "indices": 155,
          "mode": 4
        }
      ]
    },
    {
      "name": "window_mullion_r7",
      "primitives": [
        {
          "attributes": {
            "POSITION": 156
          },
          "indices": 157,
          "mode": 4
        }
      ]
    },
    {
      "name": "glass_pane_1",
      "primitives": [
        {
          "attributes": {
            "POSITION": 158
          },
          "indices": 159,
          "mode": 4
        }
      ]
    },
    {
      "name": "glass_pane_lo_1",
      "primitives": [
        {
          "attributes": {
            "POSITION": 160
          },
          "indices": 161,
          "mode": 4
        }
      ]
    },
    {
      "name": "glass_pane_2",
      "primitives": [
        {
          "attributes": {
            "POSITION": 162
          },
          "indices": 163,
          "mode": 4
        }
      ]
    },
    {
      "name": "glass_pane_lo_2",
      "primitives": [
        {
          "attributes": {
            "POSITION": 164
          },
          "indices": 165,
          "mode": 4
        }
      ]
    },
    {
      "name": "glass_pane_3",
      "primitives": [
        {
          "attributes": {
            "POSITION": 166
          },
          "indices": 167,
          "mode": 4
        }
      ]
    },
    {
      "name": "glass_pane_lo_3",
      "primitives": [
        {
          "attributes": {
            "POSITION": 168
          },
          "indices": 169,
          "mode": 4
        }
      ]
    },
    {
      "name": "glass_pane_4",
      "primitives": [
        {
          "attributes": {
            "POSITION": 170
          },
          "indices": 171,
          "mode": 4
        }
      ]
    },
    {
      "name": "glass_pane_lo_4",
      "primitives": [
        {
          "attributes": {
            "POSITION": 172
          },
          "indices": 173,
          "mode": 4
        }
      ]
    },
    {
      "name": "glass_pane_5",
      "primitives": [
        {
          "attributes": {
            "POSITION": 174
          },
          "indices": 175,
          "mode": 4
        }
      ]
    },
    {
      "name": "glass_pane_lo_5",
      "primitives": [
        {
          "attributes": {
            "POSITION": 176
          },
          "indices": 177,
          "mode": 4
        }
      ]
    },
    {
      "name": "glass_pane_6",
      "primitives": [
        {
          "attributes": {
            "POSITION": 178
          },
          "indices": 179,
          "mode": 4
        }
      ]
    },
    {
      "name": "glass_pane_lo_6",
      "primitives": [
        {
          "attributes": {
            "POSITION": 180
          },
          "indices": 181,
          "mode": 4
        }
      ]
    },
    {
      "name": "glass_pane_7",
      "primitives": [
        {
          "attributes": {
            "POSITION": 182
          },
          "indices": 183,
          "mode": 4
        }
      ]
    },
    {
      "name": "glass_pane_lo_7",
      "primitives": [
        {
          "attributes": {
            "POSITION": 184
          },
          "indices": 185,
          "mode": 4
        }
      ]
    },
    {
      "name": "glass_pane_front_1",
      "primitives": [
        {
          "attributes": {
            "POSITION": 186
          },
          "indices": 187,
          "mode": 4
        }
      ]
    },
    {
      "name": "glass_pane_front_2",
      "primitives": [
        {
          "attributes": {
            "POSITION": 188
          },
          "indices": 189,
          "mode": 4
        }
      ]
    },
    {
      "name": "glass_pane_front_3",
      "primitives": [
        {
          "attributes": {
            "POSITION": 190
          },
          "indices": 191,
          "mode": 4
        }
      ]
    },
    {
      "name": "bus_body_upper",
      "primitives": [
        {
          "attributes": {
            "POSITION": 192
          },
          "indices": 193,
          "mode": 4
        }
      ]
    }
  ],
  "nodes": [
    {
      "name": "bus_body",
      "mesh": 0
    },
    {
      "name": "cabin_roof",
      "mesh": 1
    },
    {
      "name": "nose_round",
      "mesh": 2
    },
    {
      "name": "tail_round",
      "mesh": 3
    },
    {
      "name": "windows",
      "mesh": 4
    },
    {
      "name": "windshield",
      "mesh": 5
    },
    {
      "name": "rear_window",
      "mesh": 6
    },
    {
      "name": "door",
      "mesh": 7
    },
    {
      "name": "door_frame",
      "mesh": 8
    },
    {
      "name": "door_glass",
      "mesh": 9
    },
    {
      "name": "door_handle",
      "mesh": 10
    },
    {
      "name": "door_hinge_t",
      "mesh": 11
    },
    {
      "name": "door_hinge_b",
      "mesh": 12
    },
    {
      "name": "bumper_front",
      "mesh": 13
    },
    {
      "name": "bumper_rear",
      "mesh": 14
    },
    {
      "name": "wheel_fl",
      "mesh": 15
    },
    {
      "name": "wheel_fr",
      "mesh": 16
    },
    {
      "name": "wheel_rl",
      "mesh": 17
    },
    {
      "name": "wheel_rr",
      "mesh": 18
    },
    {
      "name": "wheel_hub_fl",
      "mesh": 19
    },
    {
      "name": "wheel_hub_fr",
      "mesh": 20
    },
    {
      "name": "wheel_hub_rl",
      "mesh": 21
    },
    {
      "name": "wheel_hub_rr",
      "mesh": 22
    },
    {
      "name": "wheel_arch_fl",
      "mesh": 23
    },
    {
      "name": "wheel_arch_fr",
      "mesh": 24
    },
    {
      "name": "wheel_arch_rl",
      "mesh": 25
    },
    {
      "name": "wheel_arch_rr",
      "mesh": 26
    },
    {
      "name": "beacon",
      "mesh": 27
    },
    {
      "name": "mirror_l",
      "mesh": 28
    },
    {
      "name": "mirror_r",
      "mesh": 29
    },
    {
      "name": "step",
      "mesh": 30
    },
    {
      "name": "headlight_l",
      "mesh": 31
    },
    {
      "name": "headlight_r",
      "mesh": 32
    },
    {
      "name": "taillight_l",
      "mesh": 33
    },
    {
      "name": "taillight_r",
      "mesh": 34
    },
    {
      "name": "stripe",
      "mesh": 35
    },
    {
      "name": "stripe_b",
      "mesh": 36
    },
    {
      "name": "stripe_upper",
      "mesh": 37
    },
    {
      "name": "body_panel_l",
      "mesh": 38
    },
    {
      "name": "body_panel_r",
      "mesh": 39
    },
    {
      "name": "skirt_l",
      "mesh": 40
    },
    {
      "name": "skirt_r",
      "mesh": 41
    },
    {
      "name": "wiper",
      "mesh": 42
    },
    {
      "name": "wiper_b",
      "mesh": 43
    },
    {
      "name": "roof_rack",
      "mesh": 44
    },
    {
      "name": "roof_vent",
      "mesh": 45
    },
    {
      "name": "grill",
      "mesh": 46
    },
    {
      "name": "number_plate",
      "mesh": 47
    },
    {
      "name": "mudflap_l",
      "mesh": 48
    },
    {
      "name": "mudflap_r",
      "mesh": 49
    },
    {
      "name": "destination_board",
      "mesh": 50
    },
    {
      "name": "destination_board_hood",
      "mesh": 51
    },
    {
      "name": "destination_digit",
      "mesh": 52
    },
    {
      "name": "exhaust_pipe",
      "mesh": 53
    },
    {
      "name": "fuel_filler",
      "mesh": 54
    },
    {
      "name": "seat_row_1",
      "mesh": 55
    },
    {
      "name": "seat_row_2",
      "mesh": 56
    },
    {
      "name": "seat_row_3",
      "mesh": 57
    },
    {
      "name": "seat_row_4",
      "mesh": 58
    },
    {
      "name": "seat_back_1",
      "mesh": 59
    },
    {
      "name": "seat_back_2",
      "mesh": 60
    },
    {
      "name": "window_sill",
      "mesh": 61
    },
    {
      "name": "window_sill_b",
      "mesh": 62
    },
    {
      "name": "window_header",
      "mesh": 63
    },
    {
      "name": "window_header_b",
      "mesh": 64
    },
    {
      "name": "window_mullion_1",
      "mesh": 65
    },
    {
      "name": "window_mullion_r1",
      "mesh": 66
    },
    {
      "name": "window_mullion_2",
      "mesh": 67
    },
    {
      "name": "window_mullion_r2",
      "mesh": 68
    },
    {
      "name": "window_mullion_3",
      "mesh": 69
    },
    {
      "name": "window_mullion_r3",
      "mesh": 70
    },
    {
      "name": "window_mullion_4",
      "mesh": 71
    },
    {
      "name": "window_mullion_r4",
      "mesh": 72
    },
    {
      "name": "window_mullion_5",
      "mesh": 73
    },
    {
      "name": "window_mullion_r5",
      "mesh": 74
    },
    {
      "name": "window_mullion_6",
      "mesh": 75
    },
    {
      "name": "window_mullion_r6",
      "mesh": 76
    },
    {
      "name": "window_mullion_7",
      "mesh": 77
    },
    {
      "name": "window_mullion_r7",
      "mesh": 78
    },
    {
      "name": "glass_pane_1",
      "mesh": 79
    },
    {
      "name": "glass_pane_lo_1",
      "mesh": 80
    },
    {
      "name": "glass_pane_2",
      "mesh": 81
    },
    {
      "name": "glass_pane_lo_2",
      "mesh": 82
    },
    {
      "name": "glass_pane_3",
      "mesh": 83
    },
    {
      "name": "glass_pane_lo_3",
      "mesh": 84
    },
    {
      "name": "glass_pane_4",
      "mesh": 85
    },
    {
      "name": "glass_pane_lo_4",
      "mesh": 86
    },
    {
      "name": "glass_pane_5",
      "mesh": 87
    },
    {
      "name": "glass_pane_lo_5",
      "mesh": 88
    },
    {
      "name": "glass_pane_6",
      "mesh": 89
    },
    {
      "name": "glass_pane_lo_6",
      "mesh": 90
    },
    {
      "name": "glass_pane_7",
      "mesh": 91
    },
    {
      "name": "glass_pane_lo_7",
      "mesh": 92
    },
    {
      "name": "glass_pane_front_1",
      "mesh": 93
    },
    {
      "name": "glass_pane_front_2",
      "mesh": 94
    },
    {
      "name": "glass_pane_front_3",
      "mesh": 95
    },
    {
      "name": "bus_body_upper",
      "mesh": 96
    }
  ],
  "scenes": [
    {
      "name": "mdl_passenger_bus_apron_v06",
      "nodes": [
        0,
        1,
        2,
        3,
        4,
        5,
        6,
        7,
        8,
        9,
        10,
        11,
        12,
        13,
        14,
        15,
        16,
        17,
        18,
        19,
        20,
        21,
        22,
        23,
        24,
        25,
        26,
        27,
        28,
        29,
        30,
        31,
        32,
        33,
        34,
        35,
        36,
        37,
        38,
        39,
        40,
        41,
        42,
        43,
        44,
        45,
        46,
        47,
        48,
        49,
        50,
        51,
        52,
        53,
        54,
        55,
        56,
        57,
        58,
        59,
        60,
        61,
        62,
        63,
        64,
        65,
        66,
        67,
        68,
        69,
        70,
        71,
        72,
        73,
        74,
        75,
        76,
        77,
        78,
        79,
        80,
        81,
        82,
        83,
        84,
        85,
        86,
        87,
        88,
        89,
        90,
        91,
        92,
        93,
        94,
        95,
        96
      ]
    }
  ],
  "scene": 0
}