{
  "asset": {
    "version": "2.0",
    "generator": "Airside Batch C procedural kit"
  },
  "buffers": [
    {
      "uri": "mdl_pushback_tug_v03.bin",
      "byteLength": 30024
    }
  ],
  "bufferViews": [
    {
      "buffer": 0,
      "byteOffset": 0,
      "byteLength": 288,
      "target": 34962
    },
    {
      "buffer": 0,
      "byteOffset": 288,
      "byteLength": 72,
      "target": 34963
    },
    {
      "buffer": 0,
      "byteOffset": 360,
      "byteLength": 288,
      "target": 34962
    },
    {
      "buffer": 0,
      "byteOffset": 648,
      "byteLength": 72,
      "target": 34963
    },
    {
      "buffer": 0,
      "byteOffset": 720,
      "byteLength": 288,
      "target": 34962
    },
    {
      "buffer": 0,
      "byteOffset": 1008,
      "byteLength": 72,
      "target": 34963
    },
    {
      "buffer": 0,
      "byteOffset": 1080,
      "byteLength": 1200,
      "target": 34962
    },
    {
      "buffer": 0,
      "byteOffset": 2280,
      "byteLength": 240,
      "target": 34963
    },
    {
      "buffer": 0,
      "byteOffset": 2520,
      "byteLength": 288,
      "target": 34962
    },
    {
      "buffer": 0,
      "byteOffset": 2808,
      "byteLength": 72,
      "target": 34963
    },
    {
      "buffer": 0,
      "byteOffset": 2880,
      "byteLength": 288,
      "target": 34962
    },
    {
      "buffer": 0,
      "byteOffset": 3168,
      "byteLength": 72,
      "target": 34963
    },
    {
      "buffer": 0,
      "byteOffset": 3240,
      "byteLength": 288,
      "target": 34962
    },
    {
      "buffer": 0,
      "byteOffset": 3528,
      "byteLength": 72,
      "target": 34963
    },
    {
      "buffer": 0,
      "byteOffset": 3600,
      "byteLength": 288,
      "target": 34962
    },
    {
      "buffer": 0,
      "byteOffset": 3888,
      "byteLength": 72,
      "target": 34963
    },
    {
      "buffer": 0,
      "byteOffset": 3960,
      "byteLength": 288,
      "target": 34962
    },
    {
      "buffer": 0,
      "byteOffset": 4248,
      "byteLength": 72,
      "target": 34963
    },
    {
      "buffer": 0,
      "byteOffset": 4320,
      "byteLength": 288,
      "target": 34962
    },
    {
      "buffer": 0,
      "byteOffset": 4608,
      "byteLength": 72,
      "target": 34963
    },
    {
      "buffer": 0,
      "byteOffset": 4680,
      "byteLength": 1680,
      "target": 34962
    },
    {
      "buffer": 0,
      "byteOffset": 6360,
      "byteLength": 336,
      "target": 34963
    },
    {
      "buffer": 0,
      "byteOffset": 6696,
      "byteLength": 1680,
      "target": 34962
    },
    {
      "buffer": 0,
      "byteOffset": 8376,
      "byteLength": 336,
      "target": 34963
    },
    {
      "buffer": 0,
      "byteOffset": 8712,
      "byteLength": 1680,
      "target": 34962
    },
    {
      "buffer": 0,
      "byteOffset": 10392,
      "byteLength": 336,
      "target": 34963
    },
    {
      "buffer": 0,
      "byteOffset": 10728,
      "byteLength": 1680,
      "target": 34962
    },
    {
      "buffer": 0,
      "byteOffset": 12408,
      "byteLength": 336,
      "target": 34963
    },
    {
      "buffer": 0,
      "byteOffset": 12744,
      "byteLength": 960,
      "target": 34962
    },
    {
      "buffer": 0,
      "byteOffset": 13704,
      "byteLength": 192,
      "target": 34963
    },
    {
      "buffer": 0,
      "byteOffset": 13896,
      "byteLength": 960,
      "target": 34962
    },
    {
      "buffer": 0,
      "byteOffset": 14856,
      "byteLength": 192,
      "target": 34963
    },
    {
      "buffer": 0,
      "byteOffset": 15048,
      "byteLength": 960,
      "target": 34962
    },
    {
      "buffer": 0,
      "byteOffset": 16008,
      "byteLength": 192,
      "target": 34963
    },
    {
      "buffer": 0,
      "byteOffset": 16200,
      "byteLength": 960,
      "target": 34962
    },
    {
      "buffer": 0,
      "byteOffset": 17160,
      "byteLength": 192,
      "target": 34963
    },
    {
      "buffer": 0,
      "byteOffset": 17352,
      "byteLength": 1200,
      "target": 34962
    },
    {
      "buffer": 0,
      "byteOffset": 18552,
      "byteLength": 240,
      "target": 34963
    },
    {
      "buffer": 0,
      "byteOffset": 18792,
      "byteLength": 288,
      "target": 34962
    },
    {
      "buffer": 0,
      "byteOffset": 19080,
      "byteLength": 72,
      "target": 34963
    },
    {
      "buffer": 0,
      "byteOffset": 19152,
      "byteLength": 288,
      "target": 34962
    },
    {
      "buffer": 0,
      "byteOffset": 19440,
      "byteLength": 72,
      "target": 34963
    },
    {
      "buffer": 0,
      "byteOffset": 19512,
      "byteLength": 288,
      "target": 34962
    },
    {
      "buffer": 0,
      "byteOffset": 19800,
      "byteLength": 72,
      "target": 34963
    },
    {
      "buffer": 0,
      "byteOffset": 19872,
      "byteLength": 288,
      "target": 34962
    },
    {
      "buffer": 0,
      "byteOffset": 20160,
      "byteLength": 72,
      "target": 34963
    },
    {
      "buffer": 0,
      "byteOffset": 20232,
      "byteLength": 288,
      "target": 34962
    },
    {
      "buffer": 0,
      "byteOffset": 20520,
      "byteLength": 72,
      "target": 34963
    },
    {
      "buffer": 0,
      "byteOffset": 20592,
      "byteLength": 288,
      "target": 34962
    },
    {
      "buffer": 0,
      "byteOffset": 20880,
      "byteLength": 72,
      "target": 34963
    },
    {
      "buffer": 0,
      "byteOffset": 20952,
      "byteLength": 288,
      "target": 34962
    },
    {
      "buffer": 0,
      "byteOffset": 21240,
      "byteLength": 72,
      "target": 34963
    },
    {
      "buffer": 0,
      "byteOffset": 21312,
      "byteLength": 288,
      "target": 34962
    },
    {
      "buffer": 0,
      "byteOffset": 21600,
      "byteLength": 72,
      "target": 34963
    },
    {
      "buffer": 0,
      "byteOffset": 21672,
      "byteLength": 1440,
      "target": 34962
    },
    {
      "buffer": 0,
      "byteOffset": 23112,
      "byteLength": 288,
      "target": 34963
    },
    {
      "buffer": 0,
      "byteOffset": 23400,
      "byteLength": 1680,
      "target": 34962
    },
    {
      "buffer": 0,
      "byteOffset": 25080,
      "byteLength": 336,
      "target": 34963
    },
    {
      "buffer": 0,
      "byteOffset": 25416,
      "byteLength": 288,
      "target": 34962
    },
    {
      "buffer": 0,
      "byteOffset": 25704,
      "byteLength": 72,
      "target": 34963
    },
    {
      "buffer": 0,
      "byteOffset": 25776,
      "byteLength": 1440,
      "target": 34962
    },
    {
      "buffer": 0,
      "byteOffset": 27216,
      "byteLength": 288,
      "target": 34963
    },
    {
      "buffer": 0,
      "byteOffset": 27504,
      "byteLength": 288,
      "target": 34962
    },
    {
      "buffer": 0,
      "byteOffset": 27792,
      "byteLength": 72,
      "target": 34963
    },
    {
      "buffer": 0,
      "byteOffset": 27864,
      "byteLength": 288,
      "target": 34962
    },
    {
      "buffer": 0,
      "byteOffset": 28152,
      "byteLength": 72,
      "target": 34963
    },
    {
      "buffer": 0,
      "byteOffset": 28224,
      "byteLength": 288,
      "target": 34962
    },
    {
      "buffer": 0,
      "byteOffset": 28512,
      "byteLength": 72,
      "target": 34963
    },
    {
      "buffer": 0,
      "byteOffset": 28584,
      "byteLength": 1200,
      "target": 34962
    },
    {
      "buffer": 0,
      "byteOffset": 29784,
      "byteLength": 240,
      "target": 34963
    }
  ],
  "accessors": [
    {
      "bufferView": 0,
      "componentType": 5126,
      "count": 24,
      "type": "VEC3",
      "max": [
        1.350000023841858,
        0.9200000166893005,
        0.6399999856948853
      ],
      "min": [
        -1.0499999523162842,
        0.03999999910593033,
        -0.6399999856948853
      ]
    },
    {
      "bufferView": 1,
      "componentType": 5123,
      "count": 36,
      "type": "SCALAR"
    },
    {
      "bufferView": 2,
      "componentType": 5126,
      "count": 24,
      "type": "VEC3",
      "max": [
        1.2100000381469727,
        1.3899999856948853,
        0.5600000023841858
      ],
      "min": [
        0.23000000417232513,
        0.5699999928474426,
        -0.5600000023841858
      ]
    },
    {
      "bufferView": 3,
      "componentType": 5123,
      "count": 36,
      "type": "SCALAR"
    },
    {
      "bufferView": 4,
      "componentType": 5126,
      "count": 24,
      "type": "VEC3",
      "max": [
        0.7599999904632568,
        1.0399999618530273,
        0.3400000035762787
      ],
      "min": [
        0.3400000035762787,
        0.7200000286102295,
        -0.3400000035762787
      ]
    },
    {
      "bufferView": 5,
      "componentType": 5123,
      "count": 36,
      "type": "SCALAR"
    },
    {
      "bufferView": 6,
      "componentType": 5126,
      "count": 100,
      "type": "VEC3",
      "max": [
        0.36000001430511475,
        1.3580422401428223,
        0.4749999940395355
      ],
      "min": [
        0.2800000011920929,
        1.281957745552063,
        -0.4749999940395355
      ]
    },
    {
      "bufferView": 7,
      "componentType": 5123,
      "count": 120,
      "type": "SCALAR"
    },
    {
      "bufferView": 8,
      "componentType": 5126,
      "count": 24,
      "type": "VEC3",
      "max": [
        0.8399999737739563,
        1.715000033378601,
        0.4749999940395355
      ],
      "min": [
        0.25999999046325684,
        1.6449999809265137,
        -0.4749999940395355
      ]
    },
    {
      "bufferView": 9,
      "componentType": 5123,
      "count": 36,
      "type": "SCALAR"
    },
    {
      "bufferView": 10,
      "componentType": 5126,
      "count": 24,
      "type": "VEC3",
      "max": [
        1.149999976158142,
        0.3199999928474426,
        0.5249999761581421
      ],
      "min": [
        0.25,
        0.23999999463558197,
        -0.5249999761581421
      ]
    },
    {
      "bufferView": 11,
      "componentType": 5123,
      "count": 36,
      "type": "SCALAR"
    },
    {
      "bufferView": 12,
      "componentType": 5126,
      "count": 24,
      "type": "VEC3",
      "max": [
        1.0,
        1.2100000381469727,
        0.17000000178813934
      ],
      "min": [
        0.8999999761581421,
        0.8899999856948853,
        0.07000000029802322
      ]
    },
    {
      "bufferView": 13,
      "componentType": 5123,
      "count": 36,
      "type": "SCALAR"
    },
    {
      "bufferView": 14,
      "componentType": 5126,
      "count": 24,
      "type": "VEC3",
      "max": [
        -0.38999998569488525,
        0.9100000262260437,
        0.5600000023841858
      ],
      "min": [
        -1.1699999570846558,
        0.1899999976158142,
        -0.5600000023841858
      ]
    },
    {
      "bufferView": 15,
      "componentType": 5123,
      "count": 36,
      "type": "SCALAR"
    },
    {
      "bufferView": 16,
      "componentType": 5126,
      "count": 24,
      "type": "VEC3",
      "max": [
        1.399999976158142,
        0.550000011920929,
        0.5899999737739563
      ],
      "min": [
        1.159999966621399,
        0.20999999344348907,
        -0.5899999737739563
      ]
    },
    {
      "bufferView": 17,
      "componentType": 5123,
      "count": 36,
      "type": "SCALAR"
    },
    {
      "bufferView": 18,
      "componentType": 5126,
      "count": 24,
      "type": "VEC3",
      "max": [
        -1.0499999523162842,
        0.5400000214576721,
        0.550000011920929
      ],
      "min": [
        -1.25,
        0.2199999988079071,
        -0.550000011920929
      ]
    },
    {
      "bufferView": 19,
      "componentType": 5123,
      "count": 36,
      "type": "SCALAR"
    },
    {
      "bufferView": 20,
      "componentType": 5126,
      "count": 140,
      "type": "VEC3",
      "max": [
        0.9900000095367432,
        0.45398271083831787,
        0.6200000047683716
      ],
      "min": [
        0.5099999904632568,
        -0.013982699252665043,
        0.41999998688697815
      ]
    },
    {
      "bufferView": 21,
      "componentType": 5123,
      "count": 168,
      "type": "SCALAR"
    },
    {
      "bufferView": 22,
      "componentType": 5126,
      "count": 140,
      "type": "VEC3",
      "max": [
        0.9900000095367432,
        0.45398271083831787,
        -0.41999998688697815
      ],
      "min": [
        0.5099999904632568,
        -0.013982699252665043,
        -0.6200000047683716
      ]
    },
    {
      "bufferView": 23,
      "componentType": 5123,
      "count": 168,
      "type": "SCALAR"
    },
    {
      "bufferView": 24,
      "componentType": 5126,
      "count": 140,
      "type": "VEC3",
      "max": [
        -0.4099999964237213,
        0.45398271083831787,
        0.6200000047683716
      ],
      "min": [
        -0.8899999856948853,
        -0.013982699252665043,
        0.41999998688697815
      ]
    },
    {
      "bufferView": 25,
      "componentType": 5123,
      "count": 168,
      "type": "SCALAR"
    },
    {
      "bufferView": 26,
      "componentType": 5126,
      "count": 140,
      "type": "VEC3",
      "max": [
        -0.4099999964237213,
        0.45398271083831787,
        -0.41999998688697815
      ],
      "min": [
        -0.8899999856948853,
        -0.013982699252665043,
        -0.6200000047683716
      ]
    },
    {
      "bufferView": 27,
      "componentType": 5123,
      "count": 168,
      "type": "SCALAR"
    },
    {
      "bufferView": 28,
      "componentType": 5126,
      "count": 80,
      "type": "VEC3",
      "max": [
        0.8500000238418579,
        0.3199999928474426,
        0.5699999928474426
      ],
      "min": [
        0.6499999761581421,
        0.11999999731779099,
        0.4699999988079071
      ]
    },
    {
      "bufferView": 29,
      "componentType": 5123,
      "count": 96,
      "type": "SCALAR"
    },
    {
      "bufferView": 30,
      "componentType": 5126,
      "count": 80,
      "type": "VEC3",
      "max": [
        0.8500000238418579,
        0.3199999928474426,
        -0.4699999988079071
      ],
      "min": [
        0.6499999761581421,
        0.11999999731779099,
        -0.5699999928474426
      ]
    },
    {
      "bufferView": 31,
      "componentType": 5123,
      "count": 96,
      "type": "SCALAR"
    },
    {
      "bufferView": 32,
      "componentType": 5126,
      "count": 80,
      "type": "VEC3",
      "max": [
        -0.550000011920929,
        0.3199999928474426,
        0.5699999928474426
      ],
      "min": [
        -0.75,
        0.11999999731779099,
        0.4699999988079071
      ]
    },
    {
      "bufferView": 33,
      "componentType": 5123,
      "count": 96,
      "type": "SCALAR"
    },
    {
      "bufferView": 34,
      "componentType": 5126,
      "count": 80,
      "type": "VEC3",
      "max": [
        -0.550000011920929,
        0.3199999928474426,
        -0.4699999988079071
      ],
      "min": [
        -0.75,
        0.11999999731779099,
        -0.5699999928474426
      ]
    },
    {
      "bufferView": 35,
      "componentType": 5123,
      "count": 96,
      "type": "SCALAR"
    },
    {
      "bufferView": 36,
      "componentType": 5126,
      "count": 100,
      "type": "VEC3",
      "max": [
        0.8399999737739563,
        1.6100000143051147,
        0.1141267791390419
      ],
      "min": [
        0.6000000238418579,
        1.4299999475479126,
        -0.1141267791390419
      ]
    },
    {
      "bufferView": 37,
      "componentType": 5123,
      "count": 120,
      "type": "SCALAR"
    },
    {
      "bufferView": 38,
      "componentType": 5126,
      "count": 24,
      "type": "VEC3",
      "max": [
        1.3700000047683716,
        0.6100000143051147,
        0.4699999988079071
      ],
      "min": [
        1.2699999809265137,
        0.49000000953674316,
        0.33000001311302185
      ]
    },
    {
      "bufferView": 39,
      "componentType": 5123,
      "count": 36,
      "type": "SCALAR"
    },
    {
      "bufferView": 40,
      "componentType": 5126,
      "count": 24,
      "type": "VEC3",
      "max": [
        1.3700000047683716,
        0.6100000143051147,
        -0.33000001311302185
      ],
      "min": [
        1.2699999809265137,
        0.49000000953674316,
        -0.4699999988079071
      ]
    },
    {
      "bufferView": 41,
      "componentType": 5123,
      "count": 36,
      "type": "SCALAR"
    },
    {
      "bufferView": 42,
      "componentType": 5126,
      "count": 24,
      "type": "VEC3",
      "max": [
        -1.1799999475479126,
        0.550000011920929,
        0.5
      ],
      "min": [
        -1.2599999904632568,
        0.44999998807907104,
        0.4000000059604645
      ]
    },
    {
      "bufferView": 43,
      "componentType": 5123,
      "count": 36,
      "type": "SCALAR"
    },
    {
      "bufferView": 44,
      "componentType": 5126,
      "count": 24,
      "type": "VEC3",
      "max": [
        -1.1799999475479126,
        0.550000011920929,
        -0.4000000059604645
      ],
      "min": [
        -1.2599999904632568,
        0.44999998807907104,
        -0.5
      ]
    },
    {
      "bufferView": 45,
      "componentType": 5123,
      "count": 36,
      "type": "SCALAR"
    },
    {
      "bufferView": 46,
      "componentType": 5126,
      "count": 24,
      "type": "VEC3",
      "max": [
        1.225000023841858,
        0.6499999761581421,
        0.6800000071525574
      ],
      "min": [
        -0.925000011920929,
        0.5099999904632568,
        0.6399999856948853
      ]
    },
    {
      "bufferView": 47,
      "componentType": 5123,
      "count": 36,
      "type": "SCALAR"
    },
    {
      "bufferView": 48,
      "componentType": 5126,
      "count": 24,
      "type": "VEC3",
      "max": [
        1.3700000047683716,
        0.47999998927116394,
        0.1599999964237213
      ],
      "min": [
        1.3300000429153442,
        0.36000001430511475,
        -0.1599999964237213
      ]
    },
    {
      "bufferView": 49,
      "componentType": 5123,
      "count": 36,
      "type": "SCALAR"
    },
    {
      "bufferView": 50,
      "componentType": 5126,
      "count": 24,
      "type": "VEC3",
      "max": [
        -1.1749999523162842,
        0.3400000035762787,
        0.05999999865889549
      ],
      "min": [
        -2.625,
        0.2199999988079071,
        -0.05999999865889549
      ]
    },
    {
      "bufferView": 51,
      "componentType": 5123,
      "count": 36,
      "type": "SCALAR"
    },
    {
      "bufferView": 52,
      "componentType": 5126,
      "count": 24,
      "type": "VEC3",
      "max": [
        -2.430000066757202,
        0.49000000953674316,
        0.1899999976158142
      ],
      "min": [
        -2.809999942779541,
        0.1899999976158142,
        -0.1899999976158142
      ]
    },
    {
      "bufferView": 53,
      "componentType": 5123,
      "count": 36,
      "type": "SCALAR"
    },
    {
      "bufferView": 54,
      "componentType": 5126,
      "count": 120,
      "type": "VEC3",
      "max": [
        -2.7100000381469727,
        0.44999998807907104,
        0.03999999910593033
      ],
      "min": [
        -2.930000066757202,
        0.23000000417232513,
        -0.03999999910593033
      ]
    },
    {
      "bufferView": 55,
      "componentType": 5123,
      "count": 144,
      "type": "SCALAR"
    },
    {
      "bufferView": 56,
      "componentType": 5126,
      "count": 140,
      "type": "VEC3",
      "max": [
        -2.049999952316284,
        0.2962391972541809,
        0.05999999865889549
      ],
      "min": [
        -2.3499999046325684,
        0.003760813269764185,
        -0.05999999865889549
      ]
    },
    {
      "bufferView": 57,
      "componentType": 5123,
      "count": 168,
      "type": "SCALAR"
    },
    {
      "bufferView": 58,
      "componentType": 5126,
      "count": 24,
      "type": "VEC3",
      "max": [
        -1.1749999523162842,
        0.5199999809265137,
        0.2199999988079071
      ],
      "min": [
        -1.524999976158142,
        0.4399999976158142,
        0.14000000059604645
      ]
    },
    {
      "bufferView": 59,
      "componentType": 5123,
      "count": 36,
      "type": "SCALAR"
    },
    {
      "bufferView": 60,
      "componentType": 5126,
      "count": 120,
      "type": "VEC3",
      "max": [
        -1.0700000524520874,
        0.3700000047683716,
        0.10999999940395355
      ],
      "min": [
        -1.2899999618530273,
        0.1899999976158142,
        -0.10999999940395355
      ]
    },
    {
      "bufferView": 61,
      "componentType": 5123,
      "count": 144,
      "type": "SCALAR"
    },
    {
      "bufferView": 62,
      "componentType": 5126,
      "count": 24,
      "type": "VEC3",
      "max": [
        1.1399999856948853,
        1.3899999856948853,
        0.42500001192092896
      ],
      "min": [
        1.100000023841858,
        0.9700000286102295,
        -0.42500001192092896
      ]
    },
    {
      "bufferView": 63,
      "componentType": 5123,
      "count": 36,
      "type": "SCALAR"
    },
    {
      "bufferView": 64,
      "componentType": 5126,
      "count": 24,
      "type": "VEC3",
      "max": [
        0.9950000047683716,
        1.3700000047683716,
        0.6000000238418579
      ],
      "min": [
        0.4449999928474426,
        0.9900000095367432,
        0.5600000023841858
      ]
    },
    {
      "bufferView": 65,
      "componentType": 5123,
      "count": 36,
      "type": "SCALAR"
    },
    {
      "bufferView": 66,
      "componentType": 5126,
      "count": 24,
      "type": "VEC3",
      "max": [
        0.9950000047683716,
        1.3700000047683716,
        -0.5600000023841858
      ],
      "min": [
        0.4449999928474426,
        0.9900000095367432,
        -0.6000000238418579
      ]
    },
    {
      "bufferView": 67,
      "componentType": 5123,
      "count": 36,
      "type": "SCALAR"
    },
    {
      "bufferView": 68,
      "componentType": 5126,
      "count": 100,
      "type": "VEC3",
      "max": [
        -1.8700000047683716,
        0.3499999940395355,
        0.07608452439308167
      ],
      "min": [
        -2.0299999713897705,
        0.20999999344348907,
        -0.07608452439308167
      ]
    },
    {
      "bufferView": 69,
      "componentType": 5123,
      "count": 120,
      "type": "SCALAR"
    }
  ],
  "meshes": [
    {
      "name": "tug_body",
      "primitives": [
        {
          "attributes": {
            "POSITION": 0
          },
          "indices": 1,
          "mode": 4
        }
      ]
    },
    {
      "name": "tug_cab",
      "primitives": [
        {
          "attributes": {
            "POSITION": 2
          },
          "indices": 3,
          "mode": 4
        }
      ]
    },
    {
      "name": "tug_seat",
      "primitives": [
        {
          "attributes": {
            "POSITION": 4
          },
          "indices": 5,
          "mode": 4
        }
      ]
    },
    {
      "name": "tug_rollbar",
      "primitives": [
        {
          "attributes": {
            "POSITION": 6
          },
          "indices": 7,
          "mode": 4
        }
      ]
    },
    {
      "name": "tug_rollbar_top",
      "primitives": [
        {
          "attributes": {
            "POSITION": 8
          },
          "indices": 9,
          "mode": 4
        }
      ]
    },
    {
      "name": "tug_floor",
      "primitives": [
        {
          "attributes": {
            "POSITION": 10
          },
          "indices": 11,
          "mode": 4
        }
      ]
    },
    {
      "name": "tug_steering",
      "primitives": [
        {
          "attributes": {
            "POSITION": 12
          },
          "indices": 13,
          "mode": 4
        }
      ]
    },
    {
      "name": "counterweight",
      "primitives": [
        {
          "attributes": {
            "POSITION": 14
          },
          "indices": 15,
          "mode": 4
        }
      ]
    },
    {
      "name": "bumper_front",
      "primitives": [
        {
          "attributes": {
            "POSITION": 16
          },
          "indices": 17,
          "mode": 4
        }
      ]
    },
    {
      "name": "bumper_rear",
      "primitives": [
        {
          "attributes": {
            "POSITION": 18
          },
          "indices": 19,
          "mode": 4
        }
      ]
    },
    {
      "name": "wheel_fl",
      "primitives": [
        {
          "attributes": {
            "POSITION": 20
          },
          "indices": 21,
          "mode": 4
        }
      ]
    },
    {
      "name": "wheel_fr",
      "primitives": [
        {
          "attributes": {
            "POSITION": 22
          },
          "indices": 23,
          "mode": 4
        }
      ]
    },
    {
      "name": "wheel_rl",
      "primitives": [
        {
          "attributes": {
            "POSITION": 24
          },
          "indices": 25,
          "mode": 4
        }
      ]
    },
    {
      "name": "wheel_rr",
      "primitives": [
        {
          "attributes": {
            "POSITION": 26
          },
          "indices": 27,
          "mode": 4
        }
      ]
    },
    {
      "name": "hub_fl",
      "primitives": [
        {
          "attributes": {
            "POSITION": 28
          },
          "indices": 29,
          "mode": 4
        }
      ]
    },
    {
      "name": "hub_fr",
      "primitives": [
        {
          "attributes": {
            "POSITION": 30
          },
          "indices": 31,
          "mode": 4
        }
      ]
    },
    {
      "name": "hub_rl",
      "primitives": [
        {
          "attributes": {
            "POSITION": 32
          },
          "indices": 33,
          "mode": 4
        }
      ]
    },
    {
      "name": "hub_rr",
      "primitives": [
        {
          "attributes": {
            "POSITION": 34
          },
          "indices": 35,
          "mode": 4
        }
      ]
    },
    {
      "name": "beacon",
      "primitives": [
        {
          "attributes": {
            "POSITION": 36
          },
          "indices": 37,
          "mode": 4
        }
      ]
    },
    {
      "name": "headlight_l",
      "primitives": [
        {
          "attributes": {
            "POSITION": 38
          },
          "indices": 39,
          "mode": 4
        }
      ]
    },
    {
      "name": "headlight_r",
      "primitives": [
        {
          "attributes": {
            "POSITION": 40
          },
          "indices": 41,
          "mode": 4
        }
      ]
    },
    {
      "name": "taillight_l",
      "primitives": [
        {
          "attributes": {
            "POSITION": 42
          },
          "indices": 43,
          "mode": 4
        }
      ]
    },
    {
      "name": "taillight_r",
      "primitives": [
        {
          "attributes": {
            "POSITION": 44
          },
          "indices": 45,
          "mode": 4
        }
      ]
    },
    {
      "name": "stripe",
      "primitives": [
        {
          "attributes": {
            "POSITION": 46
          },
          "indices": 47,
          "mode": 4
        }
      ]
    },
    {
      "name": "number_plate",
      "primitives": [
        {
          "attributes": {
            "POSITION": 48
          },
          "indices": 49,
          "mode": 4
        }
      ]
    },
    {
      "name": "towbar",
      "primitives": [
        {
          "attributes": {
            "POSITION": 50
          },
          "indices": 51,
          "mode": 4
        }
      ]
    },
    {
      "name": "towbar_head",
      "primitives": [
        {
          "attributes": {
            "POSITION": 52
          },
          "indices": 53,
          "mode": 4
        }
      ]
    },
    {
      "name": "towbar_eye",
      "primitives": [
        {
          "attributes": {
            "POSITION": 54
          },
          "indices": 55,
          "mode": 4
        }
      ]
    },
    {
      "name": "towbar_wheel",
      "primitives": [
        {
          "attributes": {
            "POSITION": 56
          },
          "indices": 57,
          "mode": 4
        }
      ]
    },
    {
      "name": "towbar_handle",
      "primitives": [
        {
          "attributes": {
            "POSITION": 58
          },
          "indices": 59,
          "mode": 4
        }
      ]
    },
    {
      "name": "tow_pivot",
      "primitives": [
        {
          "attributes": {
            "POSITION": 60
          },
          "indices": 61,
          "mode": 4
        }
      ]
    },
    {
      "name": "glass_pane_1",
      "primitives": [
        {
          "attributes": {
            "POSITION": 62
          },
          "indices": 63,
          "mode": 4
        }
      ]
    },
    {
      "name": "glass_pane_2",
      "primitives": [
        {
          "attributes": {
            "POSITION": 64
          },
          "indices": 65,
          "mode": 4
        }
      ]
    },
    {
      "name": "glass_pane_3",
      "primitives": [
        {
          "attributes": {
            "POSITION": 66
          },
          "indices": 67,
          "mode": 4
        }
      ]
    },
    {
      "name": "towbar_pivot_mid",
      "primitives": [
        {
          "attributes": {
            "POSITION": 68
          },
          "indices": 69,
          "mode": 4
        }
      ]
    }
  ],
  "nodes": [
    {
      "name": "tug_body",
      "mesh": 0
    },
    {
      "name": "tug_cab",
      "mesh": 1
    },
    {
      "name": "tug_seat",
      "mesh": 2
    },
    {
      "name": "tug_rollbar",
      "mesh": 3
    },
    {
      "name": "tug_rollbar_top",
      "mesh": 4
    },
    {
      "name": "tug_floor",
      "mesh": 5
    },
    {
      "name": "tug_steering",
      "mesh": 6
    },
    {
      "name": "counterweight",
      "mesh": 7
    },
    {
      "name": "bumper_front",
      "mesh": 8
    },
    {
      "name": "bumper_rear",
      "mesh": 9
    },
    {
      "name": "wheel_fl",
      "mesh": 10
    },
    {
      "name": "wheel_fr",
      "mesh": 11
    },
    {
      "name": "wheel_rl",
      "mesh": 12
    },
    {
      "name": "wheel_rr",
      "mesh": 13
    },
    {
      "name": "hub_fl",
      "mesh": 14
    },
    {
      "name": "hub_fr",
      "mesh": 15
    },
    {
      "name": "hub_rl",
      "mesh": 16
    },
    {
      "name": "hub_rr",
      "mesh": 17
    },
    {
      "name": "beacon",
      "mesh": 18
    },
    {
      "name": "headlight_l",
      "mesh": 19
    },
    {
      "name": "headlight_r",
      "mesh": 20
    },
    {
      "name": "taillight_l",
      "mesh": 21
    },
    {
      "name": "taillight_r",
      "mesh": 22
    },
    {
      "name": "stripe",
      "mesh": 23
    },
    {
      "name": "number_plate",
      "mesh": 24
    },
    {
      "name": "towbar",
      "mesh": 25
    },
    {
      "name": "towbar_head",
      "mesh": 26
    },
    {
      "name": "towbar_eye",
      "mesh": 27
    },
    {
      "name": "towbar_wheel",
      "mesh": 28
    },
    {
      "name": "towbar_handle",
      "mesh": 29
    },
    {
      "name": "tow_pivot",
      "mesh": 30
    },
    {
      "name": "glass_pane_1",
      "mesh": 31
    },
    {
      "name": "glass_pane_2",
      "mesh": 32
    },
    {
      "name": "glass_pane_3",
      "mesh": 33
    },
    {
      "name": "towbar_pivot_mid",
      "mesh": 34
    }
  ],
  "scenes": [
    {
      "name": "mdl_pushback_tug_v03",
      "nodes": [
        0,
        1,
        2,
        3,
        4,
        5,
        6,
        7,
        8,
        9,
        10,
        11,
        12,
        13,
        14,
        15,
        16,
        17,
        18,
        19,
        20,
        21,
        22,
        23,
        24,
        25,
        26,
        27,
        28,
        29,
        30,
        31,
        32,
        33,
        34
      ]
    }
  ],
  "scene": 0
}