{
  "asset": {
    "version": "2.0",
    "generator": "Airside Batch C procedural kit"
  },
  "buffers": [
    {
      "uri": "mdl_fuel_truck_small_authored_v01.bin",
      "byteLength": 57168
    }
  ],
  "bufferViews": [
    {
      "buffer": 0,
      "byteOffset": 0,
      "byteLength": 288,
      "target": 34962
    },
    {
      "buffer": 0,
      "byteOffset": 288,
      "byteLength": 72,
      "target": 34963
    },
    {
      "buffer": 0,
      "byteOffset": 360,
      "byteLength": 288,
      "target": 34962
    },
    {
      "buffer": 0,
      "byteOffset": 648,
      "byteLength": 72,
      "target": 34963
    },
    {
      "buffer": 0,
      "byteOffset": 720,
      "byteLength": 288,
      "target": 34962
    },
    {
      "buffer": 0,
      "byteOffset": 1008,
      "byteLength": 72,
      "target": 34963
    },
    {
      "buffer": 0,
      "byteOffset": 1080,
      "byteLength": 288,
      "target": 34962
    },
    {
      "buffer": 0,
      "byteOffset": 1368,
      "byteLength": 72,
      "target": 34963
    },
    {
      "buffer": 0,
      "byteOffset": 1440,
      "byteLength": 288,
      "target": 34962
    },
    {
      "buffer": 0,
      "byteOffset": 1728,
      "byteLength": 72,
      "target": 34963
    },
    {
      "buffer": 0,
      "byteOffset": 1800,
      "byteLength": 288,
      "target": 34962
    },
    {
      "buffer": 0,
      "byteOffset": 2088,
      "byteLength": 72,
      "target": 34963
    },
    {
      "buffer": 0,
      "byteOffset": 2160,
      "byteLength": 1920,
      "target": 34962
    },
    {
      "buffer": 0,
      "byteOffset": 4080,
      "byteLength": 384,
      "target": 34963
    },
    {
      "buffer": 0,
      "byteOffset": 4464,
      "byteLength": 1920,
      "target": 34962
    },
    {
      "buffer": 0,
      "byteOffset": 6384,
      "byteLength": 384,
      "target": 34963
    },
    {
      "buffer": 0,
      "byteOffset": 6768,
      "byteLength": 1920,
      "target": 34962
    },
    {
      "buffer": 0,
      "byteOffset": 8688,
      "byteLength": 384,
      "target": 34963
    },
    {
      "buffer": 0,
      "byteOffset": 9072,
      "byteLength": 288,
      "target": 34962
    },
    {
      "buffer": 0,
      "byteOffset": 9360,
      "byteLength": 72,
      "target": 34963
    },
    {
      "buffer": 0,
      "byteOffset": 9432,
      "byteLength": 288,
      "target": 34962
    },
    {
      "buffer": 0,
      "byteOffset": 9720,
      "byteLength": 72,
      "target": 34963
    },
    {
      "buffer": 0,
      "byteOffset": 9792,
      "byteLength": 288,
      "target": 34962
    },
    {
      "buffer": 0,
      "byteOffset": 10080,
      "byteLength": 72,
      "target": 34963
    },
    {
      "buffer": 0,
      "byteOffset": 10152,
      "byteLength": 288,
      "target": 34962
    },
    {
      "buffer": 0,
      "byteOffset": 10440,
      "byteLength": 72,
      "target": 34963
    },
    {
      "buffer": 0,
      "byteOffset": 10512,
      "byteLength": 1200,
      "target": 34962
    },
    {
      "buffer": 0,
      "byteOffset": 11712,
      "byteLength": 240,
      "target": 34963
    },
    {
      "buffer": 0,
      "byteOffset": 11952,
      "byteLength": 1200,
      "target": 34962
    },
    {
      "buffer": 0,
      "byteOffset": 13152,
      "byteLength": 240,
      "target": 34963
    },
    {
      "buffer": 0,
      "byteOffset": 13392,
      "byteLength": 288,
      "target": 34962
    },
    {
      "buffer": 0,
      "byteOffset": 13680,
      "byteLength": 72,
      "target": 34963
    },
    {
      "buffer": 0,
      "byteOffset": 13752,
      "byteLength": 288,
      "target": 34962
    },
    {
      "buffer": 0,
      "byteOffset": 14040,
      "byteLength": 72,
      "target": 34963
    },
    {
      "buffer": 0,
      "byteOffset": 14112,
      "byteLength": 288,
      "target": 34962
    },
    {
      "buffer": 0,
      "byteOffset": 14400,
      "byteLength": 72,
      "target": 34963
    },
    {
      "buffer": 0,
      "byteOffset": 14472,
      "byteLength": 288,
      "target": 34962
    },
    {
      "buffer": 0,
      "byteOffset": 14760,
      "byteLength": 72,
      "target": 34963
    },
    {
      "buffer": 0,
      "byteOffset": 14832,
      "byteLength": 288,
      "target": 34962
    },
    {
      "buffer": 0,
      "byteOffset": 15120,
      "byteLength": 72,
      "target": 34963
    },
    {
      "buffer": 0,
      "byteOffset": 15192,
      "byteLength": 288,
      "target": 34962
    },
    {
      "buffer": 0,
      "byteOffset": 15480,
      "byteLength": 72,
      "target": 34963
    },
    {
      "buffer": 0,
      "byteOffset": 15552,
      "byteLength": 288,
      "target": 34962
    },
    {
      "buffer": 0,
      "byteOffset": 15840,
      "byteLength": 72,
      "target": 34963
    },
    {
      "buffer": 0,
      "byteOffset": 15912,
      "byteLength": 288,
      "target": 34962
    },
    {
      "buffer": 0,
      "byteOffset": 16200,
      "byteLength": 72,
      "target": 34963
    },
    {
      "buffer": 0,
      "byteOffset": 16272,
      "byteLength": 288,
      "target": 34962
    },
    {
      "buffer": 0,
      "byteOffset": 16560,
      "byteLength": 72,
      "target": 34963
    },
    {
      "buffer": 0,
      "byteOffset": 16632,
      "byteLength": 1680,
      "target": 34962
    },
    {
      "buffer": 0,
      "byteOffset": 18312,
      "byteLength": 336,
      "target": 34963
    },
    {
      "buffer": 0,
      "byteOffset": 18648,
      "byteLength": 1680,
      "target": 34962
    },
    {
      "buffer": 0,
      "byteOffset": 20328,
      "byteLength": 336,
      "target": 34963
    },
    {
      "buffer": 0,
      "byteOffset": 20664,
      "byteLength": 1680,
      "target": 34962
    },
    {
      "buffer": 0,
      "byteOffset": 22344,
      "byteLength": 336,
      "target": 34963
    },
    {
      "buffer": 0,
      "byteOffset": 22680,
      "byteLength": 1680,
      "target": 34962
    },
    {
      "buffer": 0,
      "byteOffset": 24360,
      "byteLength": 336,
      "target": 34963
    },
    {
      "buffer": 0,
      "byteOffset": 24696,
      "byteLength": 960,
      "target": 34962
    },
    {
      "buffer": 0,
      "byteOffset": 25656,
      "byteLength": 192,
      "target": 34963
    },
    {
      "buffer": 0,
      "byteOffset": 25848,
      "byteLength": 960,
      "target": 34962
    },
    {
      "buffer": 0,
      "byteOffset": 26808,
      "byteLength": 192,
      "target": 34963
    },
    {
      "buffer": 0,
      "byteOffset": 27000,
      "byteLength": 288,
      "target": 34962
    },
    {
      "buffer": 0,
      "byteOffset": 27288,
      "byteLength": 72,
      "target": 34963
    },
    {
      "buffer": 0,
      "byteOffset": 27360,
      "byteLength": 1440,
      "target": 34962
    },
    {
      "buffer": 0,
      "byteOffset": 28800,
      "byteLength": 288,
      "target": 34963
    },
    {
      "buffer": 0,
      "byteOffset": 29088,
      "byteLength": 288,
      "target": 34962
    },
    {
      "buffer": 0,
      "byteOffset": 29376,
      "byteLength": 72,
      "target": 34963
    },
    {
      "buffer": 0,
      "byteOffset": 29448,
      "byteLength": 960,
      "target": 34962
    },
    {
      "buffer": 0,
      "byteOffset": 30408,
      "byteLength": 192,
      "target": 34963
    },
    {
      "buffer": 0,
      "byteOffset": 30600,
      "byteLength": 288,
      "target": 34962
    },
    {
      "buffer": 0,
      "byteOffset": 30888,
      "byteLength": 72,
      "target": 34963
    },
    {
      "buffer": 0,
      "byteOffset": 30960,
      "byteLength": 288,
      "target": 34962
    },
    {
      "buffer": 0,
      "byteOffset": 31248,
      "byteLength": 72,
      "target": 34963
    },
    {
      "buffer": 0,
      "byteOffset": 31320,
      "byteLength": 288,
      "target": 34962
    },
    {
      "buffer": 0,
      "byteOffset": 31608,
      "byteLength": 72,
      "target": 34963
    },
    {
      "buffer": 0,
      "byteOffset": 31680,
      "byteLength": 288,
      "target": 34962
    },
    {
      "buffer": 0,
      "byteOffset": 31968,
      "byteLength": 72,
      "target": 34963
    },
    {
      "buffer": 0,
      "byteOffset": 32040,
      "byteLength": 960,
      "target": 34962
    },
    {
      "buffer": 0,
      "byteOffset": 33000,
      "byteLength": 192,
      "target": 34963
    },
    {
      "buffer": 0,
      "byteOffset": 33192,
      "byteLength": 1200,
      "target": 34962
    },
    {
      "buffer": 0,
      "byteOffset": 34392,
      "byteLength": 240,
      "target": 34963
    },
    {
      "buffer": 0,
      "byteOffset": 34632,
      "byteLength": 1200,
      "target": 34962
    },
    {
      "buffer": 0,
      "byteOffset": 35832,
      "byteLength": 240,
      "target": 34963
    },
    {
      "buffer": 0,
      "byteOffset": 36072,
      "byteLength": 288,
      "target": 34962
    },
    {
      "buffer": 0,
      "byteOffset": 36360,
      "byteLength": 72,
      "target": 34963
    },
    {
      "buffer": 0,
      "byteOffset": 36432,
      "byteLength": 288,
      "target": 34962
    },
    {
      "buffer": 0,
      "byteOffset": 36720,
      "byteLength": 72,
      "target": 34963
    },
    {
      "buffer": 0,
      "byteOffset": 36792,
      "byteLength": 288,
      "target": 34962
    },
    {
      "buffer": 0,
      "byteOffset": 37080,
      "byteLength": 72,
      "target": 34963
    },
    {
      "buffer": 0,
      "byteOffset": 37152,
      "byteLength": 288,
      "target": 34962
    },
    {
      "buffer": 0,
      "byteOffset": 37440,
      "byteLength": 72,
      "target": 34963
    },
    {
      "buffer": 0,
      "byteOffset": 37512,
      "byteLength": 288,
      "target": 34962
    },
    {
      "buffer": 0,
      "byteOffset": 37800,
      "byteLength": 72,
      "target": 34963
    },
    {
      "buffer": 0,
      "byteOffset": 37872,
      "byteLength": 288,
      "target": 34962
    },
    {
      "buffer": 0,
      "byteOffset": 38160,
      "byteLength": 72,
      "target": 34963
    },
    {
      "buffer": 0,
      "byteOffset": 38232,
      "byteLength": 288,
      "target": 34962
    },
    {
      "buffer": 0,
      "byteOffset": 38520,
      "byteLength": 72,
      "target": 34963
    },
    {
      "buffer": 0,
      "byteOffset": 38592,
      "byteLength": 288,
      "target": 34962
    },
    {
      "buffer": 0,
      "byteOffset": 38880,
      "byteLength": 72,
      "target": 34963
    },
    {
      "buffer": 0,
      "byteOffset": 38952,
      "byteLength": 288,
      "target": 34962
    },
    {
      "buffer": 0,
      "byteOffset": 39240,
      "byteLength": 72,
      "target": 34963
    },
    {
      "buffer": 0,
      "byteOffset": 39312,
      "byteLength": 288,
      "target": 34962
    },
    {
      "buffer": 0,
      "byteOffset": 39600,
      "byteLength": 72,
      "target": 34963
    },
    {
      "buffer": 0,
      "byteOffset": 39672,
      "byteLength": 288,
      "target": 34962
    },
    {
      "buffer": 0,
      "byteOffset": 39960,
      "byteLength": 72,
      "target": 34963
    },
    {
      "buffer": 0,
      "byteOffset": 40032,
      "byteLength": 288,
      "target": 34962
    },
    {
      "buffer": 0,
      "byteOffset": 40320,
      "byteLength": 72,
      "target": 34963
    },
    {
      "buffer": 0,
      "byteOffset": 40392,
      "byteLength": 288,
      "target": 34962
    },
    {
      "buffer": 0,
      "byteOffset": 40680,
      "byteLength": 72,
      "target": 34963
    },
    {
      "buffer": 0,
      "byteOffset": 40752,
      "byteLength": 288,
      "target": 34962
    },
    {
      "buffer": 0,
      "byteOffset": 41040,
      "byteLength": 72,
      "target": 34963
    },
    {
      "buffer": 0,
      "byteOffset": 41112,
      "byteLength": 960,
      "target": 34962
    },
    {
      "buffer": 0,
      "byteOffset": 42072,
      "byteLength": 192,
      "target": 34963
    },
    {
      "buffer": 0,
      "byteOffset": 42264,
      "byteLength": 288,
      "target": 34962
    },
    {
      "buffer": 0,
      "byteOffset": 42552,
      "byteLength": 72,
      "target": 34963
    },
    {
      "buffer": 0,
      "byteOffset": 42624,
      "byteLength": 288,
      "target": 34962
    },
    {
      "buffer": 0,
      "byteOffset": 42912,
      "byteLength": 72,
      "target": 34963
    },
    {
      "buffer": 0,
      "byteOffset": 42984,
      "byteLength": 288,
      "target": 34962
    },
    {
      "buffer": 0,
      "byteOffset": 43272,
      "byteLength": 72,
      "target": 34963
    },
    {
      "buffer": 0,
      "byteOffset": 43344,
      "byteLength": 288,
      "target": 34962
    },
    {
      "buffer": 0,
      "byteOffset": 43632,
      "byteLength": 72,
      "target": 34963
    },
    {
      "buffer": 0,
      "byteOffset": 43704,
      "byteLength": 288,
      "target": 34962
    },
    {
      "buffer": 0,
      "byteOffset": 43992,
      "byteLength": 72,
      "target": 34963
    },
    {
      "buffer": 0,
      "byteOffset": 44064,
      "byteLength": 288,
      "target": 34962
    },
    {
      "buffer": 0,
      "byteOffset": 44352,
      "byteLength": 72,
      "target": 34963
    },
    {
      "buffer": 0,
      "byteOffset": 44424,
      "byteLength": 288,
      "target": 34962
    },
    {
      "buffer": 0,
      "byteOffset": 44712,
      "byteLength": 72,
      "target": 34963
    },
    {
      "buffer": 0,
      "byteOffset": 44784,
      "byteLength": 288,
      "target": 34962
    },
    {
      "buffer": 0,
      "byteOffset": 45072,
      "byteLength": 72,
      "target": 34963
    },
    {
      "buffer": 0,
      "byteOffset": 45144,
      "byteLength": 288,
      "target": 34962
    },
    {
      "buffer": 0,
      "byteOffset": 45432,
      "byteLength": 72,
      "target": 34963
    },
    {
      "buffer": 0,
      "byteOffset": 45504,
      "byteLength": 288,
      "target": 34962
    },
    {
      "buffer": 0,
      "byteOffset": 45792,
      "byteLength": 72,
      "target": 34963
    },
    {
      "buffer": 0,
      "byteOffset": 45864,
      "byteLength": 288,
      "target": 34962
    },
    {
      "buffer": 0,
      "byteOffset": 46152,
      "byteLength": 72,
      "target": 34963
    },
    {
      "buffer": 0,
      "byteOffset": 46224,
      "byteLength": 960,
      "target": 34962
    },
    {
      "buffer": 0,
      "byteOffset": 47184,
      "byteLength": 192,
      "target": 34963
    },
    {
      "buffer": 0,
      "byteOffset": 47376,
      "byteLength": 960,
      "target": 34962
    },
    {
      "buffer": 0,
      "byteOffset": 48336,
      "byteLength": 192,
      "target": 34963
    },
    {
      "buffer": 0,
      "byteOffset": 48528,
      "byteLength": 288,
      "target": 34962
    },
    {
      "buffer": 0,
      "byteOffset": 48816,
      "byteLength": 72,
      "target": 34963
    },
    {
      "buffer": 0,
      "byteOffset": 48888,
      "byteLength": 288,
      "target": 34962
    },
    {
      "buffer": 0,
      "byteOffset": 49176,
      "byteLength": 72,
      "target": 34963
    },
    {
      "buffer": 0,
      "byteOffset": 49248,
      "byteLength": 960,
      "target": 34962
    },
    {
      "buffer": 0,
      "byteOffset": 50208,
      "byteLength": 192,
      "target": 34963
    },
    {
      "buffer": 0,
      "byteOffset": 50400,
      "byteLength": 288,
      "target": 34962
    },
    {
      "buffer": 0,
      "byteOffset": 50688,
      "byteLength": 72,
      "target": 34963
    },
    {
      "buffer": 0,
      "byteOffset": 50760,
      "byteLength": 288,
      "target": 34962
    },
    {
      "buffer": 0,
      "byteOffset": 51048,
      "byteLength": 72,
      "target": 34963
    },
    {
      "buffer": 0,
      "byteOffset": 51120,
      "byteLength": 288,
      "target": 34962
    },
    {
      "buffer": 0,
      "byteOffset": 51408,
      "byteLength": 72,
      "target": 34963
    },
    {
      "buffer": 0,
      "byteOffset": 51480,
      "byteLength": 288,
      "target": 34962
    },
    {
      "buffer": 0,
      "byteOffset": 51768,
      "byteLength": 72,
      "target": 34963
    },
    {
      "buffer": 0,
      "byteOffset": 51840,
      "byteLength": 288,
      "target": 34962
    },
    {
      "buffer": 0,
      "byteOffset": 52128,
      "byteLength": 72,
      "target": 34963
    },
    {
      "buffer": 0,
      "byteOffset": 52200,
      "byteLength": 1440,
      "target": 34962
    },
    {
      "buffer": 0,
      "byteOffset": 53640,
      "byteLength": 288,
      "target": 34963
    },
    {
      "buffer": 0,
      "byteOffset": 53928,
      "byteLength": 288,
      "target": 34962
    },
    {
      "buffer": 0,
      "byteOffset": 54216,
      "byteLength": 72,
      "target": 34963
    },
    {
      "buffer": 0,
      "byteOffset": 54288,
      "byteLength": 288,
      "target": 34962
    },
    {
      "buffer": 0,
      "byteOffset": 54576,
      "byteLength": 72,
      "target": 34963
    },
    {
      "buffer": 0,
      "byteOffset": 54648,
      "byteLength": 288,
      "target": 34962
    },
    {
      "buffer": 0,
      "byteOffset": 54936,
      "byteLength": 72,
      "target": 34963
    },
    {
      "buffer": 0,
      "byteOffset": 55008,
      "byteLength": 288,
      "target": 34962
    },
    {
      "buffer": 0,
      "byteOffset": 55296,
      "byteLength": 72,
      "target": 34963
    },
    {
      "buffer": 0,
      "byteOffset": 55368,
      "byteLength": 288,
      "target": 34962
    },
    {
      "buffer": 0,
      "byteOffset": 55656,
      "byteLength": 72,
      "target": 34963
    },
    {
      "buffer": 0,
      "byteOffset": 55728,
      "byteLength": 288,
      "target": 34962
    },
    {
      "buffer": 0,
      "byteOffset": 56016,
      "byteLength": 72,
      "target": 34963
    },
    {
      "buffer": 0,
      "byteOffset": 56088,
      "byteLength": 288,
      "target": 34962
    },
    {
      "buffer": 0,
      "byteOffset": 56376,
      "byteLength": 72,
      "target": 34963
    },
    {
      "buffer": 0,
      "byteOffset": 56448,
      "byteLength": 288,
      "target": 34962
    },
    {
      "buffer": 0,
      "byteOffset": 56736,
      "byteLength": 72,
      "target": 34963
    },
    {
      "buffer": 0,
      "byteOffset": 56808,
      "byteLength": 288,
      "target": 34962
    },
    {
      "buffer": 0,
      "byteOffset": 57096,
      "byteLength": 72,
      "target": 34963
    }
  ],
  "accessors": [
    {
      "bufferView": 0,
      "componentType": 5126,
      "count": 24,
      "type": "VEC3",
      "max": [
        1.7999999523162842,
        1.7000000476837158,
        0.7749999761581421
      ],
      "min": [
        0.30000001192092896,
        0.20000000298023224,
        -0.7749999761581421
      ]
    },
    {
      "bufferView": 1,
      "componentType": 5123,
      "count": 36,
      "type": "SCALAR"
    },
    {
      "bufferView": 2,
      "componentType": 5126,
      "count": 24,
      "type": "VEC3",
      "max": [
        1.5700000524520874,
        1.600000023841858,
        0.6000000238418579
      ],
      "min": [
        1.5299999713897705,
        0.8999999761581421,
        -0.6000000238418579
      ]
    },
    {
      "bufferView": 3,
      "componentType": 5123,
      "count": 36,
      "type": "SCALAR"
    },
    {
      "bufferView": 4,
      "componentType": 5126,
      "count": 24,
      "type": "VEC3",
      "max": [
        1.649999976158142,
        1.5499999523162842,
        0.8199999928474426
      ],
      "min": [
        0.44999998807907104,
        0.3499999940395355,
        0.7400000095367432
      ]
    },
    {
      "bufferView": 5,
      "componentType": 5123,
      "count": 36,
      "type": "SCALAR"
    },
    {
      "bufferView": 6,
      "componentType": 5126,
      "count": 24,
      "type": "VEC3",
      "max": [
        1.649999976158142,
        1.5499999523162842,
        -0.7400000095367432
      ],
      "min": [
        0.44999998807907104,
        0.3499999940395355,
        -0.8199999928474426
      ]
    },
    {
      "bufferView": 7,
      "componentType": 5123,
      "count": 36,
      "type": "SCALAR"
    },
    {
      "bufferView": 8,
      "componentType": 5126,
      "count": 24,
      "type": "VEC3",
      "max": [
        1.774999976158142,
        1.809999942779541,
        0.7250000238418579
      ],
      "min": [
        0.32499998807907104,
        1.690000057220459,
        -0.7250000238418579
      ]
    },
    {
      "bufferView": 9,
      "componentType": 5123,
      "count": 36,
      "type": "SCALAR"
    },
    {
      "bufferView": 10,
      "componentType": 5126,
      "count": 24,
      "type": "VEC3",
      "max": [
        1.725000023841858,
        1.590000033378601,
        0.6499999761581421
      ],
      "min": [
        1.375,
        1.5099999904632568,
        -0.6499999761581421
      ]
    },
    {
      "bufferView": 11,
      "componentType": 5123,
      "count": 36,
      "type": "SCALAR"
    },
    {
      "bufferView": 12,
      "componentType": 5126,
      "count": 160,
      "type": "VEC3",
      "max": [
        0.8000001311302185,
        1.5499999523162842,
        0.6499999761581421
      ],
      "min": [
        -1.700000286102295,
        0.25,
        -0.6499999761581421
      ]
    },
    {
      "bufferView": 13,
      "componentType": 5123,
      "count": 192,
      "type": "SCALAR"
    },
    {
      "bufferView": 14,
      "componentType": 5126,
      "count": 160,
      "type": "VEC3",
      "max": [
        0.8900001049041748,
        1.5199999809265137,
        0.6200000047683716
      ],
      "min": [
        0.6700000166893005,
        0.2800000011920929,
        -0.6200000047683716
      ]
    },
    {
      "bufferView": 15,
      "componentType": 5123,
      "count": 192,
      "type": "SCALAR"
    },
    {
      "bufferView": 16,
      "componentType": 5126,
      "count": 160,
      "type": "VEC3",
      "max": [
        -1.5699998140335083,
        1.5199999809265137,
        0.6200000047683716
      ],
      "min": [
        -1.7900004386901855,
        0.2800000011920929,
        -0.6200000047683716
      ]
    },
    {
      "bufferView": 17,
      "componentType": 5123,
      "count": 192,
      "type": "SCALAR"
    },
    {
      "bufferView": 18,
      "componentType": 5126,
      "count": 24,
      "type": "VEC3",
      "max": [
        0.824999988079071,
        1.0,
        0.699999988079071
      ],
      "min": [
        -1.725000023841858,
        0.800000011920929,
        -0.699999988079071
      ]
    },
    {
      "bufferView": 19,
      "componentType": 5123,
      "count": 36,
      "type": "SCALAR"
    },
    {
      "bufferView": 20,
      "componentType": 5126,
      "count": 24,
      "type": "VEC3",
      "max": [
        -0.375,
        1.5750000476837158,
        0.675000011920929
      ],
      "min": [
        -0.5249999761581421,
        0.22499999403953552,
        -0.675000011920929
      ]
    },
    {
      "bufferView": 21,
      "componentType": 5123,
      "count": 36,
      "type": "SCALAR"
    },
    {
      "bufferView": 22,
      "componentType": 5126,
      "count": 24,
      "type": "VEC3",
      "max": [
        0.46000000834465027,
        1.5499999523162842,
        0.6499999761581421
      ],
      "min": [
        0.3400000035762787,
        0.25,
        -0.6499999761581421
      ]
    },
    {
      "bufferView": 23,
      "componentType": 5123,
      "count": 36,
      "type": "SCALAR"
    },
    {
      "bufferView": 24,
      "componentType": 5126,
      "count": 24,
      "type": "VEC3",
      "max": [
        -1.1399999856948853,
        1.5499999523162842,
        0.6499999761581421
      ],
      "min": [
        -1.2599999904632568,
        0.25,
        -0.6499999761581421
      ]
    },
    {
      "bufferView": 25,
      "componentType": 5123,
      "count": 36,
      "type": "SCALAR"
    },
    {
      "bufferView": 26,
      "componentType": 5126,
      "count": 100,
      "type": "VEC3",
      "max": [
        -0.23000000417232513,
        1.649999976158142,
        0.20923243463039398
      ],
      "min": [
        -0.6700000166893005,
        1.4499999284744263,
        -0.20923243463039398
      ]
    },
    {
      "bufferView": 27,
      "componentType": 5123,
      "count": 120,
      "type": "SCALAR"
    },
    {
      "bufferView": 28,
      "componentType": 5126,
      "count": 100,
      "type": "VEC3",
      "max": [
        0.5299999713897705,
        1.6299999952316284,
        0.17119017243385315
      ],
      "min": [
        0.17000000178813934,
        1.4700000286102295,
        -0.17119017243385315
      ]
    },
    {
      "bufferView": 29,
      "componentType": 5123,
      "count": 120,
      "type": "SCALAR"
    },
    {
      "bufferView": 30,
      "componentType": 5126,
      "count": 24,
      "type": "VEC3",
      "max": [
        -1.4600000381469727,
        1.600000023841858,
        0.925000011920929
      ],
      "min": [
        -1.5399999618530273,
        0.6000000238418579,
        0.574999988079071
      ]
    },
    {
      "bufferView": 31,
      "componentType": 5123,
      "count": 36,
      "type": "SCALAR"
    },
    {
      "bufferView": 32,
      "componentType": 5126,
      "count": 24,
      "type": "VEC3",
      "max": [
        0.6499999761581421,
        1.5299999713897705,
        0.7250000238418579
      ],
      "min": [
        -1.5499999523162842,
        1.4700000286102295,
        0.375
      ]
    },
    {
      "bufferView": 33,
      "componentType": 5123,
      "count": 36,
      "type": "SCALAR"
    },
    {
      "bufferView": 34,
      "componentType": 5126,
      "count": 24,
      "type": "VEC3",
      "max": [
        0.550000011920929,
        1.5750000476837158,
        0.7450000047683716
      ],
      "min": [
        -1.4500000476837158,
        1.524999976158142,
        0.6949999928474426
      ]
    },
    {
      "bufferView": 35,
      "componentType": 5123,
      "count": 36,
      "type": "SCALAR"
    },
    {
      "bufferView": 36,
      "componentType": 5126,
      "count": 24,
      "type": "VEC3",
      "max": [
        0.550000011920929,
        1.5750000476837158,
        -0.6949999928474426
      ],
      "min": [
        -1.4500000476837158,
        1.524999976158142,
        -0.7450000047683716
      ]
    },
    {
      "bufferView": 37,
      "componentType": 5123,
      "count": 36,
      "type": "SCALAR"
    },
    {
      "bufferView": 38,
      "componentType": 5126,
      "count": 24,
      "type": "VEC3",
      "max": [
        1.899999976158142,
        0.4749999940395355,
        0.550000011920929
      ],
      "min": [
        -1.7000000476837158,
        0.22499999403953552,
        -0.550000011920929
      ]
    },
    {
      "bufferView": 39,
      "componentType": 5123,
      "count": 36,
      "type": "SCALAR"
    },
    {
      "bufferView": 40,
      "componentType": 5126,
      "count": 24,
      "type": "VEC3",
      "max": [
        1.7000000476837158,
        0.550000011920929,
        0.800000011920929
      ],
      "min": [
        1.0,
        0.3499999940395355,
        0.6000000238418579
      ]
    },
    {
      "bufferView": 41,
      "componentType": 5123,
      "count": 36,
      "type": "SCALAR"
    },
    {
      "bufferView": 42,
      "componentType": 5126,
      "count": 24,
      "type": "VEC3",
      "max": [
        1.7000000476837158,
        0.550000011920929,
        -0.6000000238418579
      ],
      "min": [
        1.0,
        0.3499999940395355,
        -0.800000011920929
      ]
    },
    {
      "bufferView": 43,
      "componentType": 5123,
      "count": 36,
      "type": "SCALAR"
    },
    {
      "bufferView": 44,
      "componentType": 5126,
      "count": 24,
      "type": "VEC3",
      "max": [
        -0.800000011920929,
        0.550000011920929,
        0.800000011920929
      ],
      "min": [
        -1.5,
        0.3499999940395355,
        0.6000000238418579
      ]
    },
    {
      "bufferView": 45,
      "componentType": 5123,
      "count": 36,
      "type": "SCALAR"
    },
    {
      "bufferView": 46,
      "componentType": 5126,
      "count": 24,
      "type": "VEC3",
      "max": [
        -0.800000011920929,
        0.550000011920929,
        -0.6000000238418579
      ],
      "min": [
        -1.5,
        0.3499999940395355,
        -0.800000011920929
      ]
    },
    {
      "bufferView": 47,
      "componentType": 5123,
      "count": 36,
      "type": "SCALAR"
    },
    {
      "bufferView": 48,
      "componentType": 5126,
      "count": 140,
      "type": "VEC3",
      "max": [
        1.6299999952316284,
        0.5529798269271851,
        0.6899999976158142
      ],
      "min": [
        1.0700000524520874,
        0.007020184770226479,
        0.46999993920326233
      ]
    },
    {
      "bufferView": 49,
      "componentType": 5123,
      "count": 168,
      "type": "SCALAR"
    },
    {
      "bufferView": 50,
      "componentType": 5126,
      "count": 140,
      "type": "VEC3",
      "max": [
        1.6299999952316284,
        0.5529798269271851,
        -0.46999993920326233
      ],
      "min": [
        1.0700000524520874,
        0.007020184770226479,
        -0.6899999976158142
      ]
    },
    {
      "bufferView": 51,
      "componentType": 5123,
      "count": 168,
      "type": "SCALAR"
    },
    {
      "bufferView": 52,
      "componentType": 5126,
      "count": 140,
      "type": "VEC3",
      "max": [
        -0.8700000047683716,
        0.5529798269271851,
        0.6899999976158142
      ],
      "min": [
        -1.4299999475479126,
        0.007020184770226479,
        0.46999993920326233
      ]
    },
    {
      "bufferView": 53,
      "componentType": 5123,
      "count": 168,
      "type": "SCALAR"
    },
    {
      "bufferView": 54,
      "componentType": 5126,
      "count": 140,
      "type": "VEC3",
      "max": [
        -0.8700000047683716,
        0.5529798269271851,
        -0.46999993920326233
      ],
      "min": [
        -1.4299999475479126,
        0.007020184770226479,
        -0.6899999976158142
      ]
    },
    {
      "bufferView": 55,
      "componentType": 5123,
      "count": 168,
      "type": "SCALAR"
    },
    {
      "bufferView": 56,
      "componentType": 5126,
      "count": 80,
      "type": "VEC3",
      "max": [
        1.4700000286102295,
        0.4000000059604645,
        0.6300000548362732
      ],
      "min": [
        1.2300000190734863,
        0.1599999964237213,
        0.5299999713897705
      ]
    },
    {
      "bufferView": 57,
      "componentType": 5123,
      "count": 96,
      "type": "SCALAR"
    },
    {
      "bufferView": 58,
      "componentType": 5126,
      "count": 80,
      "type": "VEC3",
      "max": [
        1.4700000286102295,
        0.4000000059604645,
        -0.5299999713897705
      ],
      "min": [
        1.2300000190734863,
        0.1599999964237213,
        -0.6300000548362732
      ]
    },
    {
      "bufferView": 59,
      "componentType": 5123,
      "count": 96,
      "type": "SCALAR"
    },
    {
      "bufferView": 60,
      "componentType": 5126,
      "count": 24,
      "type": "VEC3",
      "max": [
        -1.350000023841858,
        0.8999999761581421,
        0.949999988079071
      ],
      "min": [
        -1.75,
        0.5,
        0.550000011920929
      ]
    },
    {
      "bufferView": 61,
      "componentType": 5123,
      "count": 36,
      "type": "SCALAR"
    },
    {
      "bufferView": 62,
      "componentType": 5126,
      "count": 120,
      "type": "VEC3",
      "max": [
        -1.2699999809265137,
        1.1299999952316284,
        0.5250000357627869
      ],
      "min": [
        -1.8300000429153442,
        0.5699999928474426,
        0.17499996721744537
      ]
    },
    {
      "bufferView": 63,
      "componentType": 5123,
      "count": 144,
      "type": "SCALAR"
    },
    {
      "bufferView": 64,
      "componentType": 5126,
      "count": 24,
      "type": "VEC3",
      "max": [
        -1.725000023841858,
        0.6499999761581421,
        0.8500000238418579
      ],
      "min": [
        -1.975000023841858,
        0.44999998807907104,
        0.6499999761581421
      ]
    },
    {
      "bufferView": 65,
      "componentType": 5123,
      "count": 36,
      "type": "SCALAR"
    },
    {
      "bufferView": 66,
      "componentType": 5126,
      "count": 80,
      "type": "VEC3",
      "max": [
        -1.6399999856948853,
        0.6100000143051147,
        0.9000000357627869
      ],
      "min": [
        -1.7599999904632568,
        0.49000000953674316,
        0.20000000298023224
      ]
    },
    {
      "bufferView": 67,
      "componentType": 5123,
      "count": 96,
      "type": "SCALAR"
    },
    {
      "bufferView": 68,
      "componentType": 5126,
      "count": 24,
      "type": "VEC3",
      "max": [
        -1.4500000476837158,
        0.949999988079071,
        0.7900000214576721
      ],
      "min": [
        -1.9500000476837158,
        0.44999998807907104,
        0.7099999785423279
      ]
    },
    {
      "bufferView": 69,
      "componentType": 5123,
      "count": 36,
      "type": "SCALAR"
    },
    {
      "bufferView": 70,
      "componentType": 5126,
      "count": 24,
      "type": "VEC3",
      "max": [
        -1.274999976158142,
        0.6100000143051147,
        0.824999988079071
      ],
      "min": [
        -1.8250000476837158,
        0.49000000953674316,
        0.2750000059604645
      ]
    },
    {
      "bufferView": 71,
      "componentType": 5123,
      "count": 36,
      "type": "SCALAR"
    },
    {
      "bufferView": 72,
      "componentType": 5126,
      "count": 24,
      "type": "VEC3",
      "max": [
        -1.274999976158142,
        1.2000000476837158,
        -0.2750000059604645
      ],
      "min": [
        -1.8250000476837158,
        0.5,
        -0.824999988079071
      ]
    },
    {
      "bufferView": 73,
      "componentType": 5123,
      "count": 36,
      "type": "SCALAR"
    },
    {
      "bufferView": 74,
      "componentType": 5126,
      "count": 24,
      "type": "VEC3",
      "max": [
        -1.4249999523162842,
        1.2000000476837158,
        -0.7900000214576721
      ],
      "min": [
        -1.6749999523162842,
        1.0,
        -0.8500000238418579
      ]
    },
    {
      "bufferView": 75,
      "componentType": 5123,
      "count": 36,
      "type": "SCALAR"
    },
    {
      "bufferView": 76,
      "componentType": 5126,
      "count": 80,
      "type": "VEC3",
      "max": [
        -1.4700000286102295,
        0.6750000715255737,
        -0.4699999988079071
      ],
      "min": [
        -1.6299999952316284,
        0.42499998211860657,
        -0.6299999952316284
      ]
    },
    {
      "bufferView": 77,
      "componentType": 5123,
      "count": 96,
      "type": "SCALAR"
    },
    {
      "bufferView": 78,
      "componentType": 5126,
      "count": 100,
      "type": "VEC3",
      "max": [
        -1.6299999952316284,
        0.8141267895698547,
        0.30000001192092896
      ],
      "min": [
        -1.8700000047683716,
        0.5858732461929321,
        0.10000000149011612
      ]
    },
    {
      "bufferView": 79,
      "componentType": 5123,
      "count": 120,
      "type": "SCALAR"
    },
    {
      "bufferView": 80,
      "componentType": 5126,
      "count": 100,
      "type": "VEC3",
      "max": [
        -1.6299999952316284,
        0.8141267895698547,
        0.10000000894069672
      ],
      "min": [
        -1.8700000047683716,
        0.5858732461929321,
        -0.10000000894069672
      ]
    },
    {
      "bufferView": 81,
      "componentType": 5123,
      "count": 120,
      "type": "SCALAR"
    },
    {
      "bufferView": 82,
      "componentType": 5126,
      "count": 24,
      "type": "VEC3",
      "max": [
        1.7599999904632568,
        1.475000023841858,
        0.9399999976158142
      ],
      "min": [
        1.6399999856948853,
        1.225000023841858,
        0.7599999904632568
      ]
    },
    {
      "bufferView": 83,
      "componentType": 5123,
      "count": 36,
      "type": "SCALAR"
    },
    {
      "bufferView": 84,
      "componentType": 5126,
      "count": 24,
      "type": "VEC3",
      "max": [
        1.7599999904632568,
        1.475000023841858,
        -0.7599999904632568
      ],
      "min": [
        1.6399999856948853,
        1.225000023841858,
        -0.9399999976158142
      ]
    },
    {
      "bufferView": 85,
      "componentType": 5123,
      "count": 36,
      "type": "SCALAR"
    },
    {
      "bufferView": 86,
      "componentType": 5126,
      "count": 24,
      "type": "VEC3",
      "max": [
        1.1749999523162842,
        1.9500000476837158,
        0.125
      ],
      "min": [
        0.925000011920929,
        1.75,
        -0.125
      ]
    },
    {
      "bufferView": 87,
      "componentType": 5123,
      "count": 36,
      "type": "SCALAR"
    },
    {
      "bufferView": 88,
      "componentType": 5126,
      "count": 24,
      "type": "VEC3",
      "max": [
        1.225000023841858,
        1.9800000190734863,
        0.17499999701976776
      ],
      "min": [
        0.875,
        1.9199999570846558,
        -0.17499999701976776
      ]
    },
    {
      "bufferView": 89,
      "componentType": 5123,
      "count": 36,
      "type": "SCALAR"
    },
    {
      "bufferView": 90,
      "componentType": 5126,
      "count": 24,
      "type": "VEC3",
      "max": [
        1.9500000476837158,
        0.574999988079071,
        0.699999988079071
      ],
      "min": [
        1.75,
        0.22499999403953552,
        -0.699999988079071
      ]
    },
    {
      "bufferView": 91,
      "componentType": 5123,
      "count": 36,
      "type": "SCALAR"
    },
    {
      "bufferView": 92,
      "componentType": 5126,
      "count": 24,
      "type": "VEC3",
      "max": [
        -1.75,
        0.574999988079071,
        0.6499999761581421
      ],
      "min": [
        -1.9500000476837158,
        0.22499999403953552,
        -0.6499999761581421
      ]
    },
    {
      "bufferView": 93,
      "componentType": 5123,
      "count": 36,
      "type": "SCALAR"
    },
    {
      "bufferView": 94,
      "componentType": 5126,
      "count": 24,
      "type": "VEC3",
      "max": [
        1.725000023841858,
        0.5249999761581421,
        1.024999976158142
      ],
      "min": [
        1.375,
        0.375,
        0.675000011920929
      ]
    },
    {
      "bufferView": 95,
      "componentType": 5123,
      "count": 36,
      "type": "SCALAR"
    },
    {
      "bufferView": 96,
      "componentType": 5126,
      "count": 24,
      "type": "VEC3",
      "max": [
        1.725000023841858,
        0.5249999761581421,
        -0.675000011920929
      ],
      "min": [
        1.375,
        0.375,
        -1.024999976158142
      ]
    },
    {
      "bufferView": 97,
      "componentType": 5123,
      "count": 36,
      "type": "SCALAR"
    },
    {
      "bufferView": 98,
      "componentType": 5126,
      "count": 24,
      "type": "VEC3",
      "max": [
        1.8600000143051147,
        0.6399999856948853,
        0.6000000238418579
      ],
      "min": [
        1.7400000095367432,
        0.46000000834465027,
        -0.6000000238418579
      ]
    },
    {
      "bufferView": 99,
      "componentType": 5123,
      "count": 36,
      "type": "SCALAR"
    },
    {
      "bufferView": 100,
      "componentType": 5126,
      "count": 24,
      "type": "VEC3",
      "max": [
        1.8899999856948853,
        1.0750000476837158,
        0.5
      ],
      "min": [
        1.809999942779541,
        0.625,
        -0.5
      ]
    },
    {
      "bufferView": 101,
      "componentType": 5123,
      "count": 36,
      "type": "SCALAR"
    },
    {
      "bufferView": 102,
      "componentType": 5126,
      "count": 24,
      "type": "VEC3",
      "max": [
        2.0,
        0.7099999785423279,
        0.4699999988079071
      ],
      "min": [
        1.899999976158142,
        0.5899999737739563,
        0.33000001311302185
      ]
    },
    {
      "bufferView": 103,
      "componentType": 5123,
      "count": 36,
      "type": "SCALAR"
    },
    {
      "bufferView": 104,
      "componentType": 5126,
      "count": 24,
      "type": "VEC3",
      "max": [
        2.0,
        0.7099999785423279,
        -0.33000001311302185
      ],
      "min": [
        1.899999976158142,
        0.5899999737739563,
        -0.4699999988079071
      ]
    },
    {
      "bufferView": 105,
      "componentType": 5123,
      "count": 36,
      "type": "SCALAR"
    },
    {
      "bufferView": 106,
      "componentType": 5126,
      "count": 24,
      "type": "VEC3",
      "max": [
        -1.909999966621399,
        0.6000000238418579,
        0.5
      ],
      "min": [
        -1.9900000095367432,
        0.5,
        0.4000000059604645
      ]
    },
    {
      "bufferView": 107,
      "componentType": 5123,
      "count": 36,
      "type": "SCALAR"
    },
    {
      "bufferView": 108,
      "componentType": 5126,
      "count": 24,
      "type": "VEC3",
      "max": [
        -1.909999966621399,
        0.6000000238418579,
        -0.4000000059604645
      ],
      "min": [
        -1.9900000095367432,
        0.5,
        -0.5
      ]
    },
    {
      "bufferView": 109,
      "componentType": 5123,
      "count": 36,
      "type": "SCALAR"
    },
    {
      "bufferView": 110,
      "componentType": 5126,
      "count": 80,
      "type": "VEC3",
      "max": [
        -1.5399999618530273,
        1.8000000715255737,
        -0.49000000953674316
      ],
      "min": [
        -1.659999966621399,
        0.8999999761581421,
        -0.6100000143051147
      ]
    },
    {
      "bufferView": 111,
      "componentType": 5123,
      "count": 96,
      "type": "SCALAR"
    },
    {
      "bufferView": 112,
      "componentType": 5126,
      "count": 24,
      "type": "VEC3",
      "max": [
        -0.9750000238418579,
        0.42500001192092896,
        0.7699999809265137
      ],
      "min": [
        -1.3250000476837158,
        0.07500000298023224,
        0.7300000190734863
      ]
    },
    {
      "bufferView": 113,
      "componentType": 5123,
      "count": 36,
      "type": "SCALAR"
    },
    {
      "bufferView": 114,
      "componentType": 5126,
      "count": 24,
      "type": "VEC3",
      "max": [
        -0.9750000238418579,
        0.42500001192092896,
        -0.7300000190734863
      ],
      "min": [
        -1.3250000476837158,
        0.07500000298023224,
        -0.7699999809265137
      ]
    },
    {
      "bufferView": 115,
      "componentType": 5123,
      "count": 36,
      "type": "SCALAR"
    },
    {
      "bufferView": 116,
      "componentType": 5126,
      "count": 24,
      "type": "VEC3",
      "max": [
        1.9700000286102295,
        0.6399999856948853,
        0.22499999403953552
      ],
      "min": [
        1.9299999475479126,
        0.46000000834465027,
        -0.22499999403953552
      ]
    },
    {
      "bufferView": 117,
      "componentType": 5123,
      "count": 36,
      "type": "SCALAR"
    },
    {
      "bufferView": 118,
      "componentType": 5126,
      "count": 24,
      "type": "VEC3",
      "max": [
        -0.17499999701976776,
        1.375,
        0.7400000095367432
      ],
      "min": [
        -0.7250000238418579,
        1.024999976158142,
        0.699999988079071
      ]
    },
    {
      "bufferView": 119,
      "componentType": 5123,
      "count": 36,
      "type": "SCALAR"
    },
    {
      "bufferView": 120,
      "componentType": 5126,
      "count": 24,
      "type": "VEC3",
      "max": [
        1.5800000429153442,
        1.600000023841858,
        0.02500000037252903
      ],
      "min": [
        1.5399999618530273,
        0.8999999761581421,
        -0.02500000037252903
      ]
    },
    {
      "bufferView": 121,
      "componentType": 5123,
      "count": 36,
      "type": "SCALAR"
    },
    {
      "bufferView": 122,
      "componentType": 5126,
      "count": 24,
      "type": "VEC3",
      "max": [
        1.5800000429153442,
        1.600000023841858,
        0.42500001192092896
      ],
      "min": [
        1.5399999618530273,
        0.8999999761581421,
        0.375
      ]
    },
    {
      "bufferView": 123,
      "componentType": 5123,
      "count": 36,
      "type": "SCALAR"
    },
    {
      "bufferView": 124,
      "componentType": 5126,
      "count": 24,
      "type": "VEC3",
      "max": [
        1.5800000429153442,
        1.600000023841858,
        -0.375
      ],
      "min": [
        1.5399999618530273,
        0.8999999761581421,
        -0.42500001192092896
      ]
    },
    {
      "bufferView": 125,
      "componentType": 5123,
      "count": 36,
      "type": "SCALAR"
    },
    {
      "bufferView": 126,
      "componentType": 5126,
      "count": 24,
      "type": "VEC3",
      "max": [
        1.5850000381469727,
        0.9049999713897705,
        0.574999988079071
      ],
      "min": [
        1.534999966621399,
        0.8550000190734863,
        -0.574999988079071
      ]
    },
    {
      "bufferView": 127,
      "componentType": 5123,
      "count": 36,
      "type": "SCALAR"
    },
    {
      "bufferView": 128,
      "componentType": 5126,
      "count": 24,
      "type": "VEC3",
      "max": [
        1.5850000381469727,
        1.6449999809265137,
        0.574999988079071
      ],
      "min": [
        1.534999966621399,
        1.5950000286102295,
        -0.574999988079071
      ]
    },
    {
      "bufferView": 129,
      "componentType": 5123,
      "count": 36,
      "type": "SCALAR"
    },
    {
      "bufferView": 130,
      "componentType": 5126,
      "count": 24,
      "type": "VEC3",
      "max": [
        1.399999976158142,
        1.475000023841858,
        0.8199999928474426
      ],
      "min": [
        0.699999988079071,
        0.925000011920929,
        0.7799999713897705
      ]
    },
    {
      "bufferView": 131,
      "componentType": 5123,
      "count": 36,
      "type": "SCALAR"
    },
    {
      "bufferView": 132,
      "componentType": 5126,
      "count": 24,
      "type": "VEC3",
      "max": [
        1.399999976158142,
        1.475000023841858,
        -0.7799999713897705
      ],
      "min": [
        0.699999988079071,
        0.925000011920929,
        -0.8199999928474426
      ]
    },
    {
      "bufferView": 133,
      "componentType": 5123,
      "count": 36,
      "type": "SCALAR"
    },
    {
      "bufferView": 134,
      "componentType": 5126,
      "count": 80,
      "type": "VEC3",
      "max": [
        -1.0299999713897705,
        0.4000000059604645,
        0.6300000548362732
      ],
      "min": [
        -1.2699999809265137,
        0.1599999964237213,
        0.5299999713897705
      ]
    },
    {
      "bufferView": 135,
      "componentType": 5123,
      "count": 96,
      "type": "SCALAR"
    },
    {
      "bufferView": 136,
      "componentType": 5126,
      "count": 80,
      "type": "VEC3",
      "max": [
        -1.0299999713897705,
        0.4000000059604645,
        -0.5299999713897705
      ],
      "min": [
        -1.2699999809265137,
        0.1599999964237213,
        -0.6300000548362732
      ]
    },
    {
      "bufferView": 137,
      "componentType": 5123,
      "count": 96,
      "type": "SCALAR"
    },
    {
      "bufferView": 138,
      "componentType": 5126,
      "count": 24,
      "type": "VEC3",
      "max": [
        1.3899999856948853,
        1.0399999618530273,
        0.8799999952316284
      ],
      "min": [
        1.309999942779541,
        0.8600000143051147,
        0.8199999928474426
      ]
    },
    {
      "bufferView": 139,
      "componentType": 5123,
      "count": 36,
      "type": "SCALAR"
    },
    {
      "bufferView": 140,
      "componentType": 5126,
      "count": 24,
      "type": "VEC3",
      "max": [
        1.3899999856948853,
        1.0399999618530273,
        -0.8199999928474426
      ],
      "min": [
        1.309999942779541,
        0.8600000143051147,
        -0.8799999952316284
      ]
    },
    {
      "bufferView": 141,
      "componentType": 5123,
      "count": 36,
      "type": "SCALAR"
    },
    {
      "bufferView": 142,
      "componentType": 5126,
      "count": 80,
      "type": "VEC3",
      "max": [
        -0.019999999552965164,
        1.7400000095367432,
        0.07999999821186066
      ],
      "min": [
        -0.18000000715255737,
        1.559999942779541,
        -0.07999999821186066
      ]
    },
    {
      "bufferView": 143,
      "componentType": 5123,
      "count": 96,
      "type": "SCALAR"
    },
    {
      "bufferView": 144,
      "componentType": 5126,
      "count": 24,
      "type": "VEC3",
      "max": [
        1.7999999523162842,
        0.5,
        0.5400000214576721
      ],
      "min": [
        -1.600000023841858,
        0.4000000059604645,
        0.46000000834465027
      ]
    },
    {
      "bufferView": 145,
      "componentType": 5123,
      "count": 36,
      "type": "SCALAR"
    },
    {
      "bufferView": 146,
      "componentType": 5126,
      "count": 24,
      "type": "VEC3",
      "max": [
        1.7999999523162842,
        0.5,
        -0.46000000834465027
      ],
      "min": [
        -1.600000023841858,
        0.4000000059604645,
        -0.5400000214576721
      ]
    },
    {
      "bufferView": 147,
      "componentType": 5123,
      "count": 36,
      "type": "SCALAR"
    },
    {
      "bufferView": 148,
      "componentType": 5126,
      "count": 24,
      "type": "VEC3",
      "max": [
        1.725000023841858,
        0.75,
        0.8199999928474426
      ],
      "min": [
        0.375,
        0.6499999761581421,
        0.7799999713897705
      ]
    },
    {
      "bufferView": 149,
      "componentType": 5123,
      "count": 36,
      "type": "SCALAR"
    },
    {
      "bufferView": 150,
      "componentType": 5126,
      "count": 24,
      "type": "VEC3",
      "max": [
        0.699999988079071,
        0.75,
        0.7400000095367432
      ],
      "min": [
        -1.600000023841858,
        0.6499999761581421,
        0.699999988079071
      ]
    },
    {
      "bufferView": 151,
      "componentType": 5123,
      "count": 36,
      "type": "SCALAR"
    },
    {
      "bufferView": 152,
      "componentType": 5126,
      "count": 24,
      "type": "VEC3",
      "max": [
        -1.6749999523162842,
        0.6000000238418579,
        -0.5
      ],
      "min": [
        -2.0250000953674316,
        0.5,
        -0.6000000238418579
      ]
    },
    {
      "bufferView": 153,
      "componentType": 5123,
      "count": 36,
      "type": "SCALAR"
    },
    {
      "bufferView": 154,
      "componentType": 5126,
      "count": 120,
      "type": "VEC3",
      "max": [
        -1.4800000190734863,
        1.0700000524520874,
        0.05999999865889549
      ],
      "min": [
        -1.9199999570846558,
        0.6299999952316284,
        -0.05999999865889549
      ]
    },
    {
      "bufferView": 155,
      "componentType": 5123,
      "count": 144,
      "type": "SCALAR"
    },
    {
      "bufferView": 156,
      "componentType": 5126,
      "count": 24,
      "type": "VEC3",
      "max": [
        1.7300000190734863,
        1.524999976158142,
        0.3499999940395355
      ],
      "min": [
        1.6699999570846558,
        1.475000023841858,
        -0.3499999940395355
      ]
    },
    {
      "bufferView": 157,
      "componentType": 5123,
      "count": 36,
      "type": "SCALAR"
    },
    {
      "bufferView": 158,
      "componentType": 5126,
      "count": 24,
      "type": "VEC3",
      "max": [
        1.590000033378601,
        1.5750000476837158,
        -0.3100000023841858
      ],
      "min": [
        1.5499999523162842,
        1.225000023841858,
        -0.5899999737739563
      ]
    },
    {
      "bufferView": 159,
      "componentType": 5123,
      "count": 36,
      "type": "SCALAR"
    },
    {
      "bufferView": 160,
      "componentType": 5126,
      "count": 24,
      "type": "VEC3",
      "max": [
        1.590000033378601,
        1.2400000095367432,
        -0.3100000023841858
      ],
      "min": [
        1.5499999523162842,
        0.9599999785423279,
        -0.5899999737739563
      ]
    },
    {
      "bufferView": 161,
      "componentType": 5123,
      "count": 36,
      "type": "SCALAR"
    },
    {
      "bufferView": 162,
      "componentType": 5126,
      "count": 24,
      "type": "VEC3",
      "max": [
        1.590000033378601,
        1.5750000476837158,
        -0.009999999776482582
      ],
      "min": [
        1.5499999523162842,
        1.225000023841858,
        -0.28999999165534973
      ]
    },
    {
      "bufferView": 163,
      "componentType": 5123,
      "count": 36,
      "type": "SCALAR"
    },
    {
      "bufferView": 164,
      "componentType": 5126,
      "count": 24,
      "type": "VEC3",
      "max": [
        1.590000033378601,
        1.2400000095367432,
        -0.009999999776482582
      ],
      "min": [
        1.5499999523162842,
        0.9599999785423279,
        -0.28999999165534973
      ]
    },
    {
      "bufferView": 165,
      "componentType": 5123,
      "count": 36,
      "type": "SCALAR"
    },
    {
      "bufferView": 166,
      "componentType": 5126,
      "count": 24,
      "type": "VEC3",
      "max": [
        1.590000033378601,
        1.5750000476837158,
        0.28999999165534973
      ],
      "min": [
        1.5499999523162842,
        1.225000023841858,
        0.009999999776482582
      ]
    },
    {
      "bufferView": 167,
      "componentType": 5123,
      "count": 36,
      "type": "SCALAR"
    },
    {
      "bufferView": 168,
      "componentType": 5126,
      "count": 24,
      "type": "VEC3",
      "max": [
        1.590000033378601,
        1.2400000095367432,
        0.28999999165534973
      ],
      "min": [
        1.5499999523162842,
        0.9599999785423279,
        0.009999999776482582
      ]
    },
    {
      "bufferView": 169,
      "componentType": 5123,
      "count": 36,
      "type": "SCALAR"
    },
    {
      "bufferView": 170,
      "componentType": 5126,
      "count": 24,
      "type": "VEC3",
      "max": [
        1.590000033378601,
        1.5750000476837158,
        0.5899999737739563
      ],
      "min": [
        1.5499999523162842,
        1.225000023841858,
        0.3100000023841858
      ]
    },
    {
      "bufferView": 171,
      "componentType": 5123,
      "count": 36,
      "type": "SCALAR"
    },
    {
      "bufferView": 172,
      "componentType": 5126,
      "count": 24,
      "type": "VEC3",
      "max": [
        1.590000033378601,
        1.2400000095367432,
        0.5899999737739563
      ],
      "min": [
        1.5499999523162842,
        0.9599999785423279,
        0.3100000023841858
      ]
    },
    {
      "bufferView": 173,
      "componentType": 5123,
      "count": 36,
      "type": "SCALAR"
    }
  ],
  "meshes": [
    {
      "name": "cab",
      "primitives": [
        {
          "attributes": {
            "POSITION": 0
          },
          "indices": 1,
          "mode": 4
        }
      ]
    },
    {
      "name": "cab_window",
      "primitives": [
        {
          "attributes": {
            "POSITION": 2
          },
          "indices": 3,
          "mode": 4
        }
      ]
    },
    {
      "name": "cab_door",
      "primitives": [
        {
          "attributes": {
            "POSITION": 4
          },
          "indices": 5,
          "mode": 4
        }
      ]
    },
    {
      "name": "cab_door_r",
      "primitives": [
        {
          "attributes": {
            "POSITION": 6
          },
          "indices": 7,
          "mode": 4
        }
      ]
    },
    {
      "name": "cab_roof",
      "primitives": [
        {
          "attributes": {
            "POSITION": 8
          },
          "indices": 9,
          "mode": 4
        }
      ]
    },
    {
      "name": "cab_visor",
      "primitives": [
        {
          "attributes": {
            "POSITION": 10
          },
          "indices": 11,
          "mode": 4
        }
      ]
    },
    {
      "name": "tank",
      "primitives": [
        {
          "attributes": {
            "POSITION": 12
          },
          "indices": 13,
          "mode": 4
        }
      ]
    },
    {
      "name": "tank_end_f",
      "primitives": [
        {
          "attributes": {
            "POSITION": 14
          },
          "indices": 15,
          "mode": 4
        }
      ]
    },
    {
      "name": "tank_end_r",
      "primitives": [
        {
          "attributes": {
            "POSITION": 16
          },
          "indices": 17,
          "mode": 4
        }
      ]
    },
    {
      "name": "tank_band",
      "primitives": [
        {
          "attributes": {
            "POSITION": 18
          },
          "indices": 19,
          "mode": 4
        }
      ]
    },
    {
      "name": "tank_band_2",
      "primitives": [
        {
          "attributes": {
            "POSITION": 20
          },
          "indices": 21,
          "mode": 4
        }
      ]
    },
    {
      "name": "tank_band_3",
      "primitives": [
        {
          "attributes": {
            "POSITION": 22
          },
          "indices": 23,
          "mode": 4
        }
      ]
    },
    {
      "name": "tank_band_4",
      "primitives": [
        {
          "attributes": {
            "POSITION": 24
          },
          "indices": 25,
          "mode": 4
        }
      ]
    },
    {
      "name": "tank_cap",
      "primitives": [
        {
          "attributes": {
            "POSITION": 26
          },
          "indices": 27,
          "mode": 4
        }
      ]
    },
    {
      "name": "tank_cap_b",
      "primitives": [
        {
          "attributes": {
            "POSITION": 28
          },
          "indices": 29,
          "mode": 4
        }
      ]
    },
    {
      "name": "tank_ladder",
      "primitives": [
        {
          "attributes": {
            "POSITION": 30
          },
          "indices": 31,
          "mode": 4
        }
      ]
    },
    {
      "name": "tank_walkway",
      "primitives": [
        {
          "attributes": {
            "POSITION": 32
          },
          "indices": 33,
          "mode": 4
        }
      ]
    },
    {
      "name": "tank_rail_l",
      "primitives": [
        {
          "attributes": {
            "POSITION": 34
          },
          "indices": 35,
          "mode": 4
        }
      ]
    },
    {
      "name": "tank_rail_r",
      "primitives": [
        {
          "attributes": {
            "POSITION": 36
          },
          "indices": 37,
          "mode": 4
        }
      ]
    },
    {
      "name": "chassis",
      "primitives": [
        {
          "attributes": {
            "POSITION": 38
          },
          "indices": 39,
          "mode": 4
        }
      ]
    },
    {
      "name": "fender_fl",
      "primitives": [
        {
          "attributes": {
            "POSITION": 40
          },
          "indices": 41,
          "mode": 4
        }
      ]
    },
    {
      "name": "fender_fr",
      "primitives": [
        {
          "attributes": {
            "POSITION": 42
          },
          "indices": 43,
          "mode": 4
        }
      ]
    },
    {
      "name": "fender_rl",
      "primitives": [
        {
          "attributes": {
            "POSITION": 44
          },
          "indices": 45,
          "mode": 4
        }
      ]
    },
    {
      "name": "fender_rr",
      "primitives": [
        {
          "attributes": {
            "POSITION": 46
          },
          "indices": 47,
          "mode": 4
        }
      ]
    },
    {
      "name": "wheel_fl",
      "primitives": [
        {
          "attributes": {
            "POSITION": 48
          },
          "indices": 49,
          "mode": 4
        }
      ]
    },
    {
      "name": "wheel_fr",
      "primitives": [
        {
          "attributes": {
            "POSITION": 50
          },
          "indices": 51,
          "mode": 4
        }
      ]
    },
    {
      "name": "wheel_rl",
      "primitives": [
        {
          "attributes": {
            "POSITION": 52
          },
          "indices": 53,
          "mode": 4
        }
      ]
    },
    {
      "name": "wheel_rr",
      "primitives": [
        {
          "attributes": {
            "POSITION": 54
          },
          "indices": 55,
          "mode": 4
        }
      ]
    },
    {
      "name": "hub_fl",
      "primitives": [
        {
          "attributes": {
            "POSITION": 56
          },
          "indices": 57,
          "mode": 4
        }
      ]
    },
    {
      "name": "hub_fr",
      "primitives": [
        {
          "attributes": {
            "POSITION": 58
          },
          "indices": 59,
          "mode": 4
        }
      ]
    },
    {
      "name": "hose_mount",
      "primitives": [
        {
          "attributes": {
            "POSITION": 60
          },
          "indices": 61,
          "mode": 4
        }
      ]
    },
    {
      "name": "hose_reel",
      "primitives": [
        {
          "attributes": {
            "POSITION": 62
          },
          "indices": 63,
          "mode": 4
        }
      ]
    },
    {
      "name": "hose_nozzle",
      "primitives": [
        {
          "attributes": {
            "POSITION": 64
          },
          "indices": 65,
          "mode": 4
        }
      ]
    },
    {
      "name": "hose",
      "primitives": [
        {
          "attributes": {
            "POSITION": 66
          },
          "indices": 67,
          "mode": 4
        }
      ]
    },
    {
      "name": "hose_guard",
      "primitives": [
        {
          "attributes": {
            "POSITION": 68
          },
          "indices": 69,
          "mode": 4
        }
      ]
    },
    {
      "name": "hose_tray",
      "primitives": [
        {
          "attributes": {
            "POSITION": 70
          },
          "indices": 71,
          "mode": 4
        }
      ]
    },
    {
      "name": "pump_cabinet",
      "primitives": [
        {
          "attributes": {
            "POSITION": 72
          },
          "indices": 73,
          "mode": 4
        }
      ]
    },
    {
      "name": "pump_gauge",
      "primitives": [
        {
          "attributes": {
            "POSITION": 74
          },
          "indices": 75,
          "mode": 4
        }
      ]
    },
    {
      "name": "pump_valve",
      "primitives": [
        {
          "attributes": {
            "POSITION": 76
          },
          "indices": 77,
          "mode": 4
        }
      ]
    },
    {
      "name": "hose_coil_a",
      "primitives": [
        {
          "attributes": {
            "POSITION": 78
          },
          "indices": 79,
          "mode": 4
        }
      ]
    },
    {
      "name": "hose_coil_b",
      "primitives": [
        {
          "attributes": {
            "POSITION": 80
          },
          "indices": 81,
          "mode": 4
        }
      ]
    },
    {
      "name": "mirror_l",
      "primitives": [
        {
          "attributes": {
            "POSITION": 82
          },
          "indices": 83,
          "mode": 4
        }
      ]
    },
    {
      "name": "mirror_r",
      "primitives": [
        {
          "attributes": {
            "POSITION": 84
          },
          "indices": 85,
          "mode": 4
        }
      ]
    },
    {
      "name": "beacon",
      "primitives": [
        {
          "attributes": {
            "POSITION": 86
          },
          "indices": 87,
          "mode": 4
        }
      ]
    },
    {
      "name": "beacon_guard",
      "primitives": [
        {
          "attributes": {
            "POSITION": 88
          },
          "indices": 89,
          "mode": 4
        }
      ]
    },
    {
      "name": "bumper",
      "primitives": [
        {
          "attributes": {
            "POSITION": 90
          },
          "indices": 91,
          "mode": 4
        }
      ]
    },
    {
      "name": "bumper_rear",
      "primitives": [
        {
          "attributes": {
            "POSITION": 92
          },
          "indices": 93,
          "mode": 4
        }
      ]
    },
    {
      "name": "step",
      "primitives": [
        {
          "attributes": {
            "POSITION": 94
          },
          "indices": 95,
          "mode": 4
        }
      ]
    },
    {
      "name": "step_r",
      "primitives": [
        {
          "attributes": {
            "POSITION": 96
          },
          "indices": 97,
          "mode": 4
        }
      ]
    },
    {
      "name": "light_bar",
      "primitives": [
        {
          "attributes": {
            "POSITION": 98
          },
          "indices": 99,
          "mode": 4
        }
      ]
    },
    {
      "name": "grill",
      "primitives": [
        {
          "attributes": {
            "POSITION": 100
          },
          "indices": 101,
          "mode": 4
        }
      ]
    },
    {
      "name": "headlight_l",
      "primitives": [
        {
          "attributes": {
            "POSITION": 102
          },
          "indices": 103,
          "mode": 4
        }
      ]
    },
    {
      "name": "headlight_r",
      "primitives": [
        {
          "attributes": {
            "POSITION": 104
          },
          "indices": 105,
          "mode": 4
        }
      ]
    },
    {
      "name": "taillight_l",
      "primitives": [
        {
          "attributes": {
            "POSITION": 106
          },
          "indices": 107,
          "mode": 4
        }
      ]
    },
    {
      "name": "taillight_r",
      "primitives": [
        {
          "attributes": {
            "POSITION": 108
          },
          "indices": 109,
          "mode": 4
        }
      ]
    },
    {
      "name": "exhaust",
      "primitives": [
        {
          "attributes": {
            "POSITION": 110
          },
          "indices": 111,
          "mode": 4
        }
      ]
    },
    {
      "name": "mudflap_l",
      "primitives": [
        {
          "attributes": {
            "POSITION": 112
          },
          "indices": 113,
          "mode": 4
        }
      ]
    },
    {
      "name": "mudflap_r",
      "primitives": [
        {
          "attributes": {
            "POSITION": 114
          },
          "indices": 115,
          "mode": 4
        }
      ]
    },
    {
      "name": "number_plate",
      "primitives": [
        {
          "attributes": {
            "POSITION": 116
          },
          "indices": 117,
          "mode": 4
        }
      ]
    },
    {
      "name": "fuel_hazard",
      "primitives": [
        {
          "attributes": {
            "POSITION": 118
          },
          "indices": 119,
          "mode": 4
        }
      ]
    },
    {
      "name": "window_mullion",
      "primitives": [
        {
          "attributes": {
            "POSITION": 120
          },
          "indices": 121,
          "mode": 4
        }
      ]
    },
    {
      "name": "window_mullion_2",
      "primitives": [
        {
          "attributes": {
            "POSITION": 122
          },
          "indices": 123,
          "mode": 4
        }
      ]
    },
    {
      "name": "window_mullion_3",
      "primitives": [
        {
          "attributes": {
            "POSITION": 124
          },
          "indices": 125,
          "mode": 4
        }
      ]
    },
    {
      "name": "window_sill",
      "primitives": [
        {
          "attributes": {
            "POSITION": 126
          },
          "indices": 127,
          "mode": 4
        }
      ]
    },
    {
      "name": "window_header",
      "primitives": [
        {
          "attributes": {
            "POSITION": 128
          },
          "indices": 129,
          "mode": 4
        }
      ]
    },
    {
      "name": "door_glass",
      "primitives": [
        {
          "attributes": {
            "POSITION": 130
          },
          "indices": 131,
          "mode": 4
        }
      ]
    },
    {
      "name": "door_glass_r",
      "primitives": [
        {
          "attributes": {
            "POSITION": 132
          },
          "indices": 133,
          "mode": 4
        }
      ]
    },
    {
      "name": "hub_rl",
      "primitives": [
        {
          "attributes": {
            "POSITION": 134
          },
          "indices": 135,
          "mode": 4
        }
      ]
    },
    {
      "name": "hub_rr",
      "primitives": [
        {
          "attributes": {
            "POSITION": 136
          },
          "indices": 137,
          "mode": 4
        }
      ]
    },
    {
      "name": "door_handle_l",
      "primitives": [
        {
          "attributes": {
            "POSITION": 138
          },
          "indices": 139,
          "mode": 4
        }
      ]
    },
    {
      "name": "door_handle_r",
      "primitives": [
        {
          "attributes": {
            "POSITION": 140
          },
          "indices": 141,
          "mode": 4
        }
      ]
    },
    {
      "name": "tank_valve_top",
      "primitives": [
        {
          "attributes": {
            "POSITION": 142
          },
          "indices": 143,
          "mode": 4
        }
      ]
    },
    {
      "name": "chassis_rail_l",
      "primitives": [
        {
          "attributes": {
            "POSITION": 144
          },
          "indices": 145,
          "mode": 4
        }
      ]
    },
    {
      "name": "chassis_rail_r",
      "primitives": [
        {
          "attributes": {
            "POSITION": 146
          },
          "indices": 147,
          "mode": 4
        }
      ]
    },
    {
      "name": "cab_stripe",
      "primitives": [
        {
          "attributes": {
            "POSITION": 148
          },
          "indices": 149,
          "mode": 4
        }
      ]
    },
    {
      "name": "tank_stripe",
      "primitives": [
        {
          "attributes": {
            "POSITION": 150
          },
          "indices": 151,
          "mode": 4
        }
      ]
    },
    {
      "name": "pump_hose_out",
      "primitives": [
        {
          "attributes": {
            "POSITION": 152
          },
          "indices": 153,
          "mode": 4
        }
      ]
    },
    {
      "name": "spare_wheel",
      "primitives": [
        {
          "attributes": {
            "POSITION": 154
          },
          "indices": 155,
          "mode": 4
        }
      ]
    },
    {
      "name": "wiper",
      "primitives": [
        {
          "attributes": {
            "POSITION": 156
          },
          "indices": 157,
          "mode": 4
        }
      ]
    },
    {
      "name": "glass_pane_1",
      "primitives": [
        {
          "attributes": {
            "POSITION": 158
          },
          "indices": 159,
          "mode": 4
        }
      ]
    },
    {
      "name": "glass_pane_lo_1",
      "primitives": [
        {
          "attributes": {
            "POSITION": 160
          },
          "indices": 161,
          "mode": 4
        }
      ]
    },
    {
      "name": "glass_pane_2",
      "primitives": [
        {
          "attributes": {
            "POSITION": 162
          },
          "indices": 163,
          "mode": 4
        }
      ]
    },
    {
      "name": "glass_pane_lo_2",
      "primitives": [
        {
          "attributes": {
            "POSITION": 164
          },
          "indices": 165,
          "mode": 4
        }
      ]
    },
    {
      "name": "glass_pane_3",
      "primitives": [
        {
          "attributes": {
            "POSITION": 166
          },
          "indices": 167,
          "mode": 4
        }
      ]
    },
    {
      "name": "glass_pane_lo_3",
      "primitives": [
        {
          "attributes": {
            "POSITION": 168
          },
          "indices": 169,
          "mode": 4
        }
      ]
    },
    {
      "name": "glass_pane_4",
      "primitives": [
        {
          "attributes": {
            "POSITION": 170
          },
          "indices": 171,
          "mode": 4
        }
      ]
    },
    {
      "name": "glass_pane_lo_4",
      "primitives": [
        {
          "attributes": {
            "POSITION": 172
          },
          "indices": 173,
          "mode": 4
        }
      ]
    }
  ],
  "nodes": [
    {
      "name": "cab",
      "mesh": 0
    },
    {
      "name": "cab_window",
      "mesh": 1
    },
    {
      "name": "cab_door",
      "mesh": 2
    },
    {
      "name": "cab_door_r",
      "mesh": 3
    },
    {
      "name": "cab_roof",
      "mesh": 4
    },
    {
      "name": "cab_visor",
      "mesh": 5
    },
    {
      "name": "tank",
      "mesh": 6
    },
    {
      "name": "tank_end_f",
      "mesh": 7
    },
    {
      "name": "tank_end_r",
      "mesh": 8
    },
    {
      "name": "tank_band",
      "mesh": 9
    },
    {
      "name": "tank_band_2",
      "mesh": 10
    },
    {
      "name": "tank_band_3",
      "mesh": 11
    },
    {
      "name": "tank_band_4",
      "mesh": 12
    },
    {
      "name": "tank_cap",
      "mesh": 13
    },
    {
      "name": "tank_cap_b",
      "mesh": 14
    },
    {
      "name": "tank_ladder",
      "mesh": 15
    },
    {
      "name": "tank_walkway",
      "mesh": 16
    },
    {
      "name": "tank_rail_l",
      "mesh": 17
    },
    {
      "name": "tank_rail_r",
      "mesh": 18
    },
    {
      "name": "chassis",
      "mesh": 19
    },
    {
      "name": "fender_fl",
      "mesh": 20
    },
    {
      "name": "fender_fr",
      "mesh": 21
    },
    {
      "name": "fender_rl",
      "mesh": 22
    },
    {
      "name": "fender_rr",
      "mesh": 23
    },
    {
      "name": "wheel_fl",
      "mesh": 24
    },
    {
      "name": "wheel_fr",
      "mesh": 25
    },
    {
      "name": "wheel_rl",
      "mesh": 26
    },
    {
      "name": "wheel_rr",
      "mesh": 27
    },
    {
      "name": "hub_fl",
      "mesh": 28
    },
    {
      "name": "hub_fr",
      "mesh": 29
    },
    {
      "name": "hose_mount",
      "mesh": 30
    },
    {
      "name": "hose_reel",
      "mesh": 31
    },
    {
      "name": "hose_nozzle",
      "mesh": 32
    },
    {
      "name": "hose",
      "mesh": 33
    },
    {
      "name": "hose_guard",
      "mesh": 34
    },
    {
      "name": "hose_tray",
      "mesh": 35
    },
    {
      "name": "pump_cabinet",
      "mesh": 36
    },
    {
      "name": "pump_gauge",
      "mesh": 37
    },
    {
      "name": "pump_valve",
      "mesh": 38
    },
    {
      "name": "hose_coil_a",
      "mesh": 39
    },
    {
      "name": "hose_coil_b",
      "mesh": 40
    },
    {
      "name": "mirror_l",
      "mesh": 41
    },
    {
      "name": "mirror_r",
      "mesh": 42
    },
    {
      "name": "beacon",
      "mesh": 43
    },
    {
      "name": "beacon_guard",
      "mesh": 44
    },
    {
      "name": "bumper",
      "mesh": 45
    },
    {
      "name": "bumper_rear",
      "mesh": 46
    },
    {
      "name": "step",
      "mesh": 47
    },
    {
      "name": "step_r",
      "mesh": 48
    },
    {
      "name": "light_bar",
      "mesh": 49
    },
    {
      "name": "grill",
      "mesh": 50
    },
    {
      "name": "headlight_l",
      "mesh": 51
    },
    {
      "name": "headlight_r",
      "mesh": 52
    },
    {
      "name": "taillight_l",
      "mesh": 53
    },
    {
      "name": "taillight_r",
      "mesh": 54
    },
    {
      "name": "exhaust",
      "mesh": 55
    },
    {
      "name": "mudflap_l",
      "mesh": 56
    },
    {
      "name": "mudflap_r",
      "mesh": 57
    },
    {
      "name": "number_plate",
      "mesh": 58
    },
    {
      "name": "fuel_hazard",
      "mesh": 59
    },
    {
      "name": "window_mullion",
      "mesh": 60
    },
    {
      "name": "window_mullion_2",
      "mesh": 61
    },
    {
      "name": "window_mullion_3",
      "mesh": 62
    },
    {
      "name": "window_sill",
      "mesh": 63
    },
    {
      "name": "window_header",
      "mesh": 64
    },
    {
      "name": "door_glass",
      "mesh": 65
    },
    {
      "name": "door_glass_r",
      "mesh": 66
    },
    {
      "name": "hub_rl",
      "mesh": 67
    },
    {
      "name": "hub_rr",
      "mesh": 68
    },
    {
      "name": "door_handle_l",
      "mesh": 69
    },
    {
      "name": "door_handle_r",
      "mesh": 70
    },
    {
      "name": "tank_valve_top",
      "mesh": 71
    },
    {
      "name": "chassis_rail_l",
      "mesh": 72
    },
    {
      "name": "chassis_rail_r",
      "mesh": 73
    },
    {
      "name": "cab_stripe",
      "mesh": 74
    },
    {
      "name": "tank_stripe",
      "mesh": 75
    },
    {
      "name": "pump_hose_out",
      "mesh": 76
    },
    {
      "name": "spare_wheel",
      "mesh": 77
    },
    {
      "name": "wiper",
      "mesh": 78
    },
    {
      "name": "glass_pane_1",
      "mesh": 79
    },
    {
      "name": "glass_pane_lo_1",
      "mesh": 80
    },
    {
      "name": "glass_pane_2",
      "mesh": 81
    },
    {
      "name": "glass_pane_lo_2",
      "mesh": 82
    },
    {
      "name": "glass_pane_3",
      "mesh": 83
    },
    {
      "name": "glass_pane_lo_3",
      "mesh": 84
    },
    {
      "name": "glass_pane_4",
      "mesh": 85
    },
    {
      "name": "glass_pane_lo_4",
      "mesh": 86
    }
  ],
  "scenes": [
    {
      "name": "mdl_fuel_truck_small_authored_v01",
      "nodes": [
        0,
        1,
        2,
        3,
        4,
        5,
        6,
        7,
        8,
        9,
        10,
        11,
        12,
        13,
        14,
        15,
        16,
        17,
        18,
        19,
        20,
        21,
        22,
        23,
        24,
        25,
        26,
        27,
        28,
        29,
        30,
        31,
        32,
        33,
        34,
        35,
        36,
        37,
        38,
        39,
        40,
        41,
        42,
        43,
        44,
        45,
        46,
        47,
        48,
        49,
        50,
        51,
        52,
        53,
        54,
        55,
        56,
        57,
        58,
        59,
        60,
        61,
        62,
        63,
        64,
        65,
        66,
        67,
        68,
        69,
        70,
        71,
        72,
        73,
        74,
        75,
        76,
        77,
        78,
        79,
        80,
        81,
        82,
        83,
        84,
        85,
        86
      ]
    }
  ],
  "scene": 0
}