{
  "asset": {
    "version": "2.0",
    "generator": "Airside Batch C procedural kit"
  },
  "buffers": [
    {
      "uri": "mdl_parked_car_v02.bin",
      "byteLength": 58176
    }
  ],
  "bufferViews": [
    {
      "buffer": 0,
      "byteOffset": 0,
      "byteLength": 10032,
      "target": 34962
    },
    {
      "buffer": 0,
      "byteOffset": 10032,
      "byteLength": 2376,
      "target": 34963
    },
    {
      "buffer": 0,
      "byteOffset": 12408,
      "byteLength": 2688,
      "target": 34962
    },
    {
      "buffer": 0,
      "byteOffset": 15096,
      "byteLength": 576,
      "target": 34963
    },
    {
      "buffer": 0,
      "byteOffset": 15672,
      "byteLength": 3456,
      "target": 34962
    },
    {
      "buffer": 0,
      "byteOffset": 19128,
      "byteLength": 768,
      "target": 34963
    },
    {
      "buffer": 0,
      "byteOffset": 19896,
      "byteLength": 2352,
      "target": 34962
    },
    {
      "buffer": 0,
      "byteOffset": 22248,
      "byteLength": 504,
      "target": 34963
    },
    {
      "buffer": 0,
      "byteOffset": 22752,
      "byteLength": 288,
      "target": 34962
    },
    {
      "buffer": 0,
      "byteOffset": 23040,
      "byteLength": 72,
      "target": 34963
    },
    {
      "buffer": 0,
      "byteOffset": 23112,
      "byteLength": 288,
      "target": 34962
    },
    {
      "buffer": 0,
      "byteOffset": 23400,
      "byteLength": 72,
      "target": 34963
    },
    {
      "buffer": 0,
      "byteOffset": 23472,
      "byteLength": 288,
      "target": 34962
    },
    {
      "buffer": 0,
      "byteOffset": 23760,
      "byteLength": 72,
      "target": 34963
    },
    {
      "buffer": 0,
      "byteOffset": 23832,
      "byteLength": 288,
      "target": 34962
    },
    {
      "buffer": 0,
      "byteOffset": 24120,
      "byteLength": 72,
      "target": 34963
    },
    {
      "buffer": 0,
      "byteOffset": 24192,
      "byteLength": 288,
      "target": 34962
    },
    {
      "buffer": 0,
      "byteOffset": 24480,
      "byteLength": 72,
      "target": 34963
    },
    {
      "buffer": 0,
      "byteOffset": 24552,
      "byteLength": 288,
      "target": 34962
    },
    {
      "buffer": 0,
      "byteOffset": 24840,
      "byteLength": 72,
      "target": 34963
    },
    {
      "buffer": 0,
      "byteOffset": 24912,
      "byteLength": 288,
      "target": 34962
    },
    {
      "buffer": 0,
      "byteOffset": 25200,
      "byteLength": 72,
      "target": 34963
    },
    {
      "buffer": 0,
      "byteOffset": 25272,
      "byteLength": 288,
      "target": 34962
    },
    {
      "buffer": 0,
      "byteOffset": 25560,
      "byteLength": 72,
      "target": 34963
    },
    {
      "buffer": 0,
      "byteOffset": 25632,
      "byteLength": 288,
      "target": 34962
    },
    {
      "buffer": 0,
      "byteOffset": 25920,
      "byteLength": 72,
      "target": 34963
    },
    {
      "buffer": 0,
      "byteOffset": 25992,
      "byteLength": 288,
      "target": 34962
    },
    {
      "buffer": 0,
      "byteOffset": 26280,
      "byteLength": 72,
      "target": 34963
    },
    {
      "buffer": 0,
      "byteOffset": 26352,
      "byteLength": 288,
      "target": 34962
    },
    {
      "buffer": 0,
      "byteOffset": 26640,
      "byteLength": 72,
      "target": 34963
    },
    {
      "buffer": 0,
      "byteOffset": 26712,
      "byteLength": 288,
      "target": 34962
    },
    {
      "buffer": 0,
      "byteOffset": 27000,
      "byteLength": 72,
      "target": 34963
    },
    {
      "buffer": 0,
      "byteOffset": 27072,
      "byteLength": 288,
      "target": 34962
    },
    {
      "buffer": 0,
      "byteOffset": 27360,
      "byteLength": 72,
      "target": 34963
    },
    {
      "buffer": 0,
      "byteOffset": 27432,
      "byteLength": 288,
      "target": 34962
    },
    {
      "buffer": 0,
      "byteOffset": 27720,
      "byteLength": 72,
      "target": 34963
    },
    {
      "buffer": 0,
      "byteOffset": 27792,
      "byteLength": 288,
      "target": 34962
    },
    {
      "buffer": 0,
      "byteOffset": 28080,
      "byteLength": 72,
      "target": 34963
    },
    {
      "buffer": 0,
      "byteOffset": 28152,
      "byteLength": 288,
      "target": 34962
    },
    {
      "buffer": 0,
      "byteOffset": 28440,
      "byteLength": 72,
      "target": 34963
    },
    {
      "buffer": 0,
      "byteOffset": 28512,
      "byteLength": 288,
      "target": 34962
    },
    {
      "buffer": 0,
      "byteOffset": 28800,
      "byteLength": 72,
      "target": 34963
    },
    {
      "buffer": 0,
      "byteOffset": 28872,
      "byteLength": 288,
      "target": 34962
    },
    {
      "buffer": 0,
      "byteOffset": 29160,
      "byteLength": 72,
      "target": 34963
    },
    {
      "buffer": 0,
      "byteOffset": 29232,
      "byteLength": 288,
      "target": 34962
    },
    {
      "buffer": 0,
      "byteOffset": 29520,
      "byteLength": 72,
      "target": 34963
    },
    {
      "buffer": 0,
      "byteOffset": 29592,
      "byteLength": 288,
      "target": 34962
    },
    {
      "buffer": 0,
      "byteOffset": 29880,
      "byteLength": 72,
      "target": 34963
    },
    {
      "buffer": 0,
      "byteOffset": 29952,
      "byteLength": 288,
      "target": 34962
    },
    {
      "buffer": 0,
      "byteOffset": 30240,
      "byteLength": 72,
      "target": 34963
    },
    {
      "buffer": 0,
      "byteOffset": 30312,
      "byteLength": 288,
      "target": 34962
    },
    {
      "buffer": 0,
      "byteOffset": 30600,
      "byteLength": 72,
      "target": 34963
    },
    {
      "buffer": 0,
      "byteOffset": 30672,
      "byteLength": 288,
      "target": 34962
    },
    {
      "buffer": 0,
      "byteOffset": 30960,
      "byteLength": 72,
      "target": 34963
    },
    {
      "buffer": 0,
      "byteOffset": 31032,
      "byteLength": 288,
      "target": 34962
    },
    {
      "buffer": 0,
      "byteOffset": 31320,
      "byteLength": 72,
      "target": 34963
    },
    {
      "buffer": 0,
      "byteOffset": 31392,
      "byteLength": 288,
      "target": 34962
    },
    {
      "buffer": 0,
      "byteOffset": 31680,
      "byteLength": 72,
      "target": 34963
    },
    {
      "buffer": 0,
      "byteOffset": 31752,
      "byteLength": 288,
      "target": 34962
    },
    {
      "buffer": 0,
      "byteOffset": 32040,
      "byteLength": 72,
      "target": 34963
    },
    {
      "buffer": 0,
      "byteOffset": 32112,
      "byteLength": 288,
      "target": 34962
    },
    {
      "buffer": 0,
      "byteOffset": 32400,
      "byteLength": 72,
      "target": 34963
    },
    {
      "buffer": 0,
      "byteOffset": 32472,
      "byteLength": 288,
      "target": 34962
    },
    {
      "buffer": 0,
      "byteOffset": 32760,
      "byteLength": 72,
      "target": 34963
    },
    {
      "buffer": 0,
      "byteOffset": 32832,
      "byteLength": 288,
      "target": 34962
    },
    {
      "buffer": 0,
      "byteOffset": 33120,
      "byteLength": 72,
      "target": 34963
    },
    {
      "buffer": 0,
      "byteOffset": 33192,
      "byteLength": 288,
      "target": 34962
    },
    {
      "buffer": 0,
      "byteOffset": 33480,
      "byteLength": 72,
      "target": 34963
    },
    {
      "buffer": 0,
      "byteOffset": 33552,
      "byteLength": 288,
      "target": 34962
    },
    {
      "buffer": 0,
      "byteOffset": 33840,
      "byteLength": 72,
      "target": 34963
    },
    {
      "buffer": 0,
      "byteOffset": 33912,
      "byteLength": 1680,
      "target": 34962
    },
    {
      "buffer": 0,
      "byteOffset": 35592,
      "byteLength": 336,
      "target": 34963
    },
    {
      "buffer": 0,
      "byteOffset": 35928,
      "byteLength": 1680,
      "target": 34962
    },
    {
      "buffer": 0,
      "byteOffset": 37608,
      "byteLength": 336,
      "target": 34963
    },
    {
      "buffer": 0,
      "byteOffset": 37944,
      "byteLength": 1680,
      "target": 34962
    },
    {
      "buffer": 0,
      "byteOffset": 39624,
      "byteLength": 336,
      "target": 34963
    },
    {
      "buffer": 0,
      "byteOffset": 39960,
      "byteLength": 1680,
      "target": 34962
    },
    {
      "buffer": 0,
      "byteOffset": 41640,
      "byteLength": 336,
      "target": 34963
    },
    {
      "buffer": 0,
      "byteOffset": 41976,
      "byteLength": 1920,
      "target": 34962
    },
    {
      "buffer": 0,
      "byteOffset": 43896,
      "byteLength": 384,
      "target": 34963
    },
    {
      "buffer": 0,
      "byteOffset": 44280,
      "byteLength": 1920,
      "target": 34962
    },
    {
      "buffer": 0,
      "byteOffset": 46200,
      "byteLength": 384,
      "target": 34963
    },
    {
      "buffer": 0,
      "byteOffset": 46584,
      "byteLength": 1920,
      "target": 34962
    },
    {
      "buffer": 0,
      "byteOffset": 48504,
      "byteLength": 384,
      "target": 34963
    },
    {
      "buffer": 0,
      "byteOffset": 48888,
      "byteLength": 1920,
      "target": 34962
    },
    {
      "buffer": 0,
      "byteOffset": 50808,
      "byteLength": 384,
      "target": 34963
    },
    {
      "buffer": 0,
      "byteOffset": 51192,
      "byteLength": 1200,
      "target": 34962
    },
    {
      "buffer": 0,
      "byteOffset": 52392,
      "byteLength": 240,
      "target": 34963
    },
    {
      "buffer": 0,
      "byteOffset": 52632,
      "byteLength": 1200,
      "target": 34962
    },
    {
      "buffer": 0,
      "byteOffset": 53832,
      "byteLength": 240,
      "target": 34963
    },
    {
      "buffer": 0,
      "byteOffset": 54072,
      "byteLength": 1200,
      "target": 34962
    },
    {
      "buffer": 0,
      "byteOffset": 55272,
      "byteLength": 240,
      "target": 34963
    },
    {
      "buffer": 0,
      "byteOffset": 55512,
      "byteLength": 1200,
      "target": 34962
    },
    {
      "buffer": 0,
      "byteOffset": 56712,
      "byteLength": 240,
      "target": 34963
    },
    {
      "buffer": 0,
      "byteOffset": 56952,
      "byteLength": 288,
      "target": 34962
    },
    {
      "buffer": 0,
      "byteOffset": 57240,
      "byteLength": 72,
      "target": 34963
    },
    {
      "buffer": 0,
      "byteOffset": 57312,
      "byteLength": 720,
      "target": 34962
    },
    {
      "buffer": 0,
      "byteOffset": 58032,
      "byteLength": 144,
      "target": 34963
    }
  ],
  "accessors": [
    {
      "bufferView": 0,
      "componentType": 5126,
      "count": 836,
      "type": "VEC3",
      "max": [
        0.8799999952316284,
        1.0357249975204468,
        1.850000023841858
      ],
      "min": [
        -0.8799999952316284,
        0.30023160576820374,
        -1.850000023841858
      ]
    },
    {
      "bufferView": 1,
      "componentType": 5123,
      "count": 1188,
      "type": "SCALAR"
    },
    {
      "bufferView": 2,
      "componentType": 5126,
      "count": 224,
      "type": "VEC3",
      "max": [
        0.800000011920929,
        0.8199999928474426,
        1.5499999523162842
      ],
      "min": [
        -0.800000011920929,
        0.5759999752044678,
        0.6499999761581421
      ]
    },
    {
      "bufferView": 3,
      "componentType": 5123,
      "count": 288,
      "type": "SCALAR"
    },
    {
      "bufferView": 4,
      "componentType": 5126,
      "count": 288,
      "type": "VEC3",
      "max": [
        0.7200000286102295,
        1.2400000095367432,
        0.44999998807907104
      ],
      "min": [
        -0.7200000286102295,
        0.9359999895095825,
        -0.949999988079071
      ]
    },
    {
      "bufferView": 5,
      "componentType": 5123,
      "count": 384,
      "type": "SCALAR"
    },
    {
      "bufferView": 6,
      "componentType": 5126,
      "count": 196,
      "type": "VEC3",
      "max": [
        0.7799999713897705,
        0.7369913458824158,
        -1.0499999523162842
      ],
      "min": [
        -0.7799999713897705,
        0.4463789761066437,
        -1.75
      ]
    },
    {
      "bufferView": 7,
      "componentType": 5123,
      "count": 252,
      "type": "SCALAR"
    },
    {
      "bufferView": 8,
      "componentType": 5126,
      "count": 24,
      "type": "VEC3",
      "max": [
        0.6399999856948853,
        1.2018442153930664,
        0.7356880307197571
      ],
      "min": [
        -0.6399999856948853,
        0.8381558060646057,
        0.5043119192123413
      ]
    },
    {
      "bufferView": 9,
      "componentType": 5123,
      "count": 36,
      "type": "SCALAR"
    },
    {
      "bufferView": 10,
      "componentType": 5126,
      "count": 24,
      "type": "VEC3",
      "max": [
        0.6100000143051147,
        1.1688594818115234,
        -0.958501398563385
      ],
      "min": [
        -0.6100000143051147,
        0.8311405777931213,
        -1.1414986848831177
      ]
    },
    {
      "bufferView": 11,
      "componentType": 5123,
      "count": 36,
      "type": "SCALAR"
    },
    {
      "bufferView": 12,
      "componentType": 5126,
      "count": 24,
      "type": "VEC3",
      "max": [
        -0.7950000166893005,
        1.1399999856948853,
        0.42500001192092896
      ],
      "min": [
        -0.8450000286102295,
        0.8199999928474426,
        -0.7250000238418579
      ]
    },
    {
      "bufferView": 13,
      "componentType": 5123,
      "count": 36,
      "type": "SCALAR"
    },
    {
      "bufferView": 14,
      "componentType": 5126,
      "count": 24,
      "type": "VEC3",
      "max": [
        0.8450000286102295,
        1.1399999856948853,
        0.42500001192092896
      ],
      "min": [
        0.7950000166893005,
        0.8199999928474426,
        -0.7250000238418579
      ]
    },
    {
      "bufferView": 15,
      "componentType": 5123,
      "count": 36,
      "type": "SCALAR"
    },
    {
      "bufferView": 16,
      "componentType": 5126,
      "count": 24,
      "type": "VEC3",
      "max": [
        -0.7950000166893005,
        1.1299999952316284,
        0.5600000023841858
      ],
      "min": [
        -0.8450000286102295,
        0.8299999833106995,
        0.14000000059604645
      ]
    },
    {
      "bufferView": 17,
      "componentType": 5123,
      "count": 36,
      "type": "SCALAR"
    },
    {
      "bufferView": 18,
      "componentType": 5126,
      "count": 24,
      "type": "VEC3",
      "max": [
        0.8450000286102295,
        1.1299999952316284,
        0.5600000023841858
      ],
      "min": [
        0.7950000166893005,
        0.8299999833106995,
        0.14000000059604645
      ]
    },
    {
      "bufferView": 19,
      "componentType": 5123,
      "count": 36,
      "type": "SCALAR"
    },
    {
      "bufferView": 20,
      "componentType": 5126,
      "count": 24,
      "type": "VEC3",
      "max": [
        -0.7950000166893005,
        1.1299999952316284,
        -0.3400000035762787
      ],
      "min": [
        -0.8450000286102295,
        0.8299999833106995,
        -0.7599999904632568
      ]
    },
    {
      "bufferView": 21,
      "componentType": 5123,
      "count": 36,
      "type": "SCALAR"
    },
    {
      "bufferView": 22,
      "componentType": 5126,
      "count": 24,
      "type": "VEC3",
      "max": [
        0.8450000286102295,
        1.1299999952316284,
        -0.3400000035762787
      ],
      "min": [
        0.7950000166893005,
        0.8299999833106995,
        -0.7599999904632568
      ]
    },
    {
      "bufferView": 23,
      "componentType": 5123,
      "count": 36,
      "type": "SCALAR"
    },
    {
      "bufferView": 24,
      "componentType": 5126,
      "count": 24,
      "type": "VEC3",
      "max": [
        -0.7900000214576721,
        1.1399999856948853,
        0.07500000298023224
      ],
      "min": [
        -0.8500000238418579,
        0.8199999928474426,
        0.02500000037252903
      ]
    },
    {
      "bufferView": 25,
      "componentType": 5123,
      "count": 36,
      "type": "SCALAR"
    },
    {
      "bufferView": 26,
      "componentType": 5126,
      "count": 24,
      "type": "VEC3",
      "max": [
        0.8500000238418579,
        1.1399999856948853,
        0.07500000298023224
      ],
      "min": [
        0.7900000214576721,
        0.8199999928474426,
        0.02500000037252903
      ]
    },
    {
      "bufferView": 27,
      "componentType": 5123,
      "count": 36,
      "type": "SCALAR"
    },
    {
      "bufferView": 28,
      "componentType": 5126,
      "count": 24,
      "type": "VEC3",
      "max": [
        -0.7900000214576721,
        0.8450000286102295,
        0.5
      ],
      "min": [
        -0.8500000238418579,
        0.7950000166893005,
        -0.699999988079071
      ]
    },
    {
      "bufferView": 29,
      "componentType": 5123,
      "count": 36,
      "type": "SCALAR"
    },
    {
      "bufferView": 30,
      "componentType": 5126,
      "count": 24,
      "type": "VEC3",
      "max": [
        0.8500000238418579,
        0.8450000286102295,
        0.5
      ],
      "min": [
        0.7900000214576721,
        0.7950000166893005,
        -0.699999988079071
      ]
    },
    {
      "bufferView": 31,
      "componentType": 5123,
      "count": 36,
      "type": "SCALAR"
    },
    {
      "bufferView": 32,
      "componentType": 5126,
      "count": 24,
      "type": "VEC3",
      "max": [
        -0.8600000143051147,
        0.8550000190734863,
        0.574999988079071
      ],
      "min": [
        -0.9399999976158142,
        0.3050000071525574,
        -0.4749999940395355
      ]
    },
    {
      "bufferView": 33,
      "componentType": 5123,
      "count": 36,
      "type": "SCALAR"
    },
    {
      "bufferView": 34,
      "componentType": 5126,
      "count": 24,
      "type": "VEC3",
      "max": [
        0.9399999976158142,
        0.8550000190734863,
        0.574999988079071
      ],
      "min": [
        0.8600000143051147,
        0.3050000071525574,
        -0.4749999940395355
      ]
    },
    {
      "bufferView": 35,
      "componentType": 5123,
      "count": 36,
      "type": "SCALAR"
    },
    {
      "bufferView": 36,
      "componentType": 5126,
      "count": 24,
      "type": "VEC3",
      "max": [
        -0.9150000214576721,
        0.6600000262260437,
        0.20999999344348907
      ],
      "min": [
        -0.9649999737739563,
        0.5799999833106995,
        0.09000000357627869
      ]
    },
    {
      "bufferView": 37,
      "componentType": 5123,
      "count": 36,
      "type": "SCALAR"
    },
    {
      "bufferView": 38,
      "componentType": 5126,
      "count": 24,
      "type": "VEC3",
      "max": [
        0.9649999737739563,
        0.6600000262260437,
        0.20999999344348907
      ],
      "min": [
        0.9150000214576721,
        0.5799999833106995,
        0.09000000357627869
      ]
    },
    {
      "bufferView": 39,
      "componentType": 5123,
      "count": 36,
      "type": "SCALAR"
    },
    {
      "bufferView": 40,
      "componentType": 5126,
      "count": 24,
      "type": "VEC3",
      "max": [
        0.8600000143051147,
        0.46000000834465027,
        2.0299999713897705
      ],
      "min": [
        -0.8600000143051147,
        0.18000000715255737,
        1.809999942779541
      ]
    },
    {
      "bufferView": 41,
      "componentType": 5123,
      "count": 36,
      "type": "SCALAR"
    },
    {
      "bufferView": 42,
      "componentType": 5126,
      "count": 24,
      "type": "VEC3",
      "max": [
        0.8600000143051147,
        0.46000000834465027,
        -1.809999942779541
      ],
      "min": [
        -0.8600000143051147,
        0.18000000715255737,
        -2.0299999713897705
      ]
    },
    {
      "bufferView": 43,
      "componentType": 5123,
      "count": 36,
      "type": "SCALAR"
    },
    {
      "bufferView": 44,
      "componentType": 5126,
      "count": 24,
      "type": "VEC3",
      "max": [
        0.4749999940395355,
        0.5799999833106995,
        2.009999990463257
      ],
      "min": [
        -0.4749999940395355,
        0.3799999952316284,
        1.9500000476837158
      ]
    },
    {
      "bufferView": 45,
      "componentType": 5123,
      "count": 36,
      "type": "SCALAR"
    },
    {
      "bufferView": 46,
      "componentType": 5126,
      "count": 24,
      "type": "VEC3",
      "max": [
        0.42500001192092896,
        0.5350000262260437,
        2.0199999809265137
      ],
      "min": [
        -0.42500001192092896,
        0.5049999952316284,
        1.9800000190734863
      ]
    },
    {
      "bufferView": 47,
      "componentType": 5123,
      "count": 36,
      "type": "SCALAR"
    },
    {
      "bufferView": 48,
      "componentType": 5126,
      "count": 24,
      "type": "VEC3",
      "max": [
        0.42500001192092896,
        0.45500001311302185,
        2.0199999809265137
      ],
      "min": [
        -0.42500001192092896,
        0.42500001192092896,
        1.9800000190734863
      ]
    },
    {
      "bufferView": 49,
      "componentType": 5123,
      "count": 36,
      "type": "SCALAR"
    },
    {
      "bufferView": 50,
      "componentType": 5126,
      "count": 24,
      "type": "VEC3",
      "max": [
        -0.4099999964237213,
        0.5600000023841858,
        2.0199999809265137
      ],
      "min": [
        -0.6899999976158142,
        0.4000000059604645,
        1.940000057220459
      ]
    },
    {
      "bufferView": 51,
      "componentType": 5123,
      "count": 36,
      "type": "SCALAR"
    },
    {
      "bufferView": 52,
      "componentType": 5126,
      "count": 24,
      "type": "VEC3",
      "max": [
        0.6899999976158142,
        0.5600000023841858,
        2.0199999809265137
      ],
      "min": [
        0.4099999964237213,
        0.4000000059604645,
        1.940000057220459
      ]
    },
    {
      "bufferView": 53,
      "componentType": 5123,
      "count": 36,
      "type": "SCALAR"
    },
    {
      "bufferView": 54,
      "componentType": 5126,
      "count": 24,
      "type": "VEC3",
      "max": [
        -0.4000000059604645,
        0.5699999928474426,
        -1.9500000476837158
      ],
      "min": [
        -0.699999988079071,
        0.4300000071525574,
        -2.009999990463257
      ]
    },
    {
      "bufferView": 55,
      "componentType": 5123,
      "count": 36,
      "type": "SCALAR"
    },
    {
      "bufferView": 56,
      "componentType": 5126,
      "count": 24,
      "type": "VEC3",
      "max": [
        0.699999988079071,
        0.5699999928474426,
        -1.9500000476837158
      ],
      "min": [
        0.4000000059604645,
        0.4300000071525574,
        -2.009999990463257
      ]
    },
    {
      "bufferView": 57,
      "componentType": 5123,
      "count": 36,
      "type": "SCALAR"
    },
    {
      "bufferView": 58,
      "componentType": 5126,
      "count": 24,
      "type": "VEC3",
      "max": [
        -0.8999999761581421,
        0.9300000071525574,
        0.5699999928474426
      ],
      "min": [
        -1.059999942779541,
        0.8299999833106995,
        0.38999998569488525
      ]
    },
    {
      "bufferView": 59,
      "componentType": 5123,
      "count": 36,
      "type": "SCALAR"
    },
    {
      "bufferView": 60,
      "componentType": 5126,
      "count": 24,
      "type": "VEC3",
      "max": [
        1.059999942779541,
        0.9300000071525574,
        0.5699999928474426
      ],
      "min": [
        0.8999999761581421,
        0.8299999833106995,
        0.38999998569488525
      ]
    },
    {
      "bufferView": 61,
      "componentType": 5123,
      "count": 36,
      "type": "SCALAR"
    },
    {
      "bufferView": 62,
      "componentType": 5126,
      "count": 24,
      "type": "VEC3",
      "max": [
        0.1899999976158142,
        0.38999998569488525,
        2.0350000858306885
      ],
      "min": [
        -0.1899999976158142,
        0.28999999165534973,
        2.005000114440918
      ]
    },
    {
      "bufferView": 63,
      "componentType": 5123,
      "count": 36,
      "type": "SCALAR"
    },
    {
      "bufferView": 64,
      "componentType": 5126,
      "count": 24,
      "type": "VEC3",
      "max": [
        0.8899999856948853,
        0.5799999833106995,
        1.2999999523162842
      ],
      "min": [
        -0.8899999856948853,
        0.5199999809265137,
        -1.2999999523162842
      ]
    },
    {
      "bufferView": 65,
      "componentType": 5123,
      "count": 36,
      "type": "SCALAR"
    },
    {
      "bufferView": 66,
      "componentType": 5126,
      "count": 24,
      "type": "VEC3",
      "max": [
        -0.8500000238418579,
        0.3400000035762787,
        1.399999976158142
      ],
      "min": [
        -0.9100000262260437,
        0.2199999988079071,
        -1.399999976158142
      ]
    },
    {
      "bufferView": 67,
      "componentType": 5123,
      "count": 36,
      "type": "SCALAR"
    },
    {
      "bufferView": 68,
      "componentType": 5126,
      "count": 24,
      "type": "VEC3",
      "max": [
        0.9100000262260437,
        0.3400000035762787,
        1.399999976158142
      ],
      "min": [
        0.8500000238418579,
        0.2199999988079071,
        -1.399999976158142
      ]
    },
    {
      "bufferView": 69,
      "componentType": 5123,
      "count": 36,
      "type": "SCALAR"
    },
    {
      "bufferView": 70,
      "componentType": 5126,
      "count": 140,
      "type": "VEC3",
      "max": [
        -0.46000000834465027,
        0.6919769048690796,
        1.159999966621399
      ],
      "min": [
        -1.100000023841858,
        0.06802307069301605,
        0.9399998784065247
      ]
    },
    {
      "bufferView": 71,
      "componentType": 5123,
      "count": 168,
      "type": "SCALAR"
    },
    {
      "bufferView": 72,
      "componentType": 5126,
      "count": 140,
      "type": "VEC3",
      "max": [
        1.100000023841858,
        0.6919769048690796,
        1.159999966621399
      ],
      "min": [
        0.46000000834465027,
        0.06802307069301605,
        0.9399998784065247
      ]
    },
    {
      "bufferView": 73,
      "componentType": 5123,
      "count": 168,
      "type": "SCALAR"
    },
    {
      "bufferView": 74,
      "componentType": 5126,
      "count": 140,
      "type": "VEC3",
      "max": [
        -0.46000000834465027,
        0.6919769048690796,
        -0.9399998784065247
      ],
      "min": [
        -1.100000023841858,
        0.06802307069301605,
        -1.159999966621399
      ]
    },
    {
      "bufferView": 75,
      "componentType": 5123,
      "count": 168,
      "type": "SCALAR"
    },
    {
      "bufferView": 76,
      "componentType": 5126,
      "count": 140,
      "type": "VEC3",
      "max": [
        1.100000023841858,
        0.6919769048690796,
        -0.9399998784065247
      ],
      "min": [
        0.46000000834465027,
        0.06802307069301605,
        -1.159999966621399
      ]
    },
    {
      "bufferView": 77,
      "componentType": 5123,
      "count": 168,
      "type": "SCALAR"
    },
    {
      "bufferView": 78,
      "componentType": 5126,
      "count": 160,
      "type": "VEC3",
      "max": [
        -0.6800000071525574,
        0.44999998807907104,
        1.3300000429153442
      ],
      "min": [
        -0.8800000548362732,
        -0.10999999940395355,
        0.7699999809265137
      ]
    },
    {
      "bufferView": 79,
      "componentType": 5123,
      "count": 192,
      "type": "SCALAR"
    },
    {
      "bufferView": 80,
      "componentType": 5126,
      "count": 160,
      "type": "VEC3",
      "max": [
        0.8800000548362732,
        0.44999998807907104,
        1.3300000429153442
      ],
      "min": [
        0.6800000071525574,
        -0.10999999940395355,
        0.7699999809265137
      ]
    },
    {
      "bufferView": 81,
      "componentType": 5123,
      "count": 192,
      "type": "SCALAR"
    },
    {
      "bufferView": 82,
      "componentType": 5126,
      "count": 160,
      "type": "VEC3",
      "max": [
        -0.6800000071525574,
        0.44999998807907104,
        -0.7699999809265137
      ],
      "min": [
        -0.8800000548362732,
        -0.10999999940395355,
        -1.3300000429153442
      ]
    },
    {
      "bufferView": 83,
      "componentType": 5123,
      "count": 192,
      "type": "SCALAR"
    },
    {
      "bufferView": 84,
      "componentType": 5126,
      "count": 160,
      "type": "VEC3",
      "max": [
        0.8800000548362732,
        0.44999998807907104,
        -0.7699999809265137
      ],
      "min": [
        0.6800000071525574,
        -0.10999999940395355,
        -1.3300000429153442
      ]
    },
    {
      "bufferView": 85,
      "componentType": 5123,
      "count": 192,
      "type": "SCALAR"
    },
    {
      "bufferView": 86,
      "componentType": 5126,
      "count": 100,
      "type": "VEC3",
      "max": [
        -0.7300000190734863,
        0.28412678837776184,
        1.1699999570846558
      ],
      "min": [
        -0.8300000429153442,
        0.055873218923807144,
        0.9300000071525574
      ]
    },
    {
      "bufferView": 87,
      "componentType": 5123,
      "count": 120,
      "type": "SCALAR"
    },
    {
      "bufferView": 88,
      "componentType": 5126,
      "count": 100,
      "type": "VEC3",
      "max": [
        0.8300000429153442,
        0.28412678837776184,
        1.1699999570846558
      ],
      "min": [
        0.7300000190734863,
        0.055873218923807144,
        0.9300000071525574
      ]
    },
    {
      "bufferView": 89,
      "componentType": 5123,
      "count": 120,
      "type": "SCALAR"
    },
    {
      "bufferView": 90,
      "componentType": 5126,
      "count": 100,
      "type": "VEC3",
      "max": [
        -0.7300000190734863,
        0.28412678837776184,
        -0.9300000071525574
      ],
      "min": [
        -0.8300000429153442,
        0.055873218923807144,
        -1.1699999570846558
      ]
    },
    {
      "bufferView": 91,
      "componentType": 5123,
      "count": 120,
      "type": "SCALAR"
    },
    {
      "bufferView": 92,
      "componentType": 5126,
      "count": 100,
      "type": "VEC3",
      "max": [
        0.8300000429153442,
        0.28412678837776184,
        -0.9300000071525574
      ],
      "min": [
        0.7300000190734863,
        0.055873218923807144,
        -1.1699999570846558
      ]
    },
    {
      "bufferView": 93,
      "componentType": 5123,
      "count": 120,
      "type": "SCALAR"
    },
    {
      "bufferView": 94,
      "componentType": 5126,
      "count": 24,
      "type": "VEC3",
      "max": [
        0.42500001192092896,
        1.1349999904632568,
        0.5699999928474426
      ],
      "min": [
        -0.42500001192092896,
        1.1050000190734863,
        0.5299999713897705
      ]
    },
    {
      "bufferView": 95,
      "componentType": 5123,
      "count": 36,
      "type": "SCALAR"
    },
    {
      "bufferView": 96,
      "componentType": 5126,
      "count": 60,
      "type": "VEC3",
      "max": [
        -0.33500000834465027,
        1.4250000715255737,
        -0.837009608745575
      ],
      "min": [
        -0.36500000953674316,
        1.0749999284744263,
        -0.8629903793334961
      ]
    },
    {
      "bufferView": 97,
      "componentType": 5123,
      "count": 72,
      "type": "SCALAR"
    }
  ],
  "meshes": [
    {
      "name": "car_body",
      "primitives": [
        {
          "attributes": {
            "POSITION": 0
          },
          "indices": 1,
          "mode": 4
        }
      ]
    },
    {
      "name": "car_hood",
      "primitives": [
        {
          "attributes": {
            "POSITION": 2
          },
          "indices": 3,
          "mode": 4
        }
      ]
    },
    {
      "name": "car_roof",
      "primitives": [
        {
          "attributes": {
            "POSITION": 4
          },
          "indices": 5,
          "mode": 4
        }
      ]
    },
    {
      "name": "car_boot",
      "primitives": [
        {
          "attributes": {
            "POSITION": 6
          },
          "indices": 7,
          "mode": 4
        }
      ]
    },
    {
      "name": "glass_front",
      "primitives": [
        {
          "attributes": {
            "POSITION": 8
          },
          "indices": 9,
          "mode": 4
        }
      ]
    },
    {
      "name": "glass_rear",
      "primitives": [
        {
          "attributes": {
            "POSITION": 10
          },
          "indices": 11,
          "mode": 4
        }
      ]
    },
    {
      "name": "glass_side_l",
      "primitives": [
        {
          "attributes": {
            "POSITION": 12
          },
          "indices": 13,
          "mode": 4
        }
      ]
    },
    {
      "name": "glass_side_r",
      "primitives": [
        {
          "attributes": {
            "POSITION": 14
          },
          "indices": 15,
          "mode": 4
        }
      ]
    },
    {
      "name": "glass_pane_fl",
      "primitives": [
        {
          "attributes": {
            "POSITION": 16
          },
          "indices": 17,
          "mode": 4
        }
      ]
    },
    {
      "name": "glass_pane_fr",
      "primitives": [
        {
          "attributes": {
            "POSITION": 18
          },
          "indices": 19,
          "mode": 4
        }
      ]
    },
    {
      "name": "glass_pane_rl",
      "primitives": [
        {
          "attributes": {
            "POSITION": 20
          },
          "indices": 21,
          "mode": 4
        }
      ]
    },
    {
      "name": "glass_pane_rr",
      "primitives": [
        {
          "attributes": {
            "POSITION": 22
          },
          "indices": 23,
          "mode": 4
        }
      ]
    },
    {
      "name": "window_mullion_a",
      "primitives": [
        {
          "attributes": {
            "POSITION": 24
          },
          "indices": 25,
          "mode": 4
        }
      ]
    },
    {
      "name": "window_mullion_b",
      "primitives": [
        {
          "attributes": {
            "POSITION": 26
          },
          "indices": 27,
          "mode": 4
        }
      ]
    },
    {
      "name": "window_sill_l",
      "primitives": [
        {
          "attributes": {
            "POSITION": 28
          },
          "indices": 29,
          "mode": 4
        }
      ]
    },
    {
      "name": "window_sill_r",
      "primitives": [
        {
          "attributes": {
            "POSITION": 30
          },
          "indices": 31,
          "mode": 4
        }
      ]
    },
    {
      "name": "car_door_l",
      "primitives": [
        {
          "attributes": {
            "POSITION": 32
          },
          "indices": 33,
          "mode": 4
        }
      ]
    },
    {
      "name": "car_door_r",
      "primitives": [
        {
          "attributes": {
            "POSITION": 34
          },
          "indices": 35,
          "mode": 4
        }
      ]
    },
    {
      "name": "door_handle_l",
      "primitives": [
        {
          "attributes": {
            "POSITION": 36
          },
          "indices": 37,
          "mode": 4
        }
      ]
    },
    {
      "name": "door_handle_r",
      "primitives": [
        {
          "attributes": {
            "POSITION": 38
          },
          "indices": 39,
          "mode": 4
        }
      ]
    },
    {
      "name": "car_bumper_front",
      "primitives": [
        {
          "attributes": {
            "POSITION": 40
          },
          "indices": 41,
          "mode": 4
        }
      ]
    },
    {
      "name": "car_bumper_rear",
      "primitives": [
        {
          "attributes": {
            "POSITION": 42
          },
          "indices": 43,
          "mode": 4
        }
      ]
    },
    {
      "name": "car_grille",
      "primitives": [
        {
          "attributes": {
            "POSITION": 44
          },
          "indices": 45,
          "mode": 4
        }
      ]
    },
    {
      "name": "car_grille_bar_1",
      "primitives": [
        {
          "attributes": {
            "POSITION": 46
          },
          "indices": 47,
          "mode": 4
        }
      ]
    },
    {
      "name": "car_grille_bar_2",
      "primitives": [
        {
          "attributes": {
            "POSITION": 48
          },
          "indices": 49,
          "mode": 4
        }
      ]
    },
    {
      "name": "car_headlight_l",
      "primitives": [
        {
          "attributes": {
            "POSITION": 50
          },
          "indices": 51,
          "mode": 4
        }
      ]
    },
    {
      "name": "car_headlight_r",
      "primitives": [
        {
          "attributes": {
            "POSITION": 52
          },
          "indices": 53,
          "mode": 4
        }
      ]
    },
    {
      "name": "car_taillight_l",
      "primitives": [
        {
          "attributes": {
            "POSITION": 54
          },
          "indices": 55,
          "mode": 4
        }
      ]
    },
    {
      "name": "car_taillight_r",
      "primitives": [
        {
          "attributes": {
            "POSITION": 56
          },
          "indices": 57,
          "mode": 4
        }
      ]
    },
    {
      "name": "car_mirror_l",
      "primitives": [
        {
          "attributes": {
            "POSITION": 58
          },
          "indices": 59,
          "mode": 4
        }
      ]
    },
    {
      "name": "car_mirror_r",
      "primitives": [
        {
          "attributes": {
            "POSITION": 60
          },
          "indices": 61,
          "mode": 4
        }
      ]
    },
    {
      "name": "car_number_plate",
      "primitives": [
        {
          "attributes": {
            "POSITION": 62
          },
          "indices": 63,
          "mode": 4
        }
      ]
    },
    {
      "name": "car_stripe",
      "primitives": [
        {
          "attributes": {
            "POSITION": 64
          },
          "indices": 65,
          "mode": 4
        }
      ]
    },
    {
      "name": "car_skirt_l",
      "primitives": [
        {
          "attributes": {
            "POSITION": 66
          },
          "indices": 67,
          "mode": 4
        }
      ]
    },
    {
      "name": "car_skirt_r",
      "primitives": [
        {
          "attributes": {
            "POSITION": 68
          },
          "indices": 69,
          "mode": 4
        }
      ]
    },
    {
      "name": "car_wheel_arch_fl",
      "primitives": [
        {
          "attributes": {
            "POSITION": 70
          },
          "indices": 71,
          "mode": 4
        }
      ]
    },
    {
      "name": "car_wheel_arch_fr",
      "primitives": [
        {
          "attributes": {
            "POSITION": 72
          },
          "indices": 73,
          "mode": 4
        }
      ]
    },
    {
      "name": "car_wheel_arch_rl",
      "primitives": [
        {
          "attributes": {
            "POSITION": 74
          },
          "indices": 75,
          "mode": 4
        }
      ]
    },
    {
      "name": "car_wheel_arch_rr",
      "primitives": [
        {
          "attributes": {
            "POSITION": 76
          },
          "indices": 77,
          "mode": 4
        }
      ]
    },
    {
      "name": "wheel_fl",
      "primitives": [
        {
          "attributes": {
            "POSITION": 78
          },
          "indices": 79,
          "mode": 4
        }
      ]
    },
    {
      "name": "wheel_fr",
      "primitives": [
        {
          "attributes": {
            "POSITION": 80
          },
          "indices": 81,
          "mode": 4
        }
      ]
    },
    {
      "name": "wheel_rl",
      "primitives": [
        {
          "attributes": {
            "POSITION": 82
          },
          "indices": 83,
          "mode": 4
        }
      ]
    },
    {
      "name": "wheel_rr",
      "primitives": [
        {
          "attributes": {
            "POSITION": 84
          },
          "indices": 85,
          "mode": 4
        }
      ]
    },
    {
      "name": "hub_fl",
      "primitives": [
        {
          "attributes": {
            "POSITION": 86
          },
          "indices": 87,
          "mode": 4
        }
      ]
    },
    {
      "name": "hub_fr",
      "primitives": [
        {
          "attributes": {
            "POSITION": 88
          },
          "indices": 89,
          "mode": 4
        }
      ]
    },
    {
      "name": "hub_rl",
      "primitives": [
        {
          "attributes": {
            "POSITION": 90
          },
          "indices": 91,
          "mode": 4
        }
      ]
    },
    {
      "name": "hub_rr",
      "primitives": [
        {
          "attributes": {
            "POSITION": 92
          },
          "indices": 93,
          "mode": 4
        }
      ]
    },
    {
      "name": "wiper",
      "primitives": [
        {
          "attributes": {
            "POSITION": 94
          },
          "indices": 95,
          "mode": 4
        }
      ]
    },
    {
      "name": "antenna",
      "primitives": [
        {
          "attributes": {
            "POSITION": 96
          },
          "indices": 97,
          "mode": 4
        }
      ]
    }
  ],
  "nodes": [
    {
      "name": "car_body",
      "mesh": 0
    },
    {
      "name": "car_hood",
      "mesh": 1
    },
    {
      "name": "car_roof",
      "mesh": 2
    },
    {
      "name": "car_boot",
      "mesh": 3
    },
    {
      "name": "glass_front",
      "mesh": 4
    },
    {
      "name": "glass_rear",
      "mesh": 5
    },
    {
      "name": "glass_side_l",
      "mesh": 6
    },
    {
      "name": "glass_side_r",
      "mesh": 7
    },
    {
      "name": "glass_pane_fl",
      "mesh": 8
    },
    {
      "name": "glass_pane_fr",
      "mesh": 9
    },
    {
      "name": "glass_pane_rl",
      "mesh": 10
    },
    {
      "name": "glass_pane_rr",
      "mesh": 11
    },
    {
      "name": "window_mullion_a",
      "mesh": 12
    },
    {
      "name": "window_mullion_b",
      "mesh": 13
    },
    {
      "name": "window_sill_l",
      "mesh": 14
    },
    {
      "name": "window_sill_r",
      "mesh": 15
    },
    {
      "name": "car_door_l",
      "mesh": 16
    },
    {
      "name": "car_door_r",
      "mesh": 17
    },
    {
      "name": "door_handle_l",
      "mesh": 18
    },
    {
      "name": "door_handle_r",
      "mesh": 19
    },
    {
      "name": "car_bumper_front",
      "mesh": 20
    },
    {
      "name": "car_bumper_rear",
      "mesh": 21
    },
    {
      "name": "car_grille",
      "mesh": 22
    },
    {
      "name": "car_grille_bar_1",
      "mesh": 23
    },
    {
      "name": "car_grille_bar_2",
      "mesh": 24
    },
    {
      "name": "car_headlight_l",
      "mesh": 25
    },
    {
      "name": "car_headlight_r",
      "mesh": 26
    },
    {
      "name": "car_taillight_l",
      "mesh": 27
    },
    {
      "name": "car_taillight_r",
      "mesh": 28
    },
    {
      "name": "car_mirror_l",
      "mesh": 29
    },
    {
      "name": "car_mirror_r",
      "mesh": 30
    },
    {
      "name": "car_number_plate",
      "mesh": 31
    },
    {
      "name": "car_stripe",
      "mesh": 32
    },
    {
      "name": "car_skirt_l",
      "mesh": 33
    },
    {
      "name": "car_skirt_r",
      "mesh": 34
    },
    {
      "name": "car_wheel_arch_fl",
      "mesh": 35
    },
    {
      "name": "car_wheel_arch_fr",
      "mesh": 36
    },
    {
      "name": "car_wheel_arch_rl",
      "mesh": 37
    },
    {
      "name": "car_wheel_arch_rr",
      "mesh": 38
    },
    {
      "name": "wheel_fl",
      "mesh": 39
    },
    {
      "name": "wheel_fr",
      "mesh": 40
    },
    {
      "name": "wheel_rl",
      "mesh": 41
    },
    {
      "name": "wheel_rr",
      "mesh": 42
    },
    {
      "name": "hub_fl",
      "mesh": 43
    },
    {
      "name": "hub_fr",
      "mesh": 44
    },
    {
      "name": "hub_rl",
      "mesh": 45
    },
    {
      "name": "hub_rr",
      "mesh": 46
    },
    {
      "name": "wiper",
      "mesh": 47
    },
    {
      "name": "antenna",
      "mesh": 48
    }
  ],
  "scenes": [
    {
      "name": "mdl_parked_car_v02",
      "nodes": [
        0,
        1,
        2,
        3,
        4,
        5,
        6,
        7,
        8,
        9,
        10,
        11,
        12,
        13,
        14,
        15,
        16,
        17,
        18,
        19,
        20,
        21,
        22,
        23,
        24,
        25,
        26,
        27,
        28,
        29,
        30,
        31,
        32,
        33,
        34,
        35,
        36,
        37,
        38,
        39,
        40,
        41,
        42,
        43,
        44,
        45,
        46,
        47,
        48
      ]
    }
  ],
  "scene": 0
}