{
  "asset": {
    "version": "2.0",
    "generator": "Airside Batch C procedural kit"
  },
  "buffers": [
    {
      "uri": "mdl_passenger_bus_apron_authored_v01.bin",
      "byteLength": 23184
    }
  ],
  "bufferViews": [
    {
      "buffer": 0,
      "byteOffset": 0,
      "byteLength": 288,
      "target": 34962
    },
    {
      "buffer": 0,
      "byteOffset": 288,
      "byteLength": 72,
      "target": 34963
    },
    {
      "buffer": 0,
      "byteOffset": 360,
      "byteLength": 288,
      "target": 34962
    },
    {
      "buffer": 0,
      "byteOffset": 648,
      "byteLength": 72,
      "target": 34963
    },
    {
      "buffer": 0,
      "byteOffset": 720,
      "byteLength": 288,
      "target": 34962
    },
    {
      "buffer": 0,
      "byteOffset": 1008,
      "byteLength": 72,
      "target": 34963
    },
    {
      "buffer": 0,
      "byteOffset": 1080,
      "byteLength": 288,
      "target": 34962
    },
    {
      "buffer": 0,
      "byteOffset": 1368,
      "byteLength": 72,
      "target": 34963
    },
    {
      "buffer": 0,
      "byteOffset": 1440,
      "byteLength": 288,
      "target": 34962
    },
    {
      "buffer": 0,
      "byteOffset": 1728,
      "byteLength": 72,
      "target": 34963
    },
    {
      "buffer": 0,
      "byteOffset": 1800,
      "byteLength": 288,
      "target": 34962
    },
    {
      "buffer": 0,
      "byteOffset": 2088,
      "byteLength": 72,
      "target": 34963
    },
    {
      "buffer": 0,
      "byteOffset": 2160,
      "byteLength": 288,
      "target": 34962
    },
    {
      "buffer": 0,
      "byteOffset": 2448,
      "byteLength": 72,
      "target": 34963
    },
    {
      "buffer": 0,
      "byteOffset": 2520,
      "byteLength": 288,
      "target": 34962
    },
    {
      "buffer": 0,
      "byteOffset": 2808,
      "byteLength": 72,
      "target": 34963
    },
    {
      "buffer": 0,
      "byteOffset": 2880,
      "byteLength": 288,
      "target": 34962
    },
    {
      "buffer": 0,
      "byteOffset": 3168,
      "byteLength": 72,
      "target": 34963
    },
    {
      "buffer": 0,
      "byteOffset": 3240,
      "byteLength": 288,
      "target": 34962
    },
    {
      "buffer": 0,
      "byteOffset": 3528,
      "byteLength": 72,
      "target": 34963
    },
    {
      "buffer": 0,
      "byteOffset": 3600,
      "byteLength": 288,
      "target": 34962
    },
    {
      "buffer": 0,
      "byteOffset": 3888,
      "byteLength": 72,
      "target": 34963
    },
    {
      "buffer": 0,
      "byteOffset": 3960,
      "byteLength": 288,
      "target": 34962
    },
    {
      "buffer": 0,
      "byteOffset": 4248,
      "byteLength": 72,
      "target": 34963
    },
    {
      "buffer": 0,
      "byteOffset": 4320,
      "byteLength": 288,
      "target": 34962
    },
    {
      "buffer": 0,
      "byteOffset": 4608,
      "byteLength": 72,
      "target": 34963
    },
    {
      "buffer": 0,
      "byteOffset": 4680,
      "byteLength": 288,
      "target": 34962
    },
    {
      "buffer": 0,
      "byteOffset": 4968,
      "byteLength": 72,
      "target": 34963
    },
    {
      "buffer": 0,
      "byteOffset": 5040,
      "byteLength": 288,
      "target": 34962
    },
    {
      "buffer": 0,
      "byteOffset": 5328,
      "byteLength": 72,
      "target": 34963
    },
    {
      "buffer": 0,
      "byteOffset": 5400,
      "byteLength": 288,
      "target": 34962
    },
    {
      "buffer": 0,
      "byteOffset": 5688,
      "byteLength": 72,
      "target": 34963
    },
    {
      "buffer": 0,
      "byteOffset": 5760,
      "byteLength": 288,
      "target": 34962
    },
    {
      "buffer": 0,
      "byteOffset": 6048,
      "byteLength": 72,
      "target": 34963
    },
    {
      "buffer": 0,
      "byteOffset": 6120,
      "byteLength": 288,
      "target": 34962
    },
    {
      "buffer": 0,
      "byteOffset": 6408,
      "byteLength": 72,
      "target": 34963
    },
    {
      "buffer": 0,
      "byteOffset": 6480,
      "byteLength": 1680,
      "target": 34962
    },
    {
      "buffer": 0,
      "byteOffset": 8160,
      "byteLength": 336,
      "target": 34963
    },
    {
      "buffer": 0,
      "byteOffset": 8496,
      "byteLength": 1680,
      "target": 34962
    },
    {
      "buffer": 0,
      "byteOffset": 10176,
      "byteLength": 336,
      "target": 34963
    },
    {
      "buffer": 0,
      "byteOffset": 10512,
      "byteLength": 1680,
      "target": 34962
    },
    {
      "buffer": 0,
      "byteOffset": 12192,
      "byteLength": 336,
      "target": 34963
    },
    {
      "buffer": 0,
      "byteOffset": 12528,
      "byteLength": 1680,
      "target": 34962
    },
    {
      "buffer": 0,
      "byteOffset": 14208,
      "byteLength": 336,
      "target": 34963
    },
    {
      "buffer": 0,
      "byteOffset": 14544,
      "byteLength": 288,
      "target": 34962
    },
    {
      "buffer": 0,
      "byteOffset": 14832,
      "byteLength": 72,
      "target": 34963
    },
    {
      "buffer": 0,
      "byteOffset": 14904,
      "byteLength": 288,
      "target": 34962
    },
    {
      "buffer": 0,
      "byteOffset": 15192,
      "byteLength": 72,
      "target": 34963
    },
    {
      "buffer": 0,
      "byteOffset": 15264,
      "byteLength": 288,
      "target": 34962
    },
    {
      "buffer": 0,
      "byteOffset": 15552,
      "byteLength": 72,
      "target": 34963
    },
    {
      "buffer": 0,
      "byteOffset": 15624,
      "byteLength": 288,
      "target": 34962
    },
    {
      "buffer": 0,
      "byteOffset": 15912,
      "byteLength": 72,
      "target": 34963
    },
    {
      "buffer": 0,
      "byteOffset": 15984,
      "byteLength": 288,
      "target": 34962
    },
    {
      "buffer": 0,
      "byteOffset": 16272,
      "byteLength": 72,
      "target": 34963
    },
    {
      "buffer": 0,
      "byteOffset": 16344,
      "byteLength": 288,
      "target": 34962
    },
    {
      "buffer": 0,
      "byteOffset": 16632,
      "byteLength": 72,
      "target": 34963
    },
    {
      "buffer": 0,
      "byteOffset": 16704,
      "byteLength": 288,
      "target": 34962
    },
    {
      "buffer": 0,
      "byteOffset": 16992,
      "byteLength": 72,
      "target": 34963
    },
    {
      "buffer": 0,
      "byteOffset": 17064,
      "byteLength": 288,
      "target": 34962
    },
    {
      "buffer": 0,
      "byteOffset": 17352,
      "byteLength": 72,
      "target": 34963
    },
    {
      "buffer": 0,
      "byteOffset": 17424,
      "byteLength": 288,
      "target": 34962
    },
    {
      "buffer": 0,
      "byteOffset": 17712,
      "byteLength": 72,
      "target": 34963
    },
    {
      "buffer": 0,
      "byteOffset": 17784,
      "byteLength": 288,
      "target": 34962
    },
    {
      "buffer": 0,
      "byteOffset": 18072,
      "byteLength": 72,
      "target": 34963
    },
    {
      "buffer": 0,
      "byteOffset": 18144,
      "byteLength": 288,
      "target": 34962
    },
    {
      "buffer": 0,
      "byteOffset": 18432,
      "byteLength": 72,
      "target": 34963
    },
    {
      "buffer": 0,
      "byteOffset": 18504,
      "byteLength": 288,
      "target": 34962
    },
    {
      "buffer": 0,
      "byteOffset": 18792,
      "byteLength": 72,
      "target": 34963
    },
    {
      "buffer": 0,
      "byteOffset": 18864,
      "byteLength": 288,
      "target": 34962
    },
    {
      "buffer": 0,
      "byteOffset": 19152,
      "byteLength": 72,
      "target": 34963
    },
    {
      "buffer": 0,
      "byteOffset": 19224,
      "byteLength": 288,
      "target": 34962
    },
    {
      "buffer": 0,
      "byteOffset": 19512,
      "byteLength": 72,
      "target": 34963
    },
    {
      "buffer": 0,
      "byteOffset": 19584,
      "byteLength": 288,
      "target": 34962
    },
    {
      "buffer": 0,
      "byteOffset": 19872,
      "byteLength": 72,
      "target": 34963
    },
    {
      "buffer": 0,
      "byteOffset": 19944,
      "byteLength": 288,
      "target": 34962
    },
    {
      "buffer": 0,
      "byteOffset": 20232,
      "byteLength": 72,
      "target": 34963
    },
    {
      "buffer": 0,
      "byteOffset": 20304,
      "byteLength": 288,
      "target": 34962
    },
    {
      "buffer": 0,
      "byteOffset": 20592,
      "byteLength": 72,
      "target": 34963
    },
    {
      "buffer": 0,
      "byteOffset": 20664,
      "byteLength": 288,
      "target": 34962
    },
    {
      "buffer": 0,
      "byteOffset": 20952,
      "byteLength": 72,
      "target": 34963
    },
    {
      "buffer": 0,
      "byteOffset": 21024,
      "byteLength": 288,
      "target": 34962
    },
    {
      "buffer": 0,
      "byteOffset": 21312,
      "byteLength": 72,
      "target": 34963
    },
    {
      "buffer": 0,
      "byteOffset": 21384,
      "byteLength": 288,
      "target": 34962
    },
    {
      "buffer": 0,
      "byteOffset": 21672,
      "byteLength": 72,
      "target": 34963
    },
    {
      "buffer": 0,
      "byteOffset": 21744,
      "byteLength": 288,
      "target": 34962
    },
    {
      "buffer": 0,
      "byteOffset": 22032,
      "byteLength": 72,
      "target": 34963
    },
    {
      "buffer": 0,
      "byteOffset": 22104,
      "byteLength": 288,
      "target": 34962
    },
    {
      "buffer": 0,
      "byteOffset": 22392,
      "byteLength": 72,
      "target": 34963
    },
    {
      "buffer": 0,
      "byteOffset": 22464,
      "byteLength": 288,
      "target": 34962
    },
    {
      "buffer": 0,
      "byteOffset": 22752,
      "byteLength": 72,
      "target": 34963
    },
    {
      "buffer": 0,
      "byteOffset": 22824,
      "byteLength": 288,
      "target": 34962
    },
    {
      "buffer": 0,
      "byteOffset": 23112,
      "byteLength": 72,
      "target": 34963
    }
  ],
  "accessors": [
    {
      "bufferView": 0,
      "componentType": 5126,
      "count": 24,
      "type": "VEC3",
      "max": [
        2.200000047683716,
        1.774999976158142,
        0.824999988079071
      ],
      "min": [
        -2.200000047683716,
        0.125,
        -0.824999988079071
      ]
    },
    {
      "bufferView": 1,
      "componentType": 5123,
      "count": 36,
      "type": "SCALAR"
    },
    {
      "bufferView": 2,
      "componentType": 5126,
      "count": 24,
      "type": "VEC3",
      "max": [
        2.0999999046325684,
        2.0399999618530273,
        0.7749999761581421
      ],
      "min": [
        -2.0999999046325684,
        1.7599999904632568,
        -0.7749999761581421
      ]
    },
    {
      "bufferView": 3,
      "componentType": 5123,
      "count": 36,
      "type": "SCALAR"
    },
    {
      "bufferView": 4,
      "componentType": 5126,
      "count": 24,
      "type": "VEC3",
      "max": [
        1.899999976158142,
        1.625,
        0.8500000238418579
      ],
      "min": [
        -1.899999976158142,
        1.0750000476837158,
        -0.8500000238418579
      ]
    },
    {
      "bufferView": 5,
      "componentType": 5123,
      "count": 36,
      "type": "SCALAR"
    },
    {
      "bufferView": 6,
      "componentType": 5126,
      "count": 24,
      "type": "VEC3",
      "max": [
        0.03999999910593033,
        1.625,
        0.8600000143051147
      ],
      "min": [
        -0.03999999910593033,
        1.0750000476837158,
        -0.8600000143051147
      ]
    },
    {
      "bufferView": 7,
      "componentType": 5123,
      "count": 36,
      "type": "SCALAR"
    },
    {
      "bufferView": 8,
      "componentType": 5126,
      "count": 24,
      "type": "VEC3",
      "max": [
        -1.159999966621399,
        1.625,
        0.8600000143051147
      ],
      "min": [
        -1.2400000095367432,
        1.0750000476837158,
        -0.8600000143051147
      ]
    },
    {
      "bufferView": 9,
      "componentType": 5123,
      "count": 36,
      "type": "SCALAR"
    },
    {
      "bufferView": 10,
      "componentType": 5126,
      "count": 24,
      "type": "VEC3",
      "max": [
        1.2400000095367432,
        1.625,
        0.8600000143051147
      ],
      "min": [
        1.159999966621399,
        1.0750000476837158,
        -0.8600000143051147
      ]
    },
    {
      "bufferView": 11,
      "componentType": 5123,
      "count": 36,
      "type": "SCALAR"
    },
    {
      "bufferView": 12,
      "componentType": 5126,
      "count": 24,
      "type": "VEC3",
      "max": [
        -1.9600000381469727,
        1.625,
        0.8600000143051147
      ],
      "min": [
        -2.0399999618530273,
        1.0750000476837158,
        -0.8600000143051147
      ]
    },
    {
      "bufferView": 13,
      "componentType": 5123,
      "count": 36,
      "type": "SCALAR"
    },
    {
      "bufferView": 14,
      "componentType": 5126,
      "count": 24,
      "type": "VEC3",
      "max": [
        2.0399999618530273,
        1.625,
        0.8600000143051147
      ],
      "min": [
        1.9600000381469727,
        1.0750000476837158,
        -0.8600000143051147
      ]
    },
    {
      "bufferView": 15,
      "componentType": 5123,
      "count": 36,
      "type": "SCALAR"
    },
    {
      "bufferView": 16,
      "componentType": 5126,
      "count": 24,
      "type": "VEC3",
      "max": [
        -0.5699999928474426,
        1.625,
        0.8600000143051147
      ],
      "min": [
        -0.6299999952316284,
        1.0750000476837158,
        -0.8600000143051147
      ]
    },
    {
      "bufferView": 17,
      "componentType": 5123,
      "count": 36,
      "type": "SCALAR"
    },
    {
      "bufferView": 18,
      "componentType": 5126,
      "count": 24,
      "type": "VEC3",
      "max": [
        0.6299999952316284,
        1.625,
        0.8600000143051147
      ],
      "min": [
        0.5699999928474426,
        1.0750000476837158,
        -0.8600000143051147
      ]
    },
    {
      "bufferView": 19,
      "componentType": 5123,
      "count": 36,
      "type": "SCALAR"
    },
    {
      "bufferView": 20,
      "componentType": 5126,
      "count": 24,
      "type": "VEC3",
      "max": [
        1.899999976158142,
        1.0800000429153442,
        0.8899999856948853
      ],
      "min": [
        -1.899999976158142,
        1.0199999809265137,
        0.8299999833106995
      ]
    },
    {
      "bufferView": 21,
      "componentType": 5123,
      "count": 36,
      "type": "SCALAR"
    },
    {
      "bufferView": 22,
      "componentType": 5126,
      "count": 24,
      "type": "VEC3",
      "max": [
        1.899999976158142,
        1.6799999475479126,
        0.8899999856948853
      ],
      "min": [
        -1.899999976158142,
        1.6200000047683716,
        0.8299999833106995
      ]
    },
    {
      "bufferView": 23,
      "componentType": 5123,
      "count": 36,
      "type": "SCALAR"
    },
    {
      "bufferView": 24,
      "componentType": 5126,
      "count": 24,
      "type": "VEC3",
      "max": [
        0.7749999761581421,
        1.625,
        0.8999999761581421
      ],
      "min": [
        -0.2750000059604645,
        0.2750000059604645,
        0.800000011920929
      ]
    },
    {
      "bufferView": 25,
      "componentType": 5123,
      "count": 36,
      "type": "SCALAR"
    },
    {
      "bufferView": 26,
      "componentType": 5126,
      "count": 24,
      "type": "VEC3",
      "max": [
        0.824999988079071,
        1.6749999523162842,
        0.949999988079071
      ],
      "min": [
        -0.32499998807907104,
        0.22499999403953552,
        0.8899999856948853
      ]
    },
    {
      "bufferView": 27,
      "componentType": 5123,
      "count": 36,
      "type": "SCALAR"
    },
    {
      "bufferView": 28,
      "componentType": 5126,
      "count": 24,
      "type": "VEC3",
      "max": [
        0.6000000238418579,
        1.524999976158142,
        0.925000011920929
      ],
      "min": [
        -0.10000000149011612,
        0.9750000238418579,
        0.875
      ]
    },
    {
      "bufferView": 29,
      "componentType": 5123,
      "count": 36,
      "type": "SCALAR"
    },
    {
      "bufferView": 30,
      "componentType": 5126,
      "count": 24,
      "type": "VEC3",
      "max": [
        0.5899999737739563,
        1.100000023841858,
        0.9800000190734863
      ],
      "min": [
        0.5099999904632568,
        0.8999999761581421,
        0.9200000166893005
      ]
    },
    {
      "bufferView": 31,
      "componentType": 5123,
      "count": 36,
      "type": "SCALAR"
    },
    {
      "bufferView": 32,
      "componentType": 5126,
      "count": 24,
      "type": "VEC3",
      "max": [
        2.375,
        0.675000011920929,
        0.75
      ],
      "min": [
        2.125,
        0.22499999403953552,
        -0.75
      ]
    },
    {
      "bufferView": 33,
      "componentType": 5123,
      "count": 36,
      "type": "SCALAR"
    },
    {
      "bufferView": 34,
      "componentType": 5126,
      "count": 24,
      "type": "VEC3",
      "max": [
        -2.125,
        0.675000011920929,
        0.75
      ],
      "min": [
        -2.375,
        0.22499999403953552,
        -0.75
      ]
    },
    {
      "bufferView": 35,
      "componentType": 5123,
      "count": 36,
      "type": "SCALAR"
    },
    {
      "bufferView": 36,
      "componentType": 5126,
      "count": 140,
      "type": "VEC3",
      "max": [
        1.7300000190734863,
        0.5729798078536987,
        0.8400000929832458
      ],
      "min": [
        1.1699999570846558,
        0.027020184323191643,
        0.5999999642372131
      ]
    },
    {
      "bufferView": 37,
      "componentType": 5123,
      "count": 168,
      "type": "SCALAR"
    },
    {
      "bufferView": 38,
      "componentType": 5126,
      "count": 140,
      "type": "VEC3",
      "max": [
        1.7300000190734863,
        0.5729798078536987,
        -0.5999999642372131
      ],
      "min": [
        1.1699999570846558,
        0.027020184323191643,
        -0.8400000929832458
      ]
    },
    {
      "bufferView": 39,
      "componentType": 5123,
      "count": 168,
      "type": "SCALAR"
    },
    {
      "bufferView": 40,
      "componentType": 5126,
      "count": 140,
      "type": "VEC3",
      "max": [
        -1.1699999570846558,
        0.5729798078536987,
        0.8400000929832458
      ],
      "min": [
        -1.7300000190734863,
        0.027020184323191643,
        0.5999999642372131
      ]
    },
    {
      "bufferView": 41,
      "componentType": 5123,
      "count": 168,
      "type": "SCALAR"
    },
    {
      "bufferView": 42,
      "componentType": 5126,
      "count": 140,
      "type": "VEC3",
      "max": [
        -1.1699999570846558,
        0.5729798078536987,
        -0.5999999642372131
      ],
      "min": [
        -1.7300000190734863,
        0.027020184323191643,
        -0.8400000929832458
      ]
    },
    {
      "bufferView": 43,
      "componentType": 5123,
      "count": 168,
      "type": "SCALAR"
    },
    {
      "bufferView": 44,
      "componentType": 5126,
      "count": 24,
      "type": "VEC3",
      "max": [
        1.7999999523162842,
        0.7250000238418579,
        0.8399999737739563
      ],
      "min": [
        1.100000023841858,
        0.375,
        0.7200000286102295
      ]
    },
    {
      "bufferView": 45,
      "componentType": 5123,
      "count": 36,
      "type": "SCALAR"
    },
    {
      "bufferView": 46,
      "componentType": 5126,
      "count": 24,
      "type": "VEC3",
      "max": [
        1.7999999523162842,
        0.7250000238418579,
        -0.7200000286102295
      ],
      "min": [
        1.100000023841858,
        0.375,
        -0.8399999737739563
      ]
    },
    {
      "bufferView": 47,
      "componentType": 5123,
      "count": 36,
      "type": "SCALAR"
    },
    {
      "bufferView": 48,
      "componentType": 5126,
      "count": 24,
      "type": "VEC3",
      "max": [
        -1.100000023841858,
        0.7250000238418579,
        0.8399999737739563
      ],
      "min": [
        -1.7999999523162842,
        0.375,
        0.7200000286102295
      ]
    },
    {
      "bufferView": 49,
      "componentType": 5123,
      "count": 36,
      "type": "SCALAR"
    },
    {
      "bufferView": 50,
      "componentType": 5126,
      "count": 24,
      "type": "VEC3",
      "max": [
        -1.100000023841858,
        0.7250000238418579,
        -0.7200000286102295
      ],
      "min": [
        -1.7999999523162842,
        0.375,
        -0.8399999737739563
      ]
    },
    {
      "bufferView": 51,
      "componentType": 5123,
      "count": 36,
      "type": "SCALAR"
    },
    {
      "bufferView": 52,
      "componentType": 5126,
      "count": 24,
      "type": "VEC3",
      "max": [
        0.14000000059604645,
        2.25,
        0.14000000059604645
      ],
      "min": [
        -0.14000000059604645,
        2.049999952316284,
        -0.14000000059604645
      ]
    },
    {
      "bufferView": 53,
      "componentType": 5123,
      "count": 36,
      "type": "SCALAR"
    },
    {
      "bufferView": 54,
      "componentType": 5126,
      "count": 24,
      "type": "VEC3",
      "max": [
        2.1600000858306885,
        1.7000000476837158,
        1.0
      ],
      "min": [
        2.0399999618530273,
        1.399999976158142,
        0.800000011920929
      ]
    },
    {
      "bufferView": 55,
      "componentType": 5123,
      "count": 36,
      "type": "SCALAR"
    },
    {
      "bufferView": 56,
      "componentType": 5126,
      "count": 24,
      "type": "VEC3",
      "max": [
        2.1600000858306885,
        1.7000000476837158,
        -0.800000011920929
      ],
      "min": [
        2.0399999618530273,
        1.399999976158142,
        -1.0
      ]
    },
    {
      "bufferView": 57,
      "componentType": 5123,
      "count": 36,
      "type": "SCALAR"
    },
    {
      "bufferView": 58,
      "componentType": 5126,
      "count": 24,
      "type": "VEC3",
      "max": [
        0.699999988079071,
        0.42500001192092896,
        1.125
      ],
      "min": [
        -0.20000000298023224,
        0.2750000059604645,
        0.7749999761581421
      ]
    },
    {
      "bufferView": 59,
      "componentType": 5123,
      "count": 36,
      "type": "SCALAR"
    },
    {
      "bufferView": 60,
      "componentType": 5126,
      "count": 24,
      "type": "VEC3",
      "max": [
        2.359999895095825,
        0.7900000214576721,
        0.6499999761581421
      ],
      "min": [
        2.240000009536743,
        0.6100000143051147,
        0.44999998807907104
      ]
    },
    {
      "bufferView": 61,
      "componentType": 5123,
      "count": 36,
      "type": "SCALAR"
    },
    {
      "bufferView": 62,
      "componentType": 5126,
      "count": 24,
      "type": "VEC3",
      "max": [
        2.359999895095825,
        0.7900000214576721,
        -0.44999998807907104
      ],
      "min": [
        2.240000009536743,
        0.6100000143051147,
        -0.6499999761581421
      ]
    },
    {
      "bufferView": 63,
      "componentType": 5123,
      "count": 36,
      "type": "SCALAR"
    },
    {
      "bufferView": 64,
      "componentType": 5126,
      "count": 24,
      "type": "VEC3",
      "max": [
        -2.25,
        0.7799999713897705,
        0.6299999952316284
      ],
      "min": [
        -2.3499999046325684,
        0.6200000047683716,
        0.4699999988079071
      ]
    },
    {
      "bufferView": 65,
      "componentType": 5123,
      "count": 36,
      "type": "SCALAR"
    },
    {
      "bufferView": 66,
      "componentType": 5126,
      "count": 24,
      "type": "VEC3",
      "max": [
        -2.25,
        0.7799999713897705,
        -0.4699999988079071
      ],
      "min": [
        -2.3499999046325684,
        0.6200000047683716,
        -0.6299999952316284
      ]
    },
    {
      "bufferView": 67,
      "componentType": 5123,
      "count": 36,
      "type": "SCALAR"
    },
    {
      "bufferView": 68,
      "componentType": 5126,
      "count": 24,
      "type": "VEC3",
      "max": [
        2.0,
        0.8100000023841858,
        0.8500000238418579
      ],
      "min": [
        -2.0,
        0.6899999976158142,
        0.7900000214576721
      ]
    },
    {
      "bufferView": 69,
      "componentType": 5123,
      "count": 36,
      "type": "SCALAR"
    },
    {
      "bufferView": 70,
      "componentType": 5126,
      "count": 24,
      "type": "VEC3",
      "max": [
        2.0,
        0.8100000023841858,
        -0.7900000214576721
      ],
      "min": [
        -2.0,
        0.6899999976158142,
        -0.8500000238418579
      ]
    },
    {
      "bufferView": 71,
      "componentType": 5123,
      "count": 36,
      "type": "SCALAR"
    },
    {
      "bufferView": 72,
      "componentType": 5126,
      "count": 24,
      "type": "VEC3",
      "max": [
        2.0,
        1.7899999618530273,
        0.8600000143051147
      ],
      "min": [
        -2.0,
        1.7100000381469727,
        0.8199999928474426
      ]
    },
    {
      "bufferView": 73,
      "componentType": 5123,
      "count": 36,
      "type": "SCALAR"
    },
    {
      "bufferView": 74,
      "componentType": 5126,
      "count": 24,
      "type": "VEC3",
      "max": [
        2.190000057220459,
        1.5800000429153442,
        0.44999998807907104
      ],
      "min": [
        2.109999895095825,
        1.5199999809265137,
        -0.44999998807907104
      ]
    },
    {
      "bufferView": 75,
      "componentType": 5123,
      "count": 36,
      "type": "SCALAR"
    },
    {
      "bufferView": 76,
      "componentType": 5126,
      "count": 24,
      "type": "VEC3",
      "max": [
        2.180000066757202,
        1.475000023841858,
        0.550000011920929
      ],
      "min": [
        2.119999885559082,
        1.4249999523162842,
        -0.15000000596046448
      ]
    },
    {
      "bufferView": 77,
      "componentType": 5123,
      "count": 36,
      "type": "SCALAR"
    },
    {
      "bufferView": 78,
      "componentType": 5126,
      "count": 24,
      "type": "VEC3",
      "max": [
        1.600000023841858,
        2.190000057220459,
        0.44999998807907104
      ],
      "min": [
        -1.600000023841858,
        2.109999895095825,
        -0.44999998807907104
      ]
    },
    {
      "bufferView": 79,
      "componentType": 5123,
      "count": 36,
      "type": "SCALAR"
    },
    {
      "bufferView": 80,
      "componentType": 5126,
      "count": 24,
      "type": "VEC3",
      "max": [
        -0.574999988079071,
        2.180000066757202,
        0.22499999403953552
      ],
      "min": [
        -1.024999976158142,
        2.059999942779541,
        -0.22499999403953552
      ]
    },
    {
      "bufferView": 81,
      "componentType": 5123,
      "count": 36,
      "type": "SCALAR"
    },
    {
      "bufferView": 82,
      "componentType": 5126,
      "count": 24,
      "type": "VEC3",
      "max": [
        2.390000104904175,
        1.024999976158142,
        0.44999998807907104
      ],
      "min": [
        2.309999942779541,
        0.675000011920929,
        -0.44999998807907104
      ]
    },
    {
      "bufferView": 83,
      "componentType": 5123,
      "count": 36,
      "type": "SCALAR"
    },
    {
      "bufferView": 84,
      "componentType": 5126,
      "count": 24,
      "type": "VEC3",
      "max": [
        2.4200000762939453,
        0.5799999833106995,
        0.20000000298023224
      ],
      "min": [
        2.380000114440918,
        0.41999998688697815,
        -0.20000000298023224
      ]
    },
    {
      "bufferView": 85,
      "componentType": 5123,
      "count": 36,
      "type": "SCALAR"
    },
    {
      "bufferView": 86,
      "componentType": 5126,
      "count": 24,
      "type": "VEC3",
      "max": [
        -1.25,
        0.42500001192092896,
        0.8700000047683716
      ],
      "min": [
        -1.649999976158142,
        0.07500000298023224,
        0.8299999833106995
      ]
    },
    {
      "bufferView": 87,
      "componentType": 5123,
      "count": 36,
      "type": "SCALAR"
    },
    {
      "bufferView": 88,
      "componentType": 5126,
      "count": 24,
      "type": "VEC3",
      "max": [
        -1.25,
        0.42500001192092896,
        -0.8299999833106995
      ],
      "min": [
        -1.649999976158142,
        0.07500000298023224,
        -0.8700000047683716
      ]
    },
    {
      "bufferView": 89,
      "componentType": 5123,
      "count": 36,
      "type": "SCALAR"
    },
    {
      "bufferView": 90,
      "componentType": 5126,
      "count": 24,
      "type": "VEC3",
      "max": [
        2.190000057220459,
        1.9600000381469727,
        0.44999998807907104
      ],
      "min": [
        2.109999895095825,
        1.7400000095367432,
        -0.44999998807907104
      ]
    },
    {
      "bufferView": 91,
      "componentType": 5123,
      "count": 36,
      "type": "SCALAR"
    }
  ],
  "meshes": [
    {
      "name": "bus_body",
      "primitives": [
        {
          "attributes": {
            "POSITION": 0
          },
          "indices": 1,
          "mode": 4
        }
      ]
    },
    {
      "name": "cabin_roof",
      "primitives": [
        {
          "attributes": {
            "POSITION": 2
          },
          "indices": 3,
          "mode": 4
        }
      ]
    },
    {
      "name": "windows",
      "primitives": [
        {
          "attributes": {
            "POSITION": 4
          },
          "indices": 5,
          "mode": 4
        }
      ]
    },
    {
      "name": "window_mullion",
      "primitives": [
        {
          "attributes": {
            "POSITION": 6
          },
          "indices": 7,
          "mode": 4
        }
      ]
    },
    {
      "name": "window_mullion_2",
      "primitives": [
        {
          "attributes": {
            "POSITION": 8
          },
          "indices": 9,
          "mode": 4
        }
      ]
    },
    {
      "name": "window_mullion_3",
      "primitives": [
        {
          "attributes": {
            "POSITION": 10
          },
          "indices": 11,
          "mode": 4
        }
      ]
    },
    {
      "name": "window_mullion_4",
      "primitives": [
        {
          "attributes": {
            "POSITION": 12
          },
          "indices": 13,
          "mode": 4
        }
      ]
    },
    {
      "name": "window_mullion_5",
      "primitives": [
        {
          "attributes": {
            "POSITION": 14
          },
          "indices": 15,
          "mode": 4
        }
      ]
    },
    {
      "name": "window_mullion_6",
      "primitives": [
        {
          "attributes": {
            "POSITION": 16
          },
          "indices": 17,
          "mode": 4
        }
      ]
    },
    {
      "name": "window_mullion_7",
      "primitives": [
        {
          "attributes": {
            "POSITION": 18
          },
          "indices": 19,
          "mode": 4
        }
      ]
    },
    {
      "name": "window_sill",
      "primitives": [
        {
          "attributes": {
            "POSITION": 20
          },
          "indices": 21,
          "mode": 4
        }
      ]
    },
    {
      "name": "window_header",
      "primitives": [
        {
          "attributes": {
            "POSITION": 22
          },
          "indices": 23,
          "mode": 4
        }
      ]
    },
    {
      "name": "door",
      "primitives": [
        {
          "attributes": {
            "POSITION": 24
          },
          "indices": 25,
          "mode": 4
        }
      ]
    },
    {
      "name": "door_frame",
      "primitives": [
        {
          "attributes": {
            "POSITION": 26
          },
          "indices": 27,
          "mode": 4
        }
      ]
    },
    {
      "name": "door_glass",
      "primitives": [
        {
          "attributes": {
            "POSITION": 28
          },
          "indices": 29,
          "mode": 4
        }
      ]
    },
    {
      "name": "door_handle",
      "primitives": [
        {
          "attributes": {
            "POSITION": 30
          },
          "indices": 31,
          "mode": 4
        }
      ]
    },
    {
      "name": "bumper_front",
      "primitives": [
        {
          "attributes": {
            "POSITION": 32
          },
          "indices": 33,
          "mode": 4
        }
      ]
    },
    {
      "name": "bumper_rear",
      "primitives": [
        {
          "attributes": {
            "POSITION": 34
          },
          "indices": 35,
          "mode": 4
        }
      ]
    },
    {
      "name": "wheel_fl",
      "primitives": [
        {
          "attributes": {
            "POSITION": 36
          },
          "indices": 37,
          "mode": 4
        }
      ]
    },
    {
      "name": "wheel_fr",
      "primitives": [
        {
          "attributes": {
            "POSITION": 38
          },
          "indices": 39,
          "mode": 4
        }
      ]
    },
    {
      "name": "wheel_rl",
      "primitives": [
        {
          "attributes": {
            "POSITION": 40
          },
          "indices": 41,
          "mode": 4
        }
      ]
    },
    {
      "name": "wheel_rr",
      "primitives": [
        {
          "attributes": {
            "POSITION": 42
          },
          "indices": 43,
          "mode": 4
        }
      ]
    },
    {
      "name": "wheel_arch_fl",
      "primitives": [
        {
          "attributes": {
            "POSITION": 44
          },
          "indices": 45,
          "mode": 4
        }
      ]
    },
    {
      "name": "wheel_arch_fr",
      "primitives": [
        {
          "attributes": {
            "POSITION": 46
          },
          "indices": 47,
          "mode": 4
        }
      ]
    },
    {
      "name": "wheel_arch_rl",
      "primitives": [
        {
          "attributes": {
            "POSITION": 48
          },
          "indices": 49,
          "mode": 4
        }
      ]
    },
    {
      "name": "wheel_arch_rr",
      "primitives": [
        {
          "attributes": {
            "POSITION": 50
          },
          "indices": 51,
          "mode": 4
        }
      ]
    },
    {
      "name": "beacon",
      "primitives": [
        {
          "attributes": {
            "POSITION": 52
          },
          "indices": 53,
          "mode": 4
        }
      ]
    },
    {
      "name": "mirror_l",
      "primitives": [
        {
          "attributes": {
            "POSITION": 54
          },
          "indices": 55,
          "mode": 4
        }
      ]
    },
    {
      "name": "mirror_r",
      "primitives": [
        {
          "attributes": {
            "POSITION": 56
          },
          "indices": 57,
          "mode": 4
        }
      ]
    },
    {
      "name": "step",
      "primitives": [
        {
          "attributes": {
            "POSITION": 58
          },
          "indices": 59,
          "mode": 4
        }
      ]
    },
    {
      "name": "headlight_l",
      "primitives": [
        {
          "attributes": {
            "POSITION": 60
          },
          "indices": 61,
          "mode": 4
        }
      ]
    },
    {
      "name": "headlight_r",
      "primitives": [
        {
          "attributes": {
            "POSITION": 62
          },
          "indices": 63,
          "mode": 4
        }
      ]
    },
    {
      "name": "taillight_l",
      "primitives": [
        {
          "attributes": {
            "POSITION": 64
          },
          "indices": 65,
          "mode": 4
        }
      ]
    },
    {
      "name": "taillight_r",
      "primitives": [
        {
          "attributes": {
            "POSITION": 66
          },
          "indices": 67,
          "mode": 4
        }
      ]
    },
    {
      "name": "stripe",
      "primitives": [
        {
          "attributes": {
            "POSITION": 68
          },
          "indices": 69,
          "mode": 4
        }
      ]
    },
    {
      "name": "stripe_b",
      "primitives": [
        {
          "attributes": {
            "POSITION": 70
          },
          "indices": 71,
          "mode": 4
        }
      ]
    },
    {
      "name": "stripe_upper",
      "primitives": [
        {
          "attributes": {
            "POSITION": 72
          },
          "indices": 73,
          "mode": 4
        }
      ]
    },
    {
      "name": "wiper",
      "primitives": [
        {
          "attributes": {
            "POSITION": 74
          },
          "indices": 75,
          "mode": 4
        }
      ]
    },
    {
      "name": "wiper_b",
      "primitives": [
        {
          "attributes": {
            "POSITION": 76
          },
          "indices": 77,
          "mode": 4
        }
      ]
    },
    {
      "name": "roof_rack",
      "primitives": [
        {
          "attributes": {
            "POSITION": 78
          },
          "indices": 79,
          "mode": 4
        }
      ]
    },
    {
      "name": "roof_vent",
      "primitives": [
        {
          "attributes": {
            "POSITION": 80
          },
          "indices": 81,
          "mode": 4
        }
      ]
    },
    {
      "name": "grill",
      "primitives": [
        {
          "attributes": {
            "POSITION": 82
          },
          "indices": 83,
          "mode": 4
        }
      ]
    },
    {
      "name": "number_plate",
      "primitives": [
        {
          "attributes": {
            "POSITION": 84
          },
          "indices": 85,
          "mode": 4
        }
      ]
    },
    {
      "name": "mudflap_l",
      "primitives": [
        {
          "attributes": {
            "POSITION": 86
          },
          "indices": 87,
          "mode": 4
        }
      ]
    },
    {
      "name": "mudflap_r",
      "primitives": [
        {
          "attributes": {
            "POSITION": 88
          },
          "indices": 89,
          "mode": 4
        }
      ]
    },
    {
      "name": "destination_board",
      "primitives": [
        {
          "attributes": {
            "POSITION": 90
          },
          "indices": 91,
          "mode": 4
        }
      ]
    }
  ],
  "nodes": [
    {
      "name": "bus_body",
      "mesh": 0
    },
    {
      "name": "cabin_roof",
      "mesh": 1
    },
    {
      "name": "windows",
      "mesh": 2
    },
    {
      "name": "window_mullion",
      "mesh": 3
    },
    {
      "name": "window_mullion_2",
      "mesh": 4
    },
    {
      "name": "window_mullion_3",
      "mesh": 5
    },
    {
      "name": "window_mullion_4",
      "mesh": 6
    },
    {
      "name": "window_mullion_5",
      "mesh": 7
    },
    {
      "name": "window_mullion_6",
      "mesh": 8
    },
    {
      "name": "window_mullion_7",
      "mesh": 9
    },
    {
      "name": "window_sill",
      "mesh": 10
    },
    {
      "name": "window_header",
      "mesh": 11
    },
    {
      "name": "door",
      "mesh": 12
    },
    {
      "name": "door_frame",
      "mesh": 13
    },
    {
      "name": "door_glass",
      "mesh": 14
    },
    {
      "name": "door_handle",
      "mesh": 15
    },
    {
      "name": "bumper_front",
      "mesh": 16
    },
    {
      "name": "bumper_rear",
      "mesh": 17
    },
    {
      "name": "wheel_fl",
      "mesh": 18
    },
    {
      "name": "wheel_fr",
      "mesh": 19
    },
    {
      "name": "wheel_rl",
      "mesh": 20
    },
    {
      "name": "wheel_rr",
      "mesh": 21
    },
    {
      "name": "wheel_arch_fl",
      "mesh": 22
    },
    {
      "name": "wheel_arch_fr",
      "mesh": 23
    },
    {
      "name": "wheel_arch_rl",
      "mesh": 24
    },
    {
      "name": "wheel_arch_rr",
      "mesh": 25
    },
    {
      "name": "beacon",
      "mesh": 26
    },
    {
      "name": "mirror_l",
      "mesh": 27
    },
    {
      "name": "mirror_r",
      "mesh": 28
    },
    {
      "name": "step",
      "mesh": 29
    },
    {
      "name": "headlight_l",
      "mesh": 30
    },
    {
      "name": "headlight_r",
      "mesh": 31
    },
    {
      "name": "taillight_l",
      "mesh": 32
    },
    {
      "name": "taillight_r",
      "mesh": 33
    },
    {
      "name": "stripe",
      "mesh": 34
    },
    {
      "name": "stripe_b",
      "mesh": 35
    },
    {
      "name": "stripe_upper",
      "mesh": 36
    },
    {
      "name": "wiper",
      "mesh": 37
    },
    {
      "name": "wiper_b",
      "mesh": 38
    },
    {
      "name": "roof_rack",
      "mesh": 39
    },
    {
      "name": "roof_vent",
      "mesh": 40
    },
    {
      "name": "grill",
      "mesh": 41
    },
    {
      "name": "number_plate",
      "mesh": 42
    },
    {
      "name": "mudflap_l",
      "mesh": 43
    },
    {
      "name": "mudflap_r",
      "mesh": 44
    },
    {
      "name": "destination_board",
      "mesh": 45
    }
  ],
  "scenes": [
    {
      "name": "mdl_passenger_bus_apron_authored_v01",
      "nodes": [
        0,
        1,
        2,
        3,
        4,
        5,
        6,
        7,
        8,
        9,
        10,
        11,
        12,
        13,
        14,
        15,
        16,
        17,
        18,
        19,
        20,
        21,
        22,
        23,
        24,
        25,
        26,
        27,
        28,
        29,
        30,
        31,
        32,
        33,
        34,
        35,
        36,
        37,
        38,
        39,
        40,
        41,
        42,
        43,
        44,
        45
      ]
    }
  ],
  "scene": 0
}