{
  "asset": {
    "version": "2.0",
    "generator": "Airside Batch C procedural kit"
  },
  "buffers": [
    {
      "uri": "mdl_kingscote_scrub_kit_v01.bin",
      "byteLength": 66900
    }
  ],
  "bufferViews": [
    {
      "buffer": 0,
      "byteOffset": 0,
      "byteLength": 3072,
      "target": 34962
    },
    {
      "buffer": 0,
      "byteOffset": 3072,
      "byteLength": 768,
      "target": 34963
    },
    {
      "buffer": 0,
      "byteOffset": 3840,
      "byteLength": 2352,
      "target": 34962
    },
    {
      "buffer": 0,
      "byteOffset": 6192,
      "byteLength": 588,
      "target": 34963
    },
    {
      "buffer": 0,
      "byteOffset": 6780,
      "byteLength": 2352,
      "target": 34962
    },
    {
      "buffer": 0,
      "byteOffset": 9132,
      "byteLength": 588,
      "target": 34963
    },
    {
      "buffer": 0,
      "byteOffset": 9720,
      "byteLength": 1728,
      "target": 34962
    },
    {
      "buffer": 0,
      "byteOffset": 11448,
      "byteLength": 432,
      "target": 34963
    },
    {
      "buffer": 0,
      "byteOffset": 11880,
      "byteLength": 3072,
      "target": 34962
    },
    {
      "buffer": 0,
      "byteOffset": 14952,
      "byteLength": 768,
      "target": 34963
    },
    {
      "buffer": 0,
      "byteOffset": 15720,
      "byteLength": 2352,
      "target": 34962
    },
    {
      "buffer": 0,
      "byteOffset": 18072,
      "byteLength": 588,
      "target": 34963
    },
    {
      "buffer": 0,
      "byteOffset": 18660,
      "byteLength": 2352,
      "target": 34962
    },
    {
      "buffer": 0,
      "byteOffset": 21012,
      "byteLength": 588,
      "target": 34963
    },
    {
      "buffer": 0,
      "byteOffset": 21600,
      "byteLength": 1728,
      "target": 34962
    },
    {
      "buffer": 0,
      "byteOffset": 23328,
      "byteLength": 432,
      "target": 34963
    },
    {
      "buffer": 0,
      "byteOffset": 23760,
      "byteLength": 3072,
      "target": 34962
    },
    {
      "buffer": 0,
      "byteOffset": 26832,
      "byteLength": 768,
      "target": 34963
    },
    {
      "buffer": 0,
      "byteOffset": 27600,
      "byteLength": 2352,
      "target": 34962
    },
    {
      "buffer": 0,
      "byteOffset": 29952,
      "byteLength": 588,
      "target": 34963
    },
    {
      "buffer": 0,
      "byteOffset": 30540,
      "byteLength": 2352,
      "target": 34962
    },
    {
      "buffer": 0,
      "byteOffset": 32892,
      "byteLength": 588,
      "target": 34963
    },
    {
      "buffer": 0,
      "byteOffset": 33480,
      "byteLength": 1728,
      "target": 34962
    },
    {
      "buffer": 0,
      "byteOffset": 35208,
      "byteLength": 432,
      "target": 34963
    },
    {
      "buffer": 0,
      "byteOffset": 35640,
      "byteLength": 3072,
      "target": 34962
    },
    {
      "buffer": 0,
      "byteOffset": 38712,
      "byteLength": 768,
      "target": 34963
    },
    {
      "buffer": 0,
      "byteOffset": 39480,
      "byteLength": 2352,
      "target": 34962
    },
    {
      "buffer": 0,
      "byteOffset": 41832,
      "byteLength": 588,
      "target": 34963
    },
    {
      "buffer": 0,
      "byteOffset": 42420,
      "byteLength": 2352,
      "target": 34962
    },
    {
      "buffer": 0,
      "byteOffset": 44772,
      "byteLength": 588,
      "target": 34963
    },
    {
      "buffer": 0,
      "byteOffset": 45360,
      "byteLength": 1728,
      "target": 34962
    },
    {
      "buffer": 0,
      "byteOffset": 47088,
      "byteLength": 432,
      "target": 34963
    },
    {
      "buffer": 0,
      "byteOffset": 47520,
      "byteLength": 3072,
      "target": 34962
    },
    {
      "buffer": 0,
      "byteOffset": 50592,
      "byteLength": 768,
      "target": 34963
    },
    {
      "buffer": 0,
      "byteOffset": 51360,
      "byteLength": 2352,
      "target": 34962
    },
    {
      "buffer": 0,
      "byteOffset": 53712,
      "byteLength": 588,
      "target": 34963
    },
    {
      "buffer": 0,
      "byteOffset": 54300,
      "byteLength": 2352,
      "target": 34962
    },
    {
      "buffer": 0,
      "byteOffset": 56652,
      "byteLength": 588,
      "target": 34963
    },
    {
      "buffer": 0,
      "byteOffset": 57240,
      "byteLength": 1728,
      "target": 34962
    },
    {
      "buffer": 0,
      "byteOffset": 58968,
      "byteLength": 432,
      "target": 34963
    },
    {
      "buffer": 0,
      "byteOffset": 59400,
      "byteLength": 3072,
      "target": 34962
    },
    {
      "buffer": 0,
      "byteOffset": 62472,
      "byteLength": 768,
      "target": 34963
    },
    {
      "buffer": 0,
      "byteOffset": 63240,
      "byteLength": 2352,
      "target": 34962
    },
    {
      "buffer": 0,
      "byteOffset": 65592,
      "byteLength": 588,
      "target": 34963
    },
    {
      "buffer": 0,
      "byteOffset": 66180,
      "byteLength": 288,
      "target": 34962
    },
    {
      "buffer": 0,
      "byteOffset": 66468,
      "byteLength": 72,
      "target": 34963
    },
    {
      "buffer": 0,
      "byteOffset": 66540,
      "byteLength": 288,
      "target": 34962
    },
    {
      "buffer": 0,
      "byteOffset": 66828,
      "byteLength": 72,
      "target": 34963
    }
  ],
  "accessors": [
    {
      "bufferView": 0,
      "componentType": 5126,
      "count": 256,
      "type": "VEC3",
      "max": [
        0.6499999761581421,
        0.7799999713897705,
        0.550000011920929
      ],
      "min": [
        -0.6499999761581421,
        -0.019999999552965164,
        -0.550000011920929
      ]
    },
    {
      "bufferView": 1,
      "componentType": 5123,
      "count": 384,
      "type": "SCALAR"
    },
    {
      "bufferView": 2,
      "componentType": 5126,
      "count": 196,
      "type": "VEC3",
      "max": [
        0.8387175798416138,
        0.6200000047683716,
        0.1301937699317932
      ],
      "min": [
        0.004729136358946562,
        0.019999999552965164,
        -0.6301937699317932
      ]
    },
    {
      "bufferView": 3,
      "componentType": 5123,
      "count": 294,
      "type": "SCALAR"
    },
    {
      "bufferView": 4,
      "componentType": 5126,
      "count": 196,
      "type": "VEC3",
      "max": [
        0.03997116535902023,
        0.5799999833106995,
        0.5326695442199707
      ],
      "min": [
        -0.7013518810272217,
        0.019999999552965164,
        -0.13266955316066742
      ]
    },
    {
      "bufferView": 5,
      "componentType": 5123,
      "count": 294,
      "type": "SCALAR"
    },
    {
      "bufferView": 6,
      "componentType": 5126,
      "count": 144,
      "type": "VEC3",
      "max": [
        0.3799999952316284,
        0.7699999809265137,
        0.36650633811950684
      ],
      "min": [
        -0.18000000715255737,
        0.33000001311302185,
        -0.06650634855031967
      ]
    },
    {
      "bufferView": 7,
      "componentType": 5123,
      "count": 216,
      "type": "SCALAR"
    },
    {
      "bufferView": 8,
      "componentType": 5126,
      "count": 256,
      "type": "VEC3",
      "max": [
        0.7524999976158142,
        0.6629999876022339,
        0.4675000011920929
      ],
      "min": [
        -0.35249999165534973,
        -0.017000000923871994,
        -0.4675000011920929
      ]
    },
    {
      "bufferView": 9,
      "componentType": 5123,
      "count": 384,
      "type": "SCALAR"
    },
    {
      "bufferView": 10,
      "componentType": 5126,
      "count": 196,
      "type": "VEC3",
      "max": [
        0.9129099249839783,
        0.5270000100135803,
        0.11066471040248871
      ],
      "min": [
        0.20401977002620697,
        0.017000000923871994,
        -0.5356647372245789
      ]
    },
    {
      "bufferView": 11,
      "componentType": 5123,
      "count": 294,
      "type": "SCALAR"
    },
    {
      "bufferView": 12,
      "componentType": 5126,
      "count": 196,
      "type": "VEC3",
      "max": [
        0.23397548496723175,
        0.49300000071525574,
        0.45276913046836853
      ],
      "min": [
        -0.3961490988731384,
        0.017000000923871994,
        -0.11276911944150925
      ]
    },
    {
      "bufferView": 13,
      "componentType": 5123,
      "count": 294,
      "type": "SCALAR"
    },
    {
      "bufferView": 14,
      "componentType": 5126,
      "count": 144,
      "type": "VEC3",
      "max": [
        0.5230000019073486,
        0.6545000076293945,
        0.3115304112434387
      ],
      "min": [
        0.04699999839067459,
        0.28049999475479126,
        -0.05653039738535881
      ]
    },
    {
      "bufferView": 15,
      "componentType": 5123,
      "count": 216,
      "type": "SCALAR"
    },
    {
      "bufferView": 16,
      "componentType": 5126,
      "count": 256,
      "type": "VEC3",
      "max": [
        0.5649999976158142,
        0.8579999804496765,
        0.6050000190734863
      ],
      "min": [
        -0.8650000095367432,
        -0.02199999988079071,
        -0.6050000190734863
      ]
    },
    {
      "bufferView": 17,
      "componentType": 5123,
      "count": 384,
      "type": "SCALAR"
    },
    {
      "bufferView": 18,
      "componentType": 5126,
      "count": 196,
      "type": "VEC3",
      "max": [
        0.7725893259048462,
        0.6819999814033508,
        0.143213152885437
      ],
      "min": [
        -0.14479795098304749,
        0.02199999988079071,
        -0.693213164806366
      ]
    },
    {
      "bufferView": 19,
      "componentType": 5123,
      "count": 294,
      "type": "SCALAR"
    },
    {
      "bufferView": 20,
      "componentType": 5126,
      "count": 196,
      "type": "VEC3",
      "max": [
        -0.10603171586990356,
        0.6380000114440918,
        0.5859364867210388
      ],
      "min": [
        -0.9214870929718018,
        0.02199999988079071,
        -0.1459365040063858
      ]
    },
    {
      "bufferView": 21,
      "componentType": 5123,
      "count": 294,
      "type": "SCALAR"
    },
    {
      "bufferView": 22,
      "componentType": 5126,
      "count": 144,
      "type": "VEC3",
      "max": [
        0.2680000066757202,
        0.847000002861023,
        0.40315699577331543
      ],
      "min": [
        -0.3479999899864197,
        0.3630000054836273,
        -0.07315698266029358
      ]
    },
    {
      "bufferView": 23,
      "componentType": 5123,
      "count": 216,
      "type": "SCALAR"
    },
    {
      "bufferView": 24,
      "componentType": 5126,
      "count": 256,
      "type": "VEC3",
      "max": [
        0.5874999761581421,
        0.5849999785423279,
        0.4124999940395355
      ],
      "min": [
        -0.38749998807907104,
        -0.014999999664723873,
        -0.4124999940395355
      ]
    },
    {
      "bufferView": 25,
      "componentType": 5123,
      "count": 384,
      "type": "SCALAR"
    },
    {
      "bufferView": 26,
      "componentType": 5126,
      "count": 196,
      "type": "VEC3",
      "max": [
        0.7290381789207458,
        0.4650000035762787,
        0.09764532744884491
      ],
      "min": [
        0.10354685038328171,
        0.014999999664723873,
        -0.4726453423500061
      ]
    },
    {
      "bufferView": 27,
      "componentType": 5123,
      "count": 294,
      "type": "SCALAR"
    },
    {
      "bufferView": 28,
      "componentType": 5126,
      "count": 196,
      "type": "VEC3",
      "max": [
        0.12997837364673615,
        0.4350000023841858,
        0.399502158164978
      ],
      "min": [
        -0.42601391673088074,
        0.014999999664723873,
        -0.09950216114521027
      ]
    },
    {
      "bufferView": 29,
      "componentType": 5123,
      "count": 294,
      "type": "SCALAR"
    },
    {
      "bufferView": 30,
      "componentType": 5126,
      "count": 144,
      "type": "VEC3",
      "max": [
        0.38499999046325684,
        0.5774999856948853,
        0.2748797535896301
      ],
      "min": [
        -0.03500000014901161,
        0.2475000023841858,
        -0.0498797632753849
      ]
    },
    {
      "bufferView": 31,
      "componentType": 5123,
      "count": 216,
      "type": "SCALAR"
    },
    {
      "bufferView": 32,
      "componentType": 5126,
      "count": 256,
      "type": "VEC3",
      "max": [
        0.3675000071525574,
        0.7409999966621399,
        0.5224999785423279
      ],
      "min": [
        -0.8675000071525574,
        -0.01899999938905239,
        -0.5224999785423279
      ]
    },
    {
      "bufferView": 33,
      "componentType": 5123,
      "count": 384,
      "type": "SCALAR"
    },
    {
      "bufferView": 34,
      "componentType": 5126,
      "count": 196,
      "type": "VEC3",
      "max": [
        0.5467816591262817,
        0.5889999866485596,
        0.12368408590555191
      ],
      "min": [
        -0.24550731480121613,
        0.01899999938905239,
        -0.5986840724945068
      ]
    },
    {
      "bufferView": 35,
      "componentType": 5123,
      "count": 294,
      "type": "SCALAR"
    },
    {
      "bufferView": 36,
      "componentType": 5126,
      "count": 196,
      "type": "VEC3",
      "max": [
        -0.2120274007320404,
        0.5509999990463257,
        0.506036102771759
      ],
      "min": [
        -0.9162842631340027,
        0.01899999938905239,
        -0.12603607773780823
      ]
    },
    {
      "bufferView": 37,
      "componentType": 5123,
      "count": 294,
      "type": "SCALAR"
    },
    {
      "bufferView": 38,
      "componentType": 5126,
      "count": 144,
      "type": "VEC3",
      "max": [
        0.11100000143051147,
        0.7315000295639038,
        0.3481810390949249
      ],
      "min": [
        -0.42100000381469727,
        0.31349998712539673,
        -0.06318103522062302
      ]
    },
    {
      "bufferView": 39,
      "componentType": 5123,
      "count": 216,
      "type": "SCALAR"
    },
    {
      "bufferView": 40,
      "componentType": 5126,
      "count": 256,
      "type": "VEC3",
      "max": [
        0.3499999940395355,
        0.3799999952316284,
        0.2800000011920929
      ],
      "min": [
        -0.3499999940395355,
        -0.019999999552965164,
        -0.2800000011920929
      ]
    },
    {
      "bufferView": 41,
      "componentType": 5123,
      "count": 384,
      "type": "SCALAR"
    },
    {
      "bufferView": 42,
      "componentType": 5126,
      "count": 196,
      "type": "VEC3",
      "max": [
        0.27297982573509216,
        0.28999999165534973,
        0.20910657942295074
      ],
      "min": [
        -0.24594631791114807,
        -0.009999999776482582,
        -0.20910657942295074
      ]
    },
    {
      "bufferView": 43,
      "componentType": 5123,
      "count": 294,
      "type": "SCALAR"
    },
    {
      "bufferView": 44,
      "componentType": 5126,
      "count": 24,
      "type": "VEC3",
      "max": [
        0.17499999701976776,
        0.4000000059604645,
        0.05999999865889549
      ],
      "min": [
        -0.17499999701976776,
        0.0,
        -0.05999999865889549
      ]
    },
    {
      "bufferView": 45,
      "componentType": 5123,
      "count": 36,
      "type": "SCALAR"
    },
    {
      "bufferView": 46,
      "componentType": 5126,
      "count": 24,
      "type": "VEC3",
      "max": [
        0.14000000059604645,
        0.35499998927116394,
        0.05000000074505806
      ],
      "min": [
        -0.14000000059604645,
        0.004999999888241291,
        -0.05000000074505806
      ]
    },
    {
      "bufferView": 47,
      "componentType": 5123,
      "count": 36,
      "type": "SCALAR"
    }
  ],
  "meshes": [
    {
      "name": "scrub_a_core",
      "primitives": [
        {
          "attributes": {
            "POSITION": 0
          },
          "indices": 1,
          "mode": 4
        }
      ]
    },
    {
      "name": "scrub_a_side",
      "primitives": [
        {
          "attributes": {
            "POSITION": 2
          },
          "indices": 3,
          "mode": 4
        }
      ]
    },
    {
      "name": "scrub_a_side_b",
      "primitives": [
        {
          "attributes": {
            "POSITION": 4
          },
          "indices": 5,
          "mode": 4
        }
      ]
    },
    {
      "name": "scrub_a_tuft",
      "primitives": [
        {
          "attributes": {
            "POSITION": 6
          },
          "indices": 7,
          "mode": 4
        }
      ]
    },
    {
      "name": "scrub_b_core",
      "primitives": [
        {
          "attributes": {
            "POSITION": 8
          },
          "indices": 9,
          "mode": 4
        }
      ]
    },
    {
      "name": "scrub_b_side",
      "primitives": [
        {
          "attributes": {
            "POSITION": 10
          },
          "indices": 11,
          "mode": 4
        }
      ]
    },
    {
      "name": "scrub_b_side_b",
      "primitives": [
        {
          "attributes": {
            "POSITION": 12
          },
          "indices": 13,
          "mode": 4
        }
      ]
    },
    {
      "name": "scrub_b_tuft",
      "primitives": [
        {
          "attributes": {
            "POSITION": 14
          },
          "indices": 15,
          "mode": 4
        }
      ]
    },
    {
      "name": "scrub_c_core",
      "primitives": [
        {
          "attributes": {
            "POSITION": 16
          },
          "indices": 17,
          "mode": 4
        }
      ]
    },
    {
      "name": "scrub_c_side",
      "primitives": [
        {
          "attributes": {
            "POSITION": 18
          },
          "indices": 19,
          "mode": 4
        }
      ]
    },
    {
      "name": "scrub_c_side_b",
      "primitives": [
        {
          "attributes": {
            "POSITION": 20
          },
          "indices": 21,
          "mode": 4
        }
      ]
    },
    {
      "name": "scrub_c_tuft",
      "primitives": [
        {
          "attributes": {
            "POSITION": 22
          },
          "indices": 23,
          "mode": 4
        }
      ]
    },
    {
      "name": "scrub_d_core",
      "primitives": [
        {
          "attributes": {
            "POSITION": 24
          },
          "indices": 25,
          "mode": 4
        }
      ]
    },
    {
      "name": "scrub_d_side",
      "primitives": [
        {
          "attributes": {
            "POSITION": 26
          },
          "indices": 27,
          "mode": 4
        }
      ]
    },
    {
      "name": "scrub_d_side_b",
      "primitives": [
        {
          "attributes": {
            "POSITION": 28
          },
          "indices": 29,
          "mode": 4
        }
      ]
    },
    {
      "name": "scrub_d_tuft",
      "primitives": [
        {
          "attributes": {
            "POSITION": 30
          },
          "indices": 31,
          "mode": 4
        }
      ]
    },
    {
      "name": "scrub_e_core",
      "primitives": [
        {
          "attributes": {
            "POSITION": 32
          },
          "indices": 33,
          "mode": 4
        }
      ]
    },
    {
      "name": "scrub_e_side",
      "primitives": [
        {
          "attributes": {
            "POSITION": 34
          },
          "indices": 35,
          "mode": 4
        }
      ]
    },
    {
      "name": "scrub_e_side_b",
      "primitives": [
        {
          "attributes": {
            "POSITION": 36
          },
          "indices": 37,
          "mode": 4
        }
      ]
    },
    {
      "name": "scrub_e_tuft",
      "primitives": [
        {
          "attributes": {
            "POSITION": 38
          },
          "indices": 39,
          "mode": 4
        }
      ]
    },
    {
      "name": "rock_a",
      "primitives": [
        {
          "attributes": {
            "POSITION": 40
          },
          "indices": 41,
          "mode": 4
        }
      ]
    },
    {
      "name": "rock_b",
      "primitives": [
        {
          "attributes": {
            "POSITION": 42
          },
          "indices": 43,
          "mode": 4
        }
      ]
    },
    {
      "name": "grass_tuft_a",
      "primitives": [
        {
          "attributes": {
            "POSITION": 44
          },
          "indices": 45,
          "mode": 4
        }
      ]
    },
    {
      "name": "grass_tuft_b",
      "primitives": [
        {
          "attributes": {
            "POSITION": 46
          },
          "indices": 47,
          "mode": 4
        }
      ]
    }
  ],
  "nodes": [
    {
      "name": "scrub_a_core",
      "mesh": 0
    },
    {
      "name": "scrub_a_side",
      "mesh": 1
    },
    {
      "name": "scrub_a_side_b",
      "mesh": 2
    },
    {
      "name": "scrub_a_tuft",
      "mesh": 3
    },
    {
      "name": "scrub_b_core",
      "mesh": 4
    },
    {
      "name": "scrub_b_side",
      "mesh": 5
    },
    {
      "name": "scrub_b_side_b",
      "mesh": 6
    },
    {
      "name": "scrub_b_tuft",
      "mesh": 7
    },
    {
      "name": "scrub_c_core",
      "mesh": 8
    },
    {
      "name": "scrub_c_side",
      "mesh": 9
    },
    {
      "name": "scrub_c_side_b",
      "mesh": 10
    },
    {
      "name": "scrub_c_tuft",
      "mesh": 11
    },
    {
      "name": "scrub_d_core",
      "mesh": 12
    },
    {
      "name": "scrub_d_side",
      "mesh": 13
    },
    {
      "name": "scrub_d_side_b",
      "mesh": 14
    },
    {
      "name": "scrub_d_tuft",
      "mesh": 15
    },
    {
      "name": "scrub_e_core",
      "mesh": 16
    },
    {
      "name": "scrub_e_side",
      "mesh": 17
    },
    {
      "name": "scrub_e_side_b",
      "mesh": 18
    },
    {
      "name": "scrub_e_tuft",
      "mesh": 19
    },
    {
      "name": "rock_a",
      "mesh": 20
    },
    {
      "name": "rock_b",
      "mesh": 21
    },
    {
      "name": "grass_tuft_a",
      "mesh": 22
    },
    {
      "name": "grass_tuft_b",
      "mesh": 23
    }
  ],
  "scenes": [
    {
      "name": "mdl_kingscote_scrub_kit_v01",
      "nodes": [
        0,
        1,
        2,
        3,
        4,
        5,
        6,
        7,
        8,
        9,
        10,
        11,
        12,
        13,
        14,
        15,
        16,
        17,
        18,
        19,
        20,
        21,
        22,
        23
      ]
    }
  ],
  "scene": 0
}