{
  "asset": {
    "version": "2.0",
    "generator": "Airside Batch C procedural kit"
  },
  "buffers": [
    {
      "uri": "mdl_kingscote_scrub_kit_v02.bin",
      "byteLength": 436500
    }
  ],
  "bufferViews": [
    {
      "buffer": 0,
      "byteOffset": 0,
      "byteLength": 15648,
      "target": 34962
    },
    {
      "buffer": 0,
      "byteOffset": 15648,
      "byteLength": 3912,
      "target": 34963
    },
    {
      "buffer": 0,
      "byteOffset": 19560,
      "byteLength": 13296,
      "target": 34962
    },
    {
      "buffer": 0,
      "byteOffset": 32856,
      "byteLength": 3324,
      "target": 34963
    },
    {
      "buffer": 0,
      "byteOffset": 36180,
      "byteLength": 13296,
      "target": 34962
    },
    {
      "buffer": 0,
      "byteOffset": 49476,
      "byteLength": 3324,
      "target": 34963
    },
    {
      "buffer": 0,
      "byteOffset": 52800,
      "byteLength": 10944,
      "target": 34962
    },
    {
      "buffer": 0,
      "byteOffset": 63744,
      "byteLength": 2736,
      "target": 34963
    },
    {
      "buffer": 0,
      "byteOffset": 66480,
      "byteLength": 15648,
      "target": 34962
    },
    {
      "buffer": 0,
      "byteOffset": 82128,
      "byteLength": 3912,
      "target": 34963
    },
    {
      "buffer": 0,
      "byteOffset": 86040,
      "byteLength": 13296,
      "target": 34962
    },
    {
      "buffer": 0,
      "byteOffset": 99336,
      "byteLength": 3324,
      "target": 34963
    },
    {
      "buffer": 0,
      "byteOffset": 102660,
      "byteLength": 13296,
      "target": 34962
    },
    {
      "buffer": 0,
      "byteOffset": 115956,
      "byteLength": 3324,
      "target": 34963
    },
    {
      "buffer": 0,
      "byteOffset": 119280,
      "byteLength": 10944,
      "target": 34962
    },
    {
      "buffer": 0,
      "byteOffset": 130224,
      "byteLength": 2736,
      "target": 34963
    },
    {
      "buffer": 0,
      "byteOffset": 132960,
      "byteLength": 15648,
      "target": 34962
    },
    {
      "buffer": 0,
      "byteOffset": 148608,
      "byteLength": 3912,
      "target": 34963
    },
    {
      "buffer": 0,
      "byteOffset": 152520,
      "byteLength": 13296,
      "target": 34962
    },
    {
      "buffer": 0,
      "byteOffset": 165816,
      "byteLength": 3324,
      "target": 34963
    },
    {
      "buffer": 0,
      "byteOffset": 169140,
      "byteLength": 13296,
      "target": 34962
    },
    {
      "buffer": 0,
      "byteOffset": 182436,
      "byteLength": 3324,
      "target": 34963
    },
    {
      "buffer": 0,
      "byteOffset": 185760,
      "byteLength": 10944,
      "target": 34962
    },
    {
      "buffer": 0,
      "byteOffset": 196704,
      "byteLength": 2736,
      "target": 34963
    },
    {
      "buffer": 0,
      "byteOffset": 199440,
      "byteLength": 15648,
      "target": 34962
    },
    {
      "buffer": 0,
      "byteOffset": 215088,
      "byteLength": 3912,
      "target": 34963
    },
    {
      "buffer": 0,
      "byteOffset": 219000,
      "byteLength": 13296,
      "target": 34962
    },
    {
      "buffer": 0,
      "byteOffset": 232296,
      "byteLength": 3324,
      "target": 34963
    },
    {
      "buffer": 0,
      "byteOffset": 235620,
      "byteLength": 13296,
      "target": 34962
    },
    {
      "buffer": 0,
      "byteOffset": 248916,
      "byteLength": 3324,
      "target": 34963
    },
    {
      "buffer": 0,
      "byteOffset": 252240,
      "byteLength": 10944,
      "target": 34962
    },
    {
      "buffer": 0,
      "byteOffset": 263184,
      "byteLength": 2736,
      "target": 34963
    },
    {
      "buffer": 0,
      "byteOffset": 265920,
      "byteLength": 15648,
      "target": 34962
    },
    {
      "buffer": 0,
      "byteOffset": 281568,
      "byteLength": 3912,
      "target": 34963
    },
    {
      "buffer": 0,
      "byteOffset": 285480,
      "byteLength": 13296,
      "target": 34962
    },
    {
      "buffer": 0,
      "byteOffset": 298776,
      "byteLength": 3324,
      "target": 34963
    },
    {
      "buffer": 0,
      "byteOffset": 302100,
      "byteLength": 13296,
      "target": 34962
    },
    {
      "buffer": 0,
      "byteOffset": 315396,
      "byteLength": 3324,
      "target": 34963
    },
    {
      "buffer": 0,
      "byteOffset": 318720,
      "byteLength": 10944,
      "target": 34962
    },
    {
      "buffer": 0,
      "byteOffset": 329664,
      "byteLength": 2736,
      "target": 34963
    },
    {
      "buffer": 0,
      "byteOffset": 332400,
      "byteLength": 7152,
      "target": 34962
    },
    {
      "buffer": 0,
      "byteOffset": 339552,
      "byteLength": 1788,
      "target": 34963
    },
    {
      "buffer": 0,
      "byteOffset": 341340,
      "byteLength": 4080,
      "target": 34962
    },
    {
      "buffer": 0,
      "byteOffset": 345420,
      "byteLength": 1020,
      "target": 34963
    },
    {
      "buffer": 0,
      "byteOffset": 346440,
      "byteLength": 2592,
      "target": 34962
    },
    {
      "buffer": 0,
      "byteOffset": 349032,
      "byteLength": 648,
      "target": 34963
    },
    {
      "buffer": 0,
      "byteOffset": 349680,
      "byteLength": 864,
      "target": 34962
    },
    {
      "buffer": 0,
      "byteOffset": 350544,
      "byteLength": 216,
      "target": 34963
    },
    {
      "buffer": 0,
      "byteOffset": 350760,
      "byteLength": 5184,
      "target": 34962
    },
    {
      "buffer": 0,
      "byteOffset": 355944,
      "byteLength": 1296,
      "target": 34963
    },
    {
      "buffer": 0,
      "byteOffset": 357240,
      "byteLength": 7152,
      "target": 34962
    },
    {
      "buffer": 0,
      "byteOffset": 364392,
      "byteLength": 1788,
      "target": 34963
    },
    {
      "buffer": 0,
      "byteOffset": 366180,
      "byteLength": 28128,
      "target": 34962
    },
    {
      "buffer": 0,
      "byteOffset": 394308,
      "byteLength": 7032,
      "target": 34963
    },
    {
      "buffer": 0,
      "byteOffset": 401340,
      "byteLength": 28128,
      "target": 34962
    },
    {
      "buffer": 0,
      "byteOffset": 429468,
      "byteLength": 7032,
      "target": 34963
    }
  ],
  "accessors": [
    {
      "bufferView": 0,
      "componentType": 5126,
      "count": 1304,
      "type": "VEC3",
      "max": [
        0.640125036239624,
        0.7799999713897705,
        0.5334154963493347
      ],
      "min": [
        -0.6015207767486572,
        -0.019999999552965164,
        -0.5334154963493347
      ]
    },
    {
      "bufferView": 1,
      "componentType": 5123,
      "count": 1956,
      "type": "SCALAR"
    },
    {
      "bufferView": 2,
      "componentType": 5126,
      "count": 1108,
      "type": "VEC3",
      "max": [
        0.8431634902954102,
        0.6200000047683716,
        0.13793852925300598
      ],
      "min": [
        -0.016437459737062454,
        0.019999999552965164,
        -0.6379384994506836
      ]
    },
    {
      "bufferView": 3,
      "componentType": 5123,
      "count": 1662,
      "type": "SCALAR"
    },
    {
      "bufferView": 4,
      "componentType": 5126,
      "count": 1108,
      "type": "VEC3",
      "max": [
        0.04392310231924057,
        0.5799999833106995,
        0.539446234703064
      ],
      "min": [
        -0.7201666235923767,
        0.019999999552965164,
        -0.1394462138414383
      ]
    },
    {
      "bufferView": 5,
      "componentType": 5123,
      "count": 1662,
      "type": "SCALAR"
    },
    {
      "bufferView": 6,
      "componentType": 5126,
      "count": 912,
      "type": "VEC3",
      "max": [
        0.3757461607456207,
        0.7699999809265137,
        0.3924615681171417
      ],
      "min": [
        -0.15911664068698883,
        0.33000001311302185,
        -0.09246157854795456
      ]
    },
    {
      "bufferView": 7,
      "componentType": 5123,
      "count": 1368,
      "type": "SCALAR"
    },
    {
      "bufferView": 8,
      "componentType": 5126,
      "count": 1304,
      "type": "VEC3",
      "max": [
        0.7441062927246094,
        0.6629999876022339,
        0.45340314507484436
      ],
      "min": [
        -0.3112926483154297,
        -0.017000000923871994,
        -0.45340314507484436
      ]
    },
    {
      "bufferView": 9,
      "componentType": 5123,
      "count": 1956,
      "type": "SCALAR"
    },
    {
      "bufferView": 10,
      "componentType": 5126,
      "count": 1108,
      "type": "VEC3",
      "max": [
        0.9166889786720276,
        0.5270000100135803,
        0.11724774539470673
      ],
      "min": [
        0.1860281527042389,
        0.017000000923871994,
        -0.5422477722167969
      ]
    },
    {
      "bufferView": 11,
      "componentType": 5123,
      "count": 1662,
      "type": "SCALAR"
    },
    {
      "bufferView": 12,
      "componentType": 5126,
      "count": 1108,
      "type": "VEC3",
      "max": [
        0.23733463883399963,
        0.49300000071525574,
        0.4585292637348175
      ],
      "min": [
        -0.4121416509151459,
        0.017000000923871994,
        -0.11852927505970001
      ]
    },
    {
      "bufferView": 13,
      "componentType": 5123,
      "count": 1662,
      "type": "SCALAR"
    },
    {
      "bufferView": 14,
      "componentType": 5126,
      "count": 912,
      "type": "VEC3",
      "max": [
        0.5193842649459839,
        0.6545000076293945,
        0.33359235525131226
      ],
      "min": [
        0.06475085765123367,
        0.28049999475479126,
        -0.07859233766794205
      ]
    },
    {
      "bufferView": 15,
      "componentType": 5123,
      "count": 1368,
      "type": "SCALAR"
    },
    {
      "bufferView": 16,
      "componentType": 5126,
      "count": 1304,
      "type": "VEC3",
      "max": [
        0.5541375279426575,
        0.8579999804496765,
        0.5867570042610168
      ],
      "min": [
        -0.8116728663444519,
        -0.02199999988079071,
        -0.5867570042610168
      ]
    },
    {
      "bufferView": 17,
      "componentType": 5123,
      "count": 1956,
      "type": "SCALAR"
    },
    {
      "bufferView": 18,
      "componentType": 5126,
      "count": 1108,
      "type": "VEC3",
      "max": [
        0.7774798274040222,
        0.6819999814033508,
        0.15173237025737762
      ],
      "min": [
        -0.16808120906352997,
        0.02199999988079071,
        -0.7017323970794678
      ]
    },
    {
      "bufferView": 19,
      "componentType": 5123,
      "count": 1662,
      "type": "SCALAR"
    },
    {
      "bufferView": 20,
      "componentType": 5126,
      "count": 1108,
      "type": "VEC3",
      "max": [
        -0.1016845852136612,
        0.6380000114440918,
        0.5933908224105835
      ],
      "min": [
        -0.9421833157539368,
        0.02199999988079071,
        -0.1533908247947693
      ]
    },
    {
      "bufferView": 21,
      "componentType": 5123,
      "count": 1662,
      "type": "SCALAR"
    },
    {
      "bufferView": 22,
      "componentType": 5126,
      "count": 912,
      "type": "VEC3",
      "max": [
        0.26332077383995056,
        0.847000002861023,
        0.4317077398300171
      ],
      "min": [
        -0.32502830028533936,
        0.3630000054836273,
        -0.10170773416757584
      ]
    },
    {
      "bufferView": 23,
      "componentType": 5123,
      "count": 1368,
      "type": "SCALAR"
    },
    {
      "bufferView": 24,
      "componentType": 5126,
      "count": 1304,
      "type": "VEC3",
      "max": [
        0.5800938010215759,
        0.5849999785423279,
        0.40006160736083984
      ],
      "min": [
        -0.3511405885219574,
        -0.014999999664723873,
        -0.40006160736083984
      ]
    },
    {
      "bufferView": 25,
      "componentType": 5123,
      "count": 1956,
      "type": "SCALAR"
    },
    {
      "bufferView": 26,
      "componentType": 5126,
      "count": 1108,
      "type": "VEC3",
      "max": [
        0.7323726415634155,
        0.4650000035762787,
        0.10345388948917389
      ],
      "min": [
        0.0876719057559967,
        0.014999999664723873,
        -0.4784539043903351
      ]
    },
    {
      "bufferView": 27,
      "componentType": 5123,
      "count": 1662,
      "type": "SCALAR"
    },
    {
      "bufferView": 28,
      "componentType": 5126,
      "count": 1108,
      "type": "VEC3",
      "max": [
        0.1329423189163208,
        0.4350000023841858,
        0.4045846462249756
      ],
      "min": [
        -0.4401249587535858,
        0.014999999664723873,
        -0.10458465665578842
      ]
    },
    {
      "bufferView": 29,
      "componentType": 5123,
      "count": 1662,
      "type": "SCALAR"
    },
    {
      "bufferView": 30,
      "componentType": 5126,
      "count": 912,
      "type": "VEC3",
      "max": [
        0.38180962204933167,
        0.5774999856948853,
        0.2943461835384369
      ],
      "min": [
        -0.019337480887770653,
        0.2475000023841858,
        -0.06934618204832077
      ]
    },
    {
      "bufferView": 31,
      "componentType": 5123,
      "count": 1368,
      "type": "SCALAR"
    },
    {
      "bufferView": 32,
      "componentType": 5126,
      "count": 1304,
      "type": "VEC3",
      "max": [
        0.35811880230903625,
        0.7409999966621399,
        0.5067446827888489
      ],
      "min": [
        -0.8214447498321533,
        -0.01899999938905239,
        -0.5067446827888489
      ]
    },
    {
      "bufferView": 33,
      "componentType": 5123,
      "count": 1956,
      "type": "SCALAR"
    },
    {
      "bufferView": 34,
      "componentType": 5126,
      "count": 1108,
      "type": "VEC3",
      "max": [
        0.5510053038597107,
        0.5889999866485596,
        0.13104160130023956
      ],
      "min": [
        -0.2656155824661255,
        0.01899999938905239,
        -0.6060416102409363
      ]
    },
    {
      "bufferView": 35,
      "componentType": 5123,
      "count": 1662,
      "type": "SCALAR"
    },
    {
      "bufferView": 36,
      "componentType": 5126,
      "count": 1108,
      "type": "VEC3",
      "max": [
        -0.2082730531692505,
        0.5509999990463257,
        0.5124738812446594
      ],
      "min": [
        -0.9341583251953125,
        0.01899999938905239,
        -0.1324739009141922
      ]
    },
    {
      "bufferView": 37,
      "componentType": 5123,
      "count": 1662,
      "type": "SCALAR"
    },
    {
      "bufferView": 38,
      "componentType": 5126,
      "count": 912,
      "type": "VEC3",
      "max": [
        0.10695885866880417,
        0.7315000295639038,
        0.37283849716186523
      ],
      "min": [
        -0.4011608064174652,
        0.31349998712539673,
        -0.08783850073814392
      ]
    },
    {
      "bufferView": 39,
      "componentType": 5123,
      "count": 1368,
      "type": "SCALAR"
    },
    {
      "bufferView": 40,
      "componentType": 5126,
      "count": 596,
      "type": "VEC3",
      "max": [
        0.3499999940395355,
        0.3799999952316284,
        0.2800000011920929
      ],
      "min": [
        -0.3499999940395355,
        -0.019999999552965164,
        -0.2800000011920929
      ]
    },
    {
      "bufferView": 41,
      "componentType": 5123,
      "count": 894,
      "type": "SCALAR"
    },
    {
      "bufferView": 42,
      "componentType": 5126,
      "count": 340,
      "type": "VEC3",
      "max": [
        0.27297982573509216,
        0.28999999165534973,
        0.20910657942295074
      ],
      "min": [
        -0.24594631791114807,
        -0.009999999776482582,
        -0.20910657942295074
      ]
    },
    {
      "bufferView": 43,
      "componentType": 5123,
      "count": 510,
      "type": "SCALAR"
    },
    {
      "bufferView": 44,
      "componentType": 5126,
      "count": 216,
      "type": "VEC3",
      "max": [
        0.17499999701976776,
        0.4000000059604645,
        0.08660253882408142
      ],
      "min": [
        -0.17499999701976776,
        0.0,
        -0.08660253882408142
      ]
    },
    {
      "bufferView": 45,
      "componentType": 5123,
      "count": 324,
      "type": "SCALAR"
    },
    {
      "bufferView": 46,
      "componentType": 5126,
      "count": 72,
      "type": "VEC3",
      "max": [
        0.14000000059604645,
        0.35499998927116394,
        0.05000000074505806
      ],
      "min": [
        -0.14000000059604645,
        0.004999999888241291,
        -0.057500001043081284
      ]
    },
    {
      "bufferView": 47,
      "componentType": 5123,
      "count": 108,
      "type": "SCALAR"
    },
    {
      "bufferView": 48,
      "componentType": 5126,
      "count": 432,
      "type": "VEC3",
      "max": [
        0.1469999998807907,
        0.4620000123977661,
        0.10911919921636581
      ],
      "min": [
        -0.1469999998807907,
        0.0,
        -0.10911919921636581
      ]
    },
    {
      "bufferView": 49,
      "componentType": 5123,
      "count": 648,
      "type": "SCALAR"
    },
    {
      "bufferView": 50,
      "componentType": 5126,
      "count": 596,
      "type": "VEC3",
      "max": [
        0.35199999809265137,
        0.37400001287460327,
        0.28600001335144043
      ],
      "min": [
        -0.35199999809265137,
        -0.02199999988079071,
        -0.28600001335144043
      ]
    },
    {
      "bufferView": 51,
      "componentType": 5123,
      "count": 894,
      "type": "SCALAR"
    },
    {
      "bufferView": 52,
      "componentType": 5126,
      "count": 2344,
      "type": "VEC3",
      "max": [
        0.8863269686698914,
        0.5799999833106995,
        0.5334154963493347
      ],
      "min": [
        -0.8328748941421509,
        -0.03999999910593033,
        -0.5334154963493347
      ]
    },
    {
      "bufferView": 53,
      "componentType": 5123,
      "count": 3516,
      "type": "SCALAR"
    },
    {
      "bufferView": 54,
      "componentType": 5126,
      "count": 2344,
      "type": "VEC3",
      "max": [
        0.9033779501914978,
        0.49300000071525574,
        0.45340314507484436
      ],
      "min": [
        -0.5579437017440796,
        -0.03400000184774399,
        -0.45340314507484436
      ]
    },
    {
      "bufferView": 55,
      "componentType": 5123,
      "count": 3516,
      "type": "SCALAR"
    }
  ],
  "meshes": [
    {
      "name": "scrub_a_core",
      "primitives": [
        {
          "attributes": {
            "POSITION": 0
          },
          "indices": 1,
          "mode": 4
        }
      ]
    },
    {
      "name": "scrub_a_side",
      "primitives": [
        {
          "attributes": {
            "POSITION": 2
          },
          "indices": 3,
          "mode": 4
        }
      ]
    },
    {
      "name": "scrub_a_side_b",
      "primitives": [
        {
          "attributes": {
            "POSITION": 4
          },
          "indices": 5,
          "mode": 4
        }
      ]
    },
    {
      "name": "scrub_a_tuft",
      "primitives": [
        {
          "attributes": {
            "POSITION": 6
          },
          "indices": 7,
          "mode": 4
        }
      ]
    },
    {
      "name": "scrub_b_core",
      "primitives": [
        {
          "attributes": {
            "POSITION": 8
          },
          "indices": 9,
          "mode": 4
        }
      ]
    },
    {
      "name": "scrub_b_side",
      "primitives": [
        {
          "attributes": {
            "POSITION": 10
          },
          "indices": 11,
          "mode": 4
        }
      ]
    },
    {
      "name": "scrub_b_side_b",
      "primitives": [
        {
          "attributes": {
            "POSITION": 12
          },
          "indices": 13,
          "mode": 4
        }
      ]
    },
    {
      "name": "scrub_b_tuft",
      "primitives": [
        {
          "attributes": {
            "POSITION": 14
          },
          "indices": 15,
          "mode": 4
        }
      ]
    },
    {
      "name": "scrub_c_core",
      "primitives": [
        {
          "attributes": {
            "POSITION": 16
          },
          "indices": 17,
          "mode": 4
        }
      ]
    },
    {
      "name": "scrub_c_side",
      "primitives": [
        {
          "attributes": {
            "POSITION": 18
          },
          "indices": 19,
          "mode": 4
        }
      ]
    },
    {
      "name": "scrub_c_side_b",
      "primitives": [
        {
          "attributes": {
            "POSITION": 20
          },
          "indices": 21,
          "mode": 4
        }
      ]
    },
    {
      "name": "scrub_c_tuft",
      "primitives": [
        {
          "attributes": {
            "POSITION": 22
          },
          "indices": 23,
          "mode": 4
        }
      ]
    },
    {
      "name": "scrub_d_core",
      "primitives": [
        {
          "attributes": {
            "POSITION": 24
          },
          "indices": 25,
          "mode": 4
        }
      ]
    },
    {
      "name": "scrub_d_side",
      "primitives": [
        {
          "attributes": {
            "POSITION": 26
          },
          "indices": 27,
          "mode": 4
        }
      ]
    },
    {
      "name": "scrub_d_side_b",
      "primitives": [
        {
          "attributes": {
            "POSITION": 28
          },
          "indices": 29,
          "mode": 4
        }
      ]
    },
    {
      "name": "scrub_d_tuft",
      "primitives": [
        {
          "attributes": {
            "POSITION": 30
          },
          "indices": 31,
          "mode": 4
        }
      ]
    },
    {
      "name": "scrub_e_core",
      "primitives": [
        {
          "attributes": {
            "POSITION": 32
          },
          "indices": 33,
          "mode": 4
        }
      ]
    },
    {
      "name": "scrub_e_side",
      "primitives": [
        {
          "attributes": {
            "POSITION": 34
          },
          "indices": 35,
          "mode": 4
        }
      ]
    },
    {
      "name": "scrub_e_side_b",
      "primitives": [
        {
          "attributes": {
            "POSITION": 36
          },
          "indices": 37,
          "mode": 4
        }
      ]
    },
    {
      "name": "scrub_e_tuft",
      "primitives": [
        {
          "attributes": {
            "POSITION": 38
          },
          "indices": 39,
          "mode": 4
        }
      ]
    },
    {
      "name": "rock_a",
      "primitives": [
        {
          "attributes": {
            "POSITION": 40
          },
          "indices": 41,
          "mode": 4
        }
      ]
    },
    {
      "name": "rock_b",
      "primitives": [
        {
          "attributes": {
            "POSITION": 42
          },
          "indices": 43,
          "mode": 4
        }
      ]
    },
    {
      "name": "grass_tuft_a",
      "primitives": [
        {
          "attributes": {
            "POSITION": 44
          },
          "indices": 45,
          "mode": 4
        }
      ]
    },
    {
      "name": "grass_tuft_b",
      "primitives": [
        {
          "attributes": {
            "POSITION": 46
          },
          "indices": 47,
          "mode": 4
        }
      ]
    },
    {
      "name": "grass_tuft_c",
      "primitives": [
        {
          "attributes": {
            "POSITION": 48
          },
          "indices": 49,
          "mode": 4
        }
      ]
    },
    {
      "name": "rock_c",
      "primitives": [
        {
          "attributes": {
            "POSITION": 50
          },
          "indices": 51,
          "mode": 4
        }
      ]
    },
    {
      "name": "dune_mix_a",
      "primitives": [
        {
          "attributes": {
            "POSITION": 52
          },
          "indices": 53,
          "mode": 4
        }
      ]
    },
    {
      "name": "dune_mix_b",
      "primitives": [
        {
          "attributes": {
            "POSITION": 54
          },
          "indices": 55,
          "mode": 4
        }
      ]
    }
  ],
  "nodes": [
    {
      "name": "scrub_a_core",
      "mesh": 0
    },
    {
      "name": "scrub_a_side",
      "mesh": 1
    },
    {
      "name": "scrub_a_side_b",
      "mesh": 2
    },
    {
      "name": "scrub_a_tuft",
      "mesh": 3
    },
    {
      "name": "scrub_b_core",
      "mesh": 4
    },
    {
      "name": "scrub_b_side",
      "mesh": 5
    },
    {
      "name": "scrub_b_side_b",
      "mesh": 6
    },
    {
      "name": "scrub_b_tuft",
      "mesh": 7
    },
    {
      "name": "scrub_c_core",
      "mesh": 8
    },
    {
      "name": "scrub_c_side",
      "mesh": 9
    },
    {
      "name": "scrub_c_side_b",
      "mesh": 10
    },
    {
      "name": "scrub_c_tuft",
      "mesh": 11
    },
    {
      "name": "scrub_d_core",
      "mesh": 12
    },
    {
      "name": "scrub_d_side",
      "mesh": 13
    },
    {
      "name": "scrub_d_side_b",
      "mesh": 14
    },
    {
      "name": "scrub_d_tuft",
      "mesh": 15
    },
    {
      "name": "scrub_e_core",
      "mesh": 16
    },
    {
      "name": "scrub_e_side",
      "mesh": 17
    },
    {
      "name": "scrub_e_side_b",
      "mesh": 18
    },
    {
      "name": "scrub_e_tuft",
      "mesh": 19
    },
    {
      "name": "rock_a",
      "mesh": 20
    },
    {
      "name": "rock_b",
      "mesh": 21
    },
    {
      "name": "grass_tuft_a",
      "mesh": 22
    },
    {
      "name": "grass_tuft_b",
      "mesh": 23
    },
    {
      "name": "grass_tuft_c",
      "mesh": 24
    },
    {
      "name": "rock_c",
      "mesh": 25
    },
    {
      "name": "dune_mix_a",
      "mesh": 26
    },
    {
      "name": "dune_mix_b",
      "mesh": 27
    }
  ],
  "scenes": [
    {
      "name": "mdl_kingscote_scrub_kit_v02",
      "nodes": [
        0,
        1,
        2,
        3,
        4,
        5,
        6,
        7,
        8,
        9,
        10,
        11,
        12,
        13,
        14,
        15,
        16,
        17,
        18,
        19,
        20,
        21,
        22,
        23,
        24,
        25,
        26,
        27
      ]
    }
  ],
  "scene": 0
}