{
  "asset": {
    "version": "2.0",
    "generator": "Airside Batch C procedural kit"
  },
  "buffers": [
    {
      "uri": "mdl_regional_turboprop_01_v01.bin",
      "byteLength": 5040
    }
  ],
  "bufferViews": [
    {
      "buffer": 0,
      "byteOffset": 0,
      "byteLength": 288,
      "target": 34962
    },
    {
      "buffer": 0,
      "byteOffset": 288,
      "byteLength": 72,
      "target": 34963
    },
    {
      "buffer": 0,
      "byteOffset": 360,
      "byteLength": 288,
      "target": 34962
    },
    {
      "buffer": 0,
      "byteOffset": 648,
      "byteLength": 72,
      "target": 34963
    },
    {
      "buffer": 0,
      "byteOffset": 720,
      "byteLength": 288,
      "target": 34962
    },
    {
      "buffer": 0,
      "byteOffset": 1008,
      "byteLength": 72,
      "target": 34963
    },
    {
      "buffer": 0,
      "byteOffset": 1080,
      "byteLength": 288,
      "target": 34962
    },
    {
      "buffer": 0,
      "byteOffset": 1368,
      "byteLength": 72,
      "target": 34963
    },
    {
      "buffer": 0,
      "byteOffset": 1440,
      "byteLength": 288,
      "target": 34962
    },
    {
      "buffer": 0,
      "byteOffset": 1728,
      "byteLength": 72,
      "target": 34963
    },
    {
      "buffer": 0,
      "byteOffset": 1800,
      "byteLength": 288,
      "target": 34962
    },
    {
      "buffer": 0,
      "byteOffset": 2088,
      "byteLength": 72,
      "target": 34963
    },
    {
      "buffer": 0,
      "byteOffset": 2160,
      "byteLength": 288,
      "target": 34962
    },
    {
      "buffer": 0,
      "byteOffset": 2448,
      "byteLength": 72,
      "target": 34963
    },
    {
      "buffer": 0,
      "byteOffset": 2520,
      "byteLength": 288,
      "target": 34962
    },
    {
      "buffer": 0,
      "byteOffset": 2808,
      "byteLength": 72,
      "target": 34963
    },
    {
      "buffer": 0,
      "byteOffset": 2880,
      "byteLength": 288,
      "target": 34962
    },
    {
      "buffer": 0,
      "byteOffset": 3168,
      "byteLength": 72,
      "target": 34963
    },
    {
      "buffer": 0,
      "byteOffset": 3240,
      "byteLength": 288,
      "target": 34962
    },
    {
      "buffer": 0,
      "byteOffset": 3528,
      "byteLength": 72,
      "target": 34963
    },
    {
      "buffer": 0,
      "byteOffset": 3600,
      "byteLength": 288,
      "target": 34962
    },
    {
      "buffer": 0,
      "byteOffset": 3888,
      "byteLength": 72,
      "target": 34963
    },
    {
      "buffer": 0,
      "byteOffset": 3960,
      "byteLength": 288,
      "target": 34962
    },
    {
      "buffer": 0,
      "byteOffset": 4248,
      "byteLength": 72,
      "target": 34963
    },
    {
      "buffer": 0,
      "byteOffset": 4320,
      "byteLength": 288,
      "target": 34962
    },
    {
      "buffer": 0,
      "byteOffset": 4608,
      "byteLength": 72,
      "target": 34963
    },
    {
      "buffer": 0,
      "byteOffset": 4680,
      "byteLength": 288,
      "target": 34962
    },
    {
      "buffer": 0,
      "byteOffset": 4968,
      "byteLength": 72,
      "target": 34963
    }
  ],
  "accessors": [
    {
      "bufferView": 0,
      "componentType": 5126,
      "count": 24,
      "type": "VEC3",
      "max": [
        0.699999988079071,
        1.7999999523162842,
        4.5
      ],
      "min": [
        -0.699999988079071,
        0.4000000059604645,
        -4.5
      ]
    },
    {
      "bufferView": 1,
      "componentType": 5123,
      "count": 36,
      "type": "SCALAR"
    },
    {
      "bufferView": 2,
      "componentType": 5126,
      "count": 24,
      "type": "VEC3",
      "max": [
        0.550000011920929,
        1.649999976158142,
        5.300000190734863
      ],
      "min": [
        -0.550000011920929,
        0.550000011920929,
        4.099999904632568
      ]
    },
    {
      "bufferView": 3,
      "componentType": 5123,
      "count": 36,
      "type": "SCALAR"
    },
    {
      "bufferView": 4,
      "componentType": 5126,
      "count": 24,
      "type": "VEC3",
      "max": [
        -0.949999988079071,
        1.1399999856948853,
        1.2999999523162842
      ],
      "min": [
        -7.449999809265137,
        0.9599999785423279,
        -0.5
      ]
    },
    {
      "bufferView": 5,
      "componentType": 5123,
      "count": 36,
      "type": "SCALAR"
    },
    {
      "bufferView": 6,
      "componentType": 5126,
      "count": 24,
      "type": "VEC3",
      "max": [
        7.449999809265137,
        1.1399999856948853,
        1.2999999523162842
      ],
      "min": [
        0.949999988079071,
        0.9599999785423279,
        -0.5
      ]
    },
    {
      "bufferView": 7,
      "componentType": 5123,
      "count": 36,
      "type": "SCALAR"
    },
    {
      "bufferView": 8,
      "componentType": 5126,
      "count": 24,
      "type": "VEC3",
      "max": [
        -2.049999952316284,
        1.2000000476837158,
        2.0
      ],
      "min": [
        -2.75,
        0.5,
        0.0
      ]
    },
    {
      "bufferView": 9,
      "componentType": 5123,
      "count": 36,
      "type": "SCALAR"
    },
    {
      "bufferView": 10,
      "componentType": 5126,
      "count": 24,
      "type": "VEC3",
      "max": [
        2.75,
        1.2000000476837158,
        2.0
      ],
      "min": [
        2.049999952316284,
        0.5,
        0.0
      ]
    },
    {
      "bufferView": 11,
      "componentType": 5123,
      "count": 36,
      "type": "SCALAR"
    },
    {
      "bufferView": 12,
      "componentType": 5126,
      "count": 24,
      "type": "VEC3",
      "max": [
        -2.359999895095825,
        1.9500000476837158,
        2.2750000953674316
      ],
      "min": [
        -2.440000057220459,
        -0.25,
        2.0250000953674316
      ]
    },
    {
      "bufferView": 13,
      "componentType": 5123,
      "count": 36,
      "type": "SCALAR"
    },
    {
      "bufferView": 14,
      "componentType": 5126,
      "count": 24,
      "type": "VEC3",
      "max": [
        2.440000057220459,
        1.9500000476837158,
        2.2750000953674316
      ],
      "min": [
        2.359999895095825,
        -0.25,
        2.0250000953674316
      ]
    },
    {
      "bufferView": 15,
      "componentType": 5123,
      "count": 36,
      "type": "SCALAR"
    },
    {
      "bufferView": 16,
      "componentType": 5126,
      "count": 24,
      "type": "VEC3",
      "max": [
        0.07999999821186066,
        3.299999952316284,
        -3.0999999046325684
      ],
      "min": [
        -0.07999999821186066,
        1.2999999523162842,
        -4.5
      ]
    },
    {
      "bufferView": 17,
      "componentType": 5123,
      "count": 36,
      "type": "SCALAR"
    },
    {
      "bufferView": 18,
      "componentType": 5126,
      "count": 24,
      "type": "VEC3",
      "max": [
        1.600000023841858,
        1.7599999904632568,
        -3.450000047683716
      ],
      "min": [
        -1.600000023841858,
        1.6399999856948853,
        -4.349999904632568
      ]
    },
    {
      "bufferView": 19,
      "componentType": 5123,
      "count": 36,
      "type": "SCALAR"
    },
    {
      "bufferView": 20,
      "componentType": 5126,
      "count": 24,
      "type": "VEC3",
      "max": [
        0.07500000298023224,
        0.699999988079071,
        3.4000000953674316
      ],
      "min": [
        -0.07500000298023224,
        0.0,
        3.0
      ]
    },
    {
      "bufferView": 21,
      "componentType": 5123,
      "count": 36,
      "type": "SCALAR"
    },
    {
      "bufferView": 22,
      "componentType": 5126,
      "count": 24,
      "type": "VEC3",
      "max": [
        -1.024999976158142,
        0.6499999761581421,
        -0.15000000596046448
      ],
      "min": [
        -1.1749999523162842,
        -0.05000000074505806,
        -0.6499999761581421
      ]
    },
    {
      "bufferView": 23,
      "componentType": 5123,
      "count": 36,
      "type": "SCALAR"
    },
    {
      "bufferView": 24,
      "componentType": 5126,
      "count": 24,
      "type": "VEC3",
      "max": [
        1.1749999523162842,
        0.6499999761581421,
        -0.15000000596046448
      ],
      "min": [
        1.024999976158142,
        -0.05000000074505806,
        -0.6499999761581421
      ]
    },
    {
      "bufferView": 25,
      "componentType": 5123,
      "count": 36,
      "type": "SCALAR"
    },
    {
      "bufferView": 26,
      "componentType": 5126,
      "count": 24,
      "type": "VEC3",
      "max": [
        -0.6800000071525574,
        1.600000023841858,
        2.5999999046325684
      ],
      "min": [
        -0.7599999904632568,
        0.6000000238418579,
        1.399999976158142
      ]
    },
    {
      "bufferView": 27,
      "componentType": 5123,
      "count": 36,
      "type": "SCALAR"
    }
  ],
  "meshes": [
    {
      "name": "fuselage",
      "primitives": [
        {
          "attributes": {
            "POSITION": 0
          },
          "indices": 1,
          "mode": 4
        }
      ]
    },
    {
      "name": "nose",
      "primitives": [
        {
          "attributes": {
            "POSITION": 2
          },
          "indices": 3,
          "mode": 4
        }
      ]
    },
    {
      "name": "wing_left",
      "primitives": [
        {
          "attributes": {
            "POSITION": 4
          },
          "indices": 5,
          "mode": 4
        }
      ]
    },
    {
      "name": "wing_right",
      "primitives": [
        {
          "attributes": {
            "POSITION": 6
          },
          "indices": 7,
          "mode": 4
        }
      ]
    },
    {
      "name": "engine_left",
      "primitives": [
        {
          "attributes": {
            "POSITION": 8
          },
          "indices": 9,
          "mode": 4
        }
      ]
    },
    {
      "name": "engine_right",
      "primitives": [
        {
          "attributes": {
            "POSITION": 10
          },
          "indices": 11,
          "mode": 4
        }
      ]
    },
    {
      "name": "propeller_left",
      "primitives": [
        {
          "attributes": {
            "POSITION": 12
          },
          "indices": 13,
          "mode": 4
        }
      ]
    },
    {
      "name": "propeller_right",
      "primitives": [
        {
          "attributes": {
            "POSITION": 14
          },
          "indices": 15,
          "mode": 4
        }
      ]
    },
    {
      "name": "tail_fin",
      "primitives": [
        {
          "attributes": {
            "POSITION": 16
          },
          "indices": 17,
          "mode": 4
        }
      ]
    },
    {
      "name": "tailplane",
      "primitives": [
        {
          "attributes": {
            "POSITION": 18
          },
          "indices": 19,
          "mode": 4
        }
      ]
    },
    {
      "name": "gear_nose",
      "primitives": [
        {
          "attributes": {
            "POSITION": 20
          },
          "indices": 21,
          "mode": 4
        }
      ]
    },
    {
      "name": "gear_left",
      "primitives": [
        {
          "attributes": {
            "POSITION": 22
          },
          "indices": 23,
          "mode": 4
        }
      ]
    },
    {
      "name": "gear_right",
      "primitives": [
        {
          "attributes": {
            "POSITION": 24
          },
          "indices": 25,
          "mode": 4
        }
      ]
    },
    {
      "name": "door_fwd",
      "primitives": [
        {
          "attributes": {
            "POSITION": 26
          },
          "indices": 27,
          "mode": 4
        }
      ]
    }
  ],
  "nodes": [
    {
      "name": "fuselage",
      "mesh": 0
    },
    {
      "name": "nose",
      "mesh": 1
    },
    {
      "name": "wing_left",
      "mesh": 2
    },
    {
      "name": "wing_right",
      "mesh": 3
    },
    {
      "name": "engine_left",
      "mesh": 4
    },
    {
      "name": "engine_right",
      "mesh": 5
    },
    {
      "name": "propeller_left",
      "mesh": 6
    },
    {
      "name": "propeller_right",
      "mesh": 7
    },
    {
      "name": "tail_fin",
      "mesh": 8
    },
    {
      "name": "tailplane",
      "mesh": 9
    },
    {
      "name": "gear_nose",
      "mesh": 10
    },
    {
      "name": "gear_left",
      "mesh": 11
    },
    {
      "name": "gear_right",
      "mesh": 12
    },
    {
      "name": "door_fwd",
      "mesh": 13
    }
  ],
  "scenes": [
    {
      "name": "mdl_regional_turboprop_01_v01",
      "nodes": [
        0,
        1,
        2,
        3,
        4,
        5,
        6,
        7,
        8,
        9,
        10,
        11,
        12,
        13
      ]
    }
  ],
  "scene": 0
}