{
  "asset": {
    "version": "2.0",
    "generator": "Airside Batch C procedural kit"
  },
  "buffers": [
    {
      "uri": "mdl_bell_412_rescue_v01.bin",
      "byteLength": 65936
    }
  ],
  "bufferViews": [
    {
      "buffer": 0,
      "byteOffset": 0,
      "byteLength": 8736,
      "target": 34962
    },
    {
      "buffer": 0,
      "byteOffset": 8736,
      "byteLength": 2016,
      "target": 34963
    },
    {
      "buffer": 0,
      "byteOffset": 10752,
      "byteLength": 2400,
      "target": 34962
    },
    {
      "buffer": 0,
      "byteOffset": 13152,
      "byteLength": 480,
      "target": 34963
    },
    {
      "buffer": 0,
      "byteOffset": 13632,
      "byteLength": 2400,
      "target": 34962
    },
    {
      "buffer": 0,
      "byteOffset": 16032,
      "byteLength": 480,
      "target": 34963
    },
    {
      "buffer": 0,
      "byteOffset": 16512,
      "byteLength": 2400,
      "target": 34962
    },
    {
      "buffer": 0,
      "byteOffset": 18912,
      "byteLength": 480,
      "target": 34963
    },
    {
      "buffer": 0,
      "byteOffset": 19392,
      "byteLength": 2160,
      "target": 34962
    },
    {
      "buffer": 0,
      "byteOffset": 21552,
      "byteLength": 432,
      "target": 34963
    },
    {
      "buffer": 0,
      "byteOffset": 21984,
      "byteLength": 2160,
      "target": 34962
    },
    {
      "buffer": 0,
      "byteOffset": 24144,
      "byteLength": 432,
      "target": 34963
    },
    {
      "buffer": 0,
      "byteOffset": 24576,
      "byteLength": 3360,
      "target": 34962
    },
    {
      "buffer": 0,
      "byteOffset": 27936,
      "byteLength": 720,
      "target": 34963
    },
    {
      "buffer": 0,
      "byteOffset": 28656,
      "byteLength": 288,
      "target": 34962
    },
    {
      "buffer": 0,
      "byteOffset": 28944,
      "byteLength": 72,
      "target": 34963
    },
    {
      "buffer": 0,
      "byteOffset": 29016,
      "byteLength": 288,
      "target": 34962
    },
    {
      "buffer": 0,
      "byteOffset": 29304,
      "byteLength": 72,
      "target": 34963
    },
    {
      "buffer": 0,
      "byteOffset": 29376,
      "byteLength": 288,
      "target": 34962
    },
    {
      "buffer": 0,
      "byteOffset": 29664,
      "byteLength": 72,
      "target": 34963
    },
    {
      "buffer": 0,
      "byteOffset": 29736,
      "byteLength": 288,
      "target": 34962
    },
    {
      "buffer": 0,
      "byteOffset": 30024,
      "byteLength": 72,
      "target": 34963
    },
    {
      "buffer": 0,
      "byteOffset": 30096,
      "byteLength": 288,
      "target": 34962
    },
    {
      "buffer": 0,
      "byteOffset": 30384,
      "byteLength": 72,
      "target": 34963
    },
    {
      "buffer": 0,
      "byteOffset": 30456,
      "byteLength": 288,
      "target": 34962
    },
    {
      "buffer": 0,
      "byteOffset": 30744,
      "byteLength": 72,
      "target": 34963
    },
    {
      "buffer": 0,
      "byteOffset": 30816,
      "byteLength": 288,
      "target": 34962
    },
    {
      "buffer": 0,
      "byteOffset": 31104,
      "byteLength": 72,
      "target": 34963
    },
    {
      "buffer": 0,
      "byteOffset": 31176,
      "byteLength": 288,
      "target": 34962
    },
    {
      "buffer": 0,
      "byteOffset": 31464,
      "byteLength": 72,
      "target": 34963
    },
    {
      "buffer": 0,
      "byteOffset": 31536,
      "byteLength": 288,
      "target": 34962
    },
    {
      "buffer": 0,
      "byteOffset": 31824,
      "byteLength": 72,
      "target": 34963
    },
    {
      "buffer": 0,
      "byteOffset": 31896,
      "byteLength": 288,
      "target": 34962
    },
    {
      "buffer": 0,
      "byteOffset": 32184,
      "byteLength": 72,
      "target": 34963
    },
    {
      "buffer": 0,
      "byteOffset": 32256,
      "byteLength": 288,
      "target": 34962
    },
    {
      "buffer": 0,
      "byteOffset": 32544,
      "byteLength": 72,
      "target": 34963
    },
    {
      "buffer": 0,
      "byteOffset": 32616,
      "byteLength": 288,
      "target": 34962
    },
    {
      "buffer": 0,
      "byteOffset": 32904,
      "byteLength": 72,
      "target": 34963
    },
    {
      "buffer": 0,
      "byteOffset": 32976,
      "byteLength": 288,
      "target": 34962
    },
    {
      "buffer": 0,
      "byteOffset": 33264,
      "byteLength": 72,
      "target": 34963
    },
    {
      "buffer": 0,
      "byteOffset": 33336,
      "byteLength": 288,
      "target": 34962
    },
    {
      "buffer": 0,
      "byteOffset": 33624,
      "byteLength": 72,
      "target": 34963
    },
    {
      "buffer": 0,
      "byteOffset": 33696,
      "byteLength": 288,
      "target": 34962
    },
    {
      "buffer": 0,
      "byteOffset": 33984,
      "byteLength": 72,
      "target": 34963
    },
    {
      "buffer": 0,
      "byteOffset": 34056,
      "byteLength": 288,
      "target": 34962
    },
    {
      "buffer": 0,
      "byteOffset": 34344,
      "byteLength": 72,
      "target": 34963
    },
    {
      "buffer": 0,
      "byteOffset": 34416,
      "byteLength": 288,
      "target": 34962
    },
    {
      "buffer": 0,
      "byteOffset": 34704,
      "byteLength": 72,
      "target": 34963
    },
    {
      "buffer": 0,
      "byteOffset": 34776,
      "byteLength": 288,
      "target": 34962
    },
    {
      "buffer": 0,
      "byteOffset": 35064,
      "byteLength": 72,
      "target": 34963
    },
    {
      "buffer": 0,
      "byteOffset": 35136,
      "byteLength": 288,
      "target": 34962
    },
    {
      "buffer": 0,
      "byteOffset": 35424,
      "byteLength": 72,
      "target": 34963
    },
    {
      "buffer": 0,
      "byteOffset": 35496,
      "byteLength": 288,
      "target": 34962
    },
    {
      "buffer": 0,
      "byteOffset": 35784,
      "byteLength": 72,
      "target": 34963
    },
    {
      "buffer": 0,
      "byteOffset": 35856,
      "byteLength": 288,
      "target": 34962
    },
    {
      "buffer": 0,
      "byteOffset": 36144,
      "byteLength": 72,
      "target": 34963
    },
    {
      "buffer": 0,
      "byteOffset": 36216,
      "byteLength": 288,
      "target": 34962
    },
    {
      "buffer": 0,
      "byteOffset": 36504,
      "byteLength": 72,
      "target": 34963
    },
    {
      "buffer": 0,
      "byteOffset": 36576,
      "byteLength": 288,
      "target": 34962
    },
    {
      "buffer": 0,
      "byteOffset": 36864,
      "byteLength": 72,
      "target": 34963
    },
    {
      "buffer": 0,
      "byteOffset": 36936,
      "byteLength": 288,
      "target": 34962
    },
    {
      "buffer": 0,
      "byteOffset": 37224,
      "byteLength": 72,
      "target": 34963
    },
    {
      "buffer": 0,
      "byteOffset": 37296,
      "byteLength": 288,
      "target": 34962
    },
    {
      "buffer": 0,
      "byteOffset": 37584,
      "byteLength": 72,
      "target": 34963
    },
    {
      "buffer": 0,
      "byteOffset": 37656,
      "byteLength": 288,
      "target": 34962
    },
    {
      "buffer": 0,
      "byteOffset": 37944,
      "byteLength": 72,
      "target": 34963
    },
    {
      "buffer": 0,
      "byteOffset": 38016,
      "byteLength": 8688,
      "target": 34962
    },
    {
      "buffer": 0,
      "byteOffset": 46704,
      "byteLength": 1992,
      "target": 34963
    },
    {
      "buffer": 0,
      "byteOffset": 48696,
      "byteLength": 6792,
      "target": 34962
    },
    {
      "buffer": 0,
      "byteOffset": 55488,
      "byteLength": 1380,
      "target": 34963
    },
    {
      "buffer": 0,
      "byteOffset": 56868,
      "byteLength": 2976,
      "target": 34962
    },
    {
      "buffer": 0,
      "byteOffset": 59844,
      "byteLength": 690,
      "target": 34963
    },
    {
      "buffer": 0,
      "byteOffset": 60536,
      "byteLength": 480,
      "target": 34962
    },
    {
      "buffer": 0,
      "byteOffset": 61016,
      "byteLength": 96,
      "target": 34963
    },
    {
      "buffer": 0,
      "byteOffset": 61112,
      "byteLength": 288,
      "target": 34962
    },
    {
      "buffer": 0,
      "byteOffset": 61400,
      "byteLength": 72,
      "target": 34963
    },
    {
      "buffer": 0,
      "byteOffset": 61472,
      "byteLength": 1920,
      "target": 34962
    },
    {
      "buffer": 0,
      "byteOffset": 63392,
      "byteLength": 384,
      "target": 34963
    },
    {
      "buffer": 0,
      "byteOffset": 63776,
      "byteLength": 288,
      "target": 34962
    },
    {
      "buffer": 0,
      "byteOffset": 64064,
      "byteLength": 72,
      "target": 34963
    },
    {
      "buffer": 0,
      "byteOffset": 64136,
      "byteLength": 288,
      "target": 34962
    },
    {
      "buffer": 0,
      "byteOffset": 64424,
      "byteLength": 72,
      "target": 34963
    },
    {
      "buffer": 0,
      "byteOffset": 64496,
      "byteLength": 288,
      "target": 34962
    },
    {
      "buffer": 0,
      "byteOffset": 64784,
      "byteLength": 72,
      "target": 34963
    },
    {
      "buffer": 0,
      "byteOffset": 64856,
      "byteLength": 288,
      "target": 34962
    },
    {
      "buffer": 0,
      "byteOffset": 65144,
      "byteLength": 72,
      "target": 34963
    },
    {
      "buffer": 0,
      "byteOffset": 65216,
      "byteLength": 288,
      "target": 34962
    },
    {
      "buffer": 0,
      "byteOffset": 65504,
      "byteLength": 72,
      "target": 34963
    },
    {
      "buffer": 0,
      "byteOffset": 65576,
      "byteLength": 288,
      "target": 34962
    },
    {
      "buffer": 0,
      "byteOffset": 65864,
      "byteLength": 72,
      "target": 34963
    }
  ],
  "accessors": [
    {
      "bufferView": 0,
      "componentType": 5126,
      "count": 728,
      "type": "VEC3",
      "max": [
        1.350000023841858,
        3.380000114440918,
        3.7400004863739014
      ],
      "min": [
        -1.350000023841858,
        0.3799999952316284,
        -2.669999599456787
      ]
    },
    {
      "bufferView": 1,
      "componentType": 5123,
      "count": 1008,
      "type": "SCALAR"
    },
    {
      "bufferView": 2,
      "componentType": 5126,
      "count": 200,
      "type": "VEC3",
      "max": [
        0.949999988079071,
        1.2200000286102295,
        2.0199999809265137
      ],
      "min": [
        -0.949999988079071,
        0.3799999952316284,
        -2.119999885559082
      ]
    },
    {
      "bufferView": 3,
      "componentType": 5123,
      "count": 240,
      "type": "SCALAR"
    },
    {
      "bufferView": 4,
      "componentType": 5126,
      "count": 200,
      "type": "VEC3",
      "max": [
        -0.09999999403953552,
        3.9200000762939453,
        0.46999993920326233
      ],
      "min": [
        -1.059999942779541,
        2.9200000762939453,
        -1.6699997186660767
      ]
    },
    {
      "bufferView": 5,
      "componentType": 5123,
      "count": 240,
      "type": "SCALAR"
    },
    {
      "bufferView": 6,
      "componentType": 5126,
      "count": 200,
      "type": "VEC3",
      "max": [
        1.059999942779541,
        3.9200000762939453,
        0.46999993920326233
      ],
      "min": [
        0.09999999403953552,
        2.9200000762939453,
        -1.6699997186660767
      ]
    },
    {
      "bufferView": 7,
      "componentType": 5123,
      "count": 240,
      "type": "SCALAR"
    },
    {
      "bufferView": 8,
      "componentType": 5126,
      "count": 180,
      "type": "VEC3",
      "max": [
        -0.2799999713897705,
        3.715442419052124,
        -1.3300002813339233
      ],
      "min": [
        -0.8799999952316284,
        3.1245577335357666,
        -1.9800001382827759
      ]
    },
    {
      "bufferView": 9,
      "componentType": 5123,
      "count": 216,
      "type": "SCALAR"
    },
    {
      "bufferView": 10,
      "componentType": 5126,
      "count": 180,
      "type": "VEC3",
      "max": [
        0.8799999952316284,
        3.715442419052124,
        -1.3300002813339233
      ],
      "min": [
        0.2799999713897705,
        3.1245577335357666,
        -1.9800001382827759
      ]
    },
    {
      "bufferView": 11,
      "componentType": 5123,
      "count": 216,
      "type": "SCALAR"
    },
    {
      "bufferView": 12,
      "componentType": 5126,
      "count": 280,
      "type": "VEC3",
      "max": [
        0.7200000286102295,
        2.809999942779541,
        -1.8799999952316284
      ],
      "min": [
        -0.7200000286102295,
        1.350000023841858,
        -9.869999885559082
      ]
    },
    {
      "bufferView": 13,
      "componentType": 5123,
      "count": 360,
      "type": "SCALAR"
    },
    {
      "bufferView": 14,
      "componentType": 5126,
      "count": 24,
      "type": "VEC3",
      "max": [
        0.07999999821186066,
        4.562640190124512,
        -8.338430404663086
      ],
      "min": [
        -0.07999999821186066,
        2.137359857559204,
        -10.301569938659668
      ]
    },
    {
      "bufferView": 15,
      "componentType": 5123,
      "count": 36,
      "type": "SCALAR"
    },
    {
      "bufferView": 16,
      "componentType": 5126,
      "count": 24,
      "type": "VEC3",
      "max": [
        -0.024765869602560997,
        2.680000066757202,
        -7.647876262664795
      ],
      "min": [
        -2.0701186656951904,
        2.559999942779541,
        -8.505635261535645
      ]
    },
    {
      "bufferView": 17,
      "componentType": 5123,
      "count": 36,
      "type": "SCALAR"
    },
    {
      "bufferView": 18,
      "componentType": 5126,
      "count": 24,
      "type": "VEC3",
      "max": [
        2.0701186656951904,
        2.680000066757202,
        -7.647876262664795
      ],
      "min": [
        0.024765869602560997,
        2.559999942779541,
        -8.505635261535645
      ]
    },
    {
      "bufferView": 19,
      "componentType": 5123,
      "count": 36,
      "type": "SCALAR"
    },
    {
      "bufferView": 20,
      "componentType": 5126,
      "count": 24,
      "type": "VEC3",
      "max": [
        0.07999999821186066,
        4.545000076293945,
        -0.20000000298023224
      ],
      "min": [
        -0.07999999821186066,
        3.494999885559082,
        -0.36000001430511475
      ]
    },
    {
      "bufferView": 21,
      "componentType": 5123,
      "count": 36,
      "type": "SCALAR"
    },
    {
      "bufferView": 22,
      "componentType": 5126,
      "count": 24,
      "type": "VEC3",
      "max": [
        0.3100000023841858,
        4.610000133514404,
        0.029999999329447746
      ],
      "min": [
        -0.3100000023841858,
        4.429999828338623,
        -0.5899999737739563
      ]
    },
    {
      "bufferView": 23,
      "componentType": 5123,
      "count": 36,
      "type": "SCALAR"
    },
    {
      "bufferView": 24,
      "componentType": 5126,
      "count": 24,
      "type": "VEC3",
      "max": [
        0.17000000178813934,
        4.627500057220459,
        6.670000076293945
      ],
      "min": [
        -0.17000000178813934,
        4.572500228881836,
        -0.2800000011920929
      ]
    },
    {
      "bufferView": 25,
      "componentType": 5123,
      "count": 36,
      "type": "SCALAR"
    },
    {
      "bufferView": 26,
      "componentType": 5126,
      "count": 24,
      "type": "VEC3",
      "max": [
        6.950000286102295,
        4.627500057220459,
        -0.10999999940395355
      ],
      "min": [
        -1.19209286886246e-09,
        4.572500228881836,
        -0.44999998807907104
      ]
    },
    {
      "bufferView": 27,
      "componentType": 5123,
      "count": 36,
      "type": "SCALAR"
    },
    {
      "bufferView": 28,
      "componentType": 5126,
      "count": 24,
      "type": "VEC3",
      "max": [
        0.17000000178813934,
        4.627500057220459,
        -0.2800000011920929
      ],
      "min": [
        -0.17000000178813934,
        4.572500228881836,
        -7.230000019073486
      ]
    },
    {
      "bufferView": 29,
      "componentType": 5123,
      "count": 36,
      "type": "SCALAR"
    },
    {
      "bufferView": 30,
      "componentType": 5126,
      "count": 24,
      "type": "VEC3",
      "max": [
        1.19209286886246e-09,
        4.627500057220459,
        -0.10999999940395355
      ],
      "min": [
        -6.950000286102295,
        4.572500228881836,
        -0.44999998807907104
      ]
    },
    {
      "bufferView": 31,
      "componentType": 5123,
      "count": 36,
      "type": "SCALAR"
    },
    {
      "bufferView": 32,
      "componentType": 5126,
      "count": 24,
      "type": "VEC3",
      "max": [
        0.3199999928474426,
        3.1600000858306885,
        -9.550000190734863
      ],
      "min": [
        0.03999999910593033,
        2.940000057220459,
        -9.770000457763672
      ]
    },
    {
      "bufferView": 33,
      "componentType": 5123,
      "count": 36,
      "type": "SCALAR"
    },
    {
      "bufferView": 34,
      "componentType": 5126,
      "count": 24,
      "type": "VEC3",
      "max": [
        0.9373676776885986,
        4.23868465423584,
        -9.550000190734863
      ],
      "min": [
        -0.3773677349090576,
        1.8613156080245972,
        -9.770000457763672
      ]
    },
    {
      "bufferView": 35,
      "componentType": 5123,
      "count": 36,
      "type": "SCALAR"
    },
    {
      "bufferView": 36,
      "componentType": 5126,
      "count": 24,
      "type": "VEC3",
      "max": [
        1.4886844158172607,
        3.7073676586151123,
        -9.550000190734863
      ],
      "min": [
        -0.8886844515800476,
        2.392632246017456,
        -9.770000457763672
      ]
    },
    {
      "bufferView": 37,
      "componentType": 5123,
      "count": 36,
      "type": "SCALAR"
    },
    {
      "bufferView": 38,
      "componentType": 5126,
      "count": 24,
      "type": "VEC3",
      "max": [
        -1.1549999713897705,
        0.33500000834465027,
        2.7750000953674316
      ],
      "min": [
        -1.284999966621399,
        0.20499999821186066,
        -2.674999952316284
      ]
    },
    {
      "bufferView": 39,
      "componentType": 5123,
      "count": 36,
      "type": "SCALAR"
    },
    {
      "bufferView": 40,
      "componentType": 5126,
      "count": 24,
      "type": "VEC3",
      "max": [
        -0.6395228505134583,
        1.08427095413208,
        1.5299999713897705
      ],
      "min": [
        -1.1172771453857422,
        0.17572908103466034,
        1.4299999475479126
      ]
    },
    {
      "bufferView": 41,
      "componentType": 5123,
      "count": 36,
      "type": "SCALAR"
    },
    {
      "bufferView": 42,
      "componentType": 5126,
      "count": 24,
      "type": "VEC3",
      "max": [
        -0.6395228505134583,
        1.08427095413208,
        -1.2699999809265137
      ],
      "min": [
        -1.1172771453857422,
        0.17572908103466034,
        -1.3700000047683716
      ]
    },
    {
      "bufferView": 43,
      "componentType": 5123,
      "count": 36,
      "type": "SCALAR"
    },
    {
      "bufferView": 44,
      "componentType": 5126,
      "count": 24,
      "type": "VEC3",
      "max": [
        1.284999966621399,
        0.33500000834465027,
        2.7750000953674316
      ],
      "min": [
        1.1549999713897705,
        0.20499999821186066,
        -2.674999952316284
      ]
    },
    {
      "bufferView": 45,
      "componentType": 5123,
      "count": 36,
      "type": "SCALAR"
    },
    {
      "bufferView": 46,
      "componentType": 5126,
      "count": 24,
      "type": "VEC3",
      "max": [
        1.1172771453857422,
        1.08427095413208,
        1.5299999713897705
      ],
      "min": [
        0.6395228505134583,
        0.17572908103466034,
        1.4299999475479126
      ]
    },
    {
      "bufferView": 47,
      "componentType": 5123,
      "count": 36,
      "type": "SCALAR"
    },
    {
      "bufferView": 48,
      "componentType": 5126,
      "count": 24,
      "type": "VEC3",
      "max": [
        1.1172771453857422,
        1.08427095413208,
        -1.2699999809265137
      ],
      "min": [
        0.6395228505134583,
        0.17572908103466034,
        -1.3700000047683716
      ]
    },
    {
      "bufferView": 49,
      "componentType": 5123,
      "count": 36,
      "type": "SCALAR"
    },
    {
      "bufferView": 50,
      "componentType": 5126,
      "count": 24,
      "type": "VEC3",
      "max": [
        -1.2200000286102295,
        0.6700000166893005,
        0.9750000238418579
      ],
      "min": [
        -1.5,
        0.5699999928474426,
        -0.875
      ]
    },
    {
      "bufferView": 51,
      "componentType": 5123,
      "count": 36,
      "type": "SCALAR"
    },
    {
      "bufferView": 52,
      "componentType": 5126,
      "count": 24,
      "type": "VEC3",
      "max": [
        1.5,
        0.6700000166893005,
        0.9750000238418579
      ],
      "min": [
        1.2200000286102295,
        0.5699999928474426,
        -0.875
      ]
    },
    {
      "bufferView": 53,
      "componentType": 5123,
      "count": 36,
      "type": "SCALAR"
    },
    {
      "bufferView": 54,
      "componentType": 5126,
      "count": 24,
      "type": "VEC3",
      "max": [
        -0.12356533855199814,
        2.817244529724121,
        3.123774528503418
      ],
      "min": [
        -1.2164347171783447,
        2.0227553844451904,
        2.5362255573272705
      ]
    },
    {
      "bufferView": 55,
      "componentType": 5123,
      "count": 36,
      "type": "SCALAR"
    },
    {
      "bufferView": 56,
      "componentType": 5126,
      "count": 24,
      "type": "VEC3",
      "max": [
        1.2164347171783447,
        2.817244529724121,
        3.123774528503418
      ],
      "min": [
        0.12356533855199814,
        2.0227553844451904,
        2.5362255573272705
      ]
    },
    {
      "bufferView": 57,
      "componentType": 5123,
      "count": 36,
      "type": "SCALAR"
    },
    {
      "bufferView": 58,
      "componentType": 5126,
      "count": 24,
      "type": "VEC3",
      "max": [
        -1.3350000381469727,
        2.6700000762939453,
        1.4249999523162842
      ],
      "min": [
        -1.3849999904632568,
        1.7899999618530273,
        -1.024999976158142
      ]
    },
    {
      "bufferView": 59,
      "componentType": 5123,
      "count": 36,
      "type": "SCALAR"
    },
    {
      "bufferView": 60,
      "componentType": 5126,
      "count": 24,
      "type": "VEC3",
      "max": [
        1.3849999904632568,
        2.6700000762939453,
        1.4249999523162842
      ],
      "min": [
        1.3350000381469727,
        1.7899999618530273,
        -1.024999976158142
      ]
    },
    {
      "bufferView": 61,
      "componentType": 5123,
      "count": 36,
      "type": "SCALAR"
    },
    {
      "bufferView": 62,
      "componentType": 5126,
      "count": 24,
      "type": "VEC3",
      "max": [
        -1.3674999475479126,
        2.430000066757202,
        0.7599999904632568
      ],
      "min": [
        -1.412500023841858,
        0.7099999785423279,
        -0.9599999785423279
      ]
    },
    {
      "bufferView": 63,
      "componentType": 5123,
      "count": 36,
      "type": "SCALAR"
    },
    {
      "bufferView": 64,
      "componentType": 5126,
      "count": 24,
      "type": "VEC3",
      "max": [
        1.412500023841858,
        2.430000066757202,
        0.7599999904632568
      ],
      "min": [
        1.3674999475479126,
        0.7099999785423279,
        -0.9599999785423279
      ]
    },
    {
      "bufferView": 65,
      "componentType": 5123,
      "count": 36,
      "type": "SCALAR"
    },
    {
      "bufferView": 66,
      "componentType": 5126,
      "count": 724,
      "type": "VEC3",
      "max": [
        1.3072988986968994,
        2.1600000858306885,
        3.5899999141693115
      ],
      "min": [
        -1.3072988986968994,
        0.800000011920929,
        -2.299999952316284
      ]
    },
    {
      "bufferView": 67,
      "componentType": 5123,
      "count": 996,
      "type": "SCALAR"
    },
    {
      "bufferView": 68,
      "componentType": 5126,
      "count": 566,
      "type": "VEC3",
      "max": [
        0.7320000529289246,
        4.562640190124512,
        -2.0
      ],
      "min": [
        -0.7320000529289246,
        1.399999976158142,
        -10.301569938659668
      ]
    },
    {
      "bufferView": 69,
      "componentType": 5123,
      "count": 690,
      "type": "SCALAR"
    },
    {
      "bufferView": 70,
      "componentType": 5126,
      "count": 248,
      "type": "VEC3",
      "max": [
        1.3528172969818115,
        2.4200000762939453,
        3.200000047683716
      ],
      "min": [
        -1.3528172969818115,
        1.600000023841858,
        -2.299999952316284
      ]
    },
    {
      "bufferView": 71,
      "componentType": 5123,
      "count": 345,
      "type": "SCALAR"
    },
    {
      "bufferView": 72,
      "componentType": 5126,
      "count": 40,
      "type": "VEC3",
      "max": [
        0.10199999809265137,
        3.8399999141693115,
        -8.9399995803833
      ],
      "min": [
        -0.10199999809265137,
        3.0299999713897705,
        -9.899999618530273
      ]
    },
    {
      "bufferView": 73,
      "componentType": 5123,
      "count": 48,
      "type": "SCALAR"
    },
    {
      "bufferView": 74,
      "componentType": 5126,
      "count": 24,
      "type": "VEC3",
      "max": [
        -0.3799999952316284,
        1.2899999618530273,
        3.305000066757202
      ],
      "min": [
        -0.7200000286102295,
        0.949999988079071,
        3.055000066757202
      ]
    },
    {
      "bufferView": 75,
      "componentType": 5123,
      "count": 36,
      "type": "SCALAR"
    },
    {
      "bufferView": 76,
      "componentType": 5126,
      "count": 160,
      "type": "VEC3",
      "max": [
        0.23999999463558197,
        1.2200000286102295,
        3.320000410079956
      ],
      "min": [
        -0.23999999463558197,
        0.7400000095367432,
        2.630000114440918
      ]
    },
    {
      "bufferView": 77,
      "componentType": 5123,
      "count": 192,
      "type": "SCALAR"
    },
    {
      "bufferView": 78,
      "componentType": 5126,
      "count": 24,
      "type": "VEC3",
      "max": [
        0.029999999329447746,
        3.8928399085998535,
        2.2039120197296143
      ],
      "min": [
        -0.029999999329447746,
        3.147160291671753,
        1.8560879230499268
      ]
    },
    {
      "bufferView": 79,
      "componentType": 5123,
      "count": 36,
      "type": "SCALAR"
    },
    {
      "bufferView": 80,
      "componentType": 5126,
      "count": 24,
      "type": "VEC3",
      "max": [
        0.029999999329447746,
        1.2028075456619263,
        2.995696783065796
      ],
      "min": [
        -0.029999999329447746,
        0.5571925044059753,
        2.6643030643463135
      ]
    },
    {
      "bufferView": 81,
      "componentType": 5123,
      "count": 36,
      "type": "SCALAR"
    },
    {
      "bufferView": 82,
      "componentType": 5126,
      "count": 24,
      "type": "VEC3",
      "max": [
        0.10000000149011612,
        3.940000057220459,
        -1.149999976158142
      ],
      "min": [
        -0.10000000149011612,
        3.7799999713897705,
        -1.350000023841858
      ]
    },
    {
      "bufferView": 83,
      "componentType": 5123,
      "count": 36,
      "type": "SCALAR"
    },
    {
      "bufferView": 84,
      "componentType": 5126,
      "count": 24,
      "type": "VEC3",
      "max": [
        0.09000000357627869,
        0.6700000166893005,
        -0.5099999904632568
      ],
      "min": [
        -0.09000000357627869,
        0.5299999713897705,
        -0.6899999976158142
      ]
    },
    {
      "bufferView": 85,
      "componentType": 5123,
      "count": 36,
      "type": "SCALAR"
    },
    {
      "bufferView": 86,
      "componentType": 5126,
      "count": 24,
      "type": "VEC3",
      "max": [
        -1.159999966621399,
        2.6449999809265137,
        -8.0600004196167
      ],
      "min": [
        -1.3200000524520874,
        2.515000104904175,
        -8.239999771118164
      ]
    },
    {
      "bufferView": 87,
      "componentType": 5123,
      "count": 36,
      "type": "SCALAR"
    },
    {
      "bufferView": 88,
      "componentType": 5126,
      "count": 24,
      "type": "VEC3",
      "max": [
        1.3200000524520874,
        2.6449999809265137,
        -8.0600004196167
      ],
      "min": [
        1.159999966621399,
        2.515000104904175,
        -8.239999771118164
      ]
    },
    {
      "bufferView": 89,
      "componentType": 5123,
      "count": 36,
      "type": "SCALAR"
    }
  ],
  "meshes": [
    {
      "name": "fuselage",
      "primitives": [
        {
          "attributes": {
            "POSITION": 0
          },
          "indices": 1,
          "mode": 4
        }
      ]
    },
    {
      "name": "belly",
      "primitives": [
        {
          "attributes": {
            "POSITION": 2
          },
          "indices": 3,
          "mode": 4
        }
      ]
    },
    {
      "name": "engine_left",
      "primitives": [
        {
          "attributes": {
            "POSITION": 4
          },
          "indices": 5,
          "mode": 4
        }
      ]
    },
    {
      "name": "engine_right",
      "primitives": [
        {
          "attributes": {
            "POSITION": 6
          },
          "indices": 7,
          "mode": 4
        }
      ]
    },
    {
      "name": "engine_exhaust_left",
      "primitives": [
        {
          "attributes": {
            "POSITION": 8
          },
          "indices": 9,
          "mode": 4
        }
      ]
    },
    {
      "name": "engine_exhaust_right",
      "primitives": [
        {
          "attributes": {
            "POSITION": 10
          },
          "indices": 11,
          "mode": 4
        }
      ]
    },
    {
      "name": "tail_boom",
      "primitives": [
        {
          "attributes": {
            "POSITION": 12
          },
          "indices": 13,
          "mode": 4
        }
      ]
    },
    {
      "name": "tail_fin",
      "primitives": [
        {
          "attributes": {
            "POSITION": 14
          },
          "indices": 15,
          "mode": 4
        }
      ]
    },
    {
      "name": "tailplane_left",
      "primitives": [
        {
          "attributes": {
            "POSITION": 16
          },
          "indices": 17,
          "mode": 4
        }
      ]
    },
    {
      "name": "tailplane_right",
      "primitives": [
        {
          "attributes": {
            "POSITION": 18
          },
          "indices": 19,
          "mode": 4
        }
      ]
    },
    {
      "name": "rotor_mast",
      "primitives": [
        {
          "attributes": {
            "POSITION": 20
          },
          "indices": 21,
          "mode": 4
        }
      ]
    },
    {
      "name": "rotor_hub",
      "primitives": [
        {
          "attributes": {
            "POSITION": 22
          },
          "indices": 23,
          "mode": 4
        }
      ]
    },
    {
      "name": "main_rotor_blade_1",
      "primitives": [
        {
          "attributes": {
            "POSITION": 24
          },
          "indices": 25,
          "mode": 4
        }
      ]
    },
    {
      "name": "main_rotor_blade_2",
      "primitives": [
        {
          "attributes": {
            "POSITION": 26
          },
          "indices": 27,
          "mode": 4
        }
      ]
    },
    {
      "name": "main_rotor_blade_3",
      "primitives": [
        {
          "attributes": {
            "POSITION": 28
          },
          "indices": 29,
          "mode": 4
        }
      ]
    },
    {
      "name": "main_rotor_blade_4",
      "primitives": [
        {
          "attributes": {
            "POSITION": 30
          },
          "indices": 31,
          "mode": 4
        }
      ]
    },
    {
      "name": "tail_rotor_hub",
      "primitives": [
        {
          "attributes": {
            "POSITION": 32
          },
          "indices": 33,
          "mode": 4
        }
      ]
    },
    {
      "name": "tail_rotor_blade_1",
      "primitives": [
        {
          "attributes": {
            "POSITION": 34
          },
          "indices": 35,
          "mode": 4
        }
      ]
    },
    {
      "name": "tail_rotor_blade_2",
      "primitives": [
        {
          "attributes": {
            "POSITION": 36
          },
          "indices": 37,
          "mode": 4
        }
      ]
    },
    {
      "name": "landing_skid_left",
      "primitives": [
        {
          "attributes": {
            "POSITION": 38
          },
          "indices": 39,
          "mode": 4
        }
      ]
    },
    {
      "name": "skid_strut_left_front",
      "primitives": [
        {
          "attributes": {
            "POSITION": 40
          },
          "indices": 41,
          "mode": 4
        }
      ]
    },
    {
      "name": "skid_strut_left_rear",
      "primitives": [
        {
          "attributes": {
            "POSITION": 42
          },
          "indices": 43,
          "mode": 4
        }
      ]
    },
    {
      "name": "landing_skid_right",
      "primitives": [
        {
          "attributes": {
            "POSITION": 44
          },
          "indices": 45,
          "mode": 4
        }
      ]
    },
    {
      "name": "skid_strut_right_front",
      "primitives": [
        {
          "attributes": {
            "POSITION": 46
          },
          "indices": 47,
          "mode": 4
        }
      ]
    },
    {
      "name": "skid_strut_right_rear",
      "primitives": [
        {
          "attributes": {
            "POSITION": 48
          },
          "indices": 49,
          "mode": 4
        }
      ]
    },
    {
      "name": "step_left",
      "primitives": [
        {
          "attributes": {
            "POSITION": 50
          },
          "indices": 51,
          "mode": 4
        }
      ]
    },
    {
      "name": "step_right",
      "primitives": [
        {
          "attributes": {
            "POSITION": 52
          },
          "indices": 53,
          "mode": 4
        }
      ]
    },
    {
      "name": "cockpit_glass_left",
      "primitives": [
        {
          "attributes": {
            "POSITION": 54
          },
          "indices": 55,
          "mode": 4
        }
      ]
    },
    {
      "name": "cockpit_glass_right",
      "primitives": [
        {
          "attributes": {
            "POSITION": 56
          },
          "indices": 57,
          "mode": 4
        }
      ]
    },
    {
      "name": "cabin_window_left",
      "primitives": [
        {
          "attributes": {
            "POSITION": 58
          },
          "indices": 59,
          "mode": 4
        }
      ]
    },
    {
      "name": "cabin_window_right",
      "primitives": [
        {
          "attributes": {
            "POSITION": 60
          },
          "indices": 61,
          "mode": 4
        }
      ]
    },
    {
      "name": "sliding_door_left",
      "primitives": [
        {
          "attributes": {
            "POSITION": 62
          },
          "indices": 63,
          "mode": 4
        }
      ]
    },
    {
      "name": "sliding_door_right",
      "primitives": [
        {
          "attributes": {
            "POSITION": 64
          },
          "indices": 65,
          "mode": 4
        }
      ]
    },
    {
      "name": "rescue_red_belly",
      "primitives": [
        {
          "attributes": {
            "POSITION": 66
          },
          "indices": 67,
          "mode": 4
        }
      ]
    },
    {
      "name": "rescue_red_tail",
      "primitives": [
        {
          "attributes": {
            "POSITION": 68
          },
          "indices": 69,
          "mode": 4
        }
      ]
    },
    {
      "name": "livery_secondary",
      "primitives": [
        {
          "attributes": {
            "POSITION": 70
          },
          "indices": 71,
          "mode": 4
        }
      ]
    },
    {
      "name": "livery_emblem",
      "primitives": [
        {
          "attributes": {
            "POSITION": 72
          },
          "indices": 73,
          "mode": 4
        }
      ]
    },
    {
      "name": "nose_searchlight",
      "primitives": [
        {
          "attributes": {
            "POSITION": 74
          },
          "indices": 75,
          "mode": 4
        }
      ]
    },
    {
      "name": "camera_pod",
      "primitives": [
        {
          "attributes": {
            "POSITION": 76
          },
          "indices": 77,
          "mode": 4
        }
      ]
    },
    {
      "name": "wire_strike_upper",
      "primitives": [
        {
          "attributes": {
            "POSITION": 78
          },
          "indices": 79,
          "mode": 4
        }
      ]
    },
    {
      "name": "wire_strike_lower",
      "primitives": [
        {
          "attributes": {
            "POSITION": 80
          },
          "indices": 81,
          "mode": 4
        }
      ]
    },
    {
      "name": "beacon_top",
      "primitives": [
        {
          "attributes": {
            "POSITION": 82
          },
          "indices": 83,
          "mode": 4
        }
      ]
    },
    {
      "name": "beacon_belly",
      "primitives": [
        {
          "attributes": {
            "POSITION": 84
          },
          "indices": 85,
          "mode": 4
        }
      ]
    },
    {
      "name": "nav_light_left",
      "primitives": [
        {
          "attributes": {
            "POSITION": 86
          },
          "indices": 87,
          "mode": 4
        }
      ]
    },
    {
      "name": "nav_light_right",
      "primitives": [
        {
          "attributes": {
            "POSITION": 88
          },
          "indices": 89,
          "mode": 4
        }
      ]
    }
  ],
  "nodes": [
    {
      "name": "fuselage",
      "mesh": 0
    },
    {
      "name": "belly",
      "mesh": 1
    },
    {
      "name": "engine_left",
      "mesh": 2
    },
    {
      "name": "engine_right",
      "mesh": 3
    },
    {
      "name": "engine_exhaust_left",
      "mesh": 4
    },
    {
      "name": "engine_exhaust_right",
      "mesh": 5
    },
    {
      "name": "tail_boom",
      "mesh": 6
    },
    {
      "name": "tail_fin",
      "mesh": 7
    },
    {
      "name": "tailplane_left",
      "mesh": 8
    },
    {
      "name": "tailplane_right",
      "mesh": 9
    },
    {
      "name": "rotor_mast",
      "mesh": 10
    },
    {
      "name": "rotor_hub",
      "mesh": 11
    },
    {
      "name": "main_rotor_blade_1",
      "mesh": 12
    },
    {
      "name": "main_rotor_blade_2",
      "mesh": 13
    },
    {
      "name": "main_rotor_blade_3",
      "mesh": 14
    },
    {
      "name": "main_rotor_blade_4",
      "mesh": 15
    },
    {
      "name": "tail_rotor_hub",
      "mesh": 16
    },
    {
      "name": "tail_rotor_blade_1",
      "mesh": 17
    },
    {
      "name": "tail_rotor_blade_2",
      "mesh": 18
    },
    {
      "name": "landing_skid_left",
      "mesh": 19
    },
    {
      "name": "skid_strut_left_front",
      "mesh": 20
    },
    {
      "name": "skid_strut_left_rear",
      "mesh": 21
    },
    {
      "name": "landing_skid_right",
      "mesh": 22
    },
    {
      "name": "skid_strut_right_front",
      "mesh": 23
    },
    {
      "name": "skid_strut_right_rear",
      "mesh": 24
    },
    {
      "name": "step_left",
      "mesh": 25
    },
    {
      "name": "step_right",
      "mesh": 26
    },
    {
      "name": "cockpit_glass_left",
      "mesh": 27
    },
    {
      "name": "cockpit_glass_right",
      "mesh": 28
    },
    {
      "name": "cabin_window_left",
      "mesh": 29
    },
    {
      "name": "cabin_window_right",
      "mesh": 30
    },
    {
      "name": "sliding_door_left",
      "mesh": 31
    },
    {
      "name": "sliding_door_right",
      "mesh": 32
    },
    {
      "name": "rescue_red_belly",
      "mesh": 33
    },
    {
      "name": "rescue_red_tail",
      "mesh": 34
    },
    {
      "name": "livery_secondary",
      "mesh": 35
    },
    {
      "name": "livery_emblem",
      "mesh": 36
    },
    {
      "name": "nose_searchlight",
      "mesh": 37
    },
    {
      "name": "camera_pod",
      "mesh": 38
    },
    {
      "name": "wire_strike_upper",
      "mesh": 39
    },
    {
      "name": "wire_strike_lower",
      "mesh": 40
    },
    {
      "name": "beacon_top",
      "mesh": 41
    },
    {
      "name": "beacon_belly",
      "mesh": 42
    },
    {
      "name": "nav_light_left",
      "mesh": 43
    },
    {
      "name": "nav_light_right",
      "mesh": 44
    }
  ],
  "scenes": [
    {
      "name": "mdl_bell_412_rescue_v01",
      "nodes": [
        0,
        1,
        2,
        3,
        4,
        5,
        6,
        7,
        8,
        9,
        10,
        11,
        12,
        13,
        14,
        15,
        16,
        17,
        18,
        19,
        20,
        21,
        22,
        23,
        24,
        25,
        26,
        27,
        28,
        29,
        30,
        31,
        32,
        33,
        34,
        35,
        36,
        37,
        38,
        39,
        40,
        41,
        42,
        43,
        44
      ]
    }
  ],
  "scene": 0
}