{
  "asset": {
    "version": "2.0",
    "generator": "Airside Batch C procedural kit"
  },
  "buffers": [
    {
      "uri": "mdl_parafield_trainer_v01.bin",
      "byteLength": 324672
    }
  ],
  "bufferViews": [
    {
      "buffer": 0,
      "byteOffset": 0,
      "byteLength": 53592,
      "target": 34962
    },
    {
      "buffer": 0,
      "byteOffset": 53592,
      "byteLength": 53568,
      "target": 34963
    },
    {
      "buffer": 0,
      "byteOffset": 107160,
      "byteLength": 2880,
      "target": 34962
    },
    {
      "buffer": 0,
      "byteOffset": 110040,
      "byteLength": 576,
      "target": 34963
    },
    {
      "buffer": 0,
      "byteOffset": 110616,
      "byteLength": 1920,
      "target": 34962
    },
    {
      "buffer": 0,
      "byteOffset": 112536,
      "byteLength": 384,
      "target": 34963
    },
    {
      "buffer": 0,
      "byteOffset": 112920,
      "byteLength": 5784,
      "target": 34962
    },
    {
      "buffer": 0,
      "byteOffset": 118704,
      "byteLength": 5760,
      "target": 34963
    },
    {
      "buffer": 0,
      "byteOffset": 124464,
      "byteLength": 6024,
      "target": 34962
    },
    {
      "buffer": 0,
      "byteOffset": 130488,
      "byteLength": 6000,
      "target": 34963
    },
    {
      "buffer": 0,
      "byteOffset": 136488,
      "byteLength": 3336,
      "target": 34962
    },
    {
      "buffer": 0,
      "byteOffset": 139824,
      "byteLength": 3312,
      "target": 34963
    },
    {
      "buffer": 0,
      "byteOffset": 143136,
      "byteLength": 1464,
      "target": 34962
    },
    {
      "buffer": 0,
      "byteOffset": 144600,
      "byteLength": 1440,
      "target": 34963
    },
    {
      "buffer": 0,
      "byteOffset": 146040,
      "byteLength": 288,
      "target": 34962
    },
    {
      "buffer": 0,
      "byteOffset": 146328,
      "byteLength": 72,
      "target": 34963
    },
    {
      "buffer": 0,
      "byteOffset": 146400,
      "byteLength": 15024,
      "target": 34962
    },
    {
      "buffer": 0,
      "byteOffset": 161424,
      "byteLength": 15000,
      "target": 34963
    },
    {
      "buffer": 0,
      "byteOffset": 176424,
      "byteLength": 960,
      "target": 34962
    },
    {
      "buffer": 0,
      "byteOffset": 177384,
      "byteLength": 192,
      "target": 34963
    },
    {
      "buffer": 0,
      "byteOffset": 177576,
      "byteLength": 288,
      "target": 34962
    },
    {
      "buffer": 0,
      "byteOffset": 177864,
      "byteLength": 72,
      "target": 34963
    },
    {
      "buffer": 0,
      "byteOffset": 177936,
      "byteLength": 2400,
      "target": 34962
    },
    {
      "buffer": 0,
      "byteOffset": 180336,
      "byteLength": 480,
      "target": 34963
    },
    {
      "buffer": 0,
      "byteOffset": 180816,
      "byteLength": 288,
      "target": 34962
    },
    {
      "buffer": 0,
      "byteOffset": 181104,
      "byteLength": 72,
      "target": 34963
    },
    {
      "buffer": 0,
      "byteOffset": 181176,
      "byteLength": 6024,
      "target": 34962
    },
    {
      "buffer": 0,
      "byteOffset": 187200,
      "byteLength": 6000,
      "target": 34963
    },
    {
      "buffer": 0,
      "byteOffset": 193200,
      "byteLength": 3336,
      "target": 34962
    },
    {
      "buffer": 0,
      "byteOffset": 196536,
      "byteLength": 3312,
      "target": 34963
    },
    {
      "buffer": 0,
      "byteOffset": 199848,
      "byteLength": 1464,
      "target": 34962
    },
    {
      "buffer": 0,
      "byteOffset": 201312,
      "byteLength": 1440,
      "target": 34963
    },
    {
      "buffer": 0,
      "byteOffset": 202752,
      "byteLength": 288,
      "target": 34962
    },
    {
      "buffer": 0,
      "byteOffset": 203040,
      "byteLength": 72,
      "target": 34963
    },
    {
      "buffer": 0,
      "byteOffset": 203112,
      "byteLength": 15024,
      "target": 34962
    },
    {
      "buffer": 0,
      "byteOffset": 218136,
      "byteLength": 15000,
      "target": 34963
    },
    {
      "buffer": 0,
      "byteOffset": 233136,
      "byteLength": 960,
      "target": 34962
    },
    {
      "buffer": 0,
      "byteOffset": 234096,
      "byteLength": 192,
      "target": 34963
    },
    {
      "buffer": 0,
      "byteOffset": 234288,
      "byteLength": 288,
      "target": 34962
    },
    {
      "buffer": 0,
      "byteOffset": 234576,
      "byteLength": 72,
      "target": 34963
    },
    {
      "buffer": 0,
      "byteOffset": 234648,
      "byteLength": 2400,
      "target": 34962
    },
    {
      "buffer": 0,
      "byteOffset": 237048,
      "byteLength": 480,
      "target": 34963
    },
    {
      "buffer": 0,
      "byteOffset": 237528,
      "byteLength": 288,
      "target": 34962
    },
    {
      "buffer": 0,
      "byteOffset": 237816,
      "byteLength": 72,
      "target": 34963
    },
    {
      "buffer": 0,
      "byteOffset": 237888,
      "byteLength": 15624,
      "target": 34962
    },
    {
      "buffer": 0,
      "byteOffset": 253512,
      "byteLength": 15600,
      "target": 34963
    },
    {
      "buffer": 0,
      "byteOffset": 269112,
      "byteLength": 288,
      "target": 34962
    },
    {
      "buffer": 0,
      "byteOffset": 269400,
      "byteLength": 72,
      "target": 34963
    },
    {
      "buffer": 0,
      "byteOffset": 269472,
      "byteLength": 2400,
      "target": 34962
    },
    {
      "buffer": 0,
      "byteOffset": 271872,
      "byteLength": 480,
      "target": 34963
    },
    {
      "buffer": 0,
      "byteOffset": 272352,
      "byteLength": 288,
      "target": 34962
    },
    {
      "buffer": 0,
      "byteOffset": 272640,
      "byteLength": 72,
      "target": 34963
    },
    {
      "buffer": 0,
      "byteOffset": 272712,
      "byteLength": 288,
      "target": 34962
    },
    {
      "buffer": 0,
      "byteOffset": 273000,
      "byteLength": 72,
      "target": 34963
    },
    {
      "buffer": 0,
      "byteOffset": 273072,
      "byteLength": 288,
      "target": 34962
    },
    {
      "buffer": 0,
      "byteOffset": 273360,
      "byteLength": 72,
      "target": 34963
    },
    {
      "buffer": 0,
      "byteOffset": 273432,
      "byteLength": 5016,
      "target": 34962
    },
    {
      "buffer": 0,
      "byteOffset": 278448,
      "byteLength": 4992,
      "target": 34963
    },
    {
      "buffer": 0,
      "byteOffset": 283440,
      "byteLength": 5016,
      "target": 34962
    },
    {
      "buffer": 0,
      "byteOffset": 288456,
      "byteLength": 4992,
      "target": 34963
    },
    {
      "buffer": 0,
      "byteOffset": 293448,
      "byteLength": 15624,
      "target": 34962
    },
    {
      "buffer": 0,
      "byteOffset": 309072,
      "byteLength": 15600,
      "target": 34963
    }
  ],
  "accessors": [
    {
      "bufferView": 0,
      "componentType": 5126,
      "count": 4466,
      "type": "VEC3",
      "max": [
        0.5799999833106995,
        2.0899999141693115,
        3.6700000762939453
      ],
      "min": [
        -0.5799999833106995,
        0.8399484157562256,
        -4.119999885559082
      ]
    },
    {
      "bufferView": 1,
      "componentType": 5123,
      "count": 26784,
      "type": "SCALAR"
    },
    {
      "bufferView": 2,
      "componentType": 5126,
      "count": 240,
      "type": "VEC3",
      "max": [
        0.46000000834465027,
        1.559999942779541,
        3.8400003910064697
      ],
      "min": [
        -0.46000000834465027,
        0.8199999928474426,
        2.330000638961792
      ]
    },
    {
      "bufferView": 3,
      "componentType": 5123,
      "count": 288,
      "type": "SCALAR"
    },
    {
      "bufferView": 4,
      "componentType": 5126,
      "count": 160,
      "type": "VEC3",
      "max": [
        0.18000000715255737,
        1.3700000047683716,
        4.270000457763672
      ],
      "min": [
        -0.18000000715255737,
        1.0099999904632568,
        3.630000114440918
      ]
    },
    {
      "bufferView": 5,
      "componentType": 5123,
      "count": 192,
      "type": "SCALAR"
    },
    {
      "bufferView": 6,
      "componentType": 5126,
      "count": 482,
      "type": "VEC3",
      "max": [
        0.44124624133110046,
        2.101975917816162,
        1.940000057220459
      ],
      "min": [
        -0.44124624133110046,
        1.627431869506836,
        1.159999966621399
      ]
    },
    {
      "bufferView": 7,
      "componentType": 5123,
      "count": 2880,
      "type": "SCALAR"
    },
    {
      "bufferView": 8,
      "componentType": 5126,
      "count": 502,
      "type": "VEC3",
      "max": [
        -0.40958330035209656,
        1.9051350355148315,
        1.0
      ],
      "min": [
        -0.5915926098823547,
        1.4625437259674072,
        -0.30000001192092896
      ]
    },
    {
      "bufferView": 9,
      "componentType": 5123,
      "count": 3000,
      "type": "SCALAR"
    },
    {
      "bufferView": 10,
      "componentType": 5126,
      "count": 278,
      "type": "VEC3",
      "max": [
        -0.5183159708976746,
        1.2509649991989136,
        1.2300000190734863
      ],
      "min": [
        -0.5495527982711792,
        1.2168505191802979,
        -0.3700000047683716
      ]
    },
    {
      "bufferView": 11,
      "componentType": 5123,
      "count": 1656,
      "type": "SCALAR"
    },
    {
      "bufferView": 12,
      "componentType": 5126,
      "count": 122,
      "type": "VEC3",
      "max": [
        -0.5688706040382385,
        1.4818589687347412,
        0.18000000715255737
      ],
      "min": [
        -0.5997285842895508,
        1.4437795877456665,
        0.019999999552965164
      ]
    },
    {
      "bufferView": 13,
      "componentType": 5123,
      "count": 720,
      "type": "SCALAR"
    },
    {
      "bufferView": 14,
      "componentType": 5126,
      "count": 24,
      "type": "VEC3",
      "max": [
        0.0,
        2.257499933242798,
        0.8774999976158142
      ],
      "min": [
        -5.5,
        2.0199999809265137,
        -0.7724999785423279
      ]
    },
    {
      "bufferView": 15,
      "componentType": 5123,
      "count": 36,
      "type": "SCALAR"
    },
    {
      "bufferView": 16,
      "componentType": 5126,
      "count": 1252,
      "type": "VEC3",
      "max": [
        0.0,
        1.4965643882751465,
        -2.8399999141693115
      ],
      "min": [
        -1.8000004291534424,
        1.3688669204711914,
        -3.7799999713897705
      ]
    },
    {
      "bufferView": 17,
      "componentType": 5123,
      "count": 7500,
      "type": "SCALAR"
    },
    {
      "bufferView": 18,
      "componentType": 5126,
      "count": 80,
      "type": "VEC3",
      "max": [
        -0.550540566444397,
        2.1818735599517822,
        0.4349774420261383
      ],
      "min": [
        -3.11445951461792,
        0.9681264162063599,
        0.2650225758552551
      ]
    },
    {
      "bufferView": 19,
      "componentType": 5123,
      "count": 96,
      "type": "SCALAR"
    },
    {
      "bufferView": 20,
      "componentType": 5126,
      "count": 24,
      "type": "VEC3",
      "max": [
        -0.8489999771118164,
        0.8899999856948853,
        -0.09000000357627869
      ],
      "min": [
        -0.9589999914169312,
        0.1899999976158142,
        -0.20999999344348907
      ]
    },
    {
      "bufferView": 21,
      "componentType": 5123,
      "count": 36,
      "type": "SCALAR"
    },
    {
      "bufferView": 22,
      "componentType": 5126,
      "count": 200,
      "type": "VEC3",
      "max": [
        -0.9652500152587891,
        0.47999998927116394,
        0.09000000357627869
      ],
      "min": [
        -1.125249981880188,
        0.0,
        -0.38999998569488525
      ]
    },
    {
      "bufferView": 23,
      "componentType": 5123,
      "count": 240,
      "type": "SCALAR"
    },
    {
      "bufferView": 24,
      "componentType": 5126,
      "count": 24,
      "type": "VEC3",
      "max": [
        -5.400000095367432,
        2.265000104904175,
        0.20999999344348907
      ],
      "min": [
        -5.5,
        2.194999933242798,
        0.07000000029802322
      ]
    },
    {
      "bufferView": 25,
      "componentType": 5123,
      "count": 36,
      "type": "SCALAR"
    },
    {
      "bufferView": 26,
      "componentType": 5126,
      "count": 502,
      "type": "VEC3",
      "max": [
        0.5915926098823547,
        1.9051350355148315,
        1.0
      ],
      "min": [
        0.40958330035209656,
        1.4625437259674072,
        -0.30000001192092896
      ]
    },
    {
      "bufferView": 27,
      "componentType": 5123,
      "count": 3000,
      "type": "SCALAR"
    },
    {
      "bufferView": 28,
      "componentType": 5126,
      "count": 278,
      "type": "VEC3",
      "max": [
        0.5495527982711792,
        1.2509649991989136,
        1.2300000190734863
      ],
      "min": [
        0.5183159708976746,
        1.2168505191802979,
        -0.3700000047683716
      ]
    },
    {
      "bufferView": 29,
      "componentType": 5123,
      "count": 1656,
      "type": "SCALAR"
    },
    {
      "bufferView": 30,
      "componentType": 5126,
      "count": 122,
      "type": "VEC3",
      "max": [
        0.5997285842895508,
        1.4818589687347412,
        0.18000000715255737
      ],
      "min": [
        0.5688706040382385,
        1.4437795877456665,
        0.019999999552965164
      ]
    },
    {
      "bufferView": 31,
      "componentType": 5123,
      "count": 720,
      "type": "SCALAR"
    },
    {
      "bufferView": 32,
      "componentType": 5126,
      "count": 24,
      "type": "VEC3",
      "max": [
        5.5,
        2.257499933242798,
        0.8774999976158142
      ],
      "min": [
        0.0,
        2.0199999809265137,
        -0.7724999785423279
      ]
    },
    {
      "bufferView": 33,
      "componentType": 5123,
      "count": 36,
      "type": "SCALAR"
    },
    {
      "bufferView": 34,
      "componentType": 5126,
      "count": 1252,
      "type": "VEC3",
      "max": [
        1.8000004291534424,
        1.4965643882751465,
        -2.8399999141693115
      ],
      "min": [
        0.0,
        1.3688669204711914,
        -3.7799999713897705
      ]
    },
    {
      "bufferView": 35,
      "componentType": 5123,
      "count": 7500,
      "type": "SCALAR"
    },
    {
      "bufferView": 36,
      "componentType": 5126,
      "count": 80,
      "type": "VEC3",
      "max": [
        3.11445951461792,
        2.1818735599517822,
        0.4349774420261383
      ],
      "min": [
        0.550540566444397,
        0.9681264162063599,
        0.2650225758552551
      ]
    },
    {
      "bufferView": 37,
      "componentType": 5123,
      "count": 96,
      "type": "SCALAR"
    },
    {
      "bufferView": 38,
      "componentType": 5126,
      "count": 24,
      "type": "VEC3",
      "max": [
        0.9589999914169312,
        0.8899999856948853,
        -0.09000000357627869
      ],
      "min": [
        0.8489999771118164,
        0.1899999976158142,
        -0.20999999344348907
      ]
    },
    {
      "bufferView": 39,
      "componentType": 5123,
      "count": 36,
      "type": "SCALAR"
    },
    {
      "bufferView": 40,
      "componentType": 5126,
      "count": 200,
      "type": "VEC3",
      "max": [
        1.125249981880188,
        0.47999998927116394,
        0.09000000357627869
      ],
      "min": [
        0.9652500152587891,
        0.0,
        -0.38999998569488525
      ]
    },
    {
      "bufferView": 41,
      "componentType": 5123,
      "count": 240,
      "type": "SCALAR"
    },
    {
      "bufferView": 42,
      "componentType": 5126,
      "count": 24,
      "type": "VEC3",
      "max": [
        5.5,
        2.265000104904175,
        0.20999999344348907
      ],
      "min": [
        5.400000095367432,
        2.194999933242798,
        0.07000000029802322
      ]
    },
    {
      "bufferView": 43,
      "componentType": 5123,
      "count": 36,
      "type": "SCALAR"
    },
    {
      "bufferView": 44,
      "componentType": 5126,
      "count": 1302,
      "type": "VEC3",
      "max": [
        0.06000204011797905,
        2.809999942779541,
        -2.75
      ],
      "min": [
        -0.06000204011797905,
        1.4771387577056885,
        -3.9700000286102295
      ]
    },
    {
      "bufferView": 45,
      "componentType": 5123,
      "count": 7800,
      "type": "SCALAR"
    },
    {
      "bufferView": 46,
      "componentType": 5126,
      "count": 24,
      "type": "VEC3",
      "max": [
        0.05000000074505806,
        0.8949999809265137,
        2.450000047683716
      ],
      "min": [
        -0.05000000074505806,
        0.24500000476837158,
        2.3499999046325684
      ]
    },
    {
      "bufferView": 47,
      "componentType": 5123,
      "count": 36,
      "type": "SCALAR"
    },
    {
      "bufferView": 48,
      "componentType": 5126,
      "count": 200,
      "type": "VEC3",
      "max": [
        0.0650000125169754,
        0.3799999952316284,
        2.5899999141693115
      ],
      "min": [
        -0.0650000125169754,
        0.0,
        2.2100000381469727
      ]
    },
    {
      "bufferView": 49,
      "componentType": 5123,
      "count": 240,
      "type": "SCALAR"
    },
    {
      "bufferView": 50,
      "componentType": 5126,
      "count": 24,
      "type": "VEC3",
      "max": [
        0.06499999761581421,
        2.2100000381469727,
        3.809999942779541
      ],
      "min": [
        -0.06499999761581421,
        1.190000057220459,
        3.75
      ]
    },
    {
      "bufferView": 51,
      "componentType": 5123,
      "count": 36,
      "type": "SCALAR"
    },
    {
      "bufferView": 52,
      "componentType": 5126,
      "count": 24,
      "type": "VEC3",
      "max": [
        0.06499999761581421,
        1.190000057220459,
        3.809999942779541
      ],
      "min": [
        -0.06499999761581421,
        0.17000000178813934,
        3.75
      ]
    },
    {
      "bufferView": 53,
      "componentType": 5123,
      "count": 36,
      "type": "SCALAR"
    },
    {
      "bufferView": 54,
      "componentType": 5126,
      "count": 24,
      "type": "VEC3",
      "max": [
        0.04500000178813934,
        2.880000114440918,
        -3.4000000953674316
      ],
      "min": [
        -0.04500000178813934,
        2.799999952316284,
        -3.5
      ]
    },
    {
      "bufferView": 55,
      "componentType": 5123,
      "count": 36,
      "type": "SCALAR"
    },
    {
      "bufferView": 56,
      "componentType": 5126,
      "count": 418,
      "type": "VEC3",
      "max": [
        -0.5028349161148071,
        1.2701177597045898,
        1.0950000286102295
      ],
      "min": [
        -0.5580195188522339,
        1.1956961154937744,
        -0.8550000190734863
      ]
    },
    {
      "bufferView": 57,
      "componentType": 5123,
      "count": 2496,
      "type": "SCALAR"
    },
    {
      "bufferView": 58,
      "componentType": 5126,
      "count": 418,
      "type": "VEC3",
      "max": [
        0.5580195188522339,
        1.2701177597045898,
        1.0950000286102295
      ],
      "min": [
        0.5028349161148071,
        1.1956961154937744,
        -0.8550000190734863
      ]
    },
    {
      "bufferView": 59,
      "componentType": 5123,
      "count": 2496,
      "type": "SCALAR"
    },
    {
      "bufferView": 60,
      "componentType": 5126,
      "count": 1302,
      "type": "VEC3",
      "max": [
        0.03055531717836857,
        2.809999942779541,
        -3.6772000789642334
      ],
      "min": [
        -0.03055531717836857,
        1.4771387577056885,
        -3.9700000286102295
      ]
    },
    {
      "bufferView": 61,
      "componentType": 5123,
      "count": 7800,
      "type": "SCALAR"
    }
  ],
  "meshes": [
    {
      "name": "fuselage",
      "primitives": [
        {
          "attributes": {
            "POSITION": 0
          },
          "indices": 1,
          "mode": 4
        }
      ]
    },
    {
      "name": "cowl",
      "primitives": [
        {
          "attributes": {
            "POSITION": 2
          },
          "indices": 3,
          "mode": 4
        }
      ]
    },
    {
      "name": "spinner",
      "primitives": [
        {
          "attributes": {
            "POSITION": 4
          },
          "indices": 5,
          "mode": 4
        }
      ]
    },
    {
      "name": "windscreen_glass",
      "primitives": [
        {
          "attributes": {
            "POSITION": 6
          },
          "indices": 7,
          "mode": 4
        }
      ]
    },
    {
      "name": "window_glass_left",
      "primitives": [
        {
          "attributes": {
            "POSITION": 8
          },
          "indices": 9,
          "mode": 4
        }
      ]
    },
    {
      "name": "door_seam_left",
      "primitives": [
        {
          "attributes": {
            "POSITION": 10
          },
          "indices": 11,
          "mode": 4
        }
      ]
    },
    {
      "name": "door_handle_left",
      "primitives": [
        {
          "attributes": {
            "POSITION": 12
          },
          "indices": 13,
          "mode": 4
        }
      ]
    },
    {
      "name": "wing_left",
      "primitives": [
        {
          "attributes": {
            "POSITION": 14
          },
          "indices": 15,
          "mode": 4
        }
      ]
    },
    {
      "name": "tailplane_left",
      "primitives": [
        {
          "attributes": {
            "POSITION": 16
          },
          "indices": 17,
          "mode": 4
        }
      ]
    },
    {
      "name": "wing_strut_left",
      "primitives": [
        {
          "attributes": {
            "POSITION": 18
          },
          "indices": 19,
          "mode": 4
        }
      ]
    },
    {
      "name": "main_gear_left",
      "primitives": [
        {
          "attributes": {
            "POSITION": 20
          },
          "indices": 21,
          "mode": 4
        }
      ]
    },
    {
      "name": "main_wheel_left",
      "primitives": [
        {
          "attributes": {
            "POSITION": 22
          },
          "indices": 23,
          "mode": 4
        }
      ]
    },
    {
      "name": "nav_light_left",
      "primitives": [
        {
          "attributes": {
            "POSITION": 24
          },
          "indices": 25,
          "mode": 4
        }
      ]
    },
    {
      "name": "window_glass_right",
      "primitives": [
        {
          "attributes": {
            "POSITION": 26
          },
          "indices": 27,
          "mode": 4
        }
      ]
    },
    {
      "name": "door_seam_right",
      "primitives": [
        {
          "attributes": {
            "POSITION": 28
          },
          "indices": 29,
          "mode": 4
        }
      ]
    },
    {
      "name": "door_handle_right",
      "primitives": [
        {
          "attributes": {
            "POSITION": 30
          },
          "indices": 31,
          "mode": 4
        }
      ]
    },
    {
      "name": "wing_right",
      "primitives": [
        {
          "attributes": {
            "POSITION": 32
          },
          "indices": 33,
          "mode": 4
        }
      ]
    },
    {
      "name": "tailplane_right",
      "primitives": [
        {
          "attributes": {
            "POSITION": 34
          },
          "indices": 35,
          "mode": 4
        }
      ]
    },
    {
      "name": "wing_strut_right",
      "primitives": [
        {
          "attributes": {
            "POSITION": 36
          },
          "indices": 37,
          "mode": 4
        }
      ]
    },
    {
      "name": "main_gear_right",
      "primitives": [
        {
          "attributes": {
            "POSITION": 38
          },
          "indices": 39,
          "mode": 4
        }
      ]
    },
    {
      "name": "main_wheel_right",
      "primitives": [
        {
          "attributes": {
            "POSITION": 40
          },
          "indices": 41,
          "mode": 4
        }
      ]
    },
    {
      "name": "nav_light_right",
      "primitives": [
        {
          "attributes": {
            "POSITION": 42
          },
          "indices": 43,
          "mode": 4
        }
      ]
    },
    {
      "name": "tail_fin",
      "primitives": [
        {
          "attributes": {
            "POSITION": 44
          },
          "indices": 45,
          "mode": 4
        }
      ]
    },
    {
      "name": "nose_gear",
      "primitives": [
        {
          "attributes": {
            "POSITION": 46
          },
          "indices": 47,
          "mode": 4
        }
      ]
    },
    {
      "name": "nose_wheel",
      "primitives": [
        {
          "attributes": {
            "POSITION": 48
          },
          "indices": 49,
          "mode": 4
        }
      ]
    },
    {
      "name": "prop_blade_1",
      "primitives": [
        {
          "attributes": {
            "POSITION": 50
          },
          "indices": 51,
          "mode": 4
        }
      ]
    },
    {
      "name": "prop_blade_2",
      "primitives": [
        {
          "attributes": {
            "POSITION": 52
          },
          "indices": 53,
          "mode": 4
        }
      ]
    },
    {
      "name": "beacon",
      "primitives": [
        {
          "attributes": {
            "POSITION": 54
          },
          "indices": 55,
          "mode": 4
        }
      ]
    },
    {
      "name": "livery_accent_left",
      "primitives": [
        {
          "attributes": {
            "POSITION": 56
          },
          "indices": 57,
          "mode": 4
        }
      ]
    },
    {
      "name": "livery_accent_right",
      "primitives": [
        {
          "attributes": {
            "POSITION": 58
          },
          "indices": 59,
          "mode": 4
        }
      ]
    },
    {
      "name": "rudder_accent",
      "primitives": [
        {
          "attributes": {
            "POSITION": 60
          },
          "indices": 61,
          "mode": 4
        }
      ]
    }
  ],
  "nodes": [
    {
      "name": "fuselage",
      "mesh": 0
    },
    {
      "name": "cowl",
      "mesh": 1
    },
    {
      "name": "spinner",
      "mesh": 2
    },
    {
      "name": "windscreen_glass",
      "mesh": 3
    },
    {
      "name": "window_glass_left",
      "mesh": 4
    },
    {
      "name": "door_seam_left",
      "mesh": 5
    },
    {
      "name": "door_handle_left",
      "mesh": 6
    },
    {
      "name": "wing_left",
      "mesh": 7
    },
    {
      "name": "tailplane_left",
      "mesh": 8
    },
    {
      "name": "wing_strut_left",
      "mesh": 9
    },
    {
      "name": "main_gear_left",
      "mesh": 10
    },
    {
      "name": "main_wheel_left",
      "mesh": 11
    },
    {
      "name": "nav_light_left",
      "mesh": 12
    },
    {
      "name": "window_glass_right",
      "mesh": 13
    },
    {
      "name": "door_seam_right",
      "mesh": 14
    },
    {
      "name": "door_handle_right",
      "mesh": 15
    },
    {
      "name": "wing_right",
      "mesh": 16
    },
    {
      "name": "tailplane_right",
      "mesh": 17
    },
    {
      "name": "wing_strut_right",
      "mesh": 18
    },
    {
      "name": "main_gear_right",
      "mesh": 19
    },
    {
      "name": "main_wheel_right",
      "mesh": 20
    },
    {
      "name": "nav_light_right",
      "mesh": 21
    },
    {
      "name": "tail_fin",
      "mesh": 22
    },
    {
      "name": "nose_gear",
      "mesh": 23
    },
    {
      "name": "nose_wheel",
      "mesh": 24
    },
    {
      "name": "prop_blade_1",
      "mesh": 25
    },
    {
      "name": "prop_blade_2",
      "mesh": 26
    },
    {
      "name": "beacon",
      "mesh": 27
    },
    {
      "name": "livery_accent_left",
      "mesh": 28
    },
    {
      "name": "livery_accent_right",
      "mesh": 29
    },
    {
      "name": "rudder_accent",
      "mesh": 30
    }
  ],
  "scenes": [
    {
      "name": "mdl_parafield_trainer_v01",
      "nodes": [
        0,
        1,
        2,
        3,
        4,
        5,
        6,
        7,
        8,
        9,
        10,
        11,
        12,
        13,
        14,
        15,
        16,
        17,
        18,
        19,
        20,
        21,
        22,
        23,
        24,
        25,
        26,
        27,
        28,
        29,
        30
      ]
    }
  ],
  "scene": 0
}