{
  "asset": {
    "version": "2.0",
    "generator": "Airside Batch C procedural kit"
  },
  "buffers": [
    {
      "uri": "mdl_regional_turboprop_01_authored_v01.bin",
      "byteLength": 47112
    }
  ],
  "bufferViews": [
    {
      "buffer": 0,
      "byteOffset": 0,
      "byteLength": 7296,
      "target": 34962
    },
    {
      "buffer": 0,
      "byteOffset": 7296,
      "byteLength": 1728,
      "target": 34963
    },
    {
      "buffer": 0,
      "byteOffset": 9024,
      "byteLength": 1440,
      "target": 34962
    },
    {
      "buffer": 0,
      "byteOffset": 10464,
      "byteLength": 288,
      "target": 34963
    },
    {
      "buffer": 0,
      "byteOffset": 10752,
      "byteLength": 288,
      "target": 34962
    },
    {
      "buffer": 0,
      "byteOffset": 11040,
      "byteLength": 72,
      "target": 34963
    },
    {
      "buffer": 0,
      "byteOffset": 11112,
      "byteLength": 288,
      "target": 34962
    },
    {
      "buffer": 0,
      "byteOffset": 11400,
      "byteLength": 72,
      "target": 34963
    },
    {
      "buffer": 0,
      "byteOffset": 11472,
      "byteLength": 288,
      "target": 34962
    },
    {
      "buffer": 0,
      "byteOffset": 11760,
      "byteLength": 72,
      "target": 34963
    },
    {
      "buffer": 0,
      "byteOffset": 11832,
      "byteLength": 288,
      "target": 34962
    },
    {
      "buffer": 0,
      "byteOffset": 12120,
      "byteLength": 72,
      "target": 34963
    },
    {
      "buffer": 0,
      "byteOffset": 12192,
      "byteLength": 288,
      "target": 34962
    },
    {
      "buffer": 0,
      "byteOffset": 12480,
      "byteLength": 72,
      "target": 34963
    },
    {
      "buffer": 0,
      "byteOffset": 12552,
      "byteLength": 288,
      "target": 34962
    },
    {
      "buffer": 0,
      "byteOffset": 12840,
      "byteLength": 72,
      "target": 34963
    },
    {
      "buffer": 0,
      "byteOffset": 12912,
      "byteLength": 288,
      "target": 34962
    },
    {
      "buffer": 0,
      "byteOffset": 13200,
      "byteLength": 72,
      "target": 34963
    },
    {
      "buffer": 0,
      "byteOffset": 13272,
      "byteLength": 288,
      "target": 34962
    },
    {
      "buffer": 0,
      "byteOffset": 13560,
      "byteLength": 72,
      "target": 34963
    },
    {
      "buffer": 0,
      "byteOffset": 13632,
      "byteLength": 288,
      "target": 34962
    },
    {
      "buffer": 0,
      "byteOffset": 13920,
      "byteLength": 72,
      "target": 34963
    },
    {
      "buffer": 0,
      "byteOffset": 13992,
      "byteLength": 288,
      "target": 34962
    },
    {
      "buffer": 0,
      "byteOffset": 14280,
      "byteLength": 72,
      "target": 34963
    },
    {
      "buffer": 0,
      "byteOffset": 14352,
      "byteLength": 288,
      "target": 34962
    },
    {
      "buffer": 0,
      "byteOffset": 14640,
      "byteLength": 72,
      "target": 34963
    },
    {
      "buffer": 0,
      "byteOffset": 14712,
      "byteLength": 288,
      "target": 34962
    },
    {
      "buffer": 0,
      "byteOffset": 15000,
      "byteLength": 72,
      "target": 34963
    },
    {
      "buffer": 0,
      "byteOffset": 15072,
      "byteLength": 288,
      "target": 34962
    },
    {
      "buffer": 0,
      "byteOffset": 15360,
      "byteLength": 72,
      "target": 34963
    },
    {
      "buffer": 0,
      "byteOffset": 15432,
      "byteLength": 288,
      "target": 34962
    },
    {
      "buffer": 0,
      "byteOffset": 15720,
      "byteLength": 72,
      "target": 34963
    },
    {
      "buffer": 0,
      "byteOffset": 15792,
      "byteLength": 288,
      "target": 34962
    },
    {
      "buffer": 0,
      "byteOffset": 16080,
      "byteLength": 72,
      "target": 34963
    },
    {
      "buffer": 0,
      "byteOffset": 16152,
      "byteLength": 288,
      "target": 34962
    },
    {
      "buffer": 0,
      "byteOffset": 16440,
      "byteLength": 72,
      "target": 34963
    },
    {
      "buffer": 0,
      "byteOffset": 16512,
      "byteLength": 288,
      "target": 34962
    },
    {
      "buffer": 0,
      "byteOffset": 16800,
      "byteLength": 72,
      "target": 34963
    },
    {
      "buffer": 0,
      "byteOffset": 16872,
      "byteLength": 288,
      "target": 34962
    },
    {
      "buffer": 0,
      "byteOffset": 17160,
      "byteLength": 72,
      "target": 34963
    },
    {
      "buffer": 0,
      "byteOffset": 17232,
      "byteLength": 288,
      "target": 34962
    },
    {
      "buffer": 0,
      "byteOffset": 17520,
      "byteLength": 72,
      "target": 34963
    },
    {
      "buffer": 0,
      "byteOffset": 17592,
      "byteLength": 288,
      "target": 34962
    },
    {
      "buffer": 0,
      "byteOffset": 17880,
      "byteLength": 72,
      "target": 34963
    },
    {
      "buffer": 0,
      "byteOffset": 17952,
      "byteLength": 288,
      "target": 34962
    },
    {
      "buffer": 0,
      "byteOffset": 18240,
      "byteLength": 72,
      "target": 34963
    },
    {
      "buffer": 0,
      "byteOffset": 18312,
      "byteLength": 288,
      "target": 34962
    },
    {
      "buffer": 0,
      "byteOffset": 18600,
      "byteLength": 72,
      "target": 34963
    },
    {
      "buffer": 0,
      "byteOffset": 18672,
      "byteLength": 288,
      "target": 34962
    },
    {
      "buffer": 0,
      "byteOffset": 18960,
      "byteLength": 72,
      "target": 34963
    },
    {
      "buffer": 0,
      "byteOffset": 19032,
      "byteLength": 1440,
      "target": 34962
    },
    {
      "buffer": 0,
      "byteOffset": 20472,
      "byteLength": 288,
      "target": 34963
    },
    {
      "buffer": 0,
      "byteOffset": 20760,
      "byteLength": 1440,
      "target": 34962
    },
    {
      "buffer": 0,
      "byteOffset": 22200,
      "byteLength": 288,
      "target": 34963
    },
    {
      "buffer": 0,
      "byteOffset": 22488,
      "byteLength": 1200,
      "target": 34962
    },
    {
      "buffer": 0,
      "byteOffset": 23688,
      "byteLength": 240,
      "target": 34963
    },
    {
      "buffer": 0,
      "byteOffset": 23928,
      "byteLength": 1200,
      "target": 34962
    },
    {
      "buffer": 0,
      "byteOffset": 25128,
      "byteLength": 240,
      "target": 34963
    },
    {
      "buffer": 0,
      "byteOffset": 25368,
      "byteLength": 1200,
      "target": 34962
    },
    {
      "buffer": 0,
      "byteOffset": 26568,
      "byteLength": 240,
      "target": 34963
    },
    {
      "buffer": 0,
      "byteOffset": 26808,
      "byteLength": 1200,
      "target": 34962
    },
    {
      "buffer": 0,
      "byteOffset": 28008,
      "byteLength": 240,
      "target": 34963
    },
    {
      "buffer": 0,
      "byteOffset": 28248,
      "byteLength": 960,
      "target": 34962
    },
    {
      "buffer": 0,
      "byteOffset": 29208,
      "byteLength": 192,
      "target": 34963
    },
    {
      "buffer": 0,
      "byteOffset": 29400,
      "byteLength": 960,
      "target": 34962
    },
    {
      "buffer": 0,
      "byteOffset": 30360,
      "byteLength": 192,
      "target": 34963
    },
    {
      "buffer": 0,
      "byteOffset": 30552,
      "byteLength": 288,
      "target": 34962
    },
    {
      "buffer": 0,
      "byteOffset": 30840,
      "byteLength": 72,
      "target": 34963
    },
    {
      "buffer": 0,
      "byteOffset": 30912,
      "byteLength": 288,
      "target": 34962
    },
    {
      "buffer": 0,
      "byteOffset": 31200,
      "byteLength": 72,
      "target": 34963
    },
    {
      "buffer": 0,
      "byteOffset": 31272,
      "byteLength": 288,
      "target": 34962
    },
    {
      "buffer": 0,
      "byteOffset": 31560,
      "byteLength": 72,
      "target": 34963
    },
    {
      "buffer": 0,
      "byteOffset": 31632,
      "byteLength": 288,
      "target": 34962
    },
    {
      "buffer": 0,
      "byteOffset": 31920,
      "byteLength": 72,
      "target": 34963
    },
    {
      "buffer": 0,
      "byteOffset": 31992,
      "byteLength": 1200,
      "target": 34962
    },
    {
      "buffer": 0,
      "byteOffset": 33192,
      "byteLength": 240,
      "target": 34963
    },
    {
      "buffer": 0,
      "byteOffset": 33432,
      "byteLength": 1200,
      "target": 34962
    },
    {
      "buffer": 0,
      "byteOffset": 34632,
      "byteLength": 240,
      "target": 34963
    },
    {
      "buffer": 0,
      "byteOffset": 34872,
      "byteLength": 288,
      "target": 34962
    },
    {
      "buffer": 0,
      "byteOffset": 35160,
      "byteLength": 72,
      "target": 34963
    },
    {
      "buffer": 0,
      "byteOffset": 35232,
      "byteLength": 288,
      "target": 34962
    },
    {
      "buffer": 0,
      "byteOffset": 35520,
      "byteLength": 72,
      "target": 34963
    },
    {
      "buffer": 0,
      "byteOffset": 35592,
      "byteLength": 288,
      "target": 34962
    },
    {
      "buffer": 0,
      "byteOffset": 35880,
      "byteLength": 72,
      "target": 34963
    },
    {
      "buffer": 0,
      "byteOffset": 35952,
      "byteLength": 288,
      "target": 34962
    },
    {
      "buffer": 0,
      "byteOffset": 36240,
      "byteLength": 72,
      "target": 34963
    },
    {
      "buffer": 0,
      "byteOffset": 36312,
      "byteLength": 288,
      "target": 34962
    },
    {
      "buffer": 0,
      "byteOffset": 36600,
      "byteLength": 72,
      "target": 34963
    },
    {
      "buffer": 0,
      "byteOffset": 36672,
      "byteLength": 288,
      "target": 34962
    },
    {
      "buffer": 0,
      "byteOffset": 36960,
      "byteLength": 72,
      "target": 34963
    },
    {
      "buffer": 0,
      "byteOffset": 37032,
      "byteLength": 288,
      "target": 34962
    },
    {
      "buffer": 0,
      "byteOffset": 37320,
      "byteLength": 72,
      "target": 34963
    },
    {
      "buffer": 0,
      "byteOffset": 37392,
      "byteLength": 288,
      "target": 34962
    },
    {
      "buffer": 0,
      "byteOffset": 37680,
      "byteLength": 72,
      "target": 34963
    },
    {
      "buffer": 0,
      "byteOffset": 37752,
      "byteLength": 288,
      "target": 34962
    },
    {
      "buffer": 0,
      "byteOffset": 38040,
      "byteLength": 72,
      "target": 34963
    },
    {
      "buffer": 0,
      "byteOffset": 38112,
      "byteLength": 288,
      "target": 34962
    },
    {
      "buffer": 0,
      "byteOffset": 38400,
      "byteLength": 72,
      "target": 34963
    },
    {
      "buffer": 0,
      "byteOffset": 38472,
      "byteLength": 288,
      "target": 34962
    },
    {
      "buffer": 0,
      "byteOffset": 38760,
      "byteLength": 72,
      "target": 34963
    },
    {
      "buffer": 0,
      "byteOffset": 38832,
      "byteLength": 288,
      "target": 34962
    },
    {
      "buffer": 0,
      "byteOffset": 39120,
      "byteLength": 72,
      "target": 34963
    },
    {
      "buffer": 0,
      "byteOffset": 39192,
      "byteLength": 288,
      "target": 34962
    },
    {
      "buffer": 0,
      "byteOffset": 39480,
      "byteLength": 72,
      "target": 34963
    },
    {
      "buffer": 0,
      "byteOffset": 39552,
      "byteLength": 1200,
      "target": 34962
    },
    {
      "buffer": 0,
      "byteOffset": 40752,
      "byteLength": 240,
      "target": 34963
    },
    {
      "buffer": 0,
      "byteOffset": 40992,
      "byteLength": 1200,
      "target": 34962
    },
    {
      "buffer": 0,
      "byteOffset": 42192,
      "byteLength": 240,
      "target": 34963
    },
    {
      "buffer": 0,
      "byteOffset": 42432,
      "byteLength": 1200,
      "target": 34962
    },
    {
      "buffer": 0,
      "byteOffset": 43632,
      "byteLength": 240,
      "target": 34963
    },
    {
      "buffer": 0,
      "byteOffset": 43872,
      "byteLength": 288,
      "target": 34962
    },
    {
      "buffer": 0,
      "byteOffset": 44160,
      "byteLength": 72,
      "target": 34963
    },
    {
      "buffer": 0,
      "byteOffset": 44232,
      "byteLength": 288,
      "target": 34962
    },
    {
      "buffer": 0,
      "byteOffset": 44520,
      "byteLength": 72,
      "target": 34963
    },
    {
      "buffer": 0,
      "byteOffset": 44592,
      "byteLength": 288,
      "target": 34962
    },
    {
      "buffer": 0,
      "byteOffset": 44880,
      "byteLength": 72,
      "target": 34963
    },
    {
      "buffer": 0,
      "byteOffset": 44952,
      "byteLength": 288,
      "target": 34962
    },
    {
      "buffer": 0,
      "byteOffset": 45240,
      "byteLength": 72,
      "target": 34963
    },
    {
      "buffer": 0,
      "byteOffset": 45312,
      "byteLength": 288,
      "target": 34962
    },
    {
      "buffer": 0,
      "byteOffset": 45600,
      "byteLength": 72,
      "target": 34963
    },
    {
      "buffer": 0,
      "byteOffset": 45672,
      "byteLength": 288,
      "target": 34962
    },
    {
      "buffer": 0,
      "byteOffset": 45960,
      "byteLength": 72,
      "target": 34963
    },
    {
      "buffer": 0,
      "byteOffset": 46032,
      "byteLength": 288,
      "target": 34962
    },
    {
      "buffer": 0,
      "byteOffset": 46320,
      "byteLength": 72,
      "target": 34963
    },
    {
      "buffer": 0,
      "byteOffset": 46392,
      "byteLength": 288,
      "target": 34962
    },
    {
      "buffer": 0,
      "byteOffset": 46680,
      "byteLength": 72,
      "target": 34963
    },
    {
      "buffer": 0,
      "byteOffset": 46752,
      "byteLength": 288,
      "target": 34962
    },
    {
      "buffer": 0,
      "byteOffset": 47040,
      "byteLength": 72,
      "target": 34963
    }
  ],
  "accessors": [
    {
      "bufferView": 0,
      "componentType": 5126,
      "count": 608,
      "type": "VEC3",
      "max": [
        0.7200000286102295,
        1.899999976158142,
        5.199999809265137
      ],
      "min": [
        -0.7200000286102295,
        0.44999998807907104,
        -4.199999809265137
      ]
    },
    {
      "bufferView": 1,
      "componentType": 5123,
      "count": 864,
      "type": "SCALAR"
    },
    {
      "bufferView": 2,
      "componentType": 5126,
      "count": 120,
      "type": "VEC3",
      "max": [
        0.41999998688697815,
        0.9399999976158142,
        2.299999952316284
      ],
      "min": [
        -0.41999998688697815,
        0.10000000149011612,
        -1.899999976158142
      ]
    },
    {
      "bufferView": 3,
      "componentType": 5123,
      "count": 144,
      "type": "SCALAR"
    },
    {
      "bufferView": 4,
      "componentType": 5126,
      "count": 24,
      "type": "VEC3",
      "max": [
        0.4749999940395355,
        1.8250000476837158,
        4.099999904632568
      ],
      "min": [
        -0.4749999940395355,
        1.274999976158142,
        3.0
      ]
    },
    {
      "bufferView": 5,
      "componentType": 5123,
      "count": 36,
      "type": "SCALAR"
    },
    {
      "bufferView": 6,
      "componentType": 5126,
      "count": 24,
      "type": "VEC3",
      "max": [
        0.5,
        1.850000023841858,
        4.125
      ],
      "min": [
        -0.5,
        1.7899999618530273,
        2.9749999046325684
      ]
    },
    {
      "bufferView": 7,
      "componentType": 5123,
      "count": 36,
      "type": "SCALAR"
    },
    {
      "bufferView": 8,
      "componentType": 5126,
      "count": 24,
      "type": "VEC3",
      "max": [
        0.7400000095367432,
        1.440000057220459,
        2.5
      ],
      "min": [
        -0.7400000095367432,
        1.3200000524520874,
        -1.7000000476837158
      ]
    },
    {
      "bufferView": 9,
      "componentType": 5123,
      "count": 36,
      "type": "SCALAR"
    },
    {
      "bufferView": 10,
      "componentType": 5126,
      "count": 24,
      "type": "VEC3",
      "max": [
        -0.7149999737739563,
        1.5099999904632568,
        2.240000009536743
      ],
      "min": [
        -0.7649999856948853,
        1.25,
        1.7599999904632568
      ]
    },
    {
      "bufferView": 11,
      "componentType": 5123,
      "count": 36,
      "type": "SCALAR"
    },
    {
      "bufferView": 12,
      "componentType": 5126,
      "count": 24,
      "type": "VEC3",
      "max": [
        -0.7149999737739563,
        1.5099999904632568,
        1.340000033378601
      ],
      "min": [
        -0.7649999856948853,
        1.25,
        0.8600000143051147
      ]
    },
    {
      "bufferView": 13,
      "componentType": 5123,
      "count": 36,
      "type": "SCALAR"
    },
    {
      "bufferView": 14,
      "componentType": 5126,
      "count": 24,
      "type": "VEC3",
      "max": [
        -0.7149999737739563,
        1.5099999904632568,
        0.4399999976158142
      ],
      "min": [
        -0.7649999856948853,
        1.25,
        -0.03999999910593033
      ]
    },
    {
      "bufferView": 15,
      "componentType": 5123,
      "count": 36,
      "type": "SCALAR"
    },
    {
      "bufferView": 16,
      "componentType": 5126,
      "count": 24,
      "type": "VEC3",
      "max": [
        -0.7149999737739563,
        1.5099999904632568,
        -0.46000000834465027
      ],
      "min": [
        -0.7649999856948853,
        1.25,
        -0.9399999976158142
      ]
    },
    {
      "bufferView": 17,
      "componentType": 5123,
      "count": 36,
      "type": "SCALAR"
    },
    {
      "bufferView": 18,
      "componentType": 5126,
      "count": 24,
      "type": "VEC3",
      "max": [
        -0.7149999737739563,
        1.5099999904632568,
        -1.3600000143051147
      ],
      "min": [
        -0.7649999856948853,
        1.25,
        -1.840000033378601
      ]
    },
    {
      "bufferView": 19,
      "componentType": 5123,
      "count": 36,
      "type": "SCALAR"
    },
    {
      "bufferView": 20,
      "componentType": 5126,
      "count": 24,
      "type": "VEC3",
      "max": [
        0.7649999856948853,
        1.5099999904632568,
        2.240000009536743
      ],
      "min": [
        0.7149999737739563,
        1.25,
        1.7599999904632568
      ]
    },
    {
      "bufferView": 21,
      "componentType": 5123,
      "count": 36,
      "type": "SCALAR"
    },
    {
      "bufferView": 22,
      "componentType": 5126,
      "count": 24,
      "type": "VEC3",
      "max": [
        0.7649999856948853,
        1.5099999904632568,
        1.340000033378601
      ],
      "min": [
        0.7149999737739563,
        1.25,
        0.8600000143051147
      ]
    },
    {
      "bufferView": 23,
      "componentType": 5123,
      "count": 36,
      "type": "SCALAR"
    },
    {
      "bufferView": 24,
      "componentType": 5126,
      "count": 24,
      "type": "VEC3",
      "max": [
        0.7649999856948853,
        1.5099999904632568,
        0.4399999976158142
      ],
      "min": [
        0.7149999737739563,
        1.25,
        -0.03999999910593033
      ]
    },
    {
      "bufferView": 25,
      "componentType": 5123,
      "count": 36,
      "type": "SCALAR"
    },
    {
      "bufferView": 26,
      "componentType": 5126,
      "count": 24,
      "type": "VEC3",
      "max": [
        0.7649999856948853,
        1.5099999904632568,
        -0.46000000834465027
      ],
      "min": [
        0.7149999737739563,
        1.25,
        -0.9399999976158142
      ]
    },
    {
      "bufferView": 27,
      "componentType": 5123,
      "count": 36,
      "type": "SCALAR"
    },
    {
      "bufferView": 28,
      "componentType": 5126,
      "count": 24,
      "type": "VEC3",
      "max": [
        0.7649999856948853,
        1.5099999904632568,
        -1.3600000143051147
      ],
      "min": [
        0.7149999737739563,
        1.25,
        -1.840000033378601
      ]
    },
    {
      "bufferView": 29,
      "componentType": 5123,
      "count": 36,
      "type": "SCALAR"
    },
    {
      "bufferView": 30,
      "componentType": 5126,
      "count": 24,
      "type": "VEC3",
      "max": [
        -0.699999988079071,
        1.1200000047683716,
        1.350000023841858
      ],
      "min": [
        -7.300000190734863,
        0.9800000190734863,
        -0.550000011920929
      ]
    },
    {
      "bufferView": 31,
      "componentType": 5123,
      "count": 36,
      "type": "SCALAR"
    },
    {
      "bufferView": 32,
      "componentType": 5126,
      "count": 24,
      "type": "VEC3",
      "max": [
        7.300000190734863,
        1.1200000047683716,
        1.350000023841858
      ],
      "min": [
        0.699999988079071,
        0.9800000190734863,
        -0.550000011920929
      ]
    },
    {
      "bufferView": 33,
      "componentType": 5123,
      "count": 36,
      "type": "SCALAR"
    },
    {
      "bufferView": 34,
      "componentType": 5126,
      "count": 24,
      "type": "VEC3",
      "max": [
        -0.5,
        1.190000057220459,
        1.2000000476837158
      ],
      "min": [
        -2.200000047683716,
        0.9700000286102295,
        -0.30000001192092896
      ]
    },
    {
      "bufferView": 35,
      "componentType": 5123,
      "count": 36,
      "type": "SCALAR"
    },
    {
      "bufferView": 36,
      "componentType": 5126,
      "count": 24,
      "type": "VEC3",
      "max": [
        2.200000047683716,
        1.190000057220459,
        1.2000000476837158
      ],
      "min": [
        0.5,
        0.9700000286102295,
        -0.30000001192092896
      ]
    },
    {
      "bufferView": 37,
      "componentType": 5123,
      "count": 36,
      "type": "SCALAR"
    },
    {
      "bufferView": 38,
      "componentType": 5126,
      "count": 24,
      "type": "VEC3",
      "max": [
        -1.7000000476837158,
        1.034999966621399,
        -0.14000000059604645
      ],
      "min": [
        -4.699999809265137,
        0.9649999737739563,
        -0.5600000023841858
      ]
    },
    {
      "bufferView": 39,
      "componentType": 5123,
      "count": 36,
      "type": "SCALAR"
    },
    {
      "bufferView": 40,
      "componentType": 5126,
      "count": 24,
      "type": "VEC3",
      "max": [
        4.699999809265137,
        1.034999966621399,
        -0.14000000059604645
      ],
      "min": [
        1.7000000476837158,
        0.9649999737739563,
        -0.5600000023841858
      ]
    },
    {
      "bufferView": 41,
      "componentType": 5123,
      "count": 36,
      "type": "SCALAR"
    },
    {
      "bufferView": 42,
      "componentType": 5126,
      "count": 24,
      "type": "VEC3",
      "max": [
        -5.25,
        1.0499999523162842,
        0.4000000059604645
      ],
      "min": [
        -6.949999809265137,
        0.9900000095367432,
        -0.10000000149011612
      ]
    },
    {
      "bufferView": 43,
      "componentType": 5123,
      "count": 36,
      "type": "SCALAR"
    },
    {
      "bufferView": 44,
      "componentType": 5126,
      "count": 24,
      "type": "VEC3",
      "max": [
        6.949999809265137,
        1.0499999523162842,
        0.4000000059604645
      ],
      "min": [
        5.25,
        0.9900000095367432,
        -0.10000000149011612
      ]
    },
    {
      "bufferView": 45,
      "componentType": 5123,
      "count": 36,
      "type": "SCALAR"
    },
    {
      "bufferView": 46,
      "componentType": 5126,
      "count": 24,
      "type": "VEC3",
      "max": [
        -7.300000190734863,
        1.7000000476837158,
        0.6499999761581421
      ],
      "min": [
        -7.400000095367432,
        1.100000023841858,
        0.25
      ]
    },
    {
      "bufferView": 47,
      "componentType": 5123,
      "count": 36,
      "type": "SCALAR"
    },
    {
      "bufferView": 48,
      "componentType": 5126,
      "count": 24,
      "type": "VEC3",
      "max": [
        7.400000095367432,
        1.7000000476837158,
        0.6499999761581421
      ],
      "min": [
        7.300000190734863,
        1.100000023841858,
        0.25
      ]
    },
    {
      "bufferView": 49,
      "componentType": 5123,
      "count": 36,
      "type": "SCALAR"
    },
    {
      "bufferView": 50,
      "componentType": 5126,
      "count": 120,
      "type": "VEC3",
      "max": [
        -2.0199999809265137,
        1.2300000190734863,
        2.049999952316284
      ],
      "min": [
        -2.7799999713897705,
        0.4699999988079071,
        -0.05000000819563866
      ]
    },
    {
      "bufferView": 51,
      "componentType": 5123,
      "count": 144,
      "type": "SCALAR"
    },
    {
      "bufferView": 52,
      "componentType": 5126,
      "count": 120,
      "type": "VEC3",
      "max": [
        2.7799999713897705,
        1.2300000190734863,
        2.049999952316284
      ],
      "min": [
        2.0199999809265137,
        0.4699999988079071,
        -0.05000000819563866
      ]
    },
    {
      "bufferView": 53,
      "componentType": 5123,
      "count": 144,
      "type": "SCALAR"
    },
    {
      "bufferView": 54,
      "componentType": 5126,
      "count": 100,
      "type": "VEC3",
      "max": [
        -2.119999885559082,
        0.7862958312034607,
        1.149999976158142
      ],
      "min": [
        -2.680000066757202,
        0.2537041902542114,
        -0.05000000447034836
      ]
    },
    {
      "bufferView": 55,
      "componentType": 5123,
      "count": 120,
      "type": "SCALAR"
    },
    {
      "bufferView": 56,
      "componentType": 5126,
      "count": 100,
      "type": "VEC3",
      "max": [
        2.680000066757202,
        0.7862958312034607,
        1.149999976158142
      ],
      "min": [
        2.119999885559082,
        0.2537041902542114,
        -0.05000000447034836
      ]
    },
    {
      "bufferView": 57,
      "componentType": 5123,
      "count": 120,
      "type": "SCALAR"
    },
    {
      "bufferView": 58,
      "componentType": 5126,
      "count": 100,
      "type": "VEC3",
      "max": [
        -2.119999885559082,
        1.216295838356018,
        2.174999952316284
      ],
      "min": [
        -2.680000066757202,
        0.6837041974067688,
        1.8250000476837158
      ]
    },
    {
      "bufferView": 59,
      "componentType": 5123,
      "count": 120,
      "type": "SCALAR"
    },
    {
      "bufferView": 60,
      "componentType": 5126,
      "count": 100,
      "type": "VEC3",
      "max": [
        2.680000066757202,
        1.216295838356018,
        2.174999952316284
      ],
      "min": [
        2.119999885559082,
        0.6837041974067688,
        1.8250000476837158
      ]
    },
    {
      "bufferView": 61,
      "componentType": 5123,
      "count": 120,
      "type": "SCALAR"
    },
    {
      "bufferView": 62,
      "componentType": 5126,
      "count": 80,
      "type": "VEC3",
      "max": [
        -2.2200000286102295,
        0.8799999952316284,
        0.05000000447034836
      ],
      "min": [
        -2.5799999237060547,
        0.5199999809265137,
        -0.45000001788139343
      ]
    },
    {
      "bufferView": 63,
      "componentType": 5123,
      "count": 96,
      "type": "SCALAR"
    },
    {
      "bufferView": 64,
      "componentType": 5126,
      "count": 80,
      "type": "VEC3",
      "max": [
        2.5799999237060547,
        0.8799999952316284,
        0.05000000447034836
      ],
      "min": [
        2.2200000286102295,
        0.5199999809265137,
        -0.45000001788139343
      ]
    },
    {
      "bufferView": 65,
      "componentType": 5123,
      "count": 96,
      "type": "SCALAR"
    },
    {
      "bufferView": 66,
      "componentType": 5126,
      "count": 24,
      "type": "VEC3",
      "max": [
        -2.359999895095825,
        2.049999952316284,
        2.3299999237060547
      ],
      "min": [
        -2.440000057220459,
        -0.3499999940395355,
        2.1700000762939453
      ]
    },
    {
      "bufferView": 67,
      "componentType": 5123,
      "count": 36,
      "type": "SCALAR"
    },
    {
      "bufferView": 68,
      "componentType": 5126,
      "count": 24,
      "type": "VEC3",
      "max": [
        -1.2000000476837158,
        0.8899999856948853,
        2.3299999237060547
      ],
      "min": [
        -3.5999999046325684,
        0.8100000023841858,
        2.1700000762939453
      ]
    },
    {
      "bufferView": 69,
      "componentType": 5123,
      "count": 36,
      "type": "SCALAR"
    },
    {
      "bufferView": 70,
      "componentType": 5126,
      "count": 24,
      "type": "VEC3",
      "max": [
        2.440000057220459,
        2.049999952316284,
        2.3299999237060547
      ],
      "min": [
        2.359999895095825,
        -0.3499999940395355,
        2.1700000762939453
      ]
    },
    {
      "bufferView": 71,
      "componentType": 5123,
      "count": 36,
      "type": "SCALAR"
    },
    {
      "bufferView": 72,
      "componentType": 5126,
      "count": 24,
      "type": "VEC3",
      "max": [
        3.5999999046325684,
        0.8899999856948853,
        2.3299999237060547
      ],
      "min": [
        1.2000000476837158,
        0.8100000023841858,
        2.1700000762939453
      ]
    },
    {
      "bufferView": 73,
      "componentType": 5123,
      "count": 36,
      "type": "SCALAR"
    },
    {
      "bufferView": 74,
      "componentType": 5126,
      "count": 100,
      "type": "VEC3",
      "max": [
        -2.240000009536743,
        1.0021690130233765,
        2.6000001430511475
      ],
      "min": [
        -2.559999942779541,
        0.6978309750556946,
        2.240000009536743
      ]
    },
    {
      "bufferView": 75,
      "componentType": 5123,
      "count": 120,
      "type": "SCALAR"
    },
    {
      "bufferView": 76,
      "componentType": 5126,
      "count": 100,
      "type": "VEC3",
      "max": [
        2.559999942779541,
        1.0021690130233765,
        2.6000001430511475
      ],
      "min": [
        2.240000009536743,
        0.6978309750556946,
        2.240000009536743
      ]
    },
    {
      "bufferView": 77,
      "componentType": 5123,
      "count": 120,
      "type": "SCALAR"
    },
    {
      "bufferView": 78,
      "componentType": 5126,
      "count": 24,
      "type": "VEC3",
      "max": [
        0.05999999865889549,
        3.549999952316284,
        -2.9749999046325684
      ],
      "min": [
        -0.05999999865889549,
        1.350000023841858,
        -4.425000190734863
      ]
    },
    {
      "bufferView": 79,
      "componentType": 5123,
      "count": 36,
      "type": "SCALAR"
    },
    {
      "bufferView": 80,
      "componentType": 5126,
      "count": 24,
      "type": "VEC3",
      "max": [
        0.05000000074505806,
        3.625,
        -3.1500000953674316
      ],
      "min": [
        -0.05000000074505806,
        3.2750000953674316,
        -3.8499999046325684
      ]
    },
    {
      "bufferView": 81,
      "componentType": 5123,
      "count": 36,
      "type": "SCALAR"
    },
    {
      "bufferView": 82,
      "componentType": 5126,
      "count": 24,
      "type": "VEC3",
      "max": [
        1.7000000476837158,
        1.7999999523162842,
        -3.3499999046325684
      ],
      "min": [
        -1.7000000476837158,
        1.7000000476837158,
        -4.349999904632568
      ]
    },
    {
      "bufferView": 83,
      "componentType": 5123,
      "count": 36,
      "type": "SCALAR"
    },
    {
      "bufferView": 84,
      "componentType": 5126,
      "count": 24,
      "type": "VEC3",
      "max": [
        -0.44999998807907104,
        1.7450000047683716,
        -4.050000190734863
      ],
      "min": [
        -1.75,
        1.6950000524520874,
        -4.449999809265137
      ]
    },
    {
      "bufferView": 85,
      "componentType": 5123,
      "count": 36,
      "type": "SCALAR"
    },
    {
      "bufferView": 86,
      "componentType": 5126,
      "count": 24,
      "type": "VEC3",
      "max": [
        1.75,
        1.7450000047683716,
        -4.050000190734863
      ],
      "min": [
        0.44999998807907104,
        1.6950000524520874,
        -4.449999809265137
      ]
    },
    {
      "bufferView": 87,
      "componentType": 5123,
      "count": 36,
      "type": "SCALAR"
    },
    {
      "bufferView": 88,
      "componentType": 5126,
      "count": 24,
      "type": "VEC3",
      "max": [
        0.04500000178813934,
        3.299999952316284,
        -4.125
      ],
      "min": [
        -0.04500000178813934,
        1.7000000476837158,
        -4.574999809265137
      ]
    },
    {
      "bufferView": 89,
      "componentType": 5123,
      "count": 36,
      "type": "SCALAR"
    },
    {
      "bufferView": 90,
      "componentType": 5126,
      "count": 24,
      "type": "VEC3",
      "max": [
        0.04500000178813934,
        2.049999952316284,
        -2.375
      ],
      "min": [
        -0.04500000178813934,
        1.5499999523162842,
        -3.2249999046325684
      ]
    },
    {
      "bufferView": 91,
      "componentType": 5123,
      "count": 36,
      "type": "SCALAR"
    },
    {
      "bufferView": 92,
      "componentType": 5126,
      "count": 24,
      "type": "VEC3",
      "max": [
        0.05999999865889549,
        0.7400000095367432,
        3.309999942779541
      ],
      "min": [
        -0.05999999865889549,
        0.019999999552965164,
        2.990000009536743
      ]
    },
    {
      "bufferView": 93,
      "componentType": 5123,
      "count": 36,
      "type": "SCALAR"
    },
    {
      "bufferView": 94,
      "componentType": 5126,
      "count": 24,
      "type": "VEC3",
      "max": [
        -1.090000033378601,
        0.6800000071525574,
        -0.14000000059604645
      ],
      "min": [
        -1.2100000381469727,
        -0.03999999910593033,
        -0.5600000023841858
      ]
    },
    {
      "bufferView": 95,
      "componentType": 5123,
      "count": 36,
      "type": "SCALAR"
    },
    {
      "bufferView": 96,
      "componentType": 5126,
      "count": 24,
      "type": "VEC3",
      "max": [
        1.2100000381469727,
        0.6800000071525574,
        -0.14000000059604645
      ],
      "min": [
        1.090000033378601,
        -0.03999999910593033,
        -0.5600000023841858
      ]
    },
    {
      "bufferView": 97,
      "componentType": 5123,
      "count": 36,
      "type": "SCALAR"
    },
    {
      "bufferView": 98,
      "componentType": 5126,
      "count": 24,
      "type": "VEC3",
      "max": [
        0.25,
        0.574999988079071,
        3.4749999046325684
      ],
      "min": [
        -0.25,
        0.5249999761581421,
        2.825000047683716
      ]
    },
    {
      "bufferView": 99,
      "componentType": 5123,
      "count": 36,
      "type": "SCALAR"
    },
    {
      "bufferView": 100,
      "componentType": 5126,
      "count": 24,
      "type": "VEC3",
      "max": [
        -0.8500000238418579,
        0.574999988079071,
        0.05000000074505806
      ],
      "min": [
        -1.4500000476837158,
        0.5249999761581421,
        -0.75
      ]
    },
    {
      "bufferView": 101,
      "componentType": 5123,
      "count": 36,
      "type": "SCALAR"
    },
    {
      "bufferView": 102,
      "componentType": 5126,
      "count": 24,
      "type": "VEC3",
      "max": [
        1.4500000476837158,
        0.574999988079071,
        0.05000000074505806
      ],
      "min": [
        0.8500000238418579,
        0.5249999761581421,
        -0.75
      ]
    },
    {
      "bufferView": 103,
      "componentType": 5123,
      "count": 36,
      "type": "SCALAR"
    },
    {
      "bufferView": 104,
      "componentType": 5126,
      "count": 100,
      "type": "VEC3",
      "max": [
        0.10000000894069672,
        0.2531479001045227,
        3.2899999618530273
      ],
      "min": [
        -0.10000000894069672,
        -0.013147911988198757,
        3.009999990463257
      ]
    },
    {
      "bufferView": 105,
      "componentType": 5123,
      "count": 120,
      "type": "SCALAR"
    },
    {
      "bufferView": 106,
      "componentType": 5126,
      "count": 100,
      "type": "VEC3",
      "max": [
        -1.0599998235702515,
        0.2721690535545349,
        -0.1899999976158142
      ],
      "min": [
        -1.2400000095367432,
        -0.03216904401779175,
        -0.5099999904632568
      ]
    },
    {
      "bufferView": 107,
      "componentType": 5123,
      "count": 120,
      "type": "SCALAR"
    },
    {
      "bufferView": 108,
      "componentType": 5126,
      "count": 100,
      "type": "VEC3",
      "max": [
        1.2400000095367432,
        0.2721690535545349,
        -0.1899999976158142
      ],
      "min": [
        1.0599998235702515,
        -0.03216904401779175,
        -0.5099999904632568
      ]
    },
    {
      "bufferView": 109,
      "componentType": 5123,
      "count": 120,
      "type": "SCALAR"
    },
    {
      "bufferView": 110,
      "componentType": 5126,
      "count": 24,
      "type": "VEC3",
      "max": [
        -0.6850000023841858,
        1.600000023841858,
        2.700000047683716
      ],
      "min": [
        -0.7549999952316284,
        0.6000000238418579,
        1.5
      ]
    },
    {
      "bufferView": 111,
      "componentType": 5123,
      "count": 36,
      "type": "SCALAR"
    },
    {
      "bufferView": 112,
      "componentType": 5126,
      "count": 24,
      "type": "VEC3",
      "max": [
        0.7549999952316284,
        1.4500000476837158,
        -0.75
      ],
      "min": [
        0.6850000023841858,
        0.550000011920929,
        -2.25
      ]
    },
    {
      "bufferView": 113,
      "componentType": 5123,
      "count": 36,
      "type": "SCALAR"
    },
    {
      "bufferView": 114,
      "componentType": 5126,
      "count": 24,
      "type": "VEC3",
      "max": [
        0.02500000037252903,
        2.299999952316284,
        1.225000023841858
      ],
      "min": [
        -0.02500000037252903,
        1.7999999523162842,
        1.1749999523162842
      ]
    },
    {
      "bufferView": 115,
      "componentType": 5123,
      "count": 36,
      "type": "SCALAR"
    },
    {
      "bufferView": 116,
      "componentType": 5126,
      "count": 24,
      "type": "VEC3",
      "max": [
        -7.300000190734863,
        1.1299999952316284,
        0.550000011920929
      ],
      "min": [
        -7.400000095367432,
        1.0299999713897705,
        0.44999998807907104
      ]
    },
    {
      "bufferView": 117,
      "componentType": 5123,
      "count": 36,
      "type": "SCALAR"
    },
    {
      "bufferView": 118,
      "componentType": 5126,
      "count": 24,
      "type": "VEC3",
      "max": [
        7.400000095367432,
        1.1299999952316284,
        0.550000011920929
      ],
      "min": [
        7.300000190734863,
        1.0299999713897705,
        0.44999998807907104
      ]
    },
    {
      "bufferView": 119,
      "componentType": 5123,
      "count": 36,
      "type": "SCALAR"
    },
    {
      "bufferView": 120,
      "componentType": 5126,
      "count": 24,
      "type": "VEC3",
      "max": [
        0.05999999865889549,
        3.009999990463257,
        -3.2899999618530273
      ],
      "min": [
        -0.05999999865889549,
        2.890000104904175,
        -3.4100000858306885
      ]
    },
    {
      "bufferView": 121,
      "componentType": 5123,
      "count": 36,
      "type": "SCALAR"
    },
    {
      "bufferView": 122,
      "componentType": 5126,
      "count": 24,
      "type": "VEC3",
      "max": [
        -2.4700000286102295,
        1.0,
        2.049999952316284
      ],
      "min": [
        -2.630000114440918,
        0.8999999761581421,
        1.9500000476837158
      ]
    },
    {
      "bufferView": 123,
      "componentType": 5123,
      "count": 36,
      "type": "SCALAR"
    },
    {
      "bufferView": 124,
      "componentType": 5126,
      "count": 24,
      "type": "VEC3",
      "max": [
        2.630000114440918,
        1.0,
        2.049999952316284
      ],
      "min": [
        2.4700000286102295,
        0.8999999761581421,
        1.9500000476837158
      ]
    },
    {
      "bufferView": 125,
      "componentType": 5123,
      "count": 36,
      "type": "SCALAR"
    },
    {
      "bufferView": 126,
      "componentType": 5126,
      "count": 24,
      "type": "VEC3",
      "max": [
        0.07000000029802322,
        0.5950000286102295,
        3.5999999046325684
      ],
      "min": [
        -0.07000000029802322,
        0.5049999952316284,
        3.5
      ]
    },
    {
      "bufferView": 127,
      "componentType": 5123,
      "count": 36,
      "type": "SCALAR"
    }
  ],
  "meshes": [
    {
      "name": "fuselage",
      "primitives": [
        {
          "attributes": {
            "POSITION": 0
          },
          "indices": 1,
          "mode": 4
        }
      ]
    },
    {
      "name": "belly_fairing",
      "primitives": [
        {
          "attributes": {
            "POSITION": 2
          },
          "indices": 3,
          "mode": 4
        }
      ]
    },
    {
      "name": "cockpit",
      "primitives": [
        {
          "attributes": {
            "POSITION": 4
          },
          "indices": 5,
          "mode": 4
        }
      ]
    },
    {
      "name": "cockpit_frame",
      "primitives": [
        {
          "attributes": {
            "POSITION": 6
          },
          "indices": 7,
          "mode": 4
        }
      ]
    },
    {
      "name": "cabin_window_band",
      "primitives": [
        {
          "attributes": {
            "POSITION": 8
          },
          "indices": 9,
          "mode": 4
        }
      ]
    },
    {
      "name": "cabin_window_1",
      "primitives": [
        {
          "attributes": {
            "POSITION": 10
          },
          "indices": 11,
          "mode": 4
        }
      ]
    },
    {
      "name": "cabin_window_2",
      "primitives": [
        {
          "attributes": {
            "POSITION": 12
          },
          "indices": 13,
          "mode": 4
        }
      ]
    },
    {
      "name": "cabin_window_3",
      "primitives": [
        {
          "attributes": {
            "POSITION": 14
          },
          "indices": 15,
          "mode": 4
        }
      ]
    },
    {
      "name": "cabin_window_4",
      "primitives": [
        {
          "attributes": {
            "POSITION": 16
          },
          "indices": 17,
          "mode": 4
        }
      ]
    },
    {
      "name": "cabin_window_5",
      "primitives": [
        {
          "attributes": {
            "POSITION": 18
          },
          "indices": 19,
          "mode": 4
        }
      ]
    },
    {
      "name": "cabin_window_r1",
      "primitives": [
        {
          "attributes": {
            "POSITION": 20
          },
          "indices": 21,
          "mode": 4
        }
      ]
    },
    {
      "name": "cabin_window_r2",
      "primitives": [
        {
          "attributes": {
            "POSITION": 22
          },
          "indices": 23,
          "mode": 4
        }
      ]
    },
    {
      "name": "cabin_window_r3",
      "primitives": [
        {
          "attributes": {
            "POSITION": 24
          },
          "indices": 25,
          "mode": 4
        }
      ]
    },
    {
      "name": "cabin_window_r4",
      "primitives": [
        {
          "attributes": {
            "POSITION": 26
          },
          "indices": 27,
          "mode": 4
        }
      ]
    },
    {
      "name": "cabin_window_r5",
      "primitives": [
        {
          "attributes": {
            "POSITION": 28
          },
          "indices": 29,
          "mode": 4
        }
      ]
    },
    {
      "name": "wing_left",
      "primitives": [
        {
          "attributes": {
            "POSITION": 30
          },
          "indices": 31,
          "mode": 4
        }
      ]
    },
    {
      "name": "wing_right",
      "primitives": [
        {
          "attributes": {
            "POSITION": 32
          },
          "indices": 33,
          "mode": 4
        }
      ]
    },
    {
      "name": "wing_root_left",
      "primitives": [
        {
          "attributes": {
            "POSITION": 34
          },
          "indices": 35,
          "mode": 4
        }
      ]
    },
    {
      "name": "wing_root_right",
      "primitives": [
        {
          "attributes": {
            "POSITION": 36
          },
          "indices": 37,
          "mode": 4
        }
      ]
    },
    {
      "name": "flap_left",
      "primitives": [
        {
          "attributes": {
            "POSITION": 38
          },
          "indices": 39,
          "mode": 4
        }
      ]
    },
    {
      "name": "flap_right",
      "primitives": [
        {
          "attributes": {
            "POSITION": 40
          },
          "indices": 41,
          "mode": 4
        }
      ]
    },
    {
      "name": "aileron_left",
      "primitives": [
        {
          "attributes": {
            "POSITION": 42
          },
          "indices": 43,
          "mode": 4
        }
      ]
    },
    {
      "name": "aileron_right",
      "primitives": [
        {
          "attributes": {
            "POSITION": 44
          },
          "indices": 45,
          "mode": 4
        }
      ]
    },
    {
      "name": "winglet_left",
      "primitives": [
        {
          "attributes": {
            "POSITION": 46
          },
          "indices": 47,
          "mode": 4
        }
      ]
    },
    {
      "name": "winglet_right",
      "primitives": [
        {
          "attributes": {
            "POSITION": 48
          },
          "indices": 49,
          "mode": 4
        }
      ]
    },
    {
      "name": "engine_left",
      "primitives": [
        {
          "attributes": {
            "POSITION": 50
          },
          "indices": 51,
          "mode": 4
        }
      ]
    },
    {
      "name": "engine_right",
      "primitives": [
        {
          "attributes": {
            "POSITION": 52
          },
          "indices": 53,
          "mode": 4
        }
      ]
    },
    {
      "name": "nacelle_left",
      "primitives": [
        {
          "attributes": {
            "POSITION": 54
          },
          "indices": 55,
          "mode": 4
        }
      ]
    },
    {
      "name": "nacelle_right",
      "primitives": [
        {
          "attributes": {
            "POSITION": 56
          },
          "indices": 57,
          "mode": 4
        }
      ]
    },
    {
      "name": "intake_left",
      "primitives": [
        {
          "attributes": {
            "POSITION": 58
          },
          "indices": 59,
          "mode": 4
        }
      ]
    },
    {
      "name": "intake_right",
      "primitives": [
        {
          "attributes": {
            "POSITION": 60
          },
          "indices": 61,
          "mode": 4
        }
      ]
    },
    {
      "name": "exhaust_left",
      "primitives": [
        {
          "attributes": {
            "POSITION": 62
          },
          "indices": 63,
          "mode": 4
        }
      ]
    },
    {
      "name": "exhaust_right",
      "primitives": [
        {
          "attributes": {
            "POSITION": 64
          },
          "indices": 65,
          "mode": 4
        }
      ]
    },
    {
      "name": "propeller_left",
      "primitives": [
        {
          "attributes": {
            "POSITION": 66
          },
          "indices": 67,
          "mode": 4
        }
      ]
    },
    {
      "name": "propeller_left_b",
      "primitives": [
        {
          "attributes": {
            "POSITION": 68
          },
          "indices": 69,
          "mode": 4
        }
      ]
    },
    {
      "name": "propeller_right",
      "primitives": [
        {
          "attributes": {
            "POSITION": 70
          },
          "indices": 71,
          "mode": 4
        }
      ]
    },
    {
      "name": "propeller_right_b",
      "primitives": [
        {
          "attributes": {
            "POSITION": 72
          },
          "indices": 73,
          "mode": 4
        }
      ]
    },
    {
      "name": "spinner_left",
      "primitives": [
        {
          "attributes": {
            "POSITION": 74
          },
          "indices": 75,
          "mode": 4
        }
      ]
    },
    {
      "name": "spinner_right",
      "primitives": [
        {
          "attributes": {
            "POSITION": 76
          },
          "indices": 77,
          "mode": 4
        }
      ]
    },
    {
      "name": "tail_fin",
      "primitives": [
        {
          "attributes": {
            "POSITION": 78
          },
          "indices": 79,
          "mode": 4
        }
      ]
    },
    {
      "name": "tail_fin_tip",
      "primitives": [
        {
          "attributes": {
            "POSITION": 80
          },
          "indices": 81,
          "mode": 4
        }
      ]
    },
    {
      "name": "tailplane",
      "primitives": [
        {
          "attributes": {
            "POSITION": 82
          },
          "indices": 83,
          "mode": 4
        }
      ]
    },
    {
      "name": "elevator_left",
      "primitives": [
        {
          "attributes": {
            "POSITION": 84
          },
          "indices": 85,
          "mode": 4
        }
      ]
    },
    {
      "name": "elevator_right",
      "primitives": [
        {
          "attributes": {
            "POSITION": 86
          },
          "indices": 87,
          "mode": 4
        }
      ]
    },
    {
      "name": "rudder",
      "primitives": [
        {
          "attributes": {
            "POSITION": 88
          },
          "indices": 89,
          "mode": 4
        }
      ]
    },
    {
      "name": "dorsal_fin",
      "primitives": [
        {
          "attributes": {
            "POSITION": 90
          },
          "indices": 91,
          "mode": 4
        }
      ]
    },
    {
      "name": "gear_nose",
      "primitives": [
        {
          "attributes": {
            "POSITION": 92
          },
          "indices": 93,
          "mode": 4
        }
      ]
    },
    {
      "name": "gear_left",
      "primitives": [
        {
          "attributes": {
            "POSITION": 94
          },
          "indices": 95,
          "mode": 4
        }
      ]
    },
    {
      "name": "gear_right",
      "primitives": [
        {
          "attributes": {
            "POSITION": 96
          },
          "indices": 97,
          "mode": 4
        }
      ]
    },
    {
      "name": "gear_door_nose",
      "primitives": [
        {
          "attributes": {
            "POSITION": 98
          },
          "indices": 99,
          "mode": 4
        }
      ]
    },
    {
      "name": "gear_door_left",
      "primitives": [
        {
          "attributes": {
            "POSITION": 100
          },
          "indices": 101,
          "mode": 4
        }
      ]
    },
    {
      "name": "gear_door_right",
      "primitives": [
        {
          "attributes": {
            "POSITION": 102
          },
          "indices": 103,
          "mode": 4
        }
      ]
    },
    {
      "name": "tire_nose",
      "primitives": [
        {
          "attributes": {
            "POSITION": 104
          },
          "indices": 105,
          "mode": 4
        }
      ]
    },
    {
      "name": "tire_left",
      "primitives": [
        {
          "attributes": {
            "POSITION": 106
          },
          "indices": 107,
          "mode": 4
        }
      ]
    },
    {
      "name": "tire_right",
      "primitives": [
        {
          "attributes": {
            "POSITION": 108
          },
          "indices": 109,
          "mode": 4
        }
      ]
    },
    {
      "name": "door_fwd",
      "primitives": [
        {
          "attributes": {
            "POSITION": 110
          },
          "indices": 111,
          "mode": 4
        }
      ]
    },
    {
      "name": "cargo_door",
      "primitives": [
        {
          "attributes": {
            "POSITION": 112
          },
          "indices": 113,
          "mode": 4
        }
      ]
    },
    {
      "name": "antenna",
      "primitives": [
        {
          "attributes": {
            "POSITION": 114
          },
          "indices": 115,
          "mode": 4
        }
      ]
    },
    {
      "name": "nav_light_left",
      "primitives": [
        {
          "attributes": {
            "POSITION": 116
          },
          "indices": 117,
          "mode": 4
        }
      ]
    },
    {
      "name": "nav_light_right",
      "primitives": [
        {
          "attributes": {
            "POSITION": 118
          },
          "indices": 119,
          "mode": 4
        }
      ]
    },
    {
      "name": "beacon_top",
      "primitives": [
        {
          "attributes": {
            "POSITION": 120
          },
          "indices": 121,
          "mode": 4
        }
      ]
    },
    {
      "name": "landing_light_l",
      "primitives": [
        {
          "attributes": {
            "POSITION": 122
          },
          "indices": 123,
          "mode": 4
        }
      ]
    },
    {
      "name": "landing_light_r",
      "primitives": [
        {
          "attributes": {
            "POSITION": 124
          },
          "indices": 125,
          "mode": 4
        }
      ]
    },
    {
      "name": "taxi_light",
      "primitives": [
        {
          "attributes": {
            "POSITION": 126
          },
          "indices": 127,
          "mode": 4
        }
      ]
    }
  ],
  "nodes": [
    {
      "name": "fuselage",
      "mesh": 0
    },
    {
      "name": "belly_fairing",
      "mesh": 1
    },
    {
      "name": "cockpit",
      "mesh": 2
    },
    {
      "name": "cockpit_frame",
      "mesh": 3
    },
    {
      "name": "cabin_window_band",
      "mesh": 4
    },
    {
      "name": "cabin_window_1",
      "mesh": 5
    },
    {
      "name": "cabin_window_2",
      "mesh": 6
    },
    {
      "name": "cabin_window_3",
      "mesh": 7
    },
    {
      "name": "cabin_window_4",
      "mesh": 8
    },
    {
      "name": "cabin_window_5",
      "mesh": 9
    },
    {
      "name": "cabin_window_r1",
      "mesh": 10
    },
    {
      "name": "cabin_window_r2",
      "mesh": 11
    },
    {
      "name": "cabin_window_r3",
      "mesh": 12
    },
    {
      "name": "cabin_window_r4",
      "mesh": 13
    },
    {
      "name": "cabin_window_r5",
      "mesh": 14
    },
    {
      "name": "wing_left",
      "mesh": 15
    },
    {
      "name": "wing_right",
      "mesh": 16
    },
    {
      "name": "wing_root_left",
      "mesh": 17
    },
    {
      "name": "wing_root_right",
      "mesh": 18
    },
    {
      "name": "flap_left",
      "mesh": 19
    },
    {
      "name": "flap_right",
      "mesh": 20
    },
    {
      "name": "aileron_left",
      "mesh": 21
    },
    {
      "name": "aileron_right",
      "mesh": 22
    },
    {
      "name": "winglet_left",
      "mesh": 23
    },
    {
      "name": "winglet_right",
      "mesh": 24
    },
    {
      "name": "engine_left",
      "mesh": 25
    },
    {
      "name": "engine_right",
      "mesh": 26
    },
    {
      "name": "nacelle_left",
      "mesh": 27
    },
    {
      "name": "nacelle_right",
      "mesh": 28
    },
    {
      "name": "intake_left",
      "mesh": 29
    },
    {
      "name": "intake_right",
      "mesh": 30
    },
    {
      "name": "exhaust_left",
      "mesh": 31
    },
    {
      "name": "exhaust_right",
      "mesh": 32
    },
    {
      "name": "propeller_left",
      "mesh": 33
    },
    {
      "name": "propeller_left_b",
      "mesh": 34
    },
    {
      "name": "propeller_right",
      "mesh": 35
    },
    {
      "name": "propeller_right_b",
      "mesh": 36
    },
    {
      "name": "spinner_left",
      "mesh": 37
    },
    {
      "name": "spinner_right",
      "mesh": 38
    },
    {
      "name": "tail_fin",
      "mesh": 39
    },
    {
      "name": "tail_fin_tip",
      "mesh": 40
    },
    {
      "name": "tailplane",
      "mesh": 41
    },
    {
      "name": "elevator_left",
      "mesh": 42
    },
    {
      "name": "elevator_right",
      "mesh": 43
    },
    {
      "name": "rudder",
      "mesh": 44
    },
    {
      "name": "dorsal_fin",
      "mesh": 45
    },
    {
      "name": "gear_nose",
      "mesh": 46
    },
    {
      "name": "gear_left",
      "mesh": 47
    },
    {
      "name": "gear_right",
      "mesh": 48
    },
    {
      "name": "gear_door_nose",
      "mesh": 49
    },
    {
      "name": "gear_door_left",
      "mesh": 50
    },
    {
      "name": "gear_door_right",
      "mesh": 51
    },
    {
      "name": "tire_nose",
      "mesh": 52
    },
    {
      "name": "tire_left",
      "mesh": 53
    },
    {
      "name": "tire_right",
      "mesh": 54
    },
    {
      "name": "door_fwd",
      "mesh": 55
    },
    {
      "name": "cargo_door",
      "mesh": 56
    },
    {
      "name": "antenna",
      "mesh": 57
    },
    {
      "name": "nav_light_left",
      "mesh": 58
    },
    {
      "name": "nav_light_right",
      "mesh": 59
    },
    {
      "name": "beacon_top",
      "mesh": 60
    },
    {
      "name": "landing_light_l",
      "mesh": 61
    },
    {
      "name": "landing_light_r",
      "mesh": 62
    },
    {
      "name": "taxi_light",
      "mesh": 63
    }
  ],
  "scenes": [
    {
      "name": "mdl_regional_turboprop_01_authored_v01",
      "nodes": [
        0,
        1,
        2,
        3,
        4,
        5,
        6,
        7,
        8,
        9,
        10,
        11,
        12,
        13,
        14,
        15,
        16,
        17,
        18,
        19,
        20,
        21,
        22,
        23,
        24,
        25,
        26,
        27,
        28,
        29,
        30,
        31,
        32,
        33,
        34,
        35,
        36,
        37,
        38,
        39,
        40,
        41,
        42,
        43,
        44,
        45,
        46,
        47,
        48,
        49,
        50,
        51,
        52,
        53,
        54,
        55,
        56,
        57,
        58,
        59,
        60,
        61,
        62,
        63
      ]
    }
  ],
  "scene": 0
}