{
 "asset": {
  "version": "2.0",
  "generator": "Airside Batch C v03 lofted kit"
 },
 "buffers": [
  {
   "uri": "mdl_regional_turboprop_01_v03.bin",
   "byteLength": 81816
  }
 ],
 "bufferViews": [
  {
   "buffer": 0,
   "byteOffset": 0,
   "byteLength": 2928,
   "target": 34962
  },
  {
   "buffer": 0,
   "byteOffset": 2928,
   "byteLength": 3180,
   "target": 34963
  },
  {
   "buffer": 0,
   "byteOffset": 6108,
   "byteLength": 744,
   "target": 34962
  },
  {
   "buffer": 0,
   "byteOffset": 6852,
   "byteLength": 972,
   "target": 34963
  },
  {
   "buffer": 0,
   "byteOffset": 7824,
   "byteLength": 480,
   "target": 34962
  },
  {
   "buffer": 0,
   "byteOffset": 8304,
   "byteLength": 120,
   "target": 34963
  },
  {
   "buffer": 0,
   "byteOffset": 8424,
   "byteLength": 576,
   "target": 34962
  },
  {
   "buffer": 0,
   "byteOffset": 9000,
   "byteLength": 144,
   "target": 34963
  },
  {
   "buffer": 0,
   "byteOffset": 9144,
   "byteLength": 4800,
   "target": 34962
  },
  {
   "buffer": 0,
   "byteOffset": 13944,
   "byteLength": 1320,
   "target": 34963
  },
  {
   "buffer": 0,
   "byteOffset": 15264,
   "byteLength": 4800,
   "target": 34962
  },
  {
   "buffer": 0,
   "byteOffset": 20064,
   "byteLength": 1320,
   "target": 34963
  },
  {
   "buffer": 0,
   "byteOffset": 21384,
   "byteLength": 792,
   "target": 34962
  },
  {
   "buffer": 0,
   "byteOffset": 22176,
   "byteLength": 972,
   "target": 34963
  },
  {
   "buffer": 0,
   "byteOffset": 23148,
   "byteLength": 792,
   "target": 34962
  },
  {
   "buffer": 0,
   "byteOffset": 23940,
   "byteLength": 972,
   "target": 34963
  },
  {
   "buffer": 0,
   "byteOffset": 24912,
   "byteLength": 792,
   "target": 34962
  },
  {
   "buffer": 0,
   "byteOffset": 25704,
   "byteLength": 972,
   "target": 34963
  },
  {
   "buffer": 0,
   "byteOffset": 26676,
   "byteLength": 792,
   "target": 34962
  },
  {
   "buffer": 0,
   "byteOffset": 27468,
   "byteLength": 972,
   "target": 34963
  },
  {
   "buffer": 0,
   "byteOffset": 28440,
   "byteLength": 792,
   "target": 34962
  },
  {
   "buffer": 0,
   "byteOffset": 29232,
   "byteLength": 972,
   "target": 34963
  },
  {
   "buffer": 0,
   "byteOffset": 30204,
   "byteLength": 792,
   "target": 34962
  },
  {
   "buffer": 0,
   "byteOffset": 30996,
   "byteLength": 972,
   "target": 34963
  },
  {
   "buffer": 0,
   "byteOffset": 31968,
   "byteLength": 2448,
   "target": 34962
  },
  {
   "buffer": 0,
   "byteOffset": 34416,
   "byteLength": 612,
   "target": 34963
  },
  {
   "buffer": 0,
   "byteOffset": 35028,
   "byteLength": 2448,
   "target": 34962
  },
  {
   "buffer": 0,
   "byteOffset": 37476,
   "byteLength": 612,
   "target": 34963
  },
  {
   "buffer": 0,
   "byteOffset": 38088,
   "byteLength": 2448,
   "target": 34962
  },
  {
   "buffer": 0,
   "byteOffset": 40536,
   "byteLength": 612,
   "target": 34963
  },
  {
   "buffer": 0,
   "byteOffset": 41148,
   "byteLength": 2448,
   "target": 34962
  },
  {
   "buffer": 0,
   "byteOffset": 43596,
   "byteLength": 612,
   "target": 34963
  },
  {
   "buffer": 0,
   "byteOffset": 44208,
   "byteLength": 4800,
   "target": 34962
  },
  {
   "buffer": 0,
   "byteOffset": 49008,
   "byteLength": 1320,
   "target": 34963
  },
  {
   "buffer": 0,
   "byteOffset": 50328,
   "byteLength": 4800,
   "target": 34962
  },
  {
   "buffer": 0,
   "byteOffset": 55128,
   "byteLength": 1320,
   "target": 34963
  },
  {
   "buffer": 0,
   "byteOffset": 56448,
   "byteLength": 4800,
   "target": 34962
  },
  {
   "buffer": 0,
   "byteOffset": 61248,
   "byteLength": 1320,
   "target": 34963
  },
  {
   "buffer": 0,
   "byteOffset": 62568,
   "byteLength": 4800,
   "target": 34962
  },
  {
   "buffer": 0,
   "byteOffset": 67368,
   "byteLength": 1320,
   "target": 34963
  },
  {
   "buffer": 0,
   "byteOffset": 68688,
   "byteLength": 192,
   "target": 34962
  },
  {
   "buffer": 0,
   "byteOffset": 68880,
   "byteLength": 48,
   "target": 34963
  },
  {
   "buffer": 0,
   "byteOffset": 68928,
   "byteLength": 4800,
   "target": 34962
  },
  {
   "buffer": 0,
   "byteOffset": 73728,
   "byteLength": 1320,
   "target": 34963
  },
  {
   "buffer": 0,
   "byteOffset": 75048,
   "byteLength": 456,
   "target": 34962
  },
  {
   "buffer": 0,
   "byteOffset": 75504,
   "byteLength": 588,
   "target": 34963
  },
  {
   "buffer": 0,
   "byteOffset": 76092,
   "byteLength": 456,
   "target": 34962
  },
  {
   "buffer": 0,
   "byteOffset": 76548,
   "byteLength": 588,
   "target": 34963
  },
  {
   "buffer": 0,
   "byteOffset": 77136,
   "byteLength": 456,
   "target": 34962
  },
  {
   "buffer": 0,
   "byteOffset": 77592,
   "byteLength": 588,
   "target": 34963
  },
  {
   "buffer": 0,
   "byteOffset": 78180,
   "byteLength": 528,
   "target": 34962
  },
  {
   "buffer": 0,
   "byteOffset": 78708,
   "byteLength": 684,
   "target": 34963
  },
  {
   "buffer": 0,
   "byteOffset": 79392,
   "byteLength": 528,
   "target": 34962
  },
  {
   "buffer": 0,
   "byteOffset": 79920,
   "byteLength": 684,
   "target": 34963
  },
  {
   "buffer": 0,
   "byteOffset": 80604,
   "byteLength": 528,
   "target": 34962
  },
  {
   "buffer": 0,
   "byteOffset": 81132,
   "byteLength": 684,
   "target": 34963
  }
 ],
 "accessors": [
  {
   "bufferView": 0,
   "componentType": 5126,
   "count": 244,
   "type": "VEC3",
   "max": [
    0.29656192660331726,
    1.030210018157959,
    2.793754816055298
   ],
   "min": [
    -0.29656192660331726,
    0.2851233184337616,
    -2.8124215602874756
   ]
  },
  {
   "bufferView": 1,
   "componentType": 5123,
   "count": 1590,
   "type": "SCALAR"
  },
  {
   "bufferView": 2,
   "componentType": 5126,
   "count": 62,
   "type": "VEC3",
   "max": [
    0.2165333330631256,
    0.7727999687194824,
    2.804954767227173
   ],
   "min": [
    -0.2165333330631256,
    0.35466665029525757,
    2.3644213676452637
   ]
  },
  {
   "bufferView": 3,
   "componentType": 5123,
   "count": 486,
   "type": "SCALAR"
  },
  {
   "bufferView": 4,
   "componentType": 5126,
   "count": 40,
   "type": "VEC3",
   "max": [
    0.23367807269096375,
    0.8829333186149597,
    2.3830881118774414
   ],
   "min": [
    -0.23367807269096375,
    0.7586844563484192,
    1.9350881576538086
   ]
  },
  {
   "bufferView": 5,
   "componentType": 5123,
   "count": 60,
   "type": "SCALAR"
  },
  {
   "bufferView": 6,
   "componentType": 5126,
   "count": 48,
   "type": "VEC3",
   "max": [
    0.2981122136116028,
    0.7291876077651978,
    1.157333254814148
   ],
   "min": [
    -0.2981122136116028,
    0.6205636262893677,
    -1.5679999589920044
   ]
  },
  {
   "bufferView": 7,
   "componentType": 5123,
   "count": 72,
   "type": "SCALAR"
  },
  {
   "bufferView": 8,
   "componentType": 5126,
   "count": 400,
   "type": "VEC3",
   "max": [
    -0.1679999977350235,
    0.9928746223449707,
    0.41066667437553406
   ],
   "min": [
    -2.799999952316284,
    0.7886832356452942,
    -0.13066665828227997
   ]
  },
  {
   "bufferView": 9,
   "componentType": 5123,
   "count": 660,
   "type": "SCALAR"
  },
  {
   "bufferView": 10,
   "componentType": 5126,
   "count": 400,
   "type": "VEC3",
   "max": [
    2.799999952316284,
    0.9928746223449707,
    0.41066667437553406
   ],
   "min": [
    0.1679999977350235,
    0.7886832356452942,
    -0.13066665828227997
   ]
  },
  {
   "bufferView": 11,
   "componentType": 5123,
   "count": 660,
   "type": "SCALAR"
  },
  {
   "bufferView": 12,
   "componentType": 5126,
   "count": 66,
   "type": "VEC3",
   "max": [
    -0.8101333379745483,
    0.8598432540893555,
    1.0080000162124634
   ],
   "min": [
    -1.0938665866851807,
    0.5835766196250916,
    0.3919999897480011
   ]
  },
  {
   "bufferView": 13,
   "componentType": 5123,
   "count": 486,
   "type": "SCALAR"
  },
  {
   "bufferView": 14,
   "componentType": 5126,
   "count": 66,
   "type": "VEC3",
   "max": [
    1.0938665866851807,
    0.8598432540893555,
    1.0080000162124634
   ],
   "min": [
    0.8101333379745483,
    0.5835766196250916,
    0.3919999897480011
   ]
  },
  {
   "bufferView": 15,
   "componentType": 5123,
   "count": 486,
   "type": "SCALAR"
  },
  {
   "bufferView": 16,
   "componentType": 5126,
   "count": 66,
   "type": "VEC3",
   "max": [
    -0.8026666045188904,
    0.8635765910148621,
    0.3919999897480011
   ],
   "min": [
    -1.1013333797454834,
    0.5350432395935059,
    -0.3733333349227905
   ]
  },
  {
   "bufferView": 17,
   "componentType": 5123,
   "count": 486,
   "type": "SCALAR"
  },
  {
   "bufferView": 18,
   "componentType": 5126,
   "count": 66,
   "type": "VEC3",
   "max": [
    1.1013333797454834,
    0.8635765910148621,
    0.3919999897480011
   ],
   "min": [
    0.8026666045188904,
    0.5350432395935059,
    -0.3733333349227905
   ]
  },
  {
   "bufferView": 19,
   "componentType": 5123,
   "count": 486,
   "type": "SCALAR"
  },
  {
   "bufferView": 20,
   "componentType": 5126,
   "count": 66,
   "type": "VEC3",
   "max": [
    -0.8661333322525024,
    0.8075765371322632,
    1.2879999876022339
   ],
   "min": [
    -1.0378667116165161,
    0.6358432769775391,
    1.0042667388916016
   ]
  },
  {
   "bufferView": 21,
   "componentType": 5123,
   "count": 486,
   "type": "SCALAR"
  },
  {
   "bufferView": 22,
   "componentType": 5126,
   "count": 66,
   "type": "VEC3",
   "max": [
    1.0378667116165161,
    0.8075765371322632,
    1.2879999876022339
   ],
   "min": [
    0.8661333322525024,
    0.6358432769775391,
    1.0042667388916016
   ]
  },
  {
   "bufferView": 23,
   "componentType": 5123,
   "count": 486,
   "type": "SCALAR"
  },
  {
   "bufferView": 24,
   "componentType": 5126,
   "count": 204,
   "type": "VEC3",
   "max": [
    -0.5451977252960205,
    1.088944435119629,
    1.1514562368392944
   ],
   "min": [
    -1.1812664270401,
    0.3544755280017853,
    1.125877022743225
   ]
  },
  {
   "bufferView": 25,
   "componentType": 5123,
   "count": 306,
   "type": "SCALAR"
  },
  {
   "bufferView": 26,
   "componentType": 5126,
   "count": 204,
   "type": "VEC3",
   "max": [
    -0.7227336168289185,
    1.088944435119629,
    1.1514562368392944
   ],
   "min": [
    -1.358802318572998,
    0.3544755280017853,
    1.125877022743225
   ]
  },
  {
   "bufferView": 27,
   "componentType": 5123,
   "count": 306,
   "type": "SCALAR"
  },
  {
   "bufferView": 28,
   "componentType": 5126,
   "count": 204,
   "type": "VEC3",
   "max": [
    1.358802318572998,
    1.088944435119629,
    1.1514562368392944
   ],
   "min": [
    0.7227336168289185,
    0.3544755280017853,
    1.125877022743225
   ]
  },
  {
   "bufferView": 29,
   "componentType": 5123,
   "count": 306,
   "type": "SCALAR"
  },
  {
   "bufferView": 30,
   "componentType": 5126,
   "count": 204,
   "type": "VEC3",
   "max": [
    1.1812664270401,
    1.088944435119629,
    1.1514562368392944
   ],
   "min": [
    0.5451977252960205,
    0.3544755280017853,
    1.125877022743225
   ]
  },
  {
   "bufferView": 31,
   "componentType": 5123,
   "count": 306,
   "type": "SCALAR"
  },
  {
   "bufferView": 32,
   "componentType": 5126,
   "count": 400,
   "type": "VEC3",
   "max": [
    0.042882565408945084,
    1.5837337970733643,
    -1.8044214248657227
   ],
   "min": [
    -0.042882565408945084,
    0.690666675567627,
    -2.644421339035034
   ]
  },
  {
   "bufferView": 33,
   "componentType": 5123,
   "count": 660,
   "type": "SCALAR"
  },
  {
   "bufferView": 34,
   "componentType": 5126,
   "count": 400,
   "type": "VEC3",
   "max": [
    0.02358541078865528,
    1.5138992071151733,
    -2.6257548332214355
   ],
   "min": [
    -0.02358541078865528,
    0.7280000448226929,
    -3.0214879512786865
   ]
  },
  {
   "bufferView": 35,
   "componentType": 5123,
   "count": 660,
   "type": "SCALAR"
  },
  {
   "bufferView": 36,
   "componentType": 5126,
   "count": 400,
   "type": "VEC3",
   "max": [
    1.0266666412353516,
    1.5640895366668701,
    -2.1964213848114014
   ],
   "min": [
    0.0,
    1.4843719005584717,
    -2.5510880947113037
   ]
  },
  {
   "bufferView": 37,
   "componentType": 5123,
   "count": 660,
   "type": "SCALAR"
  },
  {
   "bufferView": 38,
   "componentType": 5126,
   "count": 400,
   "type": "VEC3",
   "max": [
    0.0,
    1.5640895366668701,
    -2.1964213848114014
   ],
   "min": [
    -1.0266666412353516,
    1.4843719005584717,
    -2.5510880947113037
   ]
  },
  {
   "bufferView": 39,
   "componentType": 5123,
   "count": 660,
   "type": "SCALAR"
  },
  {
   "bufferView": 40,
   "componentType": 5126,
   "count": 16,
   "type": "VEC3",
   "max": [
    -0.2632964849472046,
    0.6186809539794922,
    1.1013333797454834
   ],
   "min": [
    -0.30328798294067383,
    0.4878746271133423,
    0.578666627407074
   ]
  },
  {
   "bufferView": 41,
   "componentType": 5123,
   "count": 24,
   "type": "SCALAR"
  },
  {
   "bufferView": 42,
   "componentType": 5126,
   "count": 400,
   "type": "VEC3",
   "max": [
    0.01179270539432764,
    0.9873338341712952,
    0.14933334290981293
   ],
   "min": [
    -0.01179270539432764,
    0.8604004979133606,
    -0.018666667863726616
   ]
  },
  {
   "bufferView": 43,
   "componentType": 5123,
   "count": 660,
   "type": "SCALAR"
  },
  {
   "bufferView": 44,
   "componentType": 5126,
   "count": 38,
   "type": "VEC3",
   "max": [
    0.03360000252723694,
    0.39013317227363586,
    1.8753548860549927
   ],
   "min": [
    -0.03360000252723694,
    -0.001866709440946579,
    1.808154821395874
   ]
  },
  {
   "bufferView": 45,
   "componentType": 5123,
   "count": 294,
   "type": "SCALAR"
  },
  {
   "bufferView": 46,
   "componentType": 5126,
   "count": 38,
   "type": "VEC3",
   "max": [
    -0.9146667122840881,
    0.41066667437553406,
    -0.09333333373069763
   ],
   "min": [
    -0.9893332719802856,
    2.2252400810884865e-08,
    -0.1679999977350235
   ]
  },
  {
   "bufferView": 47,
   "componentType": 5123,
   "count": 294,
   "type": "SCALAR"
  },
  {
   "bufferView": 48,
   "componentType": 5126,
   "count": 38,
   "type": "VEC3",
   "max": [
    0.9893332719802856,
    0.41066667437553406,
    -0.09333333373069763
   ],
   "min": [
    0.9146667122840881,
    2.2252400810884865e-08,
    -0.1679999977350235
   ]
  },
  {
   "bufferView": 49,
   "componentType": 5123,
   "count": 294,
   "type": "SCALAR"
  },
  {
   "bufferView": 50,
   "componentType": 5126,
   "count": 44,
   "type": "VEC3",
   "max": [
    0.04106653854250908,
    0.22119192779064178,
    1.9537549018859863
   ],
   "min": [
    -0.041066717356443405,
    0.0028080749325454235,
    1.7297548055648804
   ]
  },
  {
   "bufferView": 51,
   "componentType": 5123,
   "count": 342,
   "type": "SCALAR"
  },
  {
   "bufferView": 52,
   "componentType": 5126,
   "count": 44,
   "type": "VEC3",
   "max": [
    -0.9034667015075684,
    0.2506842017173767,
    -0.0037333297077566385
   ],
   "min": [
    -1.0005333423614502,
    0.003182482672855258,
    -0.25760000944137573
   ]
  },
  {
   "bufferView": 53,
   "componentType": 5123,
   "count": 342,
   "type": "SCALAR"
  },
  {
   "bufferView": 54,
   "componentType": 5126,
   "count": 44,
   "type": "VEC3",
   "max": [
    1.0005333423614502,
    0.2506842017173767,
    -0.0037333297077566385
   ],
   "min": [
    0.9034667015075684,
    0.003182482672855258,
    -0.25760000944137573
   ]
  },
  {
   "bufferView": 55,
   "componentType": 5123,
   "count": 342,
   "type": "SCALAR"
  }
 ],
 "meshes": [
  {
   "name": "fuselage",
   "primitives": [
    {
     "attributes": {
      "POSITION": 0
     },
     "indices": 1,
     "mode": 4
    }
   ]
  },
  {
   "name": "nose",
   "primitives": [
    {
     "attributes": {
      "POSITION": 2
     },
     "indices": 3,
     "mode": 4
    }
   ]
  },
  {
   "name": "cockpit",
   "primitives": [
    {
     "attributes": {
      "POSITION": 4
     },
     "indices": 5,
     "mode": 4
    }
   ]
  },
  {
   "name": "cabin_windows",
   "primitives": [
    {
     "attributes": {
      "POSITION": 6
     },
     "indices": 7,
     "mode": 4
    }
   ]
  },
  {
   "name": "wing_left",
   "primitives": [
    {
     "attributes": {
      "POSITION": 8
     },
     "indices": 9,
     "mode": 4
    }
   ]
  },
  {
   "name": "wing_right",
   "primitives": [
    {
     "attributes": {
      "POSITION": 10
     },
     "indices": 11,
     "mode": 4
    }
   ]
  },
  {
   "name": "engine_left",
   "primitives": [
    {
     "attributes": {
      "POSITION": 12
     },
     "indices": 13,
     "mode": 4
    }
   ]
  },
  {
   "name": "engine_right",
   "primitives": [
    {
     "attributes": {
      "POSITION": 14
     },
     "indices": 15,
     "mode": 4
    }
   ]
  },
  {
   "name": "nacelle_left",
   "primitives": [
    {
     "attributes": {
      "POSITION": 16
     },
     "indices": 17,
     "mode": 4
    }
   ]
  },
  {
   "name": "nacelle_right",
   "primitives": [
    {
     "attributes": {
      "POSITION": 18
     },
     "indices": 19,
     "mode": 4
    }
   ]
  },
  {
   "name": "spinner_left",
   "primitives": [
    {
     "attributes": {
      "POSITION": 20
     },
     "indices": 21,
     "mode": 4
    }
   ]
  },
  {
   "name": "spinner_right",
   "primitives": [
    {
     "attributes": {
      "POSITION": 22
     },
     "indices": 23,
     "mode": 4
    }
   ]
  },
  {
   "name": "propeller_left",
   "primitives": [
    {
     "attributes": {
      "POSITION": 24
     },
     "indices": 25,
     "mode": 4
    }
   ]
  },
  {
   "name": "propeller_left_b",
   "primitives": [
    {
     "attributes": {
      "POSITION": 26
     },
     "indices": 27,
     "mode": 4
    }
   ]
  },
  {
   "name": "propeller_right",
   "primitives": [
    {
     "attributes": {
      "POSITION": 28
     },
     "indices": 29,
     "mode": 4
    }
   ]
  },
  {
   "name": "propeller_right_b",
   "primitives": [
    {
     "attributes": {
      "POSITION": 30
     },
     "indices": 31,
     "mode": 4
    }
   ]
  },
  {
   "name": "tail_fin",
   "primitives": [
    {
     "attributes": {
      "POSITION": 32
     },
     "indices": 33,
     "mode": 4
    }
   ]
  },
  {
   "name": "rudder",
   "primitives": [
    {
     "attributes": {
      "POSITION": 34
     },
     "indices": 35,
     "mode": 4
    }
   ]
  },
  {
   "name": "tailplane",
   "primitives": [
    {
     "attributes": {
      "POSITION": 36
     },
     "indices": 37,
     "mode": 4
    }
   ]
  },
  {
   "name": "tailplane_left",
   "primitives": [
    {
     "attributes": {
      "POSITION": 38
     },
     "indices": 39,
     "mode": 4
    }
   ]
  },
  {
   "name": "door_fwd",
   "primitives": [
    {
     "attributes": {
      "POSITION": 40
     },
     "indices": 41,
     "mode": 4
    }
   ]
  },
  {
   "name": "antenna",
   "primitives": [
    {
     "attributes": {
      "POSITION": 42
     },
     "indices": 43,
     "mode": 4
    }
   ]
  },
  {
   "name": "gear_nose",
   "primitives": [
    {
     "attributes": {
      "POSITION": 44
     },
     "indices": 45,
     "mode": 4
    }
   ]
  },
  {
   "name": "gear_left",
   "primitives": [
    {
     "attributes": {
      "POSITION": 46
     },
     "indices": 47,
     "mode": 4
    }
   ]
  },
  {
   "name": "gear_right",
   "primitives": [
    {
     "attributes": {
      "POSITION": 48
     },
     "indices": 49,
     "mode": 4
    }
   ]
  },
  {
   "name": "tire_nose",
   "primitives": [
    {
     "attributes": {
      "POSITION": 50
     },
     "indices": 51,
     "mode": 4
    }
   ]
  },
  {
   "name": "tire_left",
   "primitives": [
    {
     "attributes": {
      "POSITION": 52
     },
     "indices": 53,
     "mode": 4
    }
   ]
  },
  {
   "name": "tire_right",
   "primitives": [
    {
     "attributes": {
      "POSITION": 54
     },
     "indices": 55,
     "mode": 4
    }
   ]
  }
 ],
 "nodes": [
  {
   "name": "fuselage",
   "mesh": 0
  },
  {
   "name": "nose",
   "mesh": 1
  },
  {
   "name": "cockpit",
   "mesh": 2
  },
  {
   "name": "cabin_windows",
   "mesh": 3
  },
  {
   "name": "wing_left",
   "mesh": 4
  },
  {
   "name": "wing_right",
   "mesh": 5
  },
  {
   "name": "engine_left",
   "mesh": 6
  },
  {
   "name": "engine_right",
   "mesh": 7
  },
  {
   "name": "nacelle_left",
   "mesh": 8
  },
  {
   "name": "nacelle_right",
   "mesh": 9
  },
  {
   "name": "spinner_left",
   "mesh": 10
  },
  {
   "name": "spinner_right",
   "mesh": 11
  },
  {
   "name": "propeller_left",
   "mesh": 12
  },
  {
   "name": "propeller_left_b",
   "mesh": 13
  },
  {
   "name": "propeller_right",
   "mesh": 14
  },
  {
   "name": "propeller_right_b",
   "mesh": 15
  },
  {
   "name": "tail_fin",
   "mesh": 16
  },
  {
   "name": "rudder",
   "mesh": 17
  },
  {
   "name": "tailplane",
   "mesh": 18
  },
  {
   "name": "tailplane_left",
   "mesh": 19
  },
  {
   "name": "door_fwd",
   "mesh": 20
  },
  {
   "name": "antenna",
   "mesh": 21
  },
  {
   "name": "gear_nose",
   "mesh": 22
  },
  {
   "name": "gear_left",
   "mesh": 23
  },
  {
   "name": "gear_right",
   "mesh": 24
  },
  {
   "name": "tire_nose",
   "mesh": 25
  },
  {
   "name": "tire_left",
   "mesh": 26
  },
  {
   "name": "tire_right",
   "mesh": 27
  }
 ],
 "scenes": [
  {
   "name": "mdl_regional_turboprop_01_v03",
   "nodes": [
    0,
    1,
    2,
    3,
    4,
    5,
    6,
    7,
    8,
    9,
    10,
    11,
    12,
    13,
    14,
    15,
    16,
    17,
    18,
    19,
    20,
    21,
    22,
    23,
    24,
    25,
    26,
    27
   ]
  }
 ],
 "scene": 0
}